<?xml version="1.0" standalone="no"?>
<!DOCTYPE svg PUBLIC "-//W3C//DTD SVG 1.1//EN" "http://www.w3.org/Graphics/SVG/1.1/DTD/svg11.dtd" >
<svg xmlns="http://www.w3.org/2000/svg">
<metadata>
This is a custom SVG webfont generated by Font Squirrel.
Copyright   : Copyright c 2010 by ELi Fried All rights reserved
Foundry     : ELi Fried
</metadata>
<defs>
<font id="EFTClaveLightRegular" horiz-adv-x="0" >
<font-face units-per-em="2048" ascent="1638" descent="-410" />
<missing-glyph horiz-adv-x="471" />
<glyph unicode=" "  horiz-adv-x="471" />
<glyph unicode="&#x09;" horiz-adv-x="471" />
<glyph unicode="&#xa0;" horiz-adv-x="471" />
<glyph unicode="!" horiz-adv-x="446" d="M98 33v86q0 35 33 35h82q33 0 33 -35v-86q0 -35 -33 -35h-82q-33 0 -33 35zM98 1350q-4 39 33 39h121q31 0 31 -39l-43 -942q-6 -35 -35 -35h-45q-35 0 -35 35z" />
<glyph unicode="&#x22;" horiz-adv-x="890" d="M96 840l115 411q16 45 35 45h121q33 0 32 -28q0 -6 -75 -189q-6 -14 -15.5 -33.5t-19.5 -41.5l-66 -142q-20 -51 -92 -51q-35 0 -35 29zM424 840l115 411q16 45 34 45h121q33 0 33 -28q0 -6 -76 -189q-6 -14 -15 -33.5t-20 -41.5l-65 -142q-20 -51 -92 -51q-35 0 -35 29z " />
<glyph unicode="#" horiz-adv-x="1163" d="M96 465q0 6 3 19.5t14 31.5q18 37 30 37h181l63 141h-170q-12 0 -12 13q0 18 18 55q18 39 33 39h180l70 162q4 4 12 8h90q12 0 13 -10q0 -8 -70 -160h154l73 162q0 2 10 8h91q10 0 10 -10q0 -6 -68 -160h168q10 0 10 -8t-4 -22.5t-16 -35.5q-18 -41 -29 -41h-176 l-67 -141h172q10 0 10 -14q0 -18 -17 -52q-16 -41 -30 -41h-183l-71 -161q0 -2 -10 -6h-91q-12 0 -12 12q23 53 40 91t28 64h-152l-72 -161q-2 -4 -5 -4t-7 -2h-90q-12 0 -12 10q0 6 69 157h-165q-13 1 -13 19zM438 553h154l63 141h-157z" />
<glyph unicode="$" horiz-adv-x="1114" d="M96 324q0 12 13 12h118q20 0 21 -43q0 -41 21.5 -77t60.5 -64.5t90 -45t112 -16.5q113 0 189 56.5t76 148.5q0 29 -4.5 56.5t-19.5 54t-46 49t-82 41.5l-346 116q-74 25 -116 78t-54 120t5.5 137.5t61.5 130t112.5 96t160.5 36.5v105q0 12 12 12h82q10 0 10 -12v-101 q162 -10 252 -90q106 -94 107 -200q0 -35 -25 -35h-104q-23 0 -23 14v2q-6 47 -31.5 82t-62.5 59.5t-83 37t-91 14.5q-96 2 -158.5 -45t-82 -111.5t10 -129t119.5 -93.5l232 -74q66 -20 124 -47t101 -65.5t67.5 -93t24.5 -130.5q0 -80 -29.5 -142.5t-79.5 -105.5t-119 -66.5 t-149 -25.5v-141q0 -8 -10 -8h-82q-12 0 -12 8v141q-170 6 -268 97q-105 92 -105 258z" />
<glyph unicode="%" horiz-adv-x="1581" d="M96 866q0 342 246 342q244 0 244 -340q0 -72 -13.5 -127t-37.5 -100q-63 -111 -193 -111q-246 0 -246 336zM195 864q0 -258 145 -258t145 271q0 256 -139 256q-151 -1 -151 -269zM461 -2l481 1188q14 45 35 45h80q25 0 12 -27l-481 -1190q-18 -45 -35 -45h-78 q-26 0 -14 29zM926 297q0 340 245 340q246 0 246 -336q0 -139 -53 -227q-61 -111 -193 -111q-245 0 -245 334zM1024 295q0 -258 145 -258q143 0 144 270q0 254 -139 254q-150 0 -150 -266z" />
<glyph unicode="&#x26;" horiz-adv-x="1697" d="M96 1026v162h625q109 0 186.5 -15.5t128.5 -57.5t76 -113.5t25 -182.5l2 -391h-178l2 395q0 59 -9.5 98.5t-34 63t-66.5 32.5t-108 9h-327q-53 0 -53 -74v-950h-175v768q0 31 3.5 67.5t12.5 69.5t24.5 57.5t39.5 30.5v31h-174zM582 817h178l-2 -348q0 -111 16.5 -177.5 t52 -101t91 -45t129.5 -10.5q70 0 125 10.5t94 41t59.5 89t20.5 154.5v760h174v-651q0 -158 -28 -266.5t-85 -176t-147.5 -97.5t-212.5 -30q-111 0 -196 29t-144.5 95.5t-90 175t-32.5 270.5z" />
<glyph unicode="'" horiz-adv-x="563" d="M96 840l115 411q16 45 35 45h121q33 0 32 -28q0 -6 -75 -189q-6 -14 -15.5 -33.5t-19.5 -41.5l-66 -142q-20 -51 -92 -51q-35 0 -35 29z" />
<glyph unicode="(" horiz-adv-x="661" d="M96 559q0 199 58.5 411t175.5 437q2 6 6 8t8 2h115q12 0 12 -12q0 -8 -2 -12q-25 -39 -37 -78q-156 -367 -156 -737v-15q0 -180 68 -413q31 -111 69 -208.5t83 -189.5q2 -10 -11 -10h-106q-12 0 -21 10q-106 164 -180 389q-82 238 -82 418z" />
<glyph unicode=")" horiz-adv-x="661" d="M98 -248q47 98 85 195.5t67 202.5q33 119 50 222t17 191v15q0 186 -38.5 368t-114.5 369q-14 23 -23.5 42t-15.5 36q-4 8 -4 14q0 10 12 10h117q8 0 14 -10q117 -223 175.5 -434t58.5 -414q0 -180 -82 -418q-74 -225 -180 -389q-8 -10 -21 -10h-106q-13 0 -11 10z" />
<glyph unicode="*" horiz-adv-x="980" d="M96 1157q0 4 1 7t1 5l11 37q12 37 65 27q23 -4 52.5 -12.5t62.5 -24.5l110 -45v266q0 39 39 39h41q37 0 37 -39v-268q66 27 116 45t83 31q76 25 86 -21l12 -37q12 -43 -22 -55l-240 -80q23 -37 42 -63.5t32 -42.5q14 -16 26.5 -34t26.5 -38q27 -39 27 -66q0 -10 -4.5 -16 l-10.5 -14l-35 -25q-6 -6 -20 -6q-27 0 -60 45q-29 39 -53 80q-23 35 -39 62.5t-26 46.5l-22.5 -36t-28.5 -44q-35 -53 -51.5 -79t-20.5 -28q-33 -47 -60 -47q-16 0 -22 6l-27 25q-18 8 -18 30q0 16 26 64q61 86 93 131t36 49q-59 16 -110 32.5t-92 33.5q-64 22 -64 59z" />
<glyph unicode="+" horiz-adv-x="1075" d="M96 555v94q0 35 35 35h295v303q0 39 35 39h88q35 0 35 -39v-303h293q35 0 34 -35v-94q0 -35 -34 -35h-293v-330q0 -37 -35 -36h-88q-35 0 -35 36v330h-295q-35 0 -35 35z" />
<glyph unicode="," horiz-adv-x="565" d="M96 -223l117 411q8 45 31 45h125q33 0 32 -26q0 -18 -79 -193q-8 -20 -16.5 -38.5t-18.5 -36.5l-64 -140q-25 -53 -90 -53q-37 0 -37 31z" />
<glyph unicode="-" horiz-adv-x="1087" d="M96 539v127q0 41 35 41h758q35 0 35 -41v-127q0 -43 -35 -43h-758q-35 0 -35 43z" />
<glyph unicode="." horiz-adv-x="411" d="M96 39v74q0 43 35 43h82q35 0 35 -43v-74q0 -41 -35 -41h-82q-35 0 -35 41z" />
<glyph unicode="/" horiz-adv-x="925" d="M104 -51l508 1222q12 27 37 27h90q33 0 15 -41l-514 -1229q-8 -27 -41 -26h-76q-37 0 -19 47z" />
<glyph unicode="0" horiz-adv-x="921" d="M33 600q0 315 112.5 470t309.5 155q129 0 212 -54.5t132 -143.5t68.5 -200.5t19.5 -226.5q0 -315 -118 -472t-314 -157q-195 0 -308.5 157t-113.5 472zM188 600q0 -246 76 -362.5t191 -116.5q121 0 198.5 116.5t77.5 362.5q0 244 -78 357.5t-198 113.5 q-115 0 -191 -113.5t-76 -357.5z" />
<glyph unicode="1" horiz-adv-x="921" d="M213 938l299 256h195v-1192h-175v983l-290 -117z" />
<glyph unicode="2" horiz-adv-x="921" d="M74 838v73q0 70 28.5 127.5t77.5 99.5t115.5 65.5t142.5 23.5q168 0 266.5 -60.5t128 -156t-6 -211t-134.5 -228.5l-362 -409h518v-160h-768v94l508 588q70 82 86 151.5t-8.5 121t-81 80t-127.5 28.5q-111 0 -172.5 -49t-61.5 -178h-149z" />
<glyph unicode="3" horiz-adv-x="921" d="M80 0v166h428q20 0 50 12t58.5 40t49 72t22.5 107t-15.5 105.5t-43 67t-54 33.5t-49.5 9h-280v33l276 381h-436v160h694v-41l-288 -400q76 4 140 -17t111.5 -63t73 -101.5t25.5 -131.5q0 -74 -23.5 -149.5t-70 -139t-113 -103.5t-150.5 -40h-405z" />
<glyph unicode="4" horiz-adv-x="921" d="M55 254v256l328 676h178v-29l-364 -731h378v307h166v-307h123v-172h-123v-252h-168v252h-518z" />
<glyph unicode="5" horiz-adv-x="921" d="M82 0v162h465q16 0 38.5 10t42 38t34 76t14.5 126q0 55 -14.5 90t-34 54t-42 27.5t-38.5 8.5h-465l86 594h586v-160h-471l-35 -283h299q72 0 126 -29.5t91 -78.5t56.5 -113.5t19.5 -132.5q0 -70 -19.5 -139.5t-59.5 -124.5t-98.5 -90t-136.5 -35h-444z" />
<glyph unicode="6" horiz-adv-x="921" d="M75 465q7 96 38.5 190.5t87.5 173.5l248 357h182l-328 -500q88 39 184.5 37t177 -41t133 -114.5t52.5 -184.5q0 -78 -21.5 -151.5t-66.5 -132t-114.5 -93.5t-166.5 -35q-115 0 -195.5 41t-130 111t-68.5 158t-12 184zM228 378q3 -79 32 -136.5t80 -90t115 -32.5 q135 0 192.5 65.5t48.5 206.5q-4 68 -43 118t-99 74.5t-137 17.5t-157 -54q-35 -90 -32 -169z" />
<glyph unicode="7" horiz-adv-x="921" d="M90 1026v160h739v-94l-337 -1090h-170l315 1024h-547z" />
<glyph unicode="8" horiz-adv-x="921" d="M59 322q2 39 14.5 84t36 87t60.5 78.5t88 59.5q-86 37 -124 98.5t-38 132.5q0 172 98.5 266.5t266.5 94.5q188 0 282.5 -86t87.5 -260q-4 -80 -46 -144.5t-109 -95.5q72 -29 126 -103.5t58 -183.5q6 -205 -95 -305t-304 -100q-201 0 -306.5 97.5t-95.5 279.5zM213 313 q4 -119 57.5 -172t182.5 -55q68 0 116.5 9t81.5 36t49.5 71t18.5 111q4 147 -61.5 200.5t-194.5 53.5t-191.5 -61.5t-58.5 -192.5zM248 866q0 -37 8 -66.5t31.5 -53t64.5 -38t107 -16.5q66 -4 107.5 10.5t65 40t33 57t9.5 66.5q0 119 -51.5 165t-161.5 46q-115 0 -164 -45 t-49 -166z" />
<glyph unicode="9" horiz-adv-x="921" d="M76 829q0 78 22.5 148t66.5 123t112.5 83.5t164.5 30.5q164 0 258.5 -73.5t127 -186t7 -248t-101.5 -260.5l-258 -446h-182l315 526q-104 -53 -201.5 -48t-171 51t-116.5 125t-43 175zM227 801q2 -59 39 -105.5t98.5 -68t140.5 -12t165 62.5q29 76 27.5 146.5t-30 125 t-85 86t-138.5 31.5q-117 0 -169 -68.5t-48 -197.5z" />
<glyph unicode=":" horiz-adv-x="411" d="M96 39v74q0 43 35 43h82q35 0 35 -43v-74q0 -41 -35 -41h-82q-35 0 -35 41zM96 795v73q0 43 35 43h82q35 0 35 -43v-73q0 -41 -35 -41h-82q-35 0 -35 41z" />
<glyph unicode=";" horiz-adv-x="452" d="M96 -166q59 90 60 344q0 31 20 31h80q29 0 29 -31v-69q0 -29 -4.5 -64t-16.5 -72q-25 -100 -78 -149h-80zM137 795v73q0 43 35 43h82q35 0 35 -43v-73q0 -41 -35 -41h-82q-35 0 -35 41z" />
<glyph unicode="&#x3c;" horiz-adv-x="792" d="M96 586q0 29 25 55l430 440q10 12 19.5 14.5t17.5 2.5q41 0 41 -47q0 -35 -7.5 -55.5t-19.5 -34.5q-92 -96 -182 -187.5t-182 -187.5l362 -379q12 -16 20.5 -38t8.5 -50q0 -49 -39 -49q-12 0 -21.5 6t-19.5 16l-430 436q-23 23 -23 58z" />
<glyph unicode="=" horiz-adv-x="620" d="M96 248v160h361v-160h-361zM96 555v162h361v-162h-361z" />
<glyph unicode="&#x3e;" horiz-adv-x="792" d="M96 119q0 29 8.5 50t20.5 38l362 379q-92 96 -182 187t-182 188q-12 14 -19.5 34.5t-7.5 55.5q0 47 41 47q8 0 17.5 -2t19.5 -15l430 -440q25 -27 25 -55q0 -35 -23 -58l-430 -436q-10 -10 -19.5 -16t-21.5 -6q-39 0 -39 49z" />
<glyph unicode="?" horiz-adv-x="960" d="M96 1239v82q0 20 29 37q51 25 118.5 34t129.5 13q74 6 145.5 -18.5t129 -68.5t96 -105.5t49 -131t-14 -141.5t-94.5 -139q-45 -45 -94 -83t-101 -89q-37 -37 -51 -74t-14 -72q-4 -72 -11 -91t-24 -19h-100q-35 0 -35 35q0 39 1 56t2 26.5t2 16.5t1 23q0 53 24.5 88 t84.5 84l209 181q51 45 61 101t-10.5 110.5t-68.5 96.5t-114 58q-41 8 -69.5 10.5t-62 -1t-79 -10.5t-114.5 -15q-25 -4 -25 6zM254 33v86q0 35 35 35h80q35 0 34 -35v-86q0 -35 -34 -35h-80q-35 0 -35 35z" />
<glyph unicode="@" horiz-adv-x="1529" d="M29 432q0 131 82 281q102 193 307 317q205 129 418 129q285 0 448 -166q166 -164 166 -448q0 -104 -70 -242q-72 -139 -151 -190q-63 -39 -168 -39q-145 0 -180 139q-104 -141 -242 -141q-213 0 -213 266q0 109 68 231q63 117 159 185q76 57 142 57q82 0 116 -18 q45 -20 78 -88l23 83h149l-141 -538q-2 -10 -2 -19.5t-2 -17.5q0 -66 88 -66q94 0 172 111q111 160 110 299q0 233 -145 385q-143 150 -383 150q-186 0 -350 -109t-246 -274q-68 -141 -67 -336q0 -184 90 -324q94 -147 260 -211q98 -37 188 -37q156 0 246 19q127 25 225 94 l31 -47q-186 -137 -485 -137q-250 0 -471 184q-250 209 -250 518zM584 311q0 -168 96 -168q80 0 147 82q55 72 80 158q45 160 45 211q0 53 -20 92q-27 51 -72 51q-86 0 -180 -123q-96 -127 -96 -303z" />
<glyph unicode="A" horiz-adv-x="1394" d="M37 0v49h184l463 1290h37l463 -1290h186v-49h-637v49h213l-129 357h-411l-127 -357h245v-49h-487zM424 455h375l-189 518z" />
<glyph unicode="B" horiz-adv-x="1261" d="M51 0v49h182v1223h-182v49h625q164 0 291 -72q150 -82 149 -239q0 -225 -285 -293q133 -31 232 -121q100 -100 100 -236q0 -186 -149 -280q-123 -80 -322 -80h-641zM457 49h219q141 0 200.5 72t59.5 215v47q0 305 -260 305h-219v-639zM457 737h219q121 0 174 68 q45 57 45 188v33q0 246 -219 246h-219v-535z" />
<glyph unicode="C" horiz-adv-x="1292" d="M72 662q0 272 192 477q193 205 465 204q195 0 332 -100l76 72q20 18 34 18q25 0 25 -39v-315q0 -33 -18 -33q-14 0 -21 17l-4 10q-127 317 -424 317q-379 0 -379 -524v-217q0 -532 369 -533q285 0 457 369q12 27 28 27q20 0 21 -29v-375q0 -23 -23 -22q-12 0 -24 12 l-107 106q-145 -141 -352 -141q-264 0 -459 219q-188 214 -188 480z" />
<glyph unicode="D" horiz-adv-x="1396" d="M57 0v49h187v1223h-187v49h633q293 0 479 -174q190 -182 191 -471q0 -303 -182 -492q-182 -184 -488 -184h-633zM467 49h219q422 0 422 578v98q0 240 -90 379q-106 168 -332 168h-219v-1223z" />
<glyph unicode="E" horiz-adv-x="1210" d="M59 1272v49h953q63 0 63 -55v-295q0 -35 -24 -35q-25 0 -27 37q-6 111 -57 192q-63 106 -191 107h-311v-551h158q78 0 110 51q8 12 18.5 42t20.5 77q10 35 25 35q23 0 22 -33v-393q0 -35 -22 -35q-14 0 -37 72q-8 23 -14.5 45t-14.5 45q-31 45 -108 45h-158v-623h330 q133 0 196 88q47 70 84 234q10 47 33 47q25 0 25 -56v-290q0 -72 -70 -72h-1000v49h179v1223h-183z" />
<glyph unicode="F" horiz-adv-x="1155" d="M70 1272v49h952q61 0 61 -55v-295q0 -35 -24 -35q-25 0 -27 37q-6 111 -57 192q-63 106 -191 107h-311v-551h158q78 0 110 51q8 12 18.5 42t20.5 77q10 35 25 35q23 0 22 -33v-393q0 -35 -22 -35q-14 0 -37 72q-8 23 -14 45t-15 45q-31 45 -108 45h-158v-623h182v-49 h-581v49h176v1223h-180z" />
<glyph unicode="G" horiz-adv-x="1411" d="M68 653q0 276 190 484q190 207 465 206q205 0 336 -106l84 78q20 18 37 18q27 0 26 -30v-367q0 -27 -22 -27q-20 0 -29 25q-123 356 -432 356q-207 0 -301 -162q-78 -133 -78 -352v-237q0 -223 76 -355q94 -168 301 -168q266 0 266 254v174h-227v50h645v-50h-182v-57 q0 -213 -152 -324q-131 -100 -354 -100q-266 0 -461 213q-188 207 -188 477z" />
<glyph unicode="H" horiz-adv-x="1445" d="M59 0v49h183v1223h-183v49h588v-49h-182v-545h541v545h-183v49h586v-49h-180v-1223h180v-49h-586v49h183v627h-541v-627h182v-49h-588z" />
<glyph unicode="I" horiz-adv-x="749" d="M82 0v49h180v1223h-180v49h586v-49h-183v-1223h183v-49h-586z" />
<glyph unicode="J" horiz-adv-x="780" d="M16 -16q0 111 105 110q43 0 70.5 -26.5t27.5 -69.5q0 -94 -88 -107q43 -37 113 -36q84 0 112 53q23 41 23 133v1231h-195v49h576v-49h-158v-1157q0 -313 -344 -314q-80 0 -158 47q-84 56 -84 136z" />
<glyph unicode="K" horiz-adv-x="1417" d="M63 0v49h168v1223h-168v49h560v-49h-168v-1223h168v-49h-560zM449 723l595 549h-167v49h434v-49h-185l-485 -447l590 -776h172v-49h-615v49h175z" />
<glyph unicode="L" horiz-adv-x="1263" d="M53 0v49h183v1223h-183v49h606v-49h-200v-1223h424q131 0 194 88q47 70 84 234q10 47 33 47q27 0 27 -56v-290q0 -72 -72 -72h-1096z" />
<glyph unicode="M" horiz-adv-x="1681" d="M63 0v49h168v1223h-168v49h406l381 -979l369 979h405v-49h-168v-1223h168v-49h-559v49h168v1157l-455 -1206h-41l-454 1198v-1149h170v-49h-390z" />
<glyph unicode="N" horiz-adv-x="1386" d="M47 0v49h182v1223h-182v49h430l641 -963v914h-182v49h416v-49h-183v-1288h-86l-802 1210v-1145h182v-49h-416z" />
<glyph unicode="O" horiz-adv-x="1458" d="M76 655q0 274 194 482q195 207 467 206q272 0 467 -206q197 -207 197 -482q0 -274 -197 -483q-195 -209 -467 -209q-268 0 -469 213q-192 205 -192 479zM352 557q0 -541 385 -541q387 0 387 541v195q0 252 -67 374q-92 164 -320 164q-223 0 -315 -166q-70 -125 -70 -372 v-195z" />
<glyph unicode="P" horiz-adv-x="1142" d="M51 0v49h182v1223h-182v49h594q186 0 309 -86q139 -96 140 -274q0 -172 -131 -273q-119 -88 -297 -88h-209v-551h180v-49h-586zM457 649h209q221 0 221 277v69q0 276 -242 277h-188v-623z" />
<glyph unicode="Q" horiz-adv-x="1435" d="M76 653q0 274 194 482q193 209 467 208q272 0 467 -208q197 -207 197 -482q0 -238 -150 -430q-150 -197 -372 -248v-34q0 -344 327 -344q29 0 29 -23q0 -20 -29 -20q-293 0 -418 61q-164 80 -186 317l-4 43q-225 53 -375 248q-147 197 -147 430zM352 555q0 -543 385 -543 q387 0 387 543v195q0 250 -67 376q-90 164 -320 164q-223 0 -315 -168q-70 -125 -70 -372v-195z" />
<glyph unicode="R" horiz-adv-x="1325" d="M57 0v49h183v1223h-183v49h605q176 0 301 -76q150 -88 149 -254q0 -244 -307 -311q197 -53 258 -166q41 -78 47 -291q4 -102 12 -127q14 -43 76 -43q51 0 90 27q16 4 19 4q14 0 14 -14q0 -33 -98 -64q-78 -23 -142 -22q-104 0 -153 55t-60 160q-2 29 -5 80t-9 122 q-29 264 -225 265h-166v-617h182v-49h-588zM463 715h199q231 0 231 241v70q0 246 -231 246h-199v-557z" />
<glyph unicode="S" horiz-adv-x="1142" d="M109 8v348q0 35 24 35q23 0 33 -31q39 -152 160 -247q121 -96 274 -97q131 0 234 78q104 86 104 217q0 137 -117 191q-43 18 -89 34.5t-95 30.5q-154 45 -209 62q-289 88 -289 327q0 180 137 287q125 100 310 100q152 0 303 -77l55 65q14 20 31 21q23 0 22 -29v-346 q0 -29 -24 -29q-27 0 -29 27q-20 147 -114.5 231t-243.5 84q-119 0 -203 -53q-98 -66 -98 -176q0 -129 127 -176q27 -10 119 -36t257 -71q285 -76 285 -358q0 -199 -141 -328t-344 -129q-188 0 -346 127l-70 -92q-18 -25 -35 -25q-28 0 -28 35z" />
<glyph unicode="T" horiz-adv-x="1306" d="M55 932l33 348q4 41 51 41h1041q47 0 51 -41l33 -348h-64q-20 129 -74 219q-74 121 -184 121h-172v-1223h182v-49h-585v49h180v1223h-172q-111 0 -185 -121q-53 -90 -73 -219h-62z" />
<glyph unicode="U" horiz-adv-x="1345" d="M37 1272v49h586v-49h-181v-940q0 -150 81 -233t229 -83q147 0 239 84t92 232v940h-182v49h416v-49h-180v-940q0 -188 -127 -285q-115 -84 -308 -84q-205 0 -329 82q-154 94 -154 287v940h-182z" />
<glyph unicode="V" horiz-adv-x="1333" d="M14 1272v49h588v-49h-186l358 -967l338 967h-178v49h395v-49h-153l-453 -1292h-49l-475 1292h-185z" />
<glyph unicode="W" horiz-adv-x="1896" d="M47 1272v49h1346v-49h-131l-172 -449l200 -534l377 983h-176v49h383v-49h-148l-493 -1292h-41l-229 587l-224 -587h-41l-491 1292h-160zM426 1272l373 -979l135 352l-236 627h-272zM918 1272l143 -373l143 373h-286z" />
<glyph unicode="X" horiz-adv-x="1445" d="M45 0v49h188l398 584l-395 639h-187v49h625v-49h-185l279 -451l303 451h-197v49h461v-49h-192l-340 -504l442 -719h166v-49h-584v49h164l-327 531l-361 -531h203v-49h-461z" />
<glyph unicode="Y" horiz-adv-x="1396" d="M57 1272v49h609v-49h-187l336 -520l311 520h-196v49h448v-49h-174l-344 -576v-647h201v-49h-627v49h203v598l-406 625h-174z" />
<glyph unicode="Z" horiz-adv-x="1073" d="M63 0v61l721 1211h-391q-262 0 -272 -305h-47v354h940v-57l-729 -1215h387q162 0 235 101q61 86 70 258h51v-408h-965z" />
<glyph unicode="[" horiz-adv-x="679" d="M96 -160v1497h420v-86h-266v-1323h266v-88h-420z" />
<glyph unicode="\" horiz-adv-x="679" d="M96 1075h142l278 -1075h-129z" />
<glyph unicode="]" horiz-adv-x="673" d="M96 -72h262v1323h-262v86h414v-1497h-414v88z" />
<glyph unicode="^" horiz-adv-x="919" d="M29 502l331 686h125l332 -686h-127l-268 553l-268 -553h-125z" />
<glyph unicode="_" horiz-adv-x="827" d="M0 -127h827v-131h-827v131z" />
<glyph unicode="a" horiz-adv-x="933" d="M86 154q0 150 168 223q127 55 295 57v219q0 102 -131 103q-125 0 -125 -35l6 -6q4 -4 12 -10q29 -29 29 -62q0 -76 -88 -76q-86 0 -86 80q0 84 117 125q74 27 184 27q283 0 283 -183v-464q0 -111 49 -111q55 0 90 68q8 20 22 20q16 0 17 -18q0 -63 -76 -103 q-66 -35 -129 -35q-133 0 -162 97q-90 -96 -237 -97q-238 1 -238 181zM270 203q0 -162 125 -162q37 0 94 33q59 35 60 65v258q-66 -4 -113 -14t-76 -25q-90 -46 -90 -155z" />
<glyph unicode="b" horiz-adv-x="1093" d="M57 0v49h162v1223h-162v49h361v-612q86 96 221 96q158 0 281 -127q125 -125 124 -285q0 -156 -120 -289q-121 -129 -279 -129q-133 0 -227 107v-82h-361zM418 170q86 -145 221 -145q168 0 168 325v88q0 137 -23 209q-41 109 -153 109q-127 0 -213 -135v-451z" />
<glyph unicode="c" horiz-adv-x="864" d="M59 383q0 176 134 297q131 119 313 119q96 0 180 -39q109 -47 109 -129q0 -90 -103 -90q-100 0 -100 86q0 33 18.5 62.5t18.5 31.5q0 12 -58 20q-23 4 -41 6.5t-28 2.5q-129 0 -174 -105q-29 -74 -29 -219v-84q0 -164 25 -221q43 -100 178 -101q98 0 177 51.5t109 143.5 q8 25 29 25q25 0 25 -25q0 -6 -2 -10l-2 -8q-18 -76 -101 -144q-96 -80 -241 -80q-178 0 -303 117q-134 121 -134 293z" />
<glyph unicode="d" horiz-adv-x="1093" d="M66 391q0 160 124 285q125 129 281 129q139 0 219 -88v555h-160v49h361v-1272h160v-49h-361v84q-96 -111 -225 -111q-152 0 -277 131q-122 131 -122 287zM303 344q0 -135 23 -207q37 -115 147 -114q121 0 217 145v448q-86 139 -211 140q-113 0 -153 -109 q-23 -68 -23 -207v-96z" />
<glyph unicode="e" horiz-adv-x="915" d="M57 379q0 164 121 291q123 129 285 129q180 0 289 -129q86 -104 86 -198q0 -29 -43 -30h-498v-188q0 -233 178 -234q223 0 324 218q12 25 28 24q20 0 21 -22q0 -16 -6 -31q-94 -236 -371 -236q-174 0 -293 119q-121 121 -121 287zM297 492h303q20 0 21 79q0 178 -156 179 q-168 0 -168 -191v-67z" />
<glyph unicode="f" horiz-adv-x="720" d="M41 0v49h158v680h-156v49h156v74q0 221 43 313q80 170 254 170q72 0 129 -32q72 -41 71 -105q0 -78 -75 -78q-82 0 -82 74q0 47 47 70q0 23 -86 22q-100 0 -101 -137v-371h170v-49h-170v-680h158v-49h-516z" />
<glyph unicode="g" horiz-adv-x="899" d="M63 -295q0 141 160 207q-156 39 -155 188q0 131 165 185q-158 84 -157 237q0 111 90 191q98 86 258 86q143 0 215 -49q80 80 160 79q88 0 88 -69q0 -66 -72 -66q-78 0 -78 64q0 10 2 14q-14 -8 -29.5 -21.5t-31.5 -29.5q94 -82 94 -199q0 -100 -76 -176 q-98 -102 -272 -102q-78 0 -121 14q-164 -41 -164 -123q0 -74 125 -74h340q264 0 264 -245q0 -166 -131 -254q-117 -80 -286 -80q-388 0 -388 223zM182 -258q0 -211 277 -211q115 0 203 45q111 55 110 160q0 78 -60.5 123t-142.5 45h-268q-47 0 -84 -56q-35 -59 -35 -106z M285 487q0 -86 22 -135q35 -59 117 -59t117 59q23 49 22 135v66q0 90 -22 139q-31 57 -117 58q-86 0 -117 -58q-23 -49 -22 -139v-66z" />
<glyph unicode="h" horiz-adv-x="1136" d="M53 0v49h150v1223h-150v49h348v-655q98 139 304 139q252 0 251 -187v-569h148v-49h-494v49h146v547q0 141 -117 141q-84 0 -160 -67q-78 -66 -78 -146v-475h148v-49h-496z" />
<glyph unicode="i" horiz-adv-x="620" d="M68 0v49h157v680h-157v49h356v-729h160v-49h-516zM205 1126q0 47 34.5 79t84.5 32q49 0 83.5 -31.5t34.5 -79.5q0 -47 -35.5 -77.5t-82.5 -30.5t-83 30.5t-36 77.5z" />
<glyph unicode="j" horiz-adv-x="577" d="M-43 -383q0 43 28.5 71.5t71.5 28.5q41 0 69 -26.5t28 -67.5q0 -59 -45 -86q16 -4 32 -4q55 0 87 37t32 94v1063h-170v49h371v-833q0 -184 -66 -305q-84 -154 -252 -154q-72 0 -123 33q-63 37 -63 100zM229 1126q0 47 35 79t84 32t84 -31.5t35 -79.5q0 -47 -35 -78.5 t-84 -31.5t-84 31.5t-35 78.5z" />
<glyph unicode="k" horiz-adv-x="1138" d="M55 0v49h170v1223h-170v49h369v-858h47l293 266h-166v49h414v-49h-172l-238 -219l371 -461h151v-49h-528v49h139l-278 365h-33v-365h149v-49h-518z" />
<glyph unicode="l" horiz-adv-x="602" d="M66 0v49h147v1223h-147v49h346v-1272h147v-49h-493z" />
<glyph unicode="m" horiz-adv-x="1607" d="M59 0v49h138v674h-138v49h338v-125q100 141 308 141q178 0 206 -145q98 145 310 145q211 0 211 -180v-559h137v-49h-471v49h133v539q0 135 -98 135q-80 0 -150 -70q-70 -68 -70 -145v-459h138v-49h-473v49h137v539q0 53 -10 84q-20 51 -91 51q-66 0 -141 -68 q-76 -63 -76 -131v-475h135v-49h-473z" />
<glyph unicode="n" horiz-adv-x="1120" d="M68 0v49h147v674h-147v47h346v-123q98 139 288 139q231 0 232 -186v-551h147v-49h-495v49h147v539q0 135 -108 135q-72 0 -142 -68t-69 -139v-467h147v-49h-493z" />
<glyph unicode="o" horiz-adv-x="942" d="M51 385q0 164 131 289t297 125q170 0 295 -125q129 -127 129 -289q0 -164 -129 -289q-129 -123 -295 -123t-297 123q-131 125 -131 289zM289 344q0 -156 22 -219q39 -104 168 -105q129 0 166 107q20 49 21 217v84q0 152 -23 215q-39 106 -164 107q-127 0 -166 -107 q-25 -61 -24 -215v-84z" />
<glyph unicode="p" horiz-adv-x="1054" d="M45 -477h137v1198h-137v51h338v-84q94 111 225 111q160 0 281 -129q123 -127 123 -287q0 -166 -123 -291q-121 -127 -285 -127q-139 0 -221 94v-536h137v-49h-475v49zM383 186q0 -66 78 -118q70 -49 139 -50q117 0 154 111q20 55 20 213v88q0 133 -22 205 q-37 115 -146 115q-76 0 -145 -56q-78 -59 -78 -131v-377z" />
<glyph unicode="q" horiz-adv-x="1073" d="M70 383q0 156 123 283t280 127q141 0 229 -107v84h336v-49h-137v-1198h137v-49h-473v49h137v538q-90 -96 -225 -96q-160 0 -284 129q-123 129 -123 289zM307 289q0 -129 25 -187q39 -86 149 -86q45 0 85 15.5t71 42t48 63.5t17 80v328q0 76 -73 141q-70 63 -154 64 q-168 0 -168 -248v-213z" />
<glyph unicode="r" horiz-adv-x="843" d="M37 0v49h147v674h-147v49h348v-92q90 109 238 108q84 0 135 -32q66 -41 65 -115q0 -49 -32.5 -77.5t-81.5 -28.5t-83 26.5t-34 73.5q0 63 51 90q6 2 6 6q0 8 -49 8q-68 0 -141 -55q-74 -53 -74 -119v-516h147v-49h-495z" />
<glyph unicode="s" horiz-adv-x="751" d="M88 8v207q0 25 23 25q18 0 24 -25q55 -195 266 -195q80 0 138 33q74 39 73 113q0 86 -125 129q-16 2 -196 43q-188 41 -189 207q0 59 22.5 106t61.5 80t91.5 50.5t113.5 17.5q96 0 160 -51l41 38l6 5q8 8 16 8q14 0 15 -23v-207q0 -20 -17 -20q-20 0 -22 18 q-14 82 -69.5 132.5t-141.5 50.5q-63 0 -115 -31q-61 -35 -61 -92q0 -61 123 -99q45 -10 89 -19t89 -20q199 -57 198 -245q0 -129 -81.5 -200t-212.5 -71q-156 0 -238 76l-39 -51q-8 -14 -20 -14q-23 -1 -23 24z" />
<glyph unicode="t" horiz-adv-x="712" d="M39 727v49h143v217l201 92v-309h205v-49h-205v-518q0 -176 127 -176q111 0 133 133q4 29 29 29q20 0 20 -25q0 -16 -2 -20q-35 -176 -252 -177q-119 0 -187.5 61.5t-68.5 178.5v514h-143z" />
<glyph unicode="u" horiz-adv-x="1138" d="M47 723v47h348v-588q0 -68 17 -96q23 -35 90 -35q78 0 153 64q80 63 80 137v471h-147v47h348v-721h147v-49h-348v123q-109 -145 -317 -146q-223 0 -223 218v528h-148z" />
<glyph unicode="v" horiz-adv-x="1034" d="M43 723v47h498v-47h-144l211 -471l205 471h-145v47h331v-47h-129l-319 -731h-29l-338 731h-141z" />
<glyph unicode="w" horiz-adv-x="1368" d="M47 723v47h479v-47h-135l178 -447l174 494h29l215 -496l152 449h-172v47h372v-47h-147l-256 -746h-29l-215 494l-178 -494h-31l-295 746h-141z" />
<glyph unicode="x" horiz-adv-x="1060" d="M53 723v47h465v-47h-129l182 -240l195 240h-125v47h334v-47h-139l-232 -283l299 -391h131v-49h-495v49h149l-199 262l-215 -262h146v-49h-357v49h146l248 305l-281 369h-123z" />
<glyph unicode="y" horiz-adv-x="1067" d="M53 721v49h514v-49h-155l229 -496l207 496h-152v49h351v-49h-142l-432 -1036q-82 -199 -246 -199q-117 0 -116 92q0 80 84 80q61 0 90 -55q12 -23 24 -23q66 0 115 121l121 293l-348 727h-144z" />
<glyph unicode="z" horiz-adv-x="847" d="M100 0v53l463 670h-196q-162 0 -185 -201h-43v248h633v-57l-455 -664h230q188 0 205 221h43v-270h-695z" />
<glyph unicode="{" horiz-adv-x="768" d="M96 594q0 14 45 39q74 39 105 139q10 27 13 69t3 99q0 23 -1 53.5t-3 73.5q0 43 -1 75t-1 52q0 180 49 266q61 106 217 107q23 0 38 -1t20 -1l24 -6l-4 -3q-25 -10 -43 -18t-29 -16q-119 -82 -118 -316v-26q0 -16 2 -35q6 -264 6 -242q0 -115 -19 -170q-37 -98 -127 -139 q92 -49 127 -139q18 -61 19 -174v-27q0 -16 -2 -35q-6 -264 -6 -239q0 -270 155 -338l35 -15q4 0 4 -2l-24 -4h-58q-156 0 -217 103q-49 86 -49 266q0 20 1 52t1 75q2 43 3 73.5t1 53.5q0 57 -3 99t-13 71q-27 94 -105 137q-45 27 -45 43z" />
<glyph unicode="|" horiz-adv-x="434" d="M96 -145v1443h174v-1443h-174z" />
<glyph unicode="}" horiz-adv-x="768" d="M96 -375l4 2q18 8 31 13l45 22q117 84 117 318v63q-4 129 -6 188.5t-2 49.5q0 59 5 101t15 73q33 92 123 139q-88 43 -123 139q-10 29 -15 71t-5 99v66q6 131 7 191.5t1 45.5q0 266 -154 338q-6 0 -39 12l-4 3l25 6q6 0 20.5 1t36.5 1q160 0 223 -113q47 -88 48 -260 q0 -20 -1.5 -52t-3.5 -75q-4 -43 -4 -74v-53q0 -109 17 -168q25 -98 106 -139q41 -20 41 -39q0 -16 -41 -43q-80 -43 -106 -137q-16 -55 -17 -170v-54q0 -31 4 -73q2 -43 3.5 -75t1.5 -52q0 -180 -50 -266q-66 -102 -221 -103h-57z" />
<glyph unicode="~" horiz-adv-x="1003" d="M70 391v23q0 111 65.5 185.5t177.5 74.5q72 0 119 -25l246 -164q47 -29 72 -28q82 0 81 131h66q0 -113 -70 -201q-78 -96 -184 -96q-70 0 -131 43l-213 147q-39 27 -80 27q-82 0 -82 -117h-67z" />
<glyph unicode="&#xa1;" d="M-369 -256q0 35 25 59.5t61 24.5q37 0 61.5 -23.5t24.5 -60.5t-24.5 -61.5t-61.5 -24.5t-61.5 24.5t-24.5 61.5zM-221 -494q0 35 26.5 61.5t61.5 26.5q37 0 61.5 -25.5t24.5 -62.5t-24.5 -61.5t-61.5 -24.5t-62.5 24.5t-25.5 61.5zM-70 -256q0 35 25 59.5t61 24.5 q37 0 61.5 -24.5t24.5 -59.5q0 -37 -24.5 -61.5t-61.5 -24.5q-35 0 -60.5 25.5t-25.5 60.5zM195 -256q0 37 25.5 60.5t62.5 23.5q35 0 60.5 -24.5t25.5 -59.5q0 -37 -25 -61.5t-61 -24.5q-37 0 -62.5 24.5t-25.5 61.5zM195 -506q0 35 25.5 60.5t60.5 25.5q37 0 61.5 -24.5 t24.5 -61.5t-25 -61.5t-61 -24.5q-37 0 -61.5 24.5t-24.5 61.5z" />
<glyph unicode="&#x5b1;" d="M-369 -256q0 35 25 59.5t61 24.5q37 0 61.5 -23.5t24.5 -60.5t-24.5 -61.5t-61.5 -24.5t-61.5 24.5t-24.5 61.5zM-221 -494q0 35 26.5 61.5t61.5 26.5q37 0 61.5 -25.5t24.5 -62.5t-24.5 -61.5t-61.5 -24.5t-62.5 24.5t-25.5 61.5zM-70 -256q0 35 25 59.5t61 24.5 q37 0 61.5 -24.5t24.5 -59.5q0 -37 -24.5 -61.5t-61.5 -24.5q-35 0 -60.5 25.5t-25.5 60.5zM195 -256q0 37 25.5 60.5t62.5 23.5q35 0 60.5 -24.5t25.5 -59.5q0 -37 -25 -61.5t-61 -24.5q-37 0 -62.5 24.5t-25.5 61.5zM195 -506q0 35 25.5 60.5t60.5 25.5q37 0 61.5 -24.5 t24.5 -61.5t-25 -61.5t-61 -24.5q-37 0 -61.5 24.5t-24.5 61.5z" />
<glyph unicode="&#xa2;" horiz-adv-x="1024" d="M109 440q0 225 131 363q133 139 350 139q6 0 24.5 -3t49.5 -7l90 254h71l-96 -277q154 -53 154 -172q0 -37 -23.5 -64.5t-60.5 -27.5q-78 0 -123 107l-207 -596q70 -25 117 -25q102 0 180 59q57 47 125 146l27 -17q-154 -338 -396 -337q-41 0 -110 18l-101 -283h-69 l104 308q-237 120 -237 415zM266 532q0 -217 140 -331l235 661q-47 18 -98 19q-137 0 -211 -111q-66 -97 -66 -238z" />
<glyph unicode="&#xa3;" horiz-adv-x="1024" d="M25 109q0 78 57 120q51 37 133 37q16 0 38.5 -3t51.5 -7l6 35q0 39 -4 86t-12 104q-6 47 -12.5 95.5t-14.5 95.5h-221v92h219q-8 33 -11 67.5t-3 69.5q0 207 94 338q109 145 305 145q100 0 176 -45q90 -53 91 -145q0 -45 -28 -77t-73 -32q-70 0 -78 64l-10 117 q-20 63 -108 63q-102 0 -154 -92q-41 -78 -41 -186q0 -49 6 -121t17 -166h256v-92h-250q2 -20 2 -44v-53q0 -102 -49 -348q166 -72 307 -71q88 0 151 39q10 6 42 29.5t83 64.5l13 -10q0 -25 -25 -76q-98 -217 -324 -217q-117 0 -290 125q-109 -127 -203 -127q-59 0 -98 34 t-39 91zM78 115q0 -74 82 -74q47 0 89 35t42 82q0 16 -51 24q-23 4 -39.5 7.5t-26.5 3.5q-96 0 -96 -78z" />
<glyph unicode="&#xa5;" horiz-adv-x="815" d="M76.3984 869.192q1.2002 23.3984 8.7002 50.3975q7.49902 26.999 21.5986 52.1982t36.2988 47.0977q22.1992 21.8994 52.7979 35.6992q-51.5986 22.1982 -74.3975 59.0977q-22.7988 36.8984 -22.7988 79.4961q0 103.196 59.0977 159.894q59.0977 56.6982 159.894 56.6982 q112.795 0 169.493 -51.5986q56.6973 -51.5977 52.498 -155.993q-2.40039 -47.998 -27.5996 -86.6963q-25.1982 -38.6992 -65.3965 -57.2979q43.1973 -17.3994 75.5967 -62.0977q32.3984 -44.6982 34.7979 -110.096q3.60059 -122.995 -56.9971 -182.992 q-60.5977 -59.998 -182.393 -59.998q-120.595 0 -183.893 58.498q-63.2979 58.4971 -57.2979 167.693zM168.795 863.792q2.39941 -71.3965 34.498 -103.195q32.0996 -31.7988 109.496 -32.999q40.7979 0 69.8975 5.40039q29.0986 5.39941 48.8975 21.5986t29.6992 42.5986 q9.89941 26.3984 11.0996 66.5967q2.39941 88.1963 -36.8984 120.296q-39.2988 32.0986 -116.695 32.0986q-77.3975 0 -114.896 -36.8984q-37.499 -36.8994 -35.0986 -115.496zM189.794 1195.58q0 -22.1992 4.7998 -39.8984t18.8994 -31.7988t38.6982 -22.7988 q24.5986 -8.7002 64.1973 -9.89941q39.5986 -2.40039 64.4971 6.29883q24.8994 8.7002 38.999 23.999q14.0996 15.2998 19.7988 34.1992q5.7002 18.8994 5.7002 39.8984q0 71.3965 -30.8994 98.9961q-30.8984 27.5986 -96.8955 27.5986q-68.9971 0 -98.3965 -26.999 q-29.3984 -26.999 -29.3984 -99.5957z" />
<glyph unicode="&#xb4;" horiz-adv-x="815" d="M76.3984 869.192q1.2002 23.3984 8.7002 50.3975q7.49902 26.999 21.5986 52.1982t36.2988 47.0977q22.1992 21.8994 52.7979 35.6992q-51.5986 22.1982 -74.3975 59.0977q-22.7988 36.8984 -22.7988 79.4961q0 103.196 59.0977 159.894q59.0977 56.6982 159.894 56.6982 q112.795 0 169.493 -51.5986q56.6973 -51.5977 52.498 -155.993q-2.40039 -47.998 -27.5996 -86.6963q-25.1982 -38.6992 -65.3965 -57.2979q43.1973 -17.3994 75.5967 -62.0977q32.3984 -44.6982 34.7979 -110.096q3.60059 -122.995 -56.9971 -182.992 q-60.5977 -59.998 -182.393 -59.998q-120.595 0 -183.893 58.498q-63.2979 58.4971 -57.2979 167.693zM168.795 863.792q2.39941 -71.3965 34.498 -103.195q32.0996 -31.7988 109.496 -32.999q40.7979 0 69.8975 5.40039q29.0986 5.39941 48.8975 21.5986t29.6992 42.5986 q9.89941 26.3984 11.0996 66.5967q2.39941 88.1963 -36.8984 120.296q-39.2988 32.0986 -116.695 32.0986q-77.3975 0 -114.896 -36.8984q-37.499 -36.8994 -35.0986 -115.496zM189.794 1195.58q0 -22.1992 4.7998 -39.8984t18.8994 -31.7988t38.6982 -22.7988 q24.5986 -8.7002 64.1973 -9.89941q39.5986 -2.40039 64.4971 6.29883q24.8994 8.7002 38.999 23.999q14.0996 15.2998 19.7988 34.1992q5.7002 18.8994 5.7002 39.8984q0 71.3965 -30.8994 98.9961q-30.8984 27.5986 -96.8955 27.5986q-68.9971 0 -98.3965 -26.999 q-29.3984 -26.999 -29.3984 -99.5957z" />
<glyph unicode="&#xa8;" horiz-adv-x="841" d="M72.7988 1035.99q0 188.992 67.498 281.988q67.4971 92.9961 185.692 92.9961q77.3965 0 127.194 -32.6982q49.7979 -32.6992 79.1973 -86.0967q29.3984 -53.3975 41.0977 -120.295q11.7002 -66.8975 11.7002 -135.895q0 -188.992 -70.7979 -283.188 q-70.7969 -94.1963 -188.392 -94.1963q-116.995 0 -185.093 94.1963t-68.0977 283.188zM165.795 1035.99q0 -147.594 45.5986 -217.491t114.596 -69.8975q72.5967 0 119.095 69.8975t46.498 217.491q0 146.394 -46.7979 214.491t-118.795 68.0977 q-68.9971 0 -114.596 -68.0977t-45.5986 -214.491z" />
<glyph unicode="&#xac;" horiz-adv-x="841" d="M72.7988 1035.99q0 188.992 67.498 281.988q67.4971 92.9961 185.692 92.9961q77.3965 0 127.194 -32.6982q49.7979 -32.6992 79.1973 -86.0967q29.3984 -53.3975 41.0977 -120.295q11.7002 -66.8975 11.7002 -135.895q0 -188.992 -70.7979 -283.188 q-70.7969 -94.1963 -188.392 -94.1963q-116.995 0 -185.093 94.1963t-68.0977 283.188zM165.795 1035.99q0 -147.594 45.5986 -217.491t114.596 -69.8975q72.5967 0 119.095 69.8975t46.498 217.491q0 146.394 -46.7979 214.491t-118.795 68.0977 q-68.9971 0 -114.596 -68.0977t-45.5986 -214.491z" />
<glyph unicode="&#xa9;" horiz-adv-x="1556" d="M78 676q0 297 203 504q203 205 501 204q295 0 496 -206q201 -207 201 -502t-201 -502q-201 -203 -496 -203q-299 0 -501 203q-203 203 -203 502zM190 676q0 -248 170 -436q172 -182 422 -183q246 0 418 189q166 180 166 430q0 252 -164 434q-170 188 -420 188 q-254 0 -422 -184q-170 -188 -170 -438zM389 694q0 176 135 291q125 104 310 105q61 0 145 -19q109 -23 108 -61v-144h-34q-8 88 -64 133q-72 49 -162 50q-143 0 -217 -105q-63 -88 -63 -242q0 -373 293 -372q170 0 247 176h33l-33 -144q-10 -35 -118 -55q-90 -18 -150 -18 q-197 0 -305 96q-125 112 -125 309z" />
<glyph unicode="&#xaa;" horiz-adv-x="1048" d="M72 90q0 35 116 186l148 185q-262 348 -262 368q0 23 20 23q8 0 33 -25q150 -147 399 -362q-59 -51 -143 -129t-201 -189q-80 -80 -88 -79q-22 -1 -22 22zM502 90q0 35 116 186l148 185q-262 348 -262 368q0 23 20 23q8 0 33 -25q150 -147 399 -362q-59 -51 -143 -129 t-201 -189q-80 -80 -88 -79q-22 -1 -22 22z" />
<glyph unicode="&#xbb;" horiz-adv-x="1048" d="M72 90q0 35 116 186l148 185q-262 348 -262 368q0 23 20 23q8 0 33 -25q150 -147 399 -362q-59 -51 -143 -129t-201 -189q-80 -80 -88 -79q-22 -1 -22 22zM502 90q0 35 116 186l148 185q-262 348 -262 368q0 23 20 23q8 0 33 -25q150 -147 399 -362q-59 -51 -143 -129 t-201 -189q-80 -80 -88 -79q-22 -1 -22 22z" />
<glyph unicode="&#xab;" horiz-adv-x="1048" d="M68 465q209 180 399 362q27 25 33 25q20 0 20 -23q0 -20 -262 -368l148 -185q117 -152 116 -186q0 -23 -22 -22q-8 0 -54 45q-86 86 -180 173t-198 179zM498 465q209 180 399 362q27 25 33 25q20 0 20 -23q0 -20 -262 -368l148 -185q117 -152 116 -186q0 -23 -22 -22 q-8 0 -53 45q-86 86 -180.5 173t-198.5 179z" />
<glyph unicode="&#xad;" horiz-adv-x="1087" d="M96 539v127q0 41 35 41h758q35 0 35 -41v-127q0 -43 -35 -43h-758q-35 0 -35 43z" />
<glyph unicode="&#xae;" horiz-adv-x="792" d="M73.3984 1178.78v43.7988q0 41.998 17.0986 76.4961q17.0996 34.499 46.499 59.6982q29.3984 25.1982 69.2969 39.2979t85.4961 14.0996q100.796 0 159.894 -36.2988q59.0977 -36.2979 76.7969 -93.5957t-3.59961 -126.595q-21.2988 -69.2979 -80.6963 -137.095 l-217.191 -245.39h310.787v-95.9961h-460.781v56.3975l304.787 352.785q41.999 49.1982 51.5986 90.8965t-5.09961 72.5977q-14.7002 30.8984 -48.5986 47.998q-33.8984 17.0986 -76.4971 17.0986q-66.5967 0 -103.495 -29.3984t-36.8984 -106.796h-89.3965z" />
<glyph unicode="&#xaf;" horiz-adv-x="788" d="M74.998 676v99.5957h256.789q12 0 29.999 7.2002q17.999 7.19922 35.0986 23.999q17.0996 16.7988 29.3994 43.1982q12.2988 26.3984 13.499 64.1973q1.2002 37.7979 -9.2998 63.2969q-10.499 25.499 -25.7988 40.1992q-15.2998 14.6992 -32.3984 20.0986 q-17.0996 5.40039 -29.6992 5.40039h-167.993v19.7988l165.594 228.591h-261.59v95.9961h416.383v-24.5996l-172.793 -239.99q45.5986 2.40039 83.9971 -10.1992t66.8975 -37.7988q28.499 -25.1982 43.7979 -60.8975q15.2998 -35.6982 15.2998 -78.8965 q0 -44.3984 -14.0996 -89.6963t-41.998 -83.3965q-27.8994 -38.0986 -67.7979 -62.0977t-90.2959 -23.999h-242.99z" />
<glyph unicode="&#xbf;" d="M-86 -254q0 35 24.5 59.5t61.5 24.5t61.5 -23.5t24.5 -60.5t-24.5 -61.5t-61.5 -24.5t-61.5 24.5t-24.5 61.5zM-86 -506q0 35 25.5 60.5t60.5 25.5q37 0 61.5 -24.5t24.5 -61.5t-24.5 -61.5t-61.5 -24.5t-61.5 24.5t-24.5 61.5z" />
<glyph unicode="&#x5b0;" d="M-86 -254q0 35 24.5 59.5t61.5 24.5t61.5 -23.5t24.5 -60.5t-24.5 -61.5t-61.5 -24.5t-61.5 24.5t-24.5 61.5zM-86 -506q0 35 25.5 60.5t60.5 25.5q37 0 61.5 -24.5t24.5 -61.5t-24.5 -61.5t-61.5 -24.5t-61.5 24.5t-24.5 61.5z" />
<glyph unicode="&#xd7;" horiz-adv-x="1130" d="M154 111l299 299l-299 301l110 110l299 -299l301 299l111 -110l-299 -301l297 -297l-113 -111l-297 297l-299 -301z" />
<glyph unicode="&#x2122;" horiz-adv-x="1130" d="M154 111l299 299l-299 301l110 110l299 -299l301 299l111 -110l-299 -301l297 -297l-113 -111l-297 297l-299 -301z" />
<glyph unicode="&#x131;" horiz-adv-x="1087" d="M41 1190h197q29 -104 58.5 -190.5t68 -165t89 -157.5t119.5 -171q25 20 55.5 55t58.5 82t47.5 106.5t19.5 129.5v311h174v-287q0 -66 -13.5 -127t-46 -121.5t-89 -119t-142.5 -119.5v-807h-174v813q-76 68 -134.5 147.5t-107.5 175t-92 206t-88 239.5z" />
<glyph unicode="&#x5e5;" horiz-adv-x="1087" d="M41 1190h197q29 -104 58.5 -190.5t68 -165t89 -157.5t119.5 -171q25 20 55.5 55t58.5 82t47.5 106.5t19.5 129.5v311h174v-287q0 -66 -13.5 -127t-46 -121.5t-89 -119t-142.5 -119.5v-807h-174v813q-76 68 -134.5 147.5t-107.5 175t-92 206t-88 239.5z" />
<glyph unicode="&#x152;" horiz-adv-x="774" d="M68 938l77 236h551l-78 -236h-550z" />
<glyph unicode="&#x5be;" horiz-adv-x="774" d="M68 938l77 236h551l-78 -236h-550z" />
<glyph unicode="&#x153;" d="M-266 1384v111h532v-111h-532z" />
<glyph unicode="&#x5bf;" d="M-266 1384v111h532v-111h-532z" />
<glyph unicode="&#x192;" d="M-86 -256q0 35 24.5 59.5t61.5 24.5t61.5 -23.5t24.5 -60.5t-24.5 -61.5t-61.5 -24.5t-61.5 24.5t-24.5 61.5z" />
<glyph unicode="&#x5b4;" d="M-86 -256q0 35 24.5 59.5t61.5 24.5t61.5 -23.5t24.5 -60.5t-24.5 -61.5t-61.5 -24.5t-61.5 24.5t-24.5 61.5z" />
<glyph unicode="&#x2c6;" horiz-adv-x="1122" d="M47 1188h201q78 -162 180 -326t197 -301q78 66 116.5 150t38.5 194v283h174v-279q0 -131 -70.5 -240.5t-193.5 -189.5q41 -51 97.5 -128t142.5 -189v-162h-871v162h674q-86 104 -179 224t-184 250t-174 269.5t-149 282.5z" />
<glyph unicode="&#x5e6;" horiz-adv-x="1122" d="M47 1188h201q78 -162 180 -326t197 -301q78 66 116.5 150t38.5 194v283h174v-279q0 -131 -70.5 -240.5t-193.5 -189.5q41 -51 97.5 -128t142.5 -189v-162h-871v162h674q-86 104 -179 224t-184 250t-174 269.5t-149 282.5z" />
<glyph unicode="&#x2d8;" horiz-adv-x="1501" d="M125 539v651h172v-590q37 -29 95.5 -35t114.5 13.5t97 65.5t41 124v422h174v-393q0 -104 -48 -177t-123 -114t-168 -50.5t-181 13.5q-4 -111 25.5 -177.5t86 -101t134.5 -45t174 -10.5q123 0 205 13.5t132 47t71.5 91t21.5 143.5v760h174v-651q0 -305 -150.5 -437.5 t-453.5 -132.5q-150 0 -261.5 29t-185 95.5t-110.5 175t-37 270.5z" />
<glyph unicode="&#x5e9;" horiz-adv-x="1501" d="M125 539v651h172v-590q37 -29 95.5 -35t114.5 13.5t97 65.5t41 124v422h174v-393q0 -104 -48 -177t-123 -114t-168 -50.5t-181 13.5q-4 -111 25.5 -177.5t86 -101t134.5 -45t174 -10.5q123 0 205 13.5t132 47t71.5 91t21.5 143.5v760h174v-651q0 -305 -150.5 -437.5 t-453.5 -132.5q-150 0 -261.5 29t-185 95.5t-110.5 175t-37 270.5z" />
<glyph unicode="&#x2d9;" horiz-adv-x="1339" d="M74 2v160h125q45 0 51 10q8 10 8 57v539q0 186 82 225v31h-182v162h708q180 0 244 -64q66 -70 66 -256v-864h-175v903q0 119 -106 119h-406q-57 0 -57 -74v-798q0 -23 -8 -48.5t-22.5 -48t-35 -38t-42.5 -15.5h-250z" />
<glyph unicode="&#x5ea;" horiz-adv-x="1339" d="M74 2v160h125q45 0 51 10q8 10 8 57v539q0 186 82 225v31h-182v162h708q180 0 244 -64q66 -70 66 -256v-864h-175v903q0 119 -106 119h-406q-57 0 -57 -74v-798q0 -23 -8 -48.5t-22.5 -48t-35 -38t-42.5 -15.5h-250z" />
<glyph unicode="&#x2db;" horiz-adv-x="45" d="M-258 1604l137 137l31 -31l-82 -82h217v-1628h-45v1583h-176l86 -86l-31 -31z" />
<glyph unicode="&#x200f;" horiz-adv-x="45" d="M-258 1604l137 137l31 -31l-82 -82h217v-1628h-45v1583h-176l86 -86l-31 -31z" />
<glyph unicode="&#x2dc;" horiz-adv-x="1277" d="M129 1024v162h664q84 0 147.5 -15.5t105 -50.5t61 -95t13.5 -148l-4 -72q-6 -102 -44 -184t-89 -150l-104 -154q-29 -37 -40.5 -77.5t-15.5 -112.5v-127h-174v117q0 66 23.5 128t54.5 103l135 203q41 53 61.5 103.5t20.5 103.5v151q0 68 -22.5 91.5t-85.5 23.5h-707z M145 -297v1055h174v-1055h-174z" />
<glyph unicode="&#x5e7;" horiz-adv-x="1277" d="M129 1024v162h664q84 0 147.5 -15.5t105 -50.5t61 -95t13.5 -148l-4 -72q-6 -102 -44 -184t-89 -150l-104 -154q-29 -37 -40.5 -77.5t-15.5 -112.5v-127h-174v117q0 66 23.5 128t54.5 103l135 203q41 53 61.5 103.5t20.5 103.5v151q0 68 -22.5 91.5t-85.5 23.5h-707z M145 -297v1055h174v-1055h-174z" />
<glyph unicode="&#x2dd;" horiz-adv-x="45" d="M0 0v1628h217l-82 82l31 31l137 -137l-137 -138l-31 31l86 86h-176v-1583h-45z" />
<glyph unicode="&#x200e;" horiz-adv-x="45" d="M0 0v1628h217l-82 82l31 31l137 -137l-137 -138l-31 31l86 86h-176v-1583h-45z" />
<glyph unicode="&#x590;" horiz-adv-x="1536" d="M199 514v168h1136v-168h-1136zM524 -137q2 47 30 102t91 84q-51 23 -74.5 59.5t-23.5 77.5q0 104 59.5 160.5t159.5 56.5q229 0 223 -206q-2 -49 -27.5 -88t-66.5 -58q45 -16 77 -61t34 -111q8 -242 -240 -241q-121 0 -183.5 57t-58.5 168zM580 1405v96h444v-57 l-203 -651h-102l190 612h-329zM618 -141q2 -72 34 -103.5t110 -34.5q82 0 120 28t40 110q2 88 -37 119.5t-117 31.5q-156 1 -150 -151zM639 190q0 -45 24.5 -72.5t102.5 -31.5q39 -2 64.5 6t40 23.5t19.5 35t5 39.5q0 72 -32 98.5t-97 26.5q-70 0 -98.5 -26.5t-28.5 -98.5z " />
<glyph unicode="&#x591;" d="M-168 -471q0 131 131 164v125h74v-125q133 -35 133 -164v-131h-76v11q0 7 2 24v43q0 147 -86 147q-104 0 -104 -135v-47q2 -14 2 -25v-18h-76v131z" />
<glyph unicode="&#x592;" d="M-186 1444q0 33 20.5 53.5t52.5 20.5q33 0 54.5 -20.5t21.5 -53.5q0 -31 -21.5 -52.5t-54.5 -21.5t-53 20.5t-20 53.5zM-76 1632q0 31 22.5 53.5t53.5 22.5q33 0 54.5 -21.5t21.5 -54.5t-21.5 -54.5t-54.5 -21.5t-54.5 21.5t-21.5 54.5zM37 1444q0 33 21.5 53.5 t54.5 20.5t53 -20.5t20 -53.5q0 -31 -20.5 -52.5t-52.5 -21.5q-31 0 -53.5 21.5t-22.5 52.5z" />
<glyph unicode="&#x593;" d="M-119 1456l156 76l-156 72l156 75l-156 72l156 76h84l-158 -76l158 -72l-158 -75l158 -72l-158 -76l158 -74h-84z" />
<glyph unicode="&#x594;" d="M-76 1452q0 33 21.5 53.5t54.5 20.5t54.5 -20.5t21.5 -53.5q0 -31 -21.5 -52.5t-54.5 -21.5t-54.5 20.5t-21.5 53.5zM-76 1677q0 31 22.5 53.5t53.5 22.5q33 0 54.5 -21.5t21.5 -54.5t-21.5 -53t-54.5 -20t-54.5 20t-21.5 53z" />
<glyph unicode="&#x595;" d="M-113 1378v375h76v-375h-76zM37 1452q0 33 21.5 53.5t54.5 20.5q31 0 52 -21.5t21 -52.5t-20.5 -52.5t-52.5 -21.5q-31 0 -53.5 21.5t-22.5 52.5zM37 1677q0 31 22.5 53.5t53.5 22.5t52 -22.5t21 -53.5q0 -33 -20.5 -53t-52.5 -20q-31 0 -53.5 21t-22.5 52z" />
<glyph unicode="&#x596;" d="M-41 -219q0 6 1 15t3 20h76q-2 -10 -3 -24.5t-1 -37.5q0 -98 63 -149q55 -49 156 -49v-78q-295 0 -295 303z" />
<glyph unicode="&#x597;" d="M-121 1534l123 156l119 -156l-119 -154z" />
<glyph unicode="&#x598;" d="M-258 1530q0 53 38 92t91 39q66 0 109 -53q18 -27 36.5 -51.5t40.5 -53.5q27 -49 70 -49q33 0 53.5 21.5t20.5 54.5q0 47 -54 69l21 56q90 -43 90 -125q0 -55 -39 -93t-92 -38q-66 0 -109 53q-16 27 -33.5 50.5t-33.5 49.5q-39 51 -80 52q-33 0 -53.5 -20.5t-20.5 -53.5 q0 -53 53 -72l-20 -55q-88 39 -88 127z" />
<glyph unicode="&#x599;" d="M-104 1702l90 78q35 -41 61.5 -84t35.5 -95.5t-5.5 -116t-61.5 -143.5l-49 27q20 39 30.5 82t4.5 86t-30.5 85t-75.5 81z" />
<glyph unicode="&#x59a;" d="M-150 -305l199 194h123l-199 -194l199 -205h-121z" />
<glyph unicode="&#x59b;" d="M-66 -266q0 29 18.5 48t45.5 19q66 0 65 -67q0 -63 -65 -64q-27 0 -45.5 18.5t-18.5 45.5zM-66 -442q221 0 222 204l-6 56h75q2 -10 3 -27.5t1 -44.5q0 -133 -86 -207q-70 -59 -209 -59v78z" />
<glyph unicode="&#x59c;" d="M-96 1544q0 125 137 225l55 -51q-111 -80 -110 -172q0 -84 75 -166h-96q-61 76 -61 164z" />
<glyph unicode="&#x59d;" d="M-96 1544q0 125 137 225l55 -51q-111 -80 -110 -172q0 -84 75 -166h-96q-61 76 -61 164z" />
<glyph unicode="&#x59e;" d="M-197 1544q0 125 138 225l55 -51q-111 -84 -111 -172q0 -82 78 -166h-98q-62 76 -62 164zM27 1544q0 123 139 225l53 -51q-111 -80 -110 -172q0 -84 75 -166h-94q-63 76 -63 164z" />
<glyph unicode="&#x59f;" d="M-496 1655q0 80 53.5 134t133.5 54q82 0 135 -54t53 -134q0 -61 -37 -111l123 -123l-41 -41l-123 123q-45 -39 -110 -39q-82 0 -134.5 52.5t-52.5 138.5zM-432 1655q0 -53 36 -88t87 -35q53 0 89 35t36 88q0 51 -36 86t-89 35q-51 0 -87 -35t-36 -86zM35 1421l123 123 q-39 39 -39 111q0 80 54 134t136 54q37 0 71 -15.5t59.5 -41t41 -60t15.5 -71.5q0 -82 -53.5 -136.5t-133.5 -54.5q-72 0 -110 39l-123 -123zM184 1655q0 -53 36 -88t89 -35q51 0 85 35t34 88q0 47 -36 84t-83 37q-53 0 -89 -34t-36 -87z" />
<glyph unicode="&#x5a0;" d="M-55 1421l123 123q-37 43 -37 111q0 80 54 134t134 54q39 0 73 -15.5t59.5 -41t40 -60t14.5 -71.5q0 -82 -53.5 -136.5t-133.5 -54.5q-72 0 -110 39l-123 -123zM96 1655q0 -53 35 -88t88 -35t86 35t33 88q0 47 -36 84t-83 37q-53 0 -88 -34t-35 -87z" />
<glyph unicode="&#x5a1;" d="M-39 1380v357h74v-172q0 -10 39 -11q76 0 76 111v37q-2 16 -3 23v12h76v-82q0 -70 -35 -111q-37 -55 -98 -55q-29 0 -55 10v-119h-74z" />
<glyph unicode="&#x5a3;" d="M-184 -463h153v281h76v-357h-229v76z" />
<glyph unicode="&#x5a4;" d="M-193 -352l173 170h108l-174 -170l174 -178h-106z" />
<glyph unicode="&#x5a5;" d="M-248 -442q217 0 217 202l-4 58h78q6 -90 6 -101q0 -236 -297 -235v76z" />
<glyph unicode="&#x5a6;" d="M-221 -520q111 80 110 170q0 80 -75 168h96q63 -82 63 -164q0 -121 -139 -225zM6 -520q111 82 111 170q0 72 -78 168h98q61 -78 62 -164q0 -119 -138 -225z" />
<glyph unicode="&#x5a7;" d="M-125 -264l64 53l186 33v-74l-139 -24l139 -220l-64 -53l-186 -33v76l137 23z" />
<glyph unicode="&#x5a8;" d="M-97 1731.5q5 11.5 15 20.5t20.5 14.5t16.5 -1.5q37 -39 62.5 -84t33.5 -97t-4 -111.5t-49 -126.5q-4 -8 -16.5 -8.5t-23.5 6t-18.5 14.5t-2.5 18q20 45 35.5 85t16.5 79t-17.5 81t-67.5 93q-6 6 -1 17.5z" />
<glyph unicode="&#x5a9;" d="M-408 1655q0 80 53.5 134t133.5 54t133 -54t53 -134q0 -57 -35 -111l123 -123l-43 -41l-121 123q-45 -39 -110 -39q-82 0 -134.5 52.5t-52.5 138.5zM-344 1655q0 -53 35 -88t88 -35t88 35t35 88q0 51 -35 86t-88 35t-88 -35t-35 -86z" />
<glyph unicode="&#x5aa;" d="M-168 -182h76q0 -10 -2 -38t-2 -44q0 -141 88 -142q106 0 106 134q0 16 -2 44.5t-2 45.5h76v-129q0 -131 -133 -166v-123h-74v123q-59 16 -95 61t-36 105v129z" />
<glyph unicode="&#x5ab;" d="M-139 1561l174 168h106l-174 -168l174 -179h-106z" />
<glyph unicode="&#x5ac;" d="M-195 1382v74h156v281h74v-355h-230z" />
<glyph unicode="&#x5ad;" d="M-41 -217q0 6 1 15t3 20h76q-2 -10 -3 -24.5t-1 -37.5q0 -98 63 -149q55 -49 156 -49v-78q-295 0 -295 303z" />
<glyph unicode="&#x5ae;" d="M-258 1530q0 53 38 92t91 39q66 0 109 -53q18 -27 36.5 -51.5t40.5 -53.5q27 -49 70 -49q33 0 53.5 21.5t20.5 54.5q0 47 -54 69l21 56q90 -43 90 -125q0 -55 -39 -93t-92 -38q-66 0 -109 53q-16 27 -33.5 50.5t-33.5 49.5q-39 51 -80 52q-33 0 -53.5 -20.5t-20.5 -53.5 q0 -53 53 -72l-20 -55q-88 39 -88 127z" />
<glyph unicode="&#x5af;" d="M-213 1614q0 92 60.5 153.5t152.5 61.5t153.5 -61.5t61.5 -153.5q0 -47 -16.5 -86t-46 -67.5t-68.5 -45t-84 -16.5q-88 0 -152 63q-61 62 -61 152zM-156 1614q0 -66 45 -115t111 -49t112 49t46 115t-46 115t-112 49t-111 -49t-45 -115z" />
<glyph unicode="&#x5b2;" d="M-354 -190h387v-109h-387v109zM141 -256q0 37 26 60.5t62 23.5q35 0 60.5 -24.5t25.5 -59.5q0 -37 -24.5 -61.5t-61.5 -24.5t-62.5 24.5t-25.5 61.5zM143 -506q0 35 26 60.5t60 25.5q37 0 61.5 -24.5t24.5 -61.5t-24.5 -61.5t-61.5 -24.5t-61.5 24.5t-24.5 61.5z" />
<glyph unicode="&#x5b3;" d="M-354 -190h387v-109h-158l-6 -92q0 -23 27 -62q29 -41 28 -61q0 -37 -24.5 -61.5t-61.5 -24.5q-35 0 -59.5 24.5t-24.5 61.5q0 25 27 63q29 41 29 60l-7 92h-157v109zM141 -256q0 37 26 60.5t62 23.5q35 0 60.5 -24.5t25.5 -59.5q0 -37 -24.5 -61.5t-61.5 -24.5 t-62.5 24.5t-25.5 61.5zM143 -506q0 35 26 60.5t60 25.5q37 0 61.5 -24.5t24.5 -61.5t-24.5 -61.5t-61.5 -24.5t-61.5 24.5t-24.5 61.5z" />
<glyph unicode="&#x221a;" d="M-354 -190h387v-109h-158l-6 -92q0 -23 27 -62q29 -41 28 -61q0 -37 -24.5 -61.5t-61.5 -24.5q-35 0 -59.5 24.5t-24.5 61.5q0 25 27 63q29 41 29 60l-7 92h-157v109zM141 -256q0 37 26 60.5t62 23.5q35 0 60.5 -24.5t25.5 -59.5q0 -37 -24.5 -61.5t-61.5 -24.5 t-62.5 24.5t-25.5 61.5zM143 -506q0 35 26 60.5t60 25.5q37 0 61.5 -24.5t24.5 -61.5t-24.5 -61.5t-61.5 -24.5t-61.5 24.5t-24.5 61.5z" />
<glyph unicode="&#x5b5;" d="M-225 -256q0 35 24.5 59.5t61.5 24.5t61.5 -23.5t24.5 -60.5t-24.5 -61.5t-61.5 -24.5t-61.5 24.5t-24.5 61.5zM53 -256q0 35 24.5 59.5t61.5 24.5t61.5 -24.5t24.5 -59.5q0 -37 -24.5 -61.5t-61.5 -24.5q-35 0 -60.5 25.5t-25.5 60.5z" />
<glyph unicode="&#x2248;" d="M-225 -256q0 35 24.5 59.5t61.5 24.5t61.5 -23.5t24.5 -60.5t-24.5 -61.5t-61.5 -24.5t-61.5 24.5t-24.5 61.5zM53 -256q0 35 24.5 59.5t61.5 24.5t61.5 -24.5t24.5 -59.5q0 -37 -24.5 -61.5t-61.5 -24.5q-35 0 -60.5 25.5t-25.5 60.5z" />
<glyph unicode="&#x5b6;" d="M-236 -256q0 35 25 59.5t61 24.5q37 0 62 -23.5t25 -60.5t-25 -61.5t-62 -24.5t-61.5 24.5t-24.5 61.5zM-88 -494q0 35 26.5 61.5t61.5 26.5q37 0 61.5 -25.5t24.5 -62.5t-24.5 -61.5t-61.5 -24.5t-62.5 24.5t-25.5 61.5zM63 -256q0 35 25 59.5t62 24.5t61.5 -24.5 t24.5 -59.5q0 -37 -25 -61.5t-61 -24.5q-35 0 -61 25.5t-26 60.5z" />
<glyph unicode="&#x2206;" d="M-236 -256q0 35 25 59.5t61 24.5q37 0 62 -23.5t25 -60.5t-25 -61.5t-62 -24.5t-61.5 24.5t-24.5 61.5zM-88 -494q0 35 26.5 61.5t61.5 26.5q37 0 61.5 -25.5t24.5 -62.5t-24.5 -61.5t-61.5 -24.5t-62.5 24.5t-25.5 61.5zM63 -256q0 35 25 59.5t62 24.5t61.5 -24.5 t24.5 -59.5q0 -37 -25 -61.5t-61 -24.5q-35 0 -61 25.5t-26 60.5z" />
<glyph unicode="&#x5b7;" d="M-193 -190h388v-109h-388v109z" />
<glyph unicode="&#x5b8;" d="M-193 -190h388v-109h-158l-6 -92q0 -23 26 -62q29 -41 29 -61q0 -37 -24.5 -61.5t-61.5 -24.5q-35 0 -59.5 24.5t-24.5 61.5q0 25 27 63q29 41 28 60l-6 92h-158v109z" />
<glyph unicode="&#x5b9;" d="M-86 1411q0 35 25.5 60.5t60.5 25.5q37 0 61.5 -24.5t24.5 -61.5t-24.5 -61.5t-61.5 -24.5t-61.5 24.5t-24.5 61.5z" />
<glyph unicode="&#x2026;" d="M-86 1411q0 35 25.5 60.5t60.5 25.5q37 0 61.5 -24.5t24.5 -61.5t-24.5 -61.5t-61.5 -24.5t-61.5 24.5t-24.5 61.5z" />
<glyph unicode="&#x5bb;" d="M-86 -256q0 35 24.5 59.5t61.5 24.5t61.5 -24.5t24.5 -59.5q0 -37 -24.5 -61.5t-61.5 -24.5q-35 0 -60.5 25.5t-25.5 60.5zM66 -393q0 35 24.5 59.5t61.5 24.5t61.5 -23.5t24.5 -60.5t-25 -61.5t-61 -24.5q-37 0 -61.5 24.5t-24.5 61.5zM217 -537q0 35 26.5 61.5 t61.5 26.5q37 0 61.5 -25.5t24.5 -62.5t-24.5 -61.5t-61.5 -24.5t-62.5 24.5t-25.5 61.5z" />
<glyph unicode="&#x5bc;" d="M-84 590q0 35 24.5 59.5t59.5 24.5t59.5 -24.5t24.5 -59.5t-24.5 -59.5t-59.5 -24.5t-59.5 24.5t-24.5 59.5z" />
<glyph unicode="&#x5bd;" d="M-37 -182h74v-357h-74v357z" />
<glyph unicode="&#x5c0;" horiz-adv-x="497" d="M195 2v1184h110v-1184h-110z" />
<glyph unicode="&#x5c1;" d="M358 1411q0 35 26 60.5t60 25.5q37 0 61.5 -24.5t24.5 -61.5t-24.5 -61.5t-61.5 -24.5t-61.5 24.5t-24.5 61.5z" />
<glyph unicode="&#x5c2;" d="M-172 1411q0 35 25.5 60.5t60.5 25.5q37 0 61.5 -24.5t24.5 -61.5t-24.5 -61.5t-61.5 -24.5t-61.5 24.5t-24.5 61.5z" />
<glyph unicode="&#x5c3;" horiz-adv-x="411" d="M96 39v74q0 43 35 43h82q35 0 35 -43v-74q0 -41 -35 -41h-82q-35 0 -35 41zM96 795v73q0 43 35 43h82q35 0 35 -43v-73q0 -41 -35 -41h-82q-35 0 -35 41z" />
<glyph unicode="&#x5c4;" d="M-86 1411q0 35 25.5 60.5t60.5 25.5q37 0 61.5 -24.5t24.5 -61.5t-24.5 -61.5t-61.5 -24.5t-61.5 24.5t-24.5 61.5z" />
<glyph unicode="&#x5c7;" d="M-193 -184h388v-109h-158l-6 -266q0 -23 26 -62q29 -41 29 -61q0 -37 -24.5 -61.5t-61.5 -24.5q-35 0 -59.5 24.5t-24.5 61.5q0 25 27 64q29 41 28 59l-6 266h-158v109z" />
<glyph unicode="&#x5d0;" horiz-adv-x="1230" d="M88 1188h195l432 -631q35 27 62.5 66t46 107.5t26.5 178t4 279.5h176q0 -168 -8 -275.5t-33.5 -183.5t-72 -137.5t-121.5 -136.5l295 -426l-3 -29h-182l-493 688q-14 -23 -36 -52.5t-41.5 -75.5t-32.5 -109.5t-13 -153.5v-297h-176v276q0 102 17 172t48 125.5t73 102.5 t93 106z" />
<glyph unicode="&#x2021;" horiz-adv-x="1230" d="M88 1188h195l432 -631q35 27 62.5 66t46 107.5t26.5 178t4 279.5h176q0 -168 -8 -275.5t-33.5 -183.5t-72 -137.5t-121.5 -136.5l295 -426l-3 -29h-182l-493 688q-14 -23 -36 -52.5t-41.5 -75.5t-32.5 -109.5t-13 -153.5v-297h-176v276q0 102 17 172t48 125.5t73 102.5 t93 106z" />
<glyph unicode="&#x5d1;" horiz-adv-x="1085" d="M92 1024v162h463q84 0 147.5 -23.5t105.5 -81t63.5 -155t23.5 -244.5q2 -160 -29.5 -297t-109.5 -223h180v-162h-823v162h397q92 0 148.5 54t56.5 173v463q0 172 -174 172h-449z" />
<glyph unicode="&#x5d2;" horiz-adv-x="817" d="M82 -37v197q84 33 156.5 95t127 135t86 148.5t31.5 137.5v221q0 72 -26.5 99.5t-91.5 27.5h-261v162h258q137 0 214 -76t77 -266v-842h-147l-19 404l-47 -109q-18 -41 -43.5 -87t-66.5 -91t-101.5 -85t-146.5 -71z" />
<glyph unicode="&#x201a;" horiz-adv-x="817" d="M82 -37v197q84 33 156.5 95t127 135t86 148.5t31.5 137.5v221q0 72 -26.5 99.5t-91.5 27.5h-261v162h258q137 0 214 -76t77 -266v-842h-147l-19 404l-47 -109q-18 -41 -43.5 -87t-66.5 -91t-101.5 -85t-146.5 -71z" />
<glyph unicode="&#x5d3;" horiz-adv-x="1056" d="M45 1024v166h858v-146q-53 -18 -88 -37.5t-55.5 -45t-28.5 -59.5t-8 -77v-825h-174v633q0 39 4 84t17.5 94t40 103.5t71.5 109.5h-637z" />
<glyph unicode="&#x201e;" horiz-adv-x="1056" d="M45 1024v166h858v-146q-53 -18 -88 -37.5t-55.5 -45t-28.5 -59.5t-8 -77v-825h-174v633q0 39 4 84t17.5 94t40 103.5t71.5 109.5h-637z" />
<glyph unicode="&#x5d4;" horiz-adv-x="1249" d="M129 1024v166h526q131 0 214 -38t131.5 -103.5t66.5 -154.5t18 -189v-705h-174v743q0 63 -6 114.5t-27.5 88.5t-63.5 57.5t-116 20.5h-569zM154 0v688h174v-688h-174z" />
<glyph unicode="&#x2030;" horiz-adv-x="1249" d="M129 1024v166h526q131 0 214 -38t131.5 -103.5t66.5 -154.5t18 -189v-705h-174v743q0 63 -6 114.5t-27.5 88.5t-63.5 57.5t-116 20.5h-569zM154 0v688h174v-688h-174z" />
<glyph unicode="&#x5d5;" horiz-adv-x="526" d="M164 0v1186h174v-1186h-174z" />
<glyph unicode="&#x5d6;" horiz-adv-x="788" d="M88 1024v166h547v-109q-123 -63 -167 -147t-44 -193v-741h-174v647q0 61 8 104.5t23.5 84.5t38 84t51.5 104h-283z" />
<glyph unicode="&#x5d7;" horiz-adv-x="1300" d="M96 1024v162h625q109 0 187.5 -16.5t128.5 -60.5t75 -122t25 -203v-784h-174v821q0 59 -9.5 98t-34 63t-66.5 33t-108 9h-327q-53 0 -53 -74v-950h-175v768q0 186 80 225v31h-174z" />
<glyph unicode="&#x5d8;" horiz-adv-x="1335" d="M147 524v666h175v-750q0 -156 81.5 -227.5t258.5 -77.5q98 -4 166.5 24.5t111.5 79t62.5 118t19.5 143.5v282q0 117 -66.5 179.5t-183.5 62.5h-186v164h157q242 0 351.5 -137.5t107.5 -442.5q-2 -145 -37 -264t-105.5 -202t-176 -128t-246.5 -45q-145 0 -239.5 43 t-149.5 118t-78 176t-23 218z" />
<glyph unicode="&#x5d9;" horiz-adv-x="462" d="M125 514v672h174v-672h-174z" />
<glyph unicode="&#x5da;" horiz-adv-x="991" d="M43 1024v162h403q381 0 381 -387v-1186h-174v1223q0 188 -178 188h-432z" />
<glyph unicode="&#x5db;" horiz-adv-x="1030" d="M92 1024v166h475q340 0 340 -594q0 -266 -96 -424q-104 -172 -301 -172h-393v162h415q184 0 185 203v483q0 176 -174 176h-451z" />
<glyph unicode="&#x5dc;" horiz-adv-x="1071" d="M51 1024v463h174v-297h443q129 0 187 -53.5t58 -157.5v-115q0 -102 -35.5 -191t-84.5 -161l-152 -219q-27 -39 -46.5 -79t-21.5 -112v-102h-174v78q0 66 25 128t55 103l178 277q35 53 58.5 103t23.5 104v157q0 45 -22.5 59.5t-87.5 14.5h-578z" />
<glyph unicode="&#x5dd;" horiz-adv-x="1267" d="M96 1024v162h654q182 0 268 -110.5t86 -297.5v-778h-948v768q0 184 80 225v31h-140zM330 162h600v682q0 92 -40 136t-110 44h-393q-57 0 -57 -74v-788z" />
<glyph unicode="&#x5de;" horiz-adv-x="1300" d="M92 1186h160l63 -320l23 -2q41 160 123 242t186 82h150q162 0 251 -83t89 -231v-874h-592v162h418v674q0 104 -64.5 151t-191.5 43q-84 -2 -138.5 -23.5t-87 -63.5t-50 -103.5t-28.5 -143.5l-86 -696h-174l88 594z" />
<glyph unicode="&#x5df;" horiz-adv-x="526" d="M164 -397v1583l174 4v-1587h-174z" />
<glyph unicode="&#x5e0;" horiz-adv-x="772" d="M82 0v162h352v747q0 76 -27.5 95.5t-72.5 19.5h-211v162h276q102 0 155.5 -75t53.5 -224v-887h-526z" />
<glyph unicode="&#xf8ff;" horiz-adv-x="772" d="M82 0v162h352v747q0 76 -27.5 95.5t-72.5 19.5h-211v162h276q102 0 155.5 -75t53.5 -224v-887h-526z" />
<glyph unicode="&#x5e1;" horiz-adv-x="1357" d="M111 1024v166h716q133 0 210 -45t117 -125t50 -190.5t8 -241.5q-2 -152 -30.5 -265.5t-91 -188.5t-162 -112.5t-240.5 -39.5q-266 -4 -404.5 131t-138.5 397v147q0 119 31 211.5t103 155.5h-168zM334 432q0 -84 28.5 -139t77.5 -89t113.5 -47.5t136.5 -13.5 q170 0 252 64.5t82 224.5v426q0 166 -178 166h-381q-131 0 -131 -166v-426z" />
<glyph unicode="&#x5e2;" horiz-adv-x="1214" d="M82 1186h203l176 -799l31 -209l202 111q39 20 68 57t48 81t29.5 94t12.5 100l29 567h184l-45 -572q-6 -80 -23.5 -151.5t-57.5 -138t-109.5 -127t-180.5 -115.5l-461 -227l-61 137l246 131z" />
<glyph unicode="&#x5e3;" horiz-adv-x="1251" d="M90 1012v174h615q383 0 382 -387v-1186h-176v1225q0 186 -180 186h-309q-63 0 -94 -52t-31 -124v-211h235v-158h-397v291q0 86 32 150.5t66 91.5h-143z" />
<glyph unicode="&#x5e4;" horiz-adv-x="1234" d="M111 1024v162h661q340 0 340 -590q0 -266 -96 -424q-104 -172 -301 -172h-582v162h606q184 0 185 203v495q0 176 -174 176h-308q-63 0 -93 -52t-32 -124v-174h236v-158h-397v254q0 43 12 81t30.5 70t39 55.5t36.5 35.5h-163z" />
<glyph unicode="&#x5e8;" horiz-adv-x="1042" d="M61 1024v162h433q385 0 385 -387v-797h-174v836q0 186 -179 186h-465z" />
<glyph unicode="&#x5f0;" horiz-adv-x="897" d="M164 0v1186h174v-1186h-174zM535 0v1186h174v-1186h-174z" />
<glyph unicode="&#x5f1;" horiz-adv-x="854" d="M492 0v1186h174v-1186h-174zM125 514v672h174v-672h-174z" />
<glyph unicode="&#x5f2;" horiz-adv-x="815" d="M125 514v672h174v-672h-174zM477 514v672h174v-672h-174z" />
<glyph unicode="&#x5f3;" horiz-adv-x="563" d="M96 840l115 411q16 45 35 45h121q33 0 32 -28q0 -6 -75 -189q-6 -14 -15.5 -33.5t-19.5 -41.5l-66 -142q-20 -51 -92 -51q-35 0 -35 29z" />
<glyph unicode="&#x25ca;" horiz-adv-x="563" d="M96 840l115 411q16 45 35 45h121q33 0 32 -28q0 -6 -75 -189q-6 -14 -15.5 -33.5t-19.5 -41.5l-66 -142q-20 -51 -92 -51q-35 0 -35 29z" />
<glyph unicode="&#x5f4;" horiz-adv-x="890" d="M96 840l115 411q16 45 35 45h121q33 0 32 -28q0 -6 -75 -189q-6 -14 -15.5 -33.5t-19.5 -41.5l-66 -142q-20 -51 -92 -51q-35 0 -35 29zM424 840l115 411q16 45 34 45h121q33 0 33 -28q0 -6 -76 -189q-6 -14 -15 -33.5t-20 -41.5l-65 -142q-20 -51 -92 -51q-35 0 -35 29z " />
<glyph unicode="&#x2000;" horiz-adv-x="1024" />
<glyph unicode="&#x2001;" horiz-adv-x="2048" />
<glyph unicode="&#x2002;" horiz-adv-x="1024" />
<glyph unicode="&#x2003;" horiz-adv-x="2048" />
<glyph unicode="&#x2004;" horiz-adv-x="681" />
<glyph unicode="&#x2005;" horiz-adv-x="512" />
<glyph unicode="&#x2006;" horiz-adv-x="339" />
<glyph unicode="&#x2007;" horiz-adv-x="921" />
<glyph unicode="&#x2008;" horiz-adv-x="411" />
<glyph unicode="&#x2009;" horiz-adv-x="204" />
<glyph unicode="&#x200a;" horiz-adv-x="20" />
<glyph unicode="&#x200b;" />
<glyph unicode="&#x200c;" horiz-adv-x="45" d="M0 0v1628h45v-1628h-45z" />
<glyph unicode="&#x200d;" horiz-adv-x="45" d="M-115 1495l109 109l-109 106l31 31l107 -109l106 109l31 -31l-107 -106l107 -109l-31 -29l-84 84v-1550h-45v1550l-84 -84z" />
<glyph unicode="&#x2010;" horiz-adv-x="1087" d="M96 496v211h828v-211h-828z" />
<glyph unicode="&#x2011;" horiz-adv-x="1087" d="M96 496v211h828v-211h-828z" />
<glyph unicode="&#x2012;" horiz-adv-x="921" d="M96 496v211h662v-211h-662z" />
<glyph unicode="&#x2013;" horiz-adv-x="929" d="M25 614l69 168h809l-69 -168h-809z" />
<glyph unicode="&#x2014;" horiz-adv-x="1859" d="M25 614l69 168h1731l-70 -168h-1730z" />
<glyph unicode="&#x2015;" horiz-adv-x="4096" d="M96 496v211h3836v-211h-3836z" />
<glyph unicode="&#x2016;" horiz-adv-x="868" d="M530 -145v1443h174v-1443h-174zM96 -145v1443h174v-1443h-174z" />
<glyph unicode="&#x2018;" horiz-adv-x="565" d="M96 -223l117 411q8 45 31 45h125q33 0 32 -26q0 -18 -79 -193q-8 -20 -16.5 -38.5t-18.5 -36.5l-64 -140q-25 -53 -90 -53q-37 0 -37 31z" />
<glyph unicode="&#x2019;" horiz-adv-x="411" d="M96 39v74q0 43 35 43h82q35 0 35 -43v-74q0 -41 -35 -41h-82q-35 0 -35 41z" />
<glyph unicode="&#x201c;" horiz-adv-x="890" d="M147 -141l115 411q16 45 35 45h121q33 0 33 -28q0 -6 -76 -189q-6 -14 -15.5 -33.5t-19.5 -41.5l-66 -142q-20 -51 -92 -51q-35 0 -35 29zM475 -141l115 411q16 45 35 45h120q33 0 33 -28q0 -6 -76 -189q-6 -14 -15 -33.5t-19 -41.5l-66 -142q-20 -51 -92 -51 q-35 0 -35 29z" />
<glyph unicode="&#x201d;" horiz-adv-x="890" d="M96 840l115 411q16 45 35 45h121q33 0 32 -28q0 -6 -75 -189q-6 -14 -15.5 -33.5t-19.5 -41.5l-66 -142q-20 -51 -92 -51q-35 0 -35 29zM424 840l115 411q16 45 34 45h121q33 0 33 -28q0 -6 -76 -189q-6 -14 -15 -33.5t-20 -41.5l-65 -142q-20 -51 -92 -51q-35 0 -35 29z " />
<glyph unicode="&#x2022;" horiz-adv-x="1062" d="M115 643q0 172 118 291q121 121 293 121q170 0 291 -121t121 -291q0 -172 -121 -293t-291 -121q-172 0 -293 121q-118 119 -118 293z" />
<glyph unicode="&#x2024;" horiz-adv-x="411" d="M96 39v74q0 43 35 43h82q35 0 35 -43v-74q0 -41 -35 -41h-82q-35 0 -35 41z" />
<glyph unicode="&#x2025;" horiz-adv-x="823" d="M508 39v74q0 43 35 43h82q35 0 35 -43v-74q0 -41 -35 -41h-82q-35 0 -35 41zM96 39v74q0 43 35 43h82q35 0 35 -43v-74q0 -41 -35 -41h-82q-35 0 -35 41z" />
<glyph unicode="&#x202a;" />
<glyph unicode="&#x202f;" horiz-adv-x="368" />
<glyph unicode="&#x2032;" horiz-adv-x="563" d="M96 840l115 411q16 45 35 45h121q33 0 32 -28q0 -6 -75 -189q-6 -14 -15.5 -33.5t-19.5 -41.5l-66 -142q-20 -51 -92 -51q-35 0 -35 29z" />
<glyph unicode="&#x2033;" horiz-adv-x="1126" d="M659 840l115 411q16 45 35 45h121q33 0 32 -28q0 -6 -75 -189q-6 -14 -15.5 -33.5t-19.5 -41.5l-66 -142q-20 -51 -92 -51q-35 0 -35 29zM96 840l115 411q16 45 35 45h121q33 0 32 -28q0 -6 -75 -189q-6 -14 -15.5 -33.5t-19.5 -41.5l-66 -142q-20 -51 -92 -51 q-35 0 -35 29z" />
<glyph unicode="&#x2034;" horiz-adv-x="1689" d="M1222 840l115 411q16 45 35 45h121q33 0 32 -28q0 -6 -75 -189q-6 -14 -15.5 -33.5t-19.5 -41.5l-66 -142q-20 -51 -92 -51q-35 0 -35 29zM659 840l115 411q16 45 35 45h121q33 0 32 -28q0 -6 -75 -189q-6 -14 -15.5 -33.5t-19.5 -41.5l-66 -142q-20 -51 -92 -51 q-35 0 -35 29zM96 840l115 411q16 45 35 45h121q33 0 32 -28q0 -6 -75 -189q-6 -14 -15.5 -33.5t-19.5 -41.5l-66 -142q-20 -51 -92 -51q-35 0 -35 29z" />
<glyph unicode="&#x2039;" horiz-adv-x="851" d="M162 582q45 39 109.5 95t150.5 132l147 139q125 117 133 117q25 0 25 -29q0 -35 -328 -461q47 -59 93.5 -116.5t93.5 -116.5q143 -186 143 -229q0 -29 -27 -29q-10 0 -153 143q-23 23 -118 111t-269 244z" />
<glyph unicode="&#x203a;" horiz-adv-x="851" d="M123 1036q0 29 29 29q10 0 153 -143q35 -33 131 -121t256 -232q-45 -39 -109.5 -95t-150.5 -132q-45 -45 -111.5 -107.5t-158.5 -148.5l-10 -2q-27 0 -27 29q0 35 328 460q-47 57 -92.5 114.5t-90.5 117.5q-147 186 -147 231z" />
<glyph unicode="&#x203c;" horiz-adv-x="892" d="M544 33v86q0 35 33 35h82q33 0 33 -35v-86q0 -35 -33 -35h-82q-33 0 -33 35zM544 1350q-4 39 33 39h121q31 0 31 -39l-43 -942q-6 -35 -35 -35h-45q-35 0 -35 35zM98 33v86q0 35 33 35h82q33 0 33 -35v-86q0 -35 -33 -35h-82q-33 0 -33 35zM98 1350q-4 39 33 39h121 q31 0 31 -39l-43 -942q-6 -35 -35 -35h-45q-35 0 -35 35z" />
<glyph unicode="&#x203e;" horiz-adv-x="471" d="M-228.002 123v99.5957h256.789q12 0 29.999 7.2002q17.999 7.19922 35.0986 23.999q17.0996 16.7988 29.3994 43.1982q12.2988 26.3984 13.499 64.1973q1.2002 37.7979 -9.2998 63.2969q-10.499 25.499 -25.7988 40.1992q-15.2998 14.6992 -32.3984 20.0986 q-17.0996 5.40039 -29.6992 5.40039h-167.993v19.7988l165.594 228.591h-261.59v95.9961h416.383v-24.5996l-172.793 -239.99q45.5986 2.40039 83.9971 -10.1992t66.8975 -37.7988q28.499 -25.1982 43.7979 -60.8975q15.2998 -35.6982 15.2998 -78.8965 q0 -44.3984 -14.0996 -89.6963t-41.998 -83.3965q-27.8994 -38.0986 -67.7979 -62.0977t-90.2959 -23.999h-242.99z" />
<glyph unicode="&#x2047;" horiz-adv-x="1921" d="M1057 1239v82q0 20 29 37q51 25 118.5 34t129.5 13q74 6 145.5 -18.5t129 -68.5t96 -105.5t49 -131t-14 -141.5t-94.5 -139q-45 -45 -94 -83t-101 -89q-37 -37 -51 -74t-14 -72q-4 -72 -11 -91t-24 -19h-100q-35 0 -35 35q0 39 1 56t2 26.5t2 16.5t1 23q0 53 24.5 88 t84.5 84l209 181q51 45 61 101t-10.5 110.5t-68.5 96.5t-114 58q-41 8 -69.5 10.5t-62 -1t-79 -10.5t-114.5 -15q-25 -4 -25 6zM1215 33v86q0 35 35 35h80q35 0 34 -35v-86q0 -35 -34 -35h-80q-35 0 -35 35zM96 1239v82q0 20 29 37q51 25 118.5 34t129.5 13 q74 6 145.5 -18.5t129 -68.5t96 -105.5t49 -131t-14 -141.5t-94.5 -139q-45 -45 -94 -83t-101 -89q-37 -37 -51 -74t-14 -72q-4 -72 -11 -91t-24 -19h-100q-35 0 -35 35q0 39 1 56t2 26.5t2 16.5t1 23q0 53 24.5 88t84.5 84l209 181q51 45 61 101t-10.5 110.5t-68.5 96.5 t-114 58q-41 8 -69.5 10.5t-62 -1t-79 -10.5t-114.5 -15q-25 -4 -25 6zM254 33v86q0 35 35 35h80q35 0 34 -35v-86q0 -35 -34 -35h-80q-35 0 -35 35z" />
<glyph unicode="&#x2048;" horiz-adv-x="1406" d="M1059 33v86q0 35 33 35h82q33 0 33 -35v-86q0 -35 -33 -35h-82q-33 0 -33 35zM1059 1350q-4 39 33 39h121q31 0 31 -39l-43 -942q-6 -35 -35 -35h-45q-35 0 -35 35zM96 1239v82q0 20 29 37q51 25 118.5 34t129.5 13q74 6 145.5 -18.5t129 -68.5t96 -105.5t49 -131 t-14 -141.5t-94.5 -139q-45 -45 -94 -83t-101 -89q-37 -37 -51 -74t-14 -72q-4 -72 -11 -91t-24 -19h-100q-35 0 -35 35q0 39 1 56t2 26.5t2 16.5t1 23q0 53 24.5 88t84.5 84l209 181q51 45 61 101t-10.5 110.5t-68.5 96.5t-114 58q-41 8 -69.5 10.5t-62 -1t-79 -10.5 t-114.5 -15q-25 -4 -25 6zM254 33v86q0 35 35 35h80q35 0 34 -35v-86q0 -35 -34 -35h-80q-35 0 -35 35z" />
<glyph unicode="&#x2049;" horiz-adv-x="1406" d="M542 1239v82q0 20 29 37q51 25 118.5 34t129.5 13q74 6 145.5 -18.5t129 -68.5t96 -105.5t49 -131t-14 -141.5t-94.5 -139q-45 -45 -94 -83t-101 -89q-37 -37 -51 -74t-14 -72q-4 -72 -11 -91t-24 -19h-100q-35 0 -35 35q0 39 1 56t2 26.5t2 16.5t1 23q0 53 24.5 88 t84.5 84l209 181q51 45 61 101t-10.5 110.5t-68.5 96.5t-114 58q-41 8 -69.5 10.5t-62 -1t-79 -10.5t-114.5 -15q-25 -4 -25 6zM700 33v86q0 35 35 35h80q35 0 34 -35v-86q0 -35 -34 -35h-80q-35 0 -35 35zM98 33v86q0 35 33 35h82q33 0 33 -35v-86q0 -35 -33 -35h-82 q-33 0 -33 35zM98 1350q-4 39 33 39h121q31 0 31 -39l-43 -942q-6 -35 -35 -35h-45q-35 0 -35 35z" />
<glyph unicode="&#x2057;" horiz-adv-x="2252" d="M1786 840l115 411q16 45 35 45h121q33 0 32 -28q0 -6 -75 -189q-6 -14 -15.5 -33.5t-19.5 -41.5l-66 -142q-20 -51 -92 -51q-35 0 -35 29zM1222 840l115 411q16 45 35 45h121q33 0 32 -28q0 -6 -75 -189q-6 -14 -15.5 -33.5t-19.5 -41.5l-66 -142q-20 -51 -92 -51 q-35 0 -35 29zM659 840l115 411q16 45 35 45h121q33 0 32 -28q0 -6 -75 -189q-6 -14 -15.5 -33.5t-19.5 -41.5l-66 -142q-20 -51 -92 -51q-35 0 -35 29zM96 840l115 411q16 45 35 45h121q33 0 32 -28q0 -6 -75 -189q-6 -14 -15.5 -33.5t-19.5 -41.5l-66 -142 q-20 -51 -92 -51q-35 0 -35 29z" />
<glyph unicode="&#x205f;" horiz-adv-x="460" />
<glyph unicode="&#x2060;" />
<glyph unicode="&#xe000;" horiz-adv-x="770" d="M0 770h770v-770h-770v770z" />
<glyph unicode="&#xfb00;" horiz-adv-x="1441" d="M762 0v49h158v680h-156v49h156v74q0 221 43 313q80 170 254 170q72 0 129 -32q72 -41 71 -105q0 -78 -75 -78q-82 0 -82 74q0 47 47 70q0 23 -86 22q-100 0 -101 -137v-371h170v-49h-170v-680h158v-49h-516zM41 0v49h158v680h-156v49h156v74q0 221 43 313q80 170 254 170 q72 0 129 -32q72 -41 71 -105q0 -78 -75 -78q-82 0 -82 74q0 47 47 70q0 23 -86 22q-100 0 -101 -137v-371h170v-49h-170v-680h158v-49h-516z" />
<glyph unicode="&#xfb01;" horiz-adv-x="1341" d="M789 0v49h157v680h-157v49h356v-729h160v-49h-516zM926 1126q0 47 34.5 79t84.5 32q49 0 83.5 -31.5t34.5 -79.5q0 -47 -35.5 -77.5t-82.5 -30.5t-83 30.5t-36 77.5zM41 0v49h158v680h-156v49h156v74q0 221 43 313q80 170 254 170q72 0 129 -32q72 -41 71 -105 q0 -78 -75 -78q-82 0 -82 74q0 47 47 70q0 23 -86 22q-100 0 -101 -137v-371h170v-49h-170v-680h158v-49h-516z" />
<glyph unicode="&#xfb02;" horiz-adv-x="1323" d="M787 0v49h147v1223h-147v49h346v-1272h147v-49h-493zM41 0v49h158v680h-156v49h156v74q0 221 43 313q80 170 254 170q72 0 129 -32q72 -41 71 -105q0 -78 -75 -78q-82 0 -82 74q0 47 47 70q0 23 -86 22q-100 0 -101 -137v-371h170v-49h-170v-680h158v-49h-516z" />
<glyph unicode="&#xfb03;" horiz-adv-x="2062" d="M1510 0v49h157v680h-157v49h356v-729h160v-49h-516zM1647 1126q0 47 34.5 79t84.5 32q49 0 83.5 -31.5t34.5 -79.5q0 -47 -35.5 -77.5t-82.5 -30.5t-83 30.5t-36 77.5zM762 0v49h158v680h-156v49h156v74q0 221 43 313q80 170 254 170q72 0 129 -32q72 -41 71 -105 q0 -78 -75 -78q-82 0 -82 74q0 47 47 70q0 23 -86 22q-100 0 -101 -137v-371h170v-49h-170v-680h158v-49h-516zM41 0v49h158v680h-156v49h156v74q0 221 43 313q80 170 254 170q72 0 129 -32q72 -41 71 -105q0 -78 -75 -78q-82 0 -82 74q0 47 47 70q0 23 -86 22 q-100 0 -101 -137v-371h170v-49h-170v-680h158v-49h-516z" />
<glyph unicode="&#xfb04;" horiz-adv-x="2043" d="M1508 0v49h147v1223h-147v49h346v-1272h147v-49h-493zM762 0v49h158v680h-156v49h156v74q0 221 43 313q80 170 254 170q72 0 129 -32q72 -41 71 -105q0 -78 -75 -78q-82 0 -82 74q0 47 47 70q0 23 -86 22q-100 0 -101 -137v-371h170v-49h-170v-680h158v-49h-516zM41 0v49 h158v680h-156v49h156v74q0 221 43 313q80 170 254 170q72 0 129 -32q72 -41 71 -105q0 -78 -75 -78q-82 0 -82 74q0 47 47 70q0 23 -86 22q-100 0 -101 -137v-371h170v-49h-170v-680h158v-49h-516z" />
<glyph unicode="&#xfb06;" horiz-adv-x="1464" d="M791 727v49h143v217l201 92v-309h205v-49h-205v-518q0 -176 127 -176q111 0 133 133q4 29 29 29q20 0 20 -25q0 -16 -2 -20q-35 -176 -252 -177q-119 0 -187.5 61.5t-68.5 178.5v514h-143zM88 8v207q0 25 23 25q18 0 24 -25q55 -195 266 -195q80 0 138 33q74 39 73 113 q0 86 -125 129q-16 2 -196 43q-188 41 -189 207q0 59 22.5 106t61.5 80t91.5 50.5t113.5 17.5q96 0 160 -51l41 38l6 5q8 8 16 8q14 0 15 -23v-207q0 -20 -17 -20q-20 0 -22 18q-14 82 -69.5 132.5t-141.5 50.5q-63 0 -115 -31q-61 -35 -61 -92q0 -61 123 -99q45 -10 89 -19 t89 -20q199 -57 198 -245q0 -129 -81.5 -200t-212.5 -71q-156 0 -238 76l-39 -51q-8 -14 -20 -14q-23 -1 -23 24z" />
<glyph unicode="&#xfb1d;" horiz-adv-x="464" d="M127 514v672h174v-672h-174zM125 -256q0 35 24.5 59.5t61.5 24.5t61.5 -23.5t24.5 -60.5t-24.5 -61.5t-61.5 -24.5t-61.5 24.5t-24.5 61.5z" />
<glyph unicode="&#xfb1e;" horiz-adv-x="1890" d="M51 1024v279h174v-113h1262q129 0 187.5 -53.5t58.5 -157.5v-115q0 -102 -36 -191t-85 -161l-152 -219q-27 -39 -46 -79t-21 -112v-102h-174v78q0 66 24.5 128t54.5 103l179 277q35 53 58.5 103t23.5 104v157q0 45 -23 59.5t-88 14.5h-1397z" />
<glyph unicode="&#xfb1f;" horiz-adv-x="815" d="M125 514v672h174v-672h-174zM477 514v672h174v-672h-174z" />
<glyph unicode="&#xfb20;" horiz-adv-x="1214" d="M82 1186h203l176 -799l31 -209l202 111q39 20 68 57t48 81t29.5 94t12.5 100l29 567h184l-45 -572q-6 -80 -23.5 -151.5t-57.5 -138t-109.5 -127t-180.5 -115.5l-461 -227l-61 137l246 131z" />
<glyph unicode="&#xfb21;" horiz-adv-x="1904" d="M92 1024v162h1282q84 0 147.5 -23.5t105.5 -81t63.5 -155t23.5 -244.5q2 -160 -29.5 -297t-109.5 -223h180v-162h-1642v162h1216q92 0 148.5 54t56.5 173v463q0 172 -174 172h-1268z" />
<glyph unicode="&#xfb22;" horiz-adv-x="1875" d="M45 1024v166h1677v-146q-53 -18 -88 -37.5t-55 -45t-28.5 -59.5t-8.5 -77v-825h-174v633q0 39 4 84t17.5 94t40 103.5t71.5 109.5h-1456z" />
<glyph unicode="&#xfb23;" horiz-adv-x="2068" d="M129 1024v166h1346q131 0 214 -38t131 -103.5t66.5 -154.5t18.5 -189v-705h-174v743q0 63 -6.5 114.5t-28 88.5t-63.5 57.5t-115 20.5h-1389zM154 0v688h174v-688h-174z" />
<glyph unicode="&#xfb24;" horiz-adv-x="1849" d="M92 1024v166h1294q340 0 340 -594q0 -266 -96 -424q-104 -172 -301 -172h-1212v162h1235q184 0 184 203v483q0 176 -174 176h-1270z" />
<glyph unicode="&#xfb25;" horiz-adv-x="1890" d="M51 1024v463h174v-297h1262q129 0 187.5 -53.5t58.5 -157.5v-115q0 -102 -36 -191t-85 -161l-152 -219q-27 -39 -46 -79t-21 -112v-102h-174v78q0 66 24.5 128t54.5 103l179 277q35 53 58.5 103t23.5 104v157q0 45 -23 59.5t-88 14.5h-1397z" />
<glyph unicode="&#xfb26;" horiz-adv-x="2086" d="M96 1024v162h1473q182 0 268 -110.5t86 -297.5v-778h-1767v768q0 184 80 225v31h-140zM330 162h1419v682q0 92 -40 136t-110 44h-1212q-57 0 -57 -74v-788z" />
<glyph unicode="&#xfb27;" horiz-adv-x="1861" d="M61 1024v162h1252q385 0 385 -387v-797h-174v836q0 186 -178 186h-1285z" />
<glyph unicode="&#xfb28;" horiz-adv-x="2158" d="M74 2v160h125q45 0 51 10q8 10 8 57v539q0 186 82 225v31h-182v162h1528q180 0 243 -64q66 -70 66 -256v-864h-174v903q0 119 -107 119h-1225q-57 0 -57 -74v-798q0 -23 -8 -48.5t-22.5 -48t-35 -38t-42.5 -15.5h-250z" />
<glyph unicode="&#xfb29;" horiz-adv-x="1183" d="M29 584v172h448v448h170v-448h449v-172h-1067z" />
<glyph unicode="&#xfb2a;" horiz-adv-x="1556" d="M125 539v651h172v-590q37 -29 95.5 -35t114.5 13.5t97 65.5t41 124v422h174v-393q0 -104 -48 -177t-123 -114t-168 -50.5t-181 13.5q-4 -111 25.5 -177.5t86 -101t134.5 -45t174 -10.5q123 0 205 13.5t132 47t71.5 91t21.5 143.5v760h174v-651q0 -305 -150.5 -437.5 t-453.5 -132.5q-150 0 -261.5 29t-185 95.5t-110.5 175t-37 270.5zM1153 1411q0 35 26 60.5t60 25.5q37 0 61.5 -24.5t24.5 -61.5t-24.5 -61.5t-61.5 -24.5t-61.5 24.5t-24.5 61.5z" />
<glyph unicode="&#xfb2b;" horiz-adv-x="1501" d="M125 539v651h172v-590q37 -29 95.5 -35t114.5 13.5t97 65.5t41 124v422h174v-393q0 -104 -48 -177t-123 -114t-168 -50.5t-181 13.5q-4 -111 25.5 -177.5t86 -101t134.5 -45t174 -10.5q123 0 205 13.5t132 47t71.5 91t21.5 143.5v760h174v-651q0 -305 -150.5 -437.5 t-453.5 -132.5q-150 0 -261.5 29t-185 95.5t-110.5 175t-37 270.5zM123 1411q0 35 25.5 60.5t60.5 25.5q37 0 61.5 -24.5t24.5 -61.5t-24.5 -61.5t-61.5 -24.5t-61.5 24.5t-24.5 61.5z" />
<glyph unicode="&#xfb2c;" horiz-adv-x="1556" d="M125 539v651h172v-590q37 -29 95.5 -35t114.5 13.5t97 65.5t41 124v422h174v-393q0 -104 -48 -177t-123 -114t-168 -50.5t-181 13.5q-4 -111 25.5 -177.5t86 -101t134.5 -45t174 -10.5q123 0 205 13.5t132 47t71.5 91t21.5 143.5v760h174v-651q0 -305 -150.5 -437.5 t-453.5 -132.5q-150 0 -261.5 29t-185 95.5t-110.5 175t-37 270.5zM1153 1411q0 35 26 60.5t60 25.5q37 0 61.5 -24.5t24.5 -61.5t-24.5 -61.5t-61.5 -24.5t-61.5 24.5t-24.5 61.5zM870 543q0 35 24.5 59.5t59.5 24.5t59.5 -24.5t24.5 -59.5t-24.5 -59.5t-59.5 -24.5 t-59.5 24.5t-24.5 59.5z" />
<glyph unicode="&#xfb2d;" horiz-adv-x="1501" d="M125 539v651h172v-590q37 -29 95.5 -35t114.5 13.5t97 65.5t41 124v422h174v-393q0 -104 -48 -177t-123 -114t-168 -50.5t-181 13.5q-4 -111 25.5 -177.5t86 -101t134.5 -45t174 -10.5q123 0 205 13.5t132 47t71.5 91t21.5 143.5v760h174v-651q0 -305 -150.5 -437.5 t-453.5 -132.5q-150 0 -261.5 29t-185 95.5t-110.5 175t-37 270.5zM870 543q0 35 24.5 59.5t59.5 24.5t59.5 -24.5t24.5 -59.5t-24.5 -59.5t-59.5 -24.5t-59.5 24.5t-24.5 59.5zM123 1411q0 35 25.5 60.5t60.5 25.5q37 0 61.5 -24.5t24.5 -61.5t-24.5 -61.5t-61.5 -24.5 t-61.5 24.5t-24.5 61.5z" />
<glyph unicode="&#xfb2e;" horiz-adv-x="1230" d="M88 1188h195l432 -631q35 27 62.5 66t46 107.5t26.5 178t4 279.5h176q0 -168 -8 -275.5t-33.5 -183.5t-72 -137.5t-121.5 -136.5l295 -426l-3 -29h-182l-493 688q-14 -23 -36 -52.5t-41.5 -75.5t-32.5 -109.5t-13 -153.5v-297h-176v276q0 102 17 172t48 125.5t73 102.5 t93 106zM370 -190h388v-109h-388v109z" />
<glyph unicode="&#xfb2f;" horiz-adv-x="1230" d="M88 1188h195l432 -631q35 27 62.5 66t46 107.5t26.5 178t4 279.5h176q0 -168 -8 -275.5t-33.5 -183.5t-72 -137.5t-121.5 -136.5l295 -426l-3 -29h-182l-493 688q-14 -23 -36 -52.5t-41.5 -75.5t-32.5 -109.5t-13 -153.5v-297h-176v276q0 102 17 172t48 125.5t73 102.5 t93 106zM370 -190h388v-109h-158l-6 -92q0 -23 26 -62q29 -41 29 -61q0 -37 -24.5 -61.5t-61.5 -24.5q-35 0 -59.5 24.5t-24.5 61.5q0 25 27 63q29 41 28 60l-6 92h-158v109z" />
<glyph unicode="&#xfb30;" horiz-adv-x="1230" d="M88 1188h195l432 -631q35 27 62.5 66t46 107.5t26.5 178t4 279.5h176q0 -168 -8 -275.5t-33.5 -183.5t-72 -137.5t-121.5 -136.5l295 -426l-3 -29h-182l-493 688q-14 -23 -36 -52.5t-41.5 -75.5t-32.5 -109.5t-13 -153.5v-297h-176v276q0 102 17 172t48 125.5t73 102.5 t93 106zM424 205q0 35 24.5 59.5t59.5 24.5t59.5 -24.5t24.5 -59.5t-24.5 -59.5t-59.5 -24.5t-59.5 24.5t-24.5 59.5z" />
<glyph unicode="&#xfb31;" horiz-adv-x="1085" d="M92 1024v162h463q84 0 147.5 -23.5t105.5 -81t63.5 -155t23.5 -244.5q2 -160 -29.5 -297t-109.5 -223h180v-162h-823v162h397q92 0 148.5 54t56.5 173v463q0 172 -174 172h-449zM301 590q0 35 24.5 59.5t59.5 24.5t59.5 -24.5t24.5 -59.5t-24.5 -59.5t-59.5 -24.5 t-59.5 24.5t-24.5 59.5z" />
<glyph unicode="&#xfb32;" horiz-adv-x="817" d="M129 692q0 35 24.5 59.5t59.5 24.5t59.5 -24.5t24.5 -59.5t-24.5 -59.5t-59.5 -24.5t-59.5 24.5t-24.5 59.5zM82 -37v197q84 33 156.5 95t127 135t86 148.5t31.5 137.5v221q0 72 -26.5 99.5t-91.5 27.5h-261v162h258q137 0 214 -76t77 -266v-842h-147l-19 404l-47 -109 q-18 -41 -43.5 -87t-66.5 -91t-101.5 -85t-146.5 -71z" />
<glyph unicode="&#xfb33;" horiz-adv-x="1056" d="M45 1024v166h858v-146q-53 -18 -88 -37.5t-55.5 -45t-28.5 -59.5t-8 -77v-825h-174v633q0 39 4 84t17.5 94t40 103.5t71.5 109.5h-637zM182 682q0 35 24.5 59.5t59.5 24.5t59.5 -24.5t24.5 -59.5t-24.5 -59.5t-59.5 -24.5t-59.5 24.5t-24.5 59.5z" />
<glyph unicode="&#xfb34;" horiz-adv-x="1249" d="M129 1024v166h526q131 0 214 -38t131.5 -103.5t66.5 -154.5t18 -189v-705h-174v743q0 63 -6 114.5t-27.5 88.5t-63.5 57.5t-116 20.5h-569zM154 0v688h174v-688h-174zM530 502q0 35 24.5 59.5t59.5 24.5t59.5 -24.5t24.5 -59.5t-24.5 -59.5t-59.5 -24.5t-59.5 24.5 t-24.5 59.5z" />
<glyph unicode="&#xfb35;" horiz-adv-x="526" d="M164 0v1186h174v-1186h-174zM-131 602q0 35 24.5 59.5t59.5 24.5t59.5 -24.5t24.5 -59.5t-24.5 -59.5t-59.5 -24.5t-59.5 24.5t-24.5 59.5z" />
<glyph unicode="&#xfb36;" horiz-adv-x="788" d="M88 1024v166h547v-109q-123 -63 -167 -147t-44 -193v-741h-174v647q0 61 8 104.5t23.5 84.5t38 84t51.5 104h-283zM-23 826q0 35 24.5 59.5t59.5 24.5t59.5 -24.5t24.5 -59.5t-24.5 -59.5t-59.5 -24.5t-59.5 24.5t-24.5 59.5z" />
<glyph unicode="&#xfb38;" horiz-adv-x="1335" d="M147 524v666h175v-750q0 -156 81.5 -227.5t258.5 -77.5q98 -4 166.5 24.5t111.5 79t62.5 118t19.5 143.5v282q0 117 -66.5 179.5t-183.5 62.5h-186v164h157q242 0 351.5 -137.5t107.5 -442.5q-2 -145 -37 -264t-105.5 -202t-176 -128t-246.5 -45q-145 0 -239.5 43 t-149.5 118t-78 176t-23 218zM596 586q0 35 24.5 59.5t59.5 24.5t59.5 -24.5t24.5 -59.5t-24.5 -59.5t-59.5 -24.5t-59.5 24.5t-24.5 59.5z" />
<glyph unicode="&#xfb39;" horiz-adv-x="462" d="M125 514v672h174v-672h-174zM-129 840q0 35 24.5 59.5t59.5 24.5t59.5 -24.5t24.5 -59.5t-24.5 -59.5t-59.5 -24.5t-59.5 24.5t-24.5 59.5z" />
<glyph unicode="&#xfb3a;" horiz-adv-x="991" d="M43 1024v162h403q381 0 381 -387v-1186h-174v1223q0 188 -178 188h-432zM240 670q0 35 24.5 59.5t59.5 24.5t59.5 -24.5t24.5 -59.5t-24.5 -59.5t-59.5 -24.5t-59.5 24.5t-24.5 59.5z" />
<glyph unicode="&#xfb3b;" horiz-adv-x="1030" d="M92 1024v166h475q340 0 340 -594q0 -266 -96 -424q-104 -172 -301 -172h-393v162h415q184 0 185 203v483q0 176 -174 176h-451zM276 582q0 35 24.5 59.5t59.5 24.5t59.5 -24.5t24.5 -59.5t-24.5 -59.5t-59.5 -24.5t-59.5 24.5t-24.5 59.5z" />
<glyph unicode="&#xfb3c;" horiz-adv-x="1071" d="M51 1024v463h174v-297h443q129 0 187 -53.5t58 -157.5v-115q0 -102 -35.5 -191t-84.5 -161l-152 -219q-27 -39 -46.5 -79t-21.5 -112v-102h-174v78q0 66 25 128t55 103l178 277q35 53 58.5 103t23.5 104v157q0 45 -22.5 59.5t-87.5 14.5h-578zM281 684q0 35 24.5 59.5 t59.5 24.5t59.5 -24.5t24.5 -59.5t-24.5 -59.5t-59.5 -24.5t-59.5 24.5t-24.5 59.5z" />
<glyph unicode="&#xfb3e;" horiz-adv-x="1300" d="M92 1186h160l63 -320l23 -2q41 160 123 242t186 82h150q162 0 251 -83t89 -231v-874h-592v162h418v674q0 104 -64.5 151t-191.5 43q-84 -2 -138.5 -23.5t-87 -63.5t-50 -103.5t-28.5 -143.5l-86 -696h-174l88 594zM600 563q0 35 24.5 59.5t59.5 24.5t59.5 -24.5 t24.5 -59.5t-24.5 -59.5t-59.5 -24.5t-59.5 24.5t-24.5 59.5z" />
<glyph unicode="&#xfb40;" horiz-adv-x="772" d="M82 0v162h352v747q0 76 -27.5 95.5t-72.5 19.5h-211v162h276q102 0 155.5 -75t53.5 -224v-887h-526zM127 580q0 35 24.5 59.5t59.5 24.5t59.5 -24.5t24.5 -59.5t-24.5 -59.5t-59.5 -24.5t-59.5 24.5t-24.5 59.5z" />
<glyph unicode="&#xfb41;" horiz-adv-x="1357" d="M111 1024v166h716q133 0 210 -45t117 -125t50 -190.5t8 -241.5q-2 -152 -30.5 -265.5t-91 -188.5t-162 -112.5t-240.5 -39.5q-266 -4 -404.5 131t-138.5 397v147q0 119 31 211.5t103 155.5h-168zM334 432q0 -84 28.5 -139t77.5 -89t113.5 -47.5t136.5 -13.5 q170 0 252 64.5t82 224.5v426q0 166 -178 166h-381q-131 0 -131 -166v-426zM604 592q0 35 24.5 59.5t59.5 24.5t59.5 -24.5t24.5 -59.5t-24.5 -59.5t-59.5 -24.5t-59.5 24.5t-24.5 59.5z" />
<glyph unicode="&#xfb43;" horiz-adv-x="1251" d="M90 1012v174h615q383 0 382 -387v-1186h-176v1225q0 186 -180 186h-309q-63 0 -94 -52t-31 -124v-211h235v-158h-397v291q0 86 32 150.5t66 91.5h-143zM643 561q0 35 24.5 59.5t59.5 24.5t59.5 -24.5t24.5 -59.5t-24.5 -59.5t-59.5 -24.5t-59.5 24.5t-24.5 59.5z" />
<glyph unicode="&#xfb44;" horiz-adv-x="1234" d="M111 1024v162h661q340 0 340 -590q0 -266 -96 -424q-104 -172 -301 -172h-582v162h606q184 0 185 203v495q0 176 -174 176h-308q-63 0 -93 -52t-32 -124v-174h236v-158h-397v254q0 43 12 81t30.5 70t39 55.5t36.5 35.5h-163zM655 610q0 35 24.5 59.5t59.5 24.5 t59.5 -24.5t24.5 -59.5t-24.5 -59.5t-59.5 -24.5t-59.5 24.5t-24.5 59.5z" />
<glyph unicode="&#xfb46;" horiz-adv-x="1122" d="M47 1188h201q78 -162 180 -326t197 -301q78 66 116.5 150t38.5 194v283h174v-279q0 -131 -70.5 -240.5t-193.5 -189.5q41 -51 97.5 -128t142.5 -189v-162h-871v162h674q-86 104 -179 224t-184 250t-174 269.5t-149 282.5zM164 408q0 35 24.5 59.5t59.5 24.5t59.5 -24.5 t24.5 -59.5t-24.5 -59.5t-59.5 -24.5t-59.5 24.5t-24.5 59.5z" />
<glyph unicode="&#xfb47;" horiz-adv-x="1277" d="M129 1024v162h664q84 0 147.5 -15.5t105 -50.5t61 -95t13.5 -148l-4 -72q-6 -102 -44 -184t-89 -150l-104 -154q-29 -37 -40.5 -77.5t-15.5 -112.5v-127h-174v117q0 66 23.5 128t54.5 103l135 203q41 53 61.5 103.5t20.5 103.5v151q0 68 -22.5 91.5t-85.5 23.5h-707z M145 -297v1055h174v-1055h-174zM508 643q0 35 24.5 59.5t59.5 24.5t59.5 -24.5t24.5 -59.5t-24.5 -59.5t-59.5 -24.5t-59.5 24.5t-24.5 59.5z" />
<glyph unicode="&#xfb48;" horiz-adv-x="1042" d="M61 1024v162h433q385 0 385 -387v-797h-174v836q0 186 -179 186h-465zM240 584q0 35 24.5 59.5t59.5 24.5t59.5 -24.5t24.5 -59.5t-24.5 -59.5t-59.5 -24.5t-59.5 24.5t-24.5 59.5z" />
<glyph unicode="&#xfb49;" horiz-adv-x="1501" d="M125 539v651h172v-590q37 -29 95.5 -35t114.5 13.5t97 65.5t41 124v422h174v-393q0 -104 -48 -177t-123 -114t-168 -50.5t-181 13.5q-4 -111 25.5 -177.5t86 -101t134.5 -45t174 -10.5q123 0 205 13.5t132 47t71.5 91t21.5 143.5v760h174v-651q0 -305 -150.5 -437.5 t-453.5 -132.5q-150 0 -261.5 29t-185 95.5t-110.5 175t-37 270.5zM870 543q0 35 24.5 59.5t59.5 24.5t59.5 -24.5t24.5 -59.5t-24.5 -59.5t-59.5 -24.5t-59.5 24.5t-24.5 59.5z" />
<glyph unicode="&#xfb4a;" horiz-adv-x="1339" d="M74 2v160h125q45 0 51 10q8 10 8 57v539q0 186 82 225v31h-182v162h708q180 0 244 -64q66 -70 66 -256v-864h-175v903q0 119 -106 119h-406q-57 0 -57 -74v-798q0 -23 -8 -48.5t-22.5 -48t-35 -38t-42.5 -15.5h-250zM637 602q0 35 24.5 59.5t59.5 24.5t59.5 -24.5 t24.5 -59.5t-24.5 -59.5t-59.5 -24.5t-59.5 24.5t-24.5 59.5z" />
<glyph unicode="&#xfb4b;" horiz-adv-x="530" d="M168 0v1186h174v-1186h-174zM164 1411q0 35 25.5 60.5t60.5 25.5q37 0 61.5 -24.5t24.5 -61.5t-24.5 -61.5t-61.5 -24.5t-61.5 24.5t-24.5 61.5z" />
<glyph unicode="&#xfb4c;" horiz-adv-x="1085" d="M92 1024v162h463q84 0 147.5 -23.5t105.5 -81t63.5 -155t23.5 -244.5q2 -160 -29.5 -297t-109.5 -223h180v-162h-823v162h397q92 0 148.5 54t56.5 173v463q0 172 -174 172h-449zM256 1384v111h430v-111h-430z" />
<glyph unicode="&#xfb4d;" horiz-adv-x="1030" d="M92 1024v166h475q340 0 340 -594q0 -266 -96 -424q-104 -172 -301 -172h-393v162h415q184 0 185 203v483q0 176 -174 176h-451zM252 1384v111h430v-111h-430z" />
<glyph unicode="&#xfb4e;" horiz-adv-x="1234" d="M111 1024v162h661q340 0 340 -590q0 -266 -96 -424q-104 -172 -301 -172h-582v162h606q184 0 185 203v495q0 176 -174 176h-308q-63 0 -93 -52t-32 -124v-174h236v-158h-397v254q0 43 12 81t30.5 70t39 55.5t36.5 35.5h-163zM360 1384v111h431v-111h-431z" />
<glyph unicode="&#xfb4f;" horiz-adv-x="1191" d="M51 1188v299h193v-299l432 -631q35 27 62.5 66t46 107.5t26.5 178t4 279.5h176q0 -168 -8 -275.5t-33.5 -183.5t-72 -137.5t-121.5 -136.5l295 -426l-2 -29h-183l-561 782z" />
</font>
</defs>
</svg>
