<?xml version="1.0" standalone="no"?>
<!DOCTYPE svg PUBLIC "-//W3C//DTD SVG 1.1//EN" "http://www.w3.org/Graphics/SVG/1.1/DTD/svg11.dtd" >
<svg xmlns="http://www.w3.org/2000/svg">
<metadata>
This is a custom SVG webfont generated by Font Squirrel.
Copyright   : Copyright c 2010 by ELi Fried All rights reserved
Foundry     : ELi Fried
</metadata>
<defs>
<font id="EFTClaveBold" horiz-adv-x="0" >
<font-face units-per-em="2048" ascent="1638" descent="-410" />
<missing-glyph horiz-adv-x="450" />
<glyph unicode=" "  horiz-adv-x="450" />
<glyph unicode="&#x09;" horiz-adv-x="450" />
<glyph unicode="&#xa0;" horiz-adv-x="450" />
<glyph unicode="!" horiz-adv-x="524" d="M104 1350q-4 39 33 39h254q31 0 31 -39l-43 -910q-6 -35 -35 -34h-178q-35 0 -35 34zM123 47v176q0 20 11 34.5t34 14.5h168q23 0 34 -14t11 -35v-176q0 -49 -45 -49h-168q-45 0 -45 49z" />
<glyph unicode="&#x22;" horiz-adv-x="944" d="M102 840q0 -8 30 95t87 316q12 45 35 45h203q31 0 30 -28q0 -12 -75 -189l-25 -57q-23 -47 -41 -88t-35 -72q-8 -16 -15 -27.5t-20 -15.5q-12 -8 -53 -8q-10 0 -30.5 2t-40 5t-35 8.5t-15.5 13.5zM455 840l114 411q2 10 13.5 18.5t23.5 14.5t23.5 9t15.5 3h162 q33 0 33 -28q6 6 -7.5 -25t-33 -76t-40 -91t-30.5 -72l-65 -142q-25 -51 -91 -51q-10 0 -29.5 2t-39 5t-34.5 8.5t-15 13.5z" />
<glyph unicode="#" horiz-adv-x="1107" d="M102 465q0 6 3.5 19.5t13.5 31.5q18 37 31 37h180l63 141h-170q-12 0 -12 13q0 18 18 55q18 39 33 39h180l70 162q4 4 12 8h90q12 0 13 -10q0 -8 -70 -160h154l73 162q0 2 11 8h90q10 0 10 -10q0 -6 -68 -160h168q10 0 11 -8q0 -8 -4.5 -22.5t-16.5 -35.5 q-18 -41 -29 -41h-176l-67 -141h172q10 0 10 -14q0 -18 -16 -52q-16 -41 -31 -41h-182l-72 -161q0 -2 -10 -6h-90q-12 0 -13 12q23 53 40.5 91t27.5 64h-152l-71 -161q-2 -4 -5.5 -4t-7.5 -2h-90q-12 0 -12 10q0 6 70 157h-166q-13 1 -13 19zM444 553h154l64 141h-158z" />
<glyph unicode="$" horiz-adv-x="1052" d="M102 328q0 14 10.5 27.5t30.5 13.5h148q47 0 47 -70q0 -121 197 -121q174 0 178 135q-10 41 -37 71t-64 50.5t-81 35.5t-89 30q-59 20 -113.5 40.5t-95.5 51.5q-111 92 -110 231q0 72 28.5 135.5t75.5 110.5q92 84 222 105v71q0 41 38 41h76q39 0 39 -41v-65 q139 -16 223 -88q51 -47 80 -100.5t29 -106.5q0 -61 -51 -62h-135q-27 0 -37.5 7.5t-12.5 29.5q-12 39 -36.5 62.5t-51 36t-49 16.5t-29.5 4q-29 0 -59.5 -7t-56 -22.5t-42 -40t-16.5 -57.5q0 -68 72 -104v2q35 -14 64.5 -24.5t58.5 -18.5q74 -27 145.5 -54.5t126.5 -72.5 q125 -98 125 -234q0 -84 -25.5 -151.5t-80.5 -118.5q-47 -47 -108.5 -71.5t-133.5 -31.5v-104q0 -35 -39 -35h-76q-39 0 -38 35v102q-74 6 -132.5 31t-107.5 66q-51 47 -79 112.5t-28 147.5z" />
<glyph unicode="%" horiz-adv-x="1443" d="M102 866q0 342 246 342q244 0 244 -340q0 -72 -13.5 -127t-37.5 -100q-63 -111 -193 -111q-246 0 -246 336zM242 866q0 -186 104 -186t105 194q0 184 -101 185q-108 0 -108 -193zM352 -2l506 1188q14 45 35 45h203q25 0 12 -27l-506 -1190q-18 -45 -35 -45h-200 q-27 0 -15 29zM850 297q0 340 246 340t245 -336q0 -139 -53 -227q-61 -111 -192 -111q-246 0 -246 334zM989 295q0 -184 105 -184q102 0 102 194q0 182 -98 182q-109 1 -109 -192z" />
<glyph unicode="&#x26;" horiz-adv-x="2152" d="M86 911v275h942q109 0 187.5 -16.5t129 -60.5t75 -122t24.5 -203v-313h-328v238q0 59 -3 98t-19.5 62.5t-52 32.5t-101.5 9h-379q-29 0 -41 -21.5t-12 -58.5v-831h-328v655q0 186 80 226v30h-174zM643 539v180h328l2 -225q0 -90 25.5 -139.5t69.5 -73t105.5 -28.5 t135.5 -5q182 0 265 69.5t83 243.5v629h328v-651q0 -154 -50.5 -260.5t-139.5 -174t-213 -100.5t-273 -35q-150 -4 -273 25t-210 96.5t-135 177t-48 271.5z" />
<glyph unicode="'" horiz-adv-x="548" d="M102 840l115 411q16 45 35 45h162q33 0 32 -28q0 -6 -75 -189q-6 -14 -15.5 -33.5t-19.5 -41.5l-66 -142q-20 -51 -92 -51q-18 0 -47 6.5t-29 22.5z" />
<glyph unicode="(" horiz-adv-x="667" d="M102 559q0 199 58.5 411t175.5 437q2 6 6 8t8 2h176q12 0 13 -12q0 -8 -2 -12q-25 -39 -37 -78q-156 -367 -156 -737q0 -96 17.5 -204t48 -217.5t70.5 -214t83 -190.5q2 -10 -10 -10h-168q-12 0 -20 10q-49 74 -96.5 177.5t-84.5 214t-59.5 219t-22.5 196.5z" />
<glyph unicode=")" horiz-adv-x="667" d="M104 -248q43 86 83 190.5t71 214t48.5 217t17.5 204.5q0 371 -156 737q-12 39 -37 78q-2 4 -2 12q0 12 12 12h176q4 0 8.5 -2t6.5 -8q117 -225 175 -437t58 -411q0 -88 -22.5 -196.5t-59.5 -219t-84 -214t-96 -177.5q-8 -10 -20 -10h-168q-13 0 -11 10z" />
<glyph unicode="*" horiz-adv-x="925" d="M102 1157q0 4 1 7t1 5l11 37q12 37 65 27q23 -4 52.5 -12.5t62.5 -24.5l111 -45v266q0 39 38 39h41q37 0 37 -39v-268q66 27 116 45t83 31q76 25 86 -21l12 -37q12 -43 -22 -55l-240 -80q23 -37 42 -63.5t32 -42.5q14 -16 26.5 -34t26.5 -38q27 -39 27 -66 q0 -10 -4.5 -16l-10.5 -14l-34 -25q-6 -6 -21 -6q-27 0 -59 45q-29 39 -54 80q-23 35 -39 62.5t-26 46.5l-22.5 -36t-28.5 -44q-35 -53 -51.5 -79t-20.5 -28q-33 -47 -59 -47q-16 0 -23 6l-27 25q-18 8 -18 30q0 16 27 64q61 86 93 131t36 49q-59 16 -110.5 32.5t-92.5 33.5 q-64 22 -64 59z" />
<glyph unicode="+" horiz-adv-x="1069" d="M102 483v152q0 29 15.5 45t44.5 16h250v267q0 29 15 47t46 18h150q29 0 45 -18.5t16 -46.5v-267h219q35 0 49.5 -16t14.5 -45v-152q0 -35 -14.5 -47t-49.5 -12h-219v-293q0 -31 -16.5 -46t-44.5 -15h-150q-61 0 -61 61v293h-250q-29 0 -44.5 12t-15.5 47z" />
<glyph unicode="," horiz-adv-x="591" d="M102 -203l117 412q8 45 31 45h207q33 0 32 -27q0 -18 -79 -192q-8 -20 -16.5 -39t-18.5 -37l-64 -139q-25 -53 -90 -53q-10 0 -29.5 2t-39 6t-35 9t-15.5 13z" />
<glyph unicode="-" horiz-adv-x="1032" d="M102 483v211q0 41 35 41h758q35 0 35 -41v-211q0 -43 -35 -43h-758q-35 0 -35 43z" />
<glyph unicode="." horiz-adv-x="462" d="M102 45v176q0 20 11.5 34.5t33.5 14.5h168q23 0 34 -14t11 -35v-176q0 -49 -45 -49h-168q-45 0 -45 49z" />
<glyph unicode="/" horiz-adv-x="833" d="M102 0l406 1186h223l-414 -1186h-215z" />
<glyph unicode="0" horiz-adv-x="1099" d="M102 600q0 156 33 273.5t91.5 195.5t139 117t179.5 39q129 0 215 -54.5t139 -143.5t75.5 -200.5t22.5 -226.5q0 -158 -33.5 -275.5t-94 -196.5t-143.5 -118t-181 -39t-179 39t-139.5 118t-91.5 196.5t-33 275.5zM377 600q0 -92 14.5 -156.5t39 -105.5t54 -59.5 t60.5 -18.5q33 0 65.5 18.5t57 59.5t40 105.5t15.5 156.5q0 88 -15.5 151.5t-40 103.5t-57 58.5t-65.5 18.5q-31 0 -60.5 -18.5t-54 -58.5t-39 -103.5t-14.5 -151.5z" />
<glyph unicode="1" horiz-adv-x="759" d="M102 852v96l234 246h321v-1192h-327v850h-228z" />
<glyph unicode="2" horiz-adv-x="1054" d="M102 735v135q0 76 38 141.5t98.5 114t136.5 75t151 26.5q168 0 270.5 -77t137.5 -187.5t1 -232.5t-136 -212l-277 -242h396v-274h-809v238l479 426q47 41 61.5 90t3 90t-44.5 68.5t-82 27.5q-76 -2 -127 -49t-45 -158h-252z" />
<glyph unicode="3" horiz-adv-x="966" d="M102 0v270h326q20 0 45 2t47.5 14.5t38.5 40t16 76.5q0 57 -11 91t-30.5 50.5t-43 21.5t-44.5 5h-225v33l178 305h-290v277h694v-41l-228 -379q76 -2 130.5 -27.5t90 -69.5t52 -104.5t16.5 -132.5q0 -74 -23.5 -149.5t-69.5 -139t-112.5 -103.5t-150.5 -40h-406z" />
<glyph unicode="4" horiz-adv-x="1075" d="M102 254v358l328 574h287v-29l-344 -629h209v205h284v-205h107v-274h-107v-252h-286v252h-478z" />
<glyph unicode="5" horiz-adv-x="962" d="M102 0v274h322q16 0 37.5 2.5t41 12.5t34 34.5t16.5 67.5q2 39 -11.5 62.5t-34 36t-44 16.5t-39.5 4h-322l86 676h586v-275h-348l-14 -147h155q72 0 126.5 -31t91 -82t56 -116.5t19.5 -133.5q0 -70 -19.5 -141.5t-59.5 -128.5t-98 -94t-136 -37h-445z" />
<glyph unicode="6" horiz-adv-x="1071" d="M102 406q0 98 29 205.5t88 217.5l207 357h301l-270 -481q88 39 178 32.5t163.5 -48.5t121 -115.5t47.5 -170.5q0 -78 -20.5 -153.5t-68 -136t-126 -99.5t-195.5 -43q-100 -4 -184 25t-143.5 85t-93.5 138.5t-34 186.5zM420 297q29 -70 137 -70q47 2 74.5 17.5t40 39 t14.5 52.5t0 59q-4 43 -30.5 71t-65.5 38t-83 2t-81 -35q-35 -104 -6 -174z" />
<glyph unicode="7" horiz-adv-x="944" d="M102 911v275h740v-238l-338 -946h-293l317 909h-426z" />
<glyph unicode="8" horiz-adv-x="1007" d="M104 322q2 39 14.5 84t36 87t60.5 78.5t88 59.5q-86 37 -124 98.5t-38 132.5q0 184 111 277q96 84 254 84q188 0 282.5 -86t88.5 -260q-4 -80 -46.5 -144.5t-109.5 -95.5q37 -16 69.5 -43t58 -62.5t41 -80.5t15.5 -101q0 -406 -399 -405q-201 0 -306.5 97.5t-95.5 279.5z M358 324q4 -63 31 -98.5t111 -39.5q92 -2 128 27t38 111t-42 121.5t-116 37.5t-113 -42.5t-37 -116.5zM379 846q0 -53 38 -75.5t87 -39.5q25 -6 48 2t40.5 25.5t29 40t11.5 47.5q0 125 -127 125t-127 -125z" />
<glyph unicode="9" horiz-adv-x="1071" d="M104 793q0 78 20.5 153.5t68 136t126 99.5t195.5 43q100 2 184 -26t143.5 -84t93.5 -138t34 -186q0 -98 -24.5 -214t-92.5 -221l-227 -356h-301l290 481q-88 -39 -178 -31.5t-163.5 52.5t-121 120t-47.5 171zM385 801q2 -43 28.5 -71t65.5 -38t86 -2t94 35 q35 104 0.5 174t-145.5 70q-47 0 -74.5 -15.5t-40 -39t-14.5 -53t0 -60.5z" />
<glyph unicode=":" horiz-adv-x="462" d="M102 45v176q0 20 11.5 34.5t33.5 14.5h168q23 0 34 -14t11 -35v-176q0 -49 -45 -49h-168q-45 0 -45 49zM102 721v176q0 20 11.5 34.5t33.5 14.5h168q23 0 34 -14t11 -35v-176q0 -49 -45 -49h-168q-45 0 -45 49z" />
<glyph unicode=";" horiz-adv-x="591" d="M102 -203l117 412q8 45 31 45h207q33 0 32 -27q0 -18 -79 -192q-8 -20 -16.5 -39t-18.5 -37l-64 -139q-25 -53 -90 -53q-10 0 -29.5 2t-39 6t-35 9t-15.5 13zM229 721v176q0 20 11.5 34.5t33.5 14.5h168q23 0 34 -14t11 -35v-176q0 -49 -45 -49h-168q-45 0 -45 49z" />
<glyph unicode="&#x3c;" horiz-adv-x="899" d="M102 586q0 29 27 55l430 440q10 12 19.5 14.5t15.5 2.5t35.5 -3t64.5 -8.5t63.5 -14.5t33.5 -21q10 -35 -1.5 -54.5t-27.5 -35.5q-92 -98 -179 -188.5t-180 -186.5q90 -96 178.5 -189.5t178.5 -187.5q16 -16 28.5 -39t2.5 -51q-4 -12 -33 -21.5t-62.5 -15.5t-62.5 -9 t-33 -3q-20 0 -43 22l-428 436q-12 12 -19.5 26t-7.5 32z" />
<glyph unicode="=" horiz-adv-x="770" d="M102 166v242h566v-242h-566zM102 596v252h566v-252h-566z" />
<glyph unicode="&#x3e;" horiz-adv-x="899" d="M109 119q-10 29 2 51.5t28 38.5q90 94 178.5 187t178.5 190q-92 96 -179.5 186t-179.5 189q-16 16 -27.5 35.5t-0.5 54.5q4 12 32.5 21t63.5 14.5t64.5 8.5t35.5 3t15.5 -2t19.5 -15l430 -440q27 -27 27 -55q0 -18 -7.5 -31.5t-19.5 -26.5l-428 -436q-10 -10 -21.5 -16 t-21.5 -6q-4 0 -32.5 3t-62.5 9t-62.5 15.5t-32.5 21.5z" />
<glyph unicode="?" horiz-adv-x="897" d="M102 1128v146q0 18 9.5 30.5t27.5 22.5q49 25 106.5 35t119.5 10q78 0 154.5 -22.5t138 -66.5t99.5 -107.5t38 -145.5q0 -72 -32 -133t-89 -121l-166 -153q-31 -33 -43 -63t-12 -60v-54q0 -29 -15.5 -43t-38.5 -14h-153q-53 0 -53 51v99q14 45 23 70.5t17.5 41t16.5 25.5 t20 22l43 43l193 168q20 23 29.5 44.5t9.5 39.5q0 49 -45 84t-101 43q-55 4 -101 -1t-99 -17q-10 -4 -25.5 -4t-26.5 -4q-20 -4 -32.5 2.5t-12.5 31.5zM190 57v146q0 27 14.5 43t43.5 16h139q29 0 43 -16.5t14 -42.5v-146q0 -59 -57 -59h-139q-58 0 -58 59z" />
<glyph unicode="@" horiz-adv-x="1529" d="M29 432q0 131 82 281q102 193 307 317q205 129 418 129q285 0 448 -166q166 -164 166 -448q0 -104 -70 -242q-72 -139 -151 -190q-63 -39 -168 -39q-145 0 -180 139q-104 -141 -242 -141q-213 0 -213 266q0 109 68 231q63 117 159 185q76 57 142 57q82 0 116 -18 q45 -20 78 -88l23 83h149l-141 -538q-2 -10 -2 -19.5t-2 -17.5q0 -66 88 -66q94 0 172 111q111 160 110 299q0 233 -145 385q-143 150 -383 150q-186 0 -350 -109t-246 -274q-68 -141 -67 -336q0 -184 90 -324q94 -147 260 -211q98 -37 188 -37q156 0 246 19q127 25 225 94 l31 -47q-186 -137 -485 -137q-250 0 -471 184q-250 209 -250 518zM584 311q0 -168 96 -168q80 0 147 82q55 72 80 158q45 160 45 211q0 53 -20 92q-27 51 -72 51q-86 0 -180 -123q-96 -127 -96 -303z" />
<glyph unicode="A" horiz-adv-x="1394" d="M37 0v49h184l463 1290h37l463 -1290h186v-49h-637v49h213l-129 357h-411l-127 -357h245v-49h-487zM424 455h375l-189 518z" />
<glyph unicode="B" horiz-adv-x="1261" d="M51 0v49h182v1223h-182v49h625q164 0 291 -72q150 -82 149 -239q0 -225 -285 -293q133 -31 232 -121q100 -100 100 -236q0 -186 -149 -280q-123 -80 -322 -80h-641zM457 49h219q141 0 200.5 72t59.5 215v47q0 305 -260 305h-219v-639zM457 737h219q121 0 174 68 q45 57 45 188v33q0 246 -219 246h-219v-535z" />
<glyph unicode="C" horiz-adv-x="1292" d="M72 662q0 272 192 477q193 205 465 204q195 0 332 -100l76 72q20 18 34 18q25 0 25 -39v-315q0 -33 -18 -33q-14 0 -21 17l-4 10q-127 317 -424 317q-379 0 -379 -524v-217q0 -532 369 -533q285 0 457 369q12 27 28 27q20 0 21 -29v-375q0 -23 -23 -22q-12 0 -24 12 l-107 106q-145 -141 -352 -141q-264 0 -459 219q-188 214 -188 480z" />
<glyph unicode="D" horiz-adv-x="1396" d="M57 0v49h187v1223h-187v49h633q293 0 479 -174q190 -182 191 -471q0 -303 -182 -492q-182 -184 -488 -184h-633zM467 49h219q422 0 422 578v98q0 240 -90 379q-106 168 -332 168h-219v-1223z" />
<glyph unicode="E" horiz-adv-x="1210" d="M59 1272v49h953q63 0 63 -55v-295q0 -35 -24 -35q-25 0 -27 37q-6 111 -57 192q-63 106 -191 107h-311v-551h158q78 0 110 51q8 12 18.5 42t20.5 77q10 35 25 35q23 0 22 -33v-393q0 -35 -22 -35q-14 0 -37 72q-8 23 -14.5 45t-14.5 45q-31 45 -108 45h-158v-623h330 q133 0 196 88q47 70 84 234q10 47 33 47q25 0 25 -56v-290q0 -72 -70 -72h-1000v49h179v1223h-183z" />
<glyph unicode="F" horiz-adv-x="1155" d="M70 1272v49h952q61 0 61 -55v-295q0 -35 -24 -35q-25 0 -27 37q-6 111 -57 192q-63 106 -191 107h-311v-551h158q78 0 110 51q8 12 18.5 42t20.5 77q10 35 25 35q23 0 22 -33v-393q0 -35 -22 -35q-14 0 -37 72q-8 23 -14 45t-15 45q-31 45 -108 45h-158v-623h182v-49 h-581v49h176v1223h-180z" />
<glyph unicode="G" horiz-adv-x="1411" d="M68 653q0 276 190 484q190 207 465 206q205 0 336 -106l84 78q20 18 37 18q27 0 26 -30v-367q0 -27 -22 -27q-20 0 -29 25q-123 356 -432 356q-207 0 -301 -162q-78 -133 -78 -352v-237q0 -223 76 -355q94 -168 301 -168q266 0 266 254v174h-227v50h645v-50h-182v-57 q0 -213 -152 -324q-131 -100 -354 -100q-266 0 -461 213q-188 207 -188 477z" />
<glyph unicode="H" horiz-adv-x="1445" d="M59 0v49h183v1223h-183v49h588v-49h-182v-545h541v545h-183v49h586v-49h-180v-1223h180v-49h-586v49h183v627h-541v-627h182v-49h-588z" />
<glyph unicode="I" horiz-adv-x="749" d="M82 0v49h180v1223h-180v49h586v-49h-183v-1223h183v-49h-586z" />
<glyph unicode="J" horiz-adv-x="780" d="M16 -16q0 111 105 110q43 0 70.5 -26.5t27.5 -69.5q0 -94 -88 -107q43 -37 113 -36q84 0 112 53q23 41 23 133v1231h-195v49h576v-49h-158v-1157q0 -313 -344 -314q-80 0 -158 47q-84 56 -84 136z" />
<glyph unicode="K" horiz-adv-x="1417" d="M63 0v49h168v1223h-168v49h560v-49h-168v-1223h168v-49h-560zM449 723l595 549h-167v49h434v-49h-185l-485 -447l590 -776h172v-49h-615v49h175z" />
<glyph unicode="L" horiz-adv-x="1263" d="M53 0v49h183v1223h-183v49h606v-49h-200v-1223h424q131 0 194 88q47 70 84 234q10 47 33 47q27 0 27 -56v-290q0 -72 -72 -72h-1096z" />
<glyph unicode="M" horiz-adv-x="1681" d="M63 0v49h168v1223h-168v49h406l381 -979l369 979h405v-49h-168v-1223h168v-49h-559v49h168v1157l-455 -1206h-41l-454 1198v-1149h170v-49h-390z" />
<glyph unicode="N" horiz-adv-x="1386" d="M47 0v49h182v1223h-182v49h430l641 -963v914h-182v49h416v-49h-183v-1288h-86l-802 1210v-1145h182v-49h-416z" />
<glyph unicode="O" horiz-adv-x="1458" d="M76 655q0 274 194 482q195 207 467 206q272 0 467 -206q197 -207 197 -482q0 -274 -197 -483q-195 -209 -467 -209q-268 0 -469 213q-192 205 -192 479zM352 557q0 -541 385 -541q387 0 387 541v195q0 252 -67 374q-92 164 -320 164q-223 0 -315 -166q-70 -125 -70 -372 v-195z" />
<glyph unicode="P" horiz-adv-x="1142" d="M51 0v49h182v1223h-182v49h594q186 0 309 -86q139 -96 140 -274q0 -172 -131 -273q-119 -88 -297 -88h-209v-551h180v-49h-586zM457 649h209q221 0 221 277v69q0 276 -242 277h-188v-623z" />
<glyph unicode="Q" horiz-adv-x="1435" d="M76 653q0 274 194 482q193 209 467 208q272 0 467 -208q197 -207 197 -482q0 -238 -150 -430q-150 -197 -372 -248v-34q0 -344 327 -344q29 0 29 -23q0 -20 -29 -20q-293 0 -418 61q-164 80 -186 317l-4 43q-225 53 -375 248q-147 197 -147 430zM352 555q0 -543 385 -543 q387 0 387 543v195q0 250 -67 376q-90 164 -320 164q-223 0 -315 -168q-70 -125 -70 -372v-195z" />
<glyph unicode="R" horiz-adv-x="1325" d="M57 0v49h183v1223h-183v49h605q176 0 301 -76q150 -88 149 -254q0 -244 -307 -311q197 -53 258 -166q41 -78 47 -291q4 -102 12 -127q14 -43 76 -43q51 0 90 27q16 4 19 4q14 0 14 -14q0 -33 -98 -64q-78 -23 -142 -22q-104 0 -153 55t-60 160q-2 29 -5 80t-9 122 q-29 264 -225 265h-166v-617h182v-49h-588zM463 715h199q231 0 231 241v70q0 246 -231 246h-199v-557z" />
<glyph unicode="S" horiz-adv-x="1142" d="M109 8v348q0 35 24 35q23 0 33 -31q39 -152 160 -247q121 -96 274 -97q131 0 234 78q104 86 104 217q0 137 -117 191q-43 18 -89 34.5t-95 30.5q-154 45 -209 62q-289 88 -289 327q0 180 137 287q125 100 310 100q152 0 303 -77l55 65q14 20 31 21q23 0 22 -29v-346 q0 -29 -24 -29q-27 0 -29 27q-20 147 -114.5 231t-243.5 84q-119 0 -203 -53q-98 -66 -98 -176q0 -129 127 -176q27 -10 119 -36t257 -71q285 -76 285 -358q0 -199 -141 -328t-344 -129q-188 0 -346 127l-70 -92q-18 -25 -35 -25q-28 0 -28 35z" />
<glyph unicode="T" horiz-adv-x="1306" d="M55 932l33 348q4 41 51 41h1041q47 0 51 -41l33 -348h-64q-20 129 -74 219q-74 121 -184 121h-172v-1223h182v-49h-585v49h180v1223h-172q-111 0 -185 -121q-53 -90 -73 -219h-62z" />
<glyph unicode="U" horiz-adv-x="1345" d="M37 1272v49h586v-49h-181v-940q0 -150 81 -233t229 -83q147 0 239 84t92 232v940h-182v49h416v-49h-180v-940q0 -188 -127 -285q-115 -84 -308 -84q-205 0 -329 82q-154 94 -154 287v940h-182z" />
<glyph unicode="V" horiz-adv-x="1333" d="M14 1272v49h588v-49h-186l358 -967l338 967h-178v49h395v-49h-153l-453 -1292h-49l-475 1292h-185z" />
<glyph unicode="W" horiz-adv-x="1896" d="M47 1272v49h1346v-49h-131l-172 -449l200 -534l377 983h-176v49h383v-49h-148l-493 -1292h-41l-229 587l-224 -587h-41l-491 1292h-160zM426 1272l373 -979l135 352l-236 627h-272zM918 1272l143 -373l143 373h-286z" />
<glyph unicode="X" horiz-adv-x="1445" d="M45 0v49h188l398 584l-395 639h-187v49h625v-49h-185l279 -451l303 451h-197v49h461v-49h-192l-340 -504l442 -719h166v-49h-584v49h164l-327 531l-361 -531h203v-49h-461z" />
<glyph unicode="Y" horiz-adv-x="1396" d="M57 1272v49h609v-49h-187l336 -520l311 520h-196v49h448v-49h-174l-344 -576v-647h201v-49h-627v49h203v598l-406 625h-174z" />
<glyph unicode="Z" horiz-adv-x="1073" d="M63 0v61l721 1211h-391q-262 0 -272 -305h-47v354h940v-57l-729 -1215h387q162 0 235 101q61 86 70 258h51v-408h-965z" />
<glyph unicode="[" horiz-adv-x="679" d="M102 -160v1497h476v-147h-201v-1200h201v-150h-476z" />
<glyph unicode="\" horiz-adv-x="915" d="M102 0l406 1186h305l-414 -1186h-297z" />
<glyph unicode="]" horiz-adv-x="679" d="M102 -10h201v1200h-201v147h476v-1497h-476v150z" />
<glyph unicode="^" horiz-adv-x="919" d="M29 502l331 686h125l332 -686h-127l-268 553l-268 -553h-125z" />
<glyph unicode="_" horiz-adv-x="827" d="M0 -127h827v-192h-827v192z" />
<glyph unicode="a" horiz-adv-x="933" d="M86 154q0 150 168 223q127 55 295 57v219q0 102 -131 103q-125 0 -125 -35l6 -6q4 -4 12 -10q29 -29 29 -62q0 -76 -88 -76q-86 0 -86 80q0 84 117 125q74 27 184 27q283 0 283 -183v-464q0 -111 49 -111q55 0 90 68q8 20 22 20q16 0 17 -18q0 -63 -76 -103 q-66 -35 -129 -35q-133 0 -162 97q-90 -96 -237 -97q-238 1 -238 181zM270 203q0 -162 125 -162q37 0 94 33q59 35 60 65v258q-66 -4 -113 -14t-76 -25q-90 -46 -90 -155z" />
<glyph unicode="b" horiz-adv-x="1093" d="M57 0v49h162v1223h-162v49h361v-612q86 96 221 96q158 0 281 -127q125 -125 124 -285q0 -156 -120 -289q-121 -129 -279 -129q-133 0 -227 107v-82h-361zM418 170q86 -145 221 -145q168 0 168 325v88q0 137 -23 209q-41 109 -153 109q-127 0 -213 -135v-451z" />
<glyph unicode="c" horiz-adv-x="864" d="M59 383q0 176 134 297q131 119 313 119q96 0 180 -39q109 -47 109 -129q0 -90 -103 -90q-100 0 -100 86q0 33 18.5 62.5t18.5 31.5q0 12 -58 20q-23 4 -41 6.5t-28 2.5q-129 0 -174 -105q-29 -74 -29 -219v-84q0 -164 25 -221q43 -100 178 -101q98 0 177 51.5t109 143.5 q8 25 29 25q25 0 25 -25q0 -6 -2 -10l-2 -8q-18 -76 -101 -144q-96 -80 -241 -80q-178 0 -303 117q-134 121 -134 293z" />
<glyph unicode="d" horiz-adv-x="1093" d="M66 391q0 160 124 285q125 129 281 129q139 0 219 -88v555h-160v49h361v-1272h160v-49h-361v84q-96 -111 -225 -111q-152 0 -277 131q-122 131 -122 287zM303 344q0 -135 23 -207q37 -115 147 -114q121 0 217 145v448q-86 139 -211 140q-113 0 -153 -109 q-23 -68 -23 -207v-96z" />
<glyph unicode="e" horiz-adv-x="915" d="M57 379q0 164 121 291q123 129 285 129q180 0 289 -129q86 -104 86 -198q0 -29 -43 -30h-498v-188q0 -233 178 -234q223 0 324 218q12 25 28 24q20 0 21 -22q0 -16 -6 -31q-94 -236 -371 -236q-174 0 -293 119q-121 121 -121 287zM297 492h303q20 0 21 79q0 178 -156 179 q-168 0 -168 -191v-67z" />
<glyph unicode="f" horiz-adv-x="720" d="M41 0v49h158v680h-156v49h156v74q0 221 43 313q80 170 254 170q72 0 129 -32q72 -41 71 -105q0 -78 -75 -78q-82 0 -82 74q0 47 47 70q0 23 -86 22q-100 0 -101 -137v-371h170v-49h-170v-680h158v-49h-516z" />
<glyph unicode="g" horiz-adv-x="899" d="M63 -295q0 141 160 207q-156 39 -155 188q0 131 165 185q-158 84 -157 237q0 111 90 191q98 86 258 86q143 0 215 -49q80 80 160 79q88 0 88 -69q0 -66 -72 -66q-78 0 -78 64q0 10 2 14q-14 -8 -29.5 -21.5t-31.5 -29.5q94 -82 94 -199q0 -100 -76 -176 q-98 -102 -272 -102q-78 0 -121 14q-164 -41 -164 -123q0 -74 125 -74h340q264 0 264 -245q0 -166 -131 -254q-117 -80 -286 -80q-388 0 -388 223zM182 -258q0 -211 277 -211q115 0 203 45q111 55 110 160q0 78 -60.5 123t-142.5 45h-268q-47 0 -84 -56q-35 -59 -35 -106z M285 487q0 -86 22 -135q35 -59 117 -59t117 59q23 49 22 135v66q0 90 -22 139q-31 57 -117 58q-86 0 -117 -58q-23 -49 -22 -139v-66z" />
<glyph unicode="h" horiz-adv-x="1136" d="M53 0v49h150v1223h-150v49h348v-655q98 139 304 139q252 0 251 -187v-569h148v-49h-494v49h146v547q0 141 -117 141q-84 0 -160 -67q-78 -66 -78 -146v-475h148v-49h-496z" />
<glyph unicode="i" horiz-adv-x="620" d="M68 0v49h157v680h-157v49h356v-729h160v-49h-516zM205 1126q0 47 34.5 79t84.5 32q49 0 83.5 -31.5t34.5 -79.5q0 -47 -35.5 -77.5t-82.5 -30.5t-83 30.5t-36 77.5z" />
<glyph unicode="j" horiz-adv-x="577" d="M-43 -383q0 43 28.5 71.5t71.5 28.5q41 0 69 -26.5t28 -67.5q0 -59 -45 -86q16 -4 32 -4q55 0 87 37t32 94v1063h-170v49h371v-833q0 -184 -66 -305q-84 -154 -252 -154q-72 0 -123 33q-63 37 -63 100zM229 1126q0 47 35 79t84 32t84 -31.5t35 -79.5q0 -47 -35 -78.5 t-84 -31.5t-84 31.5t-35 78.5z" />
<glyph unicode="k" horiz-adv-x="1138" d="M55 0v49h170v1223h-170v49h369v-858h47l293 266h-166v49h414v-49h-172l-238 -219l371 -461h151v-49h-528v49h139l-278 365h-33v-365h149v-49h-518z" />
<glyph unicode="l" horiz-adv-x="602" d="M66 0v49h147v1223h-147v49h346v-1272h147v-49h-493z" />
<glyph unicode="m" horiz-adv-x="1607" d="M59 0v49h138v674h-138v49h338v-125q100 141 308 141q178 0 206 -145q98 145 310 145q211 0 211 -180v-559h137v-49h-471v49h133v539q0 135 -98 135q-80 0 -150 -70q-70 -68 -70 -145v-459h138v-49h-473v49h137v539q0 53 -10 84q-20 51 -91 51q-66 0 -141 -68 q-76 -63 -76 -131v-475h135v-49h-473z" />
<glyph unicode="n" horiz-adv-x="1120" d="M68 0v49h147v674h-147v47h346v-123q98 139 288 139q231 0 232 -186v-551h147v-49h-495v49h147v539q0 135 -108 135q-72 0 -142 -68t-69 -139v-467h147v-49h-493z" />
<glyph unicode="o" horiz-adv-x="942" d="M51 385q0 164 131 289t297 125q170 0 295 -125q129 -127 129 -289q0 -164 -129 -289q-129 -123 -295 -123t-297 123q-131 125 -131 289zM289 344q0 -156 22 -219q39 -104 168 -105q129 0 166 107q20 49 21 217v84q0 152 -23 215q-39 106 -164 107q-127 0 -166 -107 q-25 -61 -24 -215v-84z" />
<glyph unicode="p" horiz-adv-x="1054" d="M45 -477h137v1198h-137v51h338v-84q94 111 225 111q160 0 281 -129q123 -127 123 -287q0 -166 -123 -291q-121 -127 -285 -127q-139 0 -221 94v-536h137v-49h-475v49zM383 186q0 -66 78 -118q70 -49 139 -50q117 0 154 111q20 55 20 213v88q0 133 -22 205 q-37 115 -146 115q-76 0 -145 -56q-78 -59 -78 -131v-377z" />
<glyph unicode="q" horiz-adv-x="1073" d="M70 383q0 156 123 283t280 127q141 0 229 -107v84h336v-49h-137v-1198h137v-49h-473v49h137v538q-90 -96 -225 -96q-160 0 -284 129q-123 129 -123 289zM307 289q0 -129 25 -187q39 -86 149 -86q45 0 85 15.5t71 42t48 63.5t17 80v328q0 76 -73 141q-70 63 -154 64 q-168 0 -168 -248v-213z" />
<glyph unicode="r" horiz-adv-x="843" d="M37 0v49h147v674h-147v49h348v-92q90 109 238 108q84 0 135 -32q66 -41 65 -115q0 -49 -32.5 -77.5t-81.5 -28.5t-83 26.5t-34 73.5q0 63 51 90q6 2 6 6q0 8 -49 8q-68 0 -141 -55q-74 -53 -74 -119v-516h147v-49h-495z" />
<glyph unicode="s" horiz-adv-x="751" d="M88 8v207q0 25 23 25q18 0 24 -25q55 -195 266 -195q80 0 138 33q74 39 73 113q0 86 -125 129q-16 2 -196 43q-188 41 -189 207q0 59 22.5 106t61.5 80t91.5 50.5t113.5 17.5q96 0 160 -51l41 38l6 5q8 8 16 8q14 0 15 -23v-207q0 -20 -17 -20q-20 0 -22 18 q-14 82 -69.5 132.5t-141.5 50.5q-63 0 -115 -31q-61 -35 -61 -92q0 -61 123 -99q45 -10 89 -19t89 -20q199 -57 198 -245q0 -129 -81.5 -200t-212.5 -71q-156 0 -238 76l-39 -51q-8 -14 -20 -14q-23 -1 -23 24z" />
<glyph unicode="t" horiz-adv-x="712" d="M39 727v49h143v217l201 92v-309h205v-49h-205v-518q0 -176 127 -176q111 0 133 133q4 29 29 29q20 0 20 -25q0 -16 -2 -20q-35 -176 -252 -177q-119 0 -187.5 61.5t-68.5 178.5v514h-143z" />
<glyph unicode="u" horiz-adv-x="1138" d="M47 723v47h348v-588q0 -68 17 -96q23 -35 90 -35q78 0 153 64q80 63 80 137v471h-147v47h348v-721h147v-49h-348v123q-109 -145 -317 -146q-223 0 -223 218v528h-148z" />
<glyph unicode="v" horiz-adv-x="1034" d="M43 723v47h498v-47h-144l211 -471l205 471h-145v47h331v-47h-129l-319 -731h-29l-338 731h-141z" />
<glyph unicode="w" horiz-adv-x="1368" d="M47 723v47h479v-47h-135l178 -447l174 494h29l215 -496l152 449h-172v47h372v-47h-147l-256 -746h-29l-215 494l-178 -494h-31l-295 746h-141z" />
<glyph unicode="x" horiz-adv-x="1060" d="M53 723v47h465v-47h-129l182 -240l195 240h-125v47h334v-47h-139l-232 -283l299 -391h131v-49h-495v49h149l-199 262l-215 -262h146v-49h-357v49h146l248 305l-281 369h-123z" />
<glyph unicode="y" horiz-adv-x="1067" d="M53 721v49h514v-49h-155l229 -496l207 496h-152v49h351v-49h-142l-432 -1036q-82 -199 -246 -199q-117 0 -116 92q0 80 84 80q61 0 90 -55q12 -23 24 -23q66 0 115 121l121 293l-348 727h-144z" />
<glyph unicode="z" horiz-adv-x="847" d="M100 0v53l463 670h-196q-162 0 -185 -201h-43v248h633v-57l-455 -664h230q188 0 205 221h43v-270h-695z" />
<glyph unicode="{" horiz-adv-x="753" d="M102 594q0 14 45 39q74 39 105 139q10 27 13 69t3 99q0 23 -1 53.5t-3 73.5q0 43 -1 75t-1 52q0 180 49 266q61 106 217 107h41q29 0 58.5 -1t54.5 -1h27l24 -6l-4 -3q-25 -10 -43 -18t-29 -16q-119 -82 -118 -316q-4 -102 1 -169.5t8 -118t0 -92.5t-20 -93 q-37 -98 -127 -139q92 -49 127 -139q2 10 4.5 -31t4.5 -103.5t2 -136.5v-130v-82q0 -26 0 8q0 -270 155 -338l35 -15q4 0 4 -2l-24 -4h-181q-156 0 -217 103q-49 86 -49 266q0 20 1 52t1 75q2 43 3 73.5t1 53.5q0 57 -3 99t-13 71q-27 94 -105 137q-45 27 -45 43z" />
<glyph unicode="|" horiz-adv-x="532" d="M102 -145v1443h328v-1443h-328z" />
<glyph unicode="}" horiz-adv-x="753" d="M20 -375q0 2 5 2l34 15q156 68 156 338q0 -31 0 -7v81v130q0 74 2 136.5t3 103.5t5 31q35 90 127 139q-90 41 -127 139q-16 51 -19 93t0 92.5t7 118t2 169.5q0 233 -119 316q-10 8 -28.5 16t-42.5 18l-5 3l25 6h27q25 0 54.5 1t57.5 1h41q156 0 217 -107q49 -86 50 -266 q0 -20 -1.5 -52t-1.5 -75q-2 -43 -3 -73.5t-1 -53.5q0 -57 3.5 -99t13.5 -69q31 -100 104 -139q45 -25 45 -39q0 -16 -45 -43q-78 -43 -104 -137q-10 -29 -13.5 -71t-3.5 -99q0 -23 1 -53.5t3 -73.5q0 -43 1.5 -75t1.5 -52q0 -180 -50 -266q-61 -102 -217 -103h-180z" />
<glyph unicode="~" horiz-adv-x="1003" d="M70 391v23q0 111 65.5 185.5t177.5 74.5q72 0 119 -25l246 -164q47 -29 72 -28q82 0 81 131h66q0 -113 -70 -201q-78 -96 -184 -96q-70 0 -131 43l-213 147q-39 27 -80 27q-82 0 -82 -117h-67z" />
<glyph unicode="&#xa1;" d="M-369 -256q0 35 25 59.5t61 24.5q37 0 61.5 -23.5t24.5 -60.5t-24.5 -61.5t-61.5 -24.5t-61.5 24.5t-24.5 61.5zM-221 -494q0 35 26.5 61.5t61.5 26.5q37 0 61.5 -25.5t24.5 -62.5t-24.5 -61.5t-61.5 -24.5t-62.5 24.5t-25.5 61.5zM-70 -256q0 35 25 59.5t61 24.5 q37 0 61.5 -24.5t24.5 -59.5q0 -37 -24.5 -61.5t-61.5 -24.5q-35 0 -60.5 25.5t-25.5 60.5zM195 -256q0 37 25.5 60.5t62.5 23.5q35 0 60.5 -24.5t25.5 -59.5q0 -37 -25 -61.5t-61 -24.5q-37 0 -62.5 24.5t-25.5 61.5zM195 -506q0 35 25.5 60.5t60.5 25.5q37 0 61.5 -24.5 t24.5 -61.5t-25 -61.5t-61 -24.5q-37 0 -61.5 24.5t-24.5 61.5z" />
<glyph unicode="&#x5b1;" d="M-369 -256q0 35 25 59.5t61 24.5q37 0 61.5 -23.5t24.5 -60.5t-24.5 -61.5t-61.5 -24.5t-61.5 24.5t-24.5 61.5zM-221 -494q0 35 26.5 61.5t61.5 26.5q37 0 61.5 -25.5t24.5 -62.5t-24.5 -61.5t-61.5 -24.5t-62.5 24.5t-25.5 61.5zM-70 -256q0 35 25 59.5t61 24.5 q37 0 61.5 -24.5t24.5 -59.5q0 -37 -24.5 -61.5t-61.5 -24.5q-35 0 -60.5 25.5t-25.5 60.5zM195 -256q0 37 25.5 60.5t62.5 23.5q35 0 60.5 -24.5t25.5 -59.5q0 -37 -25 -61.5t-61 -24.5q-37 0 -62.5 24.5t-25.5 61.5zM195 -506q0 35 25.5 60.5t60.5 25.5q37 0 61.5 -24.5 t24.5 -61.5t-25 -61.5t-61 -24.5q-37 0 -61.5 24.5t-24.5 61.5z" />
<glyph unicode="&#xa2;" horiz-adv-x="1024" d="M109 440q0 225 131 363q133 139 350 139q6 0 24.5 -3t49.5 -7l90 254h71l-96 -277q154 -53 154 -172q0 -37 -23.5 -64.5t-60.5 -27.5q-78 0 -123 107l-207 -596q70 -25 117 -25q102 0 180 59q57 47 125 146l27 -17q-154 -338 -396 -337q-41 0 -110 18l-101 -283h-69 l104 308q-237 120 -237 415zM266 532q0 -217 140 -331l235 661q-47 18 -98 19q-137 0 -211 -111q-66 -97 -66 -238z" />
<glyph unicode="&#xa3;" horiz-adv-x="1024" d="M25 109q0 78 57 120q51 37 133 37q16 0 38.5 -3t51.5 -7l6 35q0 39 -4 86t-12 104q-6 47 -12.5 95.5t-14.5 95.5h-221v92h219q-8 33 -11 67.5t-3 69.5q0 207 94 338q109 145 305 145q100 0 176 -45q90 -53 91 -145q0 -45 -28 -77t-73 -32q-70 0 -78 64l-10 117 q-20 63 -108 63q-102 0 -154 -92q-41 -78 -41 -186q0 -49 6 -121t17 -166h256v-92h-250q2 -20 2 -44v-53q0 -102 -49 -348q166 -72 307 -71q88 0 151 39q10 6 42 29.5t83 64.5l13 -10q0 -25 -25 -76q-98 -217 -324 -217q-117 0 -290 125q-109 -127 -203 -127q-59 0 -98 34 t-39 91zM78 115q0 -74 82 -74q47 0 89 35t42 82q0 16 -51 24q-23 4 -39.5 7.5t-26.5 3.5q-96 0 -96 -78z" />
<glyph unicode="&#xa5;" horiz-adv-x="770" d="M144.397 869.192q1.2002 23.3984 8.69922 50.3975q7.5 26.999 21.5996 52.1982t36.2988 47.0977q22.1982 21.8994 52.7979 35.6992q-51.5986 22.1982 -74.3975 59.0977q-22.7988 36.8984 -22.7988 79.4961q0 110.396 66.5967 166.193q57.5977 50.3984 152.395 50.3984 q112.795 0 169.493 -51.5986q56.6973 -51.5977 53.0977 -155.993q-2.40039 -47.998 -27.8994 -86.6963q-25.498 -38.6992 -65.6973 -57.2979q22.1992 -9.59961 41.6982 -25.7988q19.5 -16.1992 34.7988 -37.499q15.2998 -21.2988 24.5996 -48.2979 q9.29883 -26.999 9.29883 -60.5977q0 -243.59 -239.39 -242.99q-120.596 0 -183.893 58.498q-63.2979 58.4971 -57.2979 167.693zM296.791 870.393q2.40039 -37.7988 18.5996 -59.0977q16.1992 -21.2998 66.5977 -23.6992q55.1973 -1.2002 76.7969 16.1992 q21.5986 17.3994 22.7988 66.5977q1.19922 49.1973 -25.1992 72.8965t-69.5977 22.499q-43.1973 -1.2002 -67.7969 -25.499q-24.5986 -24.2988 -22.1992 -69.8965zM309.391 1183.58q0 -31.7988 22.7988 -45.2979q22.7998 -13.5 52.1982 -23.6992 q14.999 -3.59961 28.7988 1.2002t24.2988 15.2988q10.5 10.5 17.3994 23.999q6.89941 13.5 6.89941 28.499q0 74.9971 -76.1963 74.9971q-76.1973 0 -76.1973 -74.9971z" />
<glyph unicode="&#xb4;" horiz-adv-x="770" d="M144.397 869.192q1.2002 23.3984 8.69922 50.3975q7.5 26.999 21.5996 52.1982t36.2988 47.0977q22.1982 21.8994 52.7979 35.6992q-51.5986 22.1982 -74.3975 59.0977q-22.7988 36.8984 -22.7988 79.4961q0 110.396 66.5967 166.193q57.5977 50.3984 152.395 50.3984 q112.795 0 169.493 -51.5986q56.6973 -51.5977 53.0977 -155.993q-2.40039 -47.998 -27.8994 -86.6963q-25.498 -38.6992 -65.6973 -57.2979q22.1992 -9.59961 41.6982 -25.7988q19.5 -16.1992 34.7988 -37.499q15.2998 -21.2988 24.5996 -48.2979 q9.29883 -26.999 9.29883 -60.5977q0 -243.59 -239.39 -242.99q-120.596 0 -183.893 58.498q-63.2979 58.4971 -57.2979 167.693zM296.791 870.393q2.40039 -37.7988 18.5996 -59.0977q16.1992 -21.2998 66.5977 -23.6992q55.1973 -1.2002 76.7969 16.1992 q21.5986 17.3994 22.7988 66.5977q1.19922 49.1973 -25.1992 72.8965t-69.5977 22.499q-43.1973 -1.2002 -67.7969 -25.499q-24.5986 -24.2988 -22.1992 -69.8965zM309.391 1183.58q0 -31.7988 22.7988 -45.2979q22.7998 -13.5 52.1982 -23.6992 q14.999 -3.59961 28.7988 1.2002t24.2988 15.2988q10.5 10.5 17.3994 23.999q6.89941 13.5 6.89941 28.499q0 74.9971 -76.1963 74.9971q-76.1973 0 -76.1973 -74.9971z" />
<glyph unicode="&#xa8;" horiz-adv-x="825" d="M143.197 1035.99q0 93.5967 19.7998 164.094q19.7988 70.4971 54.8975 117.295t83.3965 70.1973q48.2979 23.3984 107.695 23.3984q77.3975 0 128.995 -32.6982q51.5977 -32.6992 83.3965 -86.0967t45.2979 -120.295q13.5 -66.8975 13.5 -135.895 q0 -94.7959 -20.0996 -165.293q-20.0986 -70.4971 -56.3975 -117.896t-86.0967 -70.7969q-49.7979 -23.3994 -108.596 -23.3994q-58.7969 0 -107.396 23.3994q-48.5977 23.3984 -83.6963 70.7969t-54.8975 117.896q-19.7998 70.4971 -19.7998 165.293zM308.19 1035.99 q0 -55.1982 8.7002 -93.8965q8.69922 -38.6982 23.3984 -63.2969q14.7002 -24.5996 32.3994 -35.6992q17.6992 -11.0986 36.2979 -11.0986q19.7998 0 39.2988 11.0986q19.499 11.0996 34.1982 35.6992q14.7002 24.5986 23.999 63.2969q9.2998 38.6982 9.2998 93.8965 q0 52.7979 -9.2998 90.8965q-9.29883 38.0986 -23.999 62.0977q-14.6992 23.999 -34.1982 35.0986t-39.2988 11.0996q-18.5986 0 -36.2979 -11.0996t-32.3994 -35.0986q-14.6992 -23.999 -23.3984 -62.0977q-8.7002 -38.0986 -8.7002 -90.8965z" />
<glyph unicode="&#xac;" horiz-adv-x="825" d="M143.197 1035.99q0 93.5967 19.7998 164.094q19.7988 70.4971 54.8975 117.295t83.3965 70.1973q48.2979 23.3984 107.695 23.3984q77.3975 0 128.995 -32.6982q51.5977 -32.6992 83.3965 -86.0967t45.2979 -120.295q13.5 -66.8975 13.5 -135.895 q0 -94.7959 -20.0996 -165.293q-20.0986 -70.4971 -56.3975 -117.896t-86.0967 -70.7969q-49.7979 -23.3994 -108.596 -23.3994q-58.7969 0 -107.396 23.3994q-48.5977 23.3984 -83.6963 70.7969t-54.8975 117.896q-19.7998 70.4971 -19.7998 165.293zM308.19 1035.99 q0 -55.1982 8.7002 -93.8965q8.69922 -38.6982 23.3984 -63.2969q14.7002 -24.5996 32.3994 -35.6992q17.6992 -11.0986 36.2979 -11.0986q19.7998 0 39.2988 11.0986q19.499 11.0996 34.1982 35.6992q14.7002 24.5986 23.999 63.2969q9.2998 38.6982 9.2998 93.8965 q0 52.7979 -9.2998 90.8965q-9.29883 38.0986 -23.999 62.0977q-14.6992 23.999 -34.1982 35.0986t-39.2988 11.0996q-18.5986 0 -36.2979 -11.0996t-32.3994 -35.0986q-14.6992 -23.999 -23.3984 -62.0977q-8.7002 -38.0986 -8.7002 -90.8965z" />
<glyph unicode="&#xa9;" horiz-adv-x="1556" d="M78 676q0 297 203 504q203 205 501 204q295 0 496 -206q201 -207 201 -502t-201 -502q-201 -203 -496 -203q-299 0 -501 203q-203 203 -203 502zM190 676q0 -248 170 -436q172 -182 422 -183q246 0 418 189q166 180 166 430q0 252 -164 434q-170 188 -420 188 q-254 0 -422 -184q-170 -188 -170 -438zM389 694q0 176 135 291q125 104 310 105q61 0 145 -19q109 -23 108 -61v-144h-34q-8 88 -64 133q-72 49 -162 50q-143 0 -217 -105q-63 -88 -63 -242q0 -373 293 -372q170 0 247 176h33l-33 -144q-10 -35 -118 -55q-90 -18 -150 -18 q-197 0 -305 96q-125 112 -125 309z" />
<glyph unicode="&#xaa;" horiz-adv-x="1048" d="M72 90q0 35 116 186l148 185q-262 348 -262 368q0 23 20 23q8 0 33 -25q150 -147 399 -362q-59 -51 -143 -129t-201 -189q-80 -80 -88 -79q-22 -1 -22 22zM502 90q0 35 116 186l148 185q-262 348 -262 368q0 23 20 23q8 0 33 -25q150 -147 399 -362q-59 -51 -143 -129 t-201 -189q-80 -80 -88 -79q-22 -1 -22 22z" />
<glyph unicode="&#xbb;" horiz-adv-x="1048" d="M72 90q0 35 116 186l148 185q-262 348 -262 368q0 23 20 23q8 0 33 -25q150 -147 399 -362q-59 -51 -143 -129t-201 -189q-80 -80 -88 -79q-22 -1 -22 22zM502 90q0 35 116 186l148 185q-262 348 -262 368q0 23 20 23q8 0 33 -25q150 -147 399 -362q-59 -51 -143 -129 t-201 -189q-80 -80 -88 -79q-22 -1 -22 22z" />
<glyph unicode="&#xab;" horiz-adv-x="1048" d="M68 465q209 180 399 362q27 25 33 25q20 0 20 -23q0 -20 -262 -368l148 -185q117 -152 116 -186q0 -23 -22 -22q-8 0 -54 45q-86 86 -180 173t-198 179zM498 465q209 180 399 362q27 25 33 25q20 0 20 -23q0 -20 -262 -368l148 -185q117 -152 116 -186q0 -23 -22 -22 q-8 0 -53 45q-86 86 -180.5 173t-198.5 179z" />
<glyph unicode="&#xad;" horiz-adv-x="1032" d="M102 483v211q0 41 35 41h758q35 0 35 -41v-211q0 -43 -35 -43h-758q-35 0 -35 43z" />
<glyph unicode="&#xae;" horiz-adv-x="798" d="M143.197 1116.98v80.9961q0 45.5986 22.7988 84.8965q22.7998 39.2988 59.0977 68.3975q36.2988 29.0986 81.8975 44.998q45.5977 15.8994 90.5957 15.8994q100.796 0 162.294 -46.1982q61.4971 -46.1982 82.4961 -112.495t0.600586 -139.494 q-20.3994 -73.1973 -81.5967 -127.195l-166.193 -145.193h237.59v-164.394h-485.38v142.794l287.388 255.59q28.1992 24.5986 36.8994 53.998q8.69922 29.3984 1.7998 53.9971q-6.90039 24.5996 -26.6992 41.0986t-49.1982 16.499q-45.5977 -1.2002 -76.1963 -29.3984 q-30.5996 -28.1992 -26.999 -94.7959h-151.194z" />
<glyph unicode="&#xaf;" horiz-adv-x="745" d="M143.197 676v161.993h195.592q12 0 26.999 1.2002q15 1.2002 28.499 8.69922q13.5 7.5 23.0996 23.999q9.59961 16.5 9.59961 45.8984q0 34.1982 -6.59961 54.5977q-6.60059 20.3994 -18.2998 30.2988t-25.7988 12.8994t-26.6992 3h-134.994v19.7988l106.796 182.993 h-173.993v166.193h416.383v-24.5996l-136.794 -227.391q45.5977 -1.2002 78.2969 -16.499q32.6982 -15.2998 53.9971 -41.6982q21.2998 -26.3994 31.1992 -62.6973q9.89941 -36.2988 9.89941 -79.4971q0 -44.3984 -14.0996 -89.6963t-41.6982 -83.3965t-67.4971 -62.0977 t-90.2969 -23.999h-243.59z" />
<glyph unicode="&#xbf;" d="M-86 -254q0 35 24.5 59.5t61.5 24.5t61.5 -23.5t24.5 -60.5t-24.5 -61.5t-61.5 -24.5t-61.5 24.5t-24.5 61.5zM-86 -506q0 35 25.5 60.5t60.5 25.5q37 0 61.5 -24.5t24.5 -61.5t-24.5 -61.5t-61.5 -24.5t-61.5 24.5t-24.5 61.5z" />
<glyph unicode="&#x5b0;" d="M-86 -254q0 35 24.5 59.5t61.5 24.5t61.5 -23.5t24.5 -60.5t-24.5 -61.5t-61.5 -24.5t-61.5 24.5t-24.5 61.5zM-86 -506q0 35 25.5 60.5t60.5 25.5q37 0 61.5 -24.5t24.5 -61.5t-24.5 -61.5t-61.5 -24.5t-61.5 24.5t-24.5 61.5z" />
<glyph unicode="&#xd7;" horiz-adv-x="1130" d="M154 111l299 299l-299 301l110 110l299 -299l301 299l111 -110l-299 -301l297 -297l-113 -111l-297 297l-299 -301z" />
<glyph unicode="&#x2122;" horiz-adv-x="1130" d="M154 111l299 299l-299 301l110 110l299 -299l301 299l111 -110l-299 -301l297 -297l-113 -111l-297 297l-299 -301z" />
<glyph unicode="&#x131;" horiz-adv-x="1202" d="M31 1190h340q20 -84 33.5 -155.5t37 -139.5t66.5 -139.5t123 -155.5q49 43 71.5 107.5t22.5 130.5v352h328v-287q0 -80 -15.5 -143.5t-50.5 -119.5t-93 -109.5t-144 -114.5v-807h-328v813q-76 68 -135.5 139.5t-106.5 159.5t-83.5 201.5t-65.5 267.5z" />
<glyph unicode="&#x5e5;" horiz-adv-x="1202" d="M31 1190h340q20 -84 33.5 -155.5t37 -139.5t66.5 -139.5t123 -155.5q49 43 71.5 107.5t22.5 130.5v352h328v-287q0 -80 -15.5 -143.5t-50.5 -119.5t-93 -109.5t-144 -114.5v-807h-328v813q-76 68 -135.5 139.5t-106.5 159.5t-83.5 201.5t-65.5 267.5z" />
<glyph unicode="&#x152;" horiz-adv-x="774" d="M68 938l77 236h551l-78 -236h-550z" />
<glyph unicode="&#x5be;" horiz-adv-x="774" d="M68 938l77 236h551l-78 -236h-550z" />
<glyph unicode="&#x153;" d="M-266 1384v111h532v-111h-532z" />
<glyph unicode="&#x5bf;" d="M-266 1384v111h532v-111h-532z" />
<glyph unicode="&#x192;" d="M-86 -256q0 35 24.5 59.5t61.5 24.5t61.5 -23.5t24.5 -60.5t-24.5 -61.5t-61.5 -24.5t-61.5 24.5t-24.5 61.5z" />
<glyph unicode="&#x5b4;" d="M-86 -256q0 35 24.5 59.5t61.5 24.5t61.5 -23.5t24.5 -60.5t-24.5 -61.5t-61.5 -24.5t-61.5 24.5t-24.5 61.5z" />
<glyph unicode="&#x2c6;" horiz-adv-x="1224" d="M37 1188h354q39 -80 71 -152.5t63.5 -142.5t67.5 -136.5t83 -133.5q14 31 26.5 55t20.5 52t12 63.5t4 91.5v303h328v-279q0 -131 -70.5 -240.5t-193.5 -189.5q20 -25 41.5 -52.5t46 -60t56.5 -75.5t75 -98v-193h-870v274h456q-90 100 -165.5 203t-143.5 213.5t-132 232.5 t-130 265z" />
<glyph unicode="&#x5e6;" horiz-adv-x="1224" d="M37 1188h354q39 -80 71 -152.5t63.5 -142.5t67.5 -136.5t83 -133.5q14 31 26.5 55t20.5 52t12 63.5t4 91.5v303h328v-279q0 -131 -70.5 -240.5t-193.5 -189.5q20 -25 41.5 -52.5t46 -60t56.5 -75.5t75 -98v-193h-870v274h456q-90 100 -165.5 203t-143.5 213.5t-132 232.5 t-130 265z" />
<glyph unicode="&#x2d8;" horiz-adv-x="1665" d="M115 539v651h327v-539q57 0 97.5 2t65 15.5t35.5 43t11 85.5v393h328v-451q0 -84 -35 -145.5t-102.5 -95t-167 -36.5t-230.5 32q0 -90 20.5 -139.5t63.5 -73t110 -28.5t163 -5q123 0 195.5 16.5t110.5 53t50 97t12 146.5v629h328v-651q0 -154 -47 -260.5t-137 -174 t-219 -100.5t-293 -35q-164 -4 -291 25t-215 96.5t-134 177t-46 271.5z" />
<glyph unicode="&#x5e9;" horiz-adv-x="1665" d="M115 539v651h327v-539q57 0 97.5 2t65 15.5t35.5 43t11 85.5v393h328v-451q0 -84 -35 -145.5t-102.5 -95t-167 -36.5t-230.5 32q0 -90 20.5 -139.5t63.5 -73t110 -28.5t163 -5q123 0 195.5 16.5t110.5 53t50 97t12 146.5v629h328v-651q0 -154 -47 -260.5t-137 -174 t-219 -100.5t-293 -35q-164 -4 -291 25t-215 96.5t-134 177t-46 271.5z" />
<glyph unicode="&#x2d9;" horiz-adv-x="1435" d="M63 2v270h125q45 0 52.5 11.5t7.5 56.5v315q0 186 82 226v30h-183v275h826q92 0 151.5 -14.5t94 -51.5t49 -98t14.5 -156v-864h-328v791q0 59 -16 88.5t-70 29.5h-235q-57 0 -58 -73v-686q0 -23 -8 -48.5t-22.5 -48t-35 -38t-42.5 -15.5h-404z" />
<glyph unicode="&#x5ea;" horiz-adv-x="1435" d="M63 2v270h125q45 0 52.5 11.5t7.5 56.5v315q0 186 82 226v30h-183v275h826q92 0 151.5 -14.5t94 -51.5t49 -98t14.5 -156v-864h-328v791q0 59 -16 88.5t-70 29.5h-235q-57 0 -58 -73v-686q0 -23 -8 -48.5t-22.5 -48t-35 -38t-42.5 -15.5h-404z" />
<glyph unicode="&#x2db;" horiz-adv-x="45" d="M-258 1604l137 137l31 -31l-82 -82h217v-1628h-45v1583h-176l86 -86l-31 -31z" />
<glyph unicode="&#x200f;" horiz-adv-x="45" d="M-258 1604l137 137l31 -31l-82 -82h217v-1628h-45v1583h-176l86 -86l-31 -31z" />
<glyph unicode="&#x2dc;" horiz-adv-x="1361" d="M119 911v275h794q147 0 225.5 -74t78.5 -215v-92q0 -102 -43.5 -183t-90.5 -151l-104 -154q-27 -39 -41 -78.5t-14 -111.5v-127h-322v117q0 66 23.5 122t54.5 97l129 201q41 53 71.5 103t30.5 103v54q0 68 -21.5 91t-84.5 23h-686zM135 -297v1008h328v-1008h-328z" />
<glyph unicode="&#x5e7;" horiz-adv-x="1361" d="M119 911v275h794q147 0 225.5 -74t78.5 -215v-92q0 -102 -43.5 -183t-90.5 -151l-104 -154q-27 -39 -41 -78.5t-14 -111.5v-127h-322v117q0 66 23.5 122t54.5 97l129 201q41 53 71.5 103t30.5 103v54q0 68 -21.5 91t-84.5 23h-686zM135 -297v1008h328v-1008h-328z" />
<glyph unicode="&#x2dd;" horiz-adv-x="45" d="M0 0v1628h217l-82 82l31 31l137 -137l-137 -138l-31 31l86 86h-176v-1583h-45z" />
<glyph unicode="&#x200e;" horiz-adv-x="45" d="M0 0v1628h217l-82 82l31 31l137 -137l-137 -138l-31 31l86 86h-176v-1583h-45z" />
<glyph unicode="&#x590;" horiz-adv-x="1536" d="M199 516v168h1136v-168h-1136zM489 -176q2 47 30 102.5t89 83.5q-51 23 -73.5 59.5t-22.5 77.5q0 113 66 166q61 51 153 52q229 0 223 -207q-4 -49 -28.5 -88t-65.5 -58q43 -20 77 -63t34 -109q0 -242 -240 -241q-123 0 -185.5 57t-56.5 168zM582 1376v166h444v-143 l-203 -565h-176l191 542h-256zM641 -174q4 -39 19.5 -59.5t66.5 -22.5q53 -2 75.5 15.5t24.5 66.5q0 47 -25.5 71.5t-70.5 22.5q-41 0 -66.5 -24.5t-23.5 -69.5zM653 139q0 -33 23.5 -46t52.5 -23q29 -6 53.5 16.5t24.5 52.5q0 74 -76 74q-78 0 -78 -74z" />
<glyph unicode="&#x591;" d="M-168 -471q0 131 131 164v125h74v-125q133 -35 133 -164v-131h-76v11q0 7 2 24v43q0 147 -86 147q-104 0 -104 -135v-47q2 -14 2 -25v-18h-76v131z" />
<glyph unicode="&#x592;" d="M-186 1444q0 33 20.5 53.5t52.5 20.5q33 0 54.5 -20.5t21.5 -53.5q0 -31 -21.5 -52.5t-54.5 -21.5t-53 20.5t-20 53.5zM-76 1632q0 31 22.5 53.5t53.5 22.5q33 0 54.5 -21.5t21.5 -54.5t-21.5 -54.5t-54.5 -21.5t-54.5 21.5t-21.5 54.5zM37 1444q0 33 21.5 53.5 t54.5 20.5t53 -20.5t20 -53.5q0 -31 -20.5 -52.5t-52.5 -21.5q-31 0 -53.5 21.5t-22.5 52.5z" />
<glyph unicode="&#x593;" d="M-119 1456l156 76l-156 72l156 75l-156 72l156 76h84l-158 -76l158 -72l-158 -75l158 -72l-158 -76l158 -74h-84z" />
<glyph unicode="&#x594;" d="M-76 1452q0 33 21.5 53.5t54.5 20.5t54.5 -20.5t21.5 -53.5q0 -31 -21.5 -52.5t-54.5 -21.5t-54.5 20.5t-21.5 53.5zM-76 1677q0 31 22.5 53.5t53.5 22.5q33 0 54.5 -21.5t21.5 -54.5t-21.5 -53t-54.5 -20t-54.5 20t-21.5 53z" />
<glyph unicode="&#x595;" d="M-113 1378v375h76v-375h-76zM37 1452q0 33 21.5 53.5t54.5 20.5q31 0 52 -21.5t21 -52.5t-20.5 -52.5t-52.5 -21.5q-31 0 -53.5 21.5t-22.5 52.5zM37 1677q0 31 22.5 53.5t53.5 22.5t52 -22.5t21 -53.5q0 -33 -20.5 -53t-52.5 -20q-31 0 -53.5 21t-22.5 52z" />
<glyph unicode="&#x596;" d="M-41 -219q0 6 1 15t3 20h76q-2 -10 -3 -24.5t-1 -37.5q0 -98 63 -149q55 -49 156 -49v-78q-295 0 -295 303z" />
<glyph unicode="&#x597;" d="M-121 1534l123 156l119 -156l-119 -154z" />
<glyph unicode="&#x598;" d="M-258 1530q0 53 38 92t91 39q66 0 109 -53q18 -27 36.5 -51.5t40.5 -53.5q27 -49 70 -49q33 0 53.5 21.5t20.5 54.5q0 47 -54 69l21 56q90 -43 90 -125q0 -55 -39 -93t-92 -38q-66 0 -109 53q-16 27 -33.5 50.5t-33.5 49.5q-39 51 -80 52q-33 0 -53.5 -20.5t-20.5 -53.5 q0 -53 53 -72l-20 -55q-88 39 -88 127z" />
<glyph unicode="&#x599;" d="M-104 1702l90 78q35 -41 61.5 -84t35.5 -95.5t-5.5 -116t-61.5 -143.5l-49 27q20 39 30.5 82t4.5 86t-30.5 85t-75.5 81z" />
<glyph unicode="&#x59a;" d="M-150 -305l199 194h123l-199 -194l199 -205h-121z" />
<glyph unicode="&#x59b;" d="M-66 -266q0 29 18.5 48t45.5 19q66 0 65 -67q0 -63 -65 -64q-27 0 -45.5 18.5t-18.5 45.5zM-66 -442q221 0 222 204l-6 56h75q2 -10 3 -27.5t1 -44.5q0 -133 -86 -207q-70 -59 -209 -59v78z" />
<glyph unicode="&#x59c;" d="M-96 1544q0 125 137 225l55 -51q-111 -80 -110 -172q0 -84 75 -166h-96q-61 76 -61 164z" />
<glyph unicode="&#x59d;" d="M-96 1544q0 125 137 225l55 -51q-111 -80 -110 -172q0 -84 75 -166h-96q-61 76 -61 164z" />
<glyph unicode="&#x59e;" d="M-197 1544q0 125 138 225l55 -51q-111 -84 -111 -172q0 -82 78 -166h-98q-62 76 -62 164zM27 1544q0 123 139 225l53 -51q-111 -80 -110 -172q0 -84 75 -166h-94q-63 76 -63 164z" />
<glyph unicode="&#x59f;" d="M-496 1655q0 80 53.5 134t133.5 54q82 0 135 -54t53 -134q0 -61 -37 -111l123 -123l-41 -41l-123 123q-45 -39 -110 -39q-82 0 -134.5 52.5t-52.5 138.5zM-432 1655q0 -53 36 -88t87 -35q53 0 89 35t36 88q0 51 -36 86t-89 35q-51 0 -87 -35t-36 -86zM35 1421l123 123 q-39 39 -39 111q0 80 54 134t136 54q37 0 71 -15.5t59.5 -41t41 -60t15.5 -71.5q0 -82 -53.5 -136.5t-133.5 -54.5q-72 0 -110 39l-123 -123zM184 1655q0 -53 36 -88t89 -35q51 0 85 35t34 88q0 47 -36 84t-83 37q-53 0 -89 -34t-36 -87z" />
<glyph unicode="&#x5a0;" d="M-55 1421l123 123q-37 43 -37 111q0 80 54 134t134 54q39 0 73 -15.5t59.5 -41t40 -60t14.5 -71.5q0 -82 -53.5 -136.5t-133.5 -54.5q-72 0 -110 39l-123 -123zM96 1655q0 -53 35 -88t88 -35t86 35t33 88q0 47 -36 84t-83 37q-53 0 -88 -34t-35 -87z" />
<glyph unicode="&#x5a1;" d="M-39 1380v357h74v-172q0 -10 39 -11q76 0 76 111v37q-2 16 -3 23v12h76v-82q0 -70 -35 -111q-37 -55 -98 -55q-29 0 -55 10v-119h-74z" />
<glyph unicode="&#x5a3;" d="M-184 -463h153v281h76v-357h-229v76z" />
<glyph unicode="&#x5a4;" d="M-193 -352l173 170h108l-174 -170l174 -178h-106z" />
<glyph unicode="&#x5a5;" d="M-248 -442q217 0 217 202l-4 58h78q6 -90 6 -101q0 -236 -297 -235v76z" />
<glyph unicode="&#x5a6;" d="M-221 -520q111 80 110 170q0 80 -75 168h96q63 -82 63 -164q0 -121 -139 -225zM6 -520q111 82 111 170q0 72 -78 168h98q61 -78 62 -164q0 -119 -138 -225z" />
<glyph unicode="&#x5a7;" d="M-125 -264l64 53l186 33v-74l-139 -24l139 -220l-64 -53l-186 -33v76l137 23z" />
<glyph unicode="&#x5a8;" d="M-97 1731.5q5 11.5 15 20.5t20.5 14.5t16.5 -1.5q37 -39 62.5 -84t33.5 -97t-4 -111.5t-49 -126.5q-4 -8 -16.5 -8.5t-23.5 6t-18.5 14.5t-2.5 18q20 45 35.5 85t16.5 79t-17.5 81t-67.5 93q-6 6 -1 17.5z" />
<glyph unicode="&#x5a9;" d="M-408 1655q0 80 53.5 134t133.5 54t133 -54t53 -134q0 -57 -35 -111l123 -123l-43 -41l-121 123q-45 -39 -110 -39q-82 0 -134.5 52.5t-52.5 138.5zM-344 1655q0 -53 35 -88t88 -35t88 35t35 88q0 51 -35 86t-88 35t-88 -35t-35 -86z" />
<glyph unicode="&#x5aa;" d="M-168 -182h76q0 -10 -2 -38t-2 -44q0 -141 88 -142q106 0 106 134q0 16 -2 44.5t-2 45.5h76v-129q0 -131 -133 -166v-123h-74v123q-59 16 -95 61t-36 105v129z" />
<glyph unicode="&#x5ab;" d="M-139 1561l174 168h106l-174 -168l174 -179h-106z" />
<glyph unicode="&#x5ac;" d="M-195 1382v74h156v281h74v-355h-230z" />
<glyph unicode="&#x5ad;" d="M-41 -217q0 6 1 15t3 20h76q-2 -10 -3 -24.5t-1 -37.5q0 -98 63 -149q55 -49 156 -49v-78q-295 0 -295 303z" />
<glyph unicode="&#x5ae;" d="M-258 1530q0 53 38 92t91 39q66 0 109 -53q18 -27 36.5 -51.5t40.5 -53.5q27 -49 70 -49q33 0 53.5 21.5t20.5 54.5q0 47 -54 69l21 56q90 -43 90 -125q0 -55 -39 -93t-92 -38q-66 0 -109 53q-16 27 -33.5 50.5t-33.5 49.5q-39 51 -80 52q-33 0 -53.5 -20.5t-20.5 -53.5 q0 -53 53 -72l-20 -55q-88 39 -88 127z" />
<glyph unicode="&#x5af;" d="M-213 1614q0 92 60.5 153.5t152.5 61.5t153.5 -61.5t61.5 -153.5q0 -47 -16.5 -86t-46 -67.5t-68.5 -45t-84 -16.5q-88 0 -152 63q-61 62 -61 152zM-156 1614q0 -66 45 -115t111 -49t112 49t46 115t-46 115t-112 49t-111 -49t-45 -115z" />
<glyph unicode="&#x5b2;" d="M-354 -190h387v-109h-387v109zM141 -256q0 37 26 60.5t62 23.5q35 0 60.5 -24.5t25.5 -59.5q0 -37 -24.5 -61.5t-61.5 -24.5t-62.5 24.5t-25.5 61.5zM143 -506q0 35 26 60.5t60 25.5q37 0 61.5 -24.5t24.5 -61.5t-24.5 -61.5t-61.5 -24.5t-61.5 24.5t-24.5 61.5z" />
<glyph unicode="&#x5b3;" d="M-354 -190h387v-109h-158l-6 -92q0 -23 27 -62q29 -41 28 -61q0 -37 -24.5 -61.5t-61.5 -24.5q-35 0 -59.5 24.5t-24.5 61.5q0 25 27 63q29 41 29 60l-7 92h-157v109zM141 -256q0 37 26 60.5t62 23.5q35 0 60.5 -24.5t25.5 -59.5q0 -37 -24.5 -61.5t-61.5 -24.5 t-62.5 24.5t-25.5 61.5zM143 -506q0 35 26 60.5t60 25.5q37 0 61.5 -24.5t24.5 -61.5t-24.5 -61.5t-61.5 -24.5t-61.5 24.5t-24.5 61.5z" />
<glyph unicode="&#x221a;" d="M-354 -190h387v-109h-158l-6 -92q0 -23 27 -62q29 -41 28 -61q0 -37 -24.5 -61.5t-61.5 -24.5q-35 0 -59.5 24.5t-24.5 61.5q0 25 27 63q29 41 29 60l-7 92h-157v109zM141 -256q0 37 26 60.5t62 23.5q35 0 60.5 -24.5t25.5 -59.5q0 -37 -24.5 -61.5t-61.5 -24.5 t-62.5 24.5t-25.5 61.5zM143 -506q0 35 26 60.5t60 25.5q37 0 61.5 -24.5t24.5 -61.5t-24.5 -61.5t-61.5 -24.5t-61.5 24.5t-24.5 61.5z" />
<glyph unicode="&#x5b5;" d="M-225 -256q0 35 24.5 59.5t61.5 24.5t61.5 -23.5t24.5 -60.5t-24.5 -61.5t-61.5 -24.5t-61.5 24.5t-24.5 61.5zM53 -256q0 35 24.5 59.5t61.5 24.5t61.5 -24.5t24.5 -59.5q0 -37 -24.5 -61.5t-61.5 -24.5q-35 0 -60.5 25.5t-25.5 60.5z" />
<glyph unicode="&#x2248;" d="M-225 -256q0 35 24.5 59.5t61.5 24.5t61.5 -23.5t24.5 -60.5t-24.5 -61.5t-61.5 -24.5t-61.5 24.5t-24.5 61.5zM53 -256q0 35 24.5 59.5t61.5 24.5t61.5 -24.5t24.5 -59.5q0 -37 -24.5 -61.5t-61.5 -24.5q-35 0 -60.5 25.5t-25.5 60.5z" />
<glyph unicode="&#x5b6;" d="M-236 -256q0 35 25 59.5t61 24.5q37 0 62 -23.5t25 -60.5t-25 -61.5t-62 -24.5t-61.5 24.5t-24.5 61.5zM-88 -494q0 35 26.5 61.5t61.5 26.5q37 0 61.5 -25.5t24.5 -62.5t-24.5 -61.5t-61.5 -24.5t-62.5 24.5t-25.5 61.5zM63 -256q0 35 25 59.5t62 24.5t61.5 -24.5 t24.5 -59.5q0 -37 -25 -61.5t-61 -24.5q-35 0 -61 25.5t-26 60.5z" />
<glyph unicode="&#x2206;" d="M-236 -256q0 35 25 59.5t61 24.5q37 0 62 -23.5t25 -60.5t-25 -61.5t-62 -24.5t-61.5 24.5t-24.5 61.5zM-88 -494q0 35 26.5 61.5t61.5 26.5q37 0 61.5 -25.5t24.5 -62.5t-24.5 -61.5t-61.5 -24.5t-62.5 24.5t-25.5 61.5zM63 -256q0 35 25 59.5t62 24.5t61.5 -24.5 t24.5 -59.5q0 -37 -25 -61.5t-61 -24.5q-35 0 -61 25.5t-26 60.5z" />
<glyph unicode="&#x5b7;" d="M-193 -190h388v-109h-388v109z" />
<glyph unicode="&#x5b8;" d="M-193 -190h388v-109h-158l-6 -92q0 -23 26 -62q29 -41 29 -61q0 -37 -24.5 -61.5t-61.5 -24.5q-35 0 -59.5 24.5t-24.5 61.5q0 25 27 63q29 41 28 60l-6 92h-158v109z" />
<glyph unicode="&#x5b9;" d="M-86 1411q0 35 25.5 60.5t60.5 25.5q37 0 61.5 -24.5t24.5 -61.5t-24.5 -61.5t-61.5 -24.5t-61.5 24.5t-24.5 61.5z" />
<glyph unicode="&#x2026;" d="M-86 1411q0 35 25.5 60.5t60.5 25.5q37 0 61.5 -24.5t24.5 -61.5t-24.5 -61.5t-61.5 -24.5t-61.5 24.5t-24.5 61.5z" />
<glyph unicode="&#x5bb;" d="M-86 -256q0 35 24.5 59.5t61.5 24.5t61.5 -24.5t24.5 -59.5q0 -37 -24.5 -61.5t-61.5 -24.5q-35 0 -60.5 25.5t-25.5 60.5zM66 -393q0 35 24.5 59.5t61.5 24.5t61.5 -23.5t24.5 -60.5t-25 -61.5t-61 -24.5q-37 0 -61.5 24.5t-24.5 61.5zM217 -537q0 35 26.5 61.5 t61.5 26.5q37 0 61.5 -25.5t24.5 -62.5t-24.5 -61.5t-61.5 -24.5t-62.5 24.5t-25.5 61.5z" />
<glyph unicode="&#x5bc;" d="M-84 590q0 35 24.5 59.5t59.5 24.5t59.5 -24.5t24.5 -59.5t-24.5 -59.5t-59.5 -24.5t-59.5 24.5t-24.5 59.5z" />
<glyph unicode="&#x5bd;" d="M-37 -182h74v-357h-74v357z" />
<glyph unicode="&#x5c0;" horiz-adv-x="497" d="M195 2v1184h110v-1184h-110z" />
<glyph unicode="&#x5c1;" d="M358 1411q0 35 26 60.5t60 25.5q37 0 61.5 -24.5t24.5 -61.5t-24.5 -61.5t-61.5 -24.5t-61.5 24.5t-24.5 61.5z" />
<glyph unicode="&#x5c2;" d="M-172 1411q0 35 25.5 60.5t60.5 25.5q37 0 61.5 -24.5t24.5 -61.5t-24.5 -61.5t-61.5 -24.5t-61.5 24.5t-24.5 61.5z" />
<glyph unicode="&#x5c3;" horiz-adv-x="462" d="M102 45v176q0 20 11.5 34.5t33.5 14.5h168q23 0 34 -14t11 -35v-176q0 -49 -45 -49h-168q-45 0 -45 49zM102 721v176q0 20 11.5 34.5t33.5 14.5h168q23 0 34 -14t11 -35v-176q0 -49 -45 -49h-168q-45 0 -45 49z" />
<glyph unicode="&#x5c4;" d="M-86 1411q0 35 25.5 60.5t60.5 25.5q37 0 61.5 -24.5t24.5 -61.5t-24.5 -61.5t-61.5 -24.5t-61.5 24.5t-24.5 61.5z" />
<glyph unicode="&#x5c7;" d="M-193 -184h388v-109h-158l-6 -266q0 -23 26 -62q29 -41 29 -61q0 -37 -24.5 -61.5t-61.5 -24.5q-35 0 -59.5 24.5t-24.5 61.5q0 25 27 64q29 41 28 59l-6 266h-158v109z" />
<glyph unicode="&#x5d0;" horiz-adv-x="1341" d="M78 1188h340l344 -518q14 8 25.5 22.5t19.5 47t11 92t3 155.5v201h328v-221q0 -152 -54.5 -266.5t-168.5 -229.5l325 -471h-352l-407 584q-14 -23 -25.5 -36t-20 -40t-12.5 -74t-4 -137v-297h-328v276q0 102 17.5 172t48.5 125.5t73 102.5t93 106z" />
<glyph unicode="&#x2021;" horiz-adv-x="1341" d="M78 1188h340l344 -518q14 8 25.5 22.5t19.5 47t11 92t3 155.5v201h328v-221q0 -152 -54.5 -266.5t-168.5 -229.5l325 -471h-352l-407 584q-14 -23 -25.5 -36t-20 -40t-12.5 -74t-4 -137v-297h-328v276q0 102 17.5 172t48.5 125.5t73 102.5t93 106z" />
<glyph unicode="&#x5d1;" horiz-adv-x="1099" d="M82 911v275h467q84 0 152.5 -20.5t115.5 -74t74 -147.5t29 -242q0 -80 -9.5 -136t-30 -103t-50 -91t-68.5 -98h199v-274h-859v274h299q92 0 138.5 54.5t46.5 173.5v237q0 88 -34 130t-120 42h-350z" />
<glyph unicode="&#x5d2;" horiz-adv-x="929" d="M72 -47v319q84 33 155.5 89.5t123.5 118t80 119.5t22 97v113q0 47 -19.5 74.5t-81.5 27.5h-237v275h370q137 0 214 -77t77 -267v-840h-301l-18 336l-64 -152q-20 -47 -43.5 -79.5t-59.5 -58t-88 -48t-130 -47.5z" />
<glyph unicode="&#x201a;" horiz-adv-x="929" d="M72 -47v319q84 33 155.5 89.5t123.5 118t80 119.5t22 97v113q0 47 -19.5 74.5t-81.5 27.5h-237v275h370q137 0 214 -77t77 -267v-840h-301l-18 336l-64 -152q-20 -47 -43.5 -79.5t-59.5 -58t-88 -48t-130 -47.5z" />
<glyph unicode="&#x5d3;" horiz-adv-x="1073" d="M35 911v279h895v-238q-106 -55 -143 -113.5t-37 -146.5v-692h-328v520q0 39 4 84t17.5 94.5t40 103.5t71.5 109h-520z" />
<glyph unicode="&#x201e;" horiz-adv-x="1073" d="M35 911v279h895v-238q-106 -55 -143 -113.5t-37 -146.5v-692h-328v520q0 39 4 84t17.5 94.5t40 103.5t71.5 109h-520z" />
<glyph unicode="&#x5d4;" horiz-adv-x="1275" d="M119 911v279h573q131 0 214 -28.5t131 -82t66.5 -133.5t18.5 -180v-766h-327v713q0 63 -7.5 102t-27 60.5t-53 28.5t-86.5 7h-502zM143 0v688h328v-688h-328z" />
<glyph unicode="&#x2030;" horiz-adv-x="1275" d="M119 911v279h573q131 0 214 -28.5t131 -82t66.5 -133.5t18.5 -180v-766h-327v713q0 63 -7.5 102t-27 60.5t-53 28.5t-86.5 7h-502zM143 0v688h328v-688h-328z" />
<glyph unicode="&#x5d5;" horiz-adv-x="659" d="M154 0v1186h327v-1186h-327z" />
<glyph unicode="&#x5d6;" horiz-adv-x="849" d="M78 911v279h629v-221q-49 -35 -85 -78t-59.5 -88t-35 -90t-11.5 -84v-629h-328v535q0 61 7.5 103t25 82t44 84t65.5 107h-252z" />
<glyph unicode="&#x5d7;" horiz-adv-x="1392" d="M86 911v275h737q109 0 188 -16.5t129 -60.5t74.5 -122t24.5 -203v-784h-328v709q0 59 -3 98t-19.5 62.5t-52 32.5t-101.5 9h-174q-29 0 -41 -21.5t-12 -58.5v-831h-328v655q0 186 80 226v30h-174z" />
<glyph unicode="&#x5d8;" horiz-adv-x="1427" d="M137 504v686h328v-660q0 -74 13.5 -129t45 -91t87 -52t139.5 -10q74 4 118.5 24.5t69.5 59.5t33 98t8 141v148q0 102 -38 147t-130 45h-127v277h197q100 0 179 -20.5t134 -69.5t84 -130t29 -202v-264q0 -119 -38 -217.5t-111 -169t-180.5 -109.5t-246.5 -37 q-145 2 -255.5 42t-186.5 111t-114 168t-38 214z" />
<glyph unicode="&#x5d9;" horiz-adv-x="595" d="M115 494v692h327v-692h-327z" />
<glyph unicode="&#x5da;" horiz-adv-x="1032" d="M33 911v275h471q168 0 271.5 -91t103.5 -276v-1206h-328v1120q0 86 -35 132t-125 46h-358z" />
<glyph unicode="&#x5db;" horiz-adv-x="1034" d="M82 911v279h500q84 0 147.5 -31t106.5 -100.5t64.5 -183t21.5 -279.5q0 -131 -18.5 -240.5t-64.5 -188.5t-123 -123t-192 -44h-418v274h328q92 0 118 50.5t26 152.5v258q0 88 -31 132t-119 44h-346z" />
<glyph unicode="&#x5dc;" horiz-adv-x="1060" d="M41 911v576h328v-297h272q133 0 202.5 -63.5t69.5 -168.5v-135q0 -51 -5 -90t-16 -72.5t-28.5 -64.5t-42.5 -68l-180 -235q-27 -39 -47.5 -79t-20.5 -112v-102h-313v98q0 66 24.5 133.5t55.5 108.5l174 215q39 53 60.5 103.5t21.5 103.5v76q0 45 -22.5 59t-88.5 14h-444z " />
<glyph unicode="&#x5dd;" horiz-adv-x="1349" d="M86 911v275h756q182 0 268 -110.5t86 -297.5v-778h-1051v655q0 184 80 226v30h-139zM473 274h395v457q0 92 -29.5 136t-99.5 44h-209q-57 0 -57 -73v-564z" />
<glyph unicode="&#x5de;" horiz-adv-x="1456" d="M82 1186h313l58 -271q41 150 126 211.5t212 61.5h174q94 0 158.5 -41t104.5 -102.5t57.5 -136t17.5 -142.5v-766h-596v274h268v412q0 57 -1 101t-17.5 73t-54.5 43.5t-109 14.5q-55 0 -95.5 -13.5t-68 -44.5t-45 -81t-25.5 -126l-76 -653h-323l82 606z" />
<glyph unicode="&#x5df;" horiz-adv-x="659" d="M154 -397v1583l327 4v-1587h-327z" />
<glyph unicode="&#x5e0;" horiz-adv-x="843" d="M72 0v274h290v535q0 68 -14 85t-57 17h-178v275h299q55 0 105 -20.5t89 -58.5t61.5 -93.5t22.5 -124.5v-889h-618z" />
<glyph unicode="&#xf8ff;" horiz-adv-x="843" d="M72 0v274h290v535q0 68 -14 85t-57 17h-178v275h299q55 0 105 -20.5t89 -58.5t61.5 -93.5t22.5 -124.5v-889h-618z" />
<glyph unicode="&#x5e1;" horiz-adv-x="1423" d="M100 911v279h785q133 0 213 -51.5t123 -135t56 -192.5t11 -223q-2 -137 -40 -248t-111.5 -190.5t-182 -122.5t-249.5 -45q-133 -2 -236.5 34.5t-176.5 107.5t-111 173t-38 233v86q0 70 37 152t88 143h-168zM477 545q0 -84 10.5 -141.5t38 -91t76.5 -47t125 -9.5 q123 6 176 67.5t53 221.5v200q0 82 -33.5 124t-123.5 42h-191q-131 0 -131 -166v-200z" />
<glyph unicode="&#x5e2;" horiz-adv-x="1292" d="M72 1186h342l159 -672l-10 -197l107 62q66 41 85 103.5t25 140.5l41 565h332l-49 -572q-6 -80 -22.5 -146.5t-56.5 -126.5t-109.5 -114.5t-180.5 -109.5l-545 -299l-100 250l254 155z" />
<glyph unicode="&#x5e3;" horiz-adv-x="1323" d="M80 911v275h715q168 0 271 -91t103 -276v-1206h-327v1120q0 86 -35 132t-125 46h-215q-96 0 -96 -118v-97h219v-260h-465v285q0 66 21.5 113t62.5 77h-129z" />
<glyph unicode="&#x5e4;" horiz-adv-x="1341" d="M100 911v275h713q88 0 165 -28t132 -95.5t87 -181t32 -285.5q0 -127 -29 -236.5t-87 -189.5t-145 -125t-204 -45h-641v274h606q92 0 128 56.5t36 167.5v239q0 88 -38 137.5t-126 49.5h-182q-90 0 -123 -28t-33 -103v-97h219v-239h-465v264q0 66 21.5 113t62.5 77h-129z " />
<glyph unicode="&#x5e8;" horiz-adv-x="1062" d="M51 911v275h473q385 0 385 -387v-797h-327v723q0 94 -32 140t-122 46h-377z" />
<glyph unicode="&#x5f0;" horiz-adv-x="1302" d="M154 0v1186h327v-1186h-327zM797 0v1186h327v-1186h-327z" />
<glyph unicode="&#x5f1;" horiz-adv-x="1253" d="M748 0v1186h327v-1186h-327zM115 494v692h327v-692h-327z" />
<glyph unicode="&#x5f2;" horiz-adv-x="1230" d="M115 494v692h327v-692h-327zM750 494v692h327v-692h-327z" />
<glyph unicode="&#x5f3;" horiz-adv-x="548" d="M102 840l115 411q16 45 35 45h162q33 0 32 -28q0 -6 -75 -189q-6 -14 -15.5 -33.5t-19.5 -41.5l-66 -142q-20 -51 -92 -51q-18 0 -47 6.5t-29 22.5z" />
<glyph unicode="&#x25ca;" horiz-adv-x="548" d="M102 840l115 411q16 45 35 45h162q33 0 32 -28q0 -6 -75 -189q-6 -14 -15.5 -33.5t-19.5 -41.5l-66 -142q-20 -51 -92 -51q-18 0 -47 6.5t-29 22.5z" />
<glyph unicode="&#x5f4;" horiz-adv-x="944" d="M102 840q0 -8 30 95t87 316q12 45 35 45h203q31 0 30 -28q0 -12 -75 -189l-25 -57q-23 -47 -41 -88t-35 -72q-8 -16 -15 -27.5t-20 -15.5q-12 -8 -53 -8q-10 0 -30.5 2t-40 5t-35 8.5t-15.5 13.5zM455 840l114 411q2 10 13.5 18.5t23.5 14.5t23.5 9t15.5 3h162 q33 0 33 -28q6 6 -7.5 -25t-33 -76t-40 -91t-30.5 -72l-65 -142q-25 -51 -91 -51q-10 0 -29.5 2t-39 5t-34.5 8.5t-15 13.5z" />
<glyph unicode="&#x2000;" horiz-adv-x="1024" />
<glyph unicode="&#x2001;" horiz-adv-x="2048" />
<glyph unicode="&#x2002;" horiz-adv-x="1024" />
<glyph unicode="&#x2003;" horiz-adv-x="2048" />
<glyph unicode="&#x2004;" horiz-adv-x="681" />
<glyph unicode="&#x2005;" horiz-adv-x="512" />
<glyph unicode="&#x2006;" horiz-adv-x="339" />
<glyph unicode="&#x2007;" horiz-adv-x="1099" />
<glyph unicode="&#x2008;" horiz-adv-x="462" />
<glyph unicode="&#x2009;" horiz-adv-x="204" />
<glyph unicode="&#x200a;" horiz-adv-x="20" />
<glyph unicode="&#x200b;" />
<glyph unicode="&#x200c;" horiz-adv-x="45" d="M0 0v1628h45v-1628h-45z" />
<glyph unicode="&#x200d;" horiz-adv-x="45" d="M-115 1495l109 109l-109 106l31 31l107 -109l106 109l31 -31l-107 -106l107 -109l-31 -29l-84 84v-1550h-45v1550l-84 -84z" />
<glyph unicode="&#x2010;" horiz-adv-x="1032" d="M102 440v295h828v-295h-828z" />
<glyph unicode="&#x2011;" horiz-adv-x="1032" d="M102 440v295h828v-295h-828z" />
<glyph unicode="&#x2012;" horiz-adv-x="1099" d="M102 440v295h895v-295h-895z" />
<glyph unicode="&#x2013;" horiz-adv-x="929" d="M25 614l69 168h809l-69 -168h-809z" />
<glyph unicode="&#x2014;" horiz-adv-x="1859" d="M25 614l69 168h1731l-70 -168h-1730z" />
<glyph unicode="&#x2015;" horiz-adv-x="4096" d="M102 440v295h3892v-295h-3892z" />
<glyph unicode="&#x2016;" horiz-adv-x="1064" d="M634 -145v1443h328v-1443h-328zM102 -145v1443h328v-1443h-328z" />
<glyph unicode="&#x2018;" horiz-adv-x="591" d="M102 -203l117 412q8 45 31 45h207q33 0 32 -27q0 -18 -79 -192q-8 -20 -16.5 -39t-18.5 -37l-64 -139q-25 -53 -90 -53q-10 0 -29.5 2t-39 6t-35 9t-15.5 13z" />
<glyph unicode="&#x2019;" horiz-adv-x="462" d="M102 45v176q0 20 11.5 34.5t33.5 14.5h168q23 0 34 -14t11 -35v-176q0 -49 -45 -49h-168q-45 0 -45 49z" />
<glyph unicode="&#x201c;" horiz-adv-x="944" d="M100 -88q0 -8 30 95.5t87 316.5q12 45 35 45h203q31 0 30 -29q0 -12 -75 -188l-25 -58q-23 -47 -41 -88t-35 -72q-8 -16 -15 -27t-20 -16q-12 -8 -53 -8q-10 0 -30.5 2t-40 5.5t-35 8.5t-15.5 13zM453 -88l114 412q2 10 13.5 18t23.5 14t23.5 9.5t15.5 3.5h162 q33 0 33 -29q6 6 -7.5 -24.5t-33 -75.5t-40 -91.5t-30.5 -72.5l-65 -142q-25 -51 -91 -51q-10 0 -29.5 2t-39 5.5t-34.5 8.5t-15 13z" />
<glyph unicode="&#x201d;" horiz-adv-x="944" d="M102 840q0 -8 30 95t87 316q12 45 35 45h203q31 0 30 -28q0 -12 -75 -189l-25 -57q-23 -47 -41 -88t-35 -72q-8 -16 -15 -27.5t-20 -15.5q-12 -8 -53 -8q-10 0 -30.5 2t-40 5t-35 8.5t-15.5 13.5zM455 840l114 411q2 10 13.5 18.5t23.5 14.5t23.5 9t15.5 3h162 q33 0 33 -28q6 6 -7.5 -25t-33 -76t-40 -91t-30.5 -72l-65 -142q-25 -51 -91 -51q-10 0 -29.5 2t-39 5t-34.5 8.5t-15 13.5z" />
<glyph unicode="&#x2022;" horiz-adv-x="1062" d="M115 643q0 172 118 291q121 121 293 121q170 0 291 -121t121 -291q0 -172 -121 -293t-291 -121q-172 0 -293 121q-118 119 -118 293z" />
<glyph unicode="&#x2024;" horiz-adv-x="462" d="M102 45v176q0 20 11.5 34.5t33.5 14.5h168q23 0 34 -14t11 -35v-176q0 -49 -45 -49h-168q-45 0 -45 49z" />
<glyph unicode="&#x2025;" horiz-adv-x="925" d="M565 45v176q0 20 11.5 34.5t33.5 14.5h168q23 0 34 -14t11 -35v-176q0 -49 -45 -49h-168q-45 0 -45 49zM102 45v176q0 20 11.5 34.5t33.5 14.5h168q23 0 34 -14t11 -35v-176q0 -49 -45 -49h-168q-45 0 -45 49z" />
<glyph unicode="&#x202a;" />
<glyph unicode="&#x202f;" horiz-adv-x="368" />
<glyph unicode="&#x2032;" horiz-adv-x="548" d="M102 840l115 411q16 45 35 45h162q33 0 32 -28q0 -6 -75 -189q-6 -14 -15.5 -33.5t-19.5 -41.5l-66 -142q-20 -51 -92 -51q-18 0 -47 6.5t-29 22.5z" />
<glyph unicode="&#x2033;" horiz-adv-x="1097" d="M651 840l115 411q16 45 35 45h162q33 0 32 -28q0 -6 -75 -189q-6 -14 -15.5 -33.5t-19.5 -41.5l-66 -142q-20 -51 -92 -51q-18 0 -47 6.5t-29 22.5zM102 840l115 411q16 45 35 45h162q33 0 32 -28q0 -6 -75 -189q-6 -14 -15.5 -33.5t-19.5 -41.5l-66 -142 q-20 -51 -92 -51q-18 0 -47 6.5t-29 22.5z" />
<glyph unicode="&#x2034;" horiz-adv-x="1646" d="M1200 840l115 411q16 45 35 45h162q33 0 32 -28q0 -6 -75 -189q-6 -14 -15.5 -33.5t-19.5 -41.5l-66 -142q-20 -51 -92 -51q-18 0 -47 6.5t-29 22.5zM651 840l115 411q16 45 35 45h162q33 0 32 -28q0 -6 -75 -189q-6 -14 -15.5 -33.5t-19.5 -41.5l-66 -142 q-20 -51 -92 -51q-18 0 -47 6.5t-29 22.5zM102 840l115 411q16 45 35 45h162q33 0 32 -28q0 -6 -75 -189q-6 -14 -15.5 -33.5t-19.5 -41.5l-66 -142q-20 -51 -92 -51q-18 0 -47 6.5t-29 22.5z" />
<glyph unicode="&#x2039;" horiz-adv-x="851" d="M162 582q45 39 109.5 95t150.5 132l147 139q125 117 133 117q25 0 25 -29q0 -35 -328 -461q47 -59 93.5 -116.5t93.5 -116.5q143 -186 143 -229q0 -29 -27 -29q-10 0 -153 143q-23 23 -118 111t-269 244z" />
<glyph unicode="&#x203a;" horiz-adv-x="851" d="M123 1036q0 29 29 29q10 0 153 -143q35 -33 131 -121t256 -232q-45 -39 -109.5 -95t-150.5 -132q-45 -45 -111.5 -107.5t-158.5 -148.5l-10 -2q-27 0 -27 29q0 35 328 460q-47 57 -92.5 114.5t-90.5 117.5q-147 186 -147 231z" />
<glyph unicode="&#x203c;" horiz-adv-x="1048" d="M628 1350q-4 39 33 39h254q31 0 31 -39l-43 -910q-6 -35 -35 -34h-178q-35 0 -35 34zM647 47v176q0 20 11 34.5t34 14.5h168q23 0 34 -14t11 -35v-176q0 -49 -45 -49h-168q-45 0 -45 49zM104 1350q-4 39 33 39h254q31 0 31 -39l-43 -910q-6 -35 -35 -34h-178 q-35 0 -35 34zM123 47v176q0 20 11 34.5t34 14.5h168q23 0 34 -14t11 -35v-176q0 -49 -45 -49h-168q-45 0 -45 49z" />
<glyph unicode="&#x203e;" horiz-adv-x="450" d="M-229.803 123v161.993h195.592q12 0 26.999 1.2002q15 1.2002 28.499 8.69922q13.5 7.5 23.0996 23.999q9.59961 16.5 9.59961 45.8984q0 34.1982 -6.59961 54.5977q-6.60059 20.3994 -18.2998 30.2988t-25.7988 12.8994t-26.6992 3h-134.994v19.7988l106.796 182.993 h-173.993v166.193h416.383v-24.5996l-136.794 -227.391q45.5977 -1.2002 78.2969 -16.499q32.6982 -15.2998 53.9971 -41.6982q21.2998 -26.3994 31.1992 -62.6973q9.89941 -36.2988 9.89941 -79.4971q0 -44.3984 -14.0996 -89.6963t-41.6982 -83.3965t-67.4971 -62.0977 t-90.2969 -23.999h-243.59z" />
<glyph unicode="&#x2047;" horiz-adv-x="1794" d="M999 1128v146q0 18 9.5 30.5t27.5 22.5q49 25 106.5 35t119.5 10q78 0 154.5 -22.5t138 -66.5t99.5 -107.5t38 -145.5q0 -72 -32 -133t-89 -121l-166 -153q-31 -33 -43 -63t-12 -60v-54q0 -29 -15.5 -43t-38.5 -14h-153q-53 0 -53 51v99q14 45 23 70.5t17.5 41t16.5 25.5 t20 22l43 43l193 168q20 23 29.5 44.5t9.5 39.5q0 49 -45 84t-101 43q-55 4 -101 -1t-99 -17q-10 -4 -25.5 -4t-26.5 -4q-20 -4 -32.5 2.5t-12.5 31.5zM1087 57v146q0 27 14.5 43t43.5 16h139q29 0 43 -16.5t14 -42.5v-146q0 -59 -57 -59h-139q-58 0 -58 59zM102 1128v146 q0 18 9.5 30.5t27.5 22.5q49 25 106.5 35t119.5 10q78 0 154.5 -22.5t138 -66.5t99.5 -107.5t38 -145.5q0 -72 -32 -133t-89 -121l-166 -153q-31 -33 -43 -63t-12 -60v-54q0 -29 -15.5 -43t-38.5 -14h-153q-53 0 -53 51v99q14 45 23 70.5t17.5 41t16.5 25.5t20 22l43 43 l193 168q20 23 29.5 44.5t9.5 39.5q0 49 -45 84t-101 43q-55 4 -101 -1t-99 -17q-10 -4 -25.5 -4t-26.5 -4q-20 -4 -32.5 2.5t-12.5 31.5zM190 57v146q0 27 14.5 43t43.5 16h139q29 0 43 -16.5t14 -42.5v-146q0 -59 -57 -59h-139q-58 0 -58 59z" />
<glyph unicode="&#x2048;" horiz-adv-x="1421" d="M1001 1350q-4 39 33 39h254q31 0 31 -39l-43 -910q-6 -35 -35 -34h-178q-35 0 -35 34zM1020 47v176q0 20 11 34.5t34 14.5h168q23 0 34 -14t11 -35v-176q0 -49 -45 -49h-168q-45 0 -45 49zM102 1128v146q0 18 9.5 30.5t27.5 22.5q49 25 106.5 35t119.5 10 q78 0 154.5 -22.5t138 -66.5t99.5 -107.5t38 -145.5q0 -72 -32 -133t-89 -121l-166 -153q-31 -33 -43 -63t-12 -60v-54q0 -29 -15.5 -43t-38.5 -14h-153q-53 0 -53 51v99q14 45 23 70.5t17.5 41t16.5 25.5t20 22l43 43l193 168q20 23 29.5 44.5t9.5 39.5q0 49 -45 84 t-101 43q-55 4 -101 -1t-99 -17q-10 -4 -25.5 -4t-26.5 -4q-20 -4 -32.5 2.5t-12.5 31.5zM190 57v146q0 27 14.5 43t43.5 16h139q29 0 43 -16.5t14 -42.5v-146q0 -59 -57 -59h-139q-58 0 -58 59z" />
<glyph unicode="&#x2049;" horiz-adv-x="1421" d="M626 1128v146q0 18 9.5 30.5t27.5 22.5q49 25 106.5 35t119.5 10q78 0 154.5 -22.5t138 -66.5t99.5 -107.5t38 -145.5q0 -72 -32 -133t-89 -121l-166 -153q-31 -33 -43 -63t-12 -60v-54q0 -29 -15.5 -43t-38.5 -14h-153q-53 0 -53 51v99q14 45 23 70.5t17.5 41t16.5 25.5 t20 22l43 43l193 168q20 23 29.5 44.5t9.5 39.5q0 49 -45 84t-101 43q-55 4 -101 -1t-99 -17q-10 -4 -25.5 -4t-26.5 -4q-20 -4 -32.5 2.5t-12.5 31.5zM714 57v146q0 27 14.5 43t43.5 16h139q29 0 43 -16.5t14 -42.5v-146q0 -59 -57 -59h-139q-58 0 -58 59zM104 1350 q-4 39 33 39h254q31 0 31 -39l-43 -910q-6 -35 -35 -34h-178q-35 0 -35 34zM123 47v176q0 20 11 34.5t34 14.5h168q23 0 34 -14t11 -35v-176q0 -49 -45 -49h-168q-45 0 -45 49z" />
<glyph unicode="&#x2057;" horiz-adv-x="2195" d="M1749 840l115 411q16 45 35 45h162q33 0 32 -28q0 -6 -75 -189q-6 -14 -15.5 -33.5t-19.5 -41.5l-66 -142q-20 -51 -92 -51q-18 0 -47 6.5t-29 22.5zM1200 840l115 411q16 45 35 45h162q33 0 32 -28q0 -6 -75 -189q-6 -14 -15.5 -33.5t-19.5 -41.5l-66 -142 q-20 -51 -92 -51q-18 0 -47 6.5t-29 22.5zM651 840l115 411q16 45 35 45h162q33 0 32 -28q0 -6 -75 -189q-6 -14 -15.5 -33.5t-19.5 -41.5l-66 -142q-20 -51 -92 -51q-18 0 -47 6.5t-29 22.5zM102 840l115 411q16 45 35 45h162q33 0 32 -28q0 -6 -75 -189 q-6 -14 -15.5 -33.5t-19.5 -41.5l-66 -142q-20 -51 -92 -51q-18 0 -47 6.5t-29 22.5z" />
<glyph unicode="&#x205f;" horiz-adv-x="460" />
<glyph unicode="&#x2060;" />
<glyph unicode="&#xe000;" horiz-adv-x="770" d="M0 770h770v-770h-770v770z" />
<glyph unicode="&#xfb00;" horiz-adv-x="1441" d="M762 0v49h158v680h-156v49h156v74q0 221 43 313q80 170 254 170q72 0 129 -32q72 -41 71 -105q0 -78 -75 -78q-82 0 -82 74q0 47 47 70q0 23 -86 22q-100 0 -101 -137v-371h170v-49h-170v-680h158v-49h-516zM41 0v49h158v680h-156v49h156v74q0 221 43 313q80 170 254 170 q72 0 129 -32q72 -41 71 -105q0 -78 -75 -78q-82 0 -82 74q0 47 47 70q0 23 -86 22q-100 0 -101 -137v-371h170v-49h-170v-680h158v-49h-516z" />
<glyph unicode="&#xfb01;" horiz-adv-x="1341" d="M789 0v49h157v680h-157v49h356v-729h160v-49h-516zM926 1126q0 47 34.5 79t84.5 32q49 0 83.5 -31.5t34.5 -79.5q0 -47 -35.5 -77.5t-82.5 -30.5t-83 30.5t-36 77.5zM41 0v49h158v680h-156v49h156v74q0 221 43 313q80 170 254 170q72 0 129 -32q72 -41 71 -105 q0 -78 -75 -78q-82 0 -82 74q0 47 47 70q0 23 -86 22q-100 0 -101 -137v-371h170v-49h-170v-680h158v-49h-516z" />
<glyph unicode="&#xfb02;" horiz-adv-x="1323" d="M787 0v49h147v1223h-147v49h346v-1272h147v-49h-493zM41 0v49h158v680h-156v49h156v74q0 221 43 313q80 170 254 170q72 0 129 -32q72 -41 71 -105q0 -78 -75 -78q-82 0 -82 74q0 47 47 70q0 23 -86 22q-100 0 -101 -137v-371h170v-49h-170v-680h158v-49h-516z" />
<glyph unicode="&#xfb03;" horiz-adv-x="2062" d="M1510 0v49h157v680h-157v49h356v-729h160v-49h-516zM1647 1126q0 47 34.5 79t84.5 32q49 0 83.5 -31.5t34.5 -79.5q0 -47 -35.5 -77.5t-82.5 -30.5t-83 30.5t-36 77.5zM762 0v49h158v680h-156v49h156v74q0 221 43 313q80 170 254 170q72 0 129 -32q72 -41 71 -105 q0 -78 -75 -78q-82 0 -82 74q0 47 47 70q0 23 -86 22q-100 0 -101 -137v-371h170v-49h-170v-680h158v-49h-516zM41 0v49h158v680h-156v49h156v74q0 221 43 313q80 170 254 170q72 0 129 -32q72 -41 71 -105q0 -78 -75 -78q-82 0 -82 74q0 47 47 70q0 23 -86 22 q-100 0 -101 -137v-371h170v-49h-170v-680h158v-49h-516z" />
<glyph unicode="&#xfb04;" horiz-adv-x="2043" d="M1508 0v49h147v1223h-147v49h346v-1272h147v-49h-493zM762 0v49h158v680h-156v49h156v74q0 221 43 313q80 170 254 170q72 0 129 -32q72 -41 71 -105q0 -78 -75 -78q-82 0 -82 74q0 47 47 70q0 23 -86 22q-100 0 -101 -137v-371h170v-49h-170v-680h158v-49h-516zM41 0v49 h158v680h-156v49h156v74q0 221 43 313q80 170 254 170q72 0 129 -32q72 -41 71 -105q0 -78 -75 -78q-82 0 -82 74q0 47 47 70q0 23 -86 22q-100 0 -101 -137v-371h170v-49h-170v-680h158v-49h-516z" />
<glyph unicode="&#xfb06;" horiz-adv-x="1464" d="M791 727v49h143v217l201 92v-309h205v-49h-205v-518q0 -176 127 -176q111 0 133 133q4 29 29 29q20 0 20 -25q0 -16 -2 -20q-35 -176 -252 -177q-119 0 -187.5 61.5t-68.5 178.5v514h-143zM88 8v207q0 25 23 25q18 0 24 -25q55 -195 266 -195q80 0 138 33q74 39 73 113 q0 86 -125 129q-16 2 -196 43q-188 41 -189 207q0 59 22.5 106t61.5 80t91.5 50.5t113.5 17.5q96 0 160 -51l41 38l6 5q8 8 16 8q14 0 15 -23v-207q0 -20 -17 -20q-20 0 -22 18q-14 82 -69.5 132.5t-141.5 50.5q-63 0 -115 -31q-61 -35 -61 -92q0 -61 123 -99q45 -10 89 -19 t89 -20q199 -57 198 -245q0 -129 -81.5 -200t-212.5 -71q-156 0 -238 76l-39 -51q-8 -14 -20 -14q-23 -1 -23 24z" />
<glyph unicode="&#xfb1d;" horiz-adv-x="595" d="M115 494v692h327v-692h-327zM190 -256q0 35 24.5 59.5t61.5 24.5t61.5 -23.5t24.5 -60.5t-24.5 -61.5t-61.5 -24.5t-61.5 24.5t-24.5 61.5z" />
<glyph unicode="&#xfb1e;" horiz-adv-x="1880" d="M41 911v416h328v-137h1091q133 0 203 -63.5t70 -168.5v-135q0 -51 -5.5 -90t-16.5 -72.5t-28.5 -64.5t-42.5 -68l-180 -235q-27 -39 -47 -79t-20 -112v-102h-314v98q0 66 24.5 133.5t55.5 108.5l174 215q39 53 60.5 103.5t21.5 103.5v76q0 45 -22.5 59t-87.5 14h-1264z " />
<glyph unicode="&#xfb1f;" horiz-adv-x="1230" d="M115 494v692h327v-692h-327zM750 494v692h327v-692h-327z" />
<glyph unicode="&#xfb20;" horiz-adv-x="1292" d="M72 1186h342l159 -672l-10 -197l107 62q66 41 85 103.5t25 140.5l41 565h332l-49 -572q-6 -80 -22.5 -146.5t-56.5 -126.5t-109.5 -114.5t-180.5 -109.5l-545 -299l-100 250l254 155z" />
<glyph unicode="&#xfb21;" horiz-adv-x="1918" d="M82 911v275h1286q84 0 152.5 -20.5t115.5 -74t74 -147.5t29 -242q0 -80 -9.5 -136t-30 -103t-50 -91t-68.5 -98h199v-274h-1678v274h1119q92 0 138 54.5t46 173.5v237q0 88 -34 130t-120 42h-1169z" />
<glyph unicode="&#xfb22;" horiz-adv-x="1892" d="M35 911v279h1714v-238q-106 -55 -143 -113.5t-37 -146.5v-692h-328v520q0 39 4 84t17.5 94.5t40 103.5t71.5 109h-1339z" />
<glyph unicode="&#xfb23;" horiz-adv-x="2095" d="M119 911v279h1392q131 0 214 -28.5t131.5 -82t67 -133.5t18.5 -180v-766h-328v713q0 63 -7.5 102t-26.5 60.5t-53 28.5t-87 7h-1321zM143 0v688h328v-688h-328z" />
<glyph unicode="&#xfb24;" horiz-adv-x="1853" d="M82 911v279h1319q84 0 147.5 -31t106.5 -100.5t64.5 -183t21.5 -279.5q0 -131 -18.5 -240.5t-64.5 -188.5t-123 -123t-192 -44h-1237v274h1147q92 0 118 50.5t26 152.5v258q0 88 -31 132t-119 44h-1165z" />
<glyph unicode="&#xfb25;" horiz-adv-x="1880" d="M41 911v576h328v-297h1091q133 0 203 -63.5t70 -168.5v-135q0 -51 -5.5 -90t-16.5 -72.5t-28.5 -64.5t-42.5 -68l-180 -235q-27 -39 -47 -79t-20 -112v-102h-314v98q0 66 24.5 133.5t55.5 108.5l174 215q39 53 60.5 103.5t21.5 103.5v76q0 45 -22.5 59t-87.5 14h-1264z " />
<glyph unicode="&#xfb26;" horiz-adv-x="2168" d="M86 911v275h1575q182 0 268 -110.5t86 -297.5v-778h-1870v655q0 184 80 226v30h-139zM473 274h1215v457q0 92 -30 136t-99 44h-1029q-57 0 -57 -73v-564z" />
<glyph unicode="&#xfb27;" horiz-adv-x="1882" d="M51 911v275h1292q385 0 386 -387v-797h-328v723q0 94 -32 140t-122 46h-1196z" />
<glyph unicode="&#xfb28;" horiz-adv-x="2254" d="M63 2v270h125q45 0 52.5 11.5t7.5 56.5v315q0 186 82 226v30h-183v275h1645q92 0 151.5 -14.5t94.5 -51.5t49 -98t14 -156v-864h-327v791q0 59 -16.5 88.5t-69.5 29.5h-1055q-57 0 -58 -73v-686q0 -23 -8 -48.5t-22.5 -48t-35 -38t-42.5 -15.5h-404z" />
<glyph unicode="&#xfb29;" horiz-adv-x="1183" d="M29 584v172h448v448h170v-448h449v-172h-1067z" />
<glyph unicode="&#xfb2a;" horiz-adv-x="1665" d="M115 539v651h327v-539q57 0 97.5 2t65 15.5t35.5 43t11 85.5v393h328v-451q0 -84 -35 -145.5t-102.5 -95t-167 -36.5t-230.5 32q0 -90 20.5 -139.5t63.5 -73t110 -28.5t163 -5q123 0 195.5 16.5t110.5 53t50 97t12 146.5v629h328v-651q0 -154 -47 -260.5t-137 -174 t-219 -100.5t-293 -35q-164 -4 -291 25t-215 96.5t-134 177t-46 271.5zM1249 1411q0 35 26 60.5t60 25.5q37 0 61.5 -24.5t24.5 -61.5t-24.5 -61.5t-61.5 -24.5t-61.5 24.5t-24.5 61.5z" />
<glyph unicode="&#xfb2b;" horiz-adv-x="1665" d="M115 539v651h327v-539q57 0 97.5 2t65 15.5t35.5 43t11 85.5v393h328v-451q0 -84 -35 -145.5t-102.5 -95t-167 -36.5t-230.5 32q0 -90 20.5 -139.5t63.5 -73t110 -28.5t163 -5q123 0 195.5 16.5t110.5 53t50 97t12 146.5v629h328v-651q0 -154 -47 -260.5t-137 -174 t-219 -100.5t-293 -35q-164 -4 -291 25t-215 96.5t-134 177t-46 271.5zM186 1411q0 35 25.5 60.5t60.5 25.5q37 0 61.5 -24.5t24.5 -61.5t-24.5 -61.5t-61.5 -24.5t-61.5 24.5t-24.5 61.5z" />
<glyph unicode="&#xfb2c;" horiz-adv-x="1665" d="M115 539v651h327v-539q57 0 97.5 2t65 15.5t35.5 43t11 85.5v393h328v-451q0 -84 -35 -145.5t-102.5 -95t-167 -36.5t-230.5 32q0 -90 20.5 -139.5t63.5 -73t110 -28.5t163 -5q123 0 195.5 16.5t110.5 53t50 97t12 146.5v629h328v-651q0 -154 -47 -260.5t-137 -174 t-219 -100.5t-293 -35q-164 -4 -291 25t-215 96.5t-134 177t-46 271.5zM1249 1411q0 35 26 60.5t60 25.5q37 0 61.5 -24.5t24.5 -61.5t-24.5 -61.5t-61.5 -24.5t-61.5 24.5t-24.5 61.5zM930 447q0 35 24.5 59.5t59.5 24.5t59.5 -24.5t24.5 -59.5t-24.5 -59.5t-59.5 -24.5 t-59.5 24.5t-24.5 59.5z" />
<glyph unicode="&#xfb2d;" horiz-adv-x="1665" d="M115 539v651h327v-539q57 0 97.5 2t65 15.5t35.5 43t11 85.5v393h328v-451q0 -84 -35 -145.5t-102.5 -95t-167 -36.5t-230.5 32q0 -90 20.5 -139.5t63.5 -73t110 -28.5t163 -5q123 0 195.5 16.5t110.5 53t50 97t12 146.5v629h328v-651q0 -154 -47 -260.5t-137 -174 t-219 -100.5t-293 -35q-164 -4 -291 25t-215 96.5t-134 177t-46 271.5zM930 447q0 35 24.5 59.5t59.5 24.5t59.5 -24.5t24.5 -59.5t-24.5 -59.5t-59.5 -24.5t-59.5 24.5t-24.5 59.5zM186 1411q0 35 25.5 60.5t60.5 25.5q37 0 61.5 -24.5t24.5 -61.5t-24.5 -61.5t-61.5 -24.5 t-61.5 24.5t-24.5 61.5z" />
<glyph unicode="&#xfb2e;" horiz-adv-x="1341" d="M78 1188h340l344 -518q14 8 25.5 22.5t19.5 47t11 92t3 155.5v201h328v-221q0 -152 -54.5 -266.5t-168.5 -229.5l325 -471h-352l-407 584q-14 -23 -25.5 -36t-20 -40t-12.5 -74t-4 -137v-297h-328v276q0 102 17.5 172t48.5 125.5t73 102.5t93 106zM469 -190h388v-109 h-388v109z" />
<glyph unicode="&#xfb2f;" horiz-adv-x="1341" d="M78 1188h340l344 -518q14 8 25.5 22.5t19.5 47t11 92t3 155.5v201h328v-221q0 -152 -54.5 -266.5t-168.5 -229.5l325 -471h-352l-407 584q-14 -23 -25.5 -36t-20 -40t-12.5 -74t-4 -137v-297h-328v276q0 102 17.5 172t48.5 125.5t73 102.5t93 106zM452 -190h388v-109 h-158l-6 -92q0 -23 26 -62q29 -41 29 -61q0 -37 -24.5 -61.5t-61.5 -24.5q-35 0 -59.5 24.5t-24.5 61.5q0 25 27 63q29 41 28 60l-6 92h-158v109z" />
<glyph unicode="&#xfb30;" horiz-adv-x="1341" d="M78 1188h340l344 -518q14 8 25.5 22.5t19.5 47t11 92t3 155.5v201h328v-221q0 -152 -54.5 -266.5t-168.5 -229.5l325 -471h-352l-407 584q-14 -23 -25.5 -36t-20 -40t-12.5 -74t-4 -137v-297h-328v276q0 102 17.5 172t48.5 125.5t73 102.5t93 106zM520 144 q0 35 24.5 59.5t59.5 24.5t59.5 -24.5t24.5 -59.5t-24.5 -59.5t-59.5 -24.5t-59.5 24.5t-24.5 59.5z" />
<glyph unicode="&#xfb31;" horiz-adv-x="1099" d="M82 911v275h467q84 0 152.5 -20.5t115.5 -74t74 -147.5t29 -242q0 -80 -9.5 -136t-30 -103t-50 -91t-68.5 -98h199v-274h-859v274h299q92 0 138.5 54.5t46.5 173.5v237q0 88 -34 130t-120 42h-350zM231 588q0 35 24.5 59.5t59.5 24.5t59.5 -24.5t24.5 -59.5t-24.5 -59.5 t-59.5 -24.5t-59.5 24.5t-24.5 59.5z" />
<glyph unicode="&#xfb32;" horiz-adv-x="929" d="M139 676q0 35 24.5 59.5t59.5 24.5t59.5 -24.5t24.5 -59.5t-24.5 -59.5t-59.5 -24.5t-59.5 24.5t-24.5 59.5zM72 -47v319q84 33 155.5 89.5t123.5 118t80 119.5t22 97v113q0 47 -19.5 74.5t-81.5 27.5h-237v275h370q137 0 214 -77t77 -267v-840h-301l-18 336l-64 -152 q-20 -47 -43.5 -79.5t-59.5 -58t-88 -48t-130 -47.5z" />
<glyph unicode="&#xfb33;" horiz-adv-x="1073" d="M35 911v279h895v-238q-106 -55 -143 -113.5t-37 -146.5v-692h-328v520q0 39 4 84t17.5 94.5t40 103.5t71.5 109h-520zM123 649q0 35 24.5 59.5t59.5 24.5t59.5 -24.5t24.5 -59.5t-24.5 -59.5t-59.5 -24.5t-59.5 24.5t-24.5 59.5z" />
<glyph unicode="&#xfb34;" horiz-adv-x="1275" d="M119 911v279h573q131 0 214 -28.5t131 -82t66.5 -133.5t18.5 -180v-766h-327v713q0 63 -7.5 102t-27 60.5t-53 28.5t-86.5 7h-502zM143 0v688h328v-688h-328zM551 563q0 35 24.5 59.5t59.5 24.5t59.5 -24.5t24.5 -59.5t-24.5 -59.5t-59.5 -24.5t-59.5 24.5t-24.5 59.5z " />
<glyph unicode="&#xfb35;" horiz-adv-x="659" d="M154 0v1186h327v-1186h-327zM-115 623q0 35 24.5 59.5t59.5 24.5t59.5 -24.5t24.5 -59.5t-24.5 -59.5t-59.5 -24.5t-59.5 24.5t-24.5 59.5z" />
<glyph unicode="&#xfb36;" horiz-adv-x="849" d="M78 911v279h629v-221q-49 -35 -85 -78t-59.5 -88t-35 -90t-11.5 -84v-629h-328v535q0 61 7.5 103t25 82t44 84t65.5 107h-252zM-70 733q0 35 24.5 59.5t59.5 24.5t59.5 -24.5t24.5 -59.5t-24.5 -59.5t-59.5 -24.5t-59.5 24.5t-24.5 59.5z" />
<glyph unicode="&#xfb38;" horiz-adv-x="1427" d="M137 504v686h328v-660q0 -74 13.5 -129t45 -91t87 -52t139.5 -10q74 4 118.5 24.5t69.5 59.5t33 98t8 141v148q0 102 -38 147t-130 45h-127v277h197q100 0 179 -20.5t134 -69.5t84 -130t29 -202v-264q0 -119 -38 -217.5t-111 -169t-180.5 -109.5t-246.5 -37 q-145 2 -255.5 42t-186.5 111t-114 168t-38 214zM643 582q0 35 24.5 59.5t59.5 24.5t59.5 -24.5t24.5 -59.5t-24.5 -59.5t-59.5 -24.5t-59.5 24.5t-24.5 59.5z" />
<glyph unicode="&#xfb39;" horiz-adv-x="595" d="M115 494v692h327v-692h-327zM-121 840q0 35 24.5 59.5t59.5 24.5t59.5 -24.5t24.5 -59.5t-24.5 -59.5t-59.5 -24.5t-59.5 24.5t-24.5 59.5z" />
<glyph unicode="&#xfb3a;" horiz-adv-x="1032" d="M33 911v275h471q168 0 271.5 -91t103.5 -276v-1206h-328v1120q0 86 -35 132t-125 46h-358zM176 590q0 35 24.5 59.5t59.5 24.5t59.5 -24.5t24.5 -59.5t-24.5 -59.5t-59.5 -24.5t-59.5 24.5t-24.5 59.5z" />
<glyph unicode="&#xfb3b;" horiz-adv-x="1034" d="M82 911v279h500q84 0 147.5 -31t106.5 -100.5t64.5 -183t21.5 -279.5q0 -131 -18.5 -240.5t-64.5 -188.5t-123 -123t-192 -44h-418v274h328q92 0 118 50.5t26 152.5v258q0 88 -31 132t-119 44h-346zM229 592q0 35 24.5 59.5t59.5 24.5t59.5 -24.5t24.5 -59.5t-24.5 -59.5 t-59.5 -24.5t-59.5 24.5t-24.5 59.5z" />
<glyph unicode="&#xfb3c;" horiz-adv-x="1060" d="M41 911v576h328v-297h272q133 0 202.5 -63.5t69.5 -168.5v-135q0 -51 -5 -90t-16 -72.5t-28.5 -64.5t-42.5 -68l-180 -235q-27 -39 -47.5 -79t-20.5 -112v-102h-313v98q0 66 24.5 133.5t55.5 108.5l174 215q39 53 60.5 103.5t21.5 103.5v76q0 45 -22.5 59t-88.5 14h-444z M225 668q0 35 24.5 59.5t59.5 24.5t59.5 -24.5t24.5 -59.5t-24.5 -59.5t-59.5 -24.5t-59.5 24.5t-24.5 59.5z" />
<glyph unicode="&#xfb3e;" horiz-adv-x="1456" d="M82 1186h313l58 -271q41 150 126 211.5t212 61.5h174q94 0 158.5 -41t104.5 -102.5t57.5 -136t17.5 -142.5v-766h-596v274h268v412q0 57 -1 101t-17.5 73t-54.5 43.5t-109 14.5q-55 0 -95.5 -13.5t-68 -44.5t-45 -81t-25.5 -126l-76 -653h-323l82 606zM688 567 q0 35 24.5 59.5t59.5 24.5t59.5 -24.5t24.5 -59.5t-24.5 -59.5t-59.5 -24.5t-59.5 24.5t-24.5 59.5z" />
<glyph unicode="&#xfb40;" horiz-adv-x="843" d="M72 0v274h290v535q0 68 -14 85t-57 17h-178v275h299q55 0 105 -20.5t89 -58.5t61.5 -93.5t22.5 -124.5v-889h-618zM92 588q0 35 24.5 59.5t59.5 24.5t59.5 -24.5t24.5 -59.5t-24.5 -59.5t-59.5 -24.5t-59.5 24.5t-24.5 59.5z" />
<glyph unicode="&#xfb41;" horiz-adv-x="1423" d="M100 911v279h785q133 0 213 -51.5t123 -135t56 -192.5t11 -223q-2 -137 -40 -248t-111.5 -190.5t-182 -122.5t-249.5 -45q-133 -2 -236.5 34.5t-176.5 107.5t-111 173t-38 233v86q0 70 37 152t88 143h-168zM477 545q0 -84 10.5 -141.5t38 -91t76.5 -47t125 -9.5 q123 6 176 67.5t53 221.5v200q0 82 -33.5 124t-123.5 42h-191q-131 0 -131 -166v-200zM639 594q0 35 24.5 59.5t59.5 24.5t59.5 -24.5t24.5 -59.5t-24.5 -59.5t-59.5 -24.5t-59.5 24.5t-24.5 59.5z" />
<glyph unicode="&#xfb43;" horiz-adv-x="1323" d="M80 911v275h715q168 0 271 -91t103 -276v-1206h-327v1120q0 86 -35 132t-125 46h-215q-96 0 -96 -118v-97h219v-260h-465v285q0 66 21.5 113t62.5 77h-129zM631 576q0 35 24.5 59.5t59.5 24.5t59.5 -24.5t24.5 -59.5t-24.5 -59.5t-59.5 -24.5t-59.5 24.5t-24.5 59.5z" />
<glyph unicode="&#xfb44;" horiz-adv-x="1341" d="M100 911v275h713q88 0 165 -28t132 -95.5t87 -181t32 -285.5q0 -127 -29 -236.5t-87 -189.5t-145 -125t-204 -45h-641v274h606q92 0 128 56.5t36 167.5v239q0 88 -38 137.5t-126 49.5h-182q-90 0 -123 -28t-33 -103v-97h219v-239h-465v264q0 66 21.5 113t62.5 77h-129z M668 582q0 35 24.5 59.5t59.5 24.5t59.5 -24.5t24.5 -59.5t-24.5 -59.5t-59.5 -24.5t-59.5 24.5t-24.5 59.5z" />
<glyph unicode="&#xfb46;" horiz-adv-x="1224" d="M37 1188h354q39 -80 71 -152.5t63.5 -142.5t67.5 -136.5t83 -133.5q14 31 26.5 55t20.5 52t12 63.5t4 91.5v303h328v-279q0 -131 -70.5 -240.5t-193.5 -189.5q20 -25 41.5 -52.5t46 -60t56.5 -75.5t75 -98v-193h-870v274h456q-90 100 -165.5 203t-143.5 213.5t-132 232.5 t-130 265zM184 445q0 35 24.5 59.5t59.5 24.5t59.5 -24.5t24.5 -59.5t-24.5 -59.5t-59.5 -24.5t-59.5 24.5t-24.5 59.5z" />
<glyph unicode="&#xfb47;" horiz-adv-x="1361" d="M119 911v275h794q147 0 225.5 -74t78.5 -215v-92q0 -102 -43.5 -183t-90.5 -151l-104 -154q-27 -39 -41 -78.5t-14 -111.5v-127h-322v117q0 66 23.5 122t54.5 97l129 201q41 53 71.5 103t30.5 103v54q0 68 -21.5 91t-84.5 23h-686zM135 -297v1008h328v-1008h-328z M561 596q0 35 24.5 59.5t59.5 24.5t59.5 -24.5t24.5 -59.5t-24.5 -59.5t-59.5 -24.5t-59.5 24.5t-24.5 59.5z" />
<glyph unicode="&#xfb48;" horiz-adv-x="1062" d="M51 911v275h473q385 0 385 -387v-797h-327v723q0 94 -32 140t-122 46h-377zM201 543q0 35 24.5 59.5t59.5 24.5t59.5 -24.5t24.5 -59.5t-24.5 -59.5t-59.5 -24.5t-59.5 24.5t-24.5 59.5z" />
<glyph unicode="&#xfb49;" horiz-adv-x="1665" d="M115 539v651h327v-539q57 0 97.5 2t65 15.5t35.5 43t11 85.5v393h328v-451q0 -84 -35 -145.5t-102.5 -95t-167 -36.5t-230.5 32q0 -90 20.5 -139.5t63.5 -73t110 -28.5t163 -5q123 0 195.5 16.5t110.5 53t50 97t12 146.5v629h328v-651q0 -154 -47 -260.5t-137 -174 t-219 -100.5t-293 -35q-164 -4 -291 25t-215 96.5t-134 177t-46 271.5zM930 447q0 35 24.5 59.5t59.5 24.5t59.5 -24.5t24.5 -59.5t-24.5 -59.5t-59.5 -24.5t-59.5 24.5t-24.5 59.5z" />
<glyph unicode="&#xfb4a;" horiz-adv-x="1435" d="M63 2v270h125q45 0 52.5 11.5t7.5 56.5v315q0 186 82 226v30h-183v275h826q92 0 151.5 -14.5t94 -51.5t49 -98t14.5 -156v-864h-328v791q0 59 -16 88.5t-70 29.5h-235q-57 0 -58 -73v-686q0 -23 -8 -48.5t-22.5 -48t-35 -38t-42.5 -15.5h-404zM684 563q0 35 24.5 59.5 t59.5 24.5t59.5 -24.5t24.5 -59.5t-24.5 -59.5t-59.5 -24.5t-59.5 24.5t-24.5 59.5z" />
<glyph unicode="&#xfb4b;" horiz-adv-x="659" d="M154 0v1186h327v-1186h-327zM231 1411q0 35 25.5 60.5t60.5 25.5q37 0 61.5 -24.5t24.5 -61.5t-24.5 -61.5t-61.5 -24.5t-61.5 24.5t-24.5 61.5z" />
<glyph unicode="&#xfb4c;" horiz-adv-x="1099" d="M82 911v275h467q84 0 152.5 -20.5t115.5 -74t74 -147.5t29 -242q0 -80 -9.5 -136t-30 -103t-50 -91t-68.5 -98h199v-274h-859v274h299q92 0 138.5 54.5t46.5 173.5v237q0 88 -34 130t-120 42h-350zM256 1384v111h430v-111h-430z" />
<glyph unicode="&#xfb4d;" horiz-adv-x="1034" d="M82 911v279h500q84 0 147.5 -31t106.5 -100.5t64.5 -183t21.5 -279.5q0 -131 -18.5 -240.5t-64.5 -188.5t-123 -123t-192 -44h-418v274h328q92 0 118 50.5t26 152.5v258q0 88 -31 132t-119 44h-346zM236 1384v111h430v-111h-430z" />
<glyph unicode="&#xfb4e;" horiz-adv-x="1341" d="M100 911v275h713q88 0 165 -28t132 -95.5t87 -181t32 -285.5q0 -127 -29 -236.5t-87 -189.5t-145 -125t-204 -45h-641v274h606q92 0 128 56.5t36 167.5v239q0 88 -38 137.5t-126 49.5h-182q-90 0 -123 -28t-33 -103v-97h219v-239h-465v264q0 66 21.5 113t62.5 77h-129z M338 1384v111h430v-111h-430z" />
<glyph unicode="&#xfb4f;" horiz-adv-x="1294" d="M41 1188v299h328v-297l346 -520q14 8 25.5 22.5t19.5 47t11 92t3 155.5v201h328v-221q0 -152 -54.5 -266.5t-168.5 -229.5l325 -471h-352z" />
</font>
</defs>
</svg>
