<?xml version="1.0" standalone="no"?>
<!DOCTYPE svg PUBLIC "-//W3C//DTD SVG 1.1//EN" "http://www.w3.org/Graphics/SVG/1.1/DTD/svg11.dtd" >
<svg xmlns="http://www.w3.org/2000/svg">
<metadata>
This is a custom SVG webfont generated by Font Squirrel.
Copyright   : Copyright c 2010 by ELi Fried All rights reserved
Foundry     : ELi Fried
</metadata>
<defs>
<font id="EFTPaalulBold" horiz-adv-x="0" >
<font-face units-per-em="2048" ascent="1638" descent="-410" />
<missing-glyph horiz-adv-x="421" />
<glyph unicode=" "  horiz-adv-x="421" />
<glyph unicode="&#x09;" horiz-adv-x="421" />
<glyph unicode="&#xa0;" horiz-adv-x="421" />
<glyph unicode="!" horiz-adv-x="452" d="M74 676v741h266v-741q0 -53 -12.5 -111.5t-34.5 -126.5h-176q-43 125 -43 238zM92 0v217h223v-217h-223z" />
<glyph unicode="&#x22;" horiz-adv-x="862" d="M53 897l125 533h215l-200 -533h-140zM381 897l125 533h217l-201 -533h-141z" />
<glyph unicode="#" horiz-adv-x="1161" d="M53 428v197h219l21 180h-195v194h219l54 394h184l-59 -394h163l56 394h182l-55 -394h180v-194h-205l-20 -180h182v-197h-205l-59 -428h-180l55 428h-176l-54 -428h-184l57 428h-180zM453 625h163l19 180h-162z" />
<glyph unicode="$" horiz-adv-x="1097" d="M53 315h250q8 -115 156 -151v352q-383 74 -383 344q0 135 110 244q57 53 124 83t149 34v125h92v-125q76 0 142.5 -22.5t114.5 -61.5t75.5 -92.5t27.5 -116.5h-241q-12 113 -119 114v-323q90 -12 165 -43t129 -78t83.5 -109.5t29.5 -136.5q0 -76 -29.5 -140.5 t-83.5 -114.5t-129 -83.5t-165 -46.5v-131h-92v135q-2 -2 -9.5 -3t-13.5 -1h-22q-170 0 -271 107q-84 91 -90 241zM322 887q0 -123 137 -142v295q-137 -18 -137 -153zM551 160q162 43 162 172q0 121 -162 164v-336z" />
<glyph unicode="%" horiz-adv-x="1392" d="M53 930q0 121 60 215q70 100 190 100q121 0 186 -102q61 -90 62 -213q0 -133 -57 -221q-66 -104 -191 -105q-125 0 -192 105q-58 88 -58 221zM219 12l641 1233h227l-634 -1233h-234zM229 928q0 -143 74 -144q76 0 76 144q0 137 -76 137q-74 0 -74 -137zM756 328 q0 129 67 221q68 94 181 94q119 0 190 -102q59 -90 59 -213q0 -127 -59 -222q-70 -106 -190 -106q-123 0 -189 106q-59 91 -59 222zM928 324q0 -139 76 -140q78 0 77 140q0 137 -77 137q-76 0 -76 -137z" />
<glyph unicode="&#x26;" horiz-adv-x="1896" d="M86 1122q51 16 123 32.5t151.5 30t159.5 21.5t148 8q117 0 228.5 -25.5t198.5 -91t139 -178t52 -286.5l-2 -180h-264v211q0 96 -23.5 161.5t-66.5 106.5t-102.5 58.5t-133.5 17.5q-18 0 -50 -1t-65.5 -3.5t-67.5 -5.5t-58 -7v-991h-267v825l50 125q-39 -12 -70 -28.5 t-53 -28.5zM602 631v131h242v-225q0 -76 26.5 -136.5t69.5 -102.5t97.5 -64.5t109.5 -22.5q63 0 128.5 18.5t119 57.5t87.5 101.5t34 148.5v649h241v-555q0 -129 -32.5 -247t-106.5 -207t-190.5 -142t-284.5 -53q-152 0 -254.5 46t-167 130t-92 205t-27.5 268z" />
<glyph unicode="'" horiz-adv-x="530" d="M53 897l125 533h213l-198 -533h-140z" />
<glyph unicode="(" horiz-adv-x="589" d="M53 623q0 332 209 698h250q-199 -319 -199 -686q0 -358 199 -688h-250q-209 338 -209 676z" />
<glyph unicode=")" horiz-adv-x="651" d="M53 -53q199 319 199 686q0 358 -199 688h250q209 -338 209 -676q0 -334 -209 -698h-250z" />
<glyph unicode="*" horiz-adv-x="784" d="M55 1028q-4 86 51 170l216 -119l-56 250q31 12 84 12q45 0 76 -12l-37 -262l201 135q51 -76 55 -168l-237 -39l182 -164q-41 -78 -127 -108l-115 225l-84 -233q-80 20 -143 98l178 195z" />
<glyph unicode="+" horiz-adv-x="735" d="M53 535v204h178v191h189v-191h176v-204h-176v-193h-189v193h-178z" />
<glyph unicode="," horiz-adv-x="571" d="M53 -160l125 533h254l-199 -533h-180z" />
<glyph unicode="-" horiz-adv-x="739" d="M53 535v204h547v-204h-547z" />
<glyph unicode="." horiz-adv-x="415" d="M53 2v238h223v-238h-223z" />
<glyph unicode="/" horiz-adv-x="987" d="M53 18l535 1237h260l-533 -1237h-262z" />
<glyph unicode="0" horiz-adv-x="1056" d="M53 625q0 178 33 298.5t91.5 194.5t138 105.5t171.5 31.5t171 -30.5t136.5 -103t90.5 -194.5t33 -302q0 -170 -33 -290t-90.5 -196t-136 -110.5t-171.5 -34.5q-92 0 -171.5 29.5t-138 101.5t-91.5 194t-33 306zM313 500q0 -283 174 -277q55 2 90 22.5t53.5 56.5t25 86 t6.5 112v233q0 55 -5.5 103.5t-23 83t-52 55t-94.5 22.5q-174 2 -174 -264v-233z" />
<glyph unicode="1" horiz-adv-x="681" d="M53 748v290l240 201h250v-1237h-248v936z" />
<glyph unicode="2" horiz-adv-x="1030" d="M53 815v86q0 78 29 147.5t83 122t130 83t168 30.5q104 0 183 -36t130 -95t74.5 -135t20.5 -155t-33.5 -154.5t-89.5 -135.5l-353 -356h496v-217h-811l2 164l489 557q35 39 50.5 97.5t5 112.5t-49 93t-112.5 39q-31 0 -61.5 -10.5t-56 -29.5t-41 -47t-15.5 -61v-100h-238z " />
<glyph unicode="3" horiz-adv-x="987" d="M53 289v162h244v-62q0 -74 43 -125t115 -51q63 0 102 44t39 108q0 25 -3 43t-11.5 37.5t-22.5 42t-37 53.5l-135 190v43l223 221h-481v244h688v-256l-166 -178l99 -150q74 -113 91 -233.5t-23 -220t-137 -163t-251 -63.5q-76 0 -143.5 19.5t-119.5 59.5t-83 98.5 t-31 136.5z" />
<glyph unicode="4" horiz-adv-x="1046" d="M53 272v222l420 745h342v-729h92v-238h-92v-270h-250v270h-512zM264 510h301v487z" />
<glyph unicode="5" horiz-adv-x="931" d="M53 586l66 653h616v-246h-430l-10 -172h172q82 0 143.5 -17.5t102.5 -63.5t61.5 -127t18.5 -207q-2 -86 -22.5 -156t-68.5 -127q-98 -123 -264 -123h-370v219h297q100 0 140 36t40 140q0 98 -24.5 144.5t-102.5 46.5h-365z" />
<glyph unicode="6" horiz-adv-x="1038" d="M53 422v287q0 117 35 216t98.5 172.5t149.5 114.5t190 41q66 0 147 -19.5t158 -53.5l-26 -211q-53 23 -112.5 34t-104.5 11q-61 0 -113.5 -11.5t-91.5 -41t-60.5 -80t-21.5 -125.5v-103q47 57 110.5 86t129.5 29q131 0 213 -57.5t116.5 -144.5t24.5 -187t-63.5 -186.5 t-147.5 -141.5t-225 -53q-92 0 -167 35t-128 93t-82 135t-29 161zM305 387q0 -61 25.5 -101t64.5 -59.5t85 -19.5t87 20.5t72 62.5t39 103q8 66 -37 106t-108.5 51t-129 -6.5t-98.5 -68.5v-88z" />
<glyph unicode="7" horiz-adv-x="944" d="M53 991v244h752v-184l-332 -1053h-266l340 993h-494z" />
<glyph unicode="8" horiz-adv-x="1064" d="M53 324q0 203 240 317q-217 61 -217 270q0 129 84 213q59 66 146 94.5t200 24.5q76 -2 147.5 -23.5t127 -59.5t88 -92t32.5 -120q0 -170 -215 -264q240 -115 240 -330q0 -150 -117 -252q-125 -113 -317 -116q-184 -4 -312 92q-127 96 -127 246zM309 356 q0 -72 51.5 -113.5t120.5 -41.5q78 0 125 47t47 112q-2 150 -207 172q-137 -74 -137 -176zM328 915q0 -104 176 -141q147 51 147 148q0 55 -50 87.5t-120 32.5q-66 2 -109.5 -36t-43.5 -91z" />
<glyph unicode="9" horiz-adv-x="1038" d="M57.5 862.5q10.5 100.5 63.5 186.5t147 141t226 53q92 0 166.5 -34.5t128 -93t82 -135.5t28.5 -161v-330q0 -96 -35 -187t-98.5 -160.5t-149.5 -111.5t-190 -42q-66 0 -146.5 19.5t-158.5 53.5l26 211q53 -23 112.5 -34t105.5 -11q61 0 113 8.5t91 33t60.5 68.5t21.5 116 v135q-47 -57 -110.5 -86t-128.5 -29q-131 0 -213 57.5t-117 144.5t-24.5 187.5zM274 848q-6 -43 13.5 -76t53.5 -53.5t78 -27.5t88 -2t81 23.5t59 53.5v88q0 90 -53 138t-119.5 50t-126.5 -46t-74 -148z" />
<glyph unicode=":" horiz-adv-x="450" d="M53 8v283h258v-283h-258zM53 643v283h258v-283h-258z" />
<glyph unicode=";" horiz-adv-x="571" d="M53 -160l125 533h254l-199 -533h-180zM174 643v283h258v-283h-258z" />
<glyph unicode="&#x3c;" horiz-adv-x="784" d="M53 598l406 625h268l-403 -627l403 -610h-268z" />
<glyph unicode="=" horiz-adv-x="735" d="M53 358v205h543v-205h-543zM53 684v203h543v-203h-543z" />
<glyph unicode="&#x3e;" horiz-adv-x="784" d="M53 -14l404 610l-404 627h269l405 -625l-405 -612h-269z" />
<glyph unicode="?" horiz-adv-x="1021" d="M74 997v136q0 86 33.5 147t88 101t124 59.5t143.5 19.5q147 0 248.5 -46t150.5 -119.5t45 -163t-65 -175.5l-146 -204q-29 -39 -41 -81t-12 -83v-129h-250v168q0 47 16.5 99t55.5 105l141 195q29 39 35 81t-11.5 76t-61.5 54t-115 16q-76 -4 -110 -38.5t-34 -116.5v-101 h-235zM395 0v217h223v-217h-223z" />
<glyph unicode="@" horiz-adv-x="1529" d="M29 432q0 131 82 281q102 193 307 317q205 129 418 129q285 0 448 -166q166 -164 166 -448q0 -104 -70 -242q-72 -139 -151 -190q-63 -39 -168 -39q-145 0 -180 139q-104 -141 -242 -141q-213 0 -213 266q0 109 68 231q63 117 159 185q76 57 142 57q82 0 116 -18 q45 -20 78 -88l23 83h149l-141 -538q-2 -10 -2 -19.5t-2 -17.5q0 -66 88 -66q94 0 172 111q111 160 110 299q0 233 -145 385q-143 150 -383 150q-186 0 -350 -109t-246 -274q-68 -141 -67 -336q0 -184 90 -324q94 -147 260 -211q98 -37 188 -37q156 0 246 19q127 25 225 94 l31 -47q-186 -137 -485 -137q-250 0 -471 184q-250 209 -250 518zM584 311q0 -168 96 -168q80 0 147 82q55 72 80 158q45 160 45 211q0 53 -20 92q-27 51 -72 51q-86 0 -180 -123q-96 -127 -96 -303z" />
<glyph unicode="A" horiz-adv-x="1394" d="M37 0v49h184l463 1290h37l463 -1290h186v-49h-637v49h213l-129 357h-411l-127 -357h245v-49h-487zM424 455h375l-189 518z" />
<glyph unicode="B" horiz-adv-x="1261" d="M51 0v49h182v1223h-182v49h625q164 0 291 -72q150 -82 149 -239q0 -225 -285 -293q133 -31 232 -121q100 -100 100 -236q0 -186 -149 -280q-123 -80 -322 -80h-641zM457 49h219q141 0 200.5 72t59.5 215v47q0 305 -260 305h-219v-639zM457 737h219q121 0 174 68 q45 57 45 188v33q0 246 -219 246h-219v-535z" />
<glyph unicode="C" horiz-adv-x="1292" d="M72 662q0 272 192 477q193 205 465 204q195 0 332 -100l76 72q20 18 34 18q25 0 25 -39v-315q0 -33 -18 -33q-14 0 -21 17l-4 10q-127 317 -424 317q-379 0 -379 -524v-217q0 -532 369 -533q285 0 457 369q12 27 28 27q20 0 21 -29v-375q0 -23 -23 -22q-12 0 -24 12 l-107 106q-145 -141 -352 -141q-264 0 -459 219q-188 214 -188 480z" />
<glyph unicode="D" horiz-adv-x="1396" d="M57 0v49h187v1223h-187v49h633q293 0 479 -174q190 -182 191 -471q0 -303 -182 -492q-182 -184 -488 -184h-633zM467 49h219q422 0 422 578v98q0 240 -90 379q-106 168 -332 168h-219v-1223z" />
<glyph unicode="E" horiz-adv-x="1210" d="M59 1272v49h953q63 0 63 -55v-295q0 -35 -24 -35q-25 0 -27 37q-6 111 -57 192q-63 106 -191 107h-311v-551h158q78 0 110 51q8 12 18.5 42t20.5 77q10 35 25 35q23 0 22 -33v-393q0 -35 -22 -35q-14 0 -37 72q-8 23 -14.5 45t-14.5 45q-31 45 -108 45h-158v-623h330 q133 0 196 88q47 70 84 234q10 47 33 47q25 0 25 -56v-290q0 -72 -70 -72h-1000v49h179v1223h-183z" />
<glyph unicode="F" horiz-adv-x="1155" d="M70 1272v49h952q61 0 61 -55v-295q0 -35 -24 -35q-25 0 -27 37q-6 111 -57 192q-63 106 -191 107h-311v-551h158q78 0 110 51q8 12 18.5 42t20.5 77q10 35 25 35q23 0 22 -33v-393q0 -35 -22 -35q-14 0 -37 72q-8 23 -14 45t-15 45q-31 45 -108 45h-158v-623h182v-49 h-581v49h176v1223h-180z" />
<glyph unicode="G" horiz-adv-x="1411" d="M68 653q0 276 190 484q190 207 465 206q205 0 336 -106l84 78q20 18 37 18q27 0 26 -30v-367q0 -27 -22 -27q-20 0 -29 25q-123 356 -432 356q-207 0 -301 -162q-78 -133 -78 -352v-237q0 -223 76 -355q94 -168 301 -168q266 0 266 254v174h-227v50h645v-50h-182v-57 q0 -213 -152 -324q-131 -100 -354 -100q-266 0 -461 213q-188 207 -188 477z" />
<glyph unicode="H" horiz-adv-x="1445" d="M59 0v49h183v1223h-183v49h588v-49h-182v-545h541v545h-183v49h586v-49h-180v-1223h180v-49h-586v49h183v627h-541v-627h182v-49h-588z" />
<glyph unicode="I" horiz-adv-x="749" d="M82 0v49h180v1223h-180v49h586v-49h-183v-1223h183v-49h-586z" />
<glyph unicode="J" horiz-adv-x="780" d="M16 -16q0 111 105 110q43 0 70.5 -26.5t27.5 -69.5q0 -94 -88 -107q43 -37 113 -36q84 0 112 53q23 41 23 133v1231h-195v49h576v-49h-158v-1157q0 -313 -344 -314q-80 0 -158 47q-84 56 -84 136z" />
<glyph unicode="K" horiz-adv-x="1417" d="M63 0v49h168v1223h-168v49h560v-49h-168v-1223h168v-49h-560zM449 723l595 549h-167v49h434v-49h-185l-485 -447l590 -776h172v-49h-615v49h175z" />
<glyph unicode="L" horiz-adv-x="1263" d="M53 0v49h183v1223h-183v49h606v-49h-200v-1223h424q131 0 194 88q47 70 84 234q10 47 33 47q27 0 27 -56v-290q0 -72 -72 -72h-1096z" />
<glyph unicode="M" horiz-adv-x="1681" d="M63 0v49h168v1223h-168v49h406l381 -979l369 979h405v-49h-168v-1223h168v-49h-559v49h168v1157l-455 -1206h-41l-454 1198v-1149h170v-49h-390z" />
<glyph unicode="N" horiz-adv-x="1386" d="M47 0v49h182v1223h-182v49h430l641 -963v914h-182v49h416v-49h-183v-1288h-86l-802 1210v-1145h182v-49h-416z" />
<glyph unicode="O" horiz-adv-x="1458" d="M76 655q0 274 194 482q195 207 467 206q272 0 467 -206q197 -207 197 -482q0 -274 -197 -483q-195 -209 -467 -209q-268 0 -469 213q-192 205 -192 479zM352 557q0 -541 385 -541q387 0 387 541v195q0 252 -67 374q-92 164 -320 164q-223 0 -315 -166q-70 -125 -70 -372 v-195z" />
<glyph unicode="P" horiz-adv-x="1142" d="M51 0v49h182v1223h-182v49h594q186 0 309 -86q139 -96 140 -274q0 -172 -131 -273q-119 -88 -297 -88h-209v-551h180v-49h-586zM457 649h209q221 0 221 277v69q0 276 -242 277h-188v-623z" />
<glyph unicode="Q" horiz-adv-x="1435" d="M76 653q0 274 194 482q193 209 467 208q272 0 467 -208q197 -207 197 -482q0 -238 -150 -430q-150 -197 -372 -248v-34q0 -344 327 -344q29 0 29 -23q0 -20 -29 -20q-293 0 -418 61q-164 80 -186 317l-4 43q-225 53 -375 248q-147 197 -147 430zM352 555q0 -543 385 -543 q387 0 387 543v195q0 250 -67 376q-90 164 -320 164q-223 0 -315 -168q-70 -125 -70 -372v-195z" />
<glyph unicode="R" horiz-adv-x="1325" d="M57 0v49h183v1223h-183v49h605q176 0 301 -76q150 -88 149 -254q0 -244 -307 -311q197 -53 258 -166q41 -78 47 -291q4 -102 12 -127q14 -43 76 -43q51 0 90 27q16 4 19 4q14 0 14 -14q0 -33 -98 -64q-78 -23 -142 -22q-104 0 -153 55t-60 160q-2 29 -5 80t-9 122 q-29 264 -225 265h-166v-617h182v-49h-588zM463 715h199q231 0 231 241v70q0 246 -231 246h-199v-557z" />
<glyph unicode="S" horiz-adv-x="1142" d="M109 8v348q0 35 24 35q23 0 33 -31q39 -152 160 -247q121 -96 274 -97q131 0 234 78q104 86 104 217q0 137 -117 191q-43 18 -89 34.5t-95 30.5q-154 45 -209 62q-289 88 -289 327q0 180 137 287q125 100 310 100q152 0 303 -77l55 65q14 20 31 21q23 0 22 -29v-346 q0 -29 -24 -29q-27 0 -29 27q-20 147 -114.5 231t-243.5 84q-119 0 -203 -53q-98 -66 -98 -176q0 -129 127 -176q27 -10 119 -36t257 -71q285 -76 285 -358q0 -199 -141 -328t-344 -129q-188 0 -346 127l-70 -92q-18 -25 -35 -25q-28 0 -28 35z" />
<glyph unicode="T" horiz-adv-x="1306" d="M55 932l33 348q4 41 51 41h1041q47 0 51 -41l33 -348h-64q-20 129 -74 219q-74 121 -184 121h-172v-1223h182v-49h-585v49h180v1223h-172q-111 0 -185 -121q-53 -90 -73 -219h-62z" />
<glyph unicode="U" horiz-adv-x="1345" d="M37 1272v49h586v-49h-181v-940q0 -150 81 -233t229 -83q147 0 239 84t92 232v940h-182v49h416v-49h-180v-940q0 -188 -127 -285q-115 -84 -308 -84q-205 0 -329 82q-154 94 -154 287v940h-182z" />
<glyph unicode="V" horiz-adv-x="1333" d="M14 1272v49h588v-49h-186l358 -967l338 967h-178v49h395v-49h-153l-453 -1292h-49l-475 1292h-185z" />
<glyph unicode="W" horiz-adv-x="1896" d="M47 1272v49h1346v-49h-131l-172 -449l200 -534l377 983h-176v49h383v-49h-148l-493 -1292h-41l-229 587l-224 -587h-41l-491 1292h-160zM426 1272l373 -979l135 352l-236 627h-272zM918 1272l143 -373l143 373h-286z" />
<glyph unicode="X" horiz-adv-x="1445" d="M45 0v49h188l398 584l-395 639h-187v49h625v-49h-185l279 -451l303 451h-197v49h461v-49h-192l-340 -504l442 -719h166v-49h-584v49h164l-327 531l-361 -531h203v-49h-461z" />
<glyph unicode="Y" horiz-adv-x="1396" d="M57 1272v49h609v-49h-187l336 -520l311 520h-196v49h448v-49h-174l-344 -576v-647h201v-49h-627v49h203v598l-406 625h-174z" />
<glyph unicode="Z" horiz-adv-x="1073" d="M63 0v61l721 1211h-391q-262 0 -272 -305h-47v354h940v-57l-729 -1215h387q162 0 235 101q61 86 70 258h51v-408h-965z" />
<glyph unicode="[" horiz-adv-x="706" d="M53 -371v1936h473v-195h-227v-1546h233v-195h-479z" />
<glyph unicode="\" horiz-adv-x="987" d="M53 1255h262l533 -1237h-260z" />
<glyph unicode="]" horiz-adv-x="706" d="M53 -176h234v1546h-228v195h473v-1936h-479v195z" />
<glyph unicode="^" horiz-adv-x="919" d="M29 502l331 686h125l332 -686h-127l-268 553l-268 -553h-125z" />
<glyph unicode="_" horiz-adv-x="827" d="M0 -127h827v-192h-827v192z" />
<glyph unicode="a" horiz-adv-x="933" d="M86 154q0 150 168 223q127 55 295 57v219q0 102 -131 103q-125 0 -125 -35l6 -6q4 -4 12 -10q29 -29 29 -62q0 -76 -88 -76q-86 0 -86 80q0 84 117 125q74 27 184 27q283 0 283 -183v-464q0 -111 49 -111q55 0 90 68q8 20 22 20q16 0 17 -18q0 -63 -76 -103 q-66 -35 -129 -35q-133 0 -162 97q-90 -96 -237 -97q-238 1 -238 181zM270 203q0 -162 125 -162q37 0 94 33q59 35 60 65v258q-66 -4 -113 -14t-76 -25q-90 -46 -90 -155z" />
<glyph unicode="b" horiz-adv-x="1093" d="M57 0v49h162v1223h-162v49h361v-612q86 96 221 96q158 0 281 -127q125 -125 124 -285q0 -156 -120 -289q-121 -129 -279 -129q-133 0 -227 107v-82h-361zM418 170q86 -145 221 -145q168 0 168 325v88q0 137 -23 209q-41 109 -153 109q-127 0 -213 -135v-451z" />
<glyph unicode="c" horiz-adv-x="864" d="M59 383q0 176 134 297q131 119 313 119q96 0 180 -39q109 -47 109 -129q0 -90 -103 -90q-100 0 -100 86q0 33 18.5 62.5t18.5 31.5q0 12 -58 20q-23 4 -41 6.5t-28 2.5q-129 0 -174 -105q-29 -74 -29 -219v-84q0 -164 25 -221q43 -100 178 -101q98 0 177 51.5t109 143.5 q8 25 29 25q25 0 25 -25q0 -6 -2 -10l-2 -8q-18 -76 -101 -144q-96 -80 -241 -80q-178 0 -303 117q-134 121 -134 293z" />
<glyph unicode="d" horiz-adv-x="1093" d="M66 391q0 160 124 285q125 129 281 129q139 0 219 -88v555h-160v49h361v-1272h160v-49h-361v84q-96 -111 -225 -111q-152 0 -277 131q-122 131 -122 287zM303 344q0 -135 23 -207q37 -115 147 -114q121 0 217 145v448q-86 139 -211 140q-113 0 -153 -109 q-23 -68 -23 -207v-96z" />
<glyph unicode="e" horiz-adv-x="915" d="M57 379q0 164 121 291q123 129 285 129q180 0 289 -129q86 -104 86 -198q0 -29 -43 -30h-498v-188q0 -233 178 -234q223 0 324 218q12 25 28 24q20 0 21 -22q0 -16 -6 -31q-94 -236 -371 -236q-174 0 -293 119q-121 121 -121 287zM297 492h303q20 0 21 79q0 178 -156 179 q-168 0 -168 -191v-67z" />
<glyph unicode="f" horiz-adv-x="720" d="M41 0v49h158v680h-156v49h156v74q0 221 43 313q80 170 254 170q72 0 129 -32q72 -41 71 -105q0 -78 -75 -78q-82 0 -82 74q0 47 47 70q0 23 -86 22q-100 0 -101 -137v-371h170v-49h-170v-680h158v-49h-516z" />
<glyph unicode="g" horiz-adv-x="899" d="M63 -295q0 141 160 207q-156 39 -155 188q0 131 165 185q-158 84 -157 237q0 111 90 191q98 86 258 86q143 0 215 -49q80 80 160 79q88 0 88 -69q0 -66 -72 -66q-78 0 -78 64q0 10 2 14q-14 -8 -29.5 -21.5t-31.5 -29.5q94 -82 94 -199q0 -100 -76 -176 q-98 -102 -272 -102q-78 0 -121 14q-164 -41 -164 -123q0 -74 125 -74h340q264 0 264 -245q0 -166 -131 -254q-117 -80 -286 -80q-388 0 -388 223zM182 -258q0 -211 277 -211q115 0 203 45q111 55 110 160q0 78 -60.5 123t-142.5 45h-268q-47 0 -84 -56q-35 -59 -35 -106z M285 487q0 -86 22 -135q35 -59 117 -59t117 59q23 49 22 135v66q0 90 -22 139q-31 57 -117 58q-86 0 -117 -58q-23 -49 -22 -139v-66z" />
<glyph unicode="h" horiz-adv-x="1136" d="M53 0v49h150v1223h-150v49h348v-655q98 139 304 139q252 0 251 -187v-569h148v-49h-494v49h146v547q0 141 -117 141q-84 0 -160 -67q-78 -66 -78 -146v-475h148v-49h-496z" />
<glyph unicode="i" horiz-adv-x="620" d="M68 0v49h157v680h-157v49h356v-729h160v-49h-516zM205 1126q0 47 34.5 79t84.5 32q49 0 83.5 -31.5t34.5 -79.5q0 -47 -35.5 -77.5t-82.5 -30.5t-83 30.5t-36 77.5z" />
<glyph unicode="j" horiz-adv-x="577" d="M-43 -383q0 43 28.5 71.5t71.5 28.5q41 0 69 -26.5t28 -67.5q0 -59 -45 -86q16 -4 32 -4q55 0 87 37t32 94v1063h-170v49h371v-833q0 -184 -66 -305q-84 -154 -252 -154q-72 0 -123 33q-63 37 -63 100zM229 1126q0 47 35 79t84 32t84 -31.5t35 -79.5q0 -47 -35 -78.5 t-84 -31.5t-84 31.5t-35 78.5z" />
<glyph unicode="k" horiz-adv-x="1138" d="M55 0v49h170v1223h-170v49h369v-858h47l293 266h-166v49h414v-49h-172l-238 -219l371 -461h151v-49h-528v49h139l-278 365h-33v-365h149v-49h-518z" />
<glyph unicode="l" horiz-adv-x="602" d="M66 0v49h147v1223h-147v49h346v-1272h147v-49h-493z" />
<glyph unicode="m" horiz-adv-x="1607" d="M59 0v49h138v674h-138v49h338v-125q100 141 308 141q178 0 206 -145q98 145 310 145q211 0 211 -180v-559h137v-49h-471v49h133v539q0 135 -98 135q-80 0 -150 -70q-70 -68 -70 -145v-459h138v-49h-473v49h137v539q0 53 -10 84q-20 51 -91 51q-66 0 -141 -68 q-76 -63 -76 -131v-475h135v-49h-473z" />
<glyph unicode="n" horiz-adv-x="1120" d="M68 0v49h147v674h-147v47h346v-123q98 139 288 139q231 0 232 -186v-551h147v-49h-495v49h147v539q0 135 -108 135q-72 0 -142 -68t-69 -139v-467h147v-49h-493z" />
<glyph unicode="o" horiz-adv-x="942" d="M51 385q0 164 131 289t297 125q170 0 295 -125q129 -127 129 -289q0 -164 -129 -289q-129 -123 -295 -123t-297 123q-131 125 -131 289zM289 344q0 -156 22 -219q39 -104 168 -105q129 0 166 107q20 49 21 217v84q0 152 -23 215q-39 106 -164 107q-127 0 -166 -107 q-25 -61 -24 -215v-84z" />
<glyph unicode="p" horiz-adv-x="1054" d="M45 -477h137v1198h-137v51h338v-84q94 111 225 111q160 0 281 -129q123 -127 123 -287q0 -166 -123 -291q-121 -127 -285 -127q-139 0 -221 94v-536h137v-49h-475v49zM383 186q0 -66 78 -118q70 -49 139 -50q117 0 154 111q20 55 20 213v88q0 133 -22 205 q-37 115 -146 115q-76 0 -145 -56q-78 -59 -78 -131v-377z" />
<glyph unicode="q" horiz-adv-x="1073" d="M70 383q0 156 123 283t280 127q141 0 229 -107v84h336v-49h-137v-1198h137v-49h-473v49h137v538q-90 -96 -225 -96q-160 0 -284 129q-123 129 -123 289zM307 289q0 -129 25 -187q39 -86 149 -86q45 0 85 15.5t71 42t48 63.5t17 80v328q0 76 -73 141q-70 63 -154 64 q-168 0 -168 -248v-213z" />
<glyph unicode="r" horiz-adv-x="843" d="M37 0v49h147v674h-147v49h348v-92q90 109 238 108q84 0 135 -32q66 -41 65 -115q0 -49 -32.5 -77.5t-81.5 -28.5t-83 26.5t-34 73.5q0 63 51 90q6 2 6 6q0 8 -49 8q-68 0 -141 -55q-74 -53 -74 -119v-516h147v-49h-495z" />
<glyph unicode="s" horiz-adv-x="751" d="M88 8v207q0 25 23 25q18 0 24 -25q55 -195 266 -195q80 0 138 33q74 39 73 113q0 86 -125 129q-16 2 -196 43q-188 41 -189 207q0 59 22.5 106t61.5 80t91.5 50.5t113.5 17.5q96 0 160 -51l41 38l6 5q8 8 16 8q14 0 15 -23v-207q0 -20 -17 -20q-20 0 -22 18 q-14 82 -69.5 132.5t-141.5 50.5q-63 0 -115 -31q-61 -35 -61 -92q0 -61 123 -99q45 -10 89 -19t89 -20q199 -57 198 -245q0 -129 -81.5 -200t-212.5 -71q-156 0 -238 76l-39 -51q-8 -14 -20 -14q-23 -1 -23 24z" />
<glyph unicode="t" horiz-adv-x="712" d="M39 727v49h143v217l201 92v-309h205v-49h-205v-518q0 -176 127 -176q111 0 133 133q4 29 29 29q20 0 20 -25q0 -16 -2 -20q-35 -176 -252 -177q-119 0 -187.5 61.5t-68.5 178.5v514h-143z" />
<glyph unicode="u" horiz-adv-x="1138" d="M47 723v47h348v-588q0 -68 17 -96q23 -35 90 -35q78 0 153 64q80 63 80 137v471h-147v47h348v-721h147v-49h-348v123q-109 -145 -317 -146q-223 0 -223 218v528h-148z" />
<glyph unicode="v" horiz-adv-x="1034" d="M43 723v47h498v-47h-144l211 -471l205 471h-145v47h331v-47h-129l-319 -731h-29l-338 731h-141z" />
<glyph unicode="w" horiz-adv-x="1368" d="M47 723v47h479v-47h-135l178 -447l174 494h29l215 -496l152 449h-172v47h372v-47h-147l-256 -746h-29l-215 494l-178 -494h-31l-295 746h-141z" />
<glyph unicode="x" horiz-adv-x="1060" d="M53 723v47h465v-47h-129l182 -240l195 240h-125v47h334v-47h-139l-232 -283l299 -391h131v-49h-495v49h149l-199 262l-215 -262h146v-49h-357v49h146l248 305l-281 369h-123z" />
<glyph unicode="y" horiz-adv-x="1067" d="M53 721v49h514v-49h-155l229 -496l207 496h-152v49h351v-49h-142l-432 -1036q-82 -199 -246 -199q-117 0 -116 92q0 80 84 80q61 0 90 -55q12 -23 24 -23q66 0 115 121l121 293l-348 727h-144z" />
<glyph unicode="z" horiz-adv-x="847" d="M100 0v53l463 670h-196q-162 0 -185 -201h-43v248h633v-57l-455 -664h230q188 0 205 221h43v-270h-695z" />
<glyph unicode="{" horiz-adv-x="759" d="M53 604q102 98 103 207v416q0 76 22.5 130t72.5 89t132 49t203 10l-49 -188q-49 0 -78 -5t-45.5 -21.5t-21.5 -50.5t-5 -91v-338q0 -121 -127 -207q63 -35 95 -93t32 -112v-364q0 -57 4 -86t18.5 -40t44.5 -11h83l47 -185q-117 -12 -199 -9t-132 34t-73.5 96.5 t-23.5 177.5v387q-1 103 -103 205z" />
<glyph unicode="|" horiz-adv-x="444" d="M53 -371v2079h252v-2079h-252z" />
<glyph unicode="}" horiz-adv-x="759" d="M53 1505q119 4 202 -10t133 -49t72.5 -89t22.5 -130v-416q0 -109 103 -207q-102 -102 -103 -205v-387q0 -113 -23.5 -178t-73.5 -96t-132 -34t-199 9l47 185h82q31 0 45.5 11t18.5 39.5t4 86.5v364q0 53 31.5 111.5t95.5 93.5q-127 86 -127 207v338q0 57 -5 91 t-21.5 50.5t-45 21.5t-78.5 5z" />
<glyph unicode="~" horiz-adv-x="1003" d="M70 391v23q0 111 65.5 185.5t177.5 74.5q72 0 119 -25l246 -164q47 -29 72 -28q82 0 81 131h66q0 -113 -70 -201q-78 -96 -184 -96q-70 0 -131 43l-213 147q-39 27 -80 27q-82 0 -82 -117h-67z" />
<glyph unicode="&#xa1;" d="M-369 -256q0 35 25 59.5t61 24.5q37 0 61.5 -23.5t24.5 -60.5t-24.5 -61.5t-61.5 -24.5t-61.5 24.5t-24.5 61.5zM-221 -494q0 35 26.5 61.5t61.5 26.5q37 0 61.5 -25.5t24.5 -62.5t-24.5 -61.5t-61.5 -24.5t-62.5 24.5t-25.5 61.5zM-70 -256q0 35 25 59.5t61 24.5 q37 0 61.5 -24.5t24.5 -59.5q0 -37 -24.5 -61.5t-61.5 -24.5q-35 0 -60.5 25.5t-25.5 60.5zM195 -256q0 37 25.5 60.5t62.5 23.5q35 0 60.5 -24.5t25.5 -59.5q0 -37 -25 -61.5t-61 -24.5q-37 0 -62.5 24.5t-25.5 61.5zM195 -506q0 35 25.5 60.5t60.5 25.5q37 0 61.5 -24.5 t24.5 -61.5t-25 -61.5t-61 -24.5q-37 0 -61.5 24.5t-24.5 61.5z" />
<glyph unicode="&#x5b1;" d="M-369 -256q0 35 25 59.5t61 24.5q37 0 61.5 -23.5t24.5 -60.5t-24.5 -61.5t-61.5 -24.5t-61.5 24.5t-24.5 61.5zM-221 -494q0 35 26.5 61.5t61.5 26.5q37 0 61.5 -25.5t24.5 -62.5t-24.5 -61.5t-61.5 -24.5t-62.5 24.5t-25.5 61.5zM-70 -256q0 35 25 59.5t61 24.5 q37 0 61.5 -24.5t24.5 -59.5q0 -37 -24.5 -61.5t-61.5 -24.5q-35 0 -60.5 25.5t-25.5 60.5zM195 -256q0 37 25.5 60.5t62.5 23.5q35 0 60.5 -24.5t25.5 -59.5q0 -37 -25 -61.5t-61 -24.5q-37 0 -62.5 24.5t-25.5 61.5zM195 -506q0 35 25.5 60.5t60.5 25.5q37 0 61.5 -24.5 t24.5 -61.5t-25 -61.5t-61 -24.5q-37 0 -61.5 24.5t-24.5 61.5z" />
<glyph unicode="&#xa2;" horiz-adv-x="1024" d="M109 440q0 225 131 363q133 139 350 139q6 0 24.5 -3t49.5 -7l90 254h71l-96 -277q154 -53 154 -172q0 -37 -23.5 -64.5t-60.5 -27.5q-78 0 -123 107l-207 -596q70 -25 117 -25q102 0 180 59q57 47 125 146l27 -17q-154 -338 -396 -337q-41 0 -110 18l-101 -283h-69 l104 308q-237 120 -237 415zM266 532q0 -217 140 -331l235 661q-47 18 -98 19q-137 0 -211 -111q-66 -97 -66 -238z" />
<glyph unicode="&#xa3;" horiz-adv-x="1024" d="M25 109q0 78 57 120q51 37 133 37q16 0 38.5 -3t51.5 -7l6 35q0 39 -4 86t-12 104q-6 47 -12.5 95.5t-14.5 95.5h-221v92h219q-8 33 -11 67.5t-3 69.5q0 207 94 338q109 145 305 145q100 0 176 -45q90 -53 91 -145q0 -45 -28 -77t-73 -32q-70 0 -78 64l-10 117 q-20 63 -108 63q-102 0 -154 -92q-41 -78 -41 -186q0 -49 6 -121t17 -166h256v-92h-250q2 -20 2 -44v-53q0 -102 -49 -348q166 -72 307 -71q88 0 151 39q10 6 42 29.5t83 64.5l13 -10q0 -25 -25 -76q-98 -217 -324 -217q-117 0 -290 125q-109 -127 -203 -127q-59 0 -98 34 t-39 91zM78 115q0 -74 82 -74q47 0 89 35t42 82q0 16 -51 24q-23 4 -39.5 7.5t-26.5 3.5q-96 0 -96 -78z" />
<glyph unicode="&#xa5;" horiz-adv-x="841" d="M92.7988 870.393q0 121.795 143.994 190.191q-130.195 36.5986 -130.195 161.994q0 77.3965 50.3984 127.795q35.3984 39.5977 87.5967 56.6973q52.1973 17.0996 119.995 14.6992q45.5977 -1.2002 88.4961 -14.0996t76.1973 -35.6982t52.7979 -55.1982 q19.499 -32.3984 19.499 -71.9961q0 -101.996 -128.995 -158.395q143.994 -68.9971 143.994 -197.991q0 -89.9971 -70.1973 -151.194q-74.9971 -67.7969 -190.192 -69.5967q-110.395 -2.40039 -187.191 55.1973q-76.1973 57.5977 -76.1973 147.595zM246.393 889.592 q0 -43.1992 30.8984 -68.0977q30.8984 -24.8994 72.2969 -24.8994q46.7988 0 74.9971 28.1992q28.1992 28.1992 28.1992 67.1973q-1.2002 89.9961 -124.195 103.196q-82.1963 -44.3984 -82.1963 -105.596zM257.792 1224.98q0 -62.3975 105.596 -84.5967 q88.1963 30.5986 88.1963 88.7969q0 32.998 -29.999 52.498q-29.998 19.499 -71.9971 19.499q-39.5977 1.2002 -65.6973 -21.5996q-26.0986 -22.7988 -26.0986 -54.5977z" />
<glyph unicode="&#xb4;" horiz-adv-x="841" d="M92.7988 870.393q0 121.795 143.994 190.191q-130.195 36.5986 -130.195 161.994q0 77.3965 50.3984 127.795q35.3984 39.5977 87.5967 56.6973q52.1973 17.0996 119.995 14.6992q45.5977 -1.2002 88.4961 -14.0996t76.1973 -35.6982t52.7979 -55.1982 q19.499 -32.3984 19.499 -71.9961q0 -101.996 -128.995 -158.395q143.994 -68.9971 143.994 -197.991q0 -89.9971 -70.1973 -151.194q-74.9971 -67.7969 -190.192 -69.5967q-110.395 -2.40039 -187.191 55.1973q-76.1973 57.5977 -76.1973 147.595zM246.393 889.592 q0 -43.1992 30.8984 -68.0977q30.8984 -24.8994 72.2969 -24.8994q46.7988 0 74.9971 28.1992q28.1992 28.1992 28.1992 67.1973q-1.2002 89.9961 -124.195 103.196q-82.1963 -44.3984 -82.1963 -105.596zM257.792 1224.98q0 -62.3975 105.596 -84.5967 q88.1963 30.5986 88.1963 88.7969q0 32.998 -29.999 52.498q-29.998 19.499 -71.9971 19.499q-39.5977 1.2002 -65.6973 -21.5996q-26.0986 -22.7988 -26.0986 -54.5977z" />
<glyph unicode="&#xa8;" horiz-adv-x="837" d="M92.7988 1050.98q0 106.796 19.7988 179.093q19.7998 72.2979 54.8984 116.695q35.0977 44.3984 82.7959 63.2979t102.896 18.8994q55.1973 0 102.596 -18.2998q47.3975 -18.2988 81.8965 -61.7969q34.499 -43.499 54.2979 -116.695q19.7988 -73.1973 19.7988 -181.193 q0 -101.995 -19.7988 -173.992t-54.2979 -117.596q-34.499 -45.5977 -81.5967 -66.2969t-102.896 -20.6992q-55.1982 0 -102.896 17.6992t-82.7959 60.8975q-35.0986 43.1982 -54.8984 116.396q-19.7988 73.1963 -19.7988 183.592zM248.792 975.988 q0 -169.794 104.396 -166.193q32.998 1.19922 53.9971 13.499q21 12.2998 32.0986 33.8984q11.0996 21.5996 15 51.5986q3.89941 29.998 3.89941 67.1973v139.794q0 32.999 -3.2998 62.0977t-13.7988 49.7979q-10.5 20.6992 -31.1992 32.998q-20.6992 12.2998 -56.6973 13.5 q-104.396 1.2002 -104.396 -158.394v-139.794z" />
<glyph unicode="&#xac;" horiz-adv-x="837" d="M92.7988 1050.98q0 106.796 19.7988 179.093q19.7998 72.2979 54.8984 116.695q35.0977 44.3984 82.7959 63.2979t102.896 18.8994q55.1973 0 102.596 -18.2998q47.3975 -18.2988 81.8965 -61.7969q34.499 -43.499 54.2979 -116.695q19.7988 -73.1973 19.7988 -181.193 q0 -101.995 -19.7988 -173.992t-54.2979 -117.596q-34.499 -45.5977 -81.5967 -66.2969t-102.896 -20.6992q-55.1982 0 -102.896 17.6992t-82.7959 60.8975q-35.0986 43.1982 -54.8984 116.396q-19.7988 73.1963 -19.7988 183.592zM248.792 975.988 q0 -169.794 104.396 -166.193q32.998 1.19922 53.9971 13.499q21 12.2998 32.0986 33.8984q11.0996 21.5996 15 51.5986q3.89941 29.998 3.89941 67.1973v139.794q0 32.999 -3.2998 62.0977t-13.7988 49.7979q-10.5 20.6992 -31.1992 32.998q-20.6992 12.2998 -56.6973 13.5 q-104.396 1.2002 -104.396 -158.394v-139.794z" />
<glyph unicode="&#xa9;" horiz-adv-x="1556" d="M78 676q0 297 203 504q203 205 501 204q295 0 496 -206q201 -207 201 -502t-201 -502q-201 -203 -496 -203q-299 0 -501 203q-203 203 -203 502zM190 676q0 -248 170 -436q172 -182 422 -183q246 0 418 189q166 180 166 430q0 252 -164 434q-170 188 -420 188 q-254 0 -422 -184q-170 -188 -170 -438zM389 694q0 176 135 291q125 104 310 105q61 0 145 -19q109 -23 108 -61v-144h-34q-8 88 -64 133q-72 49 -162 50q-143 0 -217 -105q-63 -88 -63 -242q0 -373 293 -372q170 0 247 176h33l-33 -144q-10 -35 -118 -55q-90 -18 -150 -18 q-197 0 -305 96q-125 112 -125 309z" />
<glyph unicode="&#xaa;" horiz-adv-x="1048" d="M72 90q0 35 116 186l148 185q-262 348 -262 368q0 23 20 23q8 0 33 -25q150 -147 399 -362q-59 -51 -143 -129t-201 -189q-80 -80 -88 -79q-22 -1 -22 22zM502 90q0 35 116 186l148 185q-262 348 -262 368q0 23 20 23q8 0 33 -25q150 -147 399 -362q-59 -51 -143 -129 t-201 -189q-80 -80 -88 -79q-22 -1 -22 22z" />
<glyph unicode="&#xbb;" horiz-adv-x="1048" d="M72 90q0 35 116 186l148 185q-262 348 -262 368q0 23 20 23q8 0 33 -25q150 -147 399 -362q-59 -51 -143 -129t-201 -189q-80 -80 -88 -79q-22 -1 -22 22zM502 90q0 35 116 186l148 185q-262 348 -262 368q0 23 20 23q8 0 33 -25q150 -147 399 -362q-59 -51 -143 -129 t-201 -189q-80 -80 -88 -79q-22 -1 -22 22z" />
<glyph unicode="&#xab;" horiz-adv-x="1048" d="M68 465q209 180 399 362q27 25 33 25q20 0 20 -23q0 -20 -262 -368l148 -185q117 -152 116 -186q0 -23 -22 -22q-8 0 -54 45q-86 86 -180 173t-198 179zM498 465q209 180 399 362q27 25 33 25q20 0 20 -23q0 -20 -262 -368l148 -185q117 -152 116 -186q0 -23 -22 -22 q-8 0 -53 45q-86 86 -180.5 173t-198.5 179z" />
<glyph unicode="&#xad;" horiz-adv-x="739" d="M53 535v204h547v-204h-547z" />
<glyph unicode="&#xae;" horiz-adv-x="821" d="M92.7988 1164.98v51.5977q0 46.7979 17.3994 88.4961t49.7979 73.1973t77.9971 49.7979q45.5977 18.2998 100.796 18.2998q62.3975 0 109.795 -21.5996q47.3984 -21.5996 77.9971 -56.998t44.6982 -80.9961q14.0996 -45.5986 12.2998 -92.9961 q-1.7998 -47.3984 -20.0996 -92.6963q-18.2988 -45.2988 -53.6982 -81.2969l-211.791 -213.592h297.588v-130.194h-486.58l1.2002 98.3965l293.388 334.186q20.999 23.3994 30.2988 58.498t3 67.4971t-29.3984 55.7979q-23.0996 23.3994 -67.498 23.3994 q-18.5986 0 -36.8984 -6.2998q-18.2988 -6.2998 -33.5986 -17.6992q-15.2988 -11.4004 -24.5986 -28.1992t-9.2998 -36.5986v-59.9971h-142.794z" />
<glyph unicode="&#xaf;" horiz-adv-x="796" d="M92.7988 849.393v97.1963h146.394v-37.1982q0 -44.3984 25.7998 -74.9971q25.7988 -30.5986 68.9971 -30.5986q37.7979 0 61.1973 26.3984q23.3994 26.3994 23.3994 64.7979q0 14.999 -1.80078 25.7988q-1.7998 10.7998 -6.89941 22.499t-13.499 25.1992 q-8.40039 13.499 -22.1992 32.0986l-80.9971 113.995v25.7988l133.795 132.595h-288.589v146.395h412.783v-153.594l-99.5957 -106.796l59.3975 -89.9961q44.3984 -67.7979 54.5977 -140.095q10.2002 -72.2969 -13.7988 -131.994q-23.999 -59.6982 -82.1973 -97.7969 q-58.1973 -38.0977 -150.594 -38.0977q-45.5977 0 -86.0967 11.6992q-40.498 11.6992 -71.6963 35.6982q-31.1992 23.999 -49.7979 59.0977q-18.5996 35.0986 -18.5996 81.8965z" />
<glyph unicode="&#xbf;" d="M-86 -254q0 35 24.5 59.5t61.5 24.5t61.5 -23.5t24.5 -60.5t-24.5 -61.5t-61.5 -24.5t-61.5 24.5t-24.5 61.5zM-86 -506q0 35 25.5 60.5t60.5 25.5q37 0 61.5 -24.5t24.5 -61.5t-24.5 -61.5t-61.5 -24.5t-61.5 24.5t-24.5 61.5z" />
<glyph unicode="&#x5b0;" d="M-86 -254q0 35 24.5 59.5t61.5 24.5t61.5 -23.5t24.5 -60.5t-24.5 -61.5t-61.5 -24.5t-61.5 24.5t-24.5 61.5zM-86 -506q0 35 25.5 60.5t60.5 25.5q37 0 61.5 -24.5t24.5 -61.5t-24.5 -61.5t-61.5 -24.5t-61.5 24.5t-24.5 61.5z" />
<glyph unicode="&#xd7;" horiz-adv-x="1130" d="M154 111l299 299l-299 301l110 110l299 -299l301 299l111 -110l-299 -301l297 -297l-113 -111l-297 297l-299 -301z" />
<glyph unicode="&#x2122;" horiz-adv-x="1130" d="M154 111l299 299l-299 301l110 110l299 -299l301 299l111 -110l-299 -301l297 -297l-113 -111l-297 297l-299 -301z" />
<glyph unicode="&#x131;" horiz-adv-x="1105" d="M20 1174h283l258 -562q74 43 107.5 121t33.5 187v254h265v-230q0 -59 -19.5 -126.5t-58.5 -132t-98.5 -123t-137.5 -99.5v-850h-260v807q-92 182 -187.5 377t-185.5 377z" />
<glyph unicode="&#x5e5;" horiz-adv-x="1105" d="M20 1174h283l258 -562q74 43 107.5 121t33.5 187v254h265v-230q0 -59 -19.5 -126.5t-58.5 -132t-98.5 -123t-137.5 -99.5v-850h-260v807q-92 182 -187.5 377t-185.5 377z" />
<glyph unicode="&#x152;" horiz-adv-x="774" d="M55 850l86 305h551l-86 -305h-551z" />
<glyph unicode="&#x5be;" horiz-adv-x="774" d="M55 850l86 305h551l-86 -305h-551z" />
<glyph unicode="&#x153;" d="M-266 1384v111h532v-111h-532z" />
<glyph unicode="&#x5bf;" d="M-266 1384v111h532v-111h-532z" />
<glyph unicode="&#x192;" d="M-86 -256q0 35 24.5 59.5t61.5 24.5t61.5 -23.5t24.5 -60.5t-24.5 -61.5t-61.5 -24.5t-61.5 24.5t-24.5 61.5z" />
<glyph unicode="&#x5b4;" d="M-86 -256q0 35 24.5 59.5t61.5 24.5t61.5 -23.5t24.5 -60.5t-24.5 -61.5t-61.5 -24.5t-61.5 24.5t-24.5 61.5z" />
<glyph unicode="&#x2c6;" horiz-adv-x="1163" d="M74 1174h286q49 -168 112 -312.5t169 -277.5q33 49 54.5 99t34.5 116.5t19.5 155.5t8.5 219h278q0 -150 -20.5 -258.5t-57 -190.5t-89 -146.5t-113.5 -125.5l225 -260v-193h-850v211h543l-65 64q-26 26 -44 43.5t-30.5 29.5t-22.5 25q-133 143 -238.5 338t-199.5 463z " />
<glyph unicode="&#x5e6;" horiz-adv-x="1163" d="M74 1174h286q49 -168 112 -312.5t169 -277.5q33 49 54.5 99t34.5 116.5t19.5 155.5t8.5 219h278q0 -150 -20.5 -258.5t-57 -190.5t-89 -146.5t-113.5 -125.5l225 -260v-193h-850v211h543l-65 64q-26 26 -44 43.5t-30.5 29.5t-22.5 25q-133 143 -238.5 338t-199.5 463z " />
<glyph unicode="&#x2d8;" horiz-adv-x="1542" d="M139 621v553h267v-605q0 -180 100 -278t264 -98q166 0 266.5 87t100.5 289v605h266v-553q0 -135 -38 -252t-112.5 -204t-188.5 -137.5t-265 -50.5q-317 0 -488.5 168.5t-171.5 475.5zM528 522q23 12 42.5 31.5t35 49.5t24.5 72t9 103v396h264v-398q0 -90 -30.5 -159.5 t-76.5 -118.5t-98.5 -79t-93.5 -42z" />
<glyph unicode="&#x5e9;" horiz-adv-x="1542" d="M139 621v553h267v-605q0 -180 100 -278t264 -98q166 0 266.5 87t100.5 289v605h266v-553q0 -135 -38 -252t-112.5 -204t-188.5 -137.5t-265 -50.5q-317 0 -488.5 168.5t-171.5 475.5zM528 522q23 12 42.5 31.5t35 49.5t24.5 72t9 103v396h264v-398q0 -90 -30.5 -159.5 t-76.5 -118.5t-98.5 -79t-93.5 -42z" />
<glyph unicode="&#x2d9;" horiz-adv-x="1337" d="M16 35l41 196q33 -12 68 -24t63.5 -13t48 17t19.5 68l2 575l57 115q-20 -4 -39.5 -8.5t-35.5 -8.5q-23 -4 -48.5 -8t-74.5 -8l-21 192q68 14 140.5 27.5t145.5 24t139.5 15.5t119.5 5q166 0 277.5 -38t179 -114.5t96.5 -193.5t29 -276l-2 -578h-265v575q0 100 -11 177 t-45 128.5t-93 77t-158 25.5q-29 0 -62.5 -2t-62.5 -6q-10 -2 -2 -2v-680q0 -98 -47 -172t-120.5 -113t-163 -34.5t-175.5 61.5zM522 973v2q4 0 3 -1t-3 -1z" />
<glyph unicode="&#x5ea;" horiz-adv-x="1337" d="M16 35l41 196q33 -12 68 -24t63.5 -13t48 17t19.5 68l2 575l57 115q-20 -4 -39.5 -8.5t-35.5 -8.5q-23 -4 -48.5 -8t-74.5 -8l-21 192q68 14 140.5 27.5t145.5 24t139.5 15.5t119.5 5q166 0 277.5 -38t179 -114.5t96.5 -193.5t29 -276l-2 -578h-265v575q0 100 -11 177 t-45 128.5t-93 77t-158 25.5q-29 0 -62.5 -2t-62.5 -6q-10 -2 -2 -2v-680q0 -98 -47 -172t-120.5 -113t-163 -34.5t-175.5 61.5zM522 973v2q4 0 3 -1t-3 -1z" />
<glyph unicode="&#x2db;" horiz-adv-x="45" d="M-258 1604l137 137l31 -31l-82 -82h217v-1628h-45v1583h-176l86 -86l-31 -31z" />
<glyph unicode="&#x200f;" horiz-adv-x="45" d="M-258 1604l137 137l31 -31l-82 -82h217v-1628h-45v1583h-176l86 -86l-31 -31z" />
<glyph unicode="&#x2dc;" horiz-adv-x="1263" d="M127 958v216h610q109 0 189 -33t131 -87.5t75.5 -127t25.5 -152.5t-20.5 -162t-62.5 -155l-287 -516l-215 139l308 549q31 53 37 111.5t-12.5 106.5t-64.5 79.5t-122 31.5h-592zM160 -276l2 997h264v-997h-266z" />
<glyph unicode="&#x5e7;" horiz-adv-x="1263" d="M127 958v216h610q109 0 189 -33t131 -87.5t75.5 -127t25.5 -152.5t-20.5 -162t-62.5 -155l-287 -516l-215 139l308 549q31 53 37 111.5t-12.5 106.5t-64.5 79.5t-122 31.5h-592zM160 -276l2 997h264v-997h-266z" />
<glyph unicode="&#x2dd;" horiz-adv-x="45" d="M0 0v1628h217l-82 82l31 31l137 -137l-137 -138l-31 31l86 86h-176v-1583h-45z" />
<glyph unicode="&#x200e;" horiz-adv-x="45" d="M0 0v1628h217l-82 82l31 31l137 -137l-137 -138l-31 31l86 86h-176v-1583h-45z" />
<glyph unicode="&#x590;" horiz-adv-x="1536" d="M240 524v146h1054v-146h-1054zM520 -190q0 123 144 190q-131 37 -132 164q0 76 52 127q35 39 87 56.5t120 14.5q45 0 88 -13t75.5 -36.5t52 -56.5t19.5 -72q0 -102 -127 -157q143 -70 143 -199q0 -88 -71 -152q-76 -70 -189 -69q-109 -2 -186 55q-76 56 -76 148z M569 1430v145h451v-111l-201 -633h-157l202 599h-295zM672 -170q0 -45 31.5 -69.5t72.5 -24.5q47 0 75 27.5t28 68.5q-2 90 -125 102q-82 -45 -82 -104zM684 166q0 -61 104 -86q88 33 89 90q0 33 -30 52.5t-71 19.5q-39 2 -65.5 -20.5t-26.5 -55.5z" />
<glyph unicode="&#x591;" d="M-168 -471q0 131 131 164v125h74v-125q133 -35 133 -164v-131h-76v11q0 7 2 24v43q0 147 -86 147q-104 0 -104 -135v-47q2 -14 2 -25v-18h-76v131z" />
<glyph unicode="&#x592;" d="M-186 1444q0 33 20.5 53.5t52.5 20.5q33 0 54.5 -20.5t21.5 -53.5q0 -31 -21.5 -52.5t-54.5 -21.5t-53 20.5t-20 53.5zM-76 1632q0 31 22.5 53.5t53.5 22.5q33 0 54.5 -21.5t21.5 -54.5t-21.5 -54.5t-54.5 -21.5t-54.5 21.5t-21.5 54.5zM37 1444q0 33 21.5 53.5 t54.5 20.5t53 -20.5t20 -53.5q0 -31 -20.5 -52.5t-52.5 -21.5q-31 0 -53.5 21.5t-22.5 52.5z" />
<glyph unicode="&#x593;" d="M-119 1456l156 76l-156 72l156 75l-156 72l156 76h84l-158 -76l158 -72l-158 -75l158 -72l-158 -76l158 -74h-84z" />
<glyph unicode="&#x594;" d="M-76 1452q0 33 21.5 53.5t54.5 20.5t54.5 -20.5t21.5 -53.5q0 -31 -21.5 -52.5t-54.5 -21.5t-54.5 20.5t-21.5 53.5zM-76 1677q0 31 22.5 53.5t53.5 22.5q33 0 54.5 -21.5t21.5 -54.5t-21.5 -53t-54.5 -20t-54.5 20t-21.5 53z" />
<glyph unicode="&#x595;" d="M-113 1378v375h76v-375h-76zM37 1452q0 33 21.5 53.5t54.5 20.5q31 0 52 -21.5t21 -52.5t-20.5 -52.5t-52.5 -21.5q-31 0 -53.5 21.5t-22.5 52.5zM37 1677q0 31 22.5 53.5t53.5 22.5t52 -22.5t21 -53.5q0 -33 -20.5 -53t-52.5 -20q-31 0 -53.5 21t-22.5 52z" />
<glyph unicode="&#x596;" d="M-41 -219q0 6 1 15t3 20h76q-2 -10 -3 -24.5t-1 -37.5q0 -98 63 -149q55 -49 156 -49v-78q-295 0 -295 303z" />
<glyph unicode="&#x597;" d="M-121 1534l123 156l119 -156l-119 -154z" />
<glyph unicode="&#x598;" d="M-258 1530q0 53 38 92t91 39q66 0 109 -53q18 -27 36.5 -51.5t40.5 -53.5q27 -49 70 -49q33 0 53.5 21.5t20.5 54.5q0 47 -54 69l21 56q90 -43 90 -125q0 -55 -39 -93t-92 -38q-66 0 -109 53q-16 27 -33.5 50.5t-33.5 49.5q-39 51 -80 52q-33 0 -53.5 -20.5t-20.5 -53.5 q0 -53 53 -72l-20 -55q-88 39 -88 127z" />
<glyph unicode="&#x599;" d="M-104 1702l90 78q35 -41 61.5 -84t35.5 -95.5t-5.5 -116t-61.5 -143.5l-49 27q20 39 30.5 82t4.5 86t-30.5 85t-75.5 81z" />
<glyph unicode="&#x59a;" d="M-150 -305l199 194h123l-199 -194l199 -205h-121z" />
<glyph unicode="&#x59b;" d="M-66 -266q0 29 18.5 48t45.5 19q66 0 65 -67q0 -63 -65 -64q-27 0 -45.5 18.5t-18.5 45.5zM-66 -442q221 0 222 204l-6 56h75q2 -10 3 -27.5t1 -44.5q0 -133 -86 -207q-70 -59 -209 -59v78z" />
<glyph unicode="&#x59c;" d="M-96 1544q0 125 137 225l55 -51q-111 -80 -110 -172q0 -84 75 -166h-96q-61 76 -61 164z" />
<glyph unicode="&#x59d;" d="M-96 1544q0 125 137 225l55 -51q-111 -80 -110 -172q0 -84 75 -166h-96q-61 76 -61 164z" />
<glyph unicode="&#x59e;" d="M-197 1544q0 125 138 225l55 -51q-111 -84 -111 -172q0 -82 78 -166h-98q-62 76 -62 164zM27 1544q0 123 139 225l53 -51q-111 -80 -110 -172q0 -84 75 -166h-94q-63 76 -63 164z" />
<glyph unicode="&#x59f;" d="M-496 1655q0 80 53.5 134t133.5 54q82 0 135 -54t53 -134q0 -61 -37 -111l123 -123l-41 -41l-123 123q-45 -39 -110 -39q-82 0 -134.5 52.5t-52.5 138.5zM-432 1655q0 -53 36 -88t87 -35q53 0 89 35t36 88q0 51 -36 86t-89 35q-51 0 -87 -35t-36 -86zM35 1421l123 123 q-39 39 -39 111q0 80 54 134t136 54q37 0 71 -15.5t59.5 -41t41 -60t15.5 -71.5q0 -82 -53.5 -136.5t-133.5 -54.5q-72 0 -110 39l-123 -123zM184 1655q0 -53 36 -88t89 -35q51 0 85 35t34 88q0 47 -36 84t-83 37q-53 0 -89 -34t-36 -87z" />
<glyph unicode="&#x5a0;" d="M-55 1421l123 123q-37 43 -37 111q0 80 54 134t134 54q39 0 73 -15.5t59.5 -41t40 -60t14.5 -71.5q0 -82 -53.5 -136.5t-133.5 -54.5q-72 0 -110 39l-123 -123zM96 1655q0 -53 35 -88t88 -35t86 35t33 88q0 47 -36 84t-83 37q-53 0 -88 -34t-35 -87z" />
<glyph unicode="&#x5a1;" d="M-39 1380v357h74v-172q0 -10 39 -11q76 0 76 111v37q-2 16 -3 23v12h76v-82q0 -70 -35 -111q-37 -55 -98 -55q-29 0 -55 10v-119h-74z" />
<glyph unicode="&#x5a3;" d="M-184 -463h153v281h76v-357h-229v76z" />
<glyph unicode="&#x5a4;" d="M-193 -352l173 170h108l-174 -170l174 -178h-106z" />
<glyph unicode="&#x5a5;" d="M-248 -442q217 0 217 202l-4 58h78q6 -90 6 -101q0 -236 -297 -235v76z" />
<glyph unicode="&#x5a6;" d="M-221 -520q111 80 110 170q0 80 -75 168h96q63 -82 63 -164q0 -121 -139 -225zM6 -520q111 82 111 170q0 72 -78 168h98q61 -78 62 -164q0 -119 -138 -225z" />
<glyph unicode="&#x5a7;" d="M-125 -264l64 53l186 33v-74l-139 -24l139 -220l-64 -53l-186 -33v76l137 23z" />
<glyph unicode="&#x5a8;" d="M-97 1731.5q5 11.5 15 20.5t20.5 14.5t16.5 -1.5q37 -39 62.5 -84t33.5 -97t-4 -111.5t-49 -126.5q-4 -8 -16.5 -8.5t-23.5 6t-18.5 14.5t-2.5 18q20 45 35.5 85t16.5 79t-17.5 81t-67.5 93q-6 6 -1 17.5z" />
<glyph unicode="&#x5a9;" d="M-408 1655q0 80 53.5 134t133.5 54t133 -54t53 -134q0 -57 -35 -111l123 -123l-43 -41l-121 123q-45 -39 -110 -39q-82 0 -134.5 52.5t-52.5 138.5zM-344 1655q0 -53 35 -88t88 -35t88 35t35 88q0 51 -35 86t-88 35t-88 -35t-35 -86z" />
<glyph unicode="&#x5aa;" d="M-168 -182h76q0 -10 -2 -38t-2 -44q0 -141 88 -142q106 0 106 134q0 16 -2 44.5t-2 45.5h76v-129q0 -131 -133 -166v-123h-74v123q-59 16 -95 61t-36 105v129z" />
<glyph unicode="&#x5ab;" d="M-139 1561l174 168h106l-174 -168l174 -179h-106z" />
<glyph unicode="&#x5ac;" d="M-195 1382v74h156v281h74v-355h-230z" />
<glyph unicode="&#x5ad;" d="M-41 -217q0 6 1 15t3 20h76q-2 -10 -3 -24.5t-1 -37.5q0 -98 63 -149q55 -49 156 -49v-78q-295 0 -295 303z" />
<glyph unicode="&#x5ae;" d="M-258 1530q0 53 38 92t91 39q66 0 109 -53q18 -27 36.5 -51.5t40.5 -53.5q27 -49 70 -49q33 0 53.5 21.5t20.5 54.5q0 47 -54 69l21 56q90 -43 90 -125q0 -55 -39 -93t-92 -38q-66 0 -109 53q-16 27 -33.5 50.5t-33.5 49.5q-39 51 -80 52q-33 0 -53.5 -20.5t-20.5 -53.5 q0 -53 53 -72l-20 -55q-88 39 -88 127z" />
<glyph unicode="&#x5af;" d="M-213 1614q0 92 60.5 153.5t152.5 61.5t153.5 -61.5t61.5 -153.5q0 -47 -16.5 -86t-46 -67.5t-68.5 -45t-84 -16.5q-88 0 -152 63q-61 62 -61 152zM-156 1614q0 -66 45 -115t111 -49t112 49t46 115t-46 115t-112 49t-111 -49t-45 -115z" />
<glyph unicode="&#x5b2;" d="M-354 -190h387v-109h-387v109zM141 -256q0 37 26 60.5t62 23.5q35 0 60.5 -24.5t25.5 -59.5q0 -37 -24.5 -61.5t-61.5 -24.5t-62.5 24.5t-25.5 61.5zM143 -506q0 35 26 60.5t60 25.5q37 0 61.5 -24.5t24.5 -61.5t-24.5 -61.5t-61.5 -24.5t-61.5 24.5t-24.5 61.5z" />
<glyph unicode="&#x5b3;" d="M-354 -190h387v-109h-158l-6 -92q0 -23 27 -62q29 -41 28 -61q0 -37 -24.5 -61.5t-61.5 -24.5q-35 0 -59.5 24.5t-24.5 61.5q0 25 27 63q29 41 29 60l-7 92h-157v109zM141 -256q0 37 26 60.5t62 23.5q35 0 60.5 -24.5t25.5 -59.5q0 -37 -24.5 -61.5t-61.5 -24.5 t-62.5 24.5t-25.5 61.5zM143 -506q0 35 26 60.5t60 25.5q37 0 61.5 -24.5t24.5 -61.5t-24.5 -61.5t-61.5 -24.5t-61.5 24.5t-24.5 61.5z" />
<glyph unicode="&#x221a;" d="M-354 -190h387v-109h-158l-6 -92q0 -23 27 -62q29 -41 28 -61q0 -37 -24.5 -61.5t-61.5 -24.5q-35 0 -59.5 24.5t-24.5 61.5q0 25 27 63q29 41 29 60l-7 92h-157v109zM141 -256q0 37 26 60.5t62 23.5q35 0 60.5 -24.5t25.5 -59.5q0 -37 -24.5 -61.5t-61.5 -24.5 t-62.5 24.5t-25.5 61.5zM143 -506q0 35 26 60.5t60 25.5q37 0 61.5 -24.5t24.5 -61.5t-24.5 -61.5t-61.5 -24.5t-61.5 24.5t-24.5 61.5z" />
<glyph unicode="&#x5b5;" d="M-225 -256q0 35 24.5 59.5t61.5 24.5t61.5 -23.5t24.5 -60.5t-24.5 -61.5t-61.5 -24.5t-61.5 24.5t-24.5 61.5zM53 -256q0 35 24.5 59.5t61.5 24.5t61.5 -24.5t24.5 -59.5q0 -37 -24.5 -61.5t-61.5 -24.5q-35 0 -60.5 25.5t-25.5 60.5z" />
<glyph unicode="&#x2248;" d="M-225 -256q0 35 24.5 59.5t61.5 24.5t61.5 -23.5t24.5 -60.5t-24.5 -61.5t-61.5 -24.5t-61.5 24.5t-24.5 61.5zM53 -256q0 35 24.5 59.5t61.5 24.5t61.5 -24.5t24.5 -59.5q0 -37 -24.5 -61.5t-61.5 -24.5q-35 0 -60.5 25.5t-25.5 60.5z" />
<glyph unicode="&#x5b6;" d="M-236 -256q0 35 25 59.5t61 24.5q37 0 62 -23.5t25 -60.5t-25 -61.5t-62 -24.5t-61.5 24.5t-24.5 61.5zM-88 -494q0 35 26.5 61.5t61.5 26.5q37 0 61.5 -25.5t24.5 -62.5t-24.5 -61.5t-61.5 -24.5t-62.5 24.5t-25.5 61.5zM63 -256q0 35 25 59.5t62 24.5t61.5 -24.5 t24.5 -59.5q0 -37 -25 -61.5t-61 -24.5q-35 0 -61 25.5t-26 60.5z" />
<glyph unicode="&#x2206;" d="M-236 -256q0 35 25 59.5t61 24.5q37 0 62 -23.5t25 -60.5t-25 -61.5t-62 -24.5t-61.5 24.5t-24.5 61.5zM-88 -494q0 35 26.5 61.5t61.5 26.5q37 0 61.5 -25.5t24.5 -62.5t-24.5 -61.5t-61.5 -24.5t-62.5 24.5t-25.5 61.5zM63 -256q0 35 25 59.5t62 24.5t61.5 -24.5 t24.5 -59.5q0 -37 -25 -61.5t-61 -24.5q-35 0 -61 25.5t-26 60.5z" />
<glyph unicode="&#x5b7;" d="M-193 -190h388v-109h-388v109z" />
<glyph unicode="&#x5b8;" d="M-193 -190h388v-109h-158l-6 -92q0 -23 26 -62q29 -41 29 -61q0 -37 -24.5 -61.5t-61.5 -24.5q-35 0 -59.5 24.5t-24.5 61.5q0 25 27 63q29 41 28 60l-6 92h-158v109z" />
<glyph unicode="&#x5b9;" d="M-86 1411q0 35 25.5 60.5t60.5 25.5q37 0 61.5 -24.5t24.5 -61.5t-24.5 -61.5t-61.5 -24.5t-61.5 24.5t-24.5 61.5z" />
<glyph unicode="&#x2026;" d="M-86 1411q0 35 25.5 60.5t60.5 25.5q37 0 61.5 -24.5t24.5 -61.5t-24.5 -61.5t-61.5 -24.5t-61.5 24.5t-24.5 61.5z" />
<glyph unicode="&#x5bb;" d="M-86 -256q0 35 24.5 59.5t61.5 24.5t61.5 -24.5t24.5 -59.5q0 -37 -24.5 -61.5t-61.5 -24.5q-35 0 -60.5 25.5t-25.5 60.5zM66 -393q0 35 24.5 59.5t61.5 24.5t61.5 -23.5t24.5 -60.5t-25 -61.5t-61 -24.5q-37 0 -61.5 24.5t-24.5 61.5zM217 -537q0 35 26.5 61.5 t61.5 26.5q37 0 61.5 -25.5t24.5 -62.5t-24.5 -61.5t-61.5 -24.5t-62.5 24.5t-25.5 61.5z" />
<glyph unicode="&#x5bc;" d="M-84 590q0 35 24.5 59.5t59.5 24.5t59.5 -24.5t24.5 -59.5t-24.5 -59.5t-59.5 -24.5t-59.5 24.5t-24.5 59.5z" />
<glyph unicode="&#x5bd;" d="M-37 -182h74v-357h-74v357z" />
<glyph unicode="&#x5c0;" horiz-adv-x="497" d="M195 2v1184h110v-1184h-110z" />
<glyph unicode="&#x5c1;" d="M358 1411q0 35 26 60.5t60 25.5q37 0 61.5 -24.5t24.5 -61.5t-24.5 -61.5t-61.5 -24.5t-61.5 24.5t-24.5 61.5z" />
<glyph unicode="&#x5c2;" d="M-172 1411q0 35 25.5 60.5t60.5 25.5q37 0 61.5 -24.5t24.5 -61.5t-24.5 -61.5t-61.5 -24.5t-61.5 24.5t-24.5 61.5z" />
<glyph unicode="&#x5c3;" horiz-adv-x="450" d="M53 8v283h258v-283h-258zM53 643v283h258v-283h-258z" />
<glyph unicode="&#x5c4;" d="M-86 1411q0 35 25.5 60.5t60.5 25.5q37 0 61.5 -24.5t24.5 -61.5t-24.5 -61.5t-61.5 -24.5t-61.5 24.5t-24.5 61.5z" />
<glyph unicode="&#x5c7;" d="M-193 -184h388v-109h-158l-6 -266q0 -23 26 -62q29 -41 29 -61q0 -37 -24.5 -61.5t-61.5 -24.5q-35 0 -59.5 24.5t-24.5 61.5q0 25 27 64q29 41 28 59l-6 266h-158v109z" />
<glyph unicode="&#x5d0;" horiz-adv-x="1189" d="M68 1174h274l395 -588q29 55 46.5 139t17.5 201q0 53 -3 114.5t-14 133.5h269q6 -61 10 -118t4 -104q0 -86 -16.5 -157.5t-47 -133t-75.5 -117t-101 -108.5l310 -436h-287l-424 608q-29 -59 -43 -135t-14 -154q0 -70 9 -149.5t23 -169.5h-268q-10 72 -15 139.5t-5 126.5 q0 145 58 258t167 228q-31 47 -65.5 101t-70.5 109.5t-70.5 110t-63.5 101.5z" />
<glyph unicode="&#x2021;" horiz-adv-x="1189" d="M68 1174h274l395 -588q29 55 46.5 139t17.5 201q0 53 -3 114.5t-14 133.5h269q6 -61 10 -118t4 -104q0 -86 -16.5 -157.5t-47 -133t-75.5 -117t-101 -108.5l310 -436h-287l-424 608q-29 -59 -43 -135t-14 -154q0 -70 9 -149.5t23 -169.5h-268q-10 72 -15 139.5t-5 126.5 q0 145 58 258t167 228q-31 47 -65.5 101t-70.5 109.5t-70.5 110t-63.5 101.5z" />
<glyph unicode="&#x5d1;" horiz-adv-x="1073" d="M66 1112q86 41 171 62.5t164 21.5q106 0 201.5 -33t168.5 -96t115 -158.5t42 -218.5v-198q0 -80 -17.5 -157t-44.5 -124h131v-211h-911v211h567q4 25 6.5 61.5t2.5 92.5v325q0 76 -23 129t-60.5 87t-87 48.5t-102.5 14.5q-59 0 -130 -20.5t-144 -57.5z" />
<glyph unicode="&#x5d2;" horiz-adv-x="913" d="M59 0l31 219q70 -4 145.5 23.5t139 78t104.5 118t41 145.5v223q0 92 -52 138t-124 46q-41 0 -100.5 -20.5t-134.5 -61.5l-33 191q160 104 305 104q82 0 153.5 -29.5t124 -85t82 -133t29.5 -172.5v-411q0 -88 15.5 -187.5t25.5 -187.5h-250l-14 278q-33 -59 -82 -119.5 t-111.5 -104.5t-137.5 -62.5t-157 10.5z" />
<glyph unicode="&#x201a;" horiz-adv-x="913" d="M59 0l31 219q70 -4 145.5 23.5t139 78t104.5 118t41 145.5v223q0 92 -52 138t-124 46q-41 0 -100.5 -20.5t-134.5 -61.5l-33 191q160 104 305 104q82 0 153.5 -29.5t124 -85t82 -133t29.5 -172.5v-411q0 -88 15.5 -187.5t25.5 -187.5h-250l-14 278q-33 -59 -82 -119.5 t-111.5 -104.5t-137.5 -62.5t-157 10.5z" />
<glyph unicode="&#x5d3;" horiz-adv-x="1091" d="M74 958v216h903v-216h-92q-20 -14 -30.5 -32.5t-15.5 -40t-5 -43.5v-45v-797h-267v705q0 39 3 70.5t13.5 60t29 58.5t51.5 64h-590z" />
<glyph unicode="&#x201e;" horiz-adv-x="1091" d="M74 958v216h903v-216h-92q-20 -14 -30.5 -32.5t-15.5 -40t-5 -43.5v-45v-797h-267v705q0 39 3 70.5t13.5 60t29 58.5t51.5 64h-590z" />
<glyph unicode="&#x5d4;" horiz-adv-x="1255" d="M104 1100q104 37 216 60.5t217 23.5q113 0 218 -28t185 -92.5t128 -170t48 -260.5l-2 -633h-264v569q0 94 -14.5 168t-52.5 123t-106.5 75t-178.5 26q-96 0 -187.5 -24t-179.5 -75zM145 0v559l177 148h90v-707h-267z" />
<glyph unicode="&#x2030;" horiz-adv-x="1255" d="M104 1100q104 37 216 60.5t217 23.5q113 0 218 -28t185 -92.5t128 -170t48 -260.5l-2 -633h-264v569q0 94 -14.5 168t-52.5 123t-106.5 75t-178.5 26q-96 0 -187.5 -24t-179.5 -75zM145 0v559l177 148h90v-707h-267z" />
<glyph unicode="&#x5d5;" horiz-adv-x="540" d="M137 0v1174h266v-1174h-266z" />
<glyph unicode="&#x5d6;" horiz-adv-x="774" d="M72 961v213h604v-213h-189q0 -10 -1 -21.5t-3 -21.5q-2 -35 -3 -69t-1 -69q0 -53 4 -112.5t19 -130.5l112 -537h-266l-92 440q-8 43 -11 94.5t-3 108.5q0 74 3 154t11 164h-184z" />
<glyph unicode="&#x5d7;" horiz-adv-x="1335" d="M86 1122q51 16 112.5 32.5t129 30t137.5 21.5t137 8q117 0 228.5 -25.5t198.5 -91t139.5 -178t52.5 -286.5l-2 -633h-265v664q0 96 -23.5 161.5t-66.5 106.5t-102.5 58.5t-132.5 17.5q-39 0 -83 -4.5t-93 -12.5v-991h-267v825l50 125q-39 -12 -70 -28.5t-53 -28.5z" />
<glyph unicode="&#x5d8;" horiz-adv-x="1327" d="M129 483v691h266v-746q0 -59 21.5 -105.5t59.5 -77t87 -47t105 -16.5q51 0 97 12.5t82 42t57.5 76.5t21.5 119v365q0 90 -38 130t-89 40t-106.5 -33t-88.5 -84l-86 213q57 66 129 99.5t146.5 38.5t146.5 -16.5t128 -64.5t90 -107.5t34 -146.5v-385q0 -121 -39 -216 t-109.5 -161.5t-168 -100.5t-213.5 -34q-254 2 -393.5 136t-139.5 378z" />
<glyph unicode="&#x5d9;" horiz-adv-x="538" d="M135 485v689h268l-2 -689h-266z" />
<glyph unicode="&#x5da;" horiz-adv-x="1073" d="M61 1114q205 84 357 84q113 0 208 -37t163.5 -107.5t106.5 -177t38 -243.5l-2 -1018h-266v1040q0 82 -22.5 142.5t-59.5 98.5t-85 56.5t-102 18.5q-55 0 -127.5 -26.5t-150.5 -76.5z" />
<glyph unicode="&#x5db;" horiz-adv-x="1148" d="M106 1063q102 66 199.5 96.5t188.5 30.5q115 0 214 -43t171.5 -122t114.5 -187.5t42 -239.5v-27q0 -133 -43 -240.5t-116.5 -185t-174 -119.5t-213.5 -42q-86 0 -180 28.5t-192 89.5l49 191q94 -47 174 -69.5t139 -22.5q61 0 114.5 21.5t93.5 66.5t63.5 113.5t25.5 160.5 v43q0 94 -25.5 163t-69.5 115t-101.5 68.5t-118.5 22.5t-138 -31t-163 -94z" />
<glyph unicode="&#x5dc;" horiz-adv-x="1056" d="M61 961v550l267 2v-339h266q154 0 240 -73t114.5 -180.5t7 -233.5t-85.5 -230l-307 -514l-211 137l328 569q27 45 39 100.5t2 101.5t-45 78t-103 32h-512z" />
<glyph unicode="&#x5dd;" horiz-adv-x="1312" d="M80 1139q129 27 247.5 40t229.5 13q328 0 465 -119v2q152 -131 152 -442l-3 -633h-991v829l90 127q-41 -4 -78.5 -9t-91.5 -17zM446 190h457q0 109 1 216.5t1 216.5q2 100 -15.5 168.5t-53 108.5t-93 57.5t-135.5 17.5q-35 0 -74.5 -2t-87.5 -8v-775z" />
<glyph unicode="&#x5de;" horiz-adv-x="1357" d="M72 1030l143 170q55 -23 106.5 -84t79.5 -127q53 98 151.5 153.5t203.5 55.5q88 0 174 -31.5t153.5 -91t108.5 -146.5t41 -198v-285q0 -100 -34 -184t-92 -145.5t-136 -95t-166 -33.5q-57 0 -118.5 16t-127.5 51l49 185q68 -35 132.5 -43.5t114.5 15.5t81 80t31 148v281 q0 66 -19.5 115t-53.5 80.5t-77 47t-88 15.5q-51 0 -102.5 -18.5t-91 -53.5t-64.5 -85t-25 -115v-707h-266v811q0 61 -22.5 119.5t-85.5 99.5z" />
<glyph unicode="&#x5df;" horiz-adv-x="532" d="M133 -385v1559l266 -3v-1556h-266z" />
<glyph unicode="&#x5e0;" horiz-adv-x="856" d="M100 0v211h353v596q0 78 -34 108.5t-81 30.5q-29 0 -75 -14t-101 -41l-47 221q76 29 139 42t117 13q160 0 253 -97t93 -294v-776h-617z" />
<glyph unicode="&#xf8ff;" horiz-adv-x="856" d="M100 0v211h353v596q0 78 -34 108.5t-81 30.5q-29 0 -75 -14t-101 -41l-47 221q76 29 139 42t117 13q160 0 253 -97t93 -294v-776h-617z" />
<glyph unicode="&#x5e1;" horiz-adv-x="1277" d="M106 604q0 154 39 270.5t110 194.5t168 116t212 36q115 2 212 -36t167.5 -115t109.5 -193.5t39 -272.5q0 -143 -40 -260t-110.5 -199t-166.5 -126t-211 -44q-127 0 -225.5 44t-166 126t-102.5 199t-35 260zM362 598q0 -86 14.5 -161t46.5 -130t84 -87t128 -32 q78 0 130 37t83 95.5t44 132t13 145.5q0 82 -11 156.5t-42 131t-84 89.5t-135 33t-134.5 -31t-83 -86t-42 -130t-11.5 -163z" />
<glyph unicode="&#x5e2;" horiz-adv-x="1228" d="M100 1174h283l186 -760v2q6 -20 8.5 -45t2.5 -54v-36q16 10 27 17t28 17q72 43 114 128t58 216q8 123 17.5 257.5t19.5 257.5h268l-35 -461q-10 -129 -50 -230.5t-102.5 -182.5t-145.5 -142.5t-178 -111.5t-198.5 -92t-207.5 -83l-74 178l250 129q-66 242 -135.5 498 t-135.5 498z" />
<glyph unicode="&#x5e3;" horiz-adv-x="1267" d="M76 778q0 100 43 179t114.5 132.5t165 80t195.5 26.5q145 0 247.5 -41t166 -114.5t92 -177t28.5 -230.5v-1018h-268l6 1067q0 66 -13 119t-45 92t-85 59.5t-135 20.5q-115 0 -186.5 -47t-75.5 -146q-2 -31 9 -67.5t42 -67.5t84 -50.5t135 -14.5l6 -162q-80 -18 -145 -19 q-96 0 -168 33t-119 87t-70.5 121.5t-23.5 137.5z" />
<glyph unicode="&#x5e4;" horiz-adv-x="1280" d="M111 791q-4 100 35.5 181t107.5 136t155 85t181 30q100 0 203.5 -31t184.5 -103.5t131 -193.5t48 -301q-4 -145 -57 -263t-139 -204q-84 -84 -200 -122t-234.5 -34t-226 50.5t-177.5 128.5l115 174q96 -98 209.5 -131t212 0.5t166 134t73.5 268.5q4 125 -25.5 205 t-77.5 125t-107.5 61.5t-115.5 16.5q-82 0 -144 -52.5t-71 -156.5q-4 -68 18.5 -108t61.5 -54.5t88 -1t97 52.5l39 -152q-92 -80 -188.5 -96t-176.5 23t-132 124t-54 208z" />
<glyph unicode="&#x5e8;" horiz-adv-x="1091" d="M51 1100q41 18 91.5 35.5t102.5 30t104 19.5t95 7q516 0 517 -559l-5 -633h-264v694q0 123 -65.5 199t-180.5 76q-59 0 -151 -23.5t-191 -71.5z" />
<glyph unicode="&#x5f0;" horiz-adv-x="1140" d="M137 0v1174h266v-1174h-266zM737 0v1174h266v-1174h-266z" />
<glyph unicode="&#x5f1;" horiz-adv-x="1077" d="M674 0v1174h266v-1174h-266zM135 485v689h268l-2 -689h-266z" />
<glyph unicode="&#x5f2;" horiz-adv-x="1077" d="M135 485v689h268l-2 -689h-266zM674 485v689h268l-2 -689h-266z" />
<glyph unicode="&#x5f3;" horiz-adv-x="530" d="M53 897l125 533h213l-198 -533h-140z" />
<glyph unicode="&#x25ca;" horiz-adv-x="530" d="M53 897l125 533h213l-198 -533h-140z" />
<glyph unicode="&#x5f4;" horiz-adv-x="862" d="M53 897l125 533h215l-200 -533h-140zM381 897l125 533h217l-201 -533h-141z" />
<glyph unicode="&#x2000;" horiz-adv-x="1024" />
<glyph unicode="&#x2001;" horiz-adv-x="2048" />
<glyph unicode="&#x2002;" horiz-adv-x="1024" />
<glyph unicode="&#x2003;" horiz-adv-x="2048" />
<glyph unicode="&#x2004;" horiz-adv-x="681" />
<glyph unicode="&#x2005;" horiz-adv-x="512" />
<glyph unicode="&#x2006;" horiz-adv-x="339" />
<glyph unicode="&#x2007;" horiz-adv-x="1056" />
<glyph unicode="&#x2008;" horiz-adv-x="415" />
<glyph unicode="&#x2009;" horiz-adv-x="204" />
<glyph unicode="&#x200a;" horiz-adv-x="20" />
<glyph unicode="&#x200b;" />
<glyph unicode="&#x200c;" horiz-adv-x="45" d="M0 0v1628h45v-1628h-45z" />
<glyph unicode="&#x200d;" horiz-adv-x="45" d="M-115 1495l109 109l-109 106l31 31l107 -109l106 109l31 -31l-107 -106l107 -109l-31 -29l-84 84v-1550h-45v1550l-84 -84z" />
<glyph unicode="&#x2010;" horiz-adv-x="739" d="M53 535v204h547v-204h-547z" />
<glyph unicode="&#x2011;" horiz-adv-x="739" d="M53 535v204h547v-204h-547z" />
<glyph unicode="&#x2012;" horiz-adv-x="1056" d="M53 535v204h865v-204h-865z" />
<glyph unicode="&#x2013;" horiz-adv-x="929" d="M25 614l69 168h809l-69 -168h-809z" />
<glyph unicode="&#x2014;" horiz-adv-x="1859" d="M25 614l69 168h1731l-70 -168h-1730z" />
<glyph unicode="&#x2015;" horiz-adv-x="4096" d="M53 535v204h3904v-204h-3904z" />
<glyph unicode="&#x2016;" horiz-adv-x="888" d="M497 -371v2079h252v-2079h-252zM53 -371v2079h252v-2079h-252z" />
<glyph unicode="&#x2018;" horiz-adv-x="571" d="M53 -160l125 533h254l-199 -533h-180z" />
<glyph unicode="&#x2019;" horiz-adv-x="415" d="M53 2v238h223v-238h-223z" />
<glyph unicode="&#x201c;" horiz-adv-x="862" d="M53 897l125 533h215l-200 -533h-140zM381 897l125 533h217l-201 -533h-141z" />
<glyph unicode="&#x201d;" horiz-adv-x="862" d="M53 897l125 533h215l-200 -533h-140zM381 897l125 533h217l-201 -533h-141z" />
<glyph unicode="&#x2022;" horiz-adv-x="1062" d="M115 643q0 172 118 291q121 121 293 121q170 0 291 -121t121 -291q0 -172 -121 -293t-291 -121q-172 0 -293 121q-118 119 -118 293z" />
<glyph unicode="&#x2024;" horiz-adv-x="415" d="M53 2v238h223v-238h-223z" />
<glyph unicode="&#x2025;" horiz-adv-x="831" d="M469 2v238h223v-238h-223zM53 2v238h223v-238h-223z" />
<glyph unicode="&#x202a;" />
<glyph unicode="&#x202f;" horiz-adv-x="368" />
<glyph unicode="&#x2032;" horiz-adv-x="530" d="M53 897l125 533h213l-198 -533h-140z" />
<glyph unicode="&#x2033;" horiz-adv-x="1060" d="M583 897l125 533h213l-198 -533h-140zM53 897l125 533h213l-198 -533h-140z" />
<glyph unicode="&#x2034;" horiz-adv-x="1591" d="M1114 897l125 533h213l-198 -533h-140zM583 897l125 533h213l-198 -533h-140zM53 897l125 533h213l-198 -533h-140z" />
<glyph unicode="&#x2039;" horiz-adv-x="851" d="M162 582q45 39 109.5 95t150.5 132l147 139q125 117 133 117q25 0 25 -29q0 -35 -328 -461q47 -59 93.5 -116.5t93.5 -116.5q143 -186 143 -229q0 -29 -27 -29q-10 0 -153 143q-23 23 -118 111t-269 244z" />
<glyph unicode="&#x203a;" horiz-adv-x="851" d="M123 1036q0 29 29 29q10 0 153 -143q35 -33 131 -121t256 -232q-45 -39 -109.5 -95t-150.5 -132q-45 -45 -111.5 -107.5t-158.5 -148.5l-10 -2q-27 0 -27 29q0 35 328 460q-47 57 -92.5 114.5t-90.5 117.5q-147 186 -147 231z" />
<glyph unicode="&#x203c;" horiz-adv-x="905" d="M527 676v741h266v-741q0 -53 -12.5 -111.5t-34.5 -126.5h-176q-43 125 -43 238zM545 0v217h223v-217h-223zM74 676v741h266v-741q0 -53 -12.5 -111.5t-34.5 -126.5h-176q-43 125 -43 238zM92 0v217h223v-217h-223z" />
<glyph unicode="&#x203e;" horiz-adv-x="421" d="M-239.201 310.393v97.1963h146.394v-37.1982q0 -44.3984 25.7998 -74.9971q25.7988 -30.5986 68.9971 -30.5986q37.7979 0 61.1973 26.3984q23.3994 26.3994 23.3994 64.7979q0 14.999 -1.80078 25.7988q-1.7998 10.7998 -6.89941 22.499t-13.499 25.1992 q-8.40039 13.499 -22.1992 32.0986l-80.9971 113.995v25.7988l133.795 132.595h-288.589v146.395h412.783v-153.594l-99.5957 -106.796l59.3975 -89.9961q44.3984 -67.7979 54.5977 -140.095q10.2002 -72.2969 -13.7988 -131.994q-23.999 -59.6982 -82.1973 -97.7969 q-58.1973 -38.0977 -150.594 -38.0977q-45.5977 0 -86.0967 11.6992q-40.498 11.6992 -71.6963 35.6982q-31.1992 23.999 -49.7979 59.0977q-18.5996 35.0986 -18.5996 81.8965z" />
<glyph unicode="&#x2047;" horiz-adv-x="2043" d="M1096 997v136q0 86 33.5 147t88 101t124 59.5t143.5 19.5q147 0 248.5 -46t150.5 -119.5t45 -163t-65 -175.5l-146 -204q-29 -39 -41 -81t-12 -83v-129h-250v168q0 47 16.5 99t55.5 105l141 195q29 39 35 81t-11.5 76t-61.5 54t-115 16q-76 -4 -110 -38.5t-34 -116.5 v-101h-235zM1417 0v217h223v-217h-223zM74 997v136q0 86 33.5 147t88 101t124 59.5t143.5 19.5q147 0 248.5 -46t150.5 -119.5t45 -163t-65 -175.5l-146 -204q-29 -39 -41 -81t-12 -83v-129h-250v168q0 47 16.5 99t55.5 105l141 195q29 39 35 81t-11.5 76t-61.5 54t-115 16 q-76 -4 -110 -38.5t-34 -116.5v-101h-235zM395 0v217h223v-217h-223z" />
<glyph unicode="&#x2048;" horiz-adv-x="1474" d="M1096 676v741h266v-741q0 -53 -12.5 -111.5t-34.5 -126.5h-176q-43 125 -43 238zM1114 0v217h223v-217h-223zM74 997v136q0 86 33.5 147t88 101t124 59.5t143.5 19.5q147 0 248.5 -46t150.5 -119.5t45 -163t-65 -175.5l-146 -204q-29 -39 -41 -81t-12 -83v-129h-250v168 q0 47 16.5 99t55.5 105l141 195q29 39 35 81t-11.5 76t-61.5 54t-115 16q-76 -4 -110 -38.5t-34 -116.5v-101h-235zM395 0v217h223v-217h-223z" />
<glyph unicode="&#x2049;" horiz-adv-x="1474" d="M527 997v136q0 86 33.5 147t88 101t124 59.5t143.5 19.5q147 0 248.5 -46t150.5 -119.5t45 -163t-65 -175.5l-146 -204q-29 -39 -41 -81t-12 -83v-129h-250v168q0 47 16.5 99t55.5 105l141 195q29 39 35 81t-11.5 76t-61.5 54t-115 16q-76 -4 -110 -38.5t-34 -116.5v-101 h-235zM848 0v217h223v-217h-223zM74 676v741h266v-741q0 -53 -12.5 -111.5t-34.5 -126.5h-176q-43 125 -43 238zM92 0v217h223v-217h-223z" />
<glyph unicode="&#x2057;" horiz-adv-x="2121" d="M1644 897l125 533h213l-198 -533h-140zM1114 897l125 533h213l-198 -533h-140zM583 897l125 533h213l-198 -533h-140zM53 897l125 533h213l-198 -533h-140z" />
<glyph unicode="&#x205f;" horiz-adv-x="460" />
<glyph unicode="&#x2060;" />
<glyph unicode="&#xe000;" horiz-adv-x="770" d="M0 770h770v-770h-770v770z" />
<glyph unicode="&#xfb00;" horiz-adv-x="1441" d="M762 0v49h158v680h-156v49h156v74q0 221 43 313q80 170 254 170q72 0 129 -32q72 -41 71 -105q0 -78 -75 -78q-82 0 -82 74q0 47 47 70q0 23 -86 22q-100 0 -101 -137v-371h170v-49h-170v-680h158v-49h-516zM41 0v49h158v680h-156v49h156v74q0 221 43 313q80 170 254 170 q72 0 129 -32q72 -41 71 -105q0 -78 -75 -78q-82 0 -82 74q0 47 47 70q0 23 -86 22q-100 0 -101 -137v-371h170v-49h-170v-680h158v-49h-516z" />
<glyph unicode="&#xfb01;" horiz-adv-x="1341" d="M789 0v49h157v680h-157v49h356v-729h160v-49h-516zM926 1126q0 47 34.5 79t84.5 32q49 0 83.5 -31.5t34.5 -79.5q0 -47 -35.5 -77.5t-82.5 -30.5t-83 30.5t-36 77.5zM41 0v49h158v680h-156v49h156v74q0 221 43 313q80 170 254 170q72 0 129 -32q72 -41 71 -105 q0 -78 -75 -78q-82 0 -82 74q0 47 47 70q0 23 -86 22q-100 0 -101 -137v-371h170v-49h-170v-680h158v-49h-516z" />
<glyph unicode="&#xfb02;" horiz-adv-x="1323" d="M787 0v49h147v1223h-147v49h346v-1272h147v-49h-493zM41 0v49h158v680h-156v49h156v74q0 221 43 313q80 170 254 170q72 0 129 -32q72 -41 71 -105q0 -78 -75 -78q-82 0 -82 74q0 47 47 70q0 23 -86 22q-100 0 -101 -137v-371h170v-49h-170v-680h158v-49h-516z" />
<glyph unicode="&#xfb03;" horiz-adv-x="2062" d="M1510 0v49h157v680h-157v49h356v-729h160v-49h-516zM1647 1126q0 47 34.5 79t84.5 32q49 0 83.5 -31.5t34.5 -79.5q0 -47 -35.5 -77.5t-82.5 -30.5t-83 30.5t-36 77.5zM762 0v49h158v680h-156v49h156v74q0 221 43 313q80 170 254 170q72 0 129 -32q72 -41 71 -105 q0 -78 -75 -78q-82 0 -82 74q0 47 47 70q0 23 -86 22q-100 0 -101 -137v-371h170v-49h-170v-680h158v-49h-516zM41 0v49h158v680h-156v49h156v74q0 221 43 313q80 170 254 170q72 0 129 -32q72 -41 71 -105q0 -78 -75 -78q-82 0 -82 74q0 47 47 70q0 23 -86 22 q-100 0 -101 -137v-371h170v-49h-170v-680h158v-49h-516z" />
<glyph unicode="&#xfb04;" horiz-adv-x="2043" d="M1508 0v49h147v1223h-147v49h346v-1272h147v-49h-493zM762 0v49h158v680h-156v49h156v74q0 221 43 313q80 170 254 170q72 0 129 -32q72 -41 71 -105q0 -78 -75 -78q-82 0 -82 74q0 47 47 70q0 23 -86 22q-100 0 -101 -137v-371h170v-49h-170v-680h158v-49h-516zM41 0v49 h158v680h-156v49h156v74q0 221 43 313q80 170 254 170q72 0 129 -32q72 -41 71 -105q0 -78 -75 -78q-82 0 -82 74q0 47 47 70q0 23 -86 22q-100 0 -101 -137v-371h170v-49h-170v-680h158v-49h-516z" />
<glyph unicode="&#xfb06;" horiz-adv-x="1464" d="M791 727v49h143v217l201 92v-309h205v-49h-205v-518q0 -176 127 -176q111 0 133 133q4 29 29 29q20 0 20 -25q0 -16 -2 -20q-35 -176 -252 -177q-119 0 -187.5 61.5t-68.5 178.5v514h-143zM88 8v207q0 25 23 25q18 0 24 -25q55 -195 266 -195q80 0 138 33q74 39 73 113 q0 86 -125 129q-16 2 -196 43q-188 41 -189 207q0 59 22.5 106t61.5 80t91.5 50.5t113.5 17.5q96 0 160 -51l41 38l6 5q8 8 16 8q14 0 15 -23v-207q0 -20 -17 -20q-20 0 -22 18q-14 82 -69.5 132.5t-141.5 50.5q-63 0 -115 -31q-61 -35 -61 -92q0 -61 123 -99q45 -10 89 -19 t89 -20q199 -57 198 -245q0 -129 -81.5 -200t-212.5 -71q-156 0 -238 76l-39 -51q-8 -14 -20 -14q-23 -1 -23 24z" />
<glyph unicode="&#xfb1d;" horiz-adv-x="538" d="M135 485v689h268l-2 -689h-266zM176 -256q0 35 24.5 59.5t61.5 24.5t61.5 -23.5t24.5 -60.5t-24.5 -61.5t-61.5 -24.5t-61.5 24.5t-24.5 61.5z" />
<glyph unicode="&#xfb1e;" horiz-adv-x="1056" d="M61 961v292l267 2v-81h266q154 0 240 -73t114.5 -180.5t7 -233.5t-85.5 -230l-307 -514l-211 137l328 569q27 45 39 100.5t2 101.5t-45 78t-103 32h-512z" />
<glyph unicode="&#xfb1f;" horiz-adv-x="1077" d="M135 485v689h268l-2 -689h-266zM674 485v689h268l-2 -689h-266z" />
<glyph unicode="&#xfb20;" horiz-adv-x="1228" d="M100 1174h283l186 -760v2q6 -20 8.5 -45t2.5 -54v-36q16 10 27 17t28 17q72 43 114 128t58 216q8 123 17.5 257.5t19.5 257.5h268l-35 -461q-10 -129 -50 -230.5t-102.5 -182.5t-145.5 -142.5t-178 -111.5t-198.5 -92t-207.5 -83l-74 178l250 129q-66 242 -135.5 498 t-135.5 498z" />
<glyph unicode="&#xfb21;" horiz-adv-x="1073" d="M66 1112q86 41 171 62.5t164 21.5q106 0 201.5 -33t168.5 -96t115 -158.5t42 -218.5v-198q0 -80 -17.5 -157t-44.5 -124h131v-211h-911v211h567q4 25 6.5 61.5t2.5 92.5v325q0 76 -23 129t-60.5 87t-87 48.5t-102.5 14.5q-59 0 -130 -20.5t-144 -57.5z" />
<glyph unicode="&#xfb22;" horiz-adv-x="1091" d="M74 958v216h903v-216h-92q-20 -14 -30.5 -32.5t-15.5 -40t-5 -43.5v-45v-797h-267v705q0 39 3 70.5t13.5 60t29 58.5t51.5 64h-590z" />
<glyph unicode="&#xfb23;" horiz-adv-x="1255" d="M104 1100q104 37 216 60.5t217 23.5q113 0 218 -28t185 -92.5t128 -170t48 -260.5l-2 -633h-264v569q0 94 -14.5 168t-52.5 123t-106.5 75t-178.5 26q-96 0 -187.5 -24t-179.5 -75zM145 0v559l177 148h90v-707h-267z" />
<glyph unicode="&#xfb24;" horiz-adv-x="1148" d="M106 1063q102 66 199.5 96.5t188.5 30.5q115 0 214 -43t171.5 -122t114.5 -187.5t42 -239.5v-27q0 -133 -43 -240.5t-116.5 -185t-174 -119.5t-213.5 -42q-86 0 -180 28.5t-192 89.5l49 191q94 -47 174 -69.5t139 -22.5q61 0 114.5 21.5t93.5 66.5t63.5 113.5t25.5 160.5 v43q0 94 -25.5 163t-69.5 115t-101.5 68.5t-118.5 22.5t-138 -31t-163 -94z" />
<glyph unicode="&#xfb25;" horiz-adv-x="1056" d="M61 961v550l267 2v-339h266q154 0 240 -73t114.5 -180.5t7 -233.5t-85.5 -230l-307 -514l-211 137l328 569q27 45 39 100.5t2 101.5t-45 78t-103 32h-512z" />
<glyph unicode="&#xfb26;" horiz-adv-x="1312" d="M80 1139q129 27 247.5 40t229.5 13q328 0 465 -119v2q152 -131 152 -442l-3 -633h-991v829l90 127q-41 -4 -78.5 -9t-91.5 -17zM446 190h457q0 109 1 216.5t1 216.5q2 100 -15.5 168.5t-53 108.5t-93 57.5t-135.5 17.5q-35 0 -74.5 -2t-87.5 -8v-775z" />
<glyph unicode="&#xfb27;" horiz-adv-x="1091" d="M51 1100q41 18 91.5 35.5t102.5 30t104 19.5t95 7q516 0 517 -559l-5 -633h-264v694q0 123 -65.5 199t-180.5 76q-59 0 -151 -23.5t-191 -71.5z" />
<glyph unicode="&#xfb28;" horiz-adv-x="1337" d="M16 35l41 196q33 -12 68 -24t63.5 -13t48 17t19.5 68l2 575l57 115q-20 -4 -39.5 -8.5t-35.5 -8.5q-23 -4 -48.5 -8t-74.5 -8l-21 192q68 14 140.5 27.5t145.5 24t139.5 15.5t119.5 5q166 0 277.5 -38t179 -114.5t96.5 -193.5t29 -276l-2 -578h-265v575q0 100 -11 177 t-45 128.5t-93 77t-158 25.5q-29 0 -62.5 -2t-62.5 -6q-10 -2 -2 -2v-680q0 -98 -47 -172t-120.5 -113t-163 -34.5t-175.5 61.5zM522 973v2q4 0 3 -1t-3 -1z" />
<glyph unicode="&#xfb29;" horiz-adv-x="1183" d="M29 584v172h448v448h170v-448h449v-172h-1067z" />
<glyph unicode="&#xfb2a;" horiz-adv-x="1542" d="M139 621v553h267v-605q0 -180 100 -278t264 -98q166 0 266.5 87t100.5 289v605h266v-553q0 -135 -38 -252t-112.5 -204t-188.5 -137.5t-265 -50.5q-317 0 -488.5 168.5t-171.5 475.5zM528 522q23 12 42.5 31.5t35 49.5t24.5 72t9 103v396h264v-398q0 -90 -30.5 -159.5 t-76.5 -118.5t-98.5 -79t-93.5 -42zM1181 1405q0 35 26 60.5t60 25.5q37 0 61.5 -24.5t24.5 -61.5t-24.5 -61.5t-61.5 -24.5t-61.5 24.5t-24.5 61.5z" />
<glyph unicode="&#xfb2b;" horiz-adv-x="1542" d="M139 621v553h267v-605q0 -180 100 -278t264 -98q166 0 266.5 87t100.5 289v605h266v-553q0 -135 -38 -252t-112.5 -204t-188.5 -137.5t-265 -50.5q-317 0 -488.5 168.5t-171.5 475.5zM528 522q23 12 42.5 31.5t35 49.5t24.5 72t9 103v396h264v-398q0 -90 -30.5 -159.5 t-76.5 -118.5t-98.5 -79t-93.5 -42zM182 1411q0 35 25.5 60.5t60.5 25.5q37 0 61.5 -24.5t24.5 -61.5t-24.5 -61.5t-61.5 -24.5t-61.5 24.5t-24.5 61.5z" />
<glyph unicode="&#xfb2c;" horiz-adv-x="1542" d="M139 621v553h267v-605q0 -180 100 -278t264 -98q166 0 266.5 87t100.5 289v605h266v-553q0 -135 -38 -252t-112.5 -204t-188.5 -137.5t-265 -50.5q-317 0 -488.5 168.5t-171.5 475.5zM528 522q23 12 42.5 31.5t35 49.5t24.5 72t9 103v396h264v-398q0 -90 -30.5 -159.5 t-76.5 -118.5t-98.5 -79t-93.5 -42zM1181 1405q0 35 26 60.5t60 25.5q37 0 61.5 -24.5t24.5 -61.5t-24.5 -61.5t-61.5 -24.5t-61.5 24.5t-24.5 61.5zM913 578q0 35 24.5 59.5t59.5 24.5t59.5 -24.5t24.5 -59.5t-24.5 -59.5t-59.5 -24.5t-59.5 24.5t-24.5 59.5z" />
<glyph unicode="&#xfb2d;" horiz-adv-x="1542" d="M139 621v553h267v-605q0 -180 100 -278t264 -98q166 0 266.5 87t100.5 289v605h266v-553q0 -135 -38 -252t-112.5 -204t-188.5 -137.5t-265 -50.5q-317 0 -488.5 168.5t-171.5 475.5zM528 522q23 12 42.5 31.5t35 49.5t24.5 72t9 103v396h264v-398q0 -90 -30.5 -159.5 t-76.5 -118.5t-98.5 -79t-93.5 -42zM182 1411q0 35 25.5 60.5t60.5 25.5q37 0 61.5 -24.5t24.5 -61.5t-24.5 -61.5t-61.5 -24.5t-61.5 24.5t-24.5 61.5zM913 578q0 35 24.5 59.5t59.5 24.5t59.5 -24.5t24.5 -59.5t-24.5 -59.5t-59.5 -24.5t-59.5 24.5t-24.5 59.5z" />
<glyph unicode="&#xfb2e;" horiz-adv-x="1189" d="M68 1174h274l395 -588q29 55 46.5 139t17.5 201q0 53 -3 114.5t-14 133.5h269q6 -61 10 -118t4 -104q0 -86 -16.5 -157.5t-47 -133t-75.5 -117t-101 -108.5l310 -436h-287l-424 608q-29 -59 -43 -135t-14 -154q0 -70 9 -149.5t23 -169.5h-268q-10 72 -15 139.5t-5 126.5 q0 145 58 258t167 228q-31 47 -65.5 101t-70.5 109.5t-70.5 110t-63.5 101.5zM419 -190h388v-109h-388v109z" />
<glyph unicode="&#xfb2f;" horiz-adv-x="1189" d="M68 1174h274l395 -588q29 55 46.5 139t17.5 201q0 53 -3 114.5t-14 133.5h269q6 -61 10 -118t4 -104q0 -86 -16.5 -157.5t-47 -133t-75.5 -117t-101 -108.5l310 -436h-287l-424 608q-29 -59 -43 -135t-14 -154q0 -70 9 -149.5t23 -169.5h-268q-10 72 -15 139.5t-5 126.5 q0 145 58 258t167 228q-31 47 -65.5 101t-70.5 109.5t-70.5 110t-63.5 101.5zM387 -190h388v-109h-158l-6 -92q0 -23 26 -62q29 -41 29 -61q0 -37 -24.5 -61.5t-61.5 -24.5q-35 0 -59.5 24.5t-24.5 61.5q0 25 27 63q29 41 28 60l-6 92h-158v109z" />
<glyph unicode="&#xfb30;" horiz-adv-x="1189" d="M68 1174h274l395 -588q29 55 46.5 139t17.5 201q0 53 -3 114.5t-14 133.5h269q6 -61 10 -118t4 -104q0 -86 -16.5 -157.5t-47 -133t-75.5 -117t-101 -108.5l310 -436h-287l-424 608q-29 -59 -43 -135t-14 -154q0 -70 9 -149.5t23 -169.5h-268q-10 72 -15 139.5t-5 126.5 q0 145 58 258t167 228q-31 47 -65.5 101t-70.5 109.5t-70.5 110t-63.5 101.5zM485 109q0 35 24.5 59.5t59.5 24.5t59.5 -24.5t24.5 -59.5t-24.5 -59.5t-59.5 -24.5t-59.5 24.5t-24.5 59.5z" />
<glyph unicode="&#xfb31;" horiz-adv-x="1073" d="M66 1112q86 41 171 62.5t164 21.5q106 0 201.5 -33t168.5 -96t115 -158.5t42 -218.5v-198q0 -80 -17.5 -157t-44.5 -124h131v-211h-911v211h567q4 25 6.5 61.5t2.5 92.5v325q0 76 -23 129t-60.5 87t-87 48.5t-102.5 14.5q-59 0 -130 -20.5t-144 -57.5zM276 578 q0 35 24.5 59.5t59.5 24.5t59.5 -24.5t24.5 -59.5t-24.5 -59.5t-59.5 -24.5t-59.5 24.5t-24.5 59.5z" />
<glyph unicode="&#xfb32;" horiz-adv-x="913" d="M164 633q0 35 24.5 59.5t59.5 24.5t59.5 -24.5t24.5 -59.5t-24.5 -59.5t-59.5 -24.5t-59.5 24.5t-24.5 59.5zM59 0l31 219q70 -4 145.5 23.5t139 78t104.5 118t41 145.5v223q0 92 -52 138t-124 46q-41 0 -100.5 -20.5t-134.5 -61.5l-33 191q160 104 305 104 q82 0 153.5 -29.5t124 -85t82 -133t29.5 -172.5v-411q0 -88 15.5 -187.5t25.5 -187.5h-250l-14 278q-33 -59 -82 -119.5t-111.5 -104.5t-137.5 -62.5t-157 10.5z" />
<glyph unicode="&#xfb33;" horiz-adv-x="1091" d="M74 958v216h903v-216h-92q-20 -14 -30.5 -32.5t-15.5 -40t-5 -43.5v-45v-797h-267v705q0 39 3 70.5t13.5 60t29 58.5t51.5 64h-590zM209 664q0 35 24.5 59.5t59.5 24.5t59.5 -24.5t24.5 -59.5t-24.5 -59.5t-59.5 -24.5t-59.5 24.5t-24.5 59.5z" />
<glyph unicode="&#xfb34;" horiz-adv-x="1255" d="M104 1100q104 37 216 60.5t217 23.5q113 0 218 -28t185 -92.5t128 -170t48 -260.5l-2 -633h-264v569q0 94 -14.5 168t-52.5 123t-106.5 75t-178.5 26q-96 0 -187.5 -24t-179.5 -75zM145 0v559l177 148h90v-707h-267zM537 506q0 35 24.5 59.5t59.5 24.5t59.5 -24.5 t24.5 -59.5t-24.5 -59.5t-59.5 -24.5t-59.5 24.5t-24.5 59.5z" />
<glyph unicode="&#xfb35;" horiz-adv-x="540" d="M137 0v1174h266v-1174h-266zM-156 594q0 35 24.5 59.5t59.5 24.5t59.5 -24.5t24.5 -59.5t-24.5 -59.5t-59.5 -24.5t-59.5 24.5t-24.5 59.5z" />
<glyph unicode="&#xfb36;" horiz-adv-x="782" d="M80 961v213h604v-213h-189q0 -10 -1 -21.5t-3 -21.5q-2 -35 -3 -69t-1 -69q0 -53 4 -112.5t19 -130.5l112 -537h-266l-92 440q-8 43 -11 94.5t-3 108.5q0 74 3 154t11 164h-184zM-47 762q0 35 24.5 59.5t59.5 24.5t59.5 -24.5t24.5 -59.5t-24.5 -59.5t-59.5 -24.5 t-59.5 24.5t-24.5 59.5z" />
<glyph unicode="&#xfb38;" horiz-adv-x="1327" d="M129 483v691h266v-746q0 -59 21.5 -105.5t59.5 -77t87 -47t105 -16.5q51 0 97 12.5t82 42t57.5 76.5t21.5 119v365q0 90 -38 130t-89 40t-106.5 -33t-88.5 -84l-86 213q57 66 129 99.5t146.5 38.5t146.5 -16.5t128 -64.5t90 -107.5t34 -146.5v-385q0 -121 -39 -216 t-109.5 -161.5t-168 -100.5t-213.5 -34q-254 2 -393.5 136t-139.5 378zM580 578q0 35 24.5 59.5t59.5 24.5t59.5 -24.5t24.5 -59.5t-24.5 -59.5t-59.5 -24.5t-59.5 24.5t-24.5 59.5z" />
<glyph unicode="&#xfb39;" horiz-adv-x="538" d="M135 485v689h268l-2 -689h-266zM-141 801q0 35 24.5 59.5t59.5 24.5t59.5 -24.5t24.5 -59.5t-24.5 -59.5t-59.5 -24.5t-59.5 24.5t-24.5 59.5z" />
<glyph unicode="&#xfb3a;" horiz-adv-x="1073" d="M61 1114q205 84 357 84q113 0 208 -37t163.5 -107.5t106.5 -177t38 -243.5l-2 -1018h-266v1040q0 82 -22.5 142.5t-59.5 98.5t-85 56.5t-102 18.5q-55 0 -127.5 -26.5t-150.5 -76.5zM303 645q0 35 24.5 59.5t59.5 24.5t59.5 -24.5t24.5 -59.5t-24.5 -59.5t-59.5 -24.5 t-59.5 24.5t-24.5 59.5z" />
<glyph unicode="&#xfb3b;" horiz-adv-x="1148" d="M106 1063q102 66 199.5 96.5t188.5 30.5q115 0 214 -43t171.5 -122t114.5 -187.5t42 -239.5v-27q0 -133 -43 -240.5t-116.5 -185t-174 -119.5t-213.5 -42q-86 0 -180 28.5t-192 89.5l49 191q94 -47 174 -69.5t139 -22.5q61 0 114.5 21.5t93.5 66.5t63.5 113.5t25.5 160.5 v43q0 94 -25.5 163t-69.5 115t-101.5 68.5t-118.5 22.5t-138 -31t-163 -94zM360 592q0 35 24.5 59.5t59.5 24.5t59.5 -24.5t24.5 -59.5t-24.5 -59.5t-59.5 -24.5t-59.5 24.5t-24.5 59.5z" />
<glyph unicode="&#xfb3c;" horiz-adv-x="1056" d="M61 961v550l267 2v-339h266q154 0 240 -73t114.5 -180.5t7 -233.5t-85.5 -230l-307 -514l-211 137l328 569q27 45 39 100.5t2 101.5t-45 78t-103 32h-512zM281 662q0 35 24.5 59.5t59.5 24.5t59.5 -24.5t24.5 -59.5t-24.5 -59.5t-59.5 -24.5t-59.5 24.5t-24.5 59.5z" />
<glyph unicode="&#xfb3e;" horiz-adv-x="1357" d="M72 1030l143 170q55 -23 106.5 -84t79.5 -127q53 98 151.5 153.5t203.5 55.5q88 0 174 -31.5t153.5 -91t108.5 -146.5t41 -198v-285q0 -100 -34 -184t-92 -145.5t-136 -95t-166 -33.5q-57 0 -118.5 16t-127.5 51l49 185q68 -35 132.5 -43.5t114.5 15.5t81 80t31 148v281 q0 66 -19.5 115t-53.5 80.5t-77 47t-88 15.5q-51 0 -102.5 -18.5t-91 -53.5t-64.5 -85t-25 -115v-707h-266v811q0 61 -22.5 119.5t-85.5 99.5zM629 586q0 35 24.5 59.5t59.5 24.5t59.5 -24.5t24.5 -59.5t-24.5 -59.5t-59.5 -24.5t-59.5 24.5t-24.5 59.5z" />
<glyph unicode="&#xfb40;" horiz-adv-x="856" d="M100 0v211h353v596q0 78 -34 108.5t-81 30.5q-29 0 -75 -14t-101 -41l-47 221q76 29 139 42t117 13q160 0 253 -97t93 -294v-776h-617zM133 572q0 35 24.5 59.5t59.5 24.5t59.5 -24.5t24.5 -59.5t-24.5 -59.5t-59.5 -24.5t-59.5 24.5t-24.5 59.5z" />
<glyph unicode="&#xfb41;" horiz-adv-x="1277" d="M106 604q0 154 39 270.5t110 194.5t168 116t212 36q115 2 212 -36t167.5 -115t109.5 -193.5t39 -272.5q0 -143 -40 -260t-110.5 -199t-166.5 -126t-211 -44q-127 0 -225.5 44t-166 126t-102.5 199t-35 260zM362 598q0 -86 14.5 -161t46.5 -130t84 -87t128 -32 q78 0 130 37t83 95.5t44 132t13 145.5q0 82 -11 156.5t-42 131t-84 89.5t-135 33t-134.5 -31t-83 -86t-42 -130t-11.5 -163zM551 600q0 35 24.5 59.5t59.5 24.5t59.5 -24.5t24.5 -59.5t-24.5 -59.5t-59.5 -24.5t-59.5 24.5t-24.5 59.5z" />
<glyph unicode="&#xfb43;" horiz-adv-x="1267" d="M76 778q0 100 43 179t114.5 132.5t165 80t195.5 26.5q145 0 247.5 -41t166 -114.5t92 -177t28.5 -230.5v-1018h-268l6 1067q0 66 -13 119t-45 92t-85 59.5t-135 20.5q-115 0 -186.5 -47t-75.5 -146q-2 -31 9 -67.5t42 -67.5t84 -50.5t135 -14.5l6 -162q-80 -18 -145 -19 q-96 0 -168 33t-119 87t-70.5 121.5t-23.5 137.5zM571 742q0 35 24.5 59.5t59.5 24.5t59.5 -24.5t24.5 -59.5t-24.5 -59.5t-59.5 -24.5t-59.5 24.5t-24.5 59.5z" />
<glyph unicode="&#xfb44;" horiz-adv-x="1280" d="M111 791q-4 100 35.5 181t107.5 136t155 85t181 30q100 0 203.5 -31t184.5 -103.5t131 -193.5t48 -301q-4 -145 -57 -263t-139 -204q-84 -84 -200 -122t-234.5 -34t-226 50.5t-177.5 128.5l115 174q96 -98 209.5 -131t212 0.5t166 134t73.5 268.5q4 125 -25.5 205 t-77.5 125t-107.5 61.5t-115.5 16.5q-82 0 -144 -52.5t-71 -156.5q-4 -68 18.5 -108t61.5 -54.5t88 -1t97 52.5l39 -152q-92 -80 -188.5 -96t-176.5 23t-132 124t-54 208zM553 832q0 35 24.5 59.5t59.5 24.5t59.5 -24.5t24.5 -59.5t-24.5 -59.5t-59.5 -24.5t-59.5 24.5 t-24.5 59.5z" />
<glyph unicode="&#xfb46;" horiz-adv-x="1163" d="M74 1174h286q49 -168 112 -312.5t169 -277.5q33 49 54.5 99t34.5 116.5t19.5 155.5t8.5 219h278q0 -150 -20.5 -258.5t-57 -190.5t-89 -146.5t-113.5 -125.5l225 -260v-193h-850v211h543l-65 64q-26 26 -44 43.5t-30.5 29.5t-22.5 25q-133 143 -238.5 338t-199.5 463z M154 404q0 35 24.5 59.5t59.5 24.5t59.5 -24.5t24.5 -59.5t-24.5 -59.5t-59.5 -24.5t-59.5 24.5t-24.5 59.5z" />
<glyph unicode="&#xfb47;" horiz-adv-x="1263" d="M127 958v216h610q109 0 189 -33t131 -87.5t75.5 -127t25.5 -152.5t-20.5 -162t-62.5 -155l-287 -516l-215 139l308 549q31 53 37 111.5t-12.5 106.5t-64.5 79.5t-122 31.5h-592zM160 -276l2 997h264v-997h-266zM524 584q0 35 24.5 59.5t59.5 24.5t59.5 -24.5t24.5 -59.5 t-24.5 -59.5t-59.5 -24.5t-59.5 24.5t-24.5 59.5z" />
<glyph unicode="&#xfb48;" horiz-adv-x="1091" d="M51 1100q41 18 91.5 35.5t102.5 30t104 19.5t95 7q516 0 517 -559l-5 -633h-264v694q0 123 -65.5 199t-180.5 76q-59 0 -151 -23.5t-191 -71.5zM315 639q0 35 24.5 59.5t59.5 24.5t59.5 -24.5t24.5 -59.5t-24.5 -59.5t-59.5 -24.5t-59.5 24.5t-24.5 59.5z" />
<glyph unicode="&#xfb49;" horiz-adv-x="1542" d="M139 621v553h267v-605q0 -180 100 -278t264 -98q166 0 266.5 87t100.5 289v605h266v-553q0 -135 -38 -252t-112.5 -204t-188.5 -137.5t-265 -50.5q-317 0 -488.5 168.5t-171.5 475.5zM528 522q23 12 42.5 31.5t35 49.5t24.5 72t9 103v396h264v-398q0 -90 -30.5 -159.5 t-76.5 -118.5t-98.5 -79t-93.5 -42zM913 578q0 35 24.5 59.5t59.5 24.5t59.5 -24.5t24.5 -59.5t-24.5 -59.5t-59.5 -24.5t-59.5 24.5t-24.5 59.5z" />
<glyph unicode="&#xfb4a;" horiz-adv-x="1337" d="M16 35l41 196q33 -12 68 -24t63.5 -13t48 17t19.5 68l2 575l57 115q-20 -4 -39.5 -8.5t-35.5 -8.5q-23 -4 -48.5 -8t-74.5 -8l-21 192q68 14 140.5 27.5t145.5 24t139.5 15.5t119.5 5q166 0 277.5 -38t179 -114.5t96.5 -193.5t29 -276l-2 -578h-265v575q0 100 -11 177 t-45 128.5t-93 77t-158 25.5q-29 0 -62.5 -2t-62.5 -6q-10 -2 -2 -2v-680q0 -98 -47 -172t-120.5 -113t-163 -34.5t-175.5 61.5zM522 973v2q4 0 3 -1t-3 -1zM655 590q0 35 24.5 59.5t59.5 24.5t59.5 -24.5t24.5 -59.5t-24.5 -59.5t-59.5 -24.5t-59.5 24.5t-24.5 59.5z" />
<glyph unicode="&#xfb4b;" horiz-adv-x="540" d="M137 0v1174h266v-1174h-266zM184 1409q0 35 25.5 60.5t60.5 25.5q37 0 61.5 -24.5t24.5 -61.5t-24.5 -61.5t-61.5 -24.5t-61.5 24.5t-24.5 61.5z" />
<glyph unicode="&#xfb4c;" horiz-adv-x="1073" d="M66 1112q86 41 171 62.5t164 21.5q106 0 201.5 -33t168.5 -96t115 -158.5t42 -218.5v-198q0 -80 -17.5 -157t-44.5 -124h131v-211h-911v211h567q4 25 6.5 61.5t2.5 92.5v325q0 76 -23 129t-60.5 87t-87 48.5t-102.5 14.5q-59 0 -130 -20.5t-144 -57.5zM289 1384v111h430 v-111h-430z" />
<glyph unicode="&#xfb4d;" horiz-adv-x="1148" d="M106 1063q102 66 199.5 96.5t188.5 30.5q115 0 214 -43t171.5 -122t114.5 -187.5t42 -239.5v-27q0 -133 -43 -240.5t-116.5 -185t-174 -119.5t-213.5 -42q-86 0 -180 28.5t-192 89.5l49 191q94 -47 174 -69.5t139 -22.5q61 0 114.5 21.5t93.5 66.5t63.5 113.5t25.5 160.5 v43q0 94 -25.5 163t-69.5 115t-101.5 68.5t-118.5 22.5t-138 -31t-163 -94zM313 1384v111h430v-111h-430z" />
<glyph unicode="&#xfb4e;" horiz-adv-x="1280" d="M111 791q-4 100 35.5 181t107.5 136t155 85t181 30q100 0 203.5 -31t184.5 -103.5t131 -193.5t48 -301q-4 -145 -57 -263t-139 -204q-84 -84 -200 -122t-234.5 -34t-226 50.5t-177.5 128.5l115 174q96 -98 209.5 -131t212 0.5t166 134t73.5 268.5q4 125 -25.5 205 t-77.5 125t-107.5 61.5t-115.5 16.5q-82 0 -144 -52.5t-71 -156.5q-4 -68 18.5 -108t61.5 -54.5t88 -1t97 52.5l39 -152q-92 -80 -188.5 -96t-176.5 23t-132 124t-54 208zM375 1384v111h430v-111h-430z" />
<glyph unicode="&#xfb4f;" horiz-adv-x="1181" d="M61 1174v337l273 2v-339l395 -588q29 55 46.5 139t17.5 201q0 53 -3.5 114.5t-13.5 133.5h268q6 -61 10.5 -118t4.5 -104q0 -86 -16.5 -157.5t-47 -133t-76 -117t-100.5 -108.5l309 -436h-286l-424 608z" />
</font>
</defs>
</svg>
