<?xml version="1.0" standalone="no"?>
<!DOCTYPE svg PUBLIC "-//W3C//DTD SVG 1.1//EN" "http://www.w3.org/Graphics/SVG/1.1/DTD/svg11.dtd" >
<svg xmlns="http://www.w3.org/2000/svg">
<metadata></metadata>
<defs>
<font id="eft_afarsek_lightregular" horiz-adv-x="0" >
<font-face units-per-em="2048" ascent="1638" descent="-410" />
<missing-glyph horiz-adv-x="491" />
<glyph horiz-adv-x="2048" />
<glyph horiz-adv-x="2048" />
<glyph unicode="&#xd;" horiz-adv-x="778" />
<glyph unicode=" "  horiz-adv-x="491" />
<glyph unicode="&#x09;" horiz-adv-x="491" />
<glyph unicode="&#xa0;" horiz-adv-x="491" />
<glyph unicode="!" horiz-adv-x="497" d="M451 1057q12 20 28.5 31.5t31.5 11.5t27.5 -11.5t12.5 -31.5q-10 -68 -26.5 -143.5t-41.5 -153.5q-41 -129 -98 -248t-152 -248q-12 -16 -30.5 -25.5t-33.5 -10.5t-24.5 7.5t-5.5 26.5q29 90 64 191.5t73.5 205t83 206t91.5 192.5zM-2 27q2 8 12 23.5t34 26.5t62.5 14 t98.5 -13q20 -18 18 -31q-6 -18 -24.5 -37.5t-44 -32t-55 -17.5t-60.5 5q-55 23 -41 62z" />
<glyph unicode="&#x22;" horiz-adv-x="522" d="M250 1051q20 -18 35.5 -46t23.5 -61t8 -65.5t-12 -59.5q-14 -33 -38.5 -69.5t-56.5 -70.5t-70 -61.5t-79 -44.5q-18 -8 -34.5 -1.5t2.5 18.5l2 8v-2l27 41q26 41 56.5 103.5t54.5 135t17 138.5zM313 600q76 111 107 170t40 96t11 67t25 81q18 41 40.5 47t39 -19.5 t24.5 -80t-4 -134.5q-4 -31 -25.5 -61.5t-52.5 -60t-69.5 -58.5t-75.5 -53q-14 -10 -29.5 -14.5t-27 -3t-12.5 8.5t11 19z" />
<glyph unicode="#" horiz-adv-x="1032" d="M621 754q14 14 31.5 22t30.5 7t20.5 -9t1.5 -26q-29 -61 -52.5 -121t-46.5 -121q-29 -70 -57.5 -135.5t-56.5 -132.5q2 4 2 7t2 7l2 6q-4 -4 -4 -7t-2 -7v-2q0 -4 -5.5 -10.5t-9.5 -12.5q-16 -29 -32.5 -65.5t-28.5 -73.5q-6 -23 -11.5 -44.5t-5.5 -41.5q0 -12 -11 -20.5 t-27.5 -9.5t-33 4t-26.5 20q-23 51 -16 129q4 31 11 62.5t17 66.5q20 66 53 134.5t75 134t88 126.5t92 115v-2zM473 193v8q6 8 10 17t9 20q-4 -12 -10.5 -25.5t-8.5 -19.5zM983 809q16 8 32.5 12t28 2t14.5 -9t-7 -19q-63 -76 -104.5 -167t-76.5 -190q-2 -4 -5 -13l-5 -15 q-10 -27 -20.5 -52.5t-20.5 -52.5v6l-4 -8l-4 -8q0 4 -1 -3t-5 -11v-2q-2 -6 -3 -8.5t-5 -8.5q-23 -49 -43.5 -96t-36.5 -96q-4 -14 -7 -30.5t-8 -29.5l-6 -24q-14 -31 -51 -31q-39 0 -53 37q-6 45 0 117q4 47 22.5 99t47.5 101q37 63 68.5 132t67.5 134.5t80 126t105 109.5 v-2zM795 252l2 6q4 4 5 7t3 7q-2 -4 -4 -10t-6 -10zM811 285q2 4 3 8t3 10l2 2zM793 254q0 -2 2 -4q-4 -16 -7.5 -24.5t3.5 14.5v8t2 6zM217 518q-12 2 -17 8t5 11q27 4 52.5 8t51.5 8q18 4 35.5 6t36.5 6q59 10 125.5 22.5t133.5 21.5t130.5 15.5t116.5 6.5q180 0 325 -53 q10 -4 -2 -12.5t-28 -6.5q-72 4 -153 -4t-159 -18q-41 -4 -76.5 -4.5t-76.5 -4.5q-68 -8 -141.5 -15t-133.5 -7q-29 0 -72.5 -7t-81.5 -11.5t-60.5 0.5t-10.5 30zM51 203q-12 4 -16 9t4 9q90 16 182 45t170 43q115 23 220.5 47.5t222.5 30.5q25 2 58.5 -1t66 -9t57 -15.5 t31.5 -21.5q4 -4 -2.5 -11t-16.5 -7q-4 -10 -55 -16.5t-123 -12.5t-150.5 -13.5t-136.5 -21.5q-8 0 -17 -2l-18 -4q-111 -25 -230.5 -43t-246.5 -6z" />
<glyph unicode="$" horiz-adv-x="923" d="M834 655q8 -6 2.5 -11t-16.5 -8t-25.5 -3t-22.5 6q-23 14 -54.5 19.5t-66.5 5.5q-55 0 -118.5 -12.5t-120 -37t-98.5 -60.5t-56 -81l-14 -43q45 -14 98 -20.5t107 -10.5q57 -8 120.5 -13t125 -16.5t120.5 -34t109 -65.5q8 -12 2 -24l-6 -8l-11 -11v-4q-8 -10 -18 -21.5 t-39 -27.5q-47 -29 -107.5 -53.5t-128 -42t-138 -27.5t-138.5 -10q-70 0 -132.5 14.5t-92.5 40.5q-18 12 -25.5 21.5t-9.5 15.5q0 2 -1 1t-1 1v4q-4 6 -7 13.5t-10 17.5l-4 8q-2 10 8.5 15.5t25.5 3.5t31.5 -8.5t29.5 -16.5l6 -10q20 -16 20 -23v-2l10 -8v-6 q29 -16 56.5 -23.5t60.5 -7.5q41 0 89 9.5t97.5 23.5t96.5 31.5t86 31.5v9v10t-10.5 15t-35 20.5t-71.5 27.5q-18 4 -36.5 5t-41.5 6q-66 10 -134.5 21t-121.5 22q-78 20 -113.5 44.5t-31.5 71.5q2 10 5 25.5t9 32.5q4 14 36 39.5t60 48.5q92 59 204 93t218 34 q70 0 126.5 -14.5t97.5 -43.5zM707 926q8 -2 9 -8.5t-3 -21.5t-12.5 -43t-20.5 -73v-2q-8 -16 -10 -24q-8 -16 -13.5 -32.5t-11.5 -33.5q-35 -117 -75 -231.5t-83 -233.5q-2 -4 -3 -9t-5 -9q-8 -18 -15 -38t-15 -38q-18 -49 -36 -100.5t-30 -102.5q-10 -27 -16.5 -54.5 t-10.5 -53.5q-8 -18 -21 -26.5t-26.5 -8.5t-26 10t-18.5 29q0 29 -1 56.5t3 51.5q4 66 18.5 140.5t37.5 146.5q31 102 75.5 213t87.5 209q29 51 57.5 106.5t69.5 112.5v6l17 25l2 6q0 -12 8 -4q6 10 18.5 20.5t40.5 16.5z" />
<glyph unicode="%" horiz-adv-x="991" d="M967 1075q14 8 29.5 10t25.5 -1t11 -10t-11 -17q-86 -72 -165 -159t-151.5 -182t-141 -195.5t-136.5 -201.5q-31 -43 -59.5 -87t-65.5 -97t-85 -120.5t-114 -155.5q-2 -4 -2 -7.5t-2 -7.5v-2q-4 -8 -12 -6l-2 -10q0 -16 -11.5 -23.5t-26.5 -9.5t-31.5 4t-26.5 19 q-4 12 2 37q6 23 33.5 67.5t80.5 134.5q82 143 164 281.5t180.5 267.5t223.5 248t293 223zM766 233l-4 -6v-8q4 -8 9 -18.5t5 -28.5t-7 -46t-28 -71q-29 -18 -56.5 -19t-47 12t-29.5 39t0 56zM248 872q27 39 61.5 40t34.5 -38q0 -4 1 -5t1 -3l-2 -2q4 -16 8 -27.5t2 -25.5 t-14 -36.5t-41 -61.5v-4q4 -12 -4 -20.5t-22.5 -10.5t-30 3t-25.5 17l2 4q-63 33 -51 58q4 16 27.5 46t50.5 58z" />
<glyph unicode="&#x26;" horiz-adv-x="2072" d="M1913 178q14 8 29.5 10t26.5 -1t12 -9t-11 -16q-6 -4 -7 -7t-3 -6.5t-8 -7.5t-21 -12q-23 -12 -40 -24.5t-57 -25.5t-117 -26.5t-216 -27.5q-61 0 -119.5 12t-106.5 33.5t-83 52.5t-51 70q-2 4 -3 7t-3 7q-10 23 -17.5 44t-9.5 52q-18 -2 -37.5 -3t-38.5 -1 q-18 -4 -35.5 -2t-40.5 4l-8 -39q-10 -61 -25.5 -125.5t-29.5 -120.5q-8 -23 -26.5 -36t-37 -15t-31 8.5t-5.5 32.5q6 20 12 38.5t11 49.5t9 84t4 146q-68 23 -123 51t-69 63v2q-14 -18 -39 -45.5t-39 -50.5q-23 -35 -41 -53.5t-35 -36.5q-51 -66 -116.5 -128.5 t-112.5 -148.5q-12 -16 -28.5 -24t-31 -8t-23.5 8t-9 27q39 74 82 151.5t96 151t120.5 139t155.5 117.5l17 10l6 22q12 33 35.5 44.5t56.5 11.5q27 0 54.5 -10.5t52 -27t44 -37t29.5 -40.5q16 -31 23.5 -59.5t7.5 -67.5q61 -12 133 -6l45 223q25 74 70 174q35 74 114.5 153 t180 142.5t208 101t195.5 29.5q98 -18 142.5 -84.5t35.5 -148.5q-4 -61 -33.5 -121t-70.5 -119q-23 -27 -46.5 -56.5t-51.5 -58.5q-51 -49 -120 -93t-146.5 -82t-162.5 -66.5t-169 -46.5q-10 -61 8 -113q16 -43 62 -79t147 -40zM1917 197l-2 -17l-2 -2zM1354 770 q-45 -78 -72 -166q-31 -86 -35 -166l-6 -16l-2 -10q133 33 265 102.5t222 153.5q16 14 40 47t46.5 74.5t40 89t21.5 89.5t-9.5 76.5t-49.5 51.5q-59 10 -127 -21t-131.5 -81t-117.5 -111.5t-85 -112.5zM760 811q-8 6 -15 14q-4 8 -8 20.5t0 31.5q6 23 21.5 32t32 11t30 -2.5 t15.5 -6.5q4 -6 9 -19t-1 -30q2 2 7 3t7 3l21 17q37 29 88 57.5t110 44.5q33 0 46.5 -4t27.5 -16l4 -11v-2q4 -25 0 -43t-22 -59v-2q-8 -18 -22.5 -28.5t-30 -11.5t-29 8t-17.5 30v2q-8 -6 -16 -12.5t-21 -16.5q-66 -43 -145 -43q-35 0 -59.5 8.5t-32.5 24.5z" />
<glyph unicode="'" horiz-adv-x="491" d="M637 1163q23 37 57.5 36t38.5 -36v-61q-4 -25 -8 -49.5t-12 -46.5q-35 -104 -145.5 -192.5t-272.5 -154.5q-25 -8 -41 -0.5t0 21.5q4 4 20 16q10 10 44 40t81 81z" />
<glyph unicode="(" horiz-adv-x="505" d="M631 979q-25 -59 -41.5 -87t-34.5 -54q-41 -66 -70 -131q-41 -78 -76.5 -168t-66.5 -177q-2 -10 -12.5 -49t-24.5 -92t-30.5 -115.5t-27.5 -122t-16.5 -107.5t0.5 -75q2 -25 7.5 -36l11.5 -23q10 -16 15 -29.5t1 -19.5v-2q0 -18 -13 -29.5t-29.5 -12.5t-32 6t-19.5 26 q-68 123 -76 213t-2 157q4 66 18.5 134.5t34.5 136.5q35 98 80 195t105 198q12 20 41.5 62t69.5 87t83 83t82 50q16 4 28.5 -4t-5.5 -18v4z" />
<glyph unicode=")" horiz-adv-x="489" d="M336 975q-6 6 -3 11t11 9t19.5 5t19.5 -3v-2q29 -8 47.5 -42.5t28.5 -79t13 -87.5t1 -67q0 -16 -1 -35.5t-3 -36.5q-6 -78 -24.5 -161t-45.5 -160q-23 -68 -54.5 -140.5t-75.5 -148.5t-103.5 -150.5t-138.5 -144.5q-2 -6 -30 -29.5t-58.5 -43t-52 -22.5t-13.5 34 q27 0 65.5 50t79.5 123.5t81 159.5t71 162t47 127t12 55q31 86 52.5 173t33.5 171l21 273v0z" />
<glyph unicode="*" horiz-adv-x="987" d="M426 1118q66 20 128 10t112 -32q57 -25 108 -64q31 84 65.5 165t75.5 173q25 37 60 36t37 -38q-12 -76 -27.5 -154.5t-34.5 -158.5q74 35 147.5 62.5t151.5 41.5q16 0 21.5 -9t-4.5 -15q-61 -27 -128 -70t-132 -86q-4 -4 -9.5 -8t-7.5 -6l-53 -37q31 -25 60.5 -49.5 t58.5 -47.5q10 -12 30.5 -36.5t41 -51t34 -50t8.5 -31.5v-3q-12 -47 -24 -48t-62 40q-49 41 -101 76t-105 70q-27 -72 -59 -144.5t-66 -136.5q-29 -35 -63 -42t-40 26q4 6 4 13t3 26.5t10.5 59.5t25.5 112q0 14 1 27.5t3 27.5q-92 -57 -188 -107.5t-195 -85.5v-2 q-25 -10 -44 -3t1 22q35 25 81 60.5t93 74.5q20 16 40 31.5t40 27.5q41 31 86 63t92 64q-18 14 -46.5 37t-62.5 45.5t-71 45t-73 38.5l-37 17q-6 4 -1 12t15 12z" />
<glyph unicode="+" horiz-adv-x="1028" d="M98 285q-18 -8 -24 -4t-3 15t10 26.5t13 27.5q4 6 36 16.5t77 23.5t95 25.5t93 21.5t70 12.5t22 -0.5q-4 31 0 59q4 47 34 103.5t67 109.5v4l4 4q10 25 35 25q41 2 51 -3.5t2 -33t-31.5 -88t-50.5 -166.5q16 2 33.5 2h34.5q57 0 100 -3t78 -9.5t68.5 -17.5t76.5 -27 q12 -4 20.5 -23.5t-18.5 -30.5q-45 10 -117.5 13.5t-156.5 -1t-174 -12.5t-174 -19t-155 -24.5t-116 -25.5z" />
<glyph unicode="," horiz-adv-x="647" d="M283 123q2 16 15 25.5t27.5 9.5t25.5 -8.5t11 -26.5v-2v-2v-4q4 -10 5.5 -22.5t3.5 -22.5q2 -76 -59.5 -140.5t-161.5 -109.5q-23 -14 -42.5 -6t-15.5 20q4 4 6 8t6 8q33 39 57.5 78t55.5 80q4 6 12.5 18.5t17.5 28t17 29.5t15 25l-3 2q2 2 2.5 4t2.5 6z" />
<glyph unicode="-" horiz-adv-x="821" d="M68 410q-10 2 -2 9t18 11q100 16 207.5 24.5t204.5 8.5h63.5t63.5 -2q10 0 27.5 -1t29.5 -1h55h35.5t27 -4t6.5 -13.5t-22 -25.5q-23 -10 -42 -16.5t-35 -12.5q-55 -12 -115 -20.5t-109 -8.5q-41 0 -94 3.5t-110.5 9.5t-111.5 15.5t-97 23.5z" />
<glyph unicode="." horiz-adv-x="512" d="M174 82q20 51 49 70.5t59.5 20.5t58.5 -12.5t46 -27.5q20 -20 19 -33q-6 -18 -25 -36.5t-44.5 -31t-55 -17.5t-60.5 3q-29 10 -40 29t-7 35z" />
<glyph unicode="/" horiz-adv-x="507" d="M-102 -262q-12 -18 -33 -29.5t-38 -14.5t-25.5 5t1.5 27q31 45 45.5 65.5t24.5 34.5t22.5 32.5t41 56.5t76.5 106.5t132 185.5q57 68 117 136.5t135.5 153.5t173 191.5t228.5 249.5q18 18 37.5 27.5t35 9.5t22.5 -8.5t1 -26.5q-51 -102 -135 -219t-187.5 -241t-218 -250 t-227.5 -242q-12 -12 -41 -44t-64.5 -71t-69.5 -77t-54 -58z" />
<glyph unicode="0" horiz-adv-x="985" d="M473 690q12 2 29.5 2t29.5 -2l23 6q2 0 5 1t-1 -1q49 14 91 24.5t75 10.5q57 0 105.5 -23.5t82 -64.5t50 -94t10.5 -111q-2 -33 -17 -80q-18 -55 -64 -113.5t-114 -111.5q-33 -33 -90 -64.5t-126.5 -53t-142.5 -32t-137.5 1t-111.5 45t-66 99.5q-16 43 -5.5 104.5t38 128 t68.5 131t88 112.5t94 72.5t86 12.5zM674 692q-10 0 -22.5 -2t-26.5 -6l-2 -10q0 -10 -27 -15q-4 0 -11 1.5t-20 1.5q-51 6 -95 -14.5t-80 -57.5t-63.5 -87t-45.5 -104q-8 -23 -13.5 -46t-7.5 -46q-4 -47 4 -88t29.5 -70.5t58.5 -44t90 -8.5q74 8 141.5 46t119 92.5t83 121 t37.5 131.5q2 35 -7 72t-28.5 66.5t-48 48t-65.5 18.5z" />
<glyph unicode="1" horiz-adv-x="661" d="M217 426q-18 -12 -36.5 -19.5t-33 -8.5t-21.5 4.5t-1 17.5l184 196q37 37 76 77t70.5 76t54 64.5t29.5 43.5q12 27 42.5 39t63.5 12t52.5 -10.5t17.5 -32.5q-4 -33 -15 -64q-4 -10 -34.5 -60t-83 -148.5t-124 -249t-159.5 -359.5q-10 -23 -28.5 -35t-36 -13t-28.5 9 t-5 33q31 141 94 289.5t127 290.5z" />
<glyph unicode="2" horiz-adv-x="937" d="M293 616q-14 -18 -32.5 -26t-34 -7t-22.5 10t1 28q0 2 20.5 40.5t69.5 85t131 83t209 34.5q80 -6 125 -23.5t70.5 -39t39 -44t29.5 -40.5q23 -23 30 -51.5t3 -53.5q-12 -80 -81 -157.5t-161 -149.5t-192.5 -136.5t-175.5 -115.5q20 0 34.5 1t30.5 3q39 4 80 7.5t78 3.5 q55 0 112.5 -8.5t110.5 -34.5q4 -6 -15.5 -12.5t-39.5 -2.5q-82 27 -171 13.5t-171 -31.5q-66 -16 -132.5 -27.5t-129.5 -5.5q-35 6 -51.5 13.5t-16.5 27.5q2 6 8 14.5t29.5 24.5t71 46t133.5 81q27 18 73.5 50t102 73t112 86t99.5 87t66.5 76.5t15.5 57.5v2 q0 35 -19.5 64.5t-50.5 51t-69 34t-76 12.5q-43 0 -71 -10.5t-52.5 -30t-52 -46t-68.5 -57.5z" />
<glyph unicode="3" horiz-adv-x="1013" d="M319 657q-25 57 6 102.5t96.5 76t156 47t183.5 18.5t178 -10t142.5 -39t76 -70t-22.5 -100q-6 -8 -14.5 -19.5t-26.5 -33.5q-33 -37 -88.5 -69t-107.5 -56.5t-90 -41t-34 -24.5q51 -2 109 -16q53 -18 83.5 -58t14.5 -85q-16 -57 -68.5 -104.5t-124 -82.5t-156.5 -57.5 t-170 -28.5t-161 3t-131 37t-81 74t-9 113q8 18 16 34t39 55q16 16 37 24t36 8t20 -9t-7 -28l-10 -10v-2q-10 -8 -18.5 -20.5t-14.5 -22.5q-16 -29 -20 -60.5t14 -60.5q16 -37 68.5 -51t117.5 -14q66 0 133.5 14t127 39t106.5 59.5t74 77.5q2 4 4 11.5t4 11.5v14 q-35 23 -75 26t-81 3h-18q-33 0 -64.5 2t-66.5 12q-35 23 -29 51q6 16 47 47q18 10 61.5 26.5t94.5 38t105.5 48.5t96.5 53.5t64.5 54t11.5 54.5q-12 49 -59 74.5t-112.5 31.5t-139.5 -6t-140.5 -34.5t-117 -56.5t-66.5 -71z" />
<glyph unicode="4" horiz-adv-x="823" d="M293 848q10 20 26.5 29.5t31 9.5t25.5 -10.5t11 -28.5q0 -4 -9 -34t-20.5 -65.5t-20.5 -66.5t-11 -39q-10 -25 -26.5 -76t-24 -98t1 -79t49.5 -15q55 23 91 40t61.5 37.5t48 46t53 60.5t75.5 83t115 114q33 0 53.5 -10.5t20.5 -32.5q-16 -43 -37 -94.5t-47 -106.5 q-29 -61 -55.5 -124.5t-47.5 -129.5q-18 -51 -27 -100t-14 -101q0 -18 -13 -29.5t-30.5 -12.5t-33 8.5t-19.5 29.5q-4 29 -5 58.5t3 58.5q4 51 15.5 105.5t25.5 109.5v10q-70 -53 -147.5 -90t-145.5 -37q-49 0 -89 23.5t-47 88t28 177.5t135 291z" />
<glyph unicode="5" horiz-adv-x="923" d="M303 528q-27 18 -32 56.5t5 68.5q8 23 20.5 35t53.5 21q-16 6 -4 26q29 47 50.5 78t49 49.5t69.5 26.5t110 8q111 0 207 -29.5t149 -76.5q0 -31 -11.5 -37t-44 0t-90 19t-149.5 26q-43 0 -78 2t-65.5 -2t-58 -19.5t-58.5 -52.5v4q-14 -10 -29 -18q6 -4 6 -10.5t-8 -8.5 l-2 -20q4 0 1 -9.5t8.5 -33t45 -60t111.5 -92.5q33 -25 75 -45t75.5 -41.5t55 -45t15.5 -54.5q-18 -51 -68 -101.5t-117 -91.5t-142.5 -70.5t-145.5 -37.5q-20 -2 -39.5 -3t-34.5 -1q-37 0 -70.5 5t-59 24.5t-40 59.5t-10.5 109q0 23 15.5 34t34 12t34 -9t17.5 -30 q0 -16 -3.5 -38t2 -42.5t20.5 -37t52 -20.5q27 -2 73 9.5t98.5 33t101.5 49t81.5 55t41 55.5t-22.5 48z" />
<glyph unicode="6" horiz-adv-x="792" d="M651 866q12 4 25.5 4t23 -1t12.5 -5t-5 -8q-14 -2 -25 -6q-10 -4 -20.5 -7t-16.5 -5q-16 -4 -30.5 -12.5t-36.5 -24.5q-78 -53 -142.5 -140.5t-109.5 -179.5l-2 -16q109 35 211 35q70 0 121 -15.5t75 -46.5q25 -31 29 -67.5t-6 -75.5q-14 -43 -46 -90t-74 -89t-91 -78 t-99 -56q-14 -6 -54 -16.5t-90 -12.5t-101.5 9t-87 49t-48 107.5t18.5 186.5q2 8 -3 10t-12.5 0t-13.5 -3t-6 1q14 16 30.5 29.5t35.5 28.5q25 45 71.5 116.5t110 143t140.5 132t161 87.5q6 2 18 5t37 11zM588 377q-33 47 -84 56t-98 1q-57 -8 -119 -35q0 -2 -11.5 -18 t-24.5 -41t-24.5 -54.5t-11.5 -56.5q0 -25 2 -53.5t8 -53t16.5 -40.5t26.5 -19q29 -4 72 1.5t84 27.5q31 18 66.5 56t63.5 82t39 84t-5 63z" />
<glyph unicode="7" horiz-adv-x="856" d="M104 440q-14 12 -3.5 14.5t32 -0.5t45 -7.5t35.5 -4.5q33 0 68.5 2t60.5 5q6 0 14.5 1t18.5 3q35 41 62.5 70.5t37.5 41.5q8 8 26.5 25.5t43 38t51.5 43t49 41.5q-80 -10 -138 -14.5t-110 -4.5q-88 0 -151.5 15.5t-73.5 56.5v-2q-4 16 6 27.5t26.5 13.5t33 -4t26.5 -23 v-2q33 -31 90.5 -27.5t133 19.5t165.5 38.5t189 31.5q37 -10 47 -30t-12 -44v-2q-84 -78 -148.5 -145.5t-136.5 -131.5l-8 -8q16 0 33.5 1t33.5 1q68 0 122 -8t77 -37q8 -10 -3 -17t-28 1q-18 16 -76 16q-37 0 -87 -5t-105 -11q-8 -2 -15.5 -3t-17.5 -1q-8 -8 -10 -13 q-47 -45 -84 -83.5t-66.5 -80.5t-52 -91.5t-41.5 -116.5q4 -10 15 -15q6 -6 -2.5 -9t-22.5 -4t-31.5 1t-27.5 8v2q-33 25 -31 69t25.5 96t61.5 109.5t79 110.5h-37q-63 0 -111.5 9t-77.5 34z" />
<glyph unicode="8" horiz-adv-x="780" d="M385 686q66 35 127 42t125 7q45 0 83 -18.5t50 -40.5v-2q10 -16 6 -44t-12 -44q-31 -47 -78 -91t-102 -85l-21 -9q23 -14 46.5 -29.5t31.5 -25.5q29 -33 40 -69.5t3 -71.5q-27 -70 -98.5 -138.5t-175.5 -101.5q-25 -10 -69 -16t-77 -6q-47 0 -87 11t-64.5 32.5 t-31.5 54.5t11 76q35 78 118 143.5t175 130.5l2 15q-6 6 -9 10t-7 6q-18 14 -42 27.5t-44.5 30t-36 38t-17.5 55.5q2 20 18.5 44t39 42.5t48 27.5t48.5 -1zM514 193q20 72 -37 137v2q-14 -10 -50 -36t-76 -58.5t-76.5 -67.5t-51 -64.5t0 -50t77.5 -24.5q10 0 39 1t61.5 16 t63.5 48.5t49 96.5zM395 639q-2 -2 -8 -4t-10 -6q-33 -25 -26 -59.5t61 -73.5q16 -10 34.5 -19.5t34.5 -19.5q29 25 66 57.5t67 77.5q2 6 7.5 19.5t-7 26.5t-52.5 20.5t-128 -1.5l-39 -14v-4z" />
<glyph unicode="9" horiz-adv-x="802" d="M453 -14q-35 0 -41 21.5t-2 47.5l131 285l-31 -4q-109 -45 -215 -45q-39 0 -62.5 12t-56.5 23q-59 25 -83.5 74t-8.5 100q10 25 31.5 54.5t60.5 59.5q100 78 194.5 114t202.5 36q23 0 44.5 -1t44.5 -1l49 39q72 -27 77 -92v-7q2 -2 1 -8t-12 -39.5t-37.5 -106.5 t-71.5 -204q-27 -57 -66 -144t-108 -202q0 -4 -12.5 -9t-28.5 -3zM344 395q57 2 103.5 16.5t80 35t58 46t41.5 52.5q37 61 47 139v10q-20 16 -49 20.5t-61 -0.5t-63.5 -16.5t-58.5 -25.5q-33 -18 -64.5 -41t-58 -45.5t-45 -44t-24.5 -37.5q-12 -49 16.5 -79t77.5 -30z" />
<glyph unicode=":" horiz-adv-x="667" d="M428 588q6 35 72 53v6q10 6 21 7t28 1q16 2 38.5 -1t49.5 -15q20 -25 16 -33q-6 -18 -23.5 -36.5t-43 -31t-55 -17.5t-60.5 3q-29 10 -38 29t-5 35zM285 205q10 39 73 53v6q10 6 21.5 7t28.5 1q14 2 36.5 -1t49.5 -15q23 -16 18 -31q-6 -18 -23.5 -37.5t-43 -32 t-55.5 -17.5t-60 5q-29 10 -39 28t-6 34z" />
<glyph unicode=";" horiz-adv-x="667" d="M453 639v6l6 6l-2 -28q2 0 4 -2q4 -4 10 -5l6 -6l-2 -8q0 -2 -1 -4t-1 -4v-4q4 -4 8 -4l-2 -4l19 -13l6 17q-2 0 -2 12l-2 2q-27 16 -8.5 37.5t51.5 21.5l-2 -6q12 -18 -13 -49l-2 -4q0 -4 -1 -9t-5 -16l6 7q4 4 5 10t6 14l2 6q10 8 10 -2q-2 -6 -1 -9t3 1v4q6 6 10 6v4 l6 -4l4 11q0 6 1 10t-1 10l2 14q18 -6 26.5 -29.5t-1.5 -49.5q-6 -25 -25.5 -46.5t-54.5 -31.5q-31 -10 -56.5 -4t-43 20t-24.5 34.5t-1 41.5q4 23 58 43zM575 657h-4h4zM549 662l-12 -3h-2l4 3v4q4 -2 8 -2h8h6t8 -2q0 -2 1 -2.5t1 -2.5q-4 2 -9 2h-9zM532 688l3 -2 q0 -2 4 -10v-10q-2 0 -9 6zM463 655q23 16 43 16.5t29 -12.5l-70 -14zM557 629q8 -6 4 -15l-4 4q-2 -4 -2 7zM457 625v2v-2zM467 631q-2 -2 -2 -4q0 4 4 8zM457 625q0 -8 4 -4zM463 618q-2 0 -2 3l2 2v4q0 -2 2 0q-2 -2 -2 -6v-3zM547 651v2q6 -14 8 -22t-12 -8l2 10z M215 86q0 2 6 6q-4 -2 -4 -3t-2 -3zM297 195q12 23 31.5 33t37 7.5t25.5 -16.5t-2 -39q-2 -6 -3 -13t1 -11v-2q-2 -18 -5 -37t-13 -41q-12 -41 -45 -84t-78 -80t-96.5 -63.5t-102.5 -34.5q-10 0 -27.5 2t-31.5 10v2q-10 16 -12.5 24.5t-2.5 12.5v10q2 2 2 3t2 3l52 41 q6 -6 16 0q2 0 4 2t6 4t8 6v5h13q2 4 8 10l2 12l8 2q6 8 13.5 13.5t11.5 13.5v2q18 16 28.5 27.5t20.5 27.5q2 4 2 3t2 3v2q14 12 24.5 23.5t22.5 25.5l19 19l-2 -12q4 4 8 9t8 13q12 20 37 49zM76 -51q2 2 5 4t5 6l-2 -18l-6 -4q4 0 -5.5 1t-6.5 1l4 4v-2q0 4 6 8zM55 -82 q-18 -14 -26 -12l2 18l14 6q4 2 6 2t6 2zM25 -84q0 10 4 8zM23 -74q2 0 2 2q0 4 2 4z" />
<glyph unicode="&#x3c;" horiz-adv-x="872" d="M610 623q53 37 108.5 68.5t92.5 41.5v2q23 8 35 -3t-6 -21q-10 -4 -24.5 -19.5t-31.5 -32.5l-12 -12t-12 -14q-8 -10 -16.5 -19.5t-12.5 -13.5q-76 -68 -167 -121t-156 -88l-2 -18q2 -2 4 -2t4 -2v-2q14 -6 25.5 -10.5t13.5 -8.5v-2q88 -53 131 -133t14 -178 q-6 -18 -21.5 -27.5t-31 -10.5t-28.5 7t-17 27v6h-2l2 16q4 29 2 36t-6 20v4l-7 6v4q-2 4 -2 14q0 4 -2 8l-2 -8l-6 8l-12 15v2q-29 31 -63.5 60.5t-69.5 45.5q-31 16 -60 21q-31 4 -59.5 12t-44.5 27q-10 16 -10 25t4 20q14 16 44 34.5t65.5 36t74.5 31.5t70 23v2 q14 8 51 31.5t80 52.5q16 10 31.5 19.5t31.5 19.5zM485 135v-14q-2 4 -2 10v6zM791 649q-8 -10 -13.5 -18t-9.5 -15q-14 -14 -14 -16q-10 -10 -20.5 -18.5t-15.5 -9.5t-3 5.5t16 22.5l31.5 31.5l30.5 30.5zM297 471q8 -12 23.5 -18.5t25.5 -10.5v-20q-33 0 -33 2v-2 q-6 8 -10 15t-8 24zM328 403q-2 -6 6 -6l2 19q-4 2 -6 4t-6 4l-2 -12q4 -10 4 -11.5t2 -1.5v4zM760 604h-2l-2 2v-4q-4 -6 -6 -8l-2 -2q14 23 10 19.5t-10 -9.5q12 16 14 19zM745 596v2v-2z" />
<glyph unicode="=" horiz-adv-x="1013" d="M125 610q-12 2 -15.5 8.5t7.5 10.5q23 4 51.5 9t52.5 9q61 10 100 21.5t77 20.5t83 15.5t117 6.5q133 0 220 -24.5t134 -88.5q4 -6 -3 -10t-19 -5t-26.5 1t-22.5 8q-31 18 -66 25.5t-74 7.5q-35 0 -56 -3.5t-56 -7.5q-20 -4 -31 -4q-8 0 -14 -1t-13 -1q-25 -4 -49 -5 t-47 -3q-25 0 -31 -1t-7 -2t-6 -1h-30q-45 0 -76.5 1t-61.5 2t-62.5 4t-75.5 7zM158 340q-12 2 -16.5 8t5.5 10q29 4 62 10.5t67 10.5q10 2 19.5 4t17.5 4q68 12 107 19.5t72.5 11.5t70.5 5t101 1q47 0 98 -2t98 -8q10 -2 10 -9.5t-12 -11.5q-16 -8 -38.5 -9t-45.5 -5 q-14 -4 -28.5 -5t-28.5 -5q-74 -14 -114 -21.5t-71.5 -11.5t-69.5 -5t-110 -1q-49 0 -97 3t-97 7z" />
<glyph unicode="&#x3e;" horiz-adv-x="872" d="M735 420q-2 -2 -6 -2l-2 -21l8 6v17zM430 598l-2 4q4 -29 3 -22.5t-1 18.5zM731 422h17.5t11.5 -2l2 2l39 33l2 18q-20 -14 -37.5 -20.5t-34.5 -10.5v-20zM428 602q4 -8 6 -10q6 -10 10.5 -18.5t6.5 -10.5t1 5t-3 28v2q-14 23 -21 55q0 -4 1 -12t-1 -12q0 -10 -1 -16.5 t1 -10.5zM442 604v2v-2zM391 117q4 4 8 10t13 14v4l-2 -2l-17 -8zM465 733q31 -10 65.5 -42t65.5 -66q27 -31 61 -62q16 -18 29.5 -34.5t24.5 -26.5v-4l2 6q25 -10 52.5 -24.5t52 -32t42 -34t21.5 -28.5q-4 -14 -12.5 -26.5t-30.5 -28.5q-35 -20 -67 -28.5t-66 -12.5 q-39 -8 -87 -25q-37 -10 -89 -39.5t-99 -60.5v-4l-18 -15v7q-8 -8 -13.5 -12.5t-9.5 -10.5q-10 -10 -17 -15t-12.5 -11.5t-10.5 -14.5t-11 -22v-5q0 2 -2 0v-4l-6 -4v-2q-8 -8 -8 -16q-16 -18 -36 -27.5t-35 -10.5t-24.5 7t-3.5 27q33 94 129.5 177t218.5 140q14 8 52 19v2 q4 2 6 2t6 2l2 18l-8 8q-45 35 -98.5 85.5t-81.5 113.5l-7 6q4 0 1 10.5t-5 14.5q-2 23 -9 50.5t-15 31.5q-6 6 -3 13t12 11t20.5 5t21.5 -3v-4z" />
<glyph unicode="?" horiz-adv-x="856" d="M338 770q-12 -16 -30.5 -23.5t-35.5 -7.5q-20 0 -30.5 9.5t0.5 25.5q29 49 82 96.5t119.5 82t137 56t136.5 21.5q37 0 67.5 -8t53 -29.5t34 -62.5t9.5 -105q-8 -61 -23.5 -108t-46.5 -89t-79 -82t-122 -87q-86 -55 -132 -122t-68 -140q-6 -18 -23.5 -26.5t-38.5 -8.5 q-10 0 -16 3t-8 18.5t3 45t19 82.5q8 20 18.5 39t24.5 38.5t35.5 41t56.5 49.5q84 45 135.5 99.5t76 108.5t23.5 104.5t-24 87.5q-10 16 -26.5 25t-33 13.5t-29.5 4.5h-15q-76 -14 -134.5 -47t-115.5 -105zM205 -18q2 6 16.5 22t39 28.5t57 14.5t71.5 -18q18 -23 14 -31 q-6 -16 -21 -33.5t-37.5 -29t-48.5 -16.5t-52 3q-25 10 -34 27t-5 33z" />
<glyph unicode="@" horiz-adv-x="1529" d="M1450 545q0 -104 -70 -242q-72 -139 -151 -190q-63 -39 -168 -39q-145 0 -180 139q-104 -141 -242 -141q-213 0 -213 266q0 109 68 231q63 117 159 185q76 57 142 57q82 0 116 -18q45 -20 78 -88l23 83h149l-141 -538q-2 -10 -2 -19.5t-2 -17.5q0 -66 88 -66 q94 0 172 111q111 160 110 299q0 233 -145 385q-143 150 -383 150q-186 0 -350 -109t-246 -274q-68 -141 -67 -336q0 -184 90 -324q94 -147 260 -211q98 -37 188 -37q156 0 246 19q127 25 225 94l31 -47q-186 -137 -485 -137q-250 0 -471 184q-250 209 -250 518 q0 131 82 281q102 193 307 317q205 129 418 129q285 0 448 -166q166 -163 166 -448zM952 594q0 53 -20 92q-27 51 -72 51q-86 0 -180 -123q-96 -127 -96 -303q0 -168 96 -168q80 0 147 82q55 72 80 158q45 160 45 211z" />
<glyph unicode="A" horiz-adv-x="1394" d="M733 49h213l-129 357h-411l-127 -357h245v-49h-487v49h184l463 1290h37l463 -1290h186v-49h-637v49zM424 455h375l-189 518z" />
<glyph unicode="B" horiz-adv-x="1261" d="M1163 360q0 -186 -149 -280q-123 -80 -322 -80h-641v49h182v1223h-182v49h625q164 0 291 -72q150 -82 149 -239q0 -225 -285 -293q133 -31 232 -121q100 -101 100 -236zM895 1026q0 246 -219 246h-219v-535h219q121 0 174 68q45 57 45 188v33zM936 383q0 305 -260 305 h-219v-639h219q141 0 200.5 72t59.5 215v47z" />
<glyph unicode="C" horiz-adv-x="1292" d="M1225 8q0 -23 -23 -22q-12 0 -24 12l-107 106q-145 -141 -352 -141q-264 0 -459 219q-188 213 -188 480q0 272 192 477q193 205 465 204q195 0 332 -100l76 72q20 18 34 18q25 0 25 -39v-315q0 -33 -18 -33q-14 0 -21 17l-4 10q-127 317 -424 317q-379 0 -379 -524v-217 q0 -532 369 -533q285 0 457 369q12 27 28 27q20 0 21 -29v-375v0z" />
<glyph unicode="D" horiz-adv-x="1396" d="M1360 676q0 -303 -182 -492q-182 -184 -488 -184h-633v49h187v1223h-187v49h633q293 0 479 -174q191 -182 191 -471zM1108 725q0 240 -90 379q-106 168 -332 168h-219v-1223h219q422 0 422 578v98z" />
<glyph unicode="E" horiz-adv-x="1210" d="M1133 72q0 -72 -70 -72h-1000v49h179v1223h-183v49h953q63 0 63 -55v-295q0 -35 -24 -35q-25 0 -27 37q-6 111 -57 192q-63 106 -191 107h-311v-551h158q78 0 110 51q8 12 18.5 42t20.5 77q10 35 25 35q23 0 22 -33v-393q0 -35 -22 -35q-14 0 -37 72q-8 23 -14.5 45 t-14.5 45q-31 45 -108 45h-158v-623h330q133 0 196 88q47 70 84 234q10 47 33 47q25 0 25 -56v-290v0z" />
<glyph unicode="F" horiz-adv-x="1155" d="M1083 971q0 -35 -24 -35q-25 0 -27 37q-6 111 -57 192q-63 106 -191 107h-311v-551h158q78 0 110 51q8 12 18.5 42t20.5 77q10 35 25 35q23 0 22 -33v-393q0 -35 -22 -35q-14 0 -37 72q-8 23 -14 45t-15 45q-31 45 -108 45h-158v-623h182v-49h-581v49h176v1223h-180v49 h952q61 0 61 -55v-295v0z" />
<glyph unicode="G" horiz-adv-x="1411" d="M1223 387q0 -213 -152 -324q-131 -100 -354 -100q-266 0 -461 213q-188 207 -188 477q0 276 190 484q190 207 465 206q205 0 336 -106l84 78q20 18 37 18q27 0 26 -30v-367q0 -27 -22 -27q-20 0 -29 25q-123 356 -432 356q-207 0 -301 -162q-78 -133 -78 -352v-237 q0 -223 76 -355q94 -168 301 -168q266 0 266 254v174h-227v50h645v-50h-182v-57z" />
<glyph unicode="H" horiz-adv-x="1445" d="M823 49h183v627h-541v-627h182v-49h-588v49h183v1223h-183v49h588v-49h-182v-545h541v545h-183v49h586v-49h-180v-1223h180v-49h-586v49z" />
<glyph unicode="I" horiz-adv-x="749" d="M82 49h180v1223h-180v49h586v-49h-183v-1223h183v-49h-586v49z" />
<glyph unicode="J" horiz-adv-x="780" d="M602 115q0 -313 -344 -314q-80 0 -158 47q-84 55 -84 136q0 111 105 110q43 0 70.5 -26.5t27.5 -69.5q0 -94 -88 -107q43 -37 113 -36q84 0 112 53q23 41 23 133v1231h-195v49h576v-49h-158v-1157z" />
<glyph unicode="K" horiz-adv-x="1417" d="M788 49h175l-514 674l595 549h-167v49h434v-49h-185l-485 -447l590 -776h172v-49h-615v49zM63 49h168v1223h-168v49h560v-49h-168v-1223h168v-49h-560v49z" />
<glyph unicode="L" horiz-adv-x="1263" d="M1221 72q0 -72 -72 -72h-1096v49h183v1223h-183v49h606v-49h-200v-1223h424q131 0 194 88q47 70 84 234q10 47 33 47q27 0 27 -56v-290v0z" />
<glyph unicode="M" horiz-adv-x="1681" d="M1065 49h168v1157l-455 -1206h-41l-454 1198v-1149h170v-49h-390v49h168v1223h-168v49h406l381 -979l369 979h405v-49h-168v-1223h168v-49h-559v49z" />
<glyph unicode="N" horiz-adv-x="1386" d="M1169 -16h-86l-802 1210v-1145h182v-49h-416v49h182v1223h-182v49h430l641 -963v914h-182v49h416v-49h-183v-1288z" />
<glyph unicode="O" horiz-adv-x="1458" d="M1401 655q0 -274 -197 -483q-195 -209 -467 -209q-268 0 -469 213q-193 205 -192 479q0 274 194 482q195 207 467 206q272 0 467 -206q197 -208 197 -482zM1124 752q0 252 -67 374q-92 164 -320 164q-223 0 -315 -166q-70 -125 -70 -372v-195q0 -541 385 -541 q387 0 387 541v195z" />
<glyph unicode="P" horiz-adv-x="1142" d="M1094 961q0 -172 -131 -273q-119 -88 -297 -88h-209v-551h180v-49h-586v49h182v1223h-182v49h594q186 0 309 -86q140 -96 140 -274zM887 995q0 276 -242 277h-188v-623h209q221 0 221 277v69z" />
<glyph unicode="Q" horiz-adv-x="1435" d="M1401 653q0 -238 -150 -430q-150 -197 -372 -248v-34q0 -344 327 -344q29 0 29 -23q0 -20 -29 -20q-293 0 -418 61q-164 80 -186 317l-4 43q-225 53 -375 248q-147 197 -147 430q0 274 194 482q193 209 467 208q272 0 467 -208q197 -208 197 -482zM1124 750 q0 250 -67 376q-90 164 -320 164q-223 0 -315 -168q-70 -125 -70 -372v-195q0 -543 385 -543q387 0 387 543v195z" />
<glyph unicode="R" horiz-adv-x="1325" d="M1321 70q0 -33 -98 -64q-78 -23 -142 -22q-104 0 -153 55t-60 160q-2 29 -5 80t-9 122q-29 264 -225 265h-166v-617h182v-49h-588v49h183v1223h-183v49h605q176 0 301 -76q150 -88 149 -254q0 -244 -307 -311q197 -53 258 -166q41 -78 47 -291q4 -102 12 -127 q14 -43 76 -43q51 0 90 27q16 4 19 4q14 0 14 -14zM893 1026q0 246 -231 246h-199v-557h199q231 0 231 241v70z" />
<glyph unicode="S" horiz-adv-x="1142" d="M1073 420q0 -199 -141 -328t-344 -129q-188 0 -346 127l-70 -92q-18 -25 -35 -25q-29 0 -28 35v348q0 35 24 35q23 0 33 -31q39 -152 160 -247q121 -96 274 -97q131 0 234 78q104 86 104 217q0 137 -117 191q-43 18 -89 34.5t-95 30.5q-154 45 -209 62q-289 88 -289 327 q0 180 137 287q125 100 310 100q152 0 303 -77l55 65q14 20 31 21q23 0 22 -29v-346q0 -29 -24 -29q-27 0 -29 27q-20 147 -114.5 231t-243.5 84q-119 0 -203 -53q-98 -66 -98 -176q0 -129 127 -176q27 -10 119 -36t257 -71q285 -75 285 -358z" />
<glyph unicode="T" horiz-adv-x="1306" d="M1200 932q-20 129 -74 219q-74 121 -184 121h-172v-1223h182v-49h-585v49h180v1223h-172q-111 0 -185 -121q-53 -90 -73 -219h-62l33 348q4 41 51 41h1041q47 0 51 -41l33 -348h-64v0z" />
<glyph unicode="U" horiz-adv-x="1345" d="M1137 332q0 -188 -127 -285q-115 -84 -308 -84q-205 0 -329 82q-154 94 -154 287v940h-182v49h586v-49h-181v-940q0 -150 81 -233t229 -83q147 0 239 84t92 232v940h-182v49h416v-49h-180v-940z" />
<glyph unicode="V" horiz-adv-x="1333" d="M723 -20h-49l-475 1292h-185v49h588v-49h-186l358 -967l338 967h-178v49h395v-49h-153z" />
<glyph unicode="W" horiz-adv-x="1896" d="M1233 -20h-41l-229 587l-224 -587h-41l-491 1292h-160v49h1346v-49h-131l-172 -449l200 -534l377 983h-176v49h383v-49h-148zM1061 899l143 373h-286zM426 1272l373 -979l135 352l-236 627h-272z" />
<glyph unicode="X" horiz-adv-x="1445" d="M827 49h164l-327 531l-361 -531h203v-49h-461v49h188l398 584l-395 639h-187v49h625v-49h-185l279 -451l303 451h-197v49h461v-49h-192l-340 -504l442 -719h166v-49h-584v49z" />
<glyph unicode="Y" horiz-adv-x="1396" d="M860 696v-647h201v-49h-627v49h203v598l-406 625h-174v49h609v-49h-187l336 -520l311 520h-196v49h448v-49h-174z" />
<glyph unicode="Z" horiz-adv-x="1073" d="M63 61l721 1211h-391q-262 0 -272 -305h-47v354h940v-57l-729 -1215h387q162 0 235 101q61 86 70 258h51v-408h-965v61z" />
<glyph unicode="[" horiz-adv-x="593" d="M-23 -199q-33 6 -38 31q-2 8 0 21q20 68 55 175t78 233t90 262t94 262t91 233.5t79 177.5q14 25 29 35q10 16 37 16h274q20 0 33.5 -11t14.5 -25.5t-8 -28t-32 -15.5h-242q-8 -37 -24 -99t-36.5 -136t-43 -152t-43 -147.5t-37 -125.5t-24.5 -83q-41 -129 -94.5 -248 t-135.5 -246q57 4 119.5 -5t104.5 -25.5t49.5 -41t-43.5 -51.5q-16 -8 -68.5 -15t-111 -9t-108 2t-59.5 16z" />
<glyph unicode="\" horiz-adv-x="460" d="M266 1335l221 -1351h-225l-217 1351h221z" />
<glyph unicode="]" horiz-adv-x="593" d="M651 1143q29 -6 37 -33q2 -8 0 -20q-23 -68 -58.5 -174.5t-80.5 -231.5t-95.5 -260t-100.5 -260t-96 -232.5t-81 -175.5q-14 -25 -29 -35q-14 -16 -38 -14l-275 4q-23 0 -34 12.5t-13 26.5t8 26.5t33 14.5l242 -4q8 37 25.5 99.5t40 135t46 150.5t46 147.5t40 124 t25.5 82.5q41 129 97 247t140 243q-12 -4 -49 0t-79 10t-78.5 13.5t-51.5 11.5q-6 0 -13 8t-7 21.5t11 29.5t42 33q14 10 66.5 16t111 6t108.5 -5t60 -17z" />
<glyph unicode="^" horiz-adv-x="919" d="M690 502l-268 553l-268 -553h-125l331 686h125l332 -686h-127z" />
<glyph unicode="_" horiz-adv-x="827" d="M0 -258v131h827v-131h-827z" />
<glyph unicode="a" horiz-adv-x="933" d="M928 111q0 -63 -76 -103q-66 -35 -129 -35q-133 0 -162 97q-90 -96 -237 -97q-238 0 -238 181q0 150 168 223q127 55 295 57v219q0 102 -131 103q-125 0 -125 -35l6 -6t12 -10q29 -29 29 -62q0 -76 -88 -76q-86 0 -86 80q0 84 117 125q74 27 184 27q283 0 283 -183v-464 q0 -111 49 -111q55 0 90 68q8 20 22 20q17 0 17 -18zM549 397q-66 -4 -113 -14t-76 -25q-90 -47 -90 -155q0 -162 125 -162q37 0 94 33q59 35 60 65v258z" />
<glyph unicode="b" horiz-adv-x="1093" d="M1044 393q0 -156 -120 -289q-121 -129 -279 -129q-133 0 -227 107v-82h-361v49h162v1223h-162v49h361v-612q86 96 221 96q158 0 281 -127q124 -125 124 -285zM807 438q0 137 -23 209q-41 109 -153 109q-127 0 -213 -135v-451q86 -145 221 -145q168 0 168 325v88z" />
<glyph unicode="c" horiz-adv-x="864" d="M842 215q0 -6 -2 -10l-2 -8q-18 -76 -101 -144q-96 -80 -241 -80q-178 0 -303 117q-133 121 -134 293q0 176 134 297q131 119 313 119q96 0 180 -39q109 -47 109 -129q0 -90 -103 -90q-100 0 -100 86q0 33 18.5 62.5t18.5 31.5q0 12 -58 20q-23 4 -41 6.5t-28 2.5 q-129 0 -174 -105q-29 -74 -29 -219v-84q0 -164 25 -221q43 -100 178 -101q98 0 177 51.5t109 143.5q8 25 29 25q25 0 25 -25z" />
<glyph unicode="d" horiz-adv-x="1093" d="M690 84q-96 -111 -225 -111q-152 0 -277 131q-123 131 -122 287q0 160 124 285q125 129 281 129q139 0 219 -88v555h-160v49h361v-1272h160v-49h-361v84zM690 616q-86 139 -211 140q-113 0 -153 -109q-23 -68 -23 -207v-96q0 -135 23 -207q37 -115 147 -114 q121 0 217 145v448z" />
<glyph unicode="e" horiz-adv-x="915" d="M848 240q0 -16 -6 -31q-94 -236 -371 -236q-174 0 -293 119q-121 121 -121 287q0 164 121 291q123 129 285 129q180 0 289 -129q80 -96 86 -193q4 -35 -43 -35h-498v-188q0 -233 178 -234q223 0 324 218q12 25 28 24q21 1 21 -22zM621 571q0 178 -156 179 q-168 0 -168 -191v-67h303q21 -1 21 79z" />
<glyph unicode="f" horiz-adv-x="720" d="M696 1198q0 -78 -75 -78q-82 0 -82 74q0 47 47 70q0 23 -86 22q-100 0 -101 -137v-371h170v-49h-170v-680h158v-49h-516v49h158v680h-156v49h156v74q0 221 43 313q80 170 254 170q72 0 129 -32q71 -42 71 -105z" />
<glyph unicode="g" horiz-adv-x="899" d="M887 760q0 -66 -72 -66q-78 0 -78 64q0 10 2 14q-14 -8 -29.5 -21.5t-31.5 -29.5q94 -82 94 -199q0 -100 -76 -176q-98 -102 -272 -102q-78 0 -121 14q-164 -41 -164 -123q0 -74 125 -74h340q264 0 264 -245q0 -166 -131 -254q-117 -80 -286 -80q-387 0 -388 223 q0 141 160 207q-156 39 -155 188q0 131 165 185q-158 84 -157 237q0 111 90 191q98 86 258 86q143 0 215 -49q80 80 160 79q88 1 88 -69zM563 553q0 90 -22 139q-31 57 -117 58q-86 0 -117 -58q-23 -49 -22 -139v-66q0 -86 22 -135q35 -59 117 -59t117 59q23 49 22 135v66z M772 -264q0 78 -60.5 123t-142.5 45h-268q-47 0 -84 -56q-35 -59 -35 -106q0 -211 277 -211q115 0 203 45q110 56 110 160z" />
<glyph unicode="h" horiz-adv-x="1136" d="M610 49h146v547q0 141 -117 141q-84 0 -160 -67q-78 -66 -78 -146v-475h148v-49h-496v49h150v1223h-150v49h348v-655q98 139 304 139q252 0 251 -187v-569h148v-49h-494v49z" />
<glyph unicode="i" horiz-adv-x="620" d="M442 1126q0 -47 -35.5 -77.5t-82.5 -30.5t-83 30.5t-36 77.5t34.5 79t84.5 32q49 0 83.5 -32t34.5 -79zM68 49h157v680h-157v49h356v-729h160v-49h-516v49z" />
<glyph unicode="j" horiz-adv-x="577" d="M467 1126q0 -47 -35 -78.5t-84 -31.5t-84 31.5t-35 78.5t35 79t84 32t84 -32t35 -79zM461 -57q0 -184 -66 -305q-84 -154 -252 -154q-72 0 -123 33q-63 37 -63 100q0 43 28.5 71.5t71.5 28.5q41 0 69 -26.5t28 -67.5q0 -59 -45 -86q16 -4 32 -4q55 0 87 37t32 94v1063 h-170v49h371v-833z" />
<glyph unicode="k" horiz-adv-x="1138" d="M596 49h139l-278 365h-33v-365h149v-49h-518v49h170v1223h-170v49h369v-858h47l293 266h-166v49h414v-49h-172l-238 -219l371 -461h151v-49h-528v49z" />
<glyph unicode="l" horiz-adv-x="602" d="M66 49h147v1223h-147v49h346v-1272h147v-49h-493v49z" />
<glyph unicode="m" horiz-adv-x="1607" d="M1098 49h133v539q0 135 -98 135q-80 0 -150 -70q-70 -68 -70 -145v-459h138v-49h-473v49h137v539q0 53 -10 84q-20 51 -91 51q-66 0 -141 -68q-76 -63 -76 -131v-475h135v-49h-473v49h138v674h-138v49h338v-125q100 141 308 141q178 0 206 -145q98 145 310 145 q211 0 211 -180v-559h137v-49h-471v49z" />
<glyph unicode="n" horiz-adv-x="1120" d="M586 49h147v539q0 135 -108 135q-72 0 -142 -68t-69 -139v-467h147v-49h-493v49h147v674h-147v47h346v-123q98 139 288 139q231 0 232 -186v-551h147v-49h-495v49z" />
<glyph unicode="o" horiz-adv-x="942" d="M903 385q0 -164 -129 -289q-129 -123 -295 -123t-297 123q-131 125 -131 289t131 289t297 125q170 0 295 -125q129 -127 129 -289zM666 428q0 152 -23 215q-39 106 -164 107q-127 0 -166 -107q-25 -61 -24 -215v-84q0 -156 22 -219q39 -104 168 -105q129 0 166 107 q20 49 21 217v84z" />
<glyph unicode="p" horiz-adv-x="1054" d="M1012 383q0 -166 -123 -291q-121 -127 -285 -127q-139 0 -221 94v-536h137v-49h-475v49h137v1198h-137v51h338v-84q94 111 225 111q160 0 281 -129q123 -127 123 -287zM774 430q0 133 -22 205q-37 115 -146 115q-76 0 -145 -56q-78 -59 -78 -131v-377q0 -66 78 -118 q70 -49 139 -50q117 0 154 111q20 55 20 213v88z" />
<glyph unicode="q" horiz-adv-x="1073" d="M565 -477h137v538q-90 -96 -225 -96q-160 0 -284 129q-123 129 -123 289q0 156 123 283t280 127q141 0 229 -107v84h336v-49h-137v-1198h137v-49h-473v49zM702 545q0 76 -73 141q-70 63 -154 64q-168 0 -168 -248v-213q0 -129 25 -187q39 -86 149 -86q45 0 85 15.5t71 42 t48 63.5t17 80v328z" />
<glyph unicode="r" horiz-adv-x="843" d="M823 641q0 -49 -32.5 -77.5t-81.5 -28.5t-83 26.5t-34 73.5q0 63 51 90q6 2 6 6q0 8 -49 8q-68 0 -141 -55q-74 -53 -74 -119v-516h147v-49h-495v49h147v674h-147v49h348v-92q90 109 238 108q84 0 135 -32q65 -41 65 -115z" />
<glyph unicode="s" horiz-adv-x="751" d="M702 244q0 -129 -81.5 -200t-212.5 -71q-156 0 -238 76l-39 -51q-8 -14 -20 -14q-23 0 -23 24v207q0 25 23 25q18 0 24 -25q55 -195 266 -195q80 0 138 33q74 39 73 113q0 86 -125 129q-16 2 -196 43q-188 41 -189 207q0 59 22.5 106t61.5 80t91.5 50.5t113.5 17.5 q96 0 160 -51l41 38l6 5q8 8 16 8q14 0 15 -23v-207q0 -20 -17 -20q-20 0 -22 18q-14 82 -69.5 132.5t-141.5 50.5q-63 0 -115 -31q-61 -35 -61 -92q0 -61 123 -99q45 -10 89 -19t89 -20q198 -57 198 -245z" />
<glyph unicode="t" horiz-adv-x="712" d="M692 170q0 -16 -2 -20q-35 -176 -252 -177q-119 0 -187.5 61.5t-68.5 178.5v514h-143v49h143v217l201 92v-309h205v-49h-205v-518q0 -176 127 -176q111 0 133 133q4 29 29 29q20 0 20 -25z" />
<glyph unicode="u" horiz-adv-x="1138" d="M735 123q-109 -145 -317 -146q-223 0 -223 218v528h-148v47h348v-588q0 -68 17 -96q23 -35 90 -35q78 0 153 64q80 63 80 137v471h-147v47h348v-721h147v-49h-348v123z" />
<glyph unicode="v" horiz-adv-x="1034" d="M551 -8h-29l-338 731h-141v47h498v-47h-144l211 -471l205 471h-145v47h331v-47h-129z" />
<glyph unicode="w" horiz-adv-x="1368" d="M936 -23h-29l-215 494l-178 -494h-31l-295 746h-141v47h479v-47h-135l178 -447l174 494h29l215 -496l152 449h-172v47h372v-47h-147z" />
<glyph unicode="x" horiz-adv-x="1060" d="M539 49h149l-199 262l-215 -262h146v-49h-357v49h146l248 305l-281 369h-123v47h465v-47h-129l182 -240l195 240h-125v47h334v-47h-139l-232 -283l299 -391h131v-49h-495v49z" />
<glyph unicode="y" horiz-adv-x="1067" d="M473 -315q-82 -199 -246 -199q-117 0 -116 92q0 80 84 80q61 0 90 -55q12 -23 24 -23q66 0 115 121l121 293l-348 727h-144v49h514v-49h-155l229 -496l207 496h-152v49h351v-49h-142z" />
<glyph unicode="z" horiz-adv-x="847" d="M100 53l463 670h-196q-162 0 -185 -201h-43v248h633v-57l-455 -664h230q188 0 205 221h43v-270h-695v53z" />
<glyph unicode="{" horiz-adv-x="727" d="M612 -215h-90q-145 0 -209 55q-72 61 -71 201v354q0 76 -60 142q-55 59 -137 77v50q84 25 135 81q61 61 62 142v352q0 150 65 203q61 49 215 49h133l15 -16l-58 -80h-112q-70 0 -92 -60q-10 -35 -11 -118v-302q0 -131 -45 -188q-45 -63 -172 -88q125 -20 172 -84 q45 -57 45 -188v-304q0 -49 2 -79.5t7 -42.5q20 -55 94 -58h78h77l17 -22z" />
<glyph unicode="|" horiz-adv-x="380" d="M113 -287v1805l155 45v-1805z" />
<glyph unicode="}" horiz-adv-x="727" d="M672 614q-82 -18 -137 -77q-59 -66 -60 -142v-354q0 -141 -72 -201q-66 -55 -208 -55h-91l-59 76l16 22h156q72 0 90 58q12 31 12 122v304q0 131 46 188q47 63 172 84q-125 25 -175 88q-43 57 -43 188v302q0 47 -2 77.5t-6 40.5q-18 59 -94 60h-113l-57 80l14 16h134 q154 0 213 -49q68 -55 67 -203v-352q0 -80 62 -142q51 -57 135 -81v-50z" />
<glyph unicode="~" horiz-adv-x="1003" d="M897 588q0 -113 -70 -201q-78 -96 -184 -96q-70 0 -131 43l-213 147q-39 27 -80 27q-82 0 -82 -117h-67v23q0 111 65.5 185.5t177.5 74.5q72 0 119 -25l246 -164q47 -29 72 -28q82 0 81 131h66v0z" />
<glyph unicode="&#xa2;" horiz-adv-x="1024" d="M918 319q-154 -338 -396 -337q-41 0 -110 18l-101 -283h-69l104 308q-238 121 -237 415q0 225 131 363q133 139 350 139q6 0 24.5 -3t49.5 -7l90 254h71l-96 -277q154 -53 154 -172q0 -37 -23.5 -64.5t-60.5 -27.5q-78 0 -123 107l-207 -596q70 -25 117 -25q102 0 180 59 q57 47 125 146zM641 862q-47 18 -98 19q-137 0 -211 -111q-66 -96 -66 -238q0 -217 140 -331z" />
<glyph unicode="&#xa3;" horiz-adv-x="1024" d="M1004 279q0 -25 -25 -76q-98 -217 -324 -217q-117 0 -290 125q-109 -127 -203 -127q-59 0 -98 33.5t-39 91.5q0 78 57 120q51 37 133 37q16 0 38.5 -3t51.5 -7l6 35q0 39 -4 86t-12 104q-6 47 -12.5 95.5t-14.5 95.5h-221v92h219q-8 33 -11 67.5t-3 69.5q0 207 94 338 q109 145 305 145q100 0 176 -45q90 -53 91 -145q0 -45 -28 -77t-73 -32q-70 0 -78 64l-10 117q-20 63 -108 63q-102 0 -154 -92q-41 -78 -41 -186q0 -49 6 -121t17 -166h256v-92h-250q2 -20 2 -44v-53q0 -102 -49 -348q166 -72 307 -71q88 0 151 39q10 6 42 29.5t83 64.5z M291 158q0 16 -51 24q-23 4 -39.5 7.5t-26.5 3.5q-96 0 -96 -78q0 -74 82 -74q47 0 89 35t42 82z" />
<glyph unicode="&#xa9;" horiz-adv-x="1556" d="M1479 676q0 -295 -201 -502q-201 -203 -496 -203q-299 0 -501 203q-203 203 -203 502q0 297 203 504q203 205 501 204q295 0 496 -206q201 -207 201 -502zM1366 676q0 252 -164 434q-170 188 -420 188q-254 0 -422 -184q-170 -188 -170 -438q0 -248 170 -436 q172 -182 422 -183q246 0 418 189q166 180 166 430zM1087 362q-10 -35 -118 -55q-90 -18 -150 -18q-197 0 -305 96q-125 113 -125 309q0 176 135 291q125 104 310 105q61 0 145 -19q109 -23 108 -61v-144h-34q-8 88 -64 133q-72 49 -162 50q-143 0 -217 -105 q-63 -88 -63 -242q0 -373 293 -372q170 0 247 176h33z" />
<glyph unicode="&#xab;" horiz-adv-x="1048" d="M952 90q0 -23 -22 -22q-8 0 -53 45q-86 86 -180.5 173t-198.5 179q209 180 399 362q27 25 33 25q20 0 20 -23q0 -20 -262 -368l148 -185q116 -151 116 -186zM522 90q0 -23 -22 -22q-8 0 -54 45q-86 86 -180 173t-198 179q209 180 399 362q27 25 33 25q20 0 20 -23 q0 -20 -262 -368l148 -185q116 -151 116 -186z" />
<glyph unicode="&#xae;" horiz-adv-x="677" d="M171.793 774.585q-8.39941 -10.7998 -19.499 -15.5996t-20.3994 -4.19922q-9.2998 0.599609 -13.5 5.99902q-4.19922 5.40039 0.600586 16.7998q0 1.2002 12.2998 24.2988q12.2988 23.0986 41.6982 50.998q29.3984 27.8984 78.5967 49.7979 q49.1973 21.8994 125.395 20.6992q47.998 -3.59961 74.9971 -14.0996q26.999 -10.499 42.2979 -23.3984q15.2998 -12.9004 23.3994 -26.3994t17.6992 -24.2988q13.7998 -13.7998 17.999 -30.8984q4.2002 -17.0996 1.80078 -32.0986q-7.2002 -47.998 -48.5986 -94.4971 q-41.3984 -46.498 -96.5957 -89.6963q-55.1982 -43.1982 -115.495 -81.8965q-60.2979 -38.6982 -105.296 -69.2969q11.999 0 20.6992 0.599609q8.69922 0.600586 18.2988 1.7998q23.3994 2.40039 47.998 4.5q24.5986 2.10059 46.7979 2.10059q32.999 0 67.498 -5.10059 q34.498 -5.09961 66.2969 -20.6992q2.40039 -3.59961 -9.2998 -7.49902q-11.6992 -3.90039 -23.6992 -1.5q-49.1973 16.1992 -102.596 8.09961q-53.3975 -8.09961 -102.596 -18.8994q-39.5986 -9.59961 -79.4971 -16.499q-39.8984 -6.90039 -77.6963 -3.2998 q-20.999 3.59961 -30.8984 8.09961q-9.90039 4.49902 -9.90039 16.499q1.2002 3.59961 4.7998 8.69922q3.60059 5.10059 17.6992 14.7002q14.0996 9.59961 42.5986 27.5986t80.0967 48.5977q16.1992 10.7998 44.0986 29.999q27.8984 19.1992 61.1973 43.7979 q33.2988 24.5996 67.1973 51.5986t59.6973 52.1973q25.7988 25.1992 39.8984 45.8984t9.2998 34.499v1.19922q0 20.999 -11.6992 38.6982q-11.7002 17.7002 -30.2988 30.5996q-18.5996 12.8994 -41.3984 20.3984q-22.7988 7.5 -45.5986 7.5q-25.7988 0 -42.5977 -6.2998 q-16.7998 -6.2998 -31.499 -17.999q-14.6992 -11.7002 -31.1982 -27.5986q-16.5 -15.8994 -41.0986 -34.499z" />
<glyph unicode="&#xb4;" horiz-adv-x="731" d="M241.99 816.583q39.5986 20.999 76.1973 25.1992t74.9971 4.2002q26.999 0 49.7979 -11.0996t29.999 -24.2988v-1.2002q5.99902 -9.59961 3.59961 -26.3994q-2.39941 -16.7988 -7.2002 -26.3984q-18.5986 -28.1992 -46.7979 -54.5977q-28.1982 -26.3994 -61.1973 -50.998 l-12.5996 -5.40039q13.7998 -8.39941 27.8994 -17.6992q14.0986 -9.29883 18.8984 -15.2988q17.3994 -19.7998 23.999 -41.6982q6.60059 -21.8994 1.7998 -42.8984q-16.1992 -41.998 -59.0967 -83.0967q-42.8984 -41.0986 -105.296 -60.8975q-15 -6 -41.3984 -9.59961 q-26.3994 -3.59961 -46.1982 -3.59961q-28.1992 0 -52.1982 6.59961t-38.6982 19.499t-18.8994 32.6982q-4.19922 19.7998 6.59961 45.5986q21 46.7979 70.7979 86.0967q49.7979 39.2979 104.995 78.2969l1.2002 8.99902q-3.59961 3.59961 -5.39941 6t-4.2002 3.59961 q-10.7998 8.40039 -25.1992 16.5t-26.6982 17.999q-12.2998 9.89941 -21.5996 22.7988t-10.499 33.2988q1.19922 11.999 11.0996 26.3984q9.89941 14.3994 23.3984 25.499q13.5 11.0996 28.7988 16.5q15.2998 5.39941 29.0986 -0.600586zM319.388 520.795 q11.999 43.1982 -22.1992 82.1973v1.19922q-8.39941 -5.99902 -29.999 -21.5986q-21.5986 -15.5996 -45.5977 -35.0986t-45.8984 -40.498t-30.5986 -38.6982q-8.7002 -17.7002 0 -29.999q8.69922 -12.2998 46.498 -14.6992q6 0 23.3994 0.599609 q17.3984 0.599609 36.8984 9.59961q19.499 9 38.0977 29.0986q18.5996 20.0996 29.3994 57.8975zM247.99 788.385q-1.2002 -1.2002 -4.7998 -2.40039t-6 -3.59961q-19.7988 -15 -15.5986 -35.6982q4.19922 -20.6992 36.5977 -44.0986q9.59961 -6 20.6992 -11.6992 q11.0996 -5.7002 20.6992 -11.7002q17.3994 15 39.5986 34.499t40.1982 46.498q1.2002 3.59961 4.5 11.6992t-4.2002 15.8994q-7.49902 7.7998 -31.498 12.2998t-76.7969 -0.900391l-23.3994 -8.39941v-2.39941z" />
<glyph unicode="&#xbb;" horiz-adv-x="1048" d="M956 465q-59 -51 -143 -129t-201 -189q-80 -80 -88 -79q-23 0 -22 22q0 35 116 186l148 185q-262 348 -262 368q0 23 20 23q8 0 33 -25q149 -147 399 -362zM526 465q-59 -51 -143 -129t-201 -189q-80 -80 -88 -79q-23 0 -22 22q0 35 116 186l148 185q-262 348 -262 368 q0 23 20 23q8 0 33 -25q149 -147 399 -362z" />
<glyph unicode="&#x590;" horiz-adv-x="1536" d="M1335 676h-1136v168h1136v-168zM657 219q39 23 76 27t76 4q27 0 49.5 -11.5t30.5 -25.5q6 -10 3 -26.5t-7 -26.5q-18 -29 -46 -55.5t-63 -51.5l-12 -4q14 -10 28.5 -18t18.5 -17q18 -18 24.5 -40.5t2.5 -43.5q-16 -41 -60.5 -83t-105.5 -60q-14 -6 -41 -10t-45 -4 q-29 0 -53.5 7t-39 20.5t-18.5 33t6 43.5q20 47 71.5 86t104.5 80l2 8l-6 6l-4 4q-23 16 -51.5 33t-32.5 58q2 12 11.5 26.5t22.5 25.5t28.5 16t29.5 -1zM735 -78q10 41 -22 84q-8 -6 -29.5 -21.5t-46.5 -35t-46.5 -40t-30.5 -38.5t0 -30.5t46 -14.5h23.5t37 9t39 29.5 t29.5 57.5zM664 190q-4 0 -11 -6q-20 -14 -16 -35.5t37 -44.5q10 -4 20.5 -10t20.5 -12q18 14 39.5 33.5t40.5 46.5q2 4 5 12t-4.5 16.5t-32 12.5t-77.5 0l-22 -8v-5zM502 1227q-10 6 -3 7t19 0t26.5 -4t20.5 -3q20 0 42 2t36 2q4 0 9 1t12 1q20 27 36.5 44t22.5 23 q10 10 42 38t60 51q-47 -4 -82.5 -7.5t-66.5 -3.5q-53 0 -90 9.5t-45 33.5v-2q-2 10 4 17.5t15 8.5t19.5 -2t16.5 -13v-3q20 -18 55 -16t80 12.5t99.5 22.5t113.5 18q23 -6 29 -17t-8 -28q-51 -47 -89 -87t-83 -79l-5 -4h41q41 0 74 -5t45 -21q4 -6 -2 -10.5t-16 -0.5 q-10 10 -45 11q-23 0 -52.5 -3t-64.5 -8q-4 0 -9 -1t-9 -1q-6 -6 -7 -8q-29 -27 -50 -50.5t-39.5 -48t-33 -55t-24.5 -69.5q6 -6 10 -8q4 -4 -1 -5t-14 -2t-19.5 0t-16.5 5v2q-18 14 -17 39.5t14 57.5t36.5 66.5t48.5 65.5h-23q-39 0 -67.5 5.5t-44.5 21.5z" />
<glyph unicode="&#x591;" d="M94 -602v11t2 24v43q0 147 -86 147q-104 0 -104 -135v-47q2 -14 2 -24.5v-18.5h-76v131q0 131 131 164v125h74v-125q133 -35 133 -164v-131h-76z" />
<glyph unicode="&#x592;" d="M76 1632q0 -33 -21.5 -54.5t-54.5 -21.5t-54.5 21.5t-21.5 54.5q0 31 22.5 53.5t53.5 22.5q33 0 54.5 -21.5t21.5 -54.5zM186 1444q0 -31 -20.5 -52.5t-52.5 -21.5q-31 0 -53.5 21.5t-22.5 52.5q0 33 21.5 53.5t54.5 20.5t53 -20.5t20 -53.5zM-37 1444q0 -31 -21.5 -52.5 t-54.5 -21.5t-53 20.5t-20 53.5t20.5 53.5t52.5 20.5q33 0 54.5 -20.5t21.5 -53.5z" />
<glyph unicode="&#x593;" d="M-37 1751l158 -72l-158 -75l158 -72l-158 -76l158 -74h-84l-156 74l156 76l-156 72l156 75l-156 72l156 76h84z" />
<glyph unicode="&#x594;" d="M76 1677q0 -33 -21.5 -53t-54.5 -20t-54.5 20.5t-21.5 52.5q0 31 22.5 53.5t53.5 22.5q33 0 54.5 -21.5t21.5 -54.5zM76 1452q0 -31 -21.5 -52.5t-54.5 -21.5t-54.5 20.5t-21.5 53.5t21.5 53.5t54.5 20.5t54.5 -20.5t21.5 -53.5z" />
<glyph unicode="&#x595;" d="M186 1677q0 -33 -20.5 -53t-52.5 -20q-31 0 -53.5 21.5t-22.5 51.5q0 31 22.5 53.5t53.5 22.5t52 -22.5t21 -53.5zM186 1452q0 -31 -20.5 -52.5t-52.5 -21.5q-31 0 -53.5 21.5t-22.5 52.5q0 33 21.5 53.5t54.5 20.5q31 0 52 -21.5t21 -52.5zM-113 1378v375h76v-375h-76z " />
<glyph unicode="&#x596;" d="M254 -522q-295 0 -295 303q0 6 1 15t3 20h76q-2 -10 -3 -24.5t-1 -37.5q0 -98 63 -149q55 -49 156 -49v-78v0z" />
<glyph unicode="&#x597;" d="M2 1380l-123 154l123 156l119 -156z" />
<glyph unicode="&#x598;" d="M258 1530q0 -55 -39 -93t-92 -38q-66 0 -109 53q-16 27 -33.5 50.5t-33.5 49.5q-39 51 -80 52q-33 0 -53.5 -20.5t-20.5 -53.5q0 -53 53 -72l-20 -55q-88 39 -88 127q0 53 38 92t91 39q66 0 109 -53q18 -27 36.5 -51.5t40.5 -53.5q27 -49 70 -49q33 0 53.5 21.5 t20.5 54.5q0 47 -54 69l21 56q90 -43 90 -125z" />
<glyph unicode="&#x599;" d="M-14 1780q35 -41 61.5 -84t35.5 -95.5t-5.5 -116t-61.5 -143.5l-49 27q20 39 30.5 82t4.5 86t-30.5 85t-75.5 81z" />
<glyph unicode="&#x59a;" d="M172 -510h-121l-201 205l199 194h123l-199 -194z" />
<glyph unicode="&#x59b;" d="M63 -266q0 -63 -65 -64q-27 0 -45.5 18.5t-18.5 45.5q0 29 18.5 48t45.5 19q65 1 65 -67zM229 -254q0 -133 -86 -207q-70 -59 -209 -59v78q221 0 222 204l-6 56h75q2 -10 3 -27.5t1 -44.5z" />
<glyph unicode="&#x59c;" d="M96 1718q-111 -80 -110 -172q0 -84 75 -166h-96q-61 76 -61 164q0 125 137 225l55 -51v0z" />
<glyph unicode="&#x59d;" d="M96 1718q-111 -80 -110 -172q0 -84 75 -166h-96q-61 76 -61 164q0 125 137 225l55 -51v0z" />
<glyph unicode="&#x59e;" d="M-4 1718q-111 -84 -111 -172q0 -82 78 -166h-98q-61 76 -62 164q0 125 138 225zM219 1718q-111 -80 -110 -172q0 -84 75 -166h-94q-63 76 -63 164q0 123 139 225z" />
<glyph unicode="&#x59f;" d="M-76 1380l-123 123q-45 -39 -110 -39q-82 0 -134.5 52.5t-52.5 138.5q0 80 53.5 134t133.5 54q82 0 135 -54t53 -134q0 -61 -37 -111l123 -123zM-184 1655q0 51 -36 86t-89 35q-51 0 -87 -35t-36 -86q0 -53 36 -88t87 -35q53 0 89 35t36 88zM496 1655q0 -82 -53.5 -136.5 t-133.5 -54.5q-72 0 -110 39l-123 -123l-41 41l123 123q-39 39 -39 111q0 80 54 134t136 54q37 0 71 -15.5t59.5 -41t41 -60t15.5 -71.5zM428 1655q0 47 -36 84t-83 37q-53 0 -89 -34t-36 -87t36 -88t89 -35q51 0 85 35t34 88z" />
<glyph unicode="&#x5a0;" d="M406 1655q0 -82 -53.5 -136.5t-133.5 -54.5q-72 0 -110 39l-123 -123l-41 41l123 123q-37 43 -37 111q0 80 54 134t134 54q39 0 73 -15.5t59.5 -41t40 -60t14.5 -71.5zM338 1655q0 47 -36 84t-83 37q-53 0 -88 -34t-35 -87t35 -88t88 -35t86 35t33 88z" />
<glyph unicode="&#x5a1;" d="M223 1655q0 -70 -35 -111q-37 -55 -98 -55q-29 0 -55 10v-119h-74v357h74v-172q0 -10 39 -11q76 0 76 111v37q-2 16 -2.5 23.5t-0.5 11.5h76v-82v0z" />
<glyph unicode="&#x5a3;" d="M-184 -539v76h153v281h76v-357h-229z" />
<glyph unicode="&#x5a4;" d="M-18 -530l-175 178l173 170h108l-174 -170l174 -178h-106z" />
<glyph unicode="&#x5a5;" d="M49 -283q0 -236 -297 -235v76q217 0 217 202l-4 58h78q6 -91 6 -101z" />
<glyph unicode="&#x5a6;" d="M199 -346q0 -119 -138 -225l-55 51q111 82 111 170q0 72 -78 168h98q62 -78 62 -164zM-27 -346q0 -121 -139 -225l-55 51q111 80 110 170q0 80 -75 168h96q63 -82 63 -164z" />
<glyph unicode="&#x5a7;" d="M61 -549l-186 -33v76l137 23l-137 219l64 53l186 33v-74l-139 -24l139 -220z" />
<glyph unicode="&#x5a8;" d="M-45 1765q37 -39 62.5 -84t33.5 -97t-4 -111.5t-49 -126.5q-4 -8 -16.5 -8.5t-23.5 6t-18.5 14.5t-2.5 18q20 45 35.5 85t16.5 79t-17.5 81t-67.5 93q-6 6 -1 17.5t15 20.5t20.5 14t16.5 -1z" />
<glyph unicode="&#x5a9;" d="M10 1380l-121 123q-45 -39 -110 -39q-82 0 -134.5 52.5t-52.5 138.5q0 80 53.5 134t133.5 54t133 -54t53 -134q0 -57 -35 -111l123 -123zM-98 1655q0 51 -35 86t-88 35t-88 -35t-35 -86q0 -53 35 -88t88 -35t88 35t35 88z" />
<glyph unicode="&#x5aa;" d="M170 -311q0 -131 -133 -166v-123h-74v123q-59 16 -95 61t-36 105v129h76q0 -10 -2 -38t-2 -44q0 -141 88 -142q106 0 106 134q0 16 -2 44.5t-2 45.5h76v-129v0z" />
<glyph unicode="&#x5ab;" d="M35 1382l-174 179l174 168h106l-174 -168l174 -179h-106z" />
<glyph unicode="&#x5ac;" d="M-195 1382v74h156v281h74v-355h-230z" />
<glyph unicode="&#x5ad;" d="M254 -520q-295 0 -295 303q0 6 1 15t3 20h76q-2 -10 -3 -24.5t-1 -37.5q0 -98 63 -149q55 -49 156 -49v-78v0z" />
<glyph unicode="&#x5ae;" d="M258 1530q0 -55 -39 -93t-92 -38q-66 0 -109 53q-16 27 -33.5 50.5t-33.5 49.5q-39 51 -80 52q-33 0 -53.5 -20.5t-20.5 -53.5q0 -53 53 -72l-20 -55q-88 39 -88 127q0 53 38 92t91 39q66 0 109 -53q18 -27 36.5 -51.5t40.5 -53.5q27 -49 70 -49q33 0 53.5 21.5 t20.5 54.5q0 47 -54 69l21 56q90 -43 90 -125z" />
<glyph unicode="&#x5af;" d="M215 1614q0 -47 -16.5 -86t-46 -67.5t-68.5 -45t-84 -16.5q-88 0 -152 63q-61 61 -61 152q0 92 60.5 153.5t152.5 61.5t153.5 -61.5t61.5 -153.5zM158 1614q0 66 -46 115t-112 49t-111 -49.5t-45 -114.5q0 -66 45 -115t111 -49t112 49t46 115z" />
<glyph unicode="&#x5b0;" d="M86 -254q0 -37 -24.5 -61.5t-61.5 -24.5t-61.5 24.5t-24.5 61.5q0 35 24.5 59.5t61.5 24.5t61.5 -23.5t24.5 -60.5zM86 -506q0 -37 -24.5 -61.5t-61.5 -24.5t-61.5 24.5t-24.5 61.5q0 35 25.5 60.5t60.5 25.5q37 0 61.5 -24.5t24.5 -61.5z" />
<glyph unicode="&#x5b1;" d="M369 -256q0 -37 -25 -61.5t-61 -24.5q-37 0 -62.5 24.5t-25.5 61.5t25.5 60.5t62.5 23.5q35 0 60.5 -24.5t25.5 -59.5zM102 -256q0 -37 -24.5 -61.5t-61.5 -24.5q-35 0 -60.5 25.5t-25.5 60.5t25 59.5t61 24.5q37 0 61.5 -24.5t24.5 -59.5zM-197 -256q0 -37 -24.5 -61.5 t-61.5 -24.5t-61.5 24.5t-24.5 61.5q0 35 25 59.5t61 24.5q37 0 61.5 -23.5t24.5 -60.5zM-47 -494q0 -37 -24.5 -61.5t-61.5 -24.5t-62.5 25t-25.5 61q0 35 26.5 61.5t61.5 26.5q37 0 61.5 -25.5t24.5 -62.5zM367 -506q0 -37 -25 -61.5t-61 -24.5q-37 0 -61.5 24.5 t-24.5 61.5q0 35 25.5 60.5t60.5 25.5q37 0 61.5 -24.5t24.5 -61.5z" />
<glyph unicode="&#x5b2;" d="M315 -256q0 -37 -24.5 -61.5t-61.5 -24.5t-62.5 24.5t-25.5 61.5t26 60.5t62 23.5q35 0 60.5 -24.5t25.5 -59.5zM-354 -299v109h387v-109h-387zM315 -506q0 -37 -24.5 -61.5t-61.5 -24.5t-61.5 24.5t-24.5 61.5q0 35 26 60.5t60 25.5q37 0 61.5 -24.5t24.5 -61.5z" />
<glyph unicode="&#x5b3;" d="M315 -256q0 -37 -24.5 -61.5t-61.5 -24.5t-62.5 24.5t-25.5 61.5t26 60.5t62 23.5q35 0 60.5 -24.5t25.5 -59.5zM-125 -299l-6 -92q0 -23 27 -62q29 -41 28 -61q0 -37 -24.5 -61.5t-61.5 -24.5q-35 0 -59.5 24.5t-24.5 61.5q0 25 27 63q29 41 29 60l-7 92h-157v109h387 v-109h-158zM315 -506q0 -37 -24.5 -61.5t-61.5 -24.5t-61.5 24.5t-24.5 61.5q0 35 26 60.5t60 25.5q37 0 61.5 -24.5t24.5 -61.5z" />
<glyph unicode="&#x5b4;" d="M86 -256q0 -37 -24.5 -61.5t-61.5 -24.5t-61.5 24.5t-24.5 61.5q0 35 24.5 59.5t61.5 24.5t61.5 -23.5t24.5 -60.5z" />
<glyph unicode="&#x5b5;" d="M225 -256q0 -37 -24.5 -61.5t-61.5 -24.5q-35 0 -60.5 25.5t-25.5 60.5t24.5 59.5t61.5 24.5t61.5 -24.5t24.5 -59.5zM-53 -256q0 -37 -24.5 -61.5t-61.5 -24.5t-61.5 24.5t-24.5 61.5q0 35 24.5 59.5t61.5 24.5t61.5 -23.5t24.5 -60.5z" />
<glyph unicode="&#x5b6;" d="M236 -256q0 -37 -25 -61.5t-61 -24.5q-35 0 -61 25.5t-26 60.5t25 59.5t62 24.5t61.5 -24.5t24.5 -59.5zM-63 -256q0 -37 -25 -61.5t-62 -24.5t-61.5 24.5t-24.5 61.5q0 35 25 59.5t61 24.5q37 0 62 -23.5t25 -60.5zM86 -494q0 -37 -24.5 -61.5t-61.5 -24.5t-62.5 25 t-25.5 61q0 35 26.5 61.5t61.5 26.5q37 0 61.5 -25.5t24.5 -62.5z" />
<glyph unicode="&#x5b7;" d="M-193 -299v109h388v-109h-388z" />
<glyph unicode="&#x5b8;" d="M37 -299l-6 -92q0 -23 26 -62q29 -41 29 -61q0 -37 -24.5 -61.5t-61.5 -24.5q-35 0 -59.5 24.5t-24.5 61.5q0 25 27 63q29 41 28 60l-6 92h-158v109h388v-109h-158z" />
<glyph unicode="&#x5b9;" d="M86 1411q0 -37 -24.5 -61.5t-61.5 -24.5t-61.5 24.5t-24.5 61.5q0 35 25.5 60.5t60.5 25.5q37 0 61.5 -24.5t24.5 -61.5z" />
<glyph unicode="&#x5bb;" d="M86 -256q0 -37 -24.5 -61.5t-61.5 -24.5q-35 0 -60.5 25.5t-25.5 60.5t24.5 59.5t61.5 24.5t61.5 -24.5t24.5 -59.5zM238 -393q0 -37 -25 -61.5t-61 -24.5q-37 0 -61.5 24.5t-24.5 61.5q0 35 24.5 59.5t61.5 24.5t61.5 -23.5t24.5 -60.5zM391 -537q0 -37 -24.5 -61.5 t-61.5 -24.5t-62.5 25t-25.5 61q0 35 26.5 61.5t61.5 26.5q37 0 61.5 -25.5t24.5 -62.5z" />
<glyph unicode="&#x5bc;" d="M84 590q0 -35 -24.5 -59.5t-59.5 -24.5t-59.5 24.5t-24.5 59.5t24.5 59.5t59.5 24.5t59.5 -24.5t24.5 -59.5z" />
<glyph unicode="&#x5bd;" d="M-37 -539v357h74v-357h-74z" />
<glyph unicode="&#x5be;" horiz-adv-x="774" d="M606 850h-551l86 305h551z" />
<glyph unicode="&#x5bf;" d="M-266 1384v111h532v-111h-532z" />
<glyph unicode="&#x5c0;" horiz-adv-x="497" d="M195 2v1184h110v-1184h-110z" />
<glyph unicode="&#x5c1;" d="M530 1411q0 -37 -24.5 -61.5t-61.5 -24.5t-61.5 24.5t-24.5 61.5q0 35 26 60.5t60 25.5q37 0 61.5 -24.5t24.5 -61.5z" />
<glyph unicode="&#x5c2;" d="M0 1411q0 -37 -24.5 -61.5t-61.5 -24.5t-61.5 24.5t-24.5 61.5q0 35 25.5 60.5t60.5 25.5q37 0 61.5 -24.5t24.5 -61.5z" />
<glyph unicode="&#x5c3;" horiz-adv-x="606" d="M502 1024q-127 -80 -226 -225h-22q-92 147 -225 225v23q127 86 225 223h22q53 -66 109.5 -121t116.5 -102v-23zM502 229q-133 -92 -226 -229h-22q-88 145 -225 229v21q66 45 122 101.5t103 121.5h22q41 -53 97.5 -108.5t128.5 -114.5v-21z" />
<glyph unicode="&#x5c4;" d="M86 1411q0 -37 -24.5 -61.5t-61.5 -24.5t-61.5 24.5t-24.5 61.5q0 35 25.5 60.5t60.5 25.5q37 0 61.5 -24.5t24.5 -61.5z" />
<glyph unicode="&#x5c7;" d="M37 -293l-6 -266q0 -23 26 -62q29 -41 29 -61q0 -37 -24.5 -61.5t-61.5 -24.5q-35 0 -59.5 24.5t-24.5 61.5q0 25 27 64q29 41 28 59l-6 266h-158v109h388v-109h-158z" />
<glyph unicode="&#x5d0;" horiz-adv-x="1024" d="M1096 543q-2 -49 -23.5 -46t-38.5 31q-4 4 -8 13q-4 4 -8 11t-8 13q-8 12 -36 29.5t-73 22t-104.5 -11t-128.5 -66.5q-53 -35 -94.5 -89.5t-67.5 -115.5q-35 -74 -30 -118t35 -64.5t75 -19.5t94 15q10 2 33.5 13.5t50.5 25t49.5 25.5t32.5 18q14 8 26.5 5t19.5 -14 t7 -26.5t-12 -29.5q-37 -43 -92.5 -78t-117 -54.5t-122.5 -21.5t-108.5 20.5t-76 72t-24.5 133.5q8 92 41 160.5t84 144.5q29 43 64.5 72.5t75.5 50t81 35t80 26.5t93.5 7t105.5 -28.5t87 -64.5t38 -96zM-31 2q23 23 53.5 75t65.5 128q27 45 50.5 97t45 102.5t41 93.5 t35.5 71q4 6 8 15.5t16.5 37t36 80t66.5 144.5q45 88 80 152.5t75 112.5t93 82t133 62q27 8 50.5 7.5t36.5 -10t12 -24t-25 -32.5l-49 -33q-84 -51 -127 -88t-71 -77t-50.5 -94t-65.5 -140q-29 -53 -55.5 -121t-52.5 -119q-6 -12 -14.5 -32.5t-18.5 -42.5 q-25 -53 -57.5 -124t-73.5 -141.5t-87 -130t-97 -92.5q-16 -10 -33 -12t-35 8q-12 6 -13 12t4 10.5t12 10.5t11 12z" />
<glyph unicode="&#x5d1;" horiz-adv-x="978" d="M494 664q-106 8 -177 -11.5t-112 -39t-53.5 -26.5t-1.5 23q18 27 49.5 48.5t67.5 38t73 25.5t66 13t54 8.5t55 6.5t64.5 1t79.5 -8q31 -2 88.5 -18t115 -50t102.5 -87t51 -129q6 -86 -26 -167t-90 -143.5t-139 -100.5t-173 -38q-57 0 -103.5 9.5t-82 34t-61.5 65.5 t-44 104q-29 -23 -57.5 -64.5t-64.5 -86.5t-82 -86t-107 -62q-29 -6 -48.5 6.5t-3.5 26.5q25 16 58 52t76 85t95 108.5t118 125.5q74 35 100 -9v-2q23 -82 68 -139t137 -57q59 0 110.5 27.5t88 72.5t54 101.5t11.5 113.5q-8 70 -45 111t-89 64.5t-111.5 34t-110.5 18.5z" />
<glyph unicode="&#x5d2;" horiz-adv-x="911" d="M580 778q45 70 99 112t98 60.5t70.5 15.5t18.5 -24q0 -10 -10 -18.5t-24.5 -16.5t-32 -20.5t-31.5 -30.5q-31 -27 -54.5 -57.5t-37.5 -61t-15.5 -57.5t15.5 -43v-4q29 -6 55.5 -11.5t52.5 -11.5q53 -6 99.5 -13t77.5 -42q14 -16 18 -25.5t2 -23.5l-2 -2 q-8 -20 -18.5 -29.5t-32.5 -17.5q-35 -4 -63.5 4t-57.5 18t-61.5 22.5t-73.5 18.5q-18 4 -38 4h-38q-131 0 -223 -35.5t-154 -126.5q-18 -31 -28.5 -62.5t-14.5 -59.5q-4 -53 21.5 -92t66.5 -65t92.5 -39t100.5 -13q86 0 165.5 21.5t165.5 64.5q27 10 47.5 -3.5t0.5 -29.5 q-94 -66 -209 -100.5t-240 -34.5q-98 0 -182 42t-130 110.5t-45 155.5t70 177q55 68 111.5 108t114 62.5t112 29.5t105.5 11q-2 20 3 41t13 39t14.5 32.5t6.5 20.5z" />
<glyph unicode="&#x5d3;" horiz-adv-x="862" d="M127 565q-16 -8 -30.5 -8t-25 6t-12.5 15.5t11 19.5q66 47 132 81t152 62q49 16 117 27.5t125 11.5q70 0 127 -19.5t95 -54t53.5 -83t2.5 -105.5q-4 -16 -24.5 -40.5t-75.5 -82.5v-30q20 -18 35.5 -35t24 -35.5t6.5 -43t-15 -58.5q-35 -92 -104.5 -143.5t-152.5 -73 t-171 -19.5t-161 18q-18 6 -10.5 21.5t26.5 17.5q43 -8 71.5 -12t54 -3t55.5 7t75 19q31 12 61.5 27.5t55 38t41 54t20.5 74.5q2 29 -11 51.5t-36 36.5q-14 -6 -33.5 -14t-32.5 -12q-45 -16 -90 -20.5t-92 -4.5q-16 0 -37.5 3t-41 11.5t-32 23.5t-10.5 38q10 41 69.5 64.5 t137.5 35.5q59 10 131 -6v4q49 35 81 77t36 83q4 45 -28.5 74.5t-114.5 35.5q-47 4 -97.5 -2t-97.5 -16q-59 -16 -131 -46t-129 -71z" />
<glyph unicode="&#x5d4;" horiz-adv-x="913" d="M195 549q-29 -18 -44.5 -14t1.5 28q8 16 19 29.5t40 32.5q76 49 182.5 81.5t208.5 32.5q49 0 97.5 -10t84.5 -31q6 -4 14.5 -8t18.5 -10q25 -10 41 -26.5t29 -32.5q39 -47 49 -94.5t6 -92.5q-16 -150 -104 -259t-263 -175q-31 -8 -56 2t-11 21q68 33 125 90t94 122.5 t51.5 132t-0.5 119.5q-6 37 -29.5 65t-59.5 46t-79 27.5t-86 9.5q-72 0 -143.5 -15.5t-118.5 -39.5q-23 -10 -35 -15.5t-32 -15.5zM313 391q45 -12 59.5 -43t6.5 -69.5t-35 -82.5t-64.5 -83t-83.5 -69t-92 -42q-27 -8 -39 6.5t-2 30.5q45 45 86 96t62.5 94t18.5 72t-42 29 q-18 0 -27 9t0 21.5t44.5 21.5t107.5 9z" />
<glyph unicode="&#x5d5;" horiz-adv-x="362" d="M346 752q10 18 24.5 25t29 6t22.5 -11t6 -29q-16 -129 -46 -229t-79 -190.5t-120.5 -178.5t-172.5 -190q-12 -12 -24.5 -12t-21.5 7t-10 18.5t11 23.5q59 98 93 156.5t55.5 97.5t36 72.5t37 85t58 132.5t101.5 216z" />
<glyph unicode="&#x5d6;" horiz-adv-x="759" d="M686 846q12 2 37 2t46.5 -2t34.5 -5t3 -10q-43 -27 -83 -44t-78 -38.5t-73.5 -54t-68.5 -88.5q-23 -39 -22 -71.5t17.5 -61.5t42 -53.5t52.5 -44.5q25 -18 49.5 -39t45 -43.5t31.5 -46t9 -49.5q-2 -16 -8 -37t-23 -49q-23 -39 -65.5 -69t-98 -49.5t-120 -29.5t-127.5 -10 q-29 0 -84.5 2t-111.5 14.5t-98 42t-42 84.5q0 12 14.5 29.5t31.5 26t32.5 1t17.5 -43.5q31 -31 84 -46q45 -12 118 -13t181 30q6 2 29.5 11t48 24.5t42 37t11.5 46.5q-10 35 -34.5 57.5t-55.5 42.5q-41 29 -80 59.5t-49 59.5q-29 86 -8.5 155.5t72 124t125 91.5t155.5 57z " />
<glyph unicode="&#x5d7;" horiz-adv-x="831" d="M389 645q41 31 74 42t69 11q76 0 148 -47t123 -112q14 -25 29.5 -57.5t19.5 -59.5q10 -74 -15.5 -156t-76.5 -149.5t-120 -107.5t-144 -29q-53 6 -56 24q0 16 47 19q41 2 79 42.5t65.5 98t41 122t5.5 117.5q-4 29 -23.5 73t-47 80t-61.5 52.5t-69 -8.5 q-10 -10 -30.5 -37.5t-49.5 -105.5q-18 -43 -46.5 -100.5t-62.5 -116t-71 -111.5t-70 -90q-4 -4 -11 -14.5l-15 -22.5q-16 -23 -35.5 -44t-52.5 -24q-23 2 -32 27t19 105q14 49 54.5 132t93.5 169t112.5 162.5t108.5 115.5z" />
<glyph unicode="&#x5d8;" horiz-adv-x="880" d="M764 356q-10 23 17.5 31t56.5 -8q39 -39 40 -83t-24 -87t-70 -84t-100 -71.5t-113.5 -49t-109.5 -18.5q-86 0 -160 13t-126 50t-76.5 101.5t-12.5 166.5q2 76 53 203q33 94 105.5 197.5t169 200t208 177.5t221 133t208 66.5t170.5 -24.5q16 -10 18 -23.5t-20 -17.5 q-66 -2 -148 -22.5t-172 -61.5t-182 -101.5t-176 -142.5t-154 -186.5t-117 -231.5q-18 -51 -28.5 -96t-14.5 -86q-4 -55 9.5 -92t39 -57.5t61.5 -28.5t77 -8q55 0 121.5 11t122 39t88 73.5t18.5 117.5z" />
<glyph unicode="&#x5d9;" horiz-adv-x="370" d="M328 754q0 14 7 23t19.5 12.5t26.5 -3t27 -20.5v-4q12 -8 14 -29.5t0 -34.5v-2q2 -49 -17.5 -98t-53.5 -94t-78 -82t-89 -64v-2q-29 -20 -53.5 -7t-9.5 38v4z" />
<glyph unicode="&#x5da;" horiz-adv-x="776" d="M223 627q-27 -8 -46 3t-5 23q66 35 137.5 52.5t143.5 13.5q63 -2 130.5 -29.5t123 -73t90 -104.5t28.5 -123q-2 -20 -11 -46t-26 -54q-29 -41 -64.5 -71t-77.5 -51.5t-87 -36.5t-90 -28q-63 -16 -138 -44.5t-145 -88.5q-76 -68 -136 -152.5t-110.5 -181t-96.5 -201 t-96 -212t-108.5 -216t-132.5 -210.5q-6 -16 -14 -20.5t-18 -2.5t-23 8q-14 0 -17 18.5t3 29.5q37 63 60.5 109t44 89t41 92.5t55.5 118.5q45 96 76.5 169t56 132.5t47 110.5t47 102t57.5 107.5t78 128.5q66 68 145.5 121t178.5 79q16 6 34.5 9.5t40.5 7.5q35 6 73 13 t74 21.5t65.5 37t47.5 57.5q14 31 19 74q4 49 -16.5 92t-55.5 76.5t-79 56t-87 31.5q-18 2 -41.5 1t-49 -4.5t-49.5 -8.5t-38 -13q-8 -4 -17 -7t-22 -7v2z" />
<glyph unicode="&#x5db;" horiz-adv-x="911" d="M766 346q6 170 -138.5 236.5t-437.5 3.5q-14 10 -7 23.5t22 23.5q16 12 43 26q88 51 209 48.5t229.5 -49t180 -128t61.5 -190.5v-2q-6 -74 -51.5 -133.5t-111 -102.5t-143 -69.5t-149.5 -34.5q-41 -4 -104.5 0t-129 15.5t-124 27.5t-93 34.5t-34.5 38t53 36.5 q137 -53 268 -60.5t232.5 22t163 90t61.5 144.5z" />
<glyph unicode="&#x5dc;" horiz-adv-x="507" d="M500 887q29 55 70.5 137t95 172t115 183.5t131 173t143 138t149.5 81.5q25 4 40.5 5t26.5 0t22.5 -5.5t29.5 -10.5q18 -8 13 -26.5t-29 -14.5q-4 0 -9.5 3t-7.5 -1q-29 0 -61 -12q-29 -10 -64 -33.5t-71 -64.5q-68 -76 -134.5 -175.5t-130 -210t-123 -225t-110.5 -219.5 q-41 -78 -76 -150.5t-69 -150.5q-29 -61 -68 -144t-88 -161q-12 -35 -40 -71.5t-59.5 -70.5t-61.5 -58.5t-46 -34.5q-43 -23 -74.5 -15t-48 29.5t-18.5 47.5t14 38q2 14 18.5 32.5t38 37t42 32t28.5 19.5q72 45 121 106.5t70 128.5zM47 14q-4 -2 -10 -8v-2z" />
<glyph unicode="&#x5dd;" horiz-adv-x="1073" d="M-57 -119q20 61 61 145.5t88 186.5t94 221t80 250q6 20 20.5 36.5t34 24t41 4t39.5 -17.5q27 -20 27 -51q-2 -14 -7 -29.5t-11 -32.5q88 63 181 83t191 24q57 2 109.5 -19.5t91.5 -60.5t59.5 -88t16.5 -102q-2 -18 -16.5 -72.5t-57.5 -114.5q-33 -45 -84 -84 t-113.5 -66.5t-131 -44t-134.5 -16.5q-49 0 -96 18.5t-87 49.5t-70.5 68.5t-47.5 74.5q-23 -55 -45 -116.5t-48 -120t-54.5 -106.5t-63.5 -75q-23 -23 -50 -13.5t-17 44.5zM633 631q-41 -4 -85 -18.5t-86 -37t-79 -55.5t-61 -74q-18 -61 -3 -109t49.5 -82t83 -51.5 t95.5 -17.5q55 0 112.5 15.5t104.5 45t81 72.5t44 99q14 72 -4.5 117t-57.5 68.5t-90 28.5t-104 -1z" />
<glyph unicode="&#x5de;" horiz-adv-x="825" d="M1194 1026q-121 -104 -209 -220t-156.5 -238t-124 -250t-108.5 -259q-10 -23 -37 -31t-55 -8q-78 0 -72 68l2 26q2 27 4 69t4 94.5t2 102.5t-2 93t-6 70q-8 39 -34.5 22.5t-61.5 -65.5t-75 -121t-75.5 -141.5t-64.5 -127t-39 -79.5q-18 -37 -30.5 -56.5t-24 -34 t-23.5 -28.5t-33 -37q-18 -18 -38.5 -24.5t-35 -3.5t-19.5 16.5t12 32.5q18 33 24 40t11 15t15.5 27.5t37.5 74.5q16 33 41.5 90.5t56.5 126t65.5 141t71.5 137t75 114t73 69.5q18 6 28 9t17.5 3t13.5 -1l18 -3q49 -31 67.5 -106.5t20.5 -157.5t-4 -148.5t-8 -78.5 q63 92 123.5 205.5t129.5 226.5t151 211t192 158q31 8 55.5 3t26.5 -20z" />
<glyph unicode="&#x5df;" horiz-adv-x="409" d="M428 860q23 14 45.5 4t11.5 -28q-41 -57 -67.5 -122t-49 -131.5t-44 -134t-54.5 -131.5q-35 -88 -79 -210.5t-94 -248.5t-106.5 -241t-115.5 -188q-18 -27 -44 -67t-54.5 -77t-57 -60.5t-51.5 -12.5q-14 14 -16 23t9 32.5t35.5 70t65.5 132.5q31 59 48 104 q16 37 50 111.5t70.5 158.5t68.5 163t48 126q35 109 75 216.5t86 203.5t100 176t120 133v-2z" />
<glyph unicode="&#x5e0;" horiz-adv-x="487" d="M569 774q31 4 34 -7t-8 -28.5t-29.5 -38t-28.5 -36.5q-12 -23 -24.5 -48.5t-30 -65.5t-40 -96.5t-53.5 -138.5q-25 -61 -52.5 -131.5t-61 -140.5t-71.5 -134.5t-81 -113.5q-39 -45 -95.5 -79.5t-118 -51t-122.5 -12.5t-111 39q-37 25 -48 50.5t-10 44.5t11.5 28.5 t18.5 1.5q20 -16 41.5 -29.5t47 -24t59.5 -14.5t79 2q45 4 86 43t96.5 133t134 255t197.5 407q12 25 29.5 58.5t40 63t50 49t60.5 15.5z" />
<glyph unicode="&#x5e1;" horiz-adv-x="931" d="M117 401q14 35 52 73t75 71q-2 6 11 32.5t49 60.5t97.5 65.5t155.5 46.5q76 12 144.5 -20t117.5 -90t74 -137t12 -161q-4 -37 -18.5 -79t-42.5 -85q-31 -53 -80 -93t-109.5 -67.5t-128 -41t-133.5 -13.5q-72 0 -137.5 17.5t-112.5 52.5t-71.5 88t-14.5 125 q4 29 15.5 60.5t25.5 64.5q6 8 9.5 14t9.5 14v2zM293 403q-14 -29 -39 -33.5t-37 11.5q-27 -43 -33 -98q-10 -61 19 -111q33 -41 87 -67.5t111 -26.5q45 0 91.5 10t89.5 29.5t78.5 49.5t58.5 69q27 55 37 118q8 61 -8.5 115.5t-49 94.5t-78 62.5t-96.5 22.5 q-27 0 -55.5 -16.5t-55 -38t-50 -46t-39.5 -38.5q-4 -12 -7.5 -24.5t-5.5 -24.5v-2q-4 -10 -9 -25.5t-9 -32.5v2z" />
<glyph unicode="&#x5e2;" horiz-adv-x="724" d="M629 678q31 -98 19.5 -215t-56.5 -227.5t-123 -199.5t-182 -132q-18 -6 -27 -10q-14 -6 -39.5 -11.5t-55.5 -3.5t-57.5 13.5t-44.5 33.5q-23 31 -27.5 67t2.5 74.5t24.5 79.5t41.5 80q72 117 173.5 228.5t218.5 212.5h-2q0 6 -9 14q-8 6 -24.5 13t-46.5 12 q-16 0 -42 -5.5t-53.5 -14.5t-55 -23.5t-46.5 -34.5v2q-10 -12 -25.5 -15.5t-28.5 -0.5t-19.5 12.5t3.5 23.5q14 27 44 53.5t66 47t72 34t60 13.5q51 2 89 -9.5t75 -37.5q14 10 42 41.5t62.5 71.5t73.5 82t78 71q35 29 72 46t67.5 21.5t50 -7t19.5 -38.5q0 -16 -25.5 -31.5 t-63.5 -37t-80 -53t-75 -76.5zM535 408q16 78 14 122.5t-6 44.5q-33 -35 -61.5 -63.5t-56.5 -57t-53.5 -58t-52.5 -64.5q-2 -2 -19 -24.5t-21 -33.5q-25 -35 -52.5 -81t-45 -88t-16.5 -72.5t38 -34.5q57 18 110.5 57t97.5 92.5t76 120t48 140.5z" />
<glyph unicode="&#x5e3;" horiz-adv-x="784" d="M424 287q12 23 22.5 47t24.5 53q-35 -20 -89 -71.5t-102.5 -114t-73 -124t0.5 -100.5q70 61 124 142.5t93 167.5zM502 459q135 256 229 432t155.5 291.5t95.5 180t51.5 96.5t21.5 41t8 13q14 33 43 82.5t60.5 106.5t62.5 116.5t48 114t18 98.5t-23 70q-29 29 -72 22 t-93 -38t-103.5 -79t-99.5 -100.5t-82 -104.5t-52 -89q-45 -61 -81 -134t-50 -144.5t-1 -141t69 -125.5q16 -4 23 -16t6 -24.5t-11 -23.5t-31 -13q-37 -4 -79 -22.5t-79.5 -49.5t-65.5 -73t-34 -93q-4 -41 4.5 -76t34.5 -69q16 -12 18.5 -25.5t-5 -23t-22.5 -12.5t-34 7 q-55 25 -77.5 71t-20.5 101.5t25.5 112.5t61.5 106.5t87 82t102 40.5q-49 82 -61 160t-3 144.5t29.5 120t36.5 85.5q39 70 88.5 145.5t106.5 146.5t120.5 132.5t130 101.5t133 53t132.5 -9q12 -4 27.5 -14.5t31 -30t26.5 -48t15 -67.5q4 -68 -30.5 -164t-99 -225 t-152.5 -293t-191 -367q-39 -78 -87 -176t-100 -202.5t-108.5 -208t-111 -194.5t-107.5 -162.5t-100 -110.5l-12 -11q-35 -33 -67 -46t-79 -13q-49 2 -64.5 32.5t-13.5 67.5q4 31 11.5 61.5t15.5 51.5q25 55 65.5 101t90 87t106 76t113.5 68z" />
<glyph unicode="&#x5e4;" horiz-adv-x="1218" d="M799 848q-47 14 -103.5 12t-122.5 -12q-12 -2 -13 4t2 15.5t10.5 17.5t13.5 10q61 29 151 29t164 -33t131.5 -90.5t97 -134t60.5 -164.5q14 -74 12 -137q-6 -104 -47 -196.5t-111.5 -170.5t-168 -139.5t-213.5 -102.5q-23 -8 -78.5 -21.5t-125 -19.5t-145 5.5t-138 52.5 t-102.5 120.5t-40 212.5q0 74 34.5 156t94 153.5t137.5 123t166 63.5q76 2 125 -7t83 -27.5t57.5 -44t45.5 -56.5q23 -31 19 -84q0 -49 -32 -102.5t-83 -79.5q-37 -18 -74 -23.5t-82 8.5q2 6 12.5 16.5t26.5 12.5l35 12q25 8 41 32t24.5 52.5t6.5 59t-17 51.5 q-35 55 -72.5 64.5t-93.5 9.5q-14 0 -29.5 -2t-21.5 -5h2q-57 -14 -105 -52t-84 -90t-57.5 -114.5t-23.5 -128.5q-4 -88 35 -155.5t149 -98.5l64 -4q47 0 111.5 8.5t109.5 22.5q102 31 192.5 89.5t151.5 138t88 178t2 209.5q-20 123 -85.5 216t-186.5 140z" />
<glyph unicode="&#x5e5;" horiz-adv-x="860" d="M139 41q72 123 170.5 217t227.5 170q37 86 69.5 169t65.5 169q-176 -53 -353 -53q-37 0 -79.5 5t-79.5 20.5t-60.5 42t-21.5 71.5q2 27 28.5 65.5t70.5 84t102.5 90.5t124 82.5t135 61.5t135.5 28q86 6 88 -15.5t-94 -31.5q-45 -4 -100.5 -29t-111 -60.5t-103.5 -79.5 t-76.5 -88.5t-32.5 -83t30 -65.5q20 -4 72.5 -1t118 12t133.5 25.5t121 39.5q41 104 73.5 186t63.5 156q53 129 123 245.5t141 233.5l2 2q27 45 76 110.5t111.5 137.5t134.5 139.5t141.5 115.5t133 69.5t110.5 1.5q59 -27 74.5 -79.5t4 -117t-44 -135t-71.5 -136t-75 -118.5 t-56 -84q-45 -70 -97.5 -146.5t-111.5 -153.5t-124.5 -149.5t-137.5 -130.5v-2q-72 -59 -158 -109.5t-180 -91.5q-43 -102 -90 -202.5t-88 -204.5q-33 -72 -72 -149.5t-82 -153.5t-86 -142.5t-82 -115.5q-61 -78 -115.5 -82t-88 34t-39 102.5t29.5 123.5zM1405 1915 q-61 -72 -123.5 -163t-119 -188.5t-106.5 -194.5t-87 -181t-59.5 -145.5t-22.5 -88.5q211 129 377 312.5t307 410.5q14 20 41.5 67.5t58.5 105t58.5 120t41 113.5t6 85t-45.5 36q-51 -18 -95.5 -53t-84.5 -75t-75.5 -83t-70.5 -78zM223 -129q14 0 36 24.5t47.5 65.5t52 92 t52 104.5t48 102.5t39.5 84q-27 -12 -64 -51t-76 -90t-74.5 -107.5t-58 -104.5t-26 -82t23.5 -38z" />
<glyph unicode="&#x5e6;" horiz-adv-x="845" d="M483 1004q-16 -14 -33.5 -18.5t-29.5 -0.5t-17.5 13.5t5.5 23.5q41 45 95 85t116.5 68.5t131 44t136.5 11.5q106 -23 154.5 -73t51.5 -115.5t-30 -137t-89 -136t-127 -113t-142 -66.5q0 2 26.5 -14.5t59 -46t61.5 -70.5t33 -88q2 -80 -37 -154t-110.5 -132t-171 -94 t-218.5 -40q-102 -4 -172 21.5t-107.5 59.5t-40.5 66.5t27 46.5q2 0 37 -22.5t92.5 -46t128 -35.5t144.5 12q59 12 125.5 42t113.5 76t63.5 112.5t-26.5 152.5q-18 37 -68.5 56.5t-86.5 15.5q-23 -4 -71 -15.5t-96.5 -15.5t-80 9.5t-19.5 60.5q25 35 79 52t110 24 q66 8 137 6q158 66 233.5 146.5t89 154.5t-24.5 131t-106.5 75.5t-161 -10t-184.5 -127.5v5z" />
<glyph unicode="&#x5e7;" horiz-adv-x="968" d="M193 520q-14 -8 -30 -10t-27 1t-17 9t0 17q70 92 174 150t214.5 76.5t214 -8t169.5 -106.5q55 -68 62.5 -140.5t-19.5 -143t-79 -134t-113.5 -113.5t-126 -83t-115.5 -39q-12 -4 -28.5 -5t-29 -1t-17.5 3t5 7q29 14 88.5 60t120.5 108.5t112.5 134.5t65.5 138.5 t-19.5 118.5t-144.5 79q-133 31 -244.5 1t-215.5 -124v4zM346 403q27 12 43.5 3t5.5 -25q-37 -43 -68.5 -114.5t-69.5 -172t-88 -229.5t-126 -283q-16 -27 -44 -73t-55.5 -92t-49 -80.5t-23.5 -38.5q-18 -25 -43 -64t-52.5 -75t-55 -58.5t-52.5 -13.5q-18 12 -20 20t10 29.5 t40 63.5t71 120q16 27 28.5 52.5t22.5 43.5q35 66 65.5 146t61.5 164q37 98 79 198.5t90 191.5t104 165.5t126 124.5v-3z" />
<glyph unicode="&#x5e8;" horiz-adv-x="741" d="M356 662q-66 -4 -114.5 -30t-79.5 -48.5t-44.5 -32.5t-6.5 14q10 43 57 82t111.5 62.5t137 27.5t137 -19.5t110 -79.5t55.5 -155q4 -33 0 -63q-8 -90 -58.5 -166t-126 -131t-164.5 -89t-175 -42q-18 2 -27.5 15t6.5 22q6 0 41 13t83 38.5t100.5 63.5t94.5 86.5 t64.5 106.5t11.5 126q-2 43 -22.5 80t-50 62.5t-66.5 41t-74 15.5z" />
<glyph unicode="&#x5e9;" horiz-adv-x="923" d="M674 14q23 12 37 -5t-9 -34q-57 -39 -129.5 -61.5t-152.5 -22.5q-82 0 -150.5 31t-109.5 101q-10 14 -14.5 28.5t-8.5 30.5q-37 -2 -61.5 6t-29.5 19.5t12.5 23.5t62.5 19q-4 25 -3 39t3 40q10 113 60 234t122 225.5t156 179t162 93.5q33 8 65.5 15t67.5 7q25 0 49 -5 t47 -17q68 -41 97.5 -116t21.5 -161q-6 -61 -28.5 -122.5t-61.5 -112.5q-129 -154 -291 -236t-340 -123q2 -10 2 -11t4 -5q29 -59 85 -87t118 -28q57 0 114.5 15t102.5 40zM236 219q-4 -31 0 -61q66 18 118 34.5t102 44t107.5 70.5t130.5 117q25 25 49.5 57.5t44 69.5t33 75 t17.5 72q6 72 -14.5 118t-75.5 46q-39 0 -97 -24q-27 -14 -55.5 -30.5t-60.5 -41.5q-41 -35 -90.5 -95.5t-93.5 -135t-76.5 -156.5t-38.5 -160z" />
<glyph unicode="&#x5ea;" horiz-adv-x="948" d="M373 725q14 37 37.5 60.5t46 33.5t40 7t21.5 -21q-8 -23 -6 -42.5t-8 -41.5q94 45 179 42t149.5 -41t102.5 -103.5t40 -144.5t-38 -165t-132 -166q-111 -98 -275 -131q-39 -12 -47 5.5t27 33.5q59 25 114.5 65t102.5 103q74 94 89 186.5t-21.5 155t-122.5 86t-211 -19.5 q-172 -514 -376 -718t-435 -99q-29 12 -37 32.5t-6 40.5q2 23 12 49q14 -16 44 -24t62.5 -12.5t63.5 -4.5t51 3q104 10 192.5 122.5t176.5 307.5q27 66 47 112.5t37.5 89.5t36 88t43.5 111z" />
<glyph unicode="&#x5f0;" horiz-adv-x="1257" d="M346 752q10 18 24.5 25t29 6t22.5 -11t6 -29q-16 -129 -46 -229t-79 -190.5t-120.5 -178.5t-172.5 -190q-12 -12 -24.5 -12t-21.5 7t-10 18.5t11 23.5q59 98 93 156.5t55.5 97.5t36 72.5t37 85t58 132.5t101.5 216zM946 752q10 18 24.5 25t29 6t22.5 -11t6 -29 q-16 -129 -46 -229t-79 -190.5t-120.5 -178.5t-172.5 -190q-12 -12 -24.5 -12t-21.5 7t-10 18.5t11 23.5q59 98 93 156.5t55.5 97.5t36 72.5t37 85t58 132.5t101.5 216z" />
<glyph unicode="&#x5f1;" horiz-adv-x="1251" d="M981 752q10 18 24.5 25t29 6t22.5 -11t6 -29q-16 -129 -46 -229t-79 -190.5t-120.5 -178.5t-172.5 -190q-12 -12 -24.5 -12t-21.5 7t-10 18.5t11 23.5q59 98 93 156.5t55.5 97.5t36 72.5t37 85t58 132.5t101.5 216zM328 754q0 14 7 23t19.5 12.5t26.5 -3t27 -20.5v-4 q12 -8 14 -29.5t0 -34.5v-2q2 -49 -17.5 -98t-53.5 -94t-78 -82t-89 -64v-2q-29 -20 -53.5 -7t-9.5 38v4z" />
<glyph unicode="&#x5f2;" horiz-adv-x="1216" d="M328 754q0 14 7 23t19.5 12.5t26.5 -3t27 -20.5v-4q12 -8 14 -29.5t0 -34.5v-2q2 -49 -17.5 -98t-53.5 -94t-78 -82t-89 -64v-2q-29 -20 -53.5 -7t-9.5 38v4zM914 754q0 14 7 23t19.5 12.5t26.5 -3t27 -20.5v-4q12 -8 14 -29.5t0 -34.5v-2q2 -49 -17.5 -98t-53.5 -94 t-78 -82t-89 -64v-2q-29 -20 -53.5 -7t-9.5 38v4z" />
<glyph unicode="&#x5f3;" horiz-adv-x="505" d="M446 1141q0 -45 -22 -74l-277 -356q-16 -18 -34 -19l-21 2q-23 23 -22 41l133 457q20 80 114 80q129 0 129 -131z" />
<glyph unicode="&#x5f4;" horiz-adv-x="856" d="M799 1143q0 -43 -27 -76l-274 -356q-16 -18 -35 -19l-19 2q-20 18 -20 41q0 14 131 457q20 80 117 80q127 0 127 -129zM446 1141q0 -45 -22 -74l-277 -356q-16 -18 -34 -19l-21 2q-23 23 -22 41l133 457q20 80 114 80q129 0 129 -131z" />
<glyph unicode="&#x200c;" horiz-adv-x="45" d="M0 0v1628h45v-1628h-45z" />
<glyph unicode="&#x200d;" horiz-adv-x="45" d="M129 1466l-84 84v-1550h-45v1550l-84 -84l-31 29l109 109l-109 106l31 31l107 -109l106 109l31 -31l-107 -106l107 -109z" />
<glyph unicode="&#x200e;" horiz-adv-x="45" d="M166 1466l-31 31l86 86h-176v-1583h-45v1628h217l-82 82l31 31l137 -137z" />
<glyph unicode="&#x200f;" horiz-adv-x="45" d="M0 0v1583h-176l86 -86l-31 -31l-137 138l137 137l31 -31l-82 -82h217v-1628h-45z" />
<glyph unicode="&#x2013;" horiz-adv-x="929" d="M25 614l69 168h809l-69 -168h-809z" />
<glyph unicode="&#x2014;" horiz-adv-x="1859" d="M25 614l69 168h1731l-70 -168h-1730z" />
<glyph unicode="&#x2018;" horiz-adv-x="512" d="M446 260q0 -45 -22 -74l-277 -356q-16 -18 -34 -18l-21 2q-23 23 -22 41l133 456q20 80 114 80q129 0 129 -131z" />
<glyph unicode="&#x2019;" horiz-adv-x="620" d="M508 172q-53 -37 -98 -82t-82 -102h-19q-70 115 -180 184v16q53 35 96 80t84 99h19q66 -88 180 -179v-16v0z" />
<glyph unicode="&#x201c;" horiz-adv-x="856" d="M799 315q0 -43 -27 -75l-274 -357q-16 -18 -35 -18l-19 2q-20 18 -20 41q0 12 131 457q20 80 117 79q127 0 127 -129zM446 313q0 -45 -22 -73l-277 -357q-16 -18 -34 -18l-21 2q-23 23 -22 41l133 457q20 80 114 79q129 0 129 -131z" />
<glyph unicode="&#x201d;" horiz-adv-x="856" d="M799 1219q0 -43 -27 -76l-274 -357q-16 -18 -35 -18l-19 2q-20 18 -20 41q0 12 131 457q20 80 117 80q127 0 127 -129zM446 1217q0 -45 -22 -74l-277 -357q-16 -18 -34 -18l-21 2q-23 23 -22 41l133 457q20 80 114 80q129 0 129 -131z" />
<glyph unicode="&#x2022;" horiz-adv-x="1024" d="M331 692q-25 57 6 102.5t96.5 76t156 47t183.5 18.5t178 -10t142.5 -39t76 -70t-22.5 -100q-6 -8 -14.5 -19.5t-26.5 -33.5q-33 -37 -88.5 -69t-107.5 -56.5t-90 -41t-34 -24.5q51 -2 109 -16q53 -18 83.5 -58t14.5 -85q-16 -57 -68.5 -104.5t-124 -82.5t-156.5 -57.5 t-170 -28.5t-161 3t-131 37t-81 74t-9 113q8 18 16 34t39 55q16 16 37 24t36 8t20 -9t-7 -28l-10 -10v-2q-10 -8 -18.5 -20.5t-14.5 -22.5q-16 -29 -20 -60.5t14 -60.5q16 -37 68.5 -51t117.5 -14q66 0 133.5 14t127 39t106.5 59.5t74 77.5q2 4 4 11.5t4 11.5v14 q-35 23 -75 26t-81 3h-18q-33 0 -64.5 2t-66.5 12q-35 23 -29 51q6 16 47 47q18 10 61.5 26.5t94.5 38t105.5 48.5t96.5 53.5t64.5 54t11.5 54.5q-12 49 -59 74.5t-112.5 31.5t-139.5 -6t-140.5 -34.5t-117 -56.5t-66.5 -71z" />
<glyph unicode="&#x2026;" horiz-adv-x="1945" d="M483 172q-53 -37 -98 -82t-82 -102h-18q-70 115 -181 184v16q53 35 96.5 80t84.5 99h18q66 -88 180 -179v-16zM1161 172q-53 -37 -98 -82t-82 -102h-18q-70 115 -181 184v16q53 35 96.5 80t84.5 99h18q66 -88 180 -179v-16zM1841 172q-53 -37 -98 -82t-82 -102h-19 q-70 115 -180 184v16q53 35 96.5 80t83.5 99h19q66 -88 180 -179v-16z" />
<glyph unicode="&#x2030;" horiz-adv-x="2398" d="M555 922q0 113 -47 202q-59 109 -166 109q-172 0 -172 -287q0 -115 47 -205q59 -109 164 -108q174 0 174 289zM1475 416q0 115 -48 205q-57 106 -165 106q-170 0 -170 -287q0 -123 45 -204q59 -109 166 -109q172 0 172 289zM678 952q0 -127 -60 -252q-115 -221 -264 -221 q-145 0 -231 142q-78 127 -78 274t59 270q104 219 267 219q154 0 237 -147q70 -121 70 -285zM438 -45l-12 12l688 1413l88 31l17 -6l-687 -1409zM1599 449q0 -131 -59 -254q-109 -219 -264 -220q-145 0 -234 142q-74 119 -73 272q0 158 57 273q106 215 266 215 q150 0 236 -146q71 -120 71 -282zM2218 416q0 115 -47 205q-57 106 -166 106q-170 0 -170 -287q0 -123 45 -204q59 -109 166 -109q172 0 172 289zM2343 449q0 -131 -59 -254q-109 -219 -265 -220q-145 0 -233 142q-74 119 -74 272q0 158 57 273q106 215 267 215 q150 0 235 -146q72 -120 72 -282z" />
<glyph unicode="&#x2039;" horiz-adv-x="851" d="M729 113q0 -29 -27 -29q-10 0 -153 143q-23 23 -118 111t-269 244q45 39 109.5 95t150.5 132l147 139q125 117 133 117q25 0 25 -29q0 -35 -328 -461q47 -59 93.5 -116.5t93.5 -116.5q143 -186 143 -229z" />
<glyph unicode="&#x203a;" horiz-adv-x="851" d="M692 569q-45 -39 -109.5 -95t-150.5 -132q-45 -45 -111.5 -107.5t-158.5 -148.5l-10 -2q-27 0 -27 29q0 35 328 460q-47 57 -92.5 114.5t-90.5 117.5q-147 186 -147 231q0 29 29 29q10 0 153 -143q35 -33 131 -121.5t256 -231.5z" />
<glyph unicode="&#xe000;" horiz-adv-x="768" d="M0 768h768v-768h-768v768z" />
<glyph unicode="&#xfb02;" horiz-adv-x="17096" d="M3142 717q0 -39 -35 -39h-666q-43 0 -43 39v137q0 43 43 43h666q35 0 35 -43v-137zM-5702 453q0 -43 -39 -43h-788q-35 0 -35 43v118q0 37 35 37h788q39 0 39 -37v-118zM-5702 973q0 -31 -39 -31h-788q-35 0 -35 31v123q0 41 35 41h788q39 0 39 -41v-123zM1028 797 l-39 -246h279l35 246h-275zM1440 797l-33 -246h225v-119h-246l-67 -409h-135l65 409h-295l-69 -409h-137l69 409h-227v119h262l33 246h-240v118h260l68 379h139l-70 -379h277l67 379h140l-66 -379h226v-118h-246zM-7414 1061l207 -168q-47 -86 -145 -119l-127 238l-95 -246 q-98 29 -157 102l194 205l-272 19q-2 88 55 180l248 -123l-65 260q51 12 96 12q37 0 84 -12l-41 -274l225 141q59 -84 62 -176z" />
<glyph unicode="&#xfb1d;" horiz-adv-x="630" d="M328 754q0 14 7 23t19.5 12.5t26.5 -3t27 -20.5v-4q12 -8 14 -29.5t0 -34.5v-2q2 -49 -17.5 -98t-53.5 -94t-78 -82t-89 -64v-2q-29 -20 -53.5 -7t-9.5 38v4zM428 -256q0 -37 -24.5 -61.5t-61.5 -24.5t-61.5 24.5t-24.5 61.5q0 35 24.5 59.5t61.5 24.5t61.5 -23.5 t24.5 -60.5z" />
<glyph unicode="&#xfb1e;" horiz-adv-x="1173" d="M1569 1155q94 -4 158.5 -28.5t102.5 -77t53 -136.5t11 -208q-6 -188 -28.5 -323.5t-89 -224.5t-190.5 -136.5t-335 -57.5q-25 -2 -26.5 15.5t8.5 33.5q18 29 27.5 43.5t12.5 30.5t4 44t1 87q0 23 20.5 34t42.5 9q145 -14 237.5 24t144 99t68.5 131t15 117 q-4 74 -20.5 117t-42 66.5t-59 31.5t-72.5 8h-1448q-41 0 -65.5 8t-36 28.5t-11.5 56.5t10 93q10 55 18.5 95.5t22.5 81.5q2 14 10.5 26t17.5 17.5t17.5 2.5t12.5 -20q4 -45 24.5 -66.5t67.5 -21.5h1317z" />
<glyph unicode="&#xfb1f;" horiz-adv-x="1157" d="M328 754q0 14 7 23t19.5 12.5t26.5 -3t27 -20.5v-4q12 -8 14 -29.5t0 -34.5v-2q2 -49 -17.5 -98t-53.5 -94t-78 -82t-89 -64v-2q-29 -20 -53.5 -7t-9.5 38v4zM854 754q0 14 7 23t19.5 12.5t26.5 -3t27 -20.5v-4q12 -8 14 -29.5t0 -34.5v-2q2 -49 -17.5 -98t-53.5 -94 t-78 -82t-89 -64v-2q-29 -20 -53.5 -7t-9.5 38v4z" />
<glyph unicode="&#xfb20;" horiz-adv-x="1193" d="M1108 743q-10 -74 -20.5 -154.5t-38 -162.5t-85 -161t-163.5 -148q-78 -51 -144.5 -90t-134 -74t-142.5 -67.5t-167 -69.5q-25 -10 -35 -6t-14 12t-2 24q0 10 2 34t2 54q0 23 -2 37.5t-4 26.5t-4 24.5t-2 30.5v25.5t8 22t26.5 22.5t55.5 29l176 71l-88 631h-156 q-43 0 -69.5 16.5t-39 42t-13.5 59.5t3 70q6 43 11.5 75t15.5 56.5t26.5 44t43.5 37.5q16 10 28.5 6t7.5 -26q-4 -10 -2 -23.5t9.5 -27t17.5 -22.5t23 -9h139q47 0 75.5 -8t43 -25.5t18.5 -44t4 -65.5v-119q-66 -20 -83 -59t-7 -76l111 -488l182 78q51 20 100 49t89 67 t67 85t31 106l12 156q4 35 -11.5 40t-37.5 5h-172q-72 0 -98.5 35t-22.5 123q2 55 14.5 120.5t42.5 116.5q6 14 23.5 20.5t17.5 -16.5q0 -33 3 -50t9.5 -27.5t17.5 -14.5t30 -8h176q68 4 92 -42t18 -148z" />
<glyph unicode="&#xfb21;" horiz-adv-x="1826" d="M1425 1151q68 0 119 -4t85 -29.5t49.5 -86t11.5 -175.5q-2 -49 -9.5 -92t-13.5 -90t-11 -101.5t-5 -121.5q0 -27 14 -51.5t25 -34.5l63 -62q14 -12 21.5 -29.5t-2.5 -44.5l-68 -225q-45 4 -132 6t-201 2t-245 -1t-266 -3t-264 -5t-237.5 -7t-187.5 -9t-114 -12 q-29 -4 -27.5 14.5t9.5 41.5q16 27 23.5 37t12.5 22t8 36t9 79q2 10 1 19t2 17.5t13.5 14.5t32.5 10q29 4 98.5 7t167 5.5t214 2.5h238.5t240 -2.5t218 -5.5t174 -7t106 -8l-26 420q-4 43 -7 75.5t-14.5 55t-33 34t-60.5 11.5h-1218q-115 0 -151 52t-11 132q12 41 16 79 t23 89q8 27 18 43t23.5 21.5t17.5 -17.5q2 -66 28.5 -83t88.5 -17z" />
<glyph unicode="&#xfb22;" horiz-adv-x="1871" d="M1536 1153q53 0 85 1t55.5 5t42 12.5t42.5 24.5l41 -33l-22 -114q-6 -41 -10.5 -68t-15.5 -46.5t-33.5 -33.5t-65.5 -33q-14 -82 -17.5 -158.5t5 -157.5t24.5 -170t41 -196q6 -25 -2 -51t-24.5 -52t-38 -49.5t-39.5 -41.5q-14 -14 -32 -19.5t-26 41.5q-16 109 -25.5 201 t-9.5 176t9.5 164t29.5 166l31 133h-1348q-61 0 -97 13.5t-53 38t-19.5 59t8.5 77.5q12 55 19 95.5t22 81.5q2 14 10 26t17.5 17.5t17.5 2.5t12 -20q4 -45 24.5 -68.5t67.5 -23.5h1274z" />
<glyph unicode="&#xfb23;" horiz-adv-x="1998" d="M279 317q2 -47 7 -78.5t0 -62.5t-27.5 -67.5t-74.5 -92.5q-29 -31 -51 -25.5t-14 40.5q6 29 6 41v34v230q0 39 2 69.5t10 58.5t24.5 55.5t45.5 62.5l49 59q10 12 22.5 2t6.5 -27q-14 -35 -22.5 -66.5t-6.5 -41.5zM260 1167q16 -2 105.5 -4t214.5 -4t271 -2t277.5 -1 t232.5 -2t136 -1q74 0 124 1t91 6t79 12.5t85 17.5l16 -78q8 -51 9.5 -86t-10 -61.5t-35 -48t-62.5 -42.5l80 -468q10 -57 17 -93.5t8.5 -66t-8 -62t-33.5 -84.5q-8 -18 -31 -50t-46.5 -53.5t-41 -16t-15.5 60.5q2 29 3.5 69t1.5 95l8 667q-31 -4 -109 -7t-184.5 -5 t-234.5 -3t-257 -1t-253 1t-222 3t-162.5 4t-78.5 4q-53 8 -90 18.5t-57.5 32t-25 60.5t6.5 104q4 27 9 44.5t9 30.5t10 26.5t13 34.5q2 14 10 26t17 17.5t17.5 2.5t12.5 -20q4 -45 24.5 -57.5t67.5 -20.5z" />
<glyph unicode="&#xfb24;" horiz-adv-x="1890" d="M1393 1155q102 0 174.5 -18.5t122 -71.5t76 -152.5t36.5 -261.5q4 -76 2 -149.5t-14 -146t-36.5 -143.5t-65.5 -140q-23 -35 -57 -57.5t-81 -18.5q-59 4 -178 5t-268.5 0t-312 -4t-309 -9t-261.5 -13.5t-166 -15.5q-31 -4 -33 17.5t15 37.5q18 18 30.5 35t20.5 39.5 t13 55t5 83.5q0 23 30 30t77 11q39 4 143.5 6t244.5 2t298 -2t303.5 -3t261 -2t170.5 -1q37 0 55.5 31t25.5 77t6 102.5t-1 109.5q0 74 -19.5 124t-54 80.5t-87 44t-115.5 15.5l-1211 2q-100 4 -124.5 56.5t-2.5 150.5q4 20 9.5 36.5t10.5 32t11 34t17 42.5q8 27 18 43 t23.5 20.5t17.5 -16.5q4 -66 28.5 -82t88.5 -16h1063z" />
<glyph unicode="&#xfb25;" horiz-adv-x="1890" d="M1231 279q145 -14 237.5 15.5t144.5 83.5t71.5 123.5t21.5 133.5q4 123 -45 171t-150 48h-1329q-43 0 -67.5 12.5t-36.5 36t-14.5 58t-0.5 81.5l5 232q2 57 18 99t23 73q4 23 8 47.5t-23 36.5l-90 43q-31 14 -42 38.5t-12 51.5t3 48.5t8 31.5q14 41 29.5 62.5t50.5 58.5 q18 20 31 30q4 4 10 1t6 -9t-1 -25.5t9 -27.5l137 -86q53 -33 47 -85t-61 -138q-18 -27 -29.5 -41.5t-18.5 -29.5t-11 -36.5t-4 -60.5l4 -88q0 -16 2 -37t9 -37t19.5 -27.5t28.5 -11.5h1249q94 -2 157 -21.5t100.5 -70.5t53 -142.5t15.5 -234.5q0 -188 -26.5 -319 t-101.5 -217.5t-207 -129.5t-343 -53q-25 -2 -27 15.5t9 33.5q18 29 31.5 45.5t21.5 36t12 49t4 89.5q0 23 20.5 34t43.5 9z" />
<glyph unicode="&#xfb26;" horiz-adv-x="2009" d="M1882 1151l16 -80q8 -51 6.5 -85t-13 -57.5t-30 -37.5t-40.5 -25l73 -467q6 -45 10.5 -75.5t3.5 -60.5t-11.5 -63.5t-32.5 -84.5q-35 -78 -66 -98.5t-63 -16.5q-41 4 -124 7t-191.5 4t-233.5 1h-254t-252 -1t-226.5 -3t-178 -3t-105.5 -3t-39 11.5t-6 30.5t8 34.5t6 27.5 v435q0 39 1 74.5t8.5 69.5t22.5 66.5t44 67.5l33 41q-113 16 -149 60.5t-17 154.5q4 27 9 45.5t9 33.5t10.5 29.5t12.5 35.5q2 14 10 26t17.5 17.5t17.5 2.5t12 -20q4 -45 24.5 -66.5t67.5 -21.5zM285 854q-14 -35 -20.5 -60.5t-2.5 -64.5l35 -453q33 4 141.5 7.5t255 4.5 t314.5 2t320.5 1t272 -2t171.5 -6l-9 573z" />
<glyph unicode="&#xfb27;" horiz-adv-x="1808" d="M1499 1153q70 0 111 -21.5t58.5 -65.5t15 -111.5t-18.5 -157.5l64 -391q8 -57 16 -93.5t9 -66t-8 -62t-34 -84.5q-8 -18 -31.5 -50t-47 -53.5t-41 -16t-13.5 60.5q2 29 2 69t2 95l21 547q2 39 -4.5 59t-21.5 29.5t-42 10.5t-66 1l-1247 -2q-61 0 -98 12t-53.5 37 t-18.5 60.5t8 82.5q10 55 18.5 95.5t22.5 81.5q2 14 10.5 26t17.5 17.5t17.5 2.5t12.5 -20q6 -92 96 -92h1243z" />
<glyph unicode="&#xfb28;" horiz-adv-x="2045" d="M1667 1153q82 0 134 -14.5t81 -54.5t37 -112.5t2 -187.5q16 -129 38.5 -251.5t39.5 -251.5q6 -49 6 -84q0 -53 -27.5 -98.5t-68.5 -86.5q-35 -35 -47 -35q-23 0 -19 64q2 29 3 69t1 95l13 596q0 23 -12.5 34t-30 15t-36 4h-30.5l-1421 -4h-2q-35 -57 -39 -128t11 -141.5 t45 -135t65 -107.5q33 -41 33.5 -84t-1.5 -98q-2 -37 -3 -61.5t-9 -41t-24.5 -25t-49.5 -12.5q-31 -4 -56.5 -7t-50 -5t-51 -3t-61.5 -1q-23 0 -48.5 -3t-47 -1t-34.5 11t-9 34q2 14 8 22.5t13.5 17.5t12.5 24.5t9 44.5q4 39 12 62.5t24.5 36.5t43 19t69.5 8q23 2 25 35 t-18 82q-10 25 -15.5 66t-4.5 88t11.5 95t28.5 87l43 127q-53 14 -80.5 48t-27.5 126q0 96 26 176q8 25 19.5 44.5t25.5 19.5q10 0 15 -17q4 -47 14 -71.5t55 -28.5h1360z" />
<glyph unicode="&#xfb29;" horiz-adv-x="1183" d="M29 584v172h448v448h170v-448h449v-172h-1067z" />
<glyph unicode="&#xfb2a;" horiz-adv-x="1536" d="M674 14q23 12 37 -5t-9 -34q-57 -39 -129.5 -61.5t-152.5 -22.5q-82 0 -150.5 31t-109.5 101q-10 14 -14.5 28.5t-8.5 30.5q-37 -2 -61.5 6t-29.5 19.5t12.5 23.5t62.5 19q-4 25 -3 39t3 40q10 113 60 234t122 225.5t156 179t162 93.5q33 8 65.5 15t67.5 7q25 0 49 -5 t47 -17q68 -41 97.5 -116t21.5 -161q-6 -61 -28.5 -122.5t-61.5 -112.5q-129 -154 -291 -236t-340 -123q2 -10 2 -11t4 -5q29 -59 85 -87t118 -28q57 0 114.5 15t102.5 40zM236 219q-4 -31 0 -61q66 18 118 34.5t102 44t107.5 70.5t130.5 117q25 25 49.5 57.5t44 69.5t33 75 t17.5 72q6 72 -14.5 118t-75.5 46q-39 0 -97 -24q-27 -14 -55.5 -30.5t-60.5 -41.5q-41 -35 -90.5 -95.5t-93.5 -135t-76.5 -156.5t-38.5 -160zM1431 1405q0 -37 -24.5 -61.5t-61.5 -24.5t-61.5 24.5t-24.5 61.5q0 35 26 60.5t60 25.5q37 0 61.5 -24.5t24.5 -61.5z" />
<glyph unicode="&#xfb2b;" horiz-adv-x="1536" d="M674 14q23 12 37 -5t-9 -34q-57 -39 -129.5 -61.5t-152.5 -22.5q-82 0 -150.5 31t-109.5 101q-10 14 -14.5 28.5t-8.5 30.5q-37 -2 -61.5 6t-29.5 19.5t12.5 23.5t62.5 19q-4 25 -3 39t3 40q10 113 60 234t122 225.5t156 179t162 93.5q33 8 65.5 15t67.5 7q25 0 49 -5 t47 -17q68 -41 97.5 -116t21.5 -161q-6 -61 -28.5 -122.5t-61.5 -112.5q-129 -154 -291 -236t-340 -123q2 -10 2 -11t4 -5q29 -59 85 -87t118 -28q57 0 114.5 15t102.5 40zM236 219q-4 -31 0 -61q66 18 118 34.5t102 44t107.5 70.5t130.5 117q25 25 49.5 57.5t44 69.5t33 75 t17.5 72q6 72 -14.5 118t-75.5 46q-39 0 -97 -24q-27 -14 -55.5 -30.5t-60.5 -41.5q-41 -35 -90.5 -95.5t-93.5 -135t-76.5 -156.5t-38.5 -160zM379 1411q0 -37 -24.5 -61.5t-61.5 -24.5t-61.5 24.5t-24.5 61.5q0 35 25.5 60.5t60.5 25.5q37 0 61.5 -24.5t24.5 -61.5z" />
<glyph unicode="&#xfb2c;" horiz-adv-x="1536" d="M674 14q23 12 37 -5t-9 -34q-57 -39 -129.5 -61.5t-152.5 -22.5q-82 0 -150.5 31t-109.5 101q-10 14 -14.5 28.5t-8.5 30.5q-37 -2 -61.5 6t-29.5 19.5t12.5 23.5t62.5 19q-4 25 -3 39t3 40q10 113 60 234t122 225.5t156 179t162 93.5q33 8 65.5 15t67.5 7q25 0 49 -5 t47 -17q68 -41 97.5 -116t21.5 -161q-6 -61 -28.5 -122.5t-61.5 -112.5q-129 -154 -291 -236t-340 -123q2 -10 2 -11t4 -5q29 -59 85 -87t118 -28q57 0 114.5 15t102.5 40zM236 219q-4 -31 0 -61q66 18 118 34.5t102 44t107.5 70.5t130.5 117q25 25 49.5 57.5t44 69.5t33 75 t17.5 72q6 72 -14.5 118t-75.5 46q-39 0 -97 -24q-27 -14 -55.5 -30.5t-60.5 -41.5q-41 -35 -90.5 -95.5t-93.5 -135t-76.5 -156.5t-38.5 -160zM1114 578q0 -35 -24.5 -59.5t-59.5 -24.5t-59.5 24.5t-24.5 59.5t24.5 59.5t59.5 24.5t59.5 -24.5t24.5 -59.5zM1431 1405 q0 -37 -24.5 -61.5t-61.5 -24.5t-61.5 24.5t-24.5 61.5q0 35 26 60.5t60 25.5q37 0 61.5 -24.5t24.5 -61.5z" />
<glyph unicode="&#xfb2d;" horiz-adv-x="1536" d="M674 14q23 12 37 -5t-9 -34q-57 -39 -129.5 -61.5t-152.5 -22.5q-82 0 -150.5 31t-109.5 101q-10 14 -14.5 28.5t-8.5 30.5q-37 -2 -61.5 6t-29.5 19.5t12.5 23.5t62.5 19q-4 25 -3 39t3 40q10 113 60 234t122 225.5t156 179t162 93.5q33 8 65.5 15t67.5 7q25 0 49 -5 t47 -17q68 -41 97.5 -116t21.5 -161q-6 -61 -28.5 -122.5t-61.5 -112.5q-129 -154 -291 -236t-340 -123q2 -10 2 -11t4 -5q29 -59 85 -87t118 -28q57 0 114.5 15t102.5 40zM236 219q-4 -31 0 -61q66 18 118 34.5t102 44t107.5 70.5t130.5 117q25 25 49.5 57.5t44 69.5t33 75 t17.5 72q6 72 -14.5 118t-75.5 46q-39 0 -97 -24q-27 -14 -55.5 -30.5t-60.5 -41.5q-41 -35 -90.5 -95.5t-93.5 -135t-76.5 -156.5t-38.5 -160zM379 1411q0 -37 -24.5 -61.5t-61.5 -24.5t-61.5 24.5t-24.5 61.5q0 35 25.5 60.5t60.5 25.5q37 0 61.5 -24.5t24.5 -61.5z M1114 578q0 -35 -24.5 -59.5t-59.5 -24.5t-59.5 24.5t-24.5 59.5t24.5 59.5t59.5 24.5t59.5 -24.5t24.5 -59.5z" />
<glyph unicode="&#xfb2e;" horiz-adv-x="1206" d="M1096 543q-2 -49 -23.5 -46t-38.5 31q-4 4 -8 13q-4 4 -8 11t-8 13q-8 12 -36 29.5t-73 22t-104.5 -11t-128.5 -66.5q-53 -35 -94.5 -89.5t-67.5 -115.5q-35 -74 -30 -118t35 -64.5t75 -19.5t94 15q10 2 33.5 13.5t50.5 25t49.5 25.5t32.5 18q14 8 26.5 5t19.5 -14 t7 -26.5t-12 -29.5q-37 -43 -92.5 -78t-117 -54.5t-122.5 -21.5t-108.5 20.5t-76 72t-24.5 133.5q8 92 41 160.5t84 144.5q29 43 64.5 72.5t75.5 50t81 35t80 26.5t93.5 7t105.5 -28.5t87 -64.5t38 -96zM-31 2q23 23 53.5 75t65.5 128q27 45 50.5 97t45 102.5t41 93.5 t35.5 71q4 6 8 15.5t16.5 37t36 80t66.5 144.5q45 88 80 152.5t75 112.5t93 82t133 62q27 8 50.5 7.5t36.5 -10t12 -24t-25 -32.5l-49 -33q-84 -51 -127 -88t-71 -77t-50.5 -94t-65.5 -140q-29 -53 -55.5 -121t-52.5 -119q-6 -12 -14.5 -32.5t-18.5 -42.5 q-25 -53 -57.5 -124t-73.5 -141.5t-87 -130t-97 -92.5q-16 -10 -33 -12t-35 8q-12 6 -13 12t4 10.5t12 10.5t11 12zM419 -299v109h388v-109h-388z" />
<glyph unicode="&#xfb2f;" horiz-adv-x="1206" d="M1096 543q-2 -49 -23.5 -46t-38.5 31q-4 4 -8 13q-4 4 -8 11t-8 13q-8 12 -36 29.5t-73 22t-104.5 -11t-128.5 -66.5q-53 -35 -94.5 -89.5t-67.5 -115.5q-35 -74 -30 -118t35 -64.5t75 -19.5t94 15q10 2 33.5 13.5t50.5 25t49.5 25.5t32.5 18q14 8 26.5 5t19.5 -14 t7 -26.5t-12 -29.5q-37 -43 -92.5 -78t-117 -54.5t-122.5 -21.5t-108.5 20.5t-76 72t-24.5 133.5q8 92 41 160.5t84 144.5q29 43 64.5 72.5t75.5 50t81 35t80 26.5t93.5 7t105.5 -28.5t87 -64.5t38 -96zM-31 2q23 23 53.5 75t65.5 128q27 45 50.5 97t45 102.5t41 93.5 t35.5 71q4 6 8 15.5t16.5 37t36 80t66.5 144.5q45 88 80 152.5t75 112.5t93 82t133 62q27 8 50.5 7.5t36.5 -10t12 -24t-25 -32.5l-49 -33q-84 -51 -127 -88t-71 -77t-50.5 -94t-65.5 -140q-29 -53 -55.5 -121t-52.5 -119q-6 -12 -14.5 -32.5t-18.5 -42.5 q-25 -53 -57.5 -124t-73.5 -141.5t-87 -130t-97 -92.5q-16 -10 -33 -12t-35 8q-12 6 -13 12t4 10.5t12 10.5t11 12zM629 -299l-6 -92q0 -23 26 -62q29 -41 29 -61q0 -37 -24.5 -61.5t-61.5 -24.5q-35 0 -59.5 24.5t-24.5 61.5q0 25 27 63q29 41 28 60l-6 92h-158v109h388 v-109h-158z" />
<glyph unicode="&#xfb30;" horiz-adv-x="1206" d="M1096 543q-2 -49 -23.5 -46t-38.5 31q-4 4 -8 13q-4 4 -8 11t-8 13q-8 12 -36 29.5t-73 22t-104.5 -11t-128.5 -66.5q-53 -35 -94.5 -89.5t-67.5 -115.5q-35 -74 -30 -118t35 -64.5t75 -19.5t94 15q10 2 33.5 13.5t50.5 25t49.5 25.5t32.5 18q14 8 26.5 5t19.5 -14 t7 -26.5t-12 -29.5q-37 -43 -92.5 -78t-117 -54.5t-122.5 -21.5t-108.5 20.5t-76 72t-24.5 133.5q8 92 41 160.5t84 144.5q29 43 64.5 72.5t75.5 50t81 35t80 26.5t93.5 7t105.5 -28.5t87 -64.5t38 -96zM-31 2q23 23 53.5 75t65.5 128q27 45 50.5 97t45 102.5t41 93.5 t35.5 71q4 6 8 15.5t16.5 37t36 80t66.5 144.5q45 88 80 152.5t75 112.5t93 82t133 62q27 8 50.5 7.5t36.5 -10t12 -24t-25 -32.5l-49 -33q-84 -51 -127 -88t-71 -77t-50.5 -94t-65.5 -140q-29 -53 -55.5 -121t-52.5 -119q-6 -12 -14.5 -32.5t-18.5 -42.5 q-25 -53 -57.5 -124t-73.5 -141.5t-87 -130t-97 -92.5q-16 -10 -33 -12t-35 8q-12 6 -13 12t4 10.5t12 10.5t11 12zM719 221q0 -35 -24.5 -59.5t-59.5 -24.5t-59.5 24.5t-24.5 59.5t24.5 59.5t59.5 24.5t59.5 -24.5t24.5 -59.5z" />
<glyph unicode="&#xfb31;" horiz-adv-x="1007" d="M494 664q-106 8 -177 -11.5t-112 -39t-53.5 -26.5t-1.5 23q18 27 49.5 48.5t67.5 38t73 25.5t66 13t54 8.5t55 6.5t64.5 1t79.5 -8q31 -2 88.5 -18t115 -50t102.5 -87t51 -129q6 -86 -26 -167t-90 -143.5t-139 -100.5t-173 -38q-57 0 -103.5 9.5t-82 34t-61.5 65.5 t-44 104q-29 -23 -57.5 -64.5t-64.5 -86.5t-82 -86t-107 -62q-29 -6 -48.5 6.5t-3.5 26.5q25 16 58 52t76 85t95 108.5t118 125.5q74 35 100 -9v-2q23 -82 68 -139t137 -57q59 0 110.5 27.5t88 72.5t54 101.5t11.5 113.5q-8 70 -45 111t-89 64.5t-111.5 34t-110.5 18.5z M502 576q0 -35 -24.5 -59.5t-59.5 -24.5t-59.5 24.5t-24.5 59.5t24.5 59.5t59.5 24.5t59.5 -24.5t24.5 -59.5z" />
<glyph unicode="&#xfb32;" horiz-adv-x="718" d="M332 580q0 -35 -24.5 -59.5t-59.5 -24.5t-59.5 24.5t-24.5 59.5t24.5 59.5t59.5 24.5t59.5 -24.5t24.5 -59.5zM580 778q45 70 99 112t98 60.5t70.5 15.5t18.5 -24q0 -10 -10 -18.5t-24.5 -16.5t-32 -20.5t-31.5 -30.5q-31 -27 -54.5 -57.5t-37.5 -61t-15.5 -57.5 t15.5 -43v-4q29 -6 55.5 -11.5t52.5 -11.5q53 -6 99.5 -13t77.5 -42q14 -16 18 -25.5t2 -23.5l-2 -2q-8 -20 -18.5 -29.5t-32.5 -17.5q-35 -4 -63.5 4t-57.5 18t-61.5 22.5t-73.5 18.5q-18 4 -38 4h-38q-131 0 -223 -35.5t-154 -126.5q-18 -31 -28.5 -62.5t-14.5 -59.5 q-4 -53 21.5 -92t66.5 -65t92.5 -39t100.5 -13q86 0 165.5 21.5t165.5 64.5q27 10 47.5 -3.5t0.5 -29.5q-94 -66 -209 -100.5t-240 -34.5q-98 0 -182 42t-130 110.5t-45 155.5t70 177q55 68 111.5 108t114 62.5t112 29.5t105.5 11q-2 20 3 41t13 39t14.5 32.5t6.5 20.5z" />
<glyph unicode="&#xfb33;" horiz-adv-x="1052" d="M127 565q-16 -8 -30.5 -8t-25 6t-12.5 15.5t11 19.5q66 47 132 81t152 62q49 16 117 27.5t125 11.5q70 0 127 -19.5t95 -54t53.5 -83t2.5 -105.5q-4 -16 -24.5 -40.5t-75.5 -82.5v-30q20 -18 35.5 -35t24 -35.5t6.5 -43t-15 -58.5q-35 -92 -104.5 -143.5t-152.5 -73 t-171 -19.5t-161 18q-18 6 -10.5 21.5t26.5 17.5q43 -8 71.5 -12t54 -3t55.5 7t75 19q31 12 61.5 27.5t55 38t41 54t20.5 74.5q2 29 -11 51.5t-36 36.5q-14 -6 -33.5 -14t-32.5 -12q-45 -16 -90 -20.5t-92 -4.5q-16 0 -37.5 3t-41 11.5t-32 23.5t-10.5 38q10 41 69.5 64.5 t137.5 35.5q59 10 131 -6v4q49 35 81 77t36 83q4 45 -28.5 74.5t-114.5 35.5q-47 4 -97.5 -2t-97.5 -16q-59 -16 -131 -46t-129 -71zM498 514q0 -35 -24.5 -59.5t-59.5 -24.5t-59.5 24.5t-24.5 59.5t24.5 59.5t59.5 24.5t59.5 -24.5t24.5 -59.5z" />
<glyph unicode="&#xfb34;" horiz-adv-x="1179" d="M195 549q-29 -18 -44.5 -14t1.5 28q8 16 19 29.5t40 32.5q76 49 182.5 81.5t208.5 32.5q49 0 97.5 -10t84.5 -31q6 -4 14.5 -8t18.5 -10q25 -10 41 -26.5t29 -32.5q39 -47 49 -94.5t6 -92.5q-16 -150 -104 -259t-263 -175q-31 -8 -56 2t-11 21q68 33 125 90t94 122.5 t51.5 132t-0.5 119.5q-6 37 -29.5 65t-59.5 46t-79 27.5t-86 9.5q-72 0 -143.5 -15.5t-118.5 -39.5q-23 -10 -35 -15.5t-32 -15.5zM313 391q45 -12 59.5 -43t6.5 -69.5t-35 -82.5t-64.5 -83t-83.5 -69t-92 -42q-27 -8 -39 6.5t-2 30.5q45 45 86 96t62.5 94t18.5 72t-42 29 q-18 0 -27 9t0 21.5t44.5 21.5t107.5 9zM672 535q0 -35 -24.5 -59.5t-59.5 -24.5t-59.5 24.5t-24.5 59.5t24.5 59.5t59.5 24.5t59.5 -24.5t24.5 -59.5z" />
<glyph unicode="&#xfb35;" horiz-adv-x="657" d="M346 752q10 18 24.5 25t29 6t22.5 -11t6 -29q-16 -129 -46 -229t-79 -190.5t-120.5 -178.5t-172.5 -190q-12 -12 -24.5 -12t-21.5 7t-10 18.5t11 23.5q59 98 93 156.5t55.5 97.5t36 72.5t37 85t58 132.5t101.5 216zM244 553q0 -35 -24.5 -59.5t-59.5 -24.5t-59.5 24.5 t-24.5 59.5t24.5 59.5t59.5 24.5t59.5 -24.5t24.5 -59.5z" />
<glyph unicode="&#xfb36;" horiz-adv-x="686" d="M686 846q12 2 37 2t46.5 -2t34.5 -5t3 -10q-43 -27 -83 -44t-78 -38.5t-73.5 -54t-68.5 -88.5q-23 -39 -22 -71.5t17.5 -61.5t42 -53.5t52.5 -44.5q25 -18 49.5 -39t45 -43.5t31.5 -46t9 -49.5q-2 -16 -8 -37t-23 -49q-23 -39 -65.5 -69t-98 -49.5t-120 -29.5t-127.5 -10 q-29 0 -84.5 2t-111.5 14.5t-98 42t-42 84.5q0 12 14.5 29.5t31.5 26t32.5 1t17.5 -43.5q31 -31 84 -46q45 -12 118 -13t181 30q6 2 29.5 11t48 24.5t42 37t11.5 46.5q-10 35 -34.5 57.5t-55.5 42.5q-41 29 -80 59.5t-49 59.5q-29 86 -8.5 155.5t72 124t125 91.5t155.5 57z M94 621q0 -35 -24.5 -59.5t-59.5 -24.5t-59.5 24.5t-24.5 59.5t24.5 59.5t59.5 24.5t59.5 -24.5t24.5 -59.5z" />
<glyph unicode="&#xfb38;" horiz-adv-x="1239" d="M764 356q-10 23 17.5 31t56.5 -8q39 -39 40 -83t-24 -87t-70 -84t-100 -71.5t-113.5 -49t-109.5 -18.5q-86 0 -160 13t-126 50t-76.5 101.5t-12.5 166.5q2 76 53 203q33 94 105.5 197.5t169 200t208 177.5t221 133t208 66.5t170.5 -24.5q16 -10 18 -23.5t-20 -17.5 q-66 -2 -148 -22.5t-172 -61.5t-182 -101.5t-176 -142.5t-154 -186.5t-117 -231.5q-18 -51 -28.5 -96t-14.5 -86q-4 -55 9.5 -92t39 -57.5t61.5 -28.5t77 -8q55 0 121.5 11t122 39t88 73.5t18.5 117.5zM817 576q0 -35 -24.5 -59.5t-59.5 -24.5t-59.5 24.5t-24.5 59.5 t24.5 59.5t59.5 24.5t59.5 -24.5t24.5 -59.5z" />
<glyph unicode="&#xfb39;" horiz-adv-x="630" d="M328 754q0 14 7 23t19.5 12.5t26.5 -3t27 -20.5v-4q12 -8 14 -29.5t0 -34.5v-2q2 -49 -17.5 -98t-53.5 -94t-78 -82t-89 -64v-2q-29 -20 -53.5 -7t-9.5 38v4zM209 615q0 -35 -24.5 -59.5t-59.5 -24.5t-59.5 24.5t-24.5 59.5t24.5 59.5t59.5 24.5t59.5 -24.5t24.5 -59.5z " />
<glyph unicode="&#xfb3a;" horiz-adv-x="1091" d="M223 627q-27 -8 -46 3t-5 23q66 35 137.5 52.5t143.5 13.5q63 -2 130.5 -29.5t123 -73t90 -104.5t28.5 -123q-2 -20 -11 -46t-26 -54q-29 -41 -64.5 -71t-77.5 -51.5t-87 -36.5t-90 -28q-63 -16 -138 -44.5t-145 -88.5q-76 -68 -136 -152.5t-110.5 -181t-96.5 -201 t-96 -212t-108.5 -216t-132.5 -210.5q-6 -16 -14 -20.5t-18 -2.5t-23 8q-14 0 -17 18.5t3 29.5q37 63 60.5 109t44 89t41 92.5t55.5 118.5q45 96 76.5 169t56 132.5t47 110.5t47 102t57.5 107.5t78 128.5q66 68 145.5 121t178.5 79q16 6 34.5 9.5t40.5 7.5q35 6 73 13 t74 21.5t65.5 37t47.5 57.5q14 31 19 74q4 49 -16.5 92t-55.5 76.5t-79 56t-87 31.5q-18 2 -41.5 1t-49 -4.5t-49.5 -8.5t-38 -13q-8 -4 -17 -7t-22 -7v2zM498 465q0 -35 -24.5 -59.5t-59.5 -24.5t-59.5 24.5t-24.5 59.5t24.5 59.5t59.5 24.5t59.5 -24.5t24.5 -59.5z" />
<glyph unicode="&#xfb3b;" horiz-adv-x="1071" d="M766 346q6 170 -138.5 236.5t-437.5 3.5q-14 10 -7 23.5t22 23.5q16 12 43 26q88 51 209 48.5t229.5 -49t180 -128t61.5 -190.5v-2q-6 -74 -51.5 -133.5t-111 -102.5t-143 -69.5t-149.5 -34.5q-41 -4 -104.5 0t-129 15.5t-124 27.5t-93 34.5t-34.5 38t53 36.5 q137 -53 268 -60.5t232.5 22t163 90t61.5 144.5zM549 551q0 -35 -24.5 -59.5t-59.5 -24.5t-59.5 24.5t-24.5 59.5t24.5 59.5t59.5 24.5t59.5 -24.5t24.5 -59.5z" />
<glyph unicode="&#xfb3c;" horiz-adv-x="1071" d="M500 887q29 55 70.5 137t95 172t115 183.5t131 173t143 138t149.5 81.5q25 4 40.5 5t26.5 0t22.5 -5.5t29.5 -10.5q18 -8 13 -26.5t-29 -14.5q-4 0 -9.5 3t-7.5 -1q-29 0 -61 -12q-29 -10 -64 -33.5t-71 -64.5q-68 -76 -134.5 -175.5t-130 -210t-123 -225t-110.5 -219.5 q-41 -78 -76 -150.5t-69 -150.5q-29 -61 -68 -144t-88 -161q-12 -35 -40 -71.5t-59.5 -70.5t-61.5 -58.5t-46 -34.5q-43 -23 -74.5 -15t-48 29.5t-18.5 47.5t14 38q2 14 18.5 32.5t38 37t42 32t28.5 19.5q72 45 121 106.5t70 128.5zM47 14q-4 -2 -10 -8v-2zM535 615 q0 -35 -24.5 -59.5t-59.5 -24.5t-59.5 24.5t-24.5 59.5t24.5 59.5t59.5 24.5t59.5 -24.5t24.5 -59.5z" />
<glyph unicode="&#xfb3e;" horiz-adv-x="1286" d="M1194 1026q-121 -104 -209 -220t-156.5 -238t-124 -250t-108.5 -259q-10 -23 -37 -31t-55 -8q-78 0 -72 68l2 26q2 27 4 69t4 94.5t2 102.5t-2 93t-6 70q-8 39 -34.5 22.5t-61.5 -65.5t-75 -121t-75.5 -141.5t-64.5 -127t-39 -79.5q-18 -37 -30.5 -56.5t-24 -34 t-23.5 -28.5t-33 -37q-18 -18 -38.5 -24.5t-35 -3.5t-19.5 16.5t12 32.5q18 33 24 40t11 15t15.5 27.5t37.5 74.5q16 33 41.5 90.5t56.5 126t65.5 141t71.5 137t75 114t73 69.5q18 6 28 9t17.5 3t13.5 -1l18 -3q49 -31 67.5 -106.5t20.5 -157.5t-4 -148.5t-8 -78.5 q63 92 123.5 205.5t129.5 226.5t151 211t192 158q31 8 55.5 3t26.5 -20zM797 584q0 -35 -24.5 -59.5t-59.5 -24.5t-59.5 24.5t-24.5 59.5t24.5 59.5t59.5 24.5t59.5 -24.5t24.5 -59.5z" />
<glyph unicode="&#xfb40;" horiz-adv-x="690" d="M569 774q31 4 34 -7t-8 -28.5t-29.5 -38t-28.5 -36.5q-12 -23 -24.5 -48.5t-30 -65.5t-40 -96.5t-53.5 -138.5q-25 -61 -52.5 -131.5t-61 -140.5t-71.5 -134.5t-81 -113.5q-39 -45 -95.5 -79.5t-118 -51t-122.5 -12.5t-111 39q-37 25 -48 50.5t-10 44.5t11.5 28.5 t18.5 1.5q20 -16 41.5 -29.5t47 -24t59.5 -14.5t79 2q45 4 86 43t96.5 133t134 255t197.5 407q12 25 29.5 58.5t40 63t50 49t60.5 15.5zM301 584q0 -35 -24.5 -59.5t-59.5 -24.5t-59.5 24.5t-24.5 59.5t24.5 59.5t59.5 24.5t59.5 -24.5t24.5 -59.5z" />
<glyph unicode="&#xfb41;" horiz-adv-x="1171" d="M117 401q14 35 52 73t75 71q-2 6 11 32.5t49 60.5t97.5 65.5t155.5 46.5q76 12 144.5 -20t117.5 -90t74 -137t12 -161q-4 -37 -18.5 -79t-42.5 -85q-31 -53 -80 -93t-109.5 -67.5t-128 -41t-133.5 -13.5q-72 0 -137.5 17.5t-112.5 52.5t-71.5 88t-14.5 125 q4 29 15.5 60.5t25.5 64.5q6 8 9.5 14t9.5 14v2zM293 403q-14 -29 -39 -33.5t-37 11.5q-27 -43 -33 -98q-10 -61 19 -111q33 -41 87 -67.5t111 -26.5q45 0 91.5 10t89.5 29.5t78.5 49.5t58.5 69q27 55 37 118q8 61 -8.5 115.5t-49 94.5t-78 62.5t-96.5 22.5 q-27 0 -55.5 -16.5t-55 -38t-50 -46t-39.5 -38.5q-4 -12 -7.5 -24.5t-5.5 -24.5v-2q-4 -10 -9 -25.5t-9 -32.5v2zM696 584q0 -35 -24.5 -59.5t-59.5 -24.5t-59.5 24.5t-24.5 59.5t24.5 59.5t59.5 24.5t59.5 -24.5t24.5 -59.5z" />
<glyph unicode="&#xfb43;" horiz-adv-x="1089" d="M424 287q12 23 22.5 47t24.5 53q-35 -20 -89 -71.5t-102.5 -114t-73 -124t0.5 -100.5q70 61 124 142.5t93 167.5zM502 459q135 256 229 432t155.5 291.5t95.5 180t51.5 96.5t21.5 41t8 13q14 33 43 82.5t60.5 106.5t62.5 116.5t48 114t18 98.5t-23 70q-29 29 -72 22 t-93 -38t-103.5 -79t-99.5 -100.5t-82 -104.5t-52 -89q-45 -61 -81 -134t-50 -144.5t-1 -141t69 -125.5q16 -4 23 -16t6 -24.5t-11 -23.5t-31 -13q-37 -4 -79 -22.5t-79.5 -49.5t-65.5 -73t-34 -93q-4 -41 4.5 -76t34.5 -69q16 -12 18.5 -25.5t-5 -23t-22.5 -12.5t-34 7 q-55 25 -77.5 71t-20.5 101.5t25.5 112.5t61.5 106.5t87 82t102 40.5q-49 82 -61 160t-3 144.5t29.5 120t36.5 85.5q39 70 88.5 145.5t106.5 146.5t120.5 132.5t130 101.5t133 53t132.5 -9q12 -4 27.5 -14.5t31 -30t26.5 -48t15 -67.5q4 -68 -30.5 -164t-99 -225 t-152.5 -293t-191 -367q-39 -78 -87 -176t-100 -202.5t-108.5 -208t-111 -194.5t-107.5 -162.5t-100 -110.5l-12 -11q-35 -33 -67 -46t-79 -13q-49 2 -64.5 32.5t-13.5 67.5q4 31 11.5 61.5t15.5 51.5q25 55 65.5 101t90 87t106 76t113.5 68zM737 639q0 -35 -24.5 -59.5 t-59.5 -24.5t-59.5 24.5t-24.5 59.5t24.5 59.5t59.5 24.5t59.5 -24.5t24.5 -59.5z" />
<glyph unicode="&#xfb44;" horiz-adv-x="1144" d="M799 848q-47 14 -103.5 12t-122.5 -12q-12 -2 -13 4t2 15.5t10.5 17.5t13.5 10q61 29 151 29t164 -33t131.5 -90.5t97 -134t60.5 -164.5q14 -74 12 -137q-6 -104 -47 -196.5t-111.5 -170.5t-168 -139.5t-213.5 -102.5q-23 -8 -78.5 -21.5t-125 -19.5t-145 5.5t-138 52.5 t-102.5 120.5t-40 212.5q0 74 34.5 156t94 153.5t137.5 123t166 63.5q76 2 125 -7t83 -27.5t57.5 -44t45.5 -56.5q23 -31 19 -84q0 -49 -32 -102.5t-83 -79.5q-37 -18 -74 -23.5t-82 8.5q2 6 12.5 16.5t26.5 12.5l35 12q25 8 41 32t24.5 52.5t6.5 59t-17 51.5 q-35 55 -72.5 64.5t-93.5 9.5q-14 0 -29.5 -2t-21.5 -5h2q-57 -14 -105 -52t-84 -90t-57.5 -114.5t-23.5 -128.5q-4 -88 35 -155.5t149 -98.5l64 -4q47 0 111.5 8.5t109.5 22.5q102 31 192.5 89.5t151.5 138t88 178t2 209.5q-20 123 -85.5 216t-186.5 140zM834 584 q0 -35 -24.5 -59.5t-59.5 -24.5t-59.5 24.5t-24.5 59.5t24.5 59.5t59.5 24.5t59.5 -24.5t24.5 -59.5z" />
<glyph unicode="&#xfb46;" horiz-adv-x="1138" d="M483 1004q-16 -14 -33.5 -18.5t-29.5 -0.5t-17.5 13.5t5.5 23.5q41 45 95 85t116.5 68.5t131 44t136.5 11.5q106 -23 154.5 -73t51.5 -115.5t-30 -137t-89 -136t-127 -113t-142 -66.5q0 2 26.5 -14.5t59 -46t61.5 -70.5t33 -88q2 -80 -37 -154t-110.5 -132t-171 -94 t-218.5 -40q-102 -4 -172 21.5t-107.5 59.5t-40.5 66.5t27 46.5q2 0 37 -22.5t92.5 -46t128 -35.5t144.5 12q59 12 125.5 42t113.5 76t63.5 112.5t-26.5 152.5q-18 37 -68.5 56.5t-86.5 15.5q-23 -4 -71 -15.5t-96.5 -15.5t-80 9.5t-19.5 60.5q25 35 79 52t110 24 q66 8 137 6q158 66 233.5 146.5t89 154.5t-24.5 131t-106.5 75.5t-161 -10t-184.5 -127.5v5zM328 555q0 -35 -24.5 -59.5t-59.5 -24.5t-59.5 24.5t-24.5 59.5t24.5 59.5t59.5 24.5t59.5 -24.5t24.5 -59.5z" />
<glyph unicode="&#xfb47;" horiz-adv-x="1212" d="M193 520q-14 -8 -30 -10t-27 1t-17 9t0 17q70 92 174 150t214.5 76.5t214 -8t169.5 -106.5q55 -68 62.5 -140.5t-19.5 -143t-79 -134t-113.5 -113.5t-126 -83t-115.5 -39q-12 -4 -28.5 -5t-29 -1t-17.5 3t5 7q29 14 88.5 60t120.5 108.5t112.5 134.5t65.5 138.5 t-19.5 118.5t-144.5 79q-133 31 -244.5 1t-215.5 -124v4zM346 403q27 12 43.5 3t5.5 -25q-37 -43 -68.5 -114.5t-69.5 -172t-88 -229.5t-126 -283q-16 -27 -44 -73t-55.5 -92t-49 -80.5t-23.5 -38.5q-18 -25 -43 -64t-52.5 -75t-55 -58.5t-52.5 -13.5q-18 12 -20 20t10 29.5 t40 63.5t71 120q16 27 28.5 52.5t22.5 43.5q35 66 65.5 146t61.5 164q37 98 79 198.5t90 191.5t104 165.5t126 124.5v-3zM684 584q0 -35 -24.5 -59.5t-59.5 -24.5t-59.5 24.5t-24.5 59.5t24.5 59.5t59.5 24.5t59.5 -24.5t24.5 -59.5z" />
<glyph unicode="&#xfb48;" horiz-adv-x="989" d="M356 662q-66 -4 -114.5 -30t-79.5 -48.5t-44.5 -32.5t-6.5 14q10 43 57 82t111.5 62.5t137 27.5t137 -19.5t110 -79.5t55.5 -155q4 -33 0 -63q-8 -90 -58.5 -166t-126 -131t-164.5 -89t-175 -42q-18 2 -27.5 15t6.5 22q6 0 41 13t83 38.5t100.5 63.5t94.5 86.5 t64.5 106.5t11.5 126q-2 43 -22.5 80t-50 62.5t-66.5 41t-74 15.5zM490 522q0 -35 -24.5 -59.5t-59.5 -24.5t-59.5 24.5t-24.5 59.5t24.5 59.5t59.5 24.5t59.5 -24.5t24.5 -59.5z" />
<glyph unicode="&#xfb49;" horiz-adv-x="1536" d="M674 14q23 12 37 -5t-9 -34q-57 -39 -129.5 -61.5t-152.5 -22.5q-82 0 -150.5 31t-109.5 101q-10 14 -14.5 28.5t-8.5 30.5q-37 -2 -61.5 6t-29.5 19.5t12.5 23.5t62.5 19q-4 25 -3 39t3 40q10 113 60 234t122 225.5t156 179t162 93.5q33 8 65.5 15t67.5 7q25 0 49 -5 t47 -17q68 -41 97.5 -116t21.5 -161q-6 -61 -28.5 -122.5t-61.5 -112.5q-129 -154 -291 -236t-340 -123q2 -10 2 -11t4 -5q29 -59 85 -87t118 -28q57 0 114.5 15t102.5 40zM236 219q-4 -31 0 -61q66 18 118 34.5t102 44t107.5 70.5t130.5 117q25 25 49.5 57.5t44 69.5t33 75 t17.5 72q6 72 -14.5 118t-75.5 46q-39 0 -97 -24q-27 -14 -55.5 -30.5t-60.5 -41.5q-41 -35 -90.5 -95.5t-93.5 -135t-76.5 -156.5t-38.5 -160zM1114 578q0 -35 -24.5 -59.5t-59.5 -24.5t-59.5 24.5t-24.5 59.5t24.5 59.5t59.5 24.5t59.5 -24.5t24.5 -59.5z" />
<glyph unicode="&#xfb4a;" horiz-adv-x="1226" d="M373 725q14 37 37.5 60.5t46 33.5t40 7t21.5 -21q-8 -23 -6 -42.5t-8 -41.5q94 45 179 42t149.5 -41t102.5 -103.5t40 -144.5t-38 -165t-132 -166q-111 -98 -275 -131q-39 -12 -47 5.5t27 33.5q59 25 114.5 65t102.5 103q74 94 89 186.5t-21.5 155t-122.5 86t-211 -19.5 q-172 -514 -376 -718t-435 -99q-29 12 -37 32.5t-6 40.5q2 23 12 49q14 -16 44 -24t62.5 -12.5t63.5 -4.5t51 3q104 10 192.5 122.5t176.5 307.5q27 66 47 112.5t37.5 89.5t36 88t43.5 111zM743 570q0 -35 -24.5 -59.5t-59.5 -24.5t-59.5 24.5t-24.5 59.5t24.5 59.5 t59.5 24.5t59.5 -24.5t24.5 -59.5z" />
<glyph unicode="&#xfb4b;" horiz-adv-x="657" d="M346 752q10 18 24.5 25t29 6t22.5 -11t6 -29q-16 -129 -46 -229t-79 -190.5t-120.5 -178.5t-172.5 -190q-12 -12 -24.5 -12t-21.5 7t-10 18.5t11 23.5q59 98 93 156.5t55.5 97.5t36 72.5t37 85t58 132.5t101.5 216zM430 1409q0 -37 -24.5 -61.5t-61.5 -24.5t-61.5 24.5 t-24.5 61.5q0 35 25.5 60.5t60.5 25.5q37 0 61.5 -24.5t24.5 -61.5z" />
<glyph unicode="&#xfb4c;" horiz-adv-x="1007" d="M719 1384h-430v111h430v-111zM494 664q51 -8 110.5 -18.5t111.5 -34t89 -64.5t45 -111q6 -57 -11.5 -113.5t-54 -101.5t-88 -72.5t-110.5 -27.5q-92 0 -137.5 57.5t-67.5 138.5v2q-27 43 -100 9q-66 -66 -118 -125.5t-95 -108.5t-76 -85t-58 -52q-16 -14 3.5 -26.5 t48.5 -6.5q61 20 107 61.5t82 86.5t64.5 87t57.5 64q18 -63 44 -104t61.5 -65.5t81.5 -34t104 -9.5q92 0 173 38t139 100.5t90 143.5t26 167q-6 76 -51 129t-102.5 87t-115 50t-88.5 18q-45 6 -79.5 7.5t-64.5 -0.5t-55.5 -6.5t-53.5 -8.5q-29 -4 -66 -13t-73 -25.5 t-67.5 -38t-49.5 -48.5q-10 -31 2 -23.5t53 27t112 39t177 11.5z" />
<glyph unicode="&#xfb4d;" horiz-adv-x="1071" d="M743 1384h-430v111h430v-111zM766 346q0 -84 -61.5 -144.5t-163 -90t-232.5 -22.5t-268 61q-53 -16 -53 -36t34.5 -38.5t93 -34.5t124 -27.5t129 -15.5t104.5 0q72 8 149.5 34.5t143 69.5t111 102.5t51.5 133.5v2q10 109 -61.5 190.5t-180 128t-229.5 49.5t-209 -49 q-27 -14 -43 -26q-14 -10 -21.5 -23.5t6.5 -23.5q293 63 437.5 -3.5t138.5 -236.5z" />
<glyph unicode="&#xfb4e;" horiz-adv-x="1144" d="M805 1384h-430v111h430v-111zM799 848q121 -47 186.5 -140.5t85.5 -215.5q25 -111 -2 -209.5t-88 -178t-151.5 -138t-192.5 -89.5q-45 -14 -109.5 -22.5t-111.5 -8.5l-64 4q-111 31 -149.5 98.5t-34.5 155.5q2 66 23.5 128.5t57.5 114.5t84 90t105 52h-2q6 2 21.5 4.5 t29.5 2.5q55 0 93 -9.5t73 -64.5q14 -20 16.5 -51t-6 -59.5t-24.5 -52t-41 -32.5l-35 -12q-16 -2 -26.5 -12t-12.5 -17q45 -14 82 -9t74 24q51 27 83 80t32 102q4 53 -19 84t-46 56.5t-57 44t-83 27.5t-125 7q-88 -12 -166 -63.5t-137.5 -123t-94 -153.5t-34.5 -156 q0 -133 40 -212.5t102.5 -120.5t138 -52.5t145 -5.5t125 19.5t78.5 21.5q117 41 214 102.5t167.5 139.5t111.5 170t47 197q2 63 -12 137q-20 88 -60 164.5t-97.5 134t-131.5 90.5t-164 33t-151 -29q-6 -2 -13.5 -10t-10.5 -17.5t-2 -15.5t13 -4q66 10 122.5 12t103.5 -12z " />
<glyph unicode="&#xfb4f;" horiz-adv-x="1159" d="M991 698q-41 27 -80 30t-72.5 -9t-59 -34.5t-38.5 -47.5l238 -207q39 -35 67.5 -62.5t40 -65.5t3 -95t-40.5 -150q-6 -16 -16.5 -32.5t-22 -27.5t-21.5 -10t-14 23q-4 35 -21.5 73t-48.5 62l-669 553l-101 88q-41 35 -59.5 81t-30.5 100q-2 6 4 65.5t16.5 136t21.5 154.5 t22 123q4 23 8 47.5t-23 36.5l-90 43q-31 14 -42 38.5t-12 51.5t3 48.5t8 31.5q14 41 29.5 62.5t50.5 58.5q18 20 31 30q4 4 10 1t6 -9t-1 -25.5t9 -27.5l137 -86q53 -33 47 -85t-61 -138q-18 -27 -29.5 -41.5t-18.5 -29.5t-11 -36.5t-4 -60.5l4 -88q2 -41 5 -66.5t14 -45 t29.5 -39t51.5 -48.5l442 -397l58 90q23 35 19.5 65.5t-19.5 46.5l-66 68q-47 49 -54 87t15 83q14 29 23.5 46.5t21 29.5t26.5 22.5t40 28.5q20 14 37.5 13t13.5 -33q-4 -25 11.5 -48.5t37.5 -40.5l144 -124q33 -25 54 -47.5t23.5 -54.5t-19.5 -80t-77 -126z" />
</font>
</defs>
</svg>
