<?xml version="1.0" standalone="no"?>
<!DOCTYPE svg PUBLIC "-//W3C//DTD SVG 1.1//EN" "http://www.w3.org/Graphics/SVG/1.1/DTD/svg11.dtd" >
<svg xmlns="http://www.w3.org/2000/svg">
<metadata>
This is a custom SVG webfont generated by Font Squirrel.
Copyright   : Copyright c 2010 by ELi Fried All rights reserved
Foundry     : ELi Fried
</metadata>
<defs>
<font id="EFTNewLetterRegular" horiz-adv-x="0" >
<font-face units-per-em="2048" ascent="1638" descent="-410" />
<missing-glyph horiz-adv-x="409" />
<glyph unicode=" "  horiz-adv-x="409" />
<glyph unicode="&#x09;" horiz-adv-x="409" />
<glyph unicode="&#xa0;" horiz-adv-x="409" />
<glyph unicode="!" horiz-adv-x="530" d="M152 0v227h227v-227h-227zM168 1012v450h194v-450l-51 -637h-92z" />
<glyph unicode="&#x22;" horiz-adv-x="712" d="M49 840q0 -8 30 95t87 316q12 45 35 45h121q31 0 30 -28q0 -12 -76 -189l-24 -57q-23 -47 -41 -88t-35 -72q-8 -16 -15 -27.5t-20 -15.5q-12 -8 -53 -8q-39 0 -39 29zM360 840l115 411q12 45 35 45h121q33 0 33 -28q0 -14 -78 -189q-4 -14 -13.5 -33.5t-19.5 -41.5 l-66 -142q-25 -51 -90 -51q-37 0 -37 29z" />
<glyph unicode="#" horiz-adv-x="1138" d="M70 422v139h219l43 307h-209v140h227l60 419h141l-59 -419h253l60 419h141l-59 -419h182v-140h-201l-43 -307h187v-139h-207l-60 -422h-141l60 422h-254l-60 -422h-141l59 422h-198zM430 561h254l43 307h-254z" />
<glyph unicode="$" horiz-adv-x="1138" d="M51 446h174q4 -137 85 -216.5t204 -100.5v543q-109 27 -187.5 58.5t-131 75.5t-77 107.5t-24.5 153.5q0 92 33 169t89 133t133 89t165 39v135h113v-137q166 -20 264 -122.5t139 -282.5h-174q-41 203 -229 237v-504l123 -32q39 -10 95 -36t107.5 -71t87 -112.5 t35.5 -161.5q0 -98 -33.5 -177t-93 -135.5t-141.5 -90.5t-180 -42v-168h-113v168q-205 20 -326 143t-137 338zM279 1085q0 -53 17 -91t49 -63.5t75 -44t94 -32.5v479q-98 -10 -166.5 -70.5t-68.5 -177.5zM627 129q115 8 189.5 68.5t74.5 193.5q0 57 -20.5 98t-55.5 70 t-84 48.5t-104 35.5v-514z" />
<glyph unicode="%" horiz-adv-x="2048" d="M188 1036q0 82 16.5 158t55.5 133t102.5 91t157.5 34t157.5 -33t101.5 -88t53.5 -130t15.5 -159q0 -80 -17.5 -154.5t-57.5 -131t-102.5 -91t-150.5 -34.5q-92 0 -155.5 31.5t-102.5 87t-56.5 129t-17.5 157.5zM342 1040q0 -45 5 -97t23.5 -96t52.5 -74t91 -30t93 29 t55.5 73t25.5 97t6 100q0 45 -5 97.5t-23.5 96.5t-53 73.5t-92.5 29.5q-57 0 -92 -29.5t-54.5 -73.5t-25.5 -97.5t-6 -98.5zM385 -45l1102 1524h174l-1100 -1524h-176zM1200 381q0 82 16.5 157.5t55.5 133t102.5 91.5t157.5 34t157.5 -33t101.5 -88t53.5 -130t15.5 -159 q0 -80 -17.5 -154.5t-57.5 -131t-102.5 -91.5t-150.5 -35q-92 0 -155.5 32t-102.5 87.5t-56.5 129t-17.5 157.5zM1354 385q0 -45 5 -97t23.5 -96.5t52 -74t91.5 -29.5q57 0 93 28.5t55.5 72.5t25.5 97.5t6 100.5q0 45 -5 97.5t-23.5 96.5t-53.5 73.5t-92 29.5t-92 -29.5 t-54.5 -73.5t-25.5 -97.5t-6 -98.5z" />
<glyph unicode="&#x26;" horiz-adv-x="1818" d="M102 4v1319h811q182 0 254 -70q74 -74 74 -254v-546h-180v546q0 150 -152 150h-622v-1145h-185zM578 4v846h184v-672h622q152 0 152 150v993h180v-993q0 -180 -74 -254q-72 -70 -253 -70h-811z" />
<glyph unicode="'" horiz-adv-x="466" d="M82 840l115 411q16 45 34 45h121q33 0 33 -28q0 -6 -76 -189q-6 -14 -15 -33.5t-20 -41.5l-65 -142q-20 -51 -92 -51q-35 0 -35 29z" />
<glyph unicode="(" horiz-adv-x="555" d="M45 553q0 242 81 487.5t241 456.5h133q-147 -233 -209 -462.5t-62 -481.5q0 -258 62.5 -490.5t208.5 -468.5h-133q-74 115 -133.5 229t-101.5 231.5t-64.5 240.5t-22.5 258z" />
<glyph unicode=")" horiz-adv-x="555" d="M45 -406q147 233 208.5 463t61.5 482q0 258 -62.5 490.5t-207.5 467.5h133q74 -115 133.5 -228.5t101.5 -231t64.5 -240.5t22.5 -258q0 -242 -81 -488t-241 -457h-133z" />
<glyph unicode="*" horiz-adv-x="720" d="M49 1214l37 99l217 -82v231h109v-231l219 82l41 -99l-223 -77l135 -187l-84 -63l-142 196l-133 -196l-92 63l133 187z" />
<glyph unicode="+" horiz-adv-x="1228" d="M98 449v139h447v448h139v-448h446v-139h-446v-449h-139v449h-447z" />
<glyph unicode="," horiz-adv-x="544" d="M86 -223l117 411q8 45 30 45h125q33 0 33 -26q0 -18 -80 -193q-8 -20 -16 -38.5t-19 -36.5l-63 -140q-25 -53 -90 -53q-37 0 -37 31z" />
<glyph unicode="-" horiz-adv-x="796" d="M102 487v164h592v-164h-592z" />
<glyph unicode="." horiz-adv-x="432" d="M86 39v115q0 43 35 43h123q35 0 35 -43v-115q0 -41 -35 -41h-123q-35 0 -35 41z" />
<glyph unicode="/" horiz-adv-x="856" d="M45 -35l606 1532h150l-606 -1532h-150z" />
<glyph unicode="0" horiz-adv-x="1138" d="M86 713q0 80 4 166t20.5 167.5t47 155.5t84 129t133.5 88t194 33q113 0 194 -33t134 -88t84 -129t47 -155.5t20.5 -167.5t4.5 -166t-4.5 -166t-20.5 -168t-47 -154.5t-84 -128t-134 -88.5t-194 -33t-193.5 33t-134 88.5t-84 128t-47 154.5t-20.5 168t-4 166zM270 715 q0 -82 5.5 -183.5t33 -190.5t89 -150.5t171.5 -61.5q111 0 172.5 61.5t89 150.5t32.5 190.5t5 183.5q0 53 -1 117.5t-10 129t-26.5 126t-51.5 107.5t-85 74.5t-125 28.5t-125 -28.5t-84.5 -74.5t-51 -107.5t-27 -126t-10.5 -129t-1 -117.5z" />
<glyph unicode="1" horiz-adv-x="1138" d="M178 1040v140q74 0 143.5 11t126 42t95.5 83t53 136h133v-1452h-174v1040h-377z" />
<glyph unicode="2" horiz-adv-x="1138" d="M49 0q10 129 46 220t91.5 158.5t124 118t146.5 97.5q92 57 161.5 105.5t115.5 97.5t69.5 106.5t23.5 132.5q0 59 -22.5 107.5t-60 83.5t-89 53t-108.5 18q-76 0 -130.5 -31.5t-89 -82.5t-50 -115.5t-13.5 -130.5h-174q-6 111 22.5 205t89 162.5t150.5 107.5t205 39 q94 0 177 -27.5t144.5 -80t97.5 -131t36 -179.5q0 -96 -30 -169.5t-79 -132t-112.5 -105.5t-131.5 -90q-68 -41 -135 -81t-123.5 -85t-96.5 -97.5t-52 -119.5h745v-154h-948z" />
<glyph unicode="3" horiz-adv-x="1138" d="M61 449h175q4 -141 81.5 -230.5t227.5 -89.5q63 0 120.5 19.5t100.5 55.5t68.5 88t25.5 118q0 68 -24.5 120t-65.5 87.5t-98.5 53t-120.5 17.5q-55 0 -105 -6v147q10 -2 20 -2h19h37q55 0 105.5 15.5t88.5 45.5t60.5 74t22.5 103q0 117 -74 175t-184 58q-72 0 -123 -25.5 t-85 -68.5t-50.5 -100t-16.5 -121h-174q4 104 34 190.5t85 147.5t138 96t192 35q94 0 175 -23.5t140 -70.5t93 -121t34 -174q0 -98 -57.5 -174t-143.5 -115v-4q133 -29 197.5 -125t64.5 -227q0 -109 -39.5 -192t-107.5 -138t-159 -84t-193 -29q-111 0 -201 32t-153.5 92.5 t-97.5 148.5t-32 201z" />
<glyph unicode="4" horiz-adv-x="1138" d="M57 340v168l662 944h139v-958h197v-154h-197v-340h-164v340h-637zM207 494h487v710h-4z" />
<glyph unicode="5" horiz-adv-x="1138" d="M72 391h174q4 -55 27.5 -103t63.5 -84t94 -55.5t120 -19.5q61 0 117.5 21.5t98.5 64.5t66.5 107.5t24.5 150.5q0 72 -23.5 132.5t-66.5 104.5t-103.5 68.5t-134.5 24.5q-86 0 -152.5 -38t-117.5 -99l-149 8l135 753h162h555v-153h-586l-78 -418l4 -4q47 53 122 78.5 t148 25.5q96 0 182.5 -30.5t150 -93t100 -155.5t36.5 -218q0 -92 -31.5 -179t-95 -155t-158.5 -109t-222 -41q-94 0 -177.5 28t-147 82t-100 131t-38.5 175z" />
<glyph unicode="6" horiz-adv-x="1138" d="M78 674q0 150 25.5 290t87 248.5t164 174t257.5 65.5q180 0 287 -95t123 -276h-174q-12 98 -75.5 157.5t-168.5 59.5q-111 0 -178.5 -54t-105 -137t-52 -179.5t-16.5 -179.5l4 -5q61 100 152.5 145.5t209.5 45.5q104 0 187.5 -36t139.5 -99.5t87 -149.5t31 -186 q0 -80 -24.5 -166t-81 -157.5t-149.5 -118t-230 -46.5q-162 0 -260.5 67t-151.5 169t-70.5 225t-17.5 238zM285 453q0 -68 20.5 -127.5t58 -102.5t94 -68.5t128.5 -25.5q70 0 125 25.5t92 70.5t56.5 102.5t19.5 123.5q0 68 -17.5 128t-54.5 104t-92.5 70.5t-128.5 26.5 q-74 0 -129.5 -25.5t-94 -69.5t-58 -104t-19.5 -128z" />
<glyph unicode="7" horiz-adv-x="1138" d="M102 1264v163h940v-149q-111 -109 -207 -258.5t-170.5 -319.5t-121.5 -350t-58 -350h-194q12 184 60 359.5t124 336t175.5 304t213.5 264.5h-762z" />
<glyph unicode="8" horiz-adv-x="1138" d="M82 418q0 129 65.5 224t188.5 138q-92 37 -147.5 120t-55.5 181q0 88 35 158t94.5 117t136 71.5t160.5 24.5q119 0 203 -31.5t136 -84t76.5 -119t24.5 -136.5q0 -98 -54 -179t-146 -122q131 -41 194.5 -134t63.5 -228q0 -104 -38 -187.5t-102.5 -139.5t-152.5 -86 t-189 -30q-104 0 -194 28t-156.5 83t-104.5 138t-38 194zM266 410q0 -131 87 -206t222 -75q66 0 120.5 21.5t94 59.5t61 89t21.5 113q0 57 -23.5 108t-64.5 88t-95 58.5t-116 21.5q-66 0 -121 -19.5t-97 -56.5t-65.5 -88t-23.5 -114zM317 1075q0 -59 20.5 -103t55.5 -73 t82 -43t100 -14q104 0 172 61.5t68 171.5q0 111 -68.5 167t-175.5 56q-53 0 -99 -14t-80 -43t-54.5 -70t-20.5 -96z" />
<glyph unicode="9" horiz-adv-x="1138" d="M70 979q0 104 34.5 191t98 149.5t151.5 97.5t193 35q100 0 191 -31.5t159 -109.5t107.5 -213t39.5 -340q0 -377 -119.5 -580t-383.5 -203q-92 0 -169 24t-134.5 71t-93 116.5t-44.5 163.5h174q10 -106 86 -163.5t181 -57.5q160 0 239.5 138.5t87.5 422.5l-4 4 q-49 -92 -139 -146t-197 -54q-111 0 -196.5 35.5t-144 99t-88 152.5t-29.5 198zM254 954q0 -59 21.5 -114.5t59.5 -98.5t90 -68.5t116 -25.5q68 0 123 25.5t94 69.5t59.5 101.5t20.5 123.5q0 68 -19.5 127t-57.5 105t-93.5 72.5t-128.5 26.5q-78 0 -132.5 -28.5t-88 -76.5 t-49 -109.5t-15.5 -129.5z" />
<glyph unicode=":" horiz-adv-x="569" d="M170 0v227h227v-227h-227zM170 831v228h227v-228h-227z" />
<glyph unicode=";" horiz-adv-x="569" d="M170 0v227h227v-207q2 -117 -52 -201.5t-173 -119.5v102q33 12 57.5 36t39 51.5t19.5 57t3 54.5h-121zM170 831v228h227v-228h-227z" />
<glyph unicode="&#x3c;" horiz-adv-x="1228" d="M94 455v127l1041 471v-140l-871 -395l871 -395v-139z" />
<glyph unicode="=" horiz-adv-x="1228" d="M98 242v139h1032v-139h-1032zM98 655v140h1032v-140h-1032z" />
<glyph unicode="&#x3e;" horiz-adv-x="1228" d="M94 -16v139l871 395l-871 395v140l1041 -471v-127z" />
<glyph unicode="?" horiz-adv-x="1138" d="M113 1006q-2 104 28.5 194t91 156.5t146.5 103.5t192 37q94 0 174 -27.5t137.5 -80t89.5 -128t32 -174.5q0 -63 -15.5 -113t-40 -91t-56.5 -76t-65 -68q-33 -31 -64.5 -62.5t-57 -67.5t-41 -79t-15.5 -94v-80h-174v97q4 86 32 146t67.5 107.5t83.5 87.5t82 84t60.5 97 t18.5 129q-8 113 -72.5 176t-175.5 63q-74 0 -127 -26.5t-89 -71.5t-52 -107.5t-16 -131.5h-174zM446 0v227h228v-227h-228z" />
<glyph unicode="@" horiz-adv-x="1529" d="M29 432q0 131 82 281q102 193 307 317q205 129 418 129q285 0 448 -166q166 -164 166 -448q0 -104 -70 -242q-72 -139 -151 -190q-63 -39 -168 -39q-145 0 -180 139q-104 -141 -242 -141q-213 0 -213 266q0 109 68 231q63 117 159 185q76 57 142 57q82 0 116 -18 q45 -20 78 -88l23 83h149l-141 -538q-2 -10 -2 -19.5t-2 -17.5q0 -66 88 -66q94 0 172 111q111 160 110 299q0 233 -145 385q-143 150 -383 150q-186 0 -350 -109t-246 -274q-68 -141 -67 -336q0 -184 90 -324q94 -147 260 -211q98 -37 188 -37q156 0 246 19q127 25 225 94 l31 -47q-186 -137 -485 -137q-250 0 -471 184q-250 209 -250 518zM584 311q0 -168 96 -168q80 0 147 82q55 72 80 158q45 160 45 211q0 53 -20 92q-27 51 -72 51q-86 0 -180 -123q-96 -127 -96 -303z" />
<glyph unicode="A" horiz-adv-x="1394" d="M37 0v49h184l463 1290h37l463 -1290h186v-49h-637v49h213l-129 357h-411l-127 -357h245v-49h-487zM424 455h375l-189 518z" />
<glyph unicode="B" horiz-adv-x="1261" d="M51 0v49h182v1223h-182v49h625q164 0 291 -72q150 -82 149 -239q0 -225 -285 -293q133 -31 232 -121q100 -100 100 -236q0 -186 -149 -280q-123 -80 -322 -80h-641zM457 49h219q141 0 200.5 72t59.5 215v47q0 305 -260 305h-219v-639zM457 737h219q121 0 174 68 q45 57 45 188v33q0 246 -219 246h-219v-535z" />
<glyph unicode="C" horiz-adv-x="1292" d="M72 662q0 272 192 477q193 205 465 204q195 0 332 -100l76 72q20 18 34 18q25 0 25 -39v-315q0 -33 -18 -33q-14 0 -21 17l-4 10q-127 317 -424 317q-379 0 -379 -524v-217q0 -532 369 -533q285 0 457 369q12 27 28 27q20 0 21 -29v-375q0 -23 -23 -22q-12 0 -24 12 l-107 106q-145 -141 -352 -141q-264 0 -459 219q-188 214 -188 480z" />
<glyph unicode="D" horiz-adv-x="1396" d="M57 0v49h187v1223h-187v49h633q293 0 479 -174q190 -182 191 -471q0 -303 -182 -492q-182 -184 -488 -184h-633zM467 49h219q422 0 422 578v98q0 240 -90 379q-106 168 -332 168h-219v-1223z" />
<glyph unicode="E" horiz-adv-x="1210" d="M59 1272v49h953q63 0 63 -55v-295q0 -35 -24 -35q-25 0 -27 37q-6 111 -57 192q-63 106 -191 107h-311v-551h158q78 0 110 51q8 12 18.5 42t20.5 77q10 35 25 35q23 0 22 -33v-393q0 -35 -22 -35q-14 0 -37 72q-8 23 -14.5 45t-14.5 45q-31 45 -108 45h-158v-623h330 q133 0 196 88q47 70 84 234q10 47 33 47q25 0 25 -56v-290q0 -72 -70 -72h-1000v49h179v1223h-183z" />
<glyph unicode="F" horiz-adv-x="1155" d="M70 1272v49h952q61 0 61 -55v-295q0 -35 -24 -35q-25 0 -27 37q-6 111 -57 192q-63 106 -191 107h-311v-551h158q78 0 110 51q8 12 18.5 42t20.5 77q10 35 25 35q23 0 22 -33v-393q0 -35 -22 -35q-14 0 -37 72q-8 23 -14 45t-15 45q-31 45 -108 45h-158v-623h182v-49 h-581v49h176v1223h-180z" />
<glyph unicode="G" horiz-adv-x="1411" d="M68 653q0 276 190 484q190 207 465 206q205 0 336 -106l84 78q20 18 37 18q27 0 26 -30v-367q0 -27 -22 -27q-20 0 -29 25q-123 356 -432 356q-207 0 -301 -162q-78 -133 -78 -352v-237q0 -223 76 -355q94 -168 301 -168q266 0 266 254v174h-227v50h645v-50h-182v-57 q0 -213 -152 -324q-131 -100 -354 -100q-266 0 -461 213q-188 207 -188 477z" />
<glyph unicode="H" horiz-adv-x="1445" d="M59 0v49h183v1223h-183v49h588v-49h-182v-545h541v545h-183v49h586v-49h-180v-1223h180v-49h-586v49h183v627h-541v-627h182v-49h-588z" />
<glyph unicode="I" horiz-adv-x="749" d="M82 0v49h180v1223h-180v49h586v-49h-183v-1223h183v-49h-586z" />
<glyph unicode="J" horiz-adv-x="780" d="M16 -16q0 111 105 110q43 0 70.5 -26.5t27.5 -69.5q0 -94 -88 -107q43 -37 113 -36q84 0 112 53q23 41 23 133v1231h-195v49h576v-49h-158v-1157q0 -313 -344 -314q-80 0 -158 47q-84 56 -84 136z" />
<glyph unicode="K" horiz-adv-x="1417" d="M63 0v49h168v1223h-168v49h560v-49h-168v-1223h168v-49h-560zM449 723l595 549h-167v49h434v-49h-185l-485 -447l590 -776h172v-49h-615v49h175z" />
<glyph unicode="L" horiz-adv-x="1263" d="M53 0v49h183v1223h-183v49h606v-49h-200v-1223h424q131 0 194 88q47 70 84 234q10 47 33 47q27 0 27 -56v-290q0 -72 -72 -72h-1096z" />
<glyph unicode="M" horiz-adv-x="1681" d="M63 0v49h168v1223h-168v49h406l381 -979l369 979h405v-49h-168v-1223h168v-49h-559v49h168v1157l-455 -1206h-41l-454 1198v-1149h170v-49h-390z" />
<glyph unicode="N" horiz-adv-x="1386" d="M47 0v49h182v1223h-182v49h430l641 -963v914h-182v49h416v-49h-183v-1288h-86l-802 1210v-1145h182v-49h-416z" />
<glyph unicode="O" horiz-adv-x="1458" d="M76 655q0 274 194 482q195 207 467 206q272 0 467 -206q197 -207 197 -482q0 -274 -197 -483q-195 -209 -467 -209q-268 0 -469 213q-192 205 -192 479zM352 557q0 -541 385 -541q387 0 387 541v195q0 252 -67 374q-92 164 -320 164q-223 0 -315 -166q-70 -125 -70 -372 v-195z" />
<glyph unicode="P" horiz-adv-x="1142" d="M51 0v49h182v1223h-182v49h594q186 0 309 -86q139 -96 140 -274q0 -172 -131 -273q-119 -88 -297 -88h-209v-551h180v-49h-586zM457 649h209q221 0 221 277v69q0 276 -242 277h-188v-623z" />
<glyph unicode="Q" horiz-adv-x="1435" d="M76 653q0 274 194 482q193 209 467 208q272 0 467 -208q197 -207 197 -482q0 -238 -150 -430q-150 -197 -372 -248v-34q0 -344 327 -344q29 0 29 -23q0 -20 -29 -20q-293 0 -418 61q-164 80 -186 317l-4 43q-225 53 -375 248q-147 197 -147 430zM352 555q0 -543 385 -543 q387 0 387 543v195q0 250 -67 376q-90 164 -320 164q-223 0 -315 -168q-70 -125 -70 -372v-195z" />
<glyph unicode="R" horiz-adv-x="1325" d="M57 0v49h183v1223h-183v49h605q176 0 301 -76q150 -88 149 -254q0 -244 -307 -311q197 -53 258 -166q41 -78 47 -291q4 -102 12 -127q14 -43 76 -43q51 0 90 27q16 4 19 4q14 0 14 -14q0 -33 -98 -64q-78 -23 -142 -22q-104 0 -153 55t-60 160q-2 29 -5 80t-9 122 q-29 264 -225 265h-166v-617h182v-49h-588zM463 715h199q231 0 231 241v70q0 246 -231 246h-199v-557z" />
<glyph unicode="S" horiz-adv-x="1142" d="M109 8v348q0 35 24 35q23 0 33 -31q39 -152 160 -247q121 -96 274 -97q131 0 234 78q104 86 104 217q0 137 -117 191q-43 18 -89 34.5t-95 30.5q-154 45 -209 62q-289 88 -289 327q0 180 137 287q125 100 310 100q152 0 303 -77l55 65q14 20 31 21q23 0 22 -29v-346 q0 -29 -24 -29q-27 0 -29 27q-20 147 -114.5 231t-243.5 84q-119 0 -203 -53q-98 -66 -98 -176q0 -129 127 -176q27 -10 119 -36t257 -71q285 -76 285 -358q0 -199 -141 -328t-344 -129q-188 0 -346 127l-70 -92q-18 -25 -35 -25q-28 0 -28 35z" />
<glyph unicode="T" horiz-adv-x="1306" d="M55 932l33 348q4 41 51 41h1041q47 0 51 -41l33 -348h-64q-20 129 -74 219q-74 121 -184 121h-172v-1223h182v-49h-585v49h180v1223h-172q-111 0 -185 -121q-53 -90 -73 -219h-62z" />
<glyph unicode="U" horiz-adv-x="1345" d="M37 1272v49h586v-49h-181v-940q0 -150 81 -233t229 -83q147 0 239 84t92 232v940h-182v49h416v-49h-180v-940q0 -188 -127 -285q-115 -84 -308 -84q-205 0 -329 82q-154 94 -154 287v940h-182z" />
<glyph unicode="V" horiz-adv-x="1333" d="M14 1272v49h588v-49h-186l358 -967l338 967h-178v49h395v-49h-153l-453 -1292h-49l-475 1292h-185z" />
<glyph unicode="W" horiz-adv-x="1896" d="M47 1272v49h1346v-49h-131l-172 -449l200 -534l377 983h-176v49h383v-49h-148l-493 -1292h-41l-229 587l-224 -587h-41l-491 1292h-160zM426 1272l373 -979l135 352l-236 627h-272zM918 1272l143 -373l143 373h-286z" />
<glyph unicode="X" horiz-adv-x="1445" d="M45 0v49h188l398 584l-395 639h-187v49h625v-49h-185l279 -451l303 451h-197v49h461v-49h-192l-340 -504l442 -719h166v-49h-584v49h164l-327 531l-361 -531h203v-49h-461z" />
<glyph unicode="Y" horiz-adv-x="1396" d="M57 1272v49h609v-49h-187l336 -520l311 520h-196v49h448v-49h-174l-344 -576v-647h201v-49h-627v49h203v598l-406 625h-174z" />
<glyph unicode="Z" horiz-adv-x="1073" d="M63 0v61l721 1211h-391q-262 0 -272 -305h-47v354h940v-57l-729 -1215h387q162 0 235 101q61 86 70 258h51v-408h-965z" />
<glyph unicode="[" horiz-adv-x="593" d="M45 -156v1772l49 57h381l64 -80l-19 -24h-299v-1678h254l62 -88l-17 -18h-424z" />
<glyph unicode="\" horiz-adv-x="460" d="M45 1335h143l218 -1351h-142z" />
<glyph unicode="]" horiz-adv-x="593" d="M45 1593l64 80h380l50 -57v-1772l-52 -59h-424l-16 18l62 84h253v1682h-299z" />
<glyph unicode="^" horiz-adv-x="919" d="M29 502l331 686h125l332 -686h-127l-268 553l-268 -553h-125z" />
<glyph unicode="_" horiz-adv-x="827" d="M0 -127h827v-131h-827v131z" />
<glyph unicode="a" horiz-adv-x="933" d="M86 154q0 150 168 223q127 55 295 57v219q0 102 -131 103q-125 0 -125 -35l6 -6q4 -4 12 -10q29 -29 29 -62q0 -76 -88 -76q-86 0 -86 80q0 84 117 125q74 27 184 27q283 0 283 -183v-464q0 -111 49 -111q55 0 90 68q8 20 22 20q16 0 17 -18q0 -63 -76 -103 q-66 -35 -129 -35q-133 0 -162 97q-90 -96 -237 -97q-238 1 -238 181zM270 203q0 -162 125 -162q37 0 94 33q59 35 60 65v258q-66 -4 -113 -14t-76 -25q-90 -46 -90 -155z" />
<glyph unicode="b" horiz-adv-x="1093" d="M57 0v49h162v1223h-162v49h361v-612q86 96 221 96q158 0 281 -127q125 -125 124 -285q0 -156 -120 -289q-121 -129 -279 -129q-133 0 -227 107v-82h-361zM418 170q86 -145 221 -145q168 0 168 325v88q0 137 -23 209q-41 109 -153 109q-127 0 -213 -135v-451z" />
<glyph unicode="c" horiz-adv-x="864" d="M59 383q0 176 134 297q131 119 313 119q96 0 180 -39q109 -47 109 -129q0 -90 -103 -90q-100 0 -100 86q0 33 18.5 62.5t18.5 31.5q0 12 -58 20q-23 4 -41 6.5t-28 2.5q-129 0 -174 -105q-29 -74 -29 -219v-84q0 -164 25 -221q43 -100 178 -101q98 0 177 51.5t109 143.5 q8 25 29 25q25 0 25 -25q0 -6 -2 -10l-2 -8q-18 -76 -101 -144q-96 -80 -241 -80q-178 0 -303 117q-134 121 -134 293z" />
<glyph unicode="d" horiz-adv-x="1093" d="M66 391q0 160 124 285q125 129 281 129q139 0 219 -88v555h-160v49h361v-1272h160v-49h-361v84q-96 -111 -225 -111q-152 0 -277 131q-122 131 -122 287zM303 344q0 -135 23 -207q37 -115 147 -114q121 0 217 145v448q-86 139 -211 140q-113 0 -153 -109 q-23 -68 -23 -207v-96z" />
<glyph unicode="e" horiz-adv-x="915" d="M57 379q0 164 121 291q123 129 285 129q180 0 289 -129q86 -104 86 -198q0 -29 -43 -30h-498v-188q0 -233 178 -234q223 0 324 218q12 25 28 24q20 0 21 -22q0 -16 -6 -31q-94 -236 -371 -236q-174 0 -293 119q-121 121 -121 287zM297 492h303q20 0 21 79q0 178 -156 179 q-168 0 -168 -191v-67z" />
<glyph unicode="f" horiz-adv-x="720" d="M41 0v49h158v680h-156v49h156v74q0 221 43 313q80 170 254 170q72 0 129 -32q72 -41 71 -105q0 -78 -75 -78q-82 0 -82 74q0 47 47 70q0 23 -86 22q-100 0 -101 -137v-371h170v-49h-170v-680h158v-49h-516z" />
<glyph unicode="g" horiz-adv-x="899" d="M63 -295q0 141 160 207q-156 39 -155 188q0 131 165 185q-158 84 -157 237q0 111 90 191q98 86 258 86q143 0 215 -49q80 80 160 79q88 0 88 -69q0 -66 -72 -66q-78 0 -78 64q0 10 2 14q-14 -8 -29.5 -21.5t-31.5 -29.5q94 -82 94 -199q0 -100 -76 -176 q-98 -102 -272 -102q-78 0 -121 14q-164 -41 -164 -123q0 -74 125 -74h340q264 0 264 -245q0 -166 -131 -254q-117 -80 -286 -80q-388 0 -388 223zM182 -258q0 -211 277 -211q115 0 203 45q111 55 110 160q0 78 -60.5 123t-142.5 45h-268q-47 0 -84 -56q-35 -59 -35 -106z M285 487q0 -86 22 -135q35 -59 117 -59t117 59q23 49 22 135v66q0 90 -22 139q-31 57 -117 58q-86 0 -117 -58q-23 -49 -22 -139v-66z" />
<glyph unicode="h" horiz-adv-x="1136" d="M53 0v49h150v1223h-150v49h348v-655q98 139 304 139q252 0 251 -187v-569h148v-49h-494v49h146v547q0 141 -117 141q-84 0 -160 -67q-78 -66 -78 -146v-475h148v-49h-496z" />
<glyph unicode="i" horiz-adv-x="620" d="M68 0v49h157v680h-157v49h356v-729h160v-49h-516zM205 1126q0 47 34.5 79t84.5 32q49 0 83.5 -31.5t34.5 -79.5q0 -47 -35.5 -77.5t-82.5 -30.5t-83 30.5t-36 77.5z" />
<glyph unicode="j" horiz-adv-x="577" d="M-43 -383q0 43 28.5 71.5t71.5 28.5q41 0 69 -26.5t28 -67.5q0 -59 -45 -86q16 -4 32 -4q55 0 87 37t32 94v1063h-170v49h371v-833q0 -184 -66 -305q-84 -154 -252 -154q-72 0 -123 33q-63 37 -63 100zM229 1126q0 47 35 79t84 32t84 -31.5t35 -79.5q0 -47 -35 -78.5 t-84 -31.5t-84 31.5t-35 78.5z" />
<glyph unicode="k" horiz-adv-x="1138" d="M55 0v49h170v1223h-170v49h369v-858h47l293 266h-166v49h414v-49h-172l-238 -219l371 -461h151v-49h-528v49h139l-278 365h-33v-365h149v-49h-518z" />
<glyph unicode="l" horiz-adv-x="602" d="M66 0v49h147v1223h-147v49h346v-1272h147v-49h-493z" />
<glyph unicode="m" horiz-adv-x="1607" d="M59 0v49h138v674h-138v49h338v-125q100 141 308 141q178 0 206 -145q98 145 310 145q211 0 211 -180v-559h137v-49h-471v49h133v539q0 135 -98 135q-80 0 -150 -70q-70 -68 -70 -145v-459h138v-49h-473v49h137v539q0 53 -10 84q-20 51 -91 51q-66 0 -141 -68 q-76 -63 -76 -131v-475h135v-49h-473z" />
<glyph unicode="n" horiz-adv-x="1120" d="M68 0v49h147v674h-147v47h346v-123q98 139 288 139q231 0 232 -186v-551h147v-49h-495v49h147v539q0 135 -108 135q-72 0 -142 -68t-69 -139v-467h147v-49h-493z" />
<glyph unicode="o" horiz-adv-x="942" d="M51 385q0 164 131 289t297 125q170 0 295 -125q129 -127 129 -289q0 -164 -129 -289q-129 -123 -295 -123t-297 123q-131 125 -131 289zM289 344q0 -156 22 -219q39 -104 168 -105q129 0 166 107q20 49 21 217v84q0 152 -23 215q-39 106 -164 107q-127 0 -166 -107 q-25 -61 -24 -215v-84z" />
<glyph unicode="p" horiz-adv-x="1054" d="M45 -477h137v1198h-137v51h338v-84q94 111 225 111q160 0 281 -129q123 -127 123 -287q0 -166 -123 -291q-121 -127 -285 -127q-139 0 -221 94v-536h137v-49h-475v49zM383 186q0 -66 78 -118q70 -49 139 -50q117 0 154 111q20 55 20 213v88q0 133 -22 205 q-37 115 -146 115q-76 0 -145 -56q-78 -59 -78 -131v-377z" />
<glyph unicode="q" horiz-adv-x="1073" d="M70 383q0 156 123 283t280 127q141 0 229 -107v84h336v-49h-137v-1198h137v-49h-473v49h137v538q-90 -96 -225 -96q-160 0 -284 129q-123 129 -123 289zM307 289q0 -129 25 -187q39 -86 149 -86q45 0 85 15.5t71 42t48 63.5t17 80v328q0 76 -73 141q-70 63 -154 64 q-168 0 -168 -248v-213z" />
<glyph unicode="r" horiz-adv-x="843" d="M37 0v49h147v674h-147v49h348v-92q90 109 238 108q84 0 135 -32q66 -41 65 -115q0 -49 -32.5 -77.5t-81.5 -28.5t-83 26.5t-34 73.5q0 63 51 90q6 2 6 6q0 8 -49 8q-68 0 -141 -55q-74 -53 -74 -119v-516h147v-49h-495z" />
<glyph unicode="s" horiz-adv-x="751" d="M88 8v207q0 25 23 25q18 0 24 -25q55 -195 266 -195q80 0 138 33q74 39 73 113q0 86 -125 129q-16 2 -196 43q-188 41 -189 207q0 59 22.5 106t61.5 80t91.5 50.5t113.5 17.5q96 0 160 -51l41 38l6 5q8 8 16 8q14 0 15 -23v-207q0 -20 -17 -20q-20 0 -22 18 q-14 82 -69.5 132.5t-141.5 50.5q-63 0 -115 -31q-61 -35 -61 -92q0 -61 123 -99q45 -10 89 -19t89 -20q199 -57 198 -245q0 -129 -81.5 -200t-212.5 -71q-156 0 -238 76l-39 -51q-8 -14 -20 -14q-23 -1 -23 24z" />
<glyph unicode="t" horiz-adv-x="712" d="M39 727v49h143v217l201 92v-309h205v-49h-205v-518q0 -176 127 -176q111 0 133 133q4 29 29 29q20 0 20 -25q0 -16 -2 -20q-35 -176 -252 -177q-119 0 -187.5 61.5t-68.5 178.5v514h-143z" />
<glyph unicode="u" horiz-adv-x="1138" d="M47 723v47h348v-588q0 -68 17 -96q23 -35 90 -35q78 0 153 64q80 63 80 137v471h-147v47h348v-721h147v-49h-348v123q-109 -145 -317 -146q-223 0 -223 218v528h-148z" />
<glyph unicode="v" horiz-adv-x="1034" d="M43 723v47h498v-47h-144l211 -471l205 471h-145v47h331v-47h-129l-319 -731h-29l-338 731h-141z" />
<glyph unicode="w" horiz-adv-x="1368" d="M47 723v47h479v-47h-135l178 -447l174 494h29l215 -496l152 449h-172v47h372v-47h-147l-256 -746h-29l-215 494l-178 -494h-31l-295 746h-141z" />
<glyph unicode="x" horiz-adv-x="1060" d="M53 723v47h465v-47h-129l182 -240l195 240h-125v47h334v-47h-139l-232 -283l299 -391h131v-49h-495v49h149l-199 262l-215 -262h146v-49h-357v49h146l248 305l-281 369h-123z" />
<glyph unicode="y" horiz-adv-x="1067" d="M53 721v49h514v-49h-155l229 -496l207 496h-152v49h351v-49h-142l-432 -1036q-82 -199 -246 -199q-117 0 -116 92q0 80 84 80q61 0 90 -55q12 -23 24 -23q66 0 115 121l121 293l-348 727h-144z" />
<glyph unicode="z" horiz-adv-x="847" d="M100 0v53l463 670h-196q-162 0 -185 -201h-43v248h633v-57l-455 -664h230q188 0 205 221h43v-270h-695z" />
<glyph unicode="{" horiz-adv-x="727" d="M45 676v49q84 25 135 82q61 61 62 141v352q0 150 65 203q61 49 215 49h133l15 -16l-58 -80h-112q-70 0 -92 -59q-10 -37 -11 -119v-301q0 -131 -45 -189q-45 -63 -172 -88q127 -23 172 -84q45 -57 45 -188v-303q0 -100 9 -123q20 -55 94 -57h78h77l17 -23l-60 -76h-90 q-145 0 -209 56q-72 61 -71 200v355q0 76 -60 141q-57 60 -137 78z" />
<glyph unicode="|" horiz-adv-x="380" d="M113 -225v1804l155 45v-1804z" />
<glyph unicode="}" horiz-adv-x="727" d="M45 -78l16 23h156q72 0 90 57q12 31 12 123v303q0 131 46 188q45 61 172 84q-125 25 -175 88q-43 57 -43 189v301q0 100 -8 119q-18 59 -94 59h-113l-57 80l14 16h134q154 0 213 -49q68 -55 67 -203v-352q0 -80 62 -141q51 -57 135 -82v-49q-80 -18 -137 -78 q-59 -66 -60 -141v-355q0 -141 -72 -200q-66 -55 -208 -56h-91z" />
<glyph unicode="~" horiz-adv-x="1003" d="M70 391v23q0 111 65.5 185.5t177.5 74.5q72 0 119 -25l246 -164q47 -29 72 -28q82 0 81 131h66q0 -113 -70 -201q-78 -96 -184 -96q-70 0 -131 43l-213 147q-39 27 -80 27q-82 0 -82 -117h-67z" />
<glyph unicode="&#xa1;" d="M-369 -256q0 35 25 59.5t61 24.5q37 0 61.5 -23.5t24.5 -60.5t-24.5 -61.5t-61.5 -24.5t-61.5 24.5t-24.5 61.5zM-221 -494q0 35 26.5 61.5t61.5 26.5q37 0 61.5 -25.5t24.5 -62.5t-24.5 -61.5t-61.5 -24.5t-62.5 24.5t-25.5 61.5zM-70 -256q0 35 25 59.5t61 24.5 q37 0 61.5 -24.5t24.5 -59.5q0 -37 -24.5 -61.5t-61.5 -24.5q-35 0 -60.5 25.5t-25.5 60.5zM195 -256q0 37 25.5 60.5t62.5 23.5q35 0 60.5 -24.5t25.5 -59.5q0 -37 -25 -61.5t-61 -24.5q-37 0 -62.5 24.5t-25.5 61.5zM195 -506q0 35 25.5 60.5t60.5 25.5q37 0 61.5 -24.5 t24.5 -61.5t-25 -61.5t-61 -24.5q-37 0 -61.5 24.5t-24.5 61.5z" />
<glyph unicode="&#x5b1;" d="M-369 -256q0 35 25 59.5t61 24.5q37 0 61.5 -23.5t24.5 -60.5t-24.5 -61.5t-61.5 -24.5t-61.5 24.5t-24.5 61.5zM-221 -494q0 35 26.5 61.5t61.5 26.5q37 0 61.5 -25.5t24.5 -62.5t-24.5 -61.5t-61.5 -24.5t-62.5 24.5t-25.5 61.5zM-70 -256q0 35 25 59.5t61 24.5 q37 0 61.5 -24.5t24.5 -59.5q0 -37 -24.5 -61.5t-61.5 -24.5q-35 0 -60.5 25.5t-25.5 60.5zM195 -256q0 37 25.5 60.5t62.5 23.5q35 0 60.5 -24.5t25.5 -59.5q0 -37 -25 -61.5t-61 -24.5q-37 0 -62.5 24.5t-25.5 61.5zM195 -506q0 35 25.5 60.5t60.5 25.5q37 0 61.5 -24.5 t24.5 -61.5t-25 -61.5t-61 -24.5q-37 0 -61.5 24.5t-24.5 61.5z" />
<glyph unicode="&#xa2;" horiz-adv-x="1024" d="M109 440q0 225 131 363q133 139 350 139q6 0 24.5 -3t49.5 -7l90 254h71l-96 -277q154 -53 154 -172q0 -37 -23.5 -64.5t-60.5 -27.5q-78 0 -123 107l-207 -596q70 -25 117 -25q102 0 180 59q57 47 125 146l27 -17q-154 -338 -396 -337q-41 0 -110 18l-101 -283h-69 l104 308q-237 120 -237 415zM266 532q0 -217 140 -331l235 661q-47 18 -98 19q-137 0 -211 -111q-66 -97 -66 -238z" />
<glyph unicode="&#xa3;" horiz-adv-x="1024" d="M25 109q0 78 57 120q51 37 133 37q16 0 38.5 -3t51.5 -7l6 35q0 39 -4 86t-12 104q-6 47 -12.5 95.5t-14.5 95.5h-221v92h219q-8 33 -11 67.5t-3 69.5q0 207 94 338q109 145 305 145q100 0 176 -45q90 -53 91 -145q0 -45 -28 -77t-73 -32q-70 0 -78 64l-10 117 q-20 63 -108 63q-102 0 -154 -92q-41 -78 -41 -186q0 -49 6 -121t17 -166h256v-92h-250q2 -20 2 -44v-53q0 -102 -49 -348q166 -72 307 -71q88 0 151 39q10 6 42 29.5t83 64.5l13 -10q0 -25 -25 -76q-98 -217 -324 -217q-117 0 -290 125q-109 -127 -203 -127q-59 0 -98 34 t-39 91zM78 115q0 -74 82 -74q47 0 89 35t42 82q0 16 -51 24q-23 4 -39.5 7.5t-26.5 3.5q-96 0 -96 -78z" />
<glyph unicode="&#xa5;" horiz-adv-x="802" d="M127.198 926.79q0 77.3965 39.2979 134.395q39.2988 56.9971 113.096 82.7959q-55.1973 22.1992 -88.4961 71.998q-33.2988 49.7979 -33.2988 108.595q0 52.7979 20.999 94.7969q20.999 41.998 56.6973 70.1963q35.6992 28.1992 81.5967 42.8984 q45.8984 14.6992 96.2969 14.6992q71.3965 0 121.795 -18.8984q50.3975 -18.8994 81.5967 -50.3984q31.1982 -31.498 45.8975 -71.3965q14.7002 -39.8984 14.7002 -81.8975q0 -58.7969 -32.3994 -107.396q-32.3984 -48.5977 -87.5957 -73.1973 q78.5967 -24.5986 116.695 -80.3965q38.0977 -55.7979 38.0977 -136.794q0 -62.3975 -22.7988 -112.496q-22.7988 -50.0977 -61.4971 -83.6963t-91.4971 -51.5977q-52.7969 -17.999 -113.395 -17.999q-62.3975 0 -116.396 16.7988q-53.998 16.7998 -93.8965 49.7979 q-39.8984 32.999 -62.6973 82.7969t-22.7988 116.396zM237.594 921.99q0 -78.5967 52.1973 -123.596q52.1982 -44.998 133.195 -44.998q39.5977 0 72.2969 12.8994q32.6982 12.8994 56.3975 35.6992q23.6992 22.7988 36.5986 53.3975t12.8994 67.7969 q0 34.1992 -14.0996 64.7979t-38.6982 52.7979t-56.998 35.0986q-32.3984 12.8994 -69.5967 12.8994q-39.5986 0 -72.5967 -11.6992q-32.999 -11.7002 -58.1982 -33.8984q-25.1992 -22.1992 -39.2979 -52.7988q-14.0996 -30.5986 -14.0996 -68.3965zM268.192 1320.97 q0 -35.3984 12.2998 -61.7979q12.2988 -26.3984 33.2979 -43.7979t49.1982 -25.7988t59.998 -8.39941q62.3975 0 103.195 36.8984q40.7988 36.8984 40.7988 102.896q0 66.5977 -41.0986 100.196t-105.296 33.5986q-31.7988 0 -59.3975 -8.39941 q-27.5986 -8.40039 -47.998 -25.7998t-32.6982 -41.998q-12.2998 -24.5986 -12.2998 -57.5977z" />
<glyph unicode="&#xb4;" horiz-adv-x="802" d="M127.198 926.79q0 77.3965 39.2979 134.395q39.2988 56.9971 113.096 82.7959q-55.1973 22.1992 -88.4961 71.998q-33.2988 49.7979 -33.2988 108.595q0 52.7979 20.999 94.7969q20.999 41.998 56.6973 70.1963q35.6992 28.1992 81.5967 42.8984 q45.8984 14.6992 96.2969 14.6992q71.3965 0 121.795 -18.8984q50.3975 -18.8994 81.5967 -50.3984q31.1982 -31.498 45.8975 -71.3965q14.7002 -39.8984 14.7002 -81.8975q0 -58.7969 -32.3994 -107.396q-32.3984 -48.5977 -87.5957 -73.1973 q78.5967 -24.5986 116.695 -80.3965q38.0977 -55.7979 38.0977 -136.794q0 -62.3975 -22.7988 -112.496q-22.7988 -50.0977 -61.4971 -83.6963t-91.4971 -51.5977q-52.7969 -17.999 -113.395 -17.999q-62.3975 0 -116.396 16.7988q-53.998 16.7998 -93.8965 49.7979 q-39.8984 32.999 -62.6973 82.7969t-22.7988 116.396zM237.594 921.99q0 -78.5967 52.1973 -123.596q52.1982 -44.998 133.195 -44.998q39.5977 0 72.2969 12.8994q32.6982 12.8994 56.3975 35.6992q23.6992 22.7988 36.5986 53.3975t12.8994 67.7969 q0 34.1992 -14.0996 64.7979t-38.6982 52.7979t-56.998 35.0986q-32.3984 12.8994 -69.5967 12.8994q-39.5986 0 -72.5967 -11.6992q-32.999 -11.7002 -58.1982 -33.8984q-25.1992 -22.1992 -39.2979 -52.7988q-14.0996 -30.5986 -14.0996 -68.3965zM268.192 1320.97 q0 -35.3984 12.2998 -61.7979q12.2988 -26.3984 33.2979 -43.7979t49.1982 -25.7988t59.998 -8.39941q62.3975 0 103.195 36.8984q40.7988 36.8984 40.7988 102.896q0 66.5977 -41.0986 100.196t-105.296 33.5986q-31.7988 0 -59.3975 -8.39941 q-27.5986 -8.40039 -47.998 -25.7998t-32.6982 -41.998q-12.2998 -24.5986 -12.2998 -57.5977z" />
<glyph unicode="&#xa8;" horiz-adv-x="796" d="M127.598 1103.78q0 47.998 2.40039 99.5967q2.39941 51.5977 12.2988 100.495q9.90039 48.8984 28.1992 93.2969q18.2988 44.3975 50.3984 77.3965q32.0986 32.999 80.0967 52.7979t116.395 19.7988q67.7979 0 116.396 -19.7988t80.3965 -52.7979t50.3984 -77.3965 q18.5996 -44.3984 28.1992 -93.2969q9.59961 -48.8975 12.2988 -100.495q2.7002 -51.5986 2.7002 -99.5967t-2.7002 -99.5957q-2.69922 -51.5977 -12.2988 -100.796t-28.1992 -92.6963t-50.3984 -76.7969t-80.3965 -53.0977t-116.396 -19.7988q-67.7969 0 -116.095 19.7988 t-80.3965 53.0977q-32.0996 33.2988 -50.3984 76.7969t-28.1992 92.6963q-9.89941 49.1982 -12.2988 100.796q-2.40039 51.5977 -2.40039 99.5957zM237.993 1104.98q0 -49.1982 3.2998 -110.096t19.7998 -114.295q16.499 -53.3984 53.3975 -90.2969t102.896 -36.8984 q66.5977 0 103.496 36.8984t53.3975 90.2969q16.5 53.3975 19.5 114.295t3 110.096q0 31.7988 -0.600586 70.4971q-0.599609 38.6982 -6 77.3975q-5.39941 38.6982 -15.8994 75.5967q-10.499 36.8984 -30.8984 64.4971t-50.998 44.6982t-74.9971 17.0996 q-44.3975 0 -74.9971 -17.0996q-30.5986 -17.0996 -50.6973 -44.6982q-20.0996 -27.5986 -30.5986 -64.4971q-10.5 -36.8984 -16.1992 -75.5967q-5.7002 -38.6992 -6.2998 -77.3975q-0.600586 -38.6982 -0.600586 -70.4971z" />
<glyph unicode="&#xac;" horiz-adv-x="796" d="M127.598 1103.78q0 47.998 2.40039 99.5967q2.39941 51.5977 12.2988 100.495q9.90039 48.8984 28.1992 93.2969q18.2988 44.3975 50.3984 77.3965q32.0986 32.999 80.0967 52.7979t116.395 19.7988q67.7979 0 116.396 -19.7988t80.3965 -52.7979t50.3984 -77.3965 q18.5996 -44.3984 28.1992 -93.2969q9.59961 -48.8975 12.2988 -100.495q2.7002 -51.5986 2.7002 -99.5967t-2.7002 -99.5957q-2.69922 -51.5977 -12.2988 -100.796t-28.1992 -92.6963t-50.3984 -76.7969t-80.3965 -53.0977t-116.396 -19.7988q-67.7969 0 -116.095 19.7988 t-80.3965 53.0977q-32.0996 33.2988 -50.3984 76.7969t-28.1992 92.6963q-9.89941 49.1982 -12.2988 100.796q-2.40039 51.5977 -2.40039 99.5957zM237.993 1104.98q0 -49.1982 3.2998 -110.096t19.7998 -114.295q16.499 -53.3984 53.3975 -90.2969t102.896 -36.8984 q66.5977 0 103.496 36.8984t53.3975 90.2969q16.5 53.3975 19.5 114.295t3 110.096q0 31.7988 -0.600586 70.4971q-0.599609 38.6982 -6 77.3975q-5.39941 38.6982 -15.8994 75.5967q-10.499 36.8984 -30.8984 64.4971t-50.998 44.6982t-74.9971 17.0996 q-44.3975 0 -74.9971 -17.0996q-30.5986 -17.0996 -50.6973 -44.6982q-20.0996 -27.5986 -30.5986 -64.4971q-10.5 -36.8984 -16.1992 -75.5967q-5.7002 -38.6992 -6.2998 -77.3975q-0.600586 -38.6982 -0.600586 -70.4971z" />
<glyph unicode="&#xa9;" horiz-adv-x="1556" d="M78 676q0 297 203 504q203 205 501 204q295 0 496 -206q201 -207 201 -502t-201 -502q-201 -203 -496 -203q-299 0 -501 203q-203 203 -203 502zM190 676q0 -248 170 -436q172 -182 422 -183q246 0 418 189q166 180 166 430q0 252 -164 434q-170 188 -420 188 q-254 0 -422 -184q-170 -188 -170 -438zM389 694q0 176 135 291q125 104 310 105q61 0 145 -19q109 -23 108 -61v-144h-34q-8 88 -64 133q-72 49 -162 50q-143 0 -217 -105q-63 -88 -63 -242q0 -373 293 -372q170 0 247 176h33l-33 -144q-10 -35 -118 -55q-90 -18 -150 -18 q-197 0 -305 96q-125 112 -125 309z" />
<glyph unicode="&#xaa;" horiz-adv-x="1048" d="M72 90q0 35 116 186l148 185q-262 348 -262 368q0 23 20 23q8 0 33 -25q150 -147 399 -362q-59 -51 -143 -129t-201 -189q-80 -80 -88 -79q-22 -1 -22 22zM502 90q0 35 116 186l148 185q-262 348 -262 368q0 23 20 23q8 0 33 -25q150 -147 399 -362q-59 -51 -143 -129 t-201 -189q-80 -80 -88 -79q-22 -1 -22 22z" />
<glyph unicode="&#xbb;" horiz-adv-x="1048" d="M72 90q0 35 116 186l148 185q-262 348 -262 368q0 23 20 23q8 0 33 -25q150 -147 399 -362q-59 -51 -143 -129t-201 -189q-80 -80 -88 -79q-22 -1 -22 22zM502 90q0 35 116 186l148 185q-262 348 -262 368q0 23 20 23q8 0 33 -25q150 -147 399 -362q-59 -51 -143 -129 t-201 -189q-80 -80 -88 -79q-22 -1 -22 22z" />
<glyph unicode="&#xab;" horiz-adv-x="1048" d="M68 465q209 180 399 362q27 25 33 25q20 0 20 -23q0 -20 -262 -368l148 -185q117 -152 116 -186q0 -23 -22 -22q-8 0 -54 45q-86 86 -180 173t-198 179zM498 465q209 180 399 362q27 25 33 25q20 0 20 -23q0 -20 -262 -368l148 -185q117 -152 116 -186q0 -23 -22 -22 q-8 0 -53 45q-86 86 -180.5 173t-198.5 179z" />
<glyph unicode="&#xad;" horiz-adv-x="796" d="M102 487v164h592v-164h-592z" />
<glyph unicode="&#xae;" horiz-adv-x="794" d="M127.398 676q6 77.3965 27.5996 131.994q21.5986 54.5986 54.8975 95.0967t74.3965 70.7969q41.0986 30.2988 87.8965 58.498q55.1982 34.1982 96.8965 63.2969t69.2969 58.498q27.5986 29.3984 41.6982 63.8975q14.0996 34.498 14.0996 79.4961 q0 35.3994 -13.499 64.498q-13.5 29.0986 -35.999 50.0977t-53.3975 31.7988q-30.8994 10.7998 -65.0977 10.7998q-45.5977 0 -78.2969 -18.8994q-32.6982 -18.8994 -53.3975 -49.498t-29.999 -69.2969q-9.2998 -38.6992 -8.09961 -78.2969h-104.396 q-3.59961 66.5967 13.499 122.995q17.0996 56.3975 53.3984 97.4961q36.2979 41.0977 90.2959 64.4971q53.998 23.3984 122.995 23.3984q56.3975 0 106.195 -16.499t86.6963 -47.998t58.498 -78.5967t21.5996 -107.695q0 -57.5977 -18 -101.696 q-17.999 -44.0977 -47.3975 -79.1963q-29.3994 -35.0986 -67.498 -63.2979q-38.0977 -28.1982 -78.8965 -53.998q-40.7979 -24.5986 -80.9971 -48.5977q-40.1982 -23.999 -74.0967 -50.998t-57.8975 -58.4971q-23.999 -31.499 -31.1992 -71.6973h446.982v-92.3965h-568.777z " />
<glyph unicode="&#xaf;" horiz-adv-x="808" d="M128.599 945.389h104.995q2.40039 -84.5957 48.8984 -138.294t136.494 -53.6982q37.7988 0 72.2979 11.7002q34.498 11.6992 60.2969 33.2979q25.7988 21.5996 41.0986 52.7988q15.2988 31.1982 15.2988 70.7969q0 40.7979 -14.6992 71.9971 q-14.6992 31.1982 -39.2979 52.498q-24.5996 21.2988 -59.0977 31.7979q-34.499 10.5 -72.2969 10.5q-32.999 0 -62.998 -3.59961v88.1963q6 -1.2002 12 -1.2002h11.3994h22.1992q32.998 0 63.2969 9.2998t53.0977 27.2988q22.7998 17.999 36.2988 44.3984 q13.5 26.3984 13.5 61.7969q0 70.1973 -44.3984 104.996t-110.396 34.7988q-43.1982 0 -73.7969 -15.2998q-30.5986 -15.2988 -50.998 -41.0977q-20.3994 -25.7998 -30.2988 -59.998t-9.89941 -72.5967h-104.396q2.40039 62.3975 20.3994 114.295t50.998 88.4961 t82.7969 57.5977t115.195 20.999q56.3975 0 104.995 -14.0986q48.5986 -14.0996 83.9971 -42.2988q35.3984 -28.1982 55.7979 -72.5967t20.3994 -104.396q0 -58.7979 -34.499 -104.396q-34.498 -45.5977 -86.0967 -68.9971v-2.39941q79.7969 -17.3994 118.495 -74.9971 q38.6992 -57.5977 38.6992 -136.194q0 -65.3975 -23.6992 -115.195t-64.498 -82.7969q-40.7979 -32.999 -95.3955 -50.3975q-54.5977 -17.3994 -115.796 -17.3994q-66.5967 0 -120.595 19.1992t-92.0967 55.4971q-38.0977 36.2988 -58.4971 89.0967t-19.1992 120.595z" />
<glyph unicode="&#xbf;" d="M-86 -254q0 35 24.5 59.5t61.5 24.5t61.5 -23.5t24.5 -60.5t-24.5 -61.5t-61.5 -24.5t-61.5 24.5t-24.5 61.5zM-86 -506q0 35 25.5 60.5t60.5 25.5q37 0 61.5 -24.5t24.5 -61.5t-24.5 -61.5t-61.5 -24.5t-61.5 24.5t-24.5 61.5z" />
<glyph unicode="&#x5b0;" d="M-86 -254q0 35 24.5 59.5t61.5 24.5t61.5 -23.5t24.5 -60.5t-24.5 -61.5t-61.5 -24.5t-61.5 24.5t-24.5 61.5zM-86 -506q0 35 25.5 60.5t60.5 25.5q37 0 61.5 -24.5t24.5 -61.5t-24.5 -61.5t-61.5 -24.5t-61.5 24.5t-24.5 61.5z" />
<glyph unicode="&#xd7;" horiz-adv-x="1130" d="M154 111l299 299l-299 301l110 110l299 -299l301 299l111 -110l-299 -301l297 -297l-113 -111l-297 297l-299 -301z" />
<glyph unicode="&#x2122;" horiz-adv-x="1130" d="M154 111l299 299l-299 301l110 110l299 -299l301 299l111 -110l-299 -301l297 -297l-113 -111l-297 297l-299 -301z" />
<glyph unicode="&#x131;" horiz-adv-x="1024" d="M78 971v153h309q4 -78 8 -144.5t13.5 -137t27 -149.5t45.5 -177q61 35 117.5 80t94.5 101.5t53.5 125t-5.5 148.5h-166v153h287l29 -37q20 -166 -5.5 -281.5t-80.5 -193t-132 -127t-157 -84.5q20 -61 45 -129.5t56.5 -152.5t75.5 -189.5t104 -240.5h-179 q-66 150 -128 309.5t-113 322t-86 327.5t-47 323h-166z" />
<glyph unicode="&#x5e5;" horiz-adv-x="1024" d="M78 971v153h309q4 -78 8 -144.5t13.5 -137t27 -149.5t45.5 -177q61 35 117.5 80t94.5 101.5t53.5 125t-5.5 148.5h-166v153h287l29 -37q20 -166 -5.5 -281.5t-80.5 -193t-132 -127t-157 -84.5q20 -61 45 -129.5t56.5 -152.5t75.5 -189.5t104 -240.5h-179 q-66 150 -128 309.5t-113 322t-86 327.5t-47 323h-166z" />
<glyph unicode="&#x152;" horiz-adv-x="774" d="M76 969v155h592v-155h-592z" />
<glyph unicode="&#x5be;" horiz-adv-x="774" d="M76 969v155h592v-155h-592z" />
<glyph unicode="&#x153;" d="M-266 1384v111h532v-111h-532z" />
<glyph unicode="&#x5bf;" d="M-266 1384v111h532v-111h-532z" />
<glyph unicode="&#x192;" d="M-86 -256q0 35 24.5 59.5t61.5 24.5t61.5 -23.5t24.5 -60.5t-24.5 -61.5t-61.5 -24.5t-61.5 24.5t-24.5 61.5z" />
<glyph unicode="&#x5b4;" d="M-86 -256q0 35 24.5 59.5t61.5 24.5t61.5 -23.5t24.5 -60.5t-24.5 -61.5t-61.5 -24.5t-61.5 24.5t-24.5 61.5z" />
<glyph unicode="&#x2c6;" horiz-adv-x="1005" d="M55 971v153h152q94 0 133 -40t39 -138v-57q0 -113 57 -189l137 -157q59 27 106.5 75t73 106t28.5 122.5t-23 124.5h-158v153h281l28 -37q31 -123 23 -225t-44 -183t-96.5 -142.5t-134.5 -104.5l256 -280q-2 -4 -9 -27t-15 -49.5t-15.5 -50t-9.5 -25.5h-788v154h629 l-353 409q-61 72 -85.5 144.5t-26.5 138.5l-2 92q0 20 -9.5 26.5t-25.5 6.5h-148z" />
<glyph unicode="&#x5e6;" horiz-adv-x="1005" d="M55 971v153h152q94 0 133 -40t39 -138v-57q0 -113 57 -189l137 -157q59 27 106.5 75t73 106t28.5 122.5t-23 124.5h-158v153h281l28 -37q31 -123 23 -225t-44 -183t-96.5 -142.5t-134.5 -104.5l256 -280q-2 -4 -9 -27t-15 -49.5t-15.5 -50t-9.5 -25.5h-788v154h629 l-353 409q-61 72 -85.5 144.5t-26.5 138.5l-2 92q0 20 -9.5 26.5t-25.5 6.5h-148z" />
<glyph unicode="&#x2d8;" horiz-adv-x="1511" d="M86 971v153h221q35 0 72 -23.5t37 -80.5v-535q63 6 120.5 23.5t100.5 50.5t68.5 85t25.5 128v162q0 37 -35 37h-114v153l2 -2v2h161q94 0 125 -40t31 -117v-158q0 -129 -45 -212t-114.5 -133t-152.5 -76t-157 -38q10 -70 44 -112.5t84 -66.5t113.5 -31t135.5 -7 q123 2 202 44t124 115t61 172t16 216v254q0 37 -34 37h-117v153h149q94 0 133 -50t39 -148v-211q0 -147 -24.5 -283.5t-93 -239t-191.5 -161t-319 -49.5q-158 6 -256.5 49t-154.5 113.5t-76.5 163.5t-20.5 200v463h-160z" />
<glyph unicode="&#x5e9;" horiz-adv-x="1511" d="M86 971v153h221q35 0 72 -23.5t37 -80.5v-535q63 6 120.5 23.5t100.5 50.5t68.5 85t25.5 128v162q0 37 -35 37h-114v153l2 -2v2h161q94 0 125 -40t31 -117v-158q0 -129 -45 -212t-114.5 -133t-152.5 -76t-157 -38q10 -70 44 -112.5t84 -66.5t113.5 -31t135.5 -7 q123 2 202 44t124 115t61 172t16 216v254q0 37 -34 37h-117v153h149q94 0 133 -50t39 -148v-211q0 -147 -24.5 -283.5t-93 -239t-191.5 -161t-319 -49.5q-158 6 -256.5 49t-154.5 113.5t-76.5 163.5t-20.5 200v463h-160z" />
<glyph unicode="&#x2d9;" horiz-adv-x="1232" d="M72 0v154h188q-33 172 -37 296.5t11.5 217t47 160t70.5 126.5v17h-217l-2 153h608q104 0 173 -31.5t111 -87t58.5 -129t16.5 -159.5v-717h-174v758q0 98 -54.5 155.5t-154.5 57.5h-170q-39 0 -67.5 -46t-47 -120t-27 -165t-6.5 -182t14.5 -172t35.5 -132l-52 -154h-325z " />
<glyph unicode="&#x5ea;" horiz-adv-x="1232" d="M72 0v154h188q-33 172 -37 296.5t11.5 217t47 160t70.5 126.5v17h-217l-2 153h608q104 0 173 -31.5t111 -87t58.5 -129t16.5 -159.5v-717h-174v758q0 98 -54.5 155.5t-154.5 57.5h-170q-39 0 -67.5 -46t-47 -120t-27 -165t-6.5 -182t14.5 -172t35.5 -132l-52 -154h-325z " />
<glyph unicode="&#x2db;" horiz-adv-x="45" d="M-258 1604l137 137l31 -31l-82 -82h217v-1628h-45v1583h-176l86 -86l-31 -31z" />
<glyph unicode="&#x200f;" horiz-adv-x="45" d="M-258 1604l137 137l31 -31l-82 -82h217v-1628h-45v1583h-176l86 -86l-31 -31z" />
<glyph unicode="&#x2dc;" horiz-adv-x="1177" d="M150 -264v700q0 82 18 155t84 154l100 -43q-23 -59 -25.5 -123.5t-2.5 -117.5v-725h-174zM150 971v153h509q104 0 180 -20.5t125.5 -69.5t73 -132t23.5 -206q0 -90 -20.5 -171t-59.5 -163.5t-97.5 -171t-135.5 -190.5h-170l-3 45q86 111 144.5 197t94.5 162.5t52.5 154.5 t20.5 174q2 76 -17.5 123t-53.5 72.5t-79 34t-94 8.5h-493z" />
<glyph unicode="&#x5e7;" horiz-adv-x="1177" d="M150 -264v700q0 82 18 155t84 154l100 -43q-23 -59 -25.5 -123.5t-2.5 -117.5v-725h-174zM150 971v153h509q104 0 180 -20.5t125.5 -69.5t73 -132t23.5 -206q0 -90 -20.5 -171t-59.5 -163.5t-97.5 -171t-135.5 -190.5h-170l-3 45q86 111 144.5 197t94.5 162.5t52.5 154.5 t20.5 174q2 76 -17.5 123t-53.5 72.5t-79 34t-94 8.5h-493z" />
<glyph unicode="&#x2dd;" horiz-adv-x="45" d="M0 0v1628h217l-82 82l31 31l137 -137l-137 -138l-31 31l86 86h-176v-1583h-45z" />
<glyph unicode="&#x200e;" horiz-adv-x="45" d="M0 0v1628h217l-82 82l31 31l137 -137l-137 -138l-31 31l86 86h-176v-1583h-45z" />
<glyph unicode="&#x590;" horiz-adv-x="1536" d="M199 670v92h1136v-92h-1136zM477 -115q0 78 39 134.5t115 82.5q-57 23 -90 72t-33 109q0 53 21.5 95t56.5 70.5t82 43t96 14.5q72 0 122 -19.5t81.5 -50t46 -70.5t14.5 -83q0 -59 -32.5 -107.5t-88.5 -73.5q78 -25 117 -81t39 -136q0 -63 -22.5 -113.5t-61.5 -84t-91 -51 t-114 -17.5q-63 0 -117.5 16.5t-94.5 50t-62.5 82.5t-22.5 117zM541 1683v99h563v-90q-66 -66 -124 -155t-103.5 -190.5t-73 -210t-33.5 -210.5h-117q16 223 111.5 417.5t232.5 339.5h-456zM588 -121q0 -78 52 -123t134 -45q78 0 128 48t50 122q0 70 -53 118t-127 48 q-78 0 -131 -45t-53 -123zM618 279q0 -72 45.5 -106t110.5 -34q63 0 103.5 37t40.5 103q0 68 -41 101.5t-105 33.5q-63 0 -108.5 -34.5t-45.5 -100.5z" />
<glyph unicode="&#x591;" d="M-168 -471q0 131 131 164v125h74v-125q133 -35 133 -164v-131h-76v11q0 7 2 24v43q0 147 -86 147q-104 0 -104 -135v-47q2 -14 2 -25v-18h-76v131z" />
<glyph unicode="&#x592;" d="M-186 1444q0 33 20.5 53.5t52.5 20.5q33 0 54.5 -20.5t21.5 -53.5q0 -31 -21.5 -52.5t-54.5 -21.5t-53 20.5t-20 53.5zM-76 1632q0 31 22.5 53.5t53.5 22.5q33 0 54.5 -21.5t21.5 -54.5t-21.5 -54.5t-54.5 -21.5t-54.5 21.5t-21.5 54.5zM37 1444q0 33 21.5 53.5 t54.5 20.5t53 -20.5t20 -53.5q0 -31 -20.5 -52.5t-52.5 -21.5q-31 0 -53.5 21.5t-22.5 52.5z" />
<glyph unicode="&#x593;" d="M-119 1456l156 76l-156 72l156 75l-156 72l156 76h84l-158 -76l158 -72l-158 -75l158 -72l-158 -76l158 -74h-84z" />
<glyph unicode="&#x594;" d="M-76 1452q0 33 21.5 53.5t54.5 20.5t54.5 -20.5t21.5 -53.5q0 -31 -21.5 -52.5t-54.5 -21.5t-54.5 20.5t-21.5 53.5zM-76 1677q0 31 22.5 53.5t53.5 22.5q33 0 54.5 -21.5t21.5 -54.5t-21.5 -53t-54.5 -20t-54.5 20t-21.5 53z" />
<glyph unicode="&#x595;" d="M-113 1378v375h76v-375h-76zM37 1452q0 33 21.5 53.5t54.5 20.5q31 0 52 -21.5t21 -52.5t-20.5 -52.5t-52.5 -21.5q-31 0 -53.5 21.5t-22.5 52.5zM37 1677q0 31 22.5 53.5t53.5 22.5t52 -22.5t21 -53.5q0 -33 -20.5 -53t-52.5 -20q-31 0 -53.5 21t-22.5 52z" />
<glyph unicode="&#x596;" d="M-41 -219q0 6 1 15t3 20h76q-2 -10 -3 -24.5t-1 -37.5q0 -98 63 -149q55 -49 156 -49v-78q-295 0 -295 303z" />
<glyph unicode="&#x597;" d="M-121 1534l123 156l119 -156l-119 -154z" />
<glyph unicode="&#x598;" d="M-258 1530q0 53 38 92t91 39q66 0 109 -53q18 -27 36.5 -51.5t40.5 -53.5q27 -49 70 -49q33 0 53.5 21.5t20.5 54.5q0 47 -54 69l21 56q90 -43 90 -125q0 -55 -39 -93t-92 -38q-66 0 -109 53q-16 27 -33.5 50.5t-33.5 49.5q-39 51 -80 52q-33 0 -53.5 -20.5t-20.5 -53.5 q0 -53 53 -72l-20 -55q-88 39 -88 127z" />
<glyph unicode="&#x599;" d="M-104 1702l90 78q35 -41 61.5 -84t35.5 -95.5t-5.5 -116t-61.5 -143.5l-49 27q20 39 30.5 82t4.5 86t-30.5 85t-75.5 81z" />
<glyph unicode="&#x59a;" d="M-150 -305l199 194h123l-199 -194l199 -205h-121z" />
<glyph unicode="&#x59b;" d="M-66 -266q0 29 18.5 48t45.5 19q66 0 65 -67q0 -63 -65 -64q-27 0 -45.5 18.5t-18.5 45.5zM-66 -442q221 0 222 204l-6 56h75q2 -10 3 -27.5t1 -44.5q0 -133 -86 -207q-70 -59 -209 -59v78z" />
<glyph unicode="&#x59c;" d="M-96 1544q0 125 137 225l55 -51q-111 -80 -110 -172q0 -84 75 -166h-96q-61 76 -61 164z" />
<glyph unicode="&#x59d;" d="M-96 1544q0 125 137 225l55 -51q-111 -80 -110 -172q0 -84 75 -166h-96q-61 76 -61 164z" />
<glyph unicode="&#x59e;" d="M-197 1544q0 125 138 225l55 -51q-111 -84 -111 -172q0 -82 78 -166h-98q-62 76 -62 164zM27 1544q0 123 139 225l53 -51q-111 -80 -110 -172q0 -84 75 -166h-94q-63 76 -63 164z" />
<glyph unicode="&#x59f;" d="M-496 1655q0 80 53.5 134t133.5 54q82 0 135 -54t53 -134q0 -61 -37 -111l123 -123l-41 -41l-123 123q-45 -39 -110 -39q-82 0 -134.5 52.5t-52.5 138.5zM-432 1655q0 -53 36 -88t87 -35q53 0 89 35t36 88q0 51 -36 86t-89 35q-51 0 -87 -35t-36 -86zM35 1421l123 123 q-39 39 -39 111q0 80 54 134t136 54q37 0 71 -15.5t59.5 -41t41 -60t15.5 -71.5q0 -82 -53.5 -136.5t-133.5 -54.5q-72 0 -110 39l-123 -123zM184 1655q0 -53 36 -88t89 -35q51 0 85 35t34 88q0 47 -36 84t-83 37q-53 0 -89 -34t-36 -87z" />
<glyph unicode="&#x5a0;" d="M-55 1421l123 123q-37 43 -37 111q0 80 54 134t134 54q39 0 73 -15.5t59.5 -41t40 -60t14.5 -71.5q0 -82 -53.5 -136.5t-133.5 -54.5q-72 0 -110 39l-123 -123zM96 1655q0 -53 35 -88t88 -35t86 35t33 88q0 47 -36 84t-83 37q-53 0 -88 -34t-35 -87z" />
<glyph unicode="&#x5a1;" d="M-39 1380v357h74v-172q0 -10 39 -11q76 0 76 111v37q-2 16 -3 23v12h76v-82q0 -70 -35 -111q-37 -55 -98 -55q-29 0 -55 10v-119h-74z" />
<glyph unicode="&#x5a3;" d="M-184 -463h153v281h76v-357h-229v76z" />
<glyph unicode="&#x5a4;" d="M-193 -352l173 170h108l-174 -170l174 -178h-106z" />
<glyph unicode="&#x5a5;" d="M-248 -442q217 0 217 202l-4 58h78q6 -90 6 -101q0 -236 -297 -235v76z" />
<glyph unicode="&#x5a6;" d="M-221 -520q111 80 110 170q0 80 -75 168h96q63 -82 63 -164q0 -121 -139 -225zM6 -520q111 82 111 170q0 72 -78 168h98q61 -78 62 -164q0 -119 -138 -225z" />
<glyph unicode="&#x5a7;" d="M-125 -264l64 53l186 33v-74l-139 -24l139 -220l-64 -53l-186 -33v76l137 23z" />
<glyph unicode="&#x5a8;" d="M-97 1731.5q5 11.5 15 20.5t20.5 14.5t16.5 -1.5q37 -39 62.5 -84t33.5 -97t-4 -111.5t-49 -126.5q-4 -8 -16.5 -8.5t-23.5 6t-18.5 14.5t-2.5 18q20 45 35.5 85t16.5 79t-17.5 81t-67.5 93q-6 6 -1 17.5z" />
<glyph unicode="&#x5a9;" d="M-408 1655q0 80 53.5 134t133.5 54t133 -54t53 -134q0 -57 -35 -111l123 -123l-43 -41l-121 123q-45 -39 -110 -39q-82 0 -134.5 52.5t-52.5 138.5zM-344 1655q0 -53 35 -88t88 -35t88 35t35 88q0 51 -35 86t-88 35t-88 -35t-35 -86z" />
<glyph unicode="&#x5aa;" d="M-168 -182h76q0 -10 -2 -38t-2 -44q0 -141 88 -142q106 0 106 134q0 16 -2 44.5t-2 45.5h76v-129q0 -131 -133 -166v-123h-74v123q-59 16 -95 61t-36 105v129z" />
<glyph unicode="&#x5ab;" d="M-139 1561l174 168h106l-174 -168l174 -179h-106z" />
<glyph unicode="&#x5ac;" d="M-195 1382v74h156v281h74v-355h-230z" />
<glyph unicode="&#x5ad;" d="M-41 -217q0 6 1 15t3 20h76q-2 -10 -3 -24.5t-1 -37.5q0 -98 63 -149q55 -49 156 -49v-78q-295 0 -295 303z" />
<glyph unicode="&#x5ae;" d="M-258 1530q0 53 38 92t91 39q66 0 109 -53q18 -27 36.5 -51.5t40.5 -53.5q27 -49 70 -49q33 0 53.5 21.5t20.5 54.5q0 47 -54 69l21 56q90 -43 90 -125q0 -55 -39 -93t-92 -38q-66 0 -109 53q-16 27 -33.5 50.5t-33.5 49.5q-39 51 -80 52q-33 0 -53.5 -20.5t-20.5 -53.5 q0 -53 53 -72l-20 -55q-88 39 -88 127z" />
<glyph unicode="&#x5af;" d="M-213 1614q0 92 60.5 153.5t152.5 61.5t153.5 -61.5t61.5 -153.5q0 -47 -16.5 -86t-46 -67.5t-68.5 -45t-84 -16.5q-88 0 -152 63q-61 62 -61 152zM-156 1614q0 -66 45 -115t111 -49t112 49t46 115t-46 115t-112 49t-111 -49t-45 -115z" />
<glyph unicode="&#x5b2;" d="M-354 -190h387v-109h-387v109zM141 -256q0 37 26 60.5t62 23.5q35 0 60.5 -24.5t25.5 -59.5q0 -37 -24.5 -61.5t-61.5 -24.5t-62.5 24.5t-25.5 61.5zM143 -506q0 35 26 60.5t60 25.5q37 0 61.5 -24.5t24.5 -61.5t-24.5 -61.5t-61.5 -24.5t-61.5 24.5t-24.5 61.5z" />
<glyph unicode="&#x5b3;" d="M-354 -190h387v-109h-158l-6 -92q0 -23 27 -62q29 -41 28 -61q0 -37 -24.5 -61.5t-61.5 -24.5q-35 0 -59.5 24.5t-24.5 61.5q0 25 27 63q29 41 29 60l-7 92h-157v109zM141 -256q0 37 26 60.5t62 23.5q35 0 60.5 -24.5t25.5 -59.5q0 -37 -24.5 -61.5t-61.5 -24.5 t-62.5 24.5t-25.5 61.5zM143 -506q0 35 26 60.5t60 25.5q37 0 61.5 -24.5t24.5 -61.5t-24.5 -61.5t-61.5 -24.5t-61.5 24.5t-24.5 61.5z" />
<glyph unicode="&#x221a;" d="M-354 -190h387v-109h-158l-6 -92q0 -23 27 -62q29 -41 28 -61q0 -37 -24.5 -61.5t-61.5 -24.5q-35 0 -59.5 24.5t-24.5 61.5q0 25 27 63q29 41 29 60l-7 92h-157v109zM141 -256q0 37 26 60.5t62 23.5q35 0 60.5 -24.5t25.5 -59.5q0 -37 -24.5 -61.5t-61.5 -24.5 t-62.5 24.5t-25.5 61.5zM143 -506q0 35 26 60.5t60 25.5q37 0 61.5 -24.5t24.5 -61.5t-24.5 -61.5t-61.5 -24.5t-61.5 24.5t-24.5 61.5z" />
<glyph unicode="&#x5b5;" d="M-225 -256q0 35 24.5 59.5t61.5 24.5t61.5 -23.5t24.5 -60.5t-24.5 -61.5t-61.5 -24.5t-61.5 24.5t-24.5 61.5zM53 -256q0 35 24.5 59.5t61.5 24.5t61.5 -24.5t24.5 -59.5q0 -37 -24.5 -61.5t-61.5 -24.5q-35 0 -60.5 25.5t-25.5 60.5z" />
<glyph unicode="&#x2248;" d="M-225 -256q0 35 24.5 59.5t61.5 24.5t61.5 -23.5t24.5 -60.5t-24.5 -61.5t-61.5 -24.5t-61.5 24.5t-24.5 61.5zM53 -256q0 35 24.5 59.5t61.5 24.5t61.5 -24.5t24.5 -59.5q0 -37 -24.5 -61.5t-61.5 -24.5q-35 0 -60.5 25.5t-25.5 60.5z" />
<glyph unicode="&#x5b6;" d="M-236 -256q0 35 25 59.5t61 24.5q37 0 62 -23.5t25 -60.5t-25 -61.5t-62 -24.5t-61.5 24.5t-24.5 61.5zM-88 -494q0 35 26.5 61.5t61.5 26.5q37 0 61.5 -25.5t24.5 -62.5t-24.5 -61.5t-61.5 -24.5t-62.5 24.5t-25.5 61.5zM63 -256q0 35 25 59.5t62 24.5t61.5 -24.5 t24.5 -59.5q0 -37 -25 -61.5t-61 -24.5q-35 0 -61 25.5t-26 60.5z" />
<glyph unicode="&#x2206;" d="M-236 -256q0 35 25 59.5t61 24.5q37 0 62 -23.5t25 -60.5t-25 -61.5t-62 -24.5t-61.5 24.5t-24.5 61.5zM-88 -494q0 35 26.5 61.5t61.5 26.5q37 0 61.5 -25.5t24.5 -62.5t-24.5 -61.5t-61.5 -24.5t-62.5 24.5t-25.5 61.5zM63 -256q0 35 25 59.5t62 24.5t61.5 -24.5 t24.5 -59.5q0 -37 -25 -61.5t-61 -24.5q-35 0 -61 25.5t-26 60.5z" />
<glyph unicode="&#x5b7;" d="M-193 -190h388v-109h-388v109z" />
<glyph unicode="&#x5b8;" d="M-193 -190h388v-109h-158l-6 -92q0 -23 26 -62q29 -41 29 -61q0 -37 -24.5 -61.5t-61.5 -24.5q-35 0 -59.5 24.5t-24.5 61.5q0 25 27 63q29 41 28 60l-6 92h-158v109z" />
<glyph unicode="&#x5b9;" d="M-86 1411q0 35 25.5 60.5t60.5 25.5q37 0 61.5 -24.5t24.5 -61.5t-24.5 -61.5t-61.5 -24.5t-61.5 24.5t-24.5 61.5z" />
<glyph unicode="&#x2026;" d="M-86 1411q0 35 25.5 60.5t60.5 25.5q37 0 61.5 -24.5t24.5 -61.5t-24.5 -61.5t-61.5 -24.5t-61.5 24.5t-24.5 61.5z" />
<glyph unicode="&#x5bb;" d="M-86 -256q0 35 24.5 59.5t61.5 24.5t61.5 -24.5t24.5 -59.5q0 -37 -24.5 -61.5t-61.5 -24.5q-35 0 -60.5 25.5t-25.5 60.5zM66 -393q0 35 24.5 59.5t61.5 24.5t61.5 -23.5t24.5 -60.5t-25 -61.5t-61 -24.5q-37 0 -61.5 24.5t-24.5 61.5zM217 -537q0 35 26.5 61.5 t61.5 26.5q37 0 61.5 -25.5t24.5 -62.5t-24.5 -61.5t-61.5 -24.5t-62.5 24.5t-25.5 61.5z" />
<glyph unicode="&#x5bc;" d="M-84 590q0 35 24.5 59.5t59.5 24.5t59.5 -24.5t24.5 -59.5t-24.5 -59.5t-59.5 -24.5t-59.5 24.5t-24.5 59.5z" />
<glyph unicode="&#x5bd;" d="M-37 -182h74v-357h-74v357z" />
<glyph unicode="&#x5c0;" horiz-adv-x="497" d="M195 2v1184h110v-1184h-110z" />
<glyph unicode="&#x5c1;" d="M358 1411q0 35 26 60.5t60 25.5q37 0 61.5 -24.5t24.5 -61.5t-24.5 -61.5t-61.5 -24.5t-61.5 24.5t-24.5 61.5z" />
<glyph unicode="&#x5c2;" d="M-172 1411q0 35 25.5 60.5t60.5 25.5q37 0 61.5 -24.5t24.5 -61.5t-24.5 -61.5t-61.5 -24.5t-61.5 24.5t-24.5 61.5z" />
<glyph unicode="&#x5c3;" horiz-adv-x="569" d="M170 0v227h227v-227h-227zM170 831v228h227v-228h-227z" />
<glyph unicode="&#x5c4;" d="M-86 1411q0 35 25.5 60.5t60.5 25.5q37 0 61.5 -24.5t24.5 -61.5t-24.5 -61.5t-61.5 -24.5t-61.5 24.5t-24.5 61.5z" />
<glyph unicode="&#x5c7;" d="M-193 -184h388v-109h-158l-6 -266q0 -23 26 -62q29 -41 29 -61q0 -37 -24.5 -61.5t-61.5 -24.5q-35 0 -59.5 24.5t-24.5 61.5q0 25 27 64q29 41 28 59l-6 266h-158v109z" />
<glyph unicode="&#x5d0;" horiz-adv-x="1208" d="M109 0v121l131 31q2 4 4 10t4 10q-43 72 -60.5 158t-4 173t60.5 172t131 156q-20 29 -34.5 46.5t-27 30t-28 26.5t-39.5 37h-125v153h198q51 -49 100.5 -103t104 -120.5t114.5 -148.5t134 -189q53 18 89 58.5t52.5 95.5t12.5 120.5t-31 133.5h-162v153h285l29 -37 q66 -248 7 -410.5t-206 -234.5q59 -82 118.5 -190.5t118.5 -226.5q-4 -6 -5 -12.5t-5 -12.5h-170q-53 115 -112.5 222.5t-118 201.5t-112.5 169t-97 122q-55 -43 -90 -111.5t-40 -146.5t21.5 -161t94.5 -155q16 -18 13 -40.5t-13 -39.5l-31 -61h-311z" />
<glyph unicode="&#x2021;" horiz-adv-x="1208" d="M109 0v121l131 31q2 4 4 10t4 10q-43 72 -60.5 158t-4 173t60.5 172t131 156q-20 29 -34.5 46.5t-27 30t-28 26.5t-39.5 37h-125v153h198q51 -49 100.5 -103t104 -120.5t114.5 -148.5t134 -189q53 18 89 58.5t52.5 95.5t12.5 120.5t-31 133.5h-162v153h285l29 -37 q66 -248 7 -410.5t-206 -234.5q59 -82 118.5 -190.5t118.5 -226.5q-4 -6 -5 -12.5t-5 -12.5h-170q-53 115 -112.5 222.5t-118 201.5t-112.5 169t-97 122q-55 -43 -90 -111.5t-40 -146.5t21.5 -161t94.5 -155q16 -18 13 -40.5t-13 -39.5l-31 -61h-311z" />
<glyph unicode="&#x5d1;" horiz-adv-x="989" d="M104 0v154h426q86 66 112 143.5t26 151.5v272q0 115 -54.5 182.5t-154.5 67.5h-353v153h351q104 0 177 -34.5t119 -94t67.5 -140.5t21.5 -175v-188q0 -49 -15.5 -100.5t-38 -97.5t-50 -84t-54.5 -56h223l-2 -154h-801z" />
<glyph unicode="&#x5d2;" horiz-adv-x="782" d="M72 -8v158q121 25 200.5 85t128 133.5t67.5 147.5t19 123v209q0 63 -27.5 93t-62.5 30h-239v153h221q127 0 198.5 -83t71.5 -214v-827h-164l-2 328h-20q-37 -109 -79 -172.5t-90 -97t-103.5 -47t-118.5 -19.5z" />
<glyph unicode="&#x201a;" horiz-adv-x="782" d="M72 -8v158q121 25 200.5 85t128 133.5t67.5 147.5t19 123v209q0 63 -27.5 93t-62.5 30h-239v153h221q127 0 198.5 -83t71.5 -214v-827h-164l-2 328h-20q-37 -109 -79 -172.5t-90 -97t-103.5 -47t-118.5 -19.5z" />
<glyph unicode="&#x5d3;" horiz-adv-x="1067" d="M80 971v153h862v-153h-100q-39 0 -57.5 -40t-18.5 -97v-834h-174v754q0 39 13 96t61 104v17h-586z" />
<glyph unicode="&#x201e;" horiz-adv-x="1067" d="M80 971v153h862v-153h-100q-39 0 -57.5 -40t-18.5 -97v-834h-174v754q0 39 13 96t61 104v17h-586z" />
<glyph unicode="&#x5d4;" horiz-adv-x="1150" d="M143 0v324q0 41 1 91t13.5 104t38 108.5t74.5 103.5l95 -69q-39 -74 -43.5 -142.5t-4.5 -138.5v-381h-174zM143 971v153h510q104 0 174 -31.5t113 -87t60.5 -129t17.5 -159.5v-717h-174v758q0 98 -57.5 155.5t-157.5 57.5h-486z" />
<glyph unicode="&#x2030;" horiz-adv-x="1150" d="M143 0v324q0 41 1 91t13.5 104t38 108.5t74.5 103.5l95 -69q-39 -74 -43.5 -142.5t-4.5 -138.5v-381h-174zM143 971v153h510q104 0 174 -31.5t113 -87t60.5 -129t17.5 -159.5v-717h-174v758q0 98 -57.5 155.5t-157.5 57.5h-486z" />
<glyph unicode="&#x5d5;" horiz-adv-x="634" d="M82 971v153h229q94 0 133 -50t39 -148v-926h-174v829q0 82 -1 112t-34 30h-192z" />
<glyph unicode="&#x5d6;" horiz-adv-x="747" d="M109 971v153h524l-2 -112l-84 -41q-29 -14 -62.5 -78t-51 -180.5t-8.5 -286.5t67 -397l-21 -29h-158q-49 211 -55 365.5t9.5 268.5t43 194.5t49.5 142.5h-251z" />
<glyph unicode="&#x5d7;" horiz-adv-x="1232" d="M113 1124h622q104 0 174 -31.5t113 -87t60.5 -129t17.5 -159.5v-717h-174v758q0 98 -57.5 155.5t-157.5 57.5h-254q-18 0 -31.5 -15.5t-24 -37t-15.5 -43t-5 -31.5v-844h-174v778q0 98 96 176v17h-188z" />
<glyph unicode="&#x5d8;" horiz-adv-x="1351" d="M90 971v153h180q94 0 133 -50t39 -148v-492q0 -59 16.5 -114.5t52.5 -96.5t92 -65.5t136 -22.5q100 2 163 37t98.5 100.5t49 160.5t13.5 218q0 106 -16.5 171t-41 99.5t-54 46t-56.5 11.5q-29 0 -52.5 -5t-45 -20.5t-45 -42t-52.5 -69.5l-30 4l-70 106q61 102 137 143.5 t137 41.5q82 0 150 -26t115 -83t72.5 -147t25.5 -219q0 -160 -24.5 -291t-89 -221.5t-176 -133.5t-285.5 -28q-127 10 -205 69.5t-120 139t-55.5 168t-13.5 159.5v305q0 82 -3 112t-36 30h-139z" />
<glyph unicode="&#x5d9;" horiz-adv-x="647" d="M86 971v153h242q94 0 133 -50t39 -148v-394h-174v297q0 82 -1 112t-34 30h-205z" />
<glyph unicode="&#x5da;" horiz-adv-x="958" d="M78 971v153h373q104 0 175.5 -31.5t115.5 -87t63.5 -129t19.5 -159.5v-1028h-174v1069q0 98 -57 155.5t-158 57.5h-358z" />
<glyph unicode="&#x5db;" horiz-adv-x="956" d="M98 0v154h394q84 0 139 76.5t55 242.5v219q0 125 -56.5 202t-156.5 77h-375v153h377q104 0 177 -42t119 -109.5t67.5 -151.5t21.5 -170v-100q0 -96 -15.5 -194.5t-55 -177.5t-107.5 -129t-172 -50h-412z" />
<glyph unicode="&#x5dc;" horiz-adv-x="989" d="M88 971v497h174v-344h240q104 0 177 -17t119 -62.5t65.5 -125t19.5 -202.5q-2 -180 -79 -356.5t-255 -360.5h-176l-2 45q102 106 167.5 192.5t102.5 165t51.5 159.5t16.5 179q2 76 -14.5 121t-46.5 69.5t-71.5 32t-91.5 7.5h-397z" />
<glyph unicode="&#x5dd;" horiz-adv-x="1249" d="M113 1124h639q104 0 173.5 -31.5t112.5 -87t60.5 -129t17.5 -159.5v-717h-917v819q0 8 2 24.5t7 37t16.5 42t29.5 40.5v8h-139zM373 154h569v604q0 98 -57.5 155.5t-157.5 57.5h-319q-35 0 -35 -45v-772z" />
<glyph unicode="&#x5de;" horiz-adv-x="1234" d="M94 971v153h182q72 0 104 -43t32 -145h16q8 37 31.5 72.5t61.5 64.5t86 47.5t106 18.5q109 0 189.5 -43t135 -114t81 -162t26.5 -189v-60q0 -96 -16.5 -197.5t-56.5 -184.5t-108.5 -136t-172.5 -53h-199v154h180q84 0 140.5 80.5t56.5 246.5v137q0 88 -19.5 157 t-53.5 115t-77 69.5t-90 23.5q-104 -2 -175 -53t-115 -134t-64.5 -187.5t-23.5 -211t8.5 -206t31.5 -171.5l-16 -20h-156q-27 92 -35 176t-5 165t17.5 160t34.5 163q8 33 14.5 55t10.5 39.5t7 35t5 42.5q2 49 1 76.5t-12 40t-31.5 15.5t-55.5 3h-76z" />
<glyph unicode="&#x5df;" horiz-adv-x="616" d="M78 971v153h229q94 0 133 -50t39 -148v-1192h-174v1095q0 82 -1 112t-34 30h-192z" />
<glyph unicode="&#x5e0;" horiz-adv-x="757" d="M100 0v154h351v694q0 63 -28 93t-63 30h-227v153h221q127 0 199 -83t72 -214v-827h-525z" />
<glyph unicode="&#xf8ff;" horiz-adv-x="757" d="M100 0v154h351v694q0 63 -28 93t-63 30h-227v153h221q127 0 199 -83t72 -214v-827h-525z" />
<glyph unicode="&#x5e1;" horiz-adv-x="1263" d="M127 971v153h596q82 0 158.5 -22.5t137 -75.5t98.5 -140t42 -216q6 -154 -20.5 -285t-95 -224t-185.5 -140.5t-291 -32.5q-125 10 -205.5 72.5t-126 153.5t-58.5 199.5t-2 211t43 186.5t79 127v33h-170zM336 498.5q2 -101.5 33.5 -183.5t98.5 -135t177 -51q100 2 169 41 t110 107.5t55 166t6 215.5q-8 113 -40 176.5t-71.5 93t-80.5 36t-68 6.5h-233q-45 -33 -82 -108t-56.5 -169t-17.5 -195.5z" />
<glyph unicode="&#x5e2;" horiz-adv-x="1230" d="M86 971v153h201q53 0 86 -10t51 -32.5t25.5 -61.5t7.5 -94v-224q0 -72 2 -131t15 -117.5t40 -120t76 -138.5q168 84 251 218t83 277v238q0 25 -9.5 34t-25.5 9h-193v153h230q94 0 133 -50t39 -148v-193q0 -133 -42 -242.5t-112 -197.5t-162 -155.5t-194.5 -119t-208 -86 t-199.5 -55.5l-30 152q51 12 90 24.5t71.5 26.5t63.5 27.5t65 29.5q-49 80 -79.5 150.5t-48 139.5t-23.5 142.5t-6 159.5v215q0 27 -27 27h-170z" />
<glyph unicode="&#x5e3;" horiz-adv-x="1136" d="M115 1124h524q104 0 174 -31.5t113 -87t60.5 -129t17.5 -159.5v-1028h-175v1069q0 98 -57 155.5t-158 57.5h-206q-29 0 -49.5 -35t-33 -91.5t-16.5 -126t0 -136.5h193v-154h-320l-35 133q-6 254 84 393v17h-114z" />
<glyph unicode="&#x5e4;" horiz-adv-x="1142" d="M127 1124h532q104 0 177 -42t119 -109.5t67.5 -151.5t21.5 -170v-100q0 -96 -15 -194.5t-55 -177.5t-107.5 -129t-172.5 -50h-542v154h524q84 0 139 76.5t55 242.5v219q0 125 -56 202t-157 77h-229q-31 0 -52.5 -28t-34.5 -76t-17.5 -111.5t0.5 -132.5h196v-154h-325 l-37 133q0 63 4 112.5t15 91.5t27.5 78t39.5 70v17h-115z" />
<glyph unicode="&#x5e8;" horiz-adv-x="962" d="M90 971v153h375q104 0 174 -31.5t113 -87t60 -129t17 -159.5v-715h-174v756q0 98 -57 155.5t-158 57.5h-350z" />
<glyph unicode="&#x5f0;" horiz-adv-x="1234" d="M82 971v153h229q94 0 133 -50t39 -148v-926h-174v829q0 82 -1 112t-34 30h-192zM682 971v153h229q94 0 133 -50t39 -148v-926h-174v829q0 82 -1 112t-34 30h-192z" />
<glyph unicode="&#x5f1;" horiz-adv-x="1208" d="M655 971v153h229q94 0 133 -50t39 -148v-926h-174v829q0 82 -1 112t-34 30h-192zM86 971v153h242q94 0 133 -50t39 -148v-394h-174v297q0 82 -1 112t-34 30h-205z" />
<glyph unicode="&#x5f2;" horiz-adv-x="1224" d="M86 971v153h242q94 0 133 -50t39 -148v-394h-174v297q0 82 -1 112t-34 30h-205zM664 971v153h242q94 0 133 -50t39 -148v-394h-174v297q0 82 -1 112t-34 30h-205z" />
<glyph unicode="&#x5f3;" horiz-adv-x="466" d="M82 840l115 411q16 45 34 45h121q33 0 33 -28q0 -6 -76 -189q-6 -14 -15 -33.5t-20 -41.5l-65 -142q-20 -51 -92 -51q-35 0 -35 29z" />
<glyph unicode="&#x25ca;" horiz-adv-x="466" d="M82 840l115 411q16 45 34 45h121q33 0 33 -28q0 -6 -76 -189q-6 -14 -15 -33.5t-20 -41.5l-65 -142q-20 -51 -92 -51q-35 0 -35 29z" />
<glyph unicode="&#x5f4;" horiz-adv-x="712" d="M49 840q0 -8 30 95t87 316q12 45 35 45h121q31 0 30 -28q0 -12 -76 -189l-24 -57q-23 -47 -41 -88t-35 -72q-8 -16 -15 -27.5t-20 -15.5q-12 -8 -53 -8q-39 0 -39 29zM360 840l115 411q12 45 35 45h121q33 0 33 -28q0 -14 -78 -189q-4 -14 -13.5 -33.5t-19.5 -41.5 l-66 -142q-25 -51 -90 -51q-37 0 -37 29z" />
<glyph unicode="&#x2000;" horiz-adv-x="1024" />
<glyph unicode="&#x2001;" horiz-adv-x="2048" />
<glyph unicode="&#x2002;" horiz-adv-x="1024" />
<glyph unicode="&#x2003;" horiz-adv-x="2048" />
<glyph unicode="&#x2004;" horiz-adv-x="681" />
<glyph unicode="&#x2005;" horiz-adv-x="512" />
<glyph unicode="&#x2006;" horiz-adv-x="339" />
<glyph unicode="&#x2007;" horiz-adv-x="1138" />
<glyph unicode="&#x2008;" horiz-adv-x="432" />
<glyph unicode="&#x2009;" horiz-adv-x="204" />
<glyph unicode="&#x200a;" horiz-adv-x="20" />
<glyph unicode="&#x200b;" />
<glyph unicode="&#x200c;" horiz-adv-x="45" d="M0 0v1628h45v-1628h-45z" />
<glyph unicode="&#x200d;" horiz-adv-x="45" d="M-115 1495l109 109l-109 106l31 31l107 -109l106 109l31 -31l-107 -106l107 -109l-31 -29l-84 84v-1550h-45v1550l-84 -84z" />
<glyph unicode="&#x2010;" horiz-adv-x="796" d="M102 487v164h592v-164h-592z" />
<glyph unicode="&#x2011;" horiz-adv-x="796" d="M102 487v164h592v-164h-592z" />
<glyph unicode="&#x2012;" horiz-adv-x="1138" d="M102 487v164h934v-164h-934z" />
<glyph unicode="&#x2013;" horiz-adv-x="929" d="M25 614l69 168h809l-69 -168h-809z" />
<glyph unicode="&#x2014;" horiz-adv-x="1859" d="M25 614l69 168h1731l-70 -168h-1730z" />
<glyph unicode="&#x2015;" horiz-adv-x="4096" d="M102 487v164h3892v-164h-3892z" />
<glyph unicode="&#x2016;" horiz-adv-x="761" d="M494 -225v1804l155 45v-1804zM113 -225v1804l155 45v-1804z" />
<glyph unicode="&#x2018;" horiz-adv-x="544" d="M86 -223l117 411q8 45 30 45h125q33 0 33 -26q0 -18 -80 -193q-8 -20 -16 -38.5t-19 -36.5l-63 -140q-25 -53 -90 -53q-37 0 -37 31z" />
<glyph unicode="&#x2019;" horiz-adv-x="432" d="M86 39v115q0 43 35 43h123q35 0 35 -43v-115q0 -41 -35 -41h-123q-35 0 -35 41z" />
<glyph unicode="&#x201c;" horiz-adv-x="712" d="M49 -125q0 -8 30 95.5t87 316.5q12 45 35 45h121q31 0 30 -29q0 -12 -76 -188l-24 -58q-23 -47 -41 -88t-35 -71q-8 -16 -15 -27.5t-20 -15.5q-12 -8 -53 -9q-39 0 -39 29zM360 -125l115 412q12 45 35 45h121q33 0 33 -29q0 -14 -78 -188q-4 -14 -13.5 -34t-19.5 -42 l-66 -141q-25 -51 -90 -52q-37 0 -37 29z" />
<glyph unicode="&#x201d;" horiz-adv-x="712" d="M49 840q0 -8 30 95t87 316q12 45 35 45h121q31 0 30 -28q0 -12 -76 -189l-24 -57q-23 -47 -41 -88t-35 -72q-8 -16 -15 -27.5t-20 -15.5q-12 -8 -53 -8q-39 0 -39 29zM360 840l115 411q12 45 35 45h121q33 0 33 -28q0 -14 -78 -189q-4 -14 -13.5 -33.5t-19.5 -41.5 l-66 -142q-25 -51 -90 -51q-37 0 -37 29z" />
<glyph unicode="&#x2022;" horiz-adv-x="1062" d="M115 643q0 172 118 291q121 121 293 121q170 0 291 -121t121 -291q0 -172 -121 -293t-291 -121q-172 0 -293 121q-118 119 -118 293z" />
<glyph unicode="&#x2024;" horiz-adv-x="432" d="M86 39v115q0 43 35 43h123q35 0 35 -43v-115q0 -41 -35 -41h-123q-35 0 -35 41z" />
<glyph unicode="&#x2025;" horiz-adv-x="864" d="M518 39v115q0 43 35 43h123q35 0 35 -43v-115q0 -41 -35 -41h-123q-35 0 -35 41zM86 39v115q0 43 35 43h123q35 0 35 -43v-115q0 -41 -35 -41h-123q-35 0 -35 41z" />
<glyph unicode="&#x202a;" />
<glyph unicode="&#x202f;" horiz-adv-x="368" />
<glyph unicode="&#x2032;" horiz-adv-x="466" d="M82 840l115 411q16 45 34 45h121q33 0 33 -28q0 -6 -76 -189q-6 -14 -15 -33.5t-20 -41.5l-65 -142q-20 -51 -92 -51q-35 0 -35 29z" />
<glyph unicode="&#x2033;" horiz-adv-x="933" d="M549 840l115 411q16 45 34 45h121q33 0 33 -28q0 -6 -76 -189q-6 -14 -15 -33.5t-20 -41.5l-65 -142q-20 -51 -92 -51q-35 0 -35 29zM82 840l115 411q16 45 34 45h121q33 0 33 -28q0 -6 -76 -189q-6 -14 -15 -33.5t-20 -41.5l-65 -142q-20 -51 -92 -51q-35 0 -35 29z" />
<glyph unicode="&#x2034;" horiz-adv-x="1400" d="M1016 840l115 411q16 45 34 45h121q33 0 33 -28q0 -6 -76 -189q-6 -14 -15 -33.5t-20 -41.5l-65 -142q-20 -51 -92 -51q-35 0 -35 29zM549 840l115 411q16 45 34 45h121q33 0 33 -28q0 -6 -76 -189q-6 -14 -15 -33.5t-20 -41.5l-65 -142q-20 -51 -92 -51q-35 0 -35 29z M82 840l115 411q16 45 34 45h121q33 0 33 -28q0 -6 -76 -189q-6 -14 -15 -33.5t-20 -41.5l-65 -142q-20 -51 -92 -51q-35 0 -35 29z" />
<glyph unicode="&#x2039;" horiz-adv-x="851" d="M162 582q45 39 109.5 95t150.5 132l147 139q125 117 133 117q25 0 25 -29q0 -35 -328 -461q47 -59 93.5 -116.5t93.5 -116.5q143 -186 143 -229q0 -29 -27 -29q-10 0 -153 143q-23 23 -118 111t-269 244z" />
<glyph unicode="&#x203a;" horiz-adv-x="851" d="M123 1036q0 29 29 29q10 0 153 -143q35 -33 131 -121t256 -232q-45 -39 -109.5 -95t-150.5 -132q-45 -45 -111.5 -107.5t-158.5 -148.5l-10 -2q-27 0 -27 29q0 35 328 460q-47 57 -92.5 114.5t-90.5 117.5q-147 186 -147 231z" />
<glyph unicode="&#x203c;" horiz-adv-x="1060" d="M682 0v227h227v-227h-227zM698 1012v450h194v-450l-51 -637h-92zM152 0v227h227v-227h-227zM168 1012v450h194v-450l-51 -637h-92z" />
<glyph unicode="&#x203e;" horiz-adv-x="409" d="M-295.401 406.389h104.995q2.40039 -84.5957 48.8984 -138.294t136.494 -53.6982q37.7988 0 72.2979 11.7002q34.498 11.6992 60.2969 33.2979q25.7988 21.5996 41.0986 52.7988q15.2988 31.1982 15.2988 70.7969q0 40.7979 -14.6992 71.9971 q-14.6992 31.1982 -39.2979 52.498q-24.5996 21.2988 -59.0977 31.7979q-34.499 10.5 -72.2969 10.5q-32.999 0 -62.998 -3.59961v88.1963q6 -1.2002 12 -1.2002h11.3994h22.1992q32.998 0 63.2969 9.2998t53.0977 27.2988q22.7998 17.999 36.2988 44.3984 q13.5 26.3984 13.5 61.7969q0 70.1973 -44.3984 104.996t-110.396 34.7988q-43.1982 0 -73.7969 -15.2998q-30.5986 -15.2988 -50.998 -41.0977q-20.3994 -25.7998 -30.2988 -59.998t-9.89941 -72.5967h-104.396q2.40039 62.3975 20.3994 114.295t50.998 88.4961 t82.7969 57.5977t115.195 20.999q56.3975 0 104.995 -14.0986q48.5986 -14.0996 83.9971 -42.2988q35.3984 -28.1982 55.7979 -72.5967t20.3994 -104.396q0 -58.7979 -34.499 -104.396q-34.498 -45.5977 -86.0967 -68.9971v-2.39941q79.7969 -17.3994 118.495 -74.9971 q38.6992 -57.5977 38.6992 -136.194q0 -65.3975 -23.6992 -115.195t-64.498 -82.7969q-40.7979 -32.999 -95.3955 -50.3975q-54.5977 -17.3994 -115.796 -17.3994q-66.5967 0 -120.595 19.1992t-92.0967 55.4971q-38.0977 36.2988 -58.4971 89.0967t-19.1992 120.595z" />
<glyph unicode="&#x2047;" horiz-adv-x="2277" d="M1252 1006q-2 104 28.5 194t91 156.5t146.5 103.5t192 37q94 0 174 -27.5t137.5 -80t89.5 -128t32 -174.5q0 -63 -15.5 -113t-40 -91t-56.5 -76t-65 -68q-33 -31 -64.5 -62.5t-57 -67.5t-41 -79t-15.5 -94v-80h-174v97q4 86 32 146t67.5 107.5t83.5 87.5t82 84t60.5 97 t18.5 129q-8 113 -72.5 176t-175.5 63q-74 0 -127 -26.5t-89 -71.5t-52 -107.5t-16 -131.5h-174zM1585 0v227h228v-227h-228zM113 1006q-2 104 28.5 194t91 156.5t146.5 103.5t192 37q94 0 174 -27.5t137.5 -80t89.5 -128t32 -174.5q0 -63 -15.5 -113t-40 -91t-56.5 -76 t-65 -68q-33 -31 -64.5 -62.5t-57 -67.5t-41 -79t-15.5 -94v-80h-174v97q4 86 32 146t67.5 107.5t83.5 87.5t82 84t60.5 97t18.5 129q-8 113 -72.5 176t-175.5 63q-74 0 -127 -26.5t-89 -71.5t-52 -107.5t-16 -131.5h-174zM446 0v227h228v-227h-228z" />
<glyph unicode="&#x2048;" horiz-adv-x="1669" d="M1291 0v227h227v-227h-227zM1307 1012v450h194v-450l-51 -637h-92zM113 1006q-2 104 28.5 194t91 156.5t146.5 103.5t192 37q94 0 174 -27.5t137.5 -80t89.5 -128t32 -174.5q0 -63 -15.5 -113t-40 -91t-56.5 -76t-65 -68q-33 -31 -64.5 -62.5t-57 -67.5t-41 -79 t-15.5 -94v-80h-174v97q4 86 32 146t67.5 107.5t83.5 87.5t82 84t60.5 97t18.5 129q-8 113 -72.5 176t-175.5 63q-74 0 -127 -26.5t-89 -71.5t-52 -107.5t-16 -131.5h-174zM446 0v227h228v-227h-228z" />
<glyph unicode="&#x2049;" horiz-adv-x="1669" d="M643 1006q-2 104 28.5 194t91 156.5t146.5 103.5t192 37q94 0 174 -27.5t137.5 -80t89.5 -128t32 -174.5q0 -63 -15.5 -113t-40 -91t-56.5 -76t-65 -68q-33 -31 -64.5 -62.5t-57 -67.5t-41 -79t-15.5 -94v-80h-174v97q4 86 32 146t67.5 107.5t83.5 87.5t82 84t60.5 97 t18.5 129q-8 113 -72.5 176t-175.5 63q-74 0 -127 -26.5t-89 -71.5t-52 -107.5t-16 -131.5h-174zM976 0v227h228v-227h-228zM152 0v227h227v-227h-227zM168 1012v450h194v-450l-51 -637h-92z" />
<glyph unicode="&#x2057;" horiz-adv-x="1867" d="M1483 840l115 411q16 45 34 45h121q33 0 33 -28q0 -6 -76 -189q-6 -14 -15 -33.5t-20 -41.5l-65 -142q-20 -51 -92 -51q-35 0 -35 29zM1016 840l115 411q16 45 34 45h121q33 0 33 -28q0 -6 -76 -189q-6 -14 -15 -33.5t-20 -41.5l-65 -142q-20 -51 -92 -51q-35 0 -35 29z M549 840l115 411q16 45 34 45h121q33 0 33 -28q0 -6 -76 -189q-6 -14 -15 -33.5t-20 -41.5l-65 -142q-20 -51 -92 -51q-35 0 -35 29zM82 840l115 411q16 45 34 45h121q33 0 33 -28q0 -6 -76 -189q-6 -14 -15 -33.5t-20 -41.5l-65 -142q-20 -51 -92 -51q-35 0 -35 29z" />
<glyph unicode="&#x205f;" horiz-adv-x="460" />
<glyph unicode="&#x2060;" />
<glyph unicode="&#xe000;" horiz-adv-x="770" d="M0 770h770v-770h-770v770z" />
<glyph unicode="&#xfb00;" horiz-adv-x="1441" d="M762 0v49h158v680h-156v49h156v74q0 221 43 313q80 170 254 170q72 0 129 -32q72 -41 71 -105q0 -78 -75 -78q-82 0 -82 74q0 47 47 70q0 23 -86 22q-100 0 -101 -137v-371h170v-49h-170v-680h158v-49h-516zM41 0v49h158v680h-156v49h156v74q0 221 43 313q80 170 254 170 q72 0 129 -32q72 -41 71 -105q0 -78 -75 -78q-82 0 -82 74q0 47 47 70q0 23 -86 22q-100 0 -101 -137v-371h170v-49h-170v-680h158v-49h-516z" />
<glyph unicode="&#xfb01;" horiz-adv-x="1341" d="M789 0v49h157v680h-157v49h356v-729h160v-49h-516zM926 1126q0 47 34.5 79t84.5 32q49 0 83.5 -31.5t34.5 -79.5q0 -47 -35.5 -77.5t-82.5 -30.5t-83 30.5t-36 77.5zM41 0v49h158v680h-156v49h156v74q0 221 43 313q80 170 254 170q72 0 129 -32q72 -41 71 -105 q0 -78 -75 -78q-82 0 -82 74q0 47 47 70q0 23 -86 22q-100 0 -101 -137v-371h170v-49h-170v-680h158v-49h-516z" />
<glyph unicode="&#xfb02;" horiz-adv-x="1323" d="M787 0v49h147v1223h-147v49h346v-1272h147v-49h-493zM41 0v49h158v680h-156v49h156v74q0 221 43 313q80 170 254 170q72 0 129 -32q72 -41 71 -105q0 -78 -75 -78q-82 0 -82 74q0 47 47 70q0 23 -86 22q-100 0 -101 -137v-371h170v-49h-170v-680h158v-49h-516z" />
<glyph unicode="&#xfb03;" horiz-adv-x="2062" d="M1510 0v49h157v680h-157v49h356v-729h160v-49h-516zM1647 1126q0 47 34.5 79t84.5 32q49 0 83.5 -31.5t34.5 -79.5q0 -47 -35.5 -77.5t-82.5 -30.5t-83 30.5t-36 77.5zM762 0v49h158v680h-156v49h156v74q0 221 43 313q80 170 254 170q72 0 129 -32q72 -41 71 -105 q0 -78 -75 -78q-82 0 -82 74q0 47 47 70q0 23 -86 22q-100 0 -101 -137v-371h170v-49h-170v-680h158v-49h-516zM41 0v49h158v680h-156v49h156v74q0 221 43 313q80 170 254 170q72 0 129 -32q72 -41 71 -105q0 -78 -75 -78q-82 0 -82 74q0 47 47 70q0 23 -86 22 q-100 0 -101 -137v-371h170v-49h-170v-680h158v-49h-516z" />
<glyph unicode="&#xfb04;" horiz-adv-x="2043" d="M1508 0v49h147v1223h-147v49h346v-1272h147v-49h-493zM762 0v49h158v680h-156v49h156v74q0 221 43 313q80 170 254 170q72 0 129 -32q72 -41 71 -105q0 -78 -75 -78q-82 0 -82 74q0 47 47 70q0 23 -86 22q-100 0 -101 -137v-371h170v-49h-170v-680h158v-49h-516zM41 0v49 h158v680h-156v49h156v74q0 221 43 313q80 170 254 170q72 0 129 -32q72 -41 71 -105q0 -78 -75 -78q-82 0 -82 74q0 47 47 70q0 23 -86 22q-100 0 -101 -137v-371h170v-49h-170v-680h158v-49h-516z" />
<glyph unicode="&#xfb06;" horiz-adv-x="1464" d="M791 727v49h143v217l201 92v-309h205v-49h-205v-518q0 -176 127 -176q111 0 133 133q4 29 29 29q20 0 20 -25q0 -16 -2 -20q-35 -176 -252 -177q-119 0 -187.5 61.5t-68.5 178.5v514h-143zM88 8v207q0 25 23 25q18 0 24 -25q55 -195 266 -195q80 0 138 33q74 39 73 113 q0 86 -125 129q-16 2 -196 43q-188 41 -189 207q0 59 22.5 106t61.5 80t91.5 50.5t113.5 17.5q96 0 160 -51l41 38l6 5q8 8 16 8q14 0 15 -23v-207q0 -20 -17 -20q-20 0 -22 18q-14 82 -69.5 132.5t-141.5 50.5q-63 0 -115 -31q-61 -35 -61 -92q0 -61 123 -99q45 -10 89 -19 t89 -20q199 -57 198 -245q0 -129 -81.5 -200t-212.5 -71q-156 0 -238 76l-39 -51q-8 -14 -20 -14q-23 -1 -23 24z" />
<glyph unicode="&#xfb1d;" horiz-adv-x="647" d="M86 971v153h242q94 0 133 -50t39 -148v-394h-174v297q0 82 -1 112t-34 30h-205zM324 -256q0 35 24.5 59.5t61.5 24.5t61.5 -23.5t24.5 -60.5t-24.5 -61.5t-61.5 -24.5t-61.5 24.5t-24.5 61.5z" />
<glyph unicode="&#xfb1e;" horiz-adv-x="1841" d="M90 971v153h1215q104 0 180 -20.5t125 -69.5t72.5 -132t23.5 -206q0 -90 -20.5 -171t-59.5 -163.5t-97.5 -171t-135.5 -190.5h-170l-2 45q86 111 144 197t94 162.5t52.5 154.5t20.5 174q2 76 -17.5 123t-53.5 72.5t-79 34t-94 8.5h-1198z" />
<glyph unicode="&#xfb1f;" horiz-adv-x="1224" d="M86 971v153h242q94 0 133 -50t39 -148v-394h-174v297q0 82 -1 112t-34 30h-205zM664 971v153h242q94 0 133 -50t39 -148v-394h-174v297q0 82 -1 112t-34 30h-205z" />
<glyph unicode="&#xfb20;" horiz-adv-x="1230" d="M86 971v153h201q53 0 86 -10t51 -32.5t25.5 -61.5t7.5 -94v-224q0 -72 2 -131t15 -117.5t40 -120t76 -138.5q168 84 251 218t83 277v238q0 25 -9.5 34t-25.5 9h-193v153h230q94 0 133 -50t39 -148v-193q0 -133 -42 -242.5t-112 -197.5t-162 -155.5t-194.5 -119t-208 -86 t-199.5 -55.5l-30 152q51 12 90 24.5t71.5 26.5t63.5 27.5t65 29.5q-49 80 -79.5 150.5t-48 139.5t-23.5 142.5t-6 159.5v215q0 27 -27 27h-170z" />
<glyph unicode="&#xfb21;" horiz-adv-x="1808" d="M104 0v154h1246q86 66 111.5 143.5t25.5 151.5v272q0 115 -54.5 182.5t-154.5 67.5h-1172v153h1170q104 0 177 -34.5t119 -94t67.5 -140.5t21.5 -175v-188q0 -49 -15.5 -100.5t-38 -97.5t-50 -84t-54.5 -56h223l-2 -154h-1620z" />
<glyph unicode="&#xfb22;" horiz-adv-x="1886" d="M80 971v153h1681v-153h-100q-39 0 -57.5 -40t-18.5 -97v-834h-174v754q0 39 13.5 96t60.5 104v17h-1405z" />
<glyph unicode="&#xfb23;" horiz-adv-x="1970" d="M143 0v324q0 41 1 91t13.5 104t38 108.5t74.5 103.5l95 -69q-39 -74 -43.5 -142.5t-4.5 -138.5v-381h-174zM143 971v153h1330q104 0 173.5 -31.5t112.5 -87t60.5 -129t17.5 -159.5v-717h-174v758q0 98 -57.5 155.5t-157.5 57.5h-1305z" />
<glyph unicode="&#xfb24;" horiz-adv-x="1775" d="M98 0v154h1213q84 0 139 76.5t55 242.5v219q0 125 -56 202t-157 77h-1194v153h1196q104 0 177 -42t119 -109.5t67.5 -151.5t21.5 -170v-100q0 -96 -15 -194.5t-55 -177.5t-107.5 -129t-172.5 -50h-1231z" />
<glyph unicode="&#xfb25;" horiz-adv-x="1808" d="M88 971v497h174v-344h1059q104 0 177 -17t119 -62.5t65.5 -125t19.5 -202.5q-2 -180 -79 -356.5t-255 -360.5h-176l-2 45q102 106 167.5 192.5t102.5 165t51.5 159.5t16.5 179q2 76 -14.5 121t-46 69.5t-71.5 32t-91 7.5h-1217z" />
<glyph unicode="&#xfb26;" horiz-adv-x="2068" d="M113 1124h1458q104 0 174 -31.5t113 -87t60 -129t17 -159.5v-717h-1736v819q0 8 2 24.5t7 37t16.5 42t29.5 40.5v8h-139zM373 154h1388v604q0 98 -57 155.5t-158 57.5h-1138q-35 0 -35 -45v-772z" />
<glyph unicode="&#xfb27;" horiz-adv-x="1781" d="M90 971v153h1194q104 0 174 -31.5t113 -87t60.5 -129t17.5 -159.5v-715h-174v756q0 98 -57.5 155.5t-157.5 57.5h-1170z" />
<glyph unicode="&#xfb28;" horiz-adv-x="2052" d="M72 0v154h188q-33 172 -37 296.5t11.5 217t47 160t70.5 126.5v17h-217l-2 153h1428q104 0 172.5 -31.5t110.5 -87t58.5 -129t16.5 -159.5v-717h-174v758q0 98 -54.5 155.5t-154.5 57.5h-989q-39 0 -67.5 -46t-47 -120t-27 -165t-6.5 -182t14.5 -172t35.5 -132l-52 -154 h-325z" />
<glyph unicode="&#xfb29;" horiz-adv-x="1183" d="M29 584v172h448v448h170v-448h449v-172h-1067z" />
<glyph unicode="&#xfb2a;" horiz-adv-x="1511" d="M86 971v153h221q35 0 72 -23.5t37 -80.5v-535q63 6 120.5 23.5t100.5 50.5t68.5 85t25.5 128v162q0 37 -35 37h-114v153l2 -2v2h161q94 0 125 -40t31 -117v-158q0 -129 -45 -212t-114.5 -133t-152.5 -76t-157 -38q10 -70 44 -112.5t84 -66.5t113.5 -31t135.5 -7 q123 2 202 44t124 115t61 172t16 216v254q0 37 -34 37h-117v153h149q94 0 133 -50t39 -148v-211q0 -147 -24.5 -283.5t-93 -239t-191.5 -161t-319 -49.5q-158 6 -256.5 49t-154.5 113.5t-76.5 163.5t-20.5 200v463h-160zM1126 1405q0 35 26 60.5t60 25.5q37 0 61.5 -24.5 t24.5 -61.5t-24.5 -61.5t-61.5 -24.5t-61.5 24.5t-24.5 61.5z" />
<glyph unicode="&#xfb2b;" horiz-adv-x="1511" d="M86 971v153h221q35 0 72 -23.5t37 -80.5v-535q63 6 120.5 23.5t100.5 50.5t68.5 85t25.5 128v162q0 37 -35 37h-114v153l2 -2v2h161q94 0 125 -40t31 -117v-158q0 -129 -45 -212t-114.5 -133t-152.5 -76t-157 -38q10 -70 44 -112.5t84 -66.5t113.5 -31t135.5 -7 q123 2 202 44t124 115t61 172t16 216v254q0 37 -34 37h-117v153h149q94 0 133 -50t39 -148v-211q0 -147 -24.5 -283.5t-93 -239t-191.5 -161t-319 -49.5q-158 6 -256.5 49t-154.5 113.5t-76.5 163.5t-20.5 200v463h-160zM160 1411q0 35 25.5 60.5t60.5 25.5q37 0 61.5 -24.5 t24.5 -61.5t-24.5 -61.5t-61.5 -24.5t-61.5 24.5t-24.5 61.5z" />
<glyph unicode="&#xfb2c;" horiz-adv-x="1511" d="M86 971v153h221q35 0 72 -23.5t37 -80.5v-535q63 6 120.5 23.5t100.5 50.5t68.5 85t25.5 128v162q0 37 -35 37h-114v153l2 -2v2h161q94 0 125 -40t31 -117v-158q0 -129 -45 -212t-114.5 -133t-152.5 -76t-157 -38q10 -70 44 -112.5t84 -66.5t113.5 -31t135.5 -7 q123 2 202 44t124 115t61 172t16 216v254q0 37 -34 37h-117v153h149q94 0 133 -50t39 -148v-211q0 -147 -24.5 -283.5t-93 -239t-191.5 -161t-319 -49.5q-158 6 -256.5 49t-154.5 113.5t-76.5 163.5t-20.5 200v463h-160zM1126 1405q0 35 26 60.5t60 25.5q37 0 61.5 -24.5 t24.5 -61.5t-24.5 -61.5t-61.5 -24.5t-61.5 24.5t-24.5 61.5zM948 578q0 35 24.5 59.5t59.5 24.5t59.5 -24.5t24.5 -59.5t-24.5 -59.5t-59.5 -24.5t-59.5 24.5t-24.5 59.5z" />
<glyph unicode="&#xfb2d;" horiz-adv-x="1511" d="M86 971v153h221q35 0 72 -23.5t37 -80.5v-535q63 6 120.5 23.5t100.5 50.5t68.5 85t25.5 128v162q0 37 -35 37h-114v153l2 -2v2h161q94 0 125 -40t31 -117v-158q0 -129 -45 -212t-114.5 -133t-152.5 -76t-157 -38q10 -70 44 -112.5t84 -66.5t113.5 -31t135.5 -7 q123 2 202 44t124 115t61 172t16 216v254q0 37 -34 37h-117v153h149q94 0 133 -50t39 -148v-211q0 -147 -24.5 -283.5t-93 -239t-191.5 -161t-319 -49.5q-158 6 -256.5 49t-154.5 113.5t-76.5 163.5t-20.5 200v463h-160zM160 1411q0 35 25.5 60.5t60.5 25.5q37 0 61.5 -24.5 t24.5 -61.5t-24.5 -61.5t-61.5 -24.5t-61.5 24.5t-24.5 61.5zM948 578q0 35 24.5 59.5t59.5 24.5t59.5 -24.5t24.5 -59.5t-24.5 -59.5t-59.5 -24.5t-59.5 24.5t-24.5 59.5z" />
<glyph unicode="&#xfb2e;" horiz-adv-x="1208" d="M109 0v121l131 31q2 4 4 10t4 10q-43 72 -60.5 158t-4 173t60.5 172t131 156q-20 29 -34.5 46.5t-27 30t-28 26.5t-39.5 37h-125v153h198q51 -49 100.5 -103t104 -120.5t114.5 -148.5t134 -189q53 18 89 58.5t52.5 95.5t12.5 120.5t-31 133.5h-162v153h285l29 -37 q66 -248 7 -410.5t-206 -234.5q59 -82 118.5 -190.5t118.5 -226.5q-4 -6 -5 -12.5t-5 -12.5h-170q-53 115 -112.5 222.5t-118 201.5t-112.5 169t-97 122q-55 -43 -90 -111.5t-40 -146.5t21.5 -161t94.5 -155q16 -18 13 -40.5t-13 -39.5l-31 -61h-311zM440 -190h388v-109 h-388v109z" />
<glyph unicode="&#xfb2f;" horiz-adv-x="1208" d="M109 0v121l131 31q2 4 4 10t4 10q-43 72 -60.5 158t-4 173t60.5 172t131 156q-20 29 -34.5 46.5t-27 30t-28 26.5t-39.5 37h-125v153h198q51 -49 100.5 -103t104 -120.5t114.5 -148.5t134 -189q53 18 89 58.5t52.5 95.5t12.5 120.5t-31 133.5h-162v153h285l29 -37 q66 -248 7 -410.5t-206 -234.5q59 -82 118.5 -190.5t118.5 -226.5q-4 -6 -5 -12.5t-5 -12.5h-170q-53 115 -112.5 222.5t-118 201.5t-112.5 169t-97 122q-55 -43 -90 -111.5t-40 -146.5t21.5 -161t94.5 -155q16 -18 13 -40.5t-13 -39.5l-31 -61h-311zM438 -190h388v-109 h-158l-6 -92q0 -23 26 -62q29 -41 29 -61q0 -37 -24.5 -61.5t-61.5 -24.5q-35 0 -59.5 24.5t-24.5 61.5q0 25 27 63q29 41 28 60l-6 92h-158v109z" />
<glyph unicode="&#xfb30;" horiz-adv-x="1208" d="M109 0v121l131 31q2 4 4 10t4 10q-43 72 -60.5 158t-4 173t60.5 172t131 156q-20 29 -34.5 46.5t-27 30t-28 26.5t-39.5 37h-125v153h198q51 -49 100.5 -103t104 -120.5t114.5 -148.5t134 -189q53 18 89 58.5t52.5 95.5t12.5 120.5t-31 133.5h-162v153h285l29 -37 q66 -248 7 -410.5t-206 -234.5q59 -82 118.5 -190.5t118.5 -226.5q-4 -6 -5 -12.5t-5 -12.5h-170q-53 115 -112.5 222.5t-118 201.5t-112.5 169t-97 122q-55 -43 -90 -111.5t-40 -146.5t21.5 -161t94.5 -155q16 -18 13 -40.5t-13 -39.5l-31 -61h-311zM508 221 q0 35 24.5 59.5t59.5 24.5t59.5 -24.5t24.5 -59.5t-24.5 -59.5t-59.5 -24.5t-59.5 24.5t-24.5 59.5z" />
<glyph unicode="&#xfb31;" horiz-adv-x="989" d="M104 0v154h426q86 66 112 143.5t26 151.5v272q0 115 -54.5 182.5t-154.5 67.5h-353v153h351q104 0 177 -34.5t119 -94t67.5 -140.5t21.5 -175v-188q0 -49 -15.5 -100.5t-38 -97.5t-50 -84t-54.5 -56h223l-2 -154h-801zM252 580q0 35 24.5 59.5t59.5 24.5t59.5 -24.5 t24.5 -59.5t-24.5 -59.5t-59.5 -24.5t-59.5 24.5t-24.5 59.5z" />
<glyph unicode="&#xfb32;" horiz-adv-x="782" d="M143 658q0 35 24.5 59.5t59.5 24.5t59.5 -24.5t24.5 -59.5t-24.5 -59.5t-59.5 -24.5t-59.5 24.5t-24.5 59.5zM72 -8v158q121 25 200.5 85t128 133.5t67.5 147.5t19 123v209q0 63 -27.5 93t-62.5 30h-239v153h221q127 0 198.5 -83t71.5 -214v-827h-164l-2 328h-20 q-37 -109 -79 -172.5t-90 -97t-103.5 -47t-118.5 -19.5z" />
<glyph unicode="&#xfb33;" horiz-adv-x="1067" d="M80 971v153h862v-153h-100q-39 0 -57.5 -40t-18.5 -97v-834h-174v754q0 39 13 96t61 104v17h-586zM250 721q0 35 24.5 59.5t59.5 24.5t59.5 -24.5t24.5 -59.5t-24.5 -59.5t-59.5 -24.5t-59.5 24.5t-24.5 59.5z" />
<glyph unicode="&#xfb34;" horiz-adv-x="1150" d="M143 0v324q0 41 1 91t13.5 104t38 108.5t74.5 103.5l95 -69q-39 -74 -43.5 -142.5t-4.5 -138.5v-381h-174zM143 971v153h510q104 0 174 -31.5t113 -87t60.5 -129t17.5 -159.5v-717h-174v758q0 98 -57.5 155.5t-157.5 57.5h-486zM506 533q0 35 24.5 59.5t59.5 24.5 t59.5 -24.5t24.5 -59.5t-24.5 -59.5t-59.5 -24.5t-59.5 24.5t-24.5 59.5z" />
<glyph unicode="&#xfb35;" horiz-adv-x="634" d="M82 971v153h229q94 0 133 -50t39 -148v-926h-174v829q0 82 -1 112t-34 30h-192zM33 553q0 35 24.5 59.5t59.5 24.5t59.5 -24.5t24.5 -59.5t-24.5 -59.5t-59.5 -24.5t-59.5 24.5t-24.5 59.5z" />
<glyph unicode="&#xfb36;" horiz-adv-x="747" d="M109 971v153h524l-2 -112l-84 -41q-29 -14 -62.5 -78t-51 -180.5t-8.5 -286.5t67 -397l-21 -29h-158q-49 211 -55 365.5t9.5 268.5t43 194.5t49.5 142.5h-251zM14 774q0 35 24.5 59.5t59.5 24.5t59.5 -24.5t24.5 -59.5t-24.5 -59.5t-59.5 -24.5t-59.5 24.5t-24.5 59.5z " />
<glyph unicode="&#xfb38;" horiz-adv-x="1351" d="M90 971v153h180q94 0 133 -50t39 -148v-492q0 -59 16.5 -114.5t52.5 -96.5t92 -65.5t136 -22.5q100 2 163 37t98.5 100.5t49 160.5t13.5 218q0 106 -16.5 171t-41 99.5t-54 46t-56.5 11.5q-29 0 -52.5 -5t-45 -20.5t-45 -42t-52.5 -69.5l-30 4l-70 106q61 102 137 143.5 t137 41.5q82 0 150 -26t115 -83t72.5 -147t25.5 -219q0 -160 -24.5 -291t-89 -221.5t-176 -133.5t-285.5 -28q-127 10 -205 69.5t-120 139t-55.5 168t-13.5 159.5v305q0 82 -3 112t-36 30h-139zM676 537q0 35 24.5 59.5t59.5 24.5t59.5 -24.5t24.5 -59.5t-24.5 -59.5 t-59.5 -24.5t-59.5 24.5t-24.5 59.5z" />
<glyph unicode="&#xfb39;" horiz-adv-x="647" d="M86 971v153h242q94 0 133 -50t39 -148v-394h-174v297q0 82 -1 112t-34 30h-205zM47 783q0 35 24.5 59.5t59.5 24.5t59.5 -24.5t24.5 -59.5t-24.5 -59.5t-59.5 -24.5t-59.5 24.5t-24.5 59.5z" />
<glyph unicode="&#xfb3a;" horiz-adv-x="958" d="M78 971v153h373q104 0 175.5 -31.5t115.5 -87t63.5 -129t19.5 -159.5v-1028h-174v1069q0 98 -57 155.5t-158 57.5h-358zM276 619q0 35 24.5 59.5t59.5 24.5t59.5 -24.5t24.5 -59.5t-24.5 -59.5t-59.5 -24.5t-59.5 24.5t-24.5 59.5z" />
<glyph unicode="&#xfb3b;" horiz-adv-x="956" d="M98 0v154h394q84 0 139 76.5t55 242.5v219q0 125 -56.5 202t-156.5 77h-375v153h377q104 0 177 -42t119 -109.5t67.5 -151.5t21.5 -170v-100q0 -96 -15.5 -194.5t-55 -177.5t-107.5 -129t-172 -50h-412zM268 572q0 35 24.5 59.5t59.5 24.5t59.5 -24.5t24.5 -59.5 t-24.5 -59.5t-59.5 -24.5t-59.5 24.5t-24.5 59.5z" />
<glyph unicode="&#xfb3c;" horiz-adv-x="989" d="M88 971v497h174v-344h240q104 0 177 -17t119 -62.5t65.5 -125t19.5 -202.5q-2 -180 -79 -356.5t-255 -360.5h-176l-2 45q102 106 167.5 192.5t102.5 165t51.5 159.5t16.5 179q2 76 -14.5 121t-46.5 69.5t-71.5 32t-91.5 7.5h-397zM305 615q0 35 24.5 59.5t59.5 24.5 t59.5 -24.5t24.5 -59.5t-24.5 -59.5t-59.5 -24.5t-59.5 24.5t-24.5 59.5z" />
<glyph unicode="&#xfb3e;" horiz-adv-x="1234" d="M94 971v153h182q72 0 104 -43t32 -145h16q8 37 31.5 72.5t61.5 64.5t86 47.5t106 18.5q109 0 189.5 -43t135 -114t81 -162t26.5 -189v-60q0 -96 -16.5 -197.5t-56.5 -184.5t-108.5 -136t-172.5 -53h-199v154h180q84 0 140.5 80.5t56.5 246.5v137q0 88 -19.5 157 t-53.5 115t-77 69.5t-90 23.5q-104 -2 -175 -53t-115 -134t-64.5 -187.5t-23.5 -211t8.5 -206t31.5 -171.5l-16 -20h-156q-27 92 -35 176t-5 165t17.5 160t34.5 163q8 33 14.5 55t10.5 39.5t7 35t5 42.5q2 49 1 76.5t-12 40t-31.5 15.5t-55.5 3h-76zM600 557q0 35 24.5 59.5 t59.5 24.5t59.5 -24.5t24.5 -59.5t-24.5 -59.5t-59.5 -24.5t-59.5 24.5t-24.5 59.5z" />
<glyph unicode="&#xfb40;" horiz-adv-x="757" d="M100 0v154h351v694q0 63 -28 93t-63 30h-227v153h221q127 0 199 -83t72 -214v-827h-525zM125 572q0 35 24.5 59.5t59.5 24.5t59.5 -24.5t24.5 -59.5t-24.5 -59.5t-59.5 -24.5t-59.5 24.5t-24.5 59.5z" />
<glyph unicode="&#xfb41;" horiz-adv-x="1263" d="M127 971v153h596q82 0 158.5 -22.5t137 -75.5t98.5 -140t42 -216q6 -154 -20.5 -285t-95 -224t-185.5 -140.5t-291 -32.5q-125 10 -205.5 72.5t-126 153.5t-58.5 199.5t-2 211t43 186.5t79 127v33h-170zM336 498.5q2 -101.5 33.5 -183.5t98.5 -135t177 -51q100 2 169 41 t110 107.5t55 166t6 215.5q-8 113 -40 176.5t-71.5 93t-80.5 36t-68 6.5h-233q-45 -33 -82 -108t-56.5 -169t-17.5 -195.5zM584 576q0 35 24.5 59.5t59.5 24.5t59.5 -24.5t24.5 -59.5t-24.5 -59.5t-59.5 -24.5t-59.5 24.5t-24.5 59.5z" />
<glyph unicode="&#xfb43;" horiz-adv-x="1136" d="M115 1124h524q104 0 174 -31.5t113 -87t60.5 -129t17.5 -159.5v-1028h-175v1069q0 98 -57 155.5t-158 57.5h-206q-29 0 -49.5 -35t-33 -91.5t-16.5 -126t0 -136.5h193v-154h-320l-35 133q-6 254 84 393v17h-114zM532 742q0 35 24.5 59.5t59.5 24.5t59.5 -24.5t24.5 -59.5 t-24.5 -59.5t-59.5 -24.5t-59.5 24.5t-24.5 59.5z" />
<glyph unicode="&#xfb44;" horiz-adv-x="1142" d="M127 1124h532q104 0 177 -42t119 -109.5t67.5 -151.5t21.5 -170v-100q0 -96 -15 -194.5t-55 -177.5t-107.5 -129t-172.5 -50h-542v154h524q84 0 139 76.5t55 242.5v219q0 125 -56 202t-157 77h-229q-31 0 -52.5 -28t-34.5 -76t-17.5 -111.5t0.5 -132.5h196v-154h-325 l-37 133q0 63 4 112.5t15 91.5t27.5 78t39.5 70v17h-115zM604 553q0 35 24.5 59.5t59.5 24.5t59.5 -24.5t24.5 -59.5t-24.5 -59.5t-59.5 -24.5t-59.5 24.5t-24.5 59.5z" />
<glyph unicode="&#xfb46;" horiz-adv-x="1005" d="M55 971v153h152q94 0 133 -40t39 -138v-57q0 -113 57 -189l137 -157q59 27 106.5 75t73 106t28.5 122.5t-23 124.5h-158v153h281l28 -37q31 -123 23 -225t-44 -183t-96.5 -142.5t-134.5 -104.5l256 -280q-2 -4 -9 -27t-15 -49.5t-15.5 -50t-9.5 -25.5h-788v154h629 l-353 409q-61 72 -85.5 144.5t-26.5 138.5l-2 92q0 20 -9.5 26.5t-25.5 6.5h-148zM139 379q0 35 24.5 59.5t59.5 24.5t59.5 -24.5t24.5 -59.5t-24.5 -59.5t-59.5 -24.5t-59.5 24.5t-24.5 59.5z" />
<glyph unicode="&#xfb47;" horiz-adv-x="1177" d="M150 -264v700q0 82 18 155t84 154l100 -43q-23 -59 -25.5 -123.5t-2.5 -117.5v-725h-174zM150 971v153h509q104 0 180 -20.5t125.5 -69.5t73 -132t23.5 -206q0 -90 -20.5 -171t-59.5 -163.5t-97.5 -171t-135.5 -190.5h-170l-3 45q86 111 144.5 197t94.5 162.5t52.5 154.5 t20.5 174q2 76 -17.5 123t-53.5 72.5t-79 34t-94 8.5h-493zM518 584q0 35 24.5 59.5t59.5 24.5t59.5 -24.5t24.5 -59.5t-24.5 -59.5t-59.5 -24.5t-59.5 24.5t-24.5 59.5z" />
<glyph unicode="&#xfb48;" horiz-adv-x="962" d="M90 971v153h375q104 0 174 -31.5t113 -87t60 -129t17 -159.5v-715h-174v756q0 98 -57 155.5t-158 57.5h-350zM254 656q0 35 24.5 59.5t59.5 24.5t59.5 -24.5t24.5 -59.5t-24.5 -59.5t-59.5 -24.5t-59.5 24.5t-24.5 59.5z" />
<glyph unicode="&#xfb49;" horiz-adv-x="1511" d="M86 971v153h221q35 0 72 -23.5t37 -80.5v-535q63 6 120.5 23.5t100.5 50.5t68.5 85t25.5 128v162q0 37 -35 37h-114v153l2 -2v2h161q94 0 125 -40t31 -117v-158q0 -129 -45 -212t-114.5 -133t-152.5 -76t-157 -38q10 -70 44 -112.5t84 -66.5t113.5 -31t135.5 -7 q123 2 202 44t124 115t61 172t16 216v254q0 37 -34 37h-117v153h149q94 0 133 -50t39 -148v-211q0 -147 -24.5 -283.5t-93 -239t-191.5 -161t-319 -49.5q-158 6 -256.5 49t-154.5 113.5t-76.5 163.5t-20.5 200v463h-160zM948 578q0 35 24.5 59.5t59.5 24.5t59.5 -24.5 t24.5 -59.5t-24.5 -59.5t-59.5 -24.5t-59.5 24.5t-24.5 59.5z" />
<glyph unicode="&#xfb4a;" horiz-adv-x="1232" d="M72 0v154h188q-33 172 -37 296.5t11.5 217t47 160t70.5 126.5v17h-217l-2 153h608q104 0 173 -31.5t111 -87t58.5 -129t16.5 -159.5v-717h-174v758q0 98 -54.5 155.5t-154.5 57.5h-170q-39 0 -67.5 -46t-47 -120t-27 -165t-6.5 -182t14.5 -172t35.5 -132l-52 -154h-325z M584 596q0 35 24.5 59.5t59.5 24.5t59.5 -24.5t24.5 -59.5t-24.5 -59.5t-59.5 -24.5t-59.5 24.5t-24.5 59.5z" />
<glyph unicode="&#xfb4b;" horiz-adv-x="634" d="M82 971v153h229q94 0 133 -50t39 -148v-926h-174v829q0 82 -1 112t-34 30h-192zM213 1409q0 35 25.5 60.5t60.5 25.5q37 0 61.5 -24.5t24.5 -61.5t-24.5 -61.5t-61.5 -24.5t-61.5 24.5t-24.5 61.5z" />
<glyph unicode="&#xfb4c;" horiz-adv-x="989" d="M104 0v154h426q86 66 112 143.5t26 151.5v272q0 115 -54.5 182.5t-154.5 67.5h-353v153h351q104 0 177 -34.5t119 -94t67.5 -140.5t21.5 -175v-188q0 -49 -15.5 -100.5t-38 -97.5t-50 -84t-54.5 -56h223l-2 -154h-801zM264 1384v111h430v-111h-430z" />
<glyph unicode="&#xfb4d;" horiz-adv-x="956" d="M98 0v154h394q84 0 139 76.5t55 242.5v219q0 125 -56.5 202t-156.5 77h-375v153h377q104 0 177 -42t119 -109.5t67.5 -151.5t21.5 -170v-100q0 -96 -15.5 -194.5t-55 -177.5t-107.5 -129t-172 -50h-412zM248 1384v111h430v-111h-430z" />
<glyph unicode="&#xfb4e;" horiz-adv-x="1142" d="M127 1124h532q104 0 177 -42t119 -109.5t67.5 -151.5t21.5 -170v-100q0 -96 -15 -194.5t-55 -177.5t-107.5 -129t-172.5 -50h-542v154h524q84 0 139 76.5t55 242.5v219q0 125 -56 202t-157 77h-229q-31 0 -52.5 -28t-34.5 -76t-17.5 -111.5t0.5 -132.5h196v-154h-325 l-37 133q0 63 4 112.5t15 91.5t27.5 78t39.5 70v17h-115zM336 1384v111h430v-111h-430z" />
<glyph unicode="&#xfb4f;" horiz-adv-x="1099" d="M88 1063v405h199l-2 -395q92 -119 183 -245t179 -279q53 18 92 61t58.5 100.5t17.5 125t-29 135.5h-161v153h284l29 -37q66 -248 5.5 -413.5t-208.5 -237.5q74 -102 128.5 -195.5t113.5 -197.5q-4 -6 -5 -21.5t-5 -21.5h-170q-92 154 -180.5 290t-174.5 264t-174 253 t-180 256z" />
</font>
</defs>
</svg>
