<?xml version="1.0" standalone="no"?>
<!DOCTYPE svg PUBLIC "-//W3C//DTD SVG 1.1//EN" "http://www.w3.org/Graphics/SVG/1.1/DTD/svg11.dtd" >
<svg xmlns="http://www.w3.org/2000/svg">
<metadata>
This is a custom SVG webfont generated by Font Squirrel.
Copyright   : Copyright c 2010 by ELi Fried All rights reserved
Foundry     : ELi Fried
</metadata>
<defs>
<font id="EFTOfficeLightRegular" horiz-adv-x="0" >
<font-face units-per-em="2048" ascent="1638" descent="-410" />
<missing-glyph horiz-adv-x="368" />
<glyph unicode=" "  horiz-adv-x="368" />
<glyph unicode="&#x09;" horiz-adv-x="368" />
<glyph unicode="&#xa0;" horiz-adv-x="368" />
<glyph unicode="!" horiz-adv-x="473" d="M133 1204h186l-45 -938h-98zM164 0v137h145v-137h-145z" />
<glyph unicode="&#x22;" horiz-adv-x="702" d="M102 1036l78 322h135v-74l-159 -266zM387 1036l78 322h135v-74l-162 -266z" />
<glyph unicode="#" horiz-adv-x="1404" d="M133 414l39 141h147l101 358h-148l39 144h150l41 147h141l-41 -147h359l40 147h144l-41 -147h147l-39 -144h-149l-98 -358h147l-41 -141h-147l-41 -148h-144l43 148h-358l-43 -148h-141l41 148h-148zM463 555h358l101 358h-359z" />
<glyph unicode="$" horiz-adv-x="1165" d="M133 778v205q0 90 76 154q76 63 182 63h111v176h143v-176h318v-131h-318v-407h66q301 0 301 -291v-115q0 -100 -72 -178q-72 -74 -176 -74h-119v-164h-143v164h-299v131h299v395h-96q-113 0 -189 62q-84 67 -84 186zM276 803q0 -141 160 -141h66v407h-76q-88 0 -119 -37 t-31 -139v-90zM645 135h74q84 0 119 35q31 39 30 141v74q0 145 -149 145h-74v-395z" />
<glyph unicode="%" horiz-adv-x="1259" d="M133 807v225q0 41 31 72t72 31h225q43 0 71 -31q31 -31 31 -72v-225q0 -43 -29.5 -74t-72.5 -31h-225q-41 0 -72 31t-31 74zM166 4l711 1196h172l-703 -1196h-180zM262 860q0 -27 29 -26h117q27 0 26 26v117q0 29 -26 29h-117q-29 0 -29 -29v-117zM674 188v226 q0 41 31 71q33 29 71 29h228q43 0 71 -29q31 -31 31 -71v-226q0 -43 -31 -72.5t-71 -29.5h-228q-39 0 -71 29q-31 30 -31 73zM805 244q0 -29 26 -29h117q27 0 27 29v114q0 27 -27 27h-117q-27 0 -26 -27v-114z" />
<glyph unicode="&#x26;" horiz-adv-x="1964" d="M90 1069v131h660q250 0 370 -96q127 -111 127 -359v-383h-143v373q0 193 -88 266q-78 68 -275 68h-374v-1065h-144v1065h-133zM610 819h162l37 -405q12 -147 61.5 -213t145.5 -66h377q190 0 209 279l47 788h159l-55 -782q-31 -416 -364 -416h-367q-322 0 -365 416z" />
<glyph unicode="'" horiz-adv-x="499" d="M133 1036l78 322h135v-74l-160 -266z" />
<glyph unicode="(" horiz-adv-x="811" d="M133 262v680q0 250 105 342q94 82 319 82h100v-131h-125q-256 0 -256 -219v-828q0 -219 256 -219h125v-131h-100q-225 0 -319 82q-105 92 -105 342z" />
<glyph unicode=")" horiz-adv-x="811" d="M133 -31h123q258 0 258 219v828q0 219 -258 219h-123v131h100q227 0 318 -82q106 -92 106 -342v-680q0 -250 -106 -342q-90 -82 -318 -82h-100v131z" />
<glyph unicode="*" horiz-adv-x="923" d="M133 973v129l221 -27q-2 0 4 6l-182 123l100 101l138 -172q0 -2 6 4l-41 211h143l-26 -215q0 -4 6 -5l125 177l100 -101l-182 -121q0 -4 1 -4t1 -4l223 27v-129l-221 26q0 -2 -1 -3t-1 -3l180 -125l-100 -100l-131 174l-2 -2h-5l33 -215h-143l39 213l-4 2h-2l-136 -172 l-100 100l180 127q-2 0 -2 2t-1 2t-1 5z" />
<glyph unicode="+" horiz-adv-x="923" d="M133 530v144h246v246h143v-246h248v-144h-248v-245h-143v245h-246z" />
<glyph unicode="," horiz-adv-x="499" d="M133 -121l78 322h135v-74l-160 -266z" />
<glyph unicode="-" horiz-adv-x="923" d="M133 530v144h637v-144h-637z" />
<glyph unicode="." horiz-adv-x="421" d="M133 0v137h135v-137h-135z" />
<glyph unicode="/" horiz-adv-x="1075" d="M133 4l617 1196h172l-609 -1196h-180z" />
<glyph unicode="0" horiz-adv-x="1130" d="M133 258v651q0 291 299 291h246q299 0 299 -291v-651q0 -109 -72 -180q-72 -74 -172 -74h-354q-104 0 -174 74q-72 76 -72 180zM276 311q0 -102 31 -141q31 -35 117 -35h262q88 0 119 37t31 139v604q0 154 -164 154h-232q-164 0 -164 -154v-604z" />
<glyph unicode="1" horiz-adv-x="919" d="M133 995l273 205h172v-1065h188v-131h-555v131h223v914l-237 -160z" />
<glyph unicode="2" horiz-adv-x="1071" d="M133 4v377q0 141 66 201q66 59 211 59h200q164 0 164 156v96q0 102 -31 139t-116 37h-461v131h506q106 0 174 -74q72 -74 72 -180v-143q0 -293 -300 -293h-169q-104 0 -132 -14q-41 -23 -41 -101v-260h596v-131h-739z" />
<glyph unicode="3" horiz-adv-x="987" d="M133 0v131h410q86 0 116 37q31 37 31 139v68q0 82 -47 117q-25 23 -117 34l-153 25v82l153 37q98 25 117 35q47 31 47 110v78q0 102 -31 139t-116 37h-410v131h457q102 0 174 -74q70 -70 70 -180v-125q0 -156 -183 -215q76 -12 127 -82q55 -72 56 -157v-113 q0 -111 -70 -180q-72 -74 -174 -74h-457z" />
<glyph unicode="4" horiz-adv-x="1204" d="M133 326v133l453 741h319v-743h146v-131h-146v-191h133v-131h-409v131h133v191h-629zM295 457h467v610l-113 2z" />
<glyph unicode="5" horiz-adv-x="1034" d="M133 602v600h655v-133h-512v-336h306q299 0 299 -291v-184q0 -104 -72 -180q-72 -74 -174 -74h-483v131h438q84 0 119 37q31 37 30 139v138q0 154 -166 153h-440z" />
<glyph unicode="6" horiz-adv-x="1093" d="M133 258v688q0 109 72 180q70 74 174 74h479v-131h-434q-86 0 -119 -37q-29 -41 -29 -139v-221h363q301 0 301 -291v-123q0 -102 -72 -180q-72 -74 -174 -74h-315q-104 0 -174 74q-72 76 -72 180zM276 311q0 -102 31 -139t117 -37h223q88 0 119 37t31 139v74 q0 156 -164 156h-357v-230z" />
<glyph unicode="7" horiz-adv-x="1064" d="M133 1069v131h739v-170l-145 -344h184v-131h-237l-234 -551h-153l233 551h-186v131h241l164 383h-606z" />
<glyph unicode="8" horiz-adv-x="1103" d="M133 258v152q0 82 53 153q51 63 129 88q-80 29 -108 78q-20 43 -21 129v88q0 104 72 182q72 72 174 72h207q102 0 174 -72q72 -78 72 -182v-88q0 -92 -17 -129q-25 -53 -100 -74q80 -18 131 -84q51 -63 51 -161v-152q0 -109 -71 -180q-72 -74 -174 -74h-326 q-104 0 -174 74q-72 76 -72 180zM276 311q0 -102 31 -139t117 -37h235q86 0 117 37t31 139v105q0 150 -162 151h-207q-162 -2 -162 -151v-105zM330 842q0 -154 149 -154h123q74 2 105 33q35 35 34 121v51q0 102 -30 139q-31 37 -119 37h-113q-88 0 -119 -37t-30 -139v-51z " />
<glyph unicode="9" horiz-adv-x="1064" d="M133 819v127q0 111 70 180q70 74 176 74h287q102 0 174 -74q72 -72 71 -180v-688q0 -109 -71 -180q-72 -74 -174 -74h-426v131h381q86 0 116 35q31 37 31 141v215v2h-336q-299 0 -299 291zM276 813q0 -154 164 -154h328v234q0 104 -31 139q-31 37 -116 37h-197 q-86 0 -117 -37t-31 -139v-80z" />
<glyph unicode=":" horiz-adv-x="421" d="M133 0v137h135v-137h-135zM133 705v135h135v-135h-135z" />
<glyph unicode=";" horiz-adv-x="516" d="M133 -121l78 322h135v-74l-160 -266zM225 705v135h137v-135h-137z" />
<glyph unicode="&#x3c;" horiz-adv-x="919" d="M133 532v144l633 323v-143l-494 -254l494 -252v-143z" />
<glyph unicode="=" horiz-adv-x="923" d="M133 401v144h637v-144h-637zM133 659v144h637v-144h-637z" />
<glyph unicode="&#x3e;" horiz-adv-x="919" d="M133 207v143l494 252l-494 254v143l633 -323v-144z" />
<glyph unicode="?" horiz-adv-x="1038" d="M133 1069v131h506q104 0 176 -74q70 -70 70 -180v-104q0 -293 -299 -293h-39q-109 0 -131 -14q-43 -23 -43 -101v-168h-142v154q0 143 64 201q66 59 213 59h70q164 0 163 154v59q0 102 -30 139q-31 37 -119 37h-459zM221 0v137h148v-137h-148z" />
<glyph unicode="@" horiz-adv-x="1529" d="M29 432q0 131 82 281q102 193 307 317q205 129 418 129q285 0 448 -166q166 -164 166 -448q0 -104 -70 -242q-72 -139 -151 -190q-63 -39 -168 -39q-145 0 -180 139q-104 -141 -242 -141q-213 0 -213 266q0 109 68 231q63 117 159 185q76 57 142 57q82 0 116 -18 q45 -20 78 -88l23 83h149l-141 -538q-2 -10 -2 -19.5t-2 -17.5q0 -66 88 -66q94 0 172 111q111 160 110 299q0 233 -145 385q-143 150 -383 150q-186 0 -350 -109t-246 -274q-68 -141 -67 -336q0 -184 90 -324q94 -147 260 -211q98 -37 188 -37q156 0 246 19q127 25 225 94 l31 -47q-186 -137 -485 -137q-250 0 -471 184q-250 209 -250 518zM584 311q0 -168 96 -168q80 0 147 82q55 72 80 158q45 160 45 211q0 53 -20 92q-27 51 -72 51q-86 0 -180 -123q-96 -127 -96 -303z" />
<glyph unicode="A" horiz-adv-x="1394" d="M37 0v49h184l463 1290h37l463 -1290h186v-49h-637v49h213l-129 357h-411l-127 -357h245v-49h-487zM424 455h375l-189 518z" />
<glyph unicode="B" horiz-adv-x="1261" d="M51 0v49h182v1223h-182v49h625q164 0 291 -72q150 -82 149 -239q0 -225 -285 -293q133 -31 232 -121q100 -100 100 -236q0 -186 -149 -280q-123 -80 -322 -80h-641zM457 49h219q141 0 200.5 72t59.5 215v47q0 305 -260 305h-219v-639zM457 737h219q121 0 174 68 q45 57 45 188v33q0 246 -219 246h-219v-535z" />
<glyph unicode="C" horiz-adv-x="1292" d="M72 662q0 272 192 477q193 205 465 204q195 0 332 -100l76 72q20 18 34 18q25 0 25 -39v-315q0 -33 -18 -33q-14 0 -21 17l-4 10q-127 317 -424 317q-379 0 -379 -524v-217q0 -532 369 -533q285 0 457 369q12 27 28 27q20 0 21 -29v-375q0 -23 -23 -22q-12 0 -24 12 l-107 106q-145 -141 -352 -141q-264 0 -459 219q-188 214 -188 480z" />
<glyph unicode="D" horiz-adv-x="1396" d="M57 0v49h187v1223h-187v49h633q293 0 479 -174q190 -182 191 -471q0 -303 -182 -492q-182 -184 -488 -184h-633zM467 49h219q422 0 422 578v98q0 240 -90 379q-106 168 -332 168h-219v-1223z" />
<glyph unicode="E" horiz-adv-x="1210" d="M59 1272v49h953q63 0 63 -55v-295q0 -35 -24 -35q-25 0 -27 37q-6 111 -57 192q-63 106 -191 107h-311v-551h158q78 0 110 51q8 12 18.5 42t20.5 77q10 35 25 35q23 0 22 -33v-393q0 -35 -22 -35q-14 0 -37 72q-8 23 -14.5 45t-14.5 45q-31 45 -108 45h-158v-623h330 q133 0 196 88q47 70 84 234q10 47 33 47q25 0 25 -56v-290q0 -72 -70 -72h-1000v49h179v1223h-183z" />
<glyph unicode="F" horiz-adv-x="1155" d="M70 1272v49h952q61 0 61 -55v-295q0 -35 -24 -35q-25 0 -27 37q-6 111 -57 192q-63 106 -191 107h-311v-551h158q78 0 110 51q8 12 18.5 42t20.5 77q10 35 25 35q23 0 22 -33v-393q0 -35 -22 -35q-14 0 -37 72q-8 23 -14 45t-15 45q-31 45 -108 45h-158v-623h182v-49 h-581v49h176v1223h-180z" />
<glyph unicode="G" horiz-adv-x="1411" d="M68 653q0 276 190 484q190 207 465 206q205 0 336 -106l84 78q20 18 37 18q27 0 26 -30v-367q0 -27 -22 -27q-20 0 -29 25q-123 356 -432 356q-207 0 -301 -162q-78 -133 -78 -352v-237q0 -223 76 -355q94 -168 301 -168q266 0 266 254v174h-227v50h645v-50h-182v-57 q0 -213 -152 -324q-131 -100 -354 -100q-266 0 -461 213q-188 207 -188 477z" />
<glyph unicode="H" horiz-adv-x="1445" d="M59 0v49h183v1223h-183v49h588v-49h-182v-545h541v545h-183v49h586v-49h-180v-1223h180v-49h-586v49h183v627h-541v-627h182v-49h-588z" />
<glyph unicode="I" horiz-adv-x="749" d="M82 0v49h180v1223h-180v49h586v-49h-183v-1223h183v-49h-586z" />
<glyph unicode="J" horiz-adv-x="780" d="M16 -16q0 111 105 110q43 0 70.5 -26.5t27.5 -69.5q0 -94 -88 -107q43 -37 113 -36q84 0 112 53q23 41 23 133v1231h-195v49h576v-49h-158v-1157q0 -313 -344 -314q-80 0 -158 47q-84 56 -84 136z" />
<glyph unicode="K" horiz-adv-x="1417" d="M63 0v49h168v1223h-168v49h560v-49h-168v-1223h168v-49h-560zM449 723l595 549h-167v49h434v-49h-185l-485 -447l590 -776h172v-49h-615v49h175z" />
<glyph unicode="L" horiz-adv-x="1263" d="M53 0v49h183v1223h-183v49h606v-49h-200v-1223h424q131 0 194 88q47 70 84 234q10 47 33 47q27 0 27 -56v-290q0 -72 -72 -72h-1096z" />
<glyph unicode="M" horiz-adv-x="1681" d="M63 0v49h168v1223h-168v49h406l381 -979l369 979h405v-49h-168v-1223h168v-49h-559v49h168v1157l-455 -1206h-41l-454 1198v-1149h170v-49h-390z" />
<glyph unicode="N" horiz-adv-x="1386" d="M47 0v49h182v1223h-182v49h430l641 -963v914h-182v49h416v-49h-183v-1288h-86l-802 1210v-1145h182v-49h-416z" />
<glyph unicode="O" horiz-adv-x="1458" d="M76 655q0 274 194 482q195 207 467 206q272 0 467 -206q197 -207 197 -482q0 -274 -197 -483q-195 -209 -467 -209q-268 0 -469 213q-192 205 -192 479zM352 557q0 -541 385 -541q387 0 387 541v195q0 252 -67 374q-92 164 -320 164q-223 0 -315 -166q-70 -125 -70 -372 v-195z" />
<glyph unicode="P" horiz-adv-x="1142" d="M51 0v49h182v1223h-182v49h594q186 0 309 -86q139 -96 140 -274q0 -172 -131 -273q-119 -88 -297 -88h-209v-551h180v-49h-586zM457 649h209q221 0 221 277v69q0 276 -242 277h-188v-623z" />
<glyph unicode="Q" horiz-adv-x="1435" d="M76 653q0 274 194 482q193 209 467 208q272 0 467 -208q197 -207 197 -482q0 -238 -150 -430q-150 -197 -372 -248v-34q0 -344 327 -344q29 0 29 -23q0 -20 -29 -20q-293 0 -418 61q-164 80 -186 317l-4 43q-225 53 -375 248q-147 197 -147 430zM352 555q0 -543 385 -543 q387 0 387 543v195q0 250 -67 376q-90 164 -320 164q-223 0 -315 -168q-70 -125 -70 -372v-195z" />
<glyph unicode="R" horiz-adv-x="1325" d="M57 0v49h183v1223h-183v49h605q176 0 301 -76q150 -88 149 -254q0 -244 -307 -311q197 -53 258 -166q41 -78 47 -291q4 -102 12 -127q14 -43 76 -43q51 0 90 27q16 4 19 4q14 0 14 -14q0 -33 -98 -64q-78 -23 -142 -22q-104 0 -153 55t-60 160q-2 29 -5 80t-9 122 q-29 264 -225 265h-166v-617h182v-49h-588zM463 715h199q231 0 231 241v70q0 246 -231 246h-199v-557z" />
<glyph unicode="S" horiz-adv-x="1142" d="M109 8v348q0 35 24 35q23 0 33 -31q39 -152 160 -247q121 -96 274 -97q131 0 234 78q104 86 104 217q0 137 -117 191q-43 18 -89 34.5t-95 30.5q-154 45 -209 62q-289 88 -289 327q0 180 137 287q125 100 310 100q152 0 303 -77l55 65q14 20 31 21q23 0 22 -29v-346 q0 -29 -24 -29q-27 0 -29 27q-20 147 -114.5 231t-243.5 84q-119 0 -203 -53q-98 -66 -98 -176q0 -129 127 -176q27 -10 119 -36t257 -71q285 -76 285 -358q0 -199 -141 -328t-344 -129q-188 0 -346 127l-70 -92q-18 -25 -35 -25q-28 0 -28 35z" />
<glyph unicode="T" horiz-adv-x="1306" d="M55 932l33 348q4 41 51 41h1041q47 0 51 -41l33 -348h-64q-20 129 -74 219q-74 121 -184 121h-172v-1223h182v-49h-585v49h180v1223h-172q-111 0 -185 -121q-53 -90 -73 -219h-62z" />
<glyph unicode="U" horiz-adv-x="1345" d="M37 1272v49h586v-49h-181v-940q0 -150 81 -233t229 -83q147 0 239 84t92 232v940h-182v49h416v-49h-180v-940q0 -188 -127 -285q-115 -84 -308 -84q-205 0 -329 82q-154 94 -154 287v940h-182z" />
<glyph unicode="V" horiz-adv-x="1333" d="M14 1272v49h588v-49h-186l358 -967l338 967h-178v49h395v-49h-153l-453 -1292h-49l-475 1292h-185z" />
<glyph unicode="W" horiz-adv-x="1896" d="M47 1272v49h1346v-49h-131l-172 -449l200 -534l377 983h-176v49h383v-49h-148l-493 -1292h-41l-229 587l-224 -587h-41l-491 1292h-160zM426 1272l373 -979l135 352l-236 627h-272zM918 1272l143 -373l143 373h-286z" />
<glyph unicode="X" horiz-adv-x="1445" d="M45 0v49h188l398 584l-395 639h-187v49h625v-49h-185l279 -451l303 451h-197v49h461v-49h-192l-340 -504l442 -719h166v-49h-584v49h164l-327 531l-361 -531h203v-49h-461z" />
<glyph unicode="Y" horiz-adv-x="1396" d="M57 1272v49h609v-49h-187l336 -520l311 520h-196v49h448v-49h-174l-344 -576v-647h201v-49h-627v49h203v598l-406 625h-174z" />
<glyph unicode="Z" horiz-adv-x="1073" d="M63 0v61l721 1211h-391q-262 0 -272 -305h-47v354h940v-57l-729 -1215h387q162 0 235 101q61 86 70 258h51v-408h-965z" />
<glyph unicode="[" horiz-adv-x="720" d="M133 -162v1528h434v-131h-291v-1266h291v-131h-434z" />
<glyph unicode="\" horiz-adv-x="1075" d="M133 1200h172l617 -1196h-181z" />
<glyph unicode="]" horiz-adv-x="722" d="M133 -31h293v1266h-293v131h436v-1528h-436v131z" />
<glyph unicode="^" horiz-adv-x="919" d="M29 502l331 686h125l332 -686h-127l-268 553l-268 -553h-125z" />
<glyph unicode="_" horiz-adv-x="827" d="M0 -127h827v-131h-827v131z" />
<glyph unicode="a" horiz-adv-x="933" d="M86 154q0 150 168 223q127 55 295 57v219q0 102 -131 103q-125 0 -125 -35l6 -6q4 -4 12 -10q29 -29 29 -62q0 -76 -88 -76q-86 0 -86 80q0 84 117 125q74 27 184 27q283 0 283 -183v-464q0 -111 49 -111q55 0 90 68q8 20 22 20q16 0 17 -18q0 -63 -76 -103 q-66 -35 -129 -35q-133 0 -162 97q-90 -96 -237 -97q-238 1 -238 181zM270 203q0 -162 125 -162q37 0 94 33q59 35 60 65v258q-66 -4 -113 -14t-76 -25q-90 -46 -90 -155z" />
<glyph unicode="b" horiz-adv-x="1093" d="M57 0v49h162v1223h-162v49h361v-612q86 96 221 96q158 0 281 -127q125 -125 124 -285q0 -156 -120 -289q-121 -129 -279 -129q-133 0 -227 107v-82h-361zM418 170q86 -145 221 -145q168 0 168 325v88q0 137 -23 209q-41 109 -153 109q-127 0 -213 -135v-451z" />
<glyph unicode="c" horiz-adv-x="864" d="M59 383q0 176 134 297q131 119 313 119q96 0 180 -39q109 -47 109 -129q0 -90 -103 -90q-100 0 -100 86q0 33 18.5 62.5t18.5 31.5q0 12 -58 20q-23 4 -41 6.5t-28 2.5q-129 0 -174 -105q-29 -74 -29 -219v-84q0 -164 25 -221q43 -100 178 -101q98 0 177 51.5t109 143.5 q8 25 29 25q25 0 25 -25q0 -6 -2 -10l-2 -8q-18 -76 -101 -144q-96 -80 -241 -80q-178 0 -303 117q-134 121 -134 293z" />
<glyph unicode="d" horiz-adv-x="1093" d="M66 391q0 160 124 285q125 129 281 129q139 0 219 -88v555h-160v49h361v-1272h160v-49h-361v84q-96 -111 -225 -111q-152 0 -277 131q-122 131 -122 287zM303 344q0 -135 23 -207q37 -115 147 -114q121 0 217 145v448q-86 139 -211 140q-113 0 -153 -109 q-23 -68 -23 -207v-96z" />
<glyph unicode="e" horiz-adv-x="915" d="M57 379q0 164 121 291q123 129 285 129q180 0 289 -129q86 -104 86 -198q0 -29 -43 -30h-498v-188q0 -233 178 -234q223 0 324 218q12 25 28 24q20 0 21 -22q0 -16 -6 -31q-94 -236 -371 -236q-174 0 -293 119q-121 121 -121 287zM297 492h303q20 0 21 79q0 178 -156 179 q-168 0 -168 -191v-67z" />
<glyph unicode="f" horiz-adv-x="720" d="M41 0v49h158v680h-156v49h156v74q0 221 43 313q80 170 254 170q72 0 129 -32q72 -41 71 -105q0 -78 -75 -78q-82 0 -82 74q0 47 47 70q0 23 -86 22q-100 0 -101 -137v-371h170v-49h-170v-680h158v-49h-516z" />
<glyph unicode="g" horiz-adv-x="899" d="M63 -295q0 141 160 207q-156 39 -155 188q0 131 165 185q-158 84 -157 237q0 111 90 191q98 86 258 86q143 0 215 -49q80 80 160 79q88 0 88 -69q0 -66 -72 -66q-78 0 -78 64q0 10 2 14q-14 -8 -29.5 -21.5t-31.5 -29.5q94 -82 94 -199q0 -100 -76 -176 q-98 -102 -272 -102q-78 0 -121 14q-164 -41 -164 -123q0 -74 125 -74h340q264 0 264 -245q0 -166 -131 -254q-117 -80 -286 -80q-388 0 -388 223zM182 -258q0 -211 277 -211q115 0 203 45q111 55 110 160q0 78 -60.5 123t-142.5 45h-268q-47 0 -84 -56q-35 -59 -35 -106z M285 487q0 -86 22 -135q35 -59 117 -59t117 59q23 49 22 135v66q0 90 -22 139q-31 57 -117 58q-86 0 -117 -58q-23 -49 -22 -139v-66z" />
<glyph unicode="h" horiz-adv-x="1136" d="M53 0v49h150v1223h-150v49h348v-655q98 139 304 139q252 0 251 -187v-569h148v-49h-494v49h146v547q0 141 -117 141q-84 0 -160 -67q-78 -66 -78 -146v-475h148v-49h-496z" />
<glyph unicode="i" horiz-adv-x="620" d="M68 0v49h157v680h-157v49h356v-729h160v-49h-516zM205 1126q0 47 34.5 79t84.5 32q49 0 83.5 -31.5t34.5 -79.5q0 -47 -35.5 -77.5t-82.5 -30.5t-83 30.5t-36 77.5z" />
<glyph unicode="j" horiz-adv-x="577" d="M-43 -383q0 43 28.5 71.5t71.5 28.5q41 0 69 -26.5t28 -67.5q0 -59 -45 -86q16 -4 32 -4q55 0 87 37t32 94v1063h-170v49h371v-833q0 -184 -66 -305q-84 -154 -252 -154q-72 0 -123 33q-63 37 -63 100zM229 1126q0 47 35 79t84 32t84 -31.5t35 -79.5q0 -47 -35 -78.5 t-84 -31.5t-84 31.5t-35 78.5z" />
<glyph unicode="k" horiz-adv-x="1138" d="M55 0v49h170v1223h-170v49h369v-858h47l293 266h-166v49h414v-49h-172l-238 -219l371 -461h151v-49h-528v49h139l-278 365h-33v-365h149v-49h-518z" />
<glyph unicode="l" horiz-adv-x="602" d="M66 0v49h147v1223h-147v49h346v-1272h147v-49h-493z" />
<glyph unicode="m" horiz-adv-x="1607" d="M59 0v49h138v674h-138v49h338v-125q100 141 308 141q178 0 206 -145q98 145 310 145q211 0 211 -180v-559h137v-49h-471v49h133v539q0 135 -98 135q-80 0 -150 -70q-70 -68 -70 -145v-459h138v-49h-473v49h137v539q0 53 -10 84q-20 51 -91 51q-66 0 -141 -68 q-76 -63 -76 -131v-475h135v-49h-473z" />
<glyph unicode="n" horiz-adv-x="1120" d="M68 0v49h147v674h-147v47h346v-123q98 139 288 139q231 0 232 -186v-551h147v-49h-495v49h147v539q0 135 -108 135q-72 0 -142 -68t-69 -139v-467h147v-49h-493z" />
<glyph unicode="o" horiz-adv-x="942" d="M51 385q0 164 131 289t297 125q170 0 295 -125q129 -127 129 -289q0 -164 -129 -289q-129 -123 -295 -123t-297 123q-131 125 -131 289zM289 344q0 -156 22 -219q39 -104 168 -105q129 0 166 107q20 49 21 217v84q0 152 -23 215q-39 106 -164 107q-127 0 -166 -107 q-25 -61 -24 -215v-84z" />
<glyph unicode="p" horiz-adv-x="1054" d="M45 -477h137v1198h-137v51h338v-84q94 111 225 111q160 0 281 -129q123 -127 123 -287q0 -166 -123 -291q-121 -127 -285 -127q-139 0 -221 94v-536h137v-49h-475v49zM383 186q0 -66 78 -118q70 -49 139 -50q117 0 154 111q20 55 20 213v88q0 133 -22 205 q-37 115 -146 115q-76 0 -145 -56q-78 -59 -78 -131v-377z" />
<glyph unicode="q" horiz-adv-x="1073" d="M70 383q0 156 123 283t280 127q141 0 229 -107v84h336v-49h-137v-1198h137v-49h-473v49h137v538q-90 -96 -225 -96q-160 0 -284 129q-123 129 -123 289zM307 289q0 -129 25 -187q39 -86 149 -86q45 0 85 15.5t71 42t48 63.5t17 80v328q0 76 -73 141q-70 63 -154 64 q-168 0 -168 -248v-213z" />
<glyph unicode="r" horiz-adv-x="843" d="M37 0v49h147v674h-147v49h348v-92q90 109 238 108q84 0 135 -32q66 -41 65 -115q0 -49 -32.5 -77.5t-81.5 -28.5t-83 26.5t-34 73.5q0 63 51 90q6 2 6 6q0 8 -49 8q-68 0 -141 -55q-74 -53 -74 -119v-516h147v-49h-495z" />
<glyph unicode="s" horiz-adv-x="751" d="M88 8v207q0 25 23 25q18 0 24 -25q55 -195 266 -195q80 0 138 33q74 39 73 113q0 86 -125 129q-16 2 -196 43q-188 41 -189 207q0 59 22.5 106t61.5 80t91.5 50.5t113.5 17.5q96 0 160 -51l41 38l6 5q8 8 16 8q14 0 15 -23v-207q0 -20 -17 -20q-20 0 -22 18 q-14 82 -69.5 132.5t-141.5 50.5q-63 0 -115 -31q-61 -35 -61 -92q0 -61 123 -99q45 -10 89 -19t89 -20q199 -57 198 -245q0 -129 -81.5 -200t-212.5 -71q-156 0 -238 76l-39 -51q-8 -14 -20 -14q-23 -1 -23 24z" />
<glyph unicode="t" horiz-adv-x="712" d="M39 727v49h143v217l201 92v-309h205v-49h-205v-518q0 -176 127 -176q111 0 133 133q4 29 29 29q20 0 20 -25q0 -16 -2 -20q-35 -176 -252 -177q-119 0 -187.5 61.5t-68.5 178.5v514h-143z" />
<glyph unicode="u" horiz-adv-x="1138" d="M47 723v47h348v-588q0 -68 17 -96q23 -35 90 -35q78 0 153 64q80 63 80 137v471h-147v47h348v-721h147v-49h-348v123q-109 -145 -317 -146q-223 0 -223 218v528h-148z" />
<glyph unicode="v" horiz-adv-x="1034" d="M43 723v47h498v-47h-144l211 -471l205 471h-145v47h331v-47h-129l-319 -731h-29l-338 731h-141z" />
<glyph unicode="w" horiz-adv-x="1368" d="M47 723v47h479v-47h-135l178 -447l174 494h29l215 -496l152 449h-172v47h372v-47h-147l-256 -746h-29l-215 494l-178 -494h-31l-295 746h-141z" />
<glyph unicode="x" horiz-adv-x="1060" d="M53 723v47h465v-47h-129l182 -240l195 240h-125v47h334v-47h-139l-232 -283l299 -391h131v-49h-495v49h149l-199 262l-215 -262h146v-49h-357v49h146l248 305l-281 369h-123z" />
<glyph unicode="y" horiz-adv-x="1067" d="M53 721v49h514v-49h-155l229 -496l207 496h-152v49h351v-49h-142l-432 -1036q-82 -199 -246 -199q-117 0 -116 92q0 80 84 80q61 0 90 -55q12 -23 24 -23q66 0 115 121l121 293l-348 727h-144z" />
<glyph unicode="z" horiz-adv-x="847" d="M100 0v53l463 670h-196q-162 0 -185 -201h-43v248h633v-57l-455 -664h230q188 0 205 221h43v-270h-695z" />
<glyph unicode="{" horiz-adv-x="833" d="M133 598v14q53 18 80 58q33 33 33 75v621h434v-131h-293v-449q0 -63 -41 -116q-41 -57 -88 -64q113 -31 129 -174v-463h293v-131h-434v641q0 74 -113 119z" />
<glyph unicode="|" horiz-adv-x="430" d="M133 -100v1405h143v-1405h-143z" />
<glyph unicode="}" horiz-adv-x="833" d="M133 -31h293v463q12 141 129 174q-45 6 -90 64q-39 51 -39 116v449h-293v131h436v-621q0 -35 29 -75q33 -39 82 -58v-14q-111 -47 -111 -119v-641h-436v131z" />
<glyph unicode="~" horiz-adv-x="1003" d="M70 391v23q0 111 65.5 185.5t177.5 74.5q72 0 119 -25l246 -164q47 -29 72 -28q82 0 81 131h66q0 -113 -70 -201q-78 -96 -184 -96q-70 0 -131 43l-213 147q-39 27 -80 27q-82 0 -82 -117h-67z" />
<glyph unicode="&#xa1;" d="M-369 -256q0 35 25 59.5t61 24.5q37 0 61.5 -23.5t24.5 -60.5t-24.5 -61.5t-61.5 -24.5t-61.5 24.5t-24.5 61.5zM-221 -494q0 35 26.5 61.5t61.5 26.5q37 0 61.5 -25.5t24.5 -62.5t-24.5 -61.5t-61.5 -24.5t-62.5 24.5t-25.5 61.5zM-70 -256q0 35 25 59.5t61 24.5 q37 0 61.5 -24.5t24.5 -59.5q0 -37 -24.5 -61.5t-61.5 -24.5q-35 0 -60.5 25.5t-25.5 60.5zM195 -256q0 37 25.5 60.5t62.5 23.5q35 0 60.5 -24.5t25.5 -59.5q0 -37 -25 -61.5t-61 -24.5q-37 0 -62.5 24.5t-25.5 61.5zM195 -506q0 35 25.5 60.5t60.5 25.5q37 0 61.5 -24.5 t24.5 -61.5t-25 -61.5t-61 -24.5q-37 0 -61.5 24.5t-24.5 61.5z" />
<glyph unicode="&#x5b1;" d="M-369 -256q0 35 25 59.5t61 24.5q37 0 61.5 -23.5t24.5 -60.5t-24.5 -61.5t-61.5 -24.5t-61.5 24.5t-24.5 61.5zM-221 -494q0 35 26.5 61.5t61.5 26.5q37 0 61.5 -25.5t24.5 -62.5t-24.5 -61.5t-61.5 -24.5t-62.5 24.5t-25.5 61.5zM-70 -256q0 35 25 59.5t61 24.5 q37 0 61.5 -24.5t24.5 -59.5q0 -37 -24.5 -61.5t-61.5 -24.5q-35 0 -60.5 25.5t-25.5 60.5zM195 -256q0 37 25.5 60.5t62.5 23.5q35 0 60.5 -24.5t25.5 -59.5q0 -37 -25 -61.5t-61 -24.5q-37 0 -62.5 24.5t-25.5 61.5zM195 -506q0 35 25.5 60.5t60.5 25.5q37 0 61.5 -24.5 t24.5 -61.5t-25 -61.5t-61 -24.5q-37 0 -61.5 24.5t-24.5 61.5z" />
<glyph unicode="&#xa2;" horiz-adv-x="1024" d="M109 440q0 225 131 363q133 139 350 139q6 0 24.5 -3t49.5 -7l90 254h71l-96 -277q154 -53 154 -172q0 -37 -23.5 -64.5t-60.5 -27.5q-78 0 -123 107l-207 -596q70 -25 117 -25q102 0 180 59q57 47 125 146l27 -17q-154 -338 -396 -337q-41 0 -110 18l-101 -283h-69 l104 308q-237 120 -237 415zM266 532q0 -217 140 -331l235 661q-47 18 -98 19q-137 0 -211 -111q-66 -97 -66 -238z" />
<glyph unicode="&#xa3;" horiz-adv-x="1024" d="M25 109q0 78 57 120q51 37 133 37q16 0 38.5 -3t51.5 -7l6 35q0 39 -4 86t-12 104q-6 47 -12.5 95.5t-14.5 95.5h-221v92h219q-8 33 -11 67.5t-3 69.5q0 207 94 338q109 145 305 145q100 0 176 -45q90 -53 91 -145q0 -45 -28 -77t-73 -32q-70 0 -78 64l-10 117 q-20 63 -108 63q-102 0 -154 -92q-41 -78 -41 -186q0 -49 6 -121t17 -166h256v-92h-250q2 -20 2 -44v-53q0 -102 -49 -348q166 -72 307 -71q88 0 151 39q10 6 42 29.5t83 64.5l13 -10q0 -25 -25 -76q-98 -217 -324 -217q-117 0 -290 125q-109 -127 -203 -127q-59 0 -98 34 t-39 91zM78 115q0 -74 82 -74q47 0 89 35t42 82q0 16 -51 24q-23 4 -39.5 7.5t-26.5 3.5q-96 0 -96 -78z" />
<glyph unicode="&#xa5;" horiz-adv-x="829" d="M173.797 830.794v91.1963q0 49.1973 31.7988 91.7959q30.5986 37.7988 77.3965 52.7979q-47.998 17.3994 -64.7969 46.7979q-12 25.7998 -12.5996 77.3975v52.7979q0 62.3975 43.1982 109.195q43.1982 43.1982 104.396 43.1982h124.195q61.1973 0 104.396 -43.1982 q43.1982 -46.7979 43.1982 -109.195v-52.7979q0 -55.1982 -10.1992 -77.3975q-15 -31.7979 -59.998 -44.3975q47.998 -10.7998 78.5967 -50.3984q30.5986 -37.7988 30.5986 -96.5957v-91.1963q0 -65.3975 -42.5977 -107.996q-43.1982 -44.3975 -104.396 -44.3975h-195.592 q-62.3975 0 -104.396 44.3975q-43.1982 45.5986 -43.1982 107.996zM259.594 862.593q0 -61.1982 18.5986 -83.3975q18.5996 -22.1982 70.1973 -22.1982h140.994q51.5977 0 70.1973 22.1982q18.5996 22.1992 18.5996 83.3975v62.9971q0 89.9961 -97.1963 90.5967h-124.195 q-97.1953 -1.2002 -97.1953 -90.5967v-62.9971zM291.992 1181.18q0 -92.3965 89.3965 -92.3965h73.7969q44.3984 1.2002 62.9971 19.7988q20.999 21 20.3994 72.5977v30.5986q0 61.1973 -17.999 83.3965q-18.5996 22.1992 -71.3975 22.1992h-67.7969 q-52.7979 0 -71.3975 -22.1992t-17.999 -83.3965v-30.5986z" />
<glyph unicode="&#xb4;" horiz-adv-x="829" d="M173.797 830.794v91.1963q0 49.1973 31.7988 91.7959q30.5986 37.7988 77.3965 52.7979q-47.998 17.3994 -64.7969 46.7979q-12 25.7998 -12.5996 77.3975v52.7979q0 62.3975 43.1982 109.195q43.1982 43.1982 104.396 43.1982h124.195q61.1973 0 104.396 -43.1982 q43.1982 -46.7979 43.1982 -109.195v-52.7979q0 -55.1982 -10.1992 -77.3975q-15 -31.7979 -59.998 -44.3975q47.998 -10.7998 78.5967 -50.3984q30.5986 -37.7988 30.5986 -96.5957v-91.1963q0 -65.3975 -42.5977 -107.996q-43.1982 -44.3975 -104.396 -44.3975h-195.592 q-62.3975 0 -104.396 44.3975q-43.1982 45.5986 -43.1982 107.996zM259.594 862.593q0 -61.1982 18.5986 -83.3975q18.5996 -22.1982 70.1973 -22.1982h140.994q51.5977 0 70.1973 22.1982q18.5996 22.1992 18.5996 83.3975v62.9971q0 89.9961 -97.1963 90.5967h-124.195 q-97.1953 -1.2002 -97.1953 -90.5967v-62.9971zM291.992 1181.18q0 -92.3965 89.3965 -92.3965h73.7969q44.3984 1.2002 62.9971 19.7988q20.999 21 20.3994 72.5977v30.5986q0 61.1973 -17.999 83.3965q-18.5996 22.1992 -71.3975 22.1992h-67.7969 q-52.7979 0 -71.3975 -22.1992t-17.999 -83.3965v-30.5986z" />
<glyph unicode="&#xa8;" horiz-adv-x="845" d="M173.797 830.794v390.584q0 174.593 179.393 174.593h147.594q179.393 0 179.393 -174.593v-390.584q0 -65.3975 -43.1982 -107.996q-43.1982 -44.3975 -103.195 -44.3975h-212.392q-62.3975 0 -104.396 44.3975q-43.1982 45.5986 -43.1982 107.996zM259.594 862.593 q0 -61.1982 18.5986 -84.5967q18.5996 -20.999 70.1973 -20.999h157.193q52.7979 0 71.3975 22.1982q18.5996 22.1992 18.5996 83.3975v362.385q0 92.3965 -98.3965 92.3965h-139.194q-98.3955 0 -98.3955 -92.3965v-362.385z" />
<glyph unicode="&#xac;" horiz-adv-x="845" d="M173.797 830.794v390.584q0 174.593 179.393 174.593h147.594q179.393 0 179.393 -174.593v-390.584q0 -65.3975 -43.1982 -107.996q-43.1982 -44.3975 -103.195 -44.3975h-212.392q-62.3975 0 -104.396 44.3975q-43.1982 45.5986 -43.1982 107.996zM259.594 862.593 q0 -61.1982 18.5986 -84.5967q18.5996 -20.999 70.1973 -20.999h157.193q52.7979 0 71.3975 22.1982q18.5996 22.1992 18.5996 83.3975v362.385q0 92.3965 -98.3965 92.3965h-139.194q-98.3955 0 -98.3955 -92.3965v-362.385z" />
<glyph unicode="&#xa9;" horiz-adv-x="1556" d="M78 676q0 297 203 504q203 205 501 204q295 0 496 -206q201 -207 201 -502t-201 -502q-201 -203 -496 -203q-299 0 -501 203q-203 203 -203 502zM190 676q0 -248 170 -436q172 -182 422 -183q246 0 418 189q166 180 166 430q0 252 -164 434q-170 188 -420 188 q-254 0 -422 -184q-170 -188 -170 -438zM389 694q0 176 135 291q125 104 310 105q61 0 145 -19q109 -23 108 -61v-144h-34q-8 88 -64 133q-72 49 -162 50q-143 0 -217 -105q-63 -88 -63 -242q0 -373 293 -372q170 0 247 176h33l-33 -144q-10 -35 -118 -55q-90 -18 -150 -18 q-197 0 -305 96q-125 112 -125 309z" />
<glyph unicode="&#xaa;" horiz-adv-x="1048" d="M72 90q0 35 116 186l148 185q-262 348 -262 368q0 23 20 23q8 0 33 -25q150 -147 399 -362q-59 -51 -143 -129t-201 -189q-80 -80 -88 -79q-22 -1 -22 22zM502 90q0 35 116 186l148 185q-262 348 -262 368q0 23 20 23q8 0 33 -25q150 -147 399 -362q-59 -51 -143 -129 t-201 -189q-80 -80 -88 -79q-22 -1 -22 22z" />
<glyph unicode="&#xbb;" horiz-adv-x="1048" d="M72 90q0 35 116 186l148 185q-262 348 -262 368q0 23 20 23q8 0 33 -25q150 -147 399 -362q-59 -51 -143 -129t-201 -189q-80 -80 -88 -79q-22 -1 -22 22zM502 90q0 35 116 186l148 185q-262 348 -262 368q0 23 20 23q8 0 33 -25q150 -147 399 -362q-59 -51 -143 -129 t-201 -189q-80 -80 -88 -79q-22 -1 -22 22z" />
<glyph unicode="&#xab;" horiz-adv-x="1048" d="M68 465q209 180 399 362q27 25 33 25q20 0 20 -23q0 -20 -262 -368l148 -185q117 -152 116 -186q0 -23 -22 -22q-8 0 -54 45q-86 86 -180 173t-198 179zM498 465q209 180 399 362q27 25 33 25q20 0 20 -23q0 -20 -262 -368l148 -185q117 -152 116 -186q0 -23 -22 -22 q-8 0 -53 45q-86 86 -180.5 173t-198.5 179z" />
<glyph unicode="&#xad;" horiz-adv-x="923" d="M133 530v144h637v-144h-637z" />
<glyph unicode="&#xae;" horiz-adv-x="811" d="M173.797 678.4v226.19q0 84.5967 39.5986 120.595q39.5977 35.3984 126.595 35.3984h119.995q98.3955 0 98.3955 93.5967v57.5977q0 61.1973 -18.5986 83.3965q-18.5996 22.1992 -69.5977 22.1992h-276.589v78.5967h303.588q63.5977 0 104.396 -44.3984 q43.1982 -44.3984 43.1982 -107.995v-85.7969q0 -175.793 -179.992 -175.793h-101.396q-62.3975 0 -79.1963 -8.39941q-24.5986 -13.7998 -24.5986 -60.5977v-155.993h357.585v-78.5967h-443.382z" />
<glyph unicode="&#xaf;" horiz-adv-x="759" d="M173.797 676v78.5967h245.99q51.5977 0 69.5967 22.1992q18.5996 22.1992 18.5996 83.3965v40.7988q0 49.1973 -28.1992 70.1963q-14.999 13.7998 -70.1973 20.3994l-91.7959 15v49.1973l91.7959 22.1992q58.7979 15 70.1973 20.999q28.1992 18.5996 28.1992 65.998 v46.7979q0 61.1973 -18.5996 83.3965q-18.5986 22.1992 -69.5967 22.1992h-245.99v78.5967h274.188q61.1982 0 104.396 -44.3984q41.999 -41.998 41.999 -107.995v-74.9971q0 -93.5967 -109.796 -128.995q45.5986 -7.19922 76.1973 -49.1982 q32.998 -43.1973 33.5986 -94.1953v-67.7979q0 -66.5967 -41.999 -107.995q-43.1973 -44.3984 -104.396 -44.3984h-274.188z" />
<glyph unicode="&#xbf;" d="M-86 -254q0 35 24.5 59.5t61.5 24.5t61.5 -23.5t24.5 -60.5t-24.5 -61.5t-61.5 -24.5t-61.5 24.5t-24.5 61.5zM-86 -506q0 35 25.5 60.5t60.5 25.5q37 0 61.5 -24.5t24.5 -61.5t-24.5 -61.5t-61.5 -24.5t-61.5 24.5t-24.5 61.5z" />
<glyph unicode="&#x5b0;" d="M-86 -254q0 35 24.5 59.5t61.5 24.5t61.5 -23.5t24.5 -60.5t-24.5 -61.5t-61.5 -24.5t-61.5 24.5t-24.5 61.5zM-86 -506q0 35 25.5 60.5t60.5 25.5q37 0 61.5 -24.5t24.5 -61.5t-24.5 -61.5t-61.5 -24.5t-61.5 24.5t-24.5 61.5z" />
<glyph unicode="&#xd7;" horiz-adv-x="1130" d="M154 111l299 299l-299 301l110 110l299 -299l301 299l111 -110l-299 -301l297 -297l-113 -111l-297 297l-299 -301z" />
<glyph unicode="&#x2122;" horiz-adv-x="1130" d="M154 111l299 299l-299 301l110 110l299 -299l301 299l111 -110l-299 -301l297 -297l-113 -111l-297 297l-299 -301z" />
<glyph unicode="&#x131;" horiz-adv-x="1103" d="M-16 1198h161l433 -641q111 86 171 220t52 321l-4 100h145q2 -23 2 -45v-45q0 -416 -291 -649q53 -106 54 -240v-651h-144v629q0 53 -2 85.5t-6 49.5q-12 45 -57 110z" />
<glyph unicode="&#x5e5;" horiz-adv-x="1103" d="M-16 1198h161l433 -641q111 86 171 220t52 321l-4 100h145q2 -23 2 -45v-45q0 -416 -291 -649q53 -106 54 -240v-651h-144v629q0 53 -2 85.5t-6 49.5q-12 45 -57 110z" />
<glyph unicode="&#x152;" horiz-adv-x="774" d="M55 850l86 305h551l-86 -305h-551z" />
<glyph unicode="&#x5be;" horiz-adv-x="774" d="M55 850l86 305h551l-86 -305h-551z" />
<glyph unicode="&#x153;" d="M-266 1384v111h532v-111h-532z" />
<glyph unicode="&#x5bf;" d="M-266 1384v111h532v-111h-532z" />
<glyph unicode="&#x192;" d="M-86 -256q0 35 24.5 59.5t61.5 24.5t61.5 -23.5t24.5 -60.5t-24.5 -61.5t-61.5 -24.5t-61.5 24.5t-24.5 61.5z" />
<glyph unicode="&#x5b4;" d="M-86 -256q0 35 24.5 59.5t61.5 24.5t61.5 -23.5t24.5 -60.5t-24.5 -61.5t-61.5 -24.5t-61.5 24.5t-24.5 61.5z" />
<glyph unicode="&#x2c6;" horiz-adv-x="1140" d="M78 1198h151q72 -168 165 -338t208 -317l57 47q59 47 102.5 143t61.5 225l35 240h143l-34 -231q-25 -166 -82.5 -273.5t-143.5 -179.5l-69 -57q41 -53 78.5 -100.5t72.5 -92.5q35 -43 78 -90t92 -96l-32 -76h-857v131h678q-102 98 -205.5 224t-196.5 266.5t-172 288 t-130 286.5z" />
<glyph unicode="&#x5e6;" horiz-adv-x="1140" d="M78 1198h151q72 -168 165 -338t208 -317l57 47q59 47 102.5 143t61.5 225l35 240h143l-34 -231q-25 -166 -82.5 -273.5t-143.5 -179.5l-69 -57q41 -53 78.5 -100.5t72.5 -92.5q35 -43 78 -90t92 -96l-32 -76h-857v131h678q-102 98 -205.5 224t-196.5 266.5t-172 288 t-130 286.5z" />
<glyph unicode="&#x2d8;" horiz-adv-x="1579" d="M104 1200h162l47 -786q16 -281 207 -281h486q190 0 208 281l48 786h161l-57 -782q-31 -416 -365 -416h-475q-336 0 -366 416zM694 395v803h144v-803h-144z" />
<glyph unicode="&#x5e9;" horiz-adv-x="1579" d="M104 1200h162l47 -786q16 -281 207 -281h486q190 0 208 281l48 786h161l-57 -782q-31 -416 -365 -416h-475q-336 0 -366 416zM694 395v803h144v-803h-144z" />
<glyph unicode="&#x2d9;" horiz-adv-x="1406" d="M49 2v131h148q29 0 46 12.5t17 42.5v557q0 74 15.5 128.5t37 92.5t44 62.5t34.5 38.5h-268v131h633q125 0 218 -22.5t155.5 -75.5t93 -140.5t30.5 -216.5v-743h-143v733q0 98 -20.5 163t-64.5 102.5t-112.5 53t-164.5 15.5h-222q-12 -16 -32.5 -38.5t-41 -59.5t-35 -92.5 t-14.5 -137.5v-557q0 -72 -36 -127q-37 -53 -105 -53h-213z" />
<glyph unicode="&#x5ea;" horiz-adv-x="1406" d="M49 2v131h148q29 0 46 12.5t17 42.5v557q0 74 15.5 128.5t37 92.5t44 62.5t34.5 38.5h-268v131h633q125 0 218 -22.5t155.5 -75.5t93 -140.5t30.5 -216.5v-743h-143v733q0 98 -20.5 163t-64.5 102.5t-112.5 53t-164.5 15.5h-222q-12 -16 -32.5 -38.5t-41 -59.5t-35 -92.5 t-14.5 -137.5v-557q0 -72 -36 -127q-37 -53 -105 -53h-213z" />
<glyph unicode="&#x2db;" horiz-adv-x="45" d="M-258 1604l137 137l31 -31l-82 -82h217v-1628h-45v1583h-176l86 -86l-31 -31z" />
<glyph unicode="&#x200f;" horiz-adv-x="45" d="M-258 1604l137 137l31 -31l-82 -82h217v-1628h-45v1583h-176l86 -86l-31 -31z" />
<glyph unicode="&#x2dc;" horiz-adv-x="1308" d="M98 1067v133h760q80 0 143.5 -27.5t108.5 -75.5t66.5 -111.5t15.5 -135.5l-39 -432q-37 -416 -367 -416h-184v131h191q98 0 147 63.5t59 217.5l31 430q12 223 -233 223h-699zM127 -342v1059h143v-1059h-143z" />
<glyph unicode="&#x5e7;" horiz-adv-x="1308" d="M98 1067v133h760q80 0 143.5 -27.5t108.5 -75.5t66.5 -111.5t15.5 -135.5l-39 -432q-37 -416 -367 -416h-184v131h191q98 0 147 63.5t59 217.5l31 430q12 223 -233 223h-699zM127 -342v1059h143v-1059h-143z" />
<glyph unicode="&#x2dd;" horiz-adv-x="45" d="M0 0v1628h217l-82 82l31 31l137 -137l-137 -138l-31 31l86 86h-176v-1583h-45z" />
<glyph unicode="&#x200e;" horiz-adv-x="45" d="M0 0v1628h217l-82 82l31 31l137 -137l-137 -138l-31 31l86 86h-176v-1583h-45z" />
<glyph unicode="&#x590;" horiz-adv-x="1536" d="M199 547v98h1136v-98h-1136zM547 -43q0 47 33 92q29 37 77 53q-49 20 -65 48q-12 27 -12 77v54q0 61 43 108q43 43 104 43h125q61 0 104 -43q43 -47 43 -108v-54q0 -53 -10 -77q-14 -31 -59 -46q25 -4 43 -17t35 -32q31 -41 30 -98v-90q0 -66 -43 -109q-43 -45 -104 -45 h-197q-61 0 -104 45q-43 43 -43 109v90zM600 1395v78h444v-103l-88 -205h111v-80h-143l-140 -329h-92l139 329h-110v80h145l99 230h-365zM633 -39v-63q0 -59 18 -84q18 -20 72 -21h141q51 0 70 21q18 25 18 84v63q0 90 -98 90h-123q-98 0 -98 -90zM666 217q0 -92 90 -92h73 q45 2 64 20q20 20 20 72v31q0 61 -18 84t-72 22h-67q-53 0 -72 -22q-18 -23 -18 -84v-31z" />
<glyph unicode="&#x591;" d="M-168 -471q0 131 131 164v125h74v-125q133 -35 133 -164v-131h-76v11q0 7 2 24v43q0 147 -86 147q-104 0 -104 -135v-47q2 -14 2 -25v-18h-76v131z" />
<glyph unicode="&#x592;" d="M-186 1444q0 33 20.5 53.5t52.5 20.5q33 0 54.5 -20.5t21.5 -53.5q0 -31 -21.5 -52.5t-54.5 -21.5t-53 20.5t-20 53.5zM-76 1632q0 31 22.5 53.5t53.5 22.5q33 0 54.5 -21.5t21.5 -54.5t-21.5 -54.5t-54.5 -21.5t-54.5 21.5t-21.5 54.5zM37 1444q0 33 21.5 53.5 t54.5 20.5t53 -20.5t20 -53.5q0 -31 -20.5 -52.5t-52.5 -21.5q-31 0 -53.5 21.5t-22.5 52.5z" />
<glyph unicode="&#x593;" d="M-119 1456l156 76l-156 72l156 75l-156 72l156 76h84l-158 -76l158 -72l-158 -75l158 -72l-158 -76l158 -74h-84z" />
<glyph unicode="&#x594;" d="M-76 1452q0 33 21.5 53.5t54.5 20.5t54.5 -20.5t21.5 -53.5q0 -31 -21.5 -52.5t-54.5 -21.5t-54.5 20.5t-21.5 53.5zM-76 1677q0 31 22.5 53.5t53.5 22.5q33 0 54.5 -21.5t21.5 -54.5t-21.5 -53t-54.5 -20t-54.5 20t-21.5 53z" />
<glyph unicode="&#x595;" d="M-113 1378v375h76v-375h-76zM37 1452q0 33 21.5 53.5t54.5 20.5q31 0 52 -21.5t21 -52.5t-20.5 -52.5t-52.5 -21.5q-31 0 -53.5 21.5t-22.5 52.5zM37 1677q0 31 22.5 53.5t53.5 22.5t52 -22.5t21 -53.5q0 -33 -20.5 -53t-52.5 -20q-31 0 -53.5 21t-22.5 52z" />
<glyph unicode="&#x596;" d="M-41 -219q0 6 1 15t3 20h76q-2 -10 -3 -24.5t-1 -37.5q0 -98 63 -149q55 -49 156 -49v-78q-295 0 -295 303z" />
<glyph unicode="&#x597;" d="M-121 1534l123 156l119 -156l-119 -154z" />
<glyph unicode="&#x598;" d="M-258 1530q0 53 38 92t91 39q66 0 109 -53q18 -27 36.5 -51.5t40.5 -53.5q27 -49 70 -49q33 0 53.5 21.5t20.5 54.5q0 47 -54 69l21 56q90 -43 90 -125q0 -55 -39 -93t-92 -38q-66 0 -109 53q-16 27 -33.5 50.5t-33.5 49.5q-39 51 -80 52q-33 0 -53.5 -20.5t-20.5 -53.5 q0 -53 53 -72l-20 -55q-88 39 -88 127z" />
<glyph unicode="&#x599;" d="M-104 1702l90 78q35 -41 61.5 -84t35.5 -95.5t-5.5 -116t-61.5 -143.5l-49 27q20 39 30.5 82t4.5 86t-30.5 85t-75.5 81z" />
<glyph unicode="&#x59a;" d="M-150 -305l199 194h123l-199 -194l199 -205h-121z" />
<glyph unicode="&#x59b;" d="M-66 -266q0 29 18.5 48t45.5 19q66 0 65 -67q0 -63 -65 -64q-27 0 -45.5 18.5t-18.5 45.5zM-66 -442q221 0 222 204l-6 56h75q2 -10 3 -27.5t1 -44.5q0 -133 -86 -207q-70 -59 -209 -59v78z" />
<glyph unicode="&#x59c;" d="M-96 1544q0 125 137 225l55 -51q-111 -80 -110 -172q0 -84 75 -166h-96q-61 76 -61 164z" />
<glyph unicode="&#x59d;" d="M-96 1544q0 125 137 225l55 -51q-111 -80 -110 -172q0 -84 75 -166h-96q-61 76 -61 164z" />
<glyph unicode="&#x59e;" d="M-197 1544q0 125 138 225l55 -51q-111 -84 -111 -172q0 -82 78 -166h-98q-62 76 -62 164zM27 1544q0 123 139 225l53 -51q-111 -80 -110 -172q0 -84 75 -166h-94q-63 76 -63 164z" />
<glyph unicode="&#x59f;" d="M-496 1655q0 80 53.5 134t133.5 54q82 0 135 -54t53 -134q0 -61 -37 -111l123 -123l-41 -41l-123 123q-45 -39 -110 -39q-82 0 -134.5 52.5t-52.5 138.5zM-432 1655q0 -53 36 -88t87 -35q53 0 89 35t36 88q0 51 -36 86t-89 35q-51 0 -87 -35t-36 -86zM35 1421l123 123 q-39 39 -39 111q0 80 54 134t136 54q37 0 71 -15.5t59.5 -41t41 -60t15.5 -71.5q0 -82 -53.5 -136.5t-133.5 -54.5q-72 0 -110 39l-123 -123zM184 1655q0 -53 36 -88t89 -35q51 0 85 35t34 88q0 47 -36 84t-83 37q-53 0 -89 -34t-36 -87z" />
<glyph unicode="&#x5a0;" d="M-55 1421l123 123q-37 43 -37 111q0 80 54 134t134 54q39 0 73 -15.5t59.5 -41t40 -60t14.5 -71.5q0 -82 -53.5 -136.5t-133.5 -54.5q-72 0 -110 39l-123 -123zM96 1655q0 -53 35 -88t88 -35t86 35t33 88q0 47 -36 84t-83 37q-53 0 -88 -34t-35 -87z" />
<glyph unicode="&#x5a1;" d="M-39 1380v357h74v-172q0 -10 39 -11q76 0 76 111v37q-2 16 -3 23v12h76v-82q0 -70 -35 -111q-37 -55 -98 -55q-29 0 -55 10v-119h-74z" />
<glyph unicode="&#x5a3;" d="M-184 -463h153v281h76v-357h-229v76z" />
<glyph unicode="&#x5a4;" d="M-193 -352l173 170h108l-174 -170l174 -178h-106z" />
<glyph unicode="&#x5a5;" d="M-248 -442q217 0 217 202l-4 58h78q6 -90 6 -101q0 -236 -297 -235v76z" />
<glyph unicode="&#x5a6;" d="M-221 -520q111 80 110 170q0 80 -75 168h96q63 -82 63 -164q0 -121 -139 -225zM6 -520q111 82 111 170q0 72 -78 168h98q61 -78 62 -164q0 -119 -138 -225z" />
<glyph unicode="&#x5a7;" d="M-125 -264l64 53l186 33v-74l-139 -24l139 -220l-64 -53l-186 -33v76l137 23z" />
<glyph unicode="&#x5a8;" d="M-97 1731.5q5 11.5 15 20.5t20.5 14.5t16.5 -1.5q37 -39 62.5 -84t33.5 -97t-4 -111.5t-49 -126.5q-4 -8 -16.5 -8.5t-23.5 6t-18.5 14.5t-2.5 18q20 45 35.5 85t16.5 79t-17.5 81t-67.5 93q-6 6 -1 17.5z" />
<glyph unicode="&#x5a9;" d="M-408 1655q0 80 53.5 134t133.5 54t133 -54t53 -134q0 -57 -35 -111l123 -123l-43 -41l-121 123q-45 -39 -110 -39q-82 0 -134.5 52.5t-52.5 138.5zM-344 1655q0 -53 35 -88t88 -35t88 35t35 88q0 51 -35 86t-88 35t-88 -35t-35 -86z" />
<glyph unicode="&#x5aa;" d="M-168 -182h76q0 -10 -2 -38t-2 -44q0 -141 88 -142q106 0 106 134q0 16 -2 44.5t-2 45.5h76v-129q0 -131 -133 -166v-123h-74v123q-59 16 -95 61t-36 105v129z" />
<glyph unicode="&#x5ab;" d="M-139 1561l174 168h106l-174 -168l174 -179h-106z" />
<glyph unicode="&#x5ac;" d="M-195 1382v74h156v281h74v-355h-230z" />
<glyph unicode="&#x5ad;" d="M-41 -217q0 6 1 15t3 20h76q-2 -10 -3 -24.5t-1 -37.5q0 -98 63 -149q55 -49 156 -49v-78q-295 0 -295 303z" />
<glyph unicode="&#x5ae;" d="M-258 1530q0 53 38 92t91 39q66 0 109 -53q18 -27 36.5 -51.5t40.5 -53.5q27 -49 70 -49q33 0 53.5 21.5t20.5 54.5q0 47 -54 69l21 56q90 -43 90 -125q0 -55 -39 -93t-92 -38q-66 0 -109 53q-16 27 -33.5 50.5t-33.5 49.5q-39 51 -80 52q-33 0 -53.5 -20.5t-20.5 -53.5 q0 -53 53 -72l-20 -55q-88 39 -88 127z" />
<glyph unicode="&#x5af;" d="M-213 1614q0 92 60.5 153.5t152.5 61.5t153.5 -61.5t61.5 -153.5q0 -47 -16.5 -86t-46 -67.5t-68.5 -45t-84 -16.5q-88 0 -152 63q-61 62 -61 152zM-156 1614q0 -66 45 -115t111 -49t112 49t46 115t-46 115t-112 49t-111 -49t-45 -115z" />
<glyph unicode="&#x5b2;" d="M-354 -190h387v-109h-387v109zM141 -256q0 37 26 60.5t62 23.5q35 0 60.5 -24.5t25.5 -59.5q0 -37 -24.5 -61.5t-61.5 -24.5t-62.5 24.5t-25.5 61.5zM143 -506q0 35 26 60.5t60 25.5q37 0 61.5 -24.5t24.5 -61.5t-24.5 -61.5t-61.5 -24.5t-61.5 24.5t-24.5 61.5z" />
<glyph unicode="&#x5b3;" d="M-354 -190h387v-109h-158l-6 -92q0 -23 27 -62q29 -41 28 -61q0 -37 -24.5 -61.5t-61.5 -24.5q-35 0 -59.5 24.5t-24.5 61.5q0 25 27 63q29 41 29 60l-7 92h-157v109zM141 -256q0 37 26 60.5t62 23.5q35 0 60.5 -24.5t25.5 -59.5q0 -37 -24.5 -61.5t-61.5 -24.5 t-62.5 24.5t-25.5 61.5zM143 -506q0 35 26 60.5t60 25.5q37 0 61.5 -24.5t24.5 -61.5t-24.5 -61.5t-61.5 -24.5t-61.5 24.5t-24.5 61.5z" />
<glyph unicode="&#x221a;" d="M-354 -190h387v-109h-158l-6 -92q0 -23 27 -62q29 -41 28 -61q0 -37 -24.5 -61.5t-61.5 -24.5q-35 0 -59.5 24.5t-24.5 61.5q0 25 27 63q29 41 29 60l-7 92h-157v109zM141 -256q0 37 26 60.5t62 23.5q35 0 60.5 -24.5t25.5 -59.5q0 -37 -24.5 -61.5t-61.5 -24.5 t-62.5 24.5t-25.5 61.5zM143 -506q0 35 26 60.5t60 25.5q37 0 61.5 -24.5t24.5 -61.5t-24.5 -61.5t-61.5 -24.5t-61.5 24.5t-24.5 61.5z" />
<glyph unicode="&#x5b5;" d="M-225 -256q0 35 24.5 59.5t61.5 24.5t61.5 -23.5t24.5 -60.5t-24.5 -61.5t-61.5 -24.5t-61.5 24.5t-24.5 61.5zM53 -256q0 35 24.5 59.5t61.5 24.5t61.5 -24.5t24.5 -59.5q0 -37 -24.5 -61.5t-61.5 -24.5q-35 0 -60.5 25.5t-25.5 60.5z" />
<glyph unicode="&#x2248;" d="M-225 -256q0 35 24.5 59.5t61.5 24.5t61.5 -23.5t24.5 -60.5t-24.5 -61.5t-61.5 -24.5t-61.5 24.5t-24.5 61.5zM53 -256q0 35 24.5 59.5t61.5 24.5t61.5 -24.5t24.5 -59.5q0 -37 -24.5 -61.5t-61.5 -24.5q-35 0 -60.5 25.5t-25.5 60.5z" />
<glyph unicode="&#x5b6;" d="M-236 -256q0 35 25 59.5t61 24.5q37 0 62 -23.5t25 -60.5t-25 -61.5t-62 -24.5t-61.5 24.5t-24.5 61.5zM-88 -494q0 35 26.5 61.5t61.5 26.5q37 0 61.5 -25.5t24.5 -62.5t-24.5 -61.5t-61.5 -24.5t-62.5 24.5t-25.5 61.5zM63 -256q0 35 25 59.5t62 24.5t61.5 -24.5 t24.5 -59.5q0 -37 -25 -61.5t-61 -24.5q-35 0 -61 25.5t-26 60.5z" />
<glyph unicode="&#x2206;" d="M-236 -256q0 35 25 59.5t61 24.5q37 0 62 -23.5t25 -60.5t-25 -61.5t-62 -24.5t-61.5 24.5t-24.5 61.5zM-88 -494q0 35 26.5 61.5t61.5 26.5q37 0 61.5 -25.5t24.5 -62.5t-24.5 -61.5t-61.5 -24.5t-62.5 24.5t-25.5 61.5zM63 -256q0 35 25 59.5t62 24.5t61.5 -24.5 t24.5 -59.5q0 -37 -25 -61.5t-61 -24.5q-35 0 -61 25.5t-26 60.5z" />
<glyph unicode="&#x5b7;" d="M-193 -190h388v-109h-388v109z" />
<glyph unicode="&#x5b8;" d="M-193 -190h388v-109h-158l-6 -92q0 -23 26 -62q29 -41 29 -61q0 -37 -24.5 -61.5t-61.5 -24.5q-35 0 -59.5 24.5t-24.5 61.5q0 25 27 63q29 41 28 60l-6 92h-158v109z" />
<glyph unicode="&#x5b9;" d="M-86 1411q0 35 25.5 60.5t60.5 25.5q37 0 61.5 -24.5t24.5 -61.5t-24.5 -61.5t-61.5 -24.5t-61.5 24.5t-24.5 61.5z" />
<glyph unicode="&#x2026;" d="M-86 1411q0 35 25.5 60.5t60.5 25.5q37 0 61.5 -24.5t24.5 -61.5t-24.5 -61.5t-61.5 -24.5t-61.5 24.5t-24.5 61.5z" />
<glyph unicode="&#x5bb;" d="M-86 -256q0 35 24.5 59.5t61.5 24.5t61.5 -24.5t24.5 -59.5q0 -37 -24.5 -61.5t-61.5 -24.5q-35 0 -60.5 25.5t-25.5 60.5zM66 -393q0 35 24.5 59.5t61.5 24.5t61.5 -23.5t24.5 -60.5t-25 -61.5t-61 -24.5q-37 0 -61.5 24.5t-24.5 61.5zM217 -537q0 35 26.5 61.5 t61.5 26.5q37 0 61.5 -25.5t24.5 -62.5t-24.5 -61.5t-61.5 -24.5t-62.5 24.5t-25.5 61.5z" />
<glyph unicode="&#x5bc;" d="M-84 590q0 35 24.5 59.5t59.5 24.5t59.5 -24.5t24.5 -59.5t-24.5 -59.5t-59.5 -24.5t-59.5 24.5t-24.5 59.5z" />
<glyph unicode="&#x5bd;" d="M-37 -182h74v-357h-74v357z" />
<glyph unicode="&#x5c0;" horiz-adv-x="497" d="M195 2v1184h110v-1184h-110z" />
<glyph unicode="&#x5c1;" d="M358 1411q0 35 26 60.5t60 25.5q37 0 61.5 -24.5t24.5 -61.5t-24.5 -61.5t-61.5 -24.5t-61.5 24.5t-24.5 61.5z" />
<glyph unicode="&#x5c2;" d="M-172 1411q0 35 25.5 60.5t60.5 25.5q37 0 61.5 -24.5t24.5 -61.5t-24.5 -61.5t-61.5 -24.5t-61.5 24.5t-24.5 61.5z" />
<glyph unicode="&#x5c3;" horiz-adv-x="421" d="M133 0v137h135v-137h-135zM133 705v135h135v-135h-135z" />
<glyph unicode="&#x5c4;" d="M-86 1411q0 35 25.5 60.5t60.5 25.5q37 0 61.5 -24.5t24.5 -61.5t-24.5 -61.5t-61.5 -24.5t-61.5 24.5t-24.5 61.5z" />
<glyph unicode="&#x5c7;" d="M-193 -184h388v-109h-158l-6 -266q0 -23 26 -62q29 -41 29 -61q0 -37 -24.5 -61.5t-61.5 -24.5q-35 0 -59.5 24.5t-24.5 61.5q0 25 27 64q29 41 28 59l-6 266h-158v109z" />
<glyph unicode="&#x5d0;" horiz-adv-x="1263" d="M109 1198h161l502 -690q43 31 80 65.5t62.5 79.5t40 101.5t14.5 134.5v309h143v-317q0 -92 -23.5 -165t-60.5 -129.5t-83 -98.5t-93 -72l301 -414h-178l-541 725q-47 -47 -76.5 -89t-48 -84t-26 -89t-9.5 -103v-360h-143v360q0 88 20.5 157t52.5 124t71.5 101.5 t78.5 89.5z" />
<glyph unicode="&#x2021;" horiz-adv-x="1263" d="M109 1198h161l502 -690q43 31 80 65.5t62.5 79.5t40 101.5t14.5 134.5v309h143v-317q0 -92 -23.5 -165t-60.5 -129.5t-83 -98.5t-93 -72l301 -414h-178l-541 725q-47 -47 -76.5 -89t-48 -84t-26 -89t-9.5 -103v-360h-143v360q0 88 20.5 157t52.5 124t71.5 101.5 t78.5 89.5z" />
<glyph unicode="&#x5d1;" horiz-adv-x="1124" d="M98 2v131h525q37 29 61.5 60.5t40.5 71.5t23.5 92.5t7.5 119.5v266q0 92 -27 155t-77 100.5t-121.5 53t-161.5 15.5h-271v131h285q256 0 385 -111q131 -109 131 -362v-215q0 -72 -14.5 -134.5t-34 -111.5t-43 -83t-41.5 -48h260v-131h-928z" />
<glyph unicode="&#x5d2;" horiz-adv-x="864" d="M59 -20v147q84 29 157 84t133.5 127t109.5 159t86 179v190q0 121 -51 160q-51 41 -164 41h-191v131h248q143 0 222 -73.5t79 -239.5v-428q0 -86 14 -142l66 -311h-143l-62 305q-4 16 -6 40t-2 52q-2 29 -3 54.5t-1 48.5q-148 -463 -492 -524z" />
<glyph unicode="&#x201a;" horiz-adv-x="864" d="M59 -20v147q84 29 157 84t133.5 127t109.5 159t86 179v190q0 121 -51 160q-51 41 -164 41h-191v131h248q143 0 222 -73.5t79 -239.5v-428q0 -86 14 -142l66 -311h-143l-62 305q-4 16 -6 40t-2 52q-2 29 -3 54.5t-1 48.5q-148 -463 -492 -524z" />
<glyph unicode="&#x5d3;" horiz-adv-x="1134" d="M80 1067v131h907v-131h-166v-1065h-143v1065h-598z" />
<glyph unicode="&#x201e;" horiz-adv-x="1134" d="M80 1067v131h907v-131h-166v-1065h-143v1065h-598z" />
<glyph unicode="&#x5d4;" horiz-adv-x="1292" d="M145 1067v131h498q125 0 218 -22.5t154.5 -75.5t92.5 -140.5t31 -216.5v-743h-144v733q0 100 -20.5 165t-63.5 102.5t-111.5 52t-164.5 14.5h-490zM150 2v662h143v-662h-143z" />
<glyph unicode="&#x2030;" horiz-adv-x="1292" d="M145 1067v131h498q125 0 218 -22.5t154.5 -75.5t92.5 -140.5t31 -216.5v-743h-144v733q0 100 -20.5 165t-63.5 102.5t-111.5 52t-164.5 14.5h-490zM150 2v662h143v-662h-143z" />
<glyph unicode="&#x5d5;" horiz-adv-x="450" d="M154 2v1196h143v-1196h-143z" />
<glyph unicode="&#x5d6;" horiz-adv-x="782" d="M135 1067v131h533v-108q-86 -39 -151.5 -100.5t-104.5 -142.5t-46.5 -182.5t23.5 -218.5l119 -444h-143l-117 444q-27 100 -21 195.5t36 176.5t75 144.5t98 104.5h-301z" />
<glyph unicode="&#x5d7;" horiz-adv-x="1343" d="M90 1067v131h602q125 0 218.5 -22.5t155.5 -75.5t93 -140.5t31 -216.5v-743h-143v733q0 98 -20.5 163t-64.5 102.5t-113 53t-165 15.5h-252q-12 -16 -32.5 -38.5t-41 -59.5t-35 -92.5t-14.5 -137.5v-737h-143v743q0 74 15.5 128.5t37 92.5t44 62.5t34.5 38.5h-207z" />
<glyph unicode="&#x5d8;" horiz-adv-x="1341" d="M115 1200h161l48 -786q18 -281 206 -281h318q190 0 209 281l28 387q4 70 -21.5 124t-70.5 89t-103.5 50t-119.5 12t-118.5 -27.5t-98.5 -69.5l-35 12l27 135q102 78 223 86q129 12 231 -32q109 -43 177 -142q35 -47 50 -106.5t11 -126.5l-29 -387q-31 -416 -364 -416 h-307q-338 0 -367 416z" />
<glyph unicode="&#x5d9;" horiz-adv-x="450" d="M154 565v633h143v-633h-143z" />
<glyph unicode="&#x5da;" horiz-adv-x="1073" d="M59 1067v131h365q125 0 218 -22.5t154.5 -75.5t92.5 -140.5t31 -216.5v-1210h-144v1200q0 100 -20.5 165t-64.5 102.5t-112.5 52t-164.5 14.5h-355z" />
<glyph unicode="&#x5db;" horiz-adv-x="1064" d="M111 2v131h307q96 0 164.5 15.5t112.5 54.5t64.5 102.5t20.5 161.5v266q0 100 -20.5 165t-64.5 102.5t-112.5 52t-164.5 14.5h-307v131h317q125 0 218 -22.5t154.5 -75.5t91.5 -140.5t32 -216.5v-284q0 -129 -31 -216t-92.5 -140.5t-154.5 -77t-218 -23.5h-317z" />
<glyph unicode="&#x5dc;" horiz-adv-x="1093" d="M66 1067v565h143v-434h434q80 0 141.5 -27.5t102.5 -74.5t60.5 -110.5t17.5 -135.5l-17 -361q-6 -129 -42 -221t-92 -151.5t-131 -87t-157 -27.5h-295v131h275q123 0 198.5 78t86.5 227l24 406q12 223 -233 223h-516z" />
<glyph unicode="&#x5dd;" horiz-adv-x="1490" d="M154 1067v131h669q125 0 217.5 -22.5t153.5 -75.5t92 -140.5t31 -216.5v-743h-143v2h-887v1065h-133zM430 133h744v600q0 100 -20.5 165t-63.5 102.5t-112 52t-165 14.5h-383v-934z" />
<glyph unicode="&#x5de;" horiz-adv-x="1355" d="M96 1067v131h602q141 0 239.5 -31.5t162 -92t92.5 -148.5t31 -203l4 -350q0 -74 -18.5 -140.5t-55.5 -118t-92 -82t-127 -30.5h-293v131h272q82 0 127 58.5t43 173.5l-4 348q-2 98 -26.5 166.5t-68.5 109.5t-108.5 59.5t-148.5 18.5h-313l-121 -1065h-148l136 1065h-185z " />
<glyph unicode="&#x5df;" horiz-adv-x="450" d="M154 -432v1630h143v-1630h-143z" />
<glyph unicode="&#x5e0;" horiz-adv-x="817" d="M63 2v131h457v717q0 217 -258 217h-125v131h101q117 0 198.5 -20.5t131.5 -69.5t73 -130t23 -204v-772h-601z" />
<glyph unicode="&#xf8ff;" horiz-adv-x="817" d="M63 2v131h457v717q0 217 -258 217h-125v131h101q117 0 198.5 -20.5t131.5 -69.5t73 -130t23 -204v-772h-601z" />
<glyph unicode="&#x5e1;" horiz-adv-x="1345" d="M111 1200h792q61 0 121.5 -24.5t107 -71.5t73 -115.5t20.5 -157.5l-31 -413q-31 -416 -365 -416h-297q-338 0 -366 416zM279 1067l40 -653q18 -281 207 -281h308q190 0 208 281l27 415q8 115 -46 176.5t-165 61.5h-579z" />
<glyph unicode="&#x5e2;" horiz-adv-x="1257" d="M86 2v131h309l-252 1065h162l225 -1055h164q63 0 113.5 26t84.5 70t51.5 100t17.5 118v741h143v-698q2 -229 -117 -365q-117 -133 -354 -133h-547z" />
<glyph unicode="&#x5e3;" horiz-adv-x="1204" d="M90 1067v131h465q125 0 218 -22.5t154.5 -75.5t92.5 -140.5t31 -216.5v-1210h-144v1200q0 100 -20.5 165t-64.5 102.5t-112.5 52t-164.5 14.5h-64q-43 -2 -81 -24.5t-67.5 -56.5t-47 -76t-17.5 -83v-65q0 -74 25 -105q25 -29 96 -28h141v-131h-186q-96 0 -158 55 q-61 55 -61 154v102q0 33 5 65.5t21.5 65.5t48 64.5t85.5 62.5h-195z" />
<glyph unicode="&#x5e4;" horiz-adv-x="1265" d="M78 1067v131h540q123 0 217.5 -22.5t158 -75.5t95 -140.5t31.5 -216.5v-284q-2 -129 -32.5 -216t-91 -140.5t-153.5 -77t-218 -23.5h-494v131h483q96 0 165 15.5t113 54.5t64.5 102.5t20.5 161.5v266q0 100 -23.5 166t-71.5 102.5t-120 51t-170 14.5h-80q-43 0 -83 -21.5 t-70.5 -55.5t-49 -77t-18.5 -86v-65q0 -74 24 -105q25 -29 97 -28h147v-131h-186q-96 0 -158 55q-61 55 -61 154v102q0 33 5 65.5t21.5 65.5t48 64.5t84.5 62.5h-235z" />
<glyph unicode="&#x5e8;" horiz-adv-x="1028" d="M63 1067v131h316q125 0 219 -22.5t155.5 -75.5t92.5 -140.5t31 -216.5v-743h-144v733q0 100 -20.5 165t-64.5 102.5t-113.5 52t-165.5 14.5h-306z" />
<glyph unicode="&#x5f0;" horiz-adv-x="849" d="M154 2v1196h143v-1196h-143zM553 2v1196h143v-1196h-143z" />
<glyph unicode="&#x5f1;" horiz-adv-x="845" d="M549 2v1196h143v-1196h-143zM154 565v633h143v-633h-143z" />
<glyph unicode="&#x5f2;" horiz-adv-x="856" d="M154 565v633h143v-633h-143zM560 565v633h143v-633h-143z" />
<glyph unicode="&#x5f3;" horiz-adv-x="499" d="M133 1036l78 322h135v-74l-160 -266z" />
<glyph unicode="&#x25ca;" horiz-adv-x="499" d="M133 1036l78 322h135v-74l-160 -266z" />
<glyph unicode="&#x5f4;" horiz-adv-x="702" d="M102 1036l78 322h135v-74l-159 -266zM387 1036l78 322h135v-74l-162 -266z" />
<glyph unicode="&#x2000;" horiz-adv-x="1024" />
<glyph unicode="&#x2001;" horiz-adv-x="2048" />
<glyph unicode="&#x2002;" horiz-adv-x="1024" />
<glyph unicode="&#x2003;" horiz-adv-x="2048" />
<glyph unicode="&#x2004;" horiz-adv-x="681" />
<glyph unicode="&#x2005;" horiz-adv-x="512" />
<glyph unicode="&#x2006;" horiz-adv-x="339" />
<glyph unicode="&#x2007;" horiz-adv-x="1130" />
<glyph unicode="&#x2008;" horiz-adv-x="421" />
<glyph unicode="&#x2009;" horiz-adv-x="204" />
<glyph unicode="&#x200a;" horiz-adv-x="20" />
<glyph unicode="&#x200b;" />
<glyph unicode="&#x200c;" horiz-adv-x="45" d="M0 0v1628h45v-1628h-45z" />
<glyph unicode="&#x200d;" horiz-adv-x="45" d="M-115 1495l109 109l-109 106l31 31l107 -109l106 109l31 -31l-107 -106l107 -109l-31 -29l-84 84v-1550h-45v1550l-84 -84z" />
<glyph unicode="&#x2010;" horiz-adv-x="923" d="M133 530v144h637v-144h-637z" />
<glyph unicode="&#x2011;" horiz-adv-x="923" d="M133 530v144h637v-144h-637z" />
<glyph unicode="&#x2012;" horiz-adv-x="1130" d="M133 530v144h844v-144h-844z" />
<glyph unicode="&#x2013;" horiz-adv-x="929" d="M25 614l69 168h809l-69 -168h-809z" />
<glyph unicode="&#x2014;" horiz-adv-x="1859" d="M25 614l69 168h1731l-70 -168h-1730z" />
<glyph unicode="&#x2015;" horiz-adv-x="4096" d="M133 530v144h3809v-144h-3809z" />
<glyph unicode="&#x2016;" horiz-adv-x="860" d="M563 -100v1405h143v-1405h-143zM133 -100v1405h143v-1405h-143z" />
<glyph unicode="&#x2018;" horiz-adv-x="499" d="M133 -121l78 322h135v-74l-160 -266z" />
<glyph unicode="&#x2019;" horiz-adv-x="421" d="M133 0v137h135v-137h-135z" />
<glyph unicode="&#x201c;" horiz-adv-x="702" d="M104 -88l78 321h135v-73l-159 -266zM389 -88l78 321h135v-73l-162 -266z" />
<glyph unicode="&#x201d;" horiz-adv-x="702" d="M102 1036l78 322h135v-74l-159 -266zM387 1036l78 322h135v-74l-162 -266z" />
<glyph unicode="&#x2022;" horiz-adv-x="1062" d="M115 643q0 172 118 291q121 121 293 121q170 0 291 -121t121 -291q0 -172 -121 -293t-291 -121q-172 0 -293 121q-118 119 -118 293z" />
<glyph unicode="&#x2024;" horiz-adv-x="421" d="M133 0v137h135v-137h-135z" />
<glyph unicode="&#x2025;" horiz-adv-x="843" d="M555 0v137h135v-137h-135zM133 0v137h135v-137h-135z" />
<glyph unicode="&#x202a;" />
<glyph unicode="&#x202f;" horiz-adv-x="368" />
<glyph unicode="&#x2032;" horiz-adv-x="499" d="M133 1036l78 322h135v-74l-160 -266z" />
<glyph unicode="&#x2033;" horiz-adv-x="999" d="M633 1036l78 322h135v-74l-160 -266zM133 1036l78 322h135v-74l-160 -266z" />
<glyph unicode="&#x2034;" horiz-adv-x="1499" d="M1132 1036l78 322h135v-74l-160 -266zM633 1036l78 322h135v-74l-160 -266zM133 1036l78 322h135v-74l-160 -266z" />
<glyph unicode="&#x2039;" horiz-adv-x="851" d="M162 582q45 39 109.5 95t150.5 132l147 139q125 117 133 117q25 0 25 -29q0 -35 -328 -461q47 -59 93.5 -116.5t93.5 -116.5q143 -186 143 -229q0 -29 -27 -29q-10 0 -153 143q-23 23 -118 111t-269 244z" />
<glyph unicode="&#x203a;" horiz-adv-x="851" d="M123 1036q0 29 29 29q10 0 153 -143q35 -33 131 -121t256 -232q-45 -39 -109.5 -95t-150.5 -132q-45 -45 -111.5 -107.5t-158.5 -148.5l-10 -2q-27 0 -27 29q0 35 328 460q-47 57 -92.5 114.5t-90.5 117.5q-147 186 -147 231z" />
<glyph unicode="&#x203c;" horiz-adv-x="946" d="M606 1204h186l-45 -938h-98zM637 0v137h145v-137h-145zM133 1204h186l-45 -938h-98zM164 0v137h145v-137h-145z" />
<glyph unicode="&#x203e;" horiz-adv-x="368" d="M-211.203 123v78.5967h245.99q51.5977 0 69.5967 22.1992q18.5996 22.1992 18.5996 83.3965v40.7988q0 49.1973 -28.1992 70.1963q-14.999 13.7998 -70.1973 20.3994l-91.7959 15v49.1973l91.7959 22.1992q58.7979 15 70.1973 20.999q28.1992 18.5996 28.1992 65.998 v46.7979q0 61.1973 -18.5996 83.3965q-18.5986 22.1992 -69.5967 22.1992h-245.99v78.5967h274.188q61.1982 0 104.396 -44.3984q41.999 -41.998 41.999 -107.995v-74.9971q0 -93.5967 -109.796 -128.995q45.5986 -7.19922 76.1973 -49.1982 q32.998 -43.1973 33.5986 -94.1953v-67.7979q0 -66.5967 -41.999 -107.995q-43.1973 -44.3984 -104.396 -44.3984h-274.188z" />
<glyph unicode="&#x2047;" horiz-adv-x="2076" d="M1171 1069v131h506q104 0 176 -74q70 -70 70 -180v-104q0 -293 -299 -293h-39q-109 0 -131 -14q-43 -23 -43 -101v-168h-142v154q0 143 64 201q66 59 213 59h70q164 0 163 154v59q0 102 -30 139q-31 37 -119 37h-459zM1259 0v137h148v-137h-148zM133 1069v131h506 q104 0 176 -74q70 -70 70 -180v-104q0 -293 -299 -293h-39q-109 0 -131 -14q-43 -23 -43 -101v-168h-142v154q0 143 64 201q66 59 213 59h70q164 0 163 154v59q0 102 -30 139q-31 37 -119 37h-459zM221 0v137h148v-137h-148z" />
<glyph unicode="&#x2048;" horiz-adv-x="1511" d="M1171 1204h186l-45 -938h-98zM1202 0v137h145v-137h-145zM133 1069v131h506q104 0 176 -74q70 -70 70 -180v-104q0 -293 -299 -293h-39q-109 0 -131 -14q-43 -23 -43 -101v-168h-142v154q0 143 64 201q66 59 213 59h70q164 0 163 154v59q0 102 -30 139q-31 37 -119 37 h-459zM221 0v137h148v-137h-148z" />
<glyph unicode="&#x2049;" horiz-adv-x="1511" d="M606 1069v131h506q104 0 176 -74q70 -70 70 -180v-104q0 -293 -299 -293h-39q-109 0 -131 -14q-43 -23 -43 -101v-168h-142v154q0 143 64 201q66 59 213 59h70q164 0 163 154v59q0 102 -30 139q-31 37 -119 37h-459zM694 0v137h148v-137h-148zM133 1204h186l-45 -938h-98 zM164 0v137h145v-137h-145z" />
<glyph unicode="&#x2057;" horiz-adv-x="1998" d="M1632 1036l78 322h135v-74l-160 -266zM1132 1036l78 322h135v-74l-160 -266zM633 1036l78 322h135v-74l-160 -266zM133 1036l78 322h135v-74l-160 -266z" />
<glyph unicode="&#x205f;" horiz-adv-x="460" />
<glyph unicode="&#x2060;" />
<glyph unicode="&#xe000;" horiz-adv-x="770" d="M0 770h770v-770h-770v770z" />
<glyph unicode="&#xfb00;" horiz-adv-x="1441" d="M762 0v49h158v680h-156v49h156v74q0 221 43 313q80 170 254 170q72 0 129 -32q72 -41 71 -105q0 -78 -75 -78q-82 0 -82 74q0 47 47 70q0 23 -86 22q-100 0 -101 -137v-371h170v-49h-170v-680h158v-49h-516zM41 0v49h158v680h-156v49h156v74q0 221 43 313q80 170 254 170 q72 0 129 -32q72 -41 71 -105q0 -78 -75 -78q-82 0 -82 74q0 47 47 70q0 23 -86 22q-100 0 -101 -137v-371h170v-49h-170v-680h158v-49h-516z" />
<glyph unicode="&#xfb01;" horiz-adv-x="1341" d="M789 0v49h157v680h-157v49h356v-729h160v-49h-516zM926 1126q0 47 34.5 79t84.5 32q49 0 83.5 -31.5t34.5 -79.5q0 -47 -35.5 -77.5t-82.5 -30.5t-83 30.5t-36 77.5zM41 0v49h158v680h-156v49h156v74q0 221 43 313q80 170 254 170q72 0 129 -32q72 -41 71 -105 q0 -78 -75 -78q-82 0 -82 74q0 47 47 70q0 23 -86 22q-100 0 -101 -137v-371h170v-49h-170v-680h158v-49h-516z" />
<glyph unicode="&#xfb02;" horiz-adv-x="1323" d="M787 0v49h147v1223h-147v49h346v-1272h147v-49h-493zM41 0v49h158v680h-156v49h156v74q0 221 43 313q80 170 254 170q72 0 129 -32q72 -41 71 -105q0 -78 -75 -78q-82 0 -82 74q0 47 47 70q0 23 -86 22q-100 0 -101 -137v-371h170v-49h-170v-680h158v-49h-516z" />
<glyph unicode="&#xfb03;" horiz-adv-x="2062" d="M1510 0v49h157v680h-157v49h356v-729h160v-49h-516zM1647 1126q0 47 34.5 79t84.5 32q49 0 83.5 -31.5t34.5 -79.5q0 -47 -35.5 -77.5t-82.5 -30.5t-83 30.5t-36 77.5zM762 0v49h158v680h-156v49h156v74q0 221 43 313q80 170 254 170q72 0 129 -32q72 -41 71 -105 q0 -78 -75 -78q-82 0 -82 74q0 47 47 70q0 23 -86 22q-100 0 -101 -137v-371h170v-49h-170v-680h158v-49h-516zM41 0v49h158v680h-156v49h156v74q0 221 43 313q80 170 254 170q72 0 129 -32q72 -41 71 -105q0 -78 -75 -78q-82 0 -82 74q0 47 47 70q0 23 -86 22 q-100 0 -101 -137v-371h170v-49h-170v-680h158v-49h-516z" />
<glyph unicode="&#xfb04;" horiz-adv-x="2043" d="M1508 0v49h147v1223h-147v49h346v-1272h147v-49h-493zM762 0v49h158v680h-156v49h156v74q0 221 43 313q80 170 254 170q72 0 129 -32q72 -41 71 -105q0 -78 -75 -78q-82 0 -82 74q0 47 47 70q0 23 -86 22q-100 0 -101 -137v-371h170v-49h-170v-680h158v-49h-516zM41 0v49 h158v680h-156v49h156v74q0 221 43 313q80 170 254 170q72 0 129 -32q72 -41 71 -105q0 -78 -75 -78q-82 0 -82 74q0 47 47 70q0 23 -86 22q-100 0 -101 -137v-371h170v-49h-170v-680h158v-49h-516z" />
<glyph unicode="&#xfb06;" horiz-adv-x="1464" d="M791 727v49h143v217l201 92v-309h205v-49h-205v-518q0 -176 127 -176q111 0 133 133q4 29 29 29q20 0 20 -25q0 -16 -2 -20q-35 -176 -252 -177q-119 0 -187.5 61.5t-68.5 178.5v514h-143zM88 8v207q0 25 23 25q18 0 24 -25q55 -195 266 -195q80 0 138 33q74 39 73 113 q0 86 -125 129q-16 2 -196 43q-188 41 -189 207q0 59 22.5 106t61.5 80t91.5 50.5t113.5 17.5q96 0 160 -51l41 38l6 5q8 8 16 8q14 0 15 -23v-207q0 -20 -17 -20q-20 0 -22 18q-14 82 -69.5 132.5t-141.5 50.5q-63 0 -115 -31q-61 -35 -61 -92q0 -61 123 -99q45 -10 89 -19 t89 -20q199 -57 198 -245q0 -129 -81.5 -200t-212.5 -71q-156 0 -238 76l-39 -51q-8 -14 -20 -14q-23 -1 -23 24z" />
<glyph unicode="&#xfb1d;" horiz-adv-x="479" d="M172 565v633h143v-633h-143zM154 -256q0 35 24.5 59.5t61.5 24.5t61.5 -23.5t24.5 -60.5t-24.5 -61.5t-61.5 -24.5t-61.5 24.5t-24.5 61.5z" />
<glyph unicode="&#xfb1e;" horiz-adv-x="1935" d="M63 1067v219h144v-88h1253q80 0 141.5 -27.5t102.5 -74.5t60.5 -110.5t17.5 -135.5l-17 -361q-6 -129 -41.5 -221t-92 -151.5t-131.5 -87t-157 -27.5h-294v131h274q123 0 198.5 78t86.5 227l24 406q12 223 -233 223h-1336z" />
<glyph unicode="&#xfb1f;" horiz-adv-x="856" d="M154 565v633h143v-633h-143zM560 565v633h143v-633h-143z" />
<glyph unicode="&#xfb20;" horiz-adv-x="1257" d="M86 2v131h309l-252 1065h162l225 -1055h164q63 0 113.5 26t84.5 70t51.5 100t17.5 118v741h143v-698q2 -229 -117 -365q-117 -133 -354 -133h-547z" />
<glyph unicode="&#xfb21;" horiz-adv-x="1943" d="M98 2v131h1344q37 29 61.5 60.5t41 71.5t23.5 92.5t7 119.5v266q0 92 -26.5 155t-77 100.5t-122 53t-161.5 15.5h-1090v131h1104q256 0 385 -111q131 -109 131 -362v-215q0 -72 -14 -134.5t-33.5 -111.5t-43 -83t-42.5 -48h260v-131h-1747z" />
<glyph unicode="&#xfb22;" horiz-adv-x="1953" d="M80 1067v131h1726v-131h-166v-1065h-143v1065h-1417z" />
<glyph unicode="&#xfb23;" horiz-adv-x="2111" d="M145 1067v131h1317q125 0 218.5 -22.5t154.5 -75.5t92 -140.5t31 -216.5v-743h-143v733q0 100 -20.5 165t-63.5 102.5t-112 52t-165 14.5h-1309zM150 2v662h143v-662h-143z" />
<glyph unicode="&#xfb24;" horiz-adv-x="1884" d="M111 2v131h1126q96 0 164.5 15.5t113 54.5t64.5 102.5t20 161.5v266q0 100 -20 165t-64.5 102.5t-113 52t-164.5 14.5h-1126v131h1136q125 0 218.5 -22.5t154.5 -75.5t91 -140.5t32 -216.5v-284q0 -129 -31 -216t-92 -140.5t-154.5 -77t-218.5 -23.5h-1136z" />
<glyph unicode="&#xfb25;" horiz-adv-x="1912" d="M66 1067v565h143v-434h1253q80 0 141.5 -27.5t102.5 -74.5t60.5 -110.5t17.5 -135.5l-17 -361q-6 -129 -41.5 -221t-92 -151.5t-131.5 -87t-156 -27.5h-295v131h274q123 0 198.5 78t86.5 227l24 406q12 223 -233 223h-1335z" />
<glyph unicode="&#xfb26;" horiz-adv-x="2310" d="M154 1067v131h1488q125 0 217.5 -22.5t154 -75.5t92 -140.5t30.5 -216.5v-743h-143v2h-1706v1065h-133zM430 133h1563v600q0 100 -20.5 165t-63.5 102.5t-111.5 52t-165.5 14.5h-1202v-934z" />
<glyph unicode="&#xfb27;" horiz-adv-x="1847" d="M63 1067v131h1135q125 0 219 -22.5t155.5 -75.5t92.5 -140.5t31 -216.5v-743h-144v733q0 100 -20.5 165t-64.5 102.5t-113.5 52t-165.5 14.5h-1125z" />
<glyph unicode="&#xfb28;" horiz-adv-x="2226" d="M49 2v131h148q29 0 46 12.5t17 42.5v557q0 74 15.5 128.5t37 92.5t44 62.5t34.5 38.5h-268v131h1452q125 0 218 -22.5t155.5 -75.5t93.5 -140.5t31 -216.5v-743h-144v733q0 98 -20.5 163t-64.5 102.5t-112.5 53t-164.5 15.5h-1041q-12 -16 -32.5 -38.5t-41 -59.5 t-35 -92.5t-14.5 -137.5v-557q0 -72 -36 -127q-37 -53 -105 -53h-213z" />
<glyph unicode="&#xfb29;" horiz-adv-x="1183" d="M29 584v172h448v448h170v-448h449v-172h-1067z" />
<glyph unicode="&#xfb2a;" horiz-adv-x="1587" d="M104 1200h162l47 -786q16 -281 207 -281h486q190 0 208 281l48 786h161l-57 -782q-31 -416 -365 -416h-475q-336 0 -366 416zM694 395v803h144v-803h-144zM1261 1405q0 35 26 60.5t60 25.5q37 0 61.5 -24.5t24.5 -61.5t-24.5 -61.5t-61.5 -24.5t-61.5 24.5t-24.5 61.5z " />
<glyph unicode="&#xfb2b;" horiz-adv-x="1579" d="M104 1200h162l47 -786q16 -281 207 -281h486q190 0 208 281l48 786h161l-57 -782q-31 -416 -365 -416h-475q-336 0 -366 416zM694 395v803h144v-803h-144zM96 1411q0 35 25.5 60.5t60.5 25.5q37 0 61.5 -24.5t24.5 -61.5t-24.5 -61.5t-61.5 -24.5t-61.5 24.5t-24.5 61.5z " />
<glyph unicode="&#xfb2c;" horiz-adv-x="1587" d="M104 1200h162l47 -786q16 -281 207 -281h486q190 0 208 281l48 786h161l-57 -782q-31 -416 -365 -416h-475q-336 0 -366 416zM694 395v803h144v-803h-144zM1261 1405q0 35 26 60.5t60 25.5q37 0 61.5 -24.5t24.5 -61.5t-24.5 -61.5t-61.5 -24.5t-61.5 24.5t-24.5 61.5z M946 578q0 35 24.5 59.5t59.5 24.5t59.5 -24.5t24.5 -59.5t-24.5 -59.5t-59.5 -24.5t-59.5 24.5t-24.5 59.5z" />
<glyph unicode="&#xfb2d;" horiz-adv-x="1579" d="M104 1200h162l47 -786q16 -281 207 -281h486q190 0 208 281l48 786h161l-57 -782q-31 -416 -365 -416h-475q-336 0 -366 416zM694 395v803h144v-803h-144zM96 1411q0 35 25.5 60.5t60.5 25.5q37 0 61.5 -24.5t24.5 -61.5t-24.5 -61.5t-61.5 -24.5t-61.5 24.5t-24.5 61.5z M946 578q0 35 24.5 59.5t59.5 24.5t59.5 -24.5t24.5 -59.5t-24.5 -59.5t-59.5 -24.5t-59.5 24.5t-24.5 59.5z" />
<glyph unicode="&#xfb2e;" horiz-adv-x="1263" d="M109 1198h161l502 -690q43 31 80 65.5t62.5 79.5t40 101.5t14.5 134.5v309h143v-317q0 -92 -23.5 -165t-60.5 -129.5t-83 -98.5t-93 -72l301 -414h-178l-541 725q-47 -47 -76.5 -89t-48 -84t-26 -89t-9.5 -103v-360h-143v360q0 88 20.5 157t52.5 124t71.5 101.5 t78.5 89.5zM432 -190h388v-109h-388v109z" />
<glyph unicode="&#xfb2f;" horiz-adv-x="1263" d="M109 1198h161l502 -690q43 31 80 65.5t62.5 79.5t40 101.5t14.5 134.5v309h143v-317q0 -92 -23.5 -165t-60.5 -129.5t-83 -98.5t-93 -72l301 -414h-178l-541 725q-47 -47 -76.5 -89t-48 -84t-26 -89t-9.5 -103v-360h-143v360q0 88 20.5 157t52.5 124t71.5 101.5 t78.5 89.5zM444 -190h388v-109h-158l-6 -92q0 -23 26 -62q29 -41 29 -61q0 -37 -24.5 -61.5t-61.5 -24.5q-35 0 -59.5 24.5t-24.5 61.5q0 25 27 63q29 41 28 60l-6 92h-158v109z" />
<glyph unicode="&#xfb30;" horiz-adv-x="1263" d="M109 1198h161l502 -690q43 31 80 65.5t62.5 79.5t40 101.5t14.5 134.5v309h143v-317q0 -92 -23.5 -165t-60.5 -129.5t-83 -98.5t-93 -72l301 -414h-178l-541 725q-47 -47 -76.5 -89t-48 -84t-26 -89t-9.5 -103v-360h-143v360q0 88 20.5 157t52.5 124t71.5 101.5 t78.5 89.5zM434 201q0 35 24.5 59.5t59.5 24.5t59.5 -24.5t24.5 -59.5t-24.5 -59.5t-59.5 -24.5t-59.5 24.5t-24.5 59.5z" />
<glyph unicode="&#xfb31;" horiz-adv-x="1124" d="M98 2v131h525q37 29 61.5 60.5t40.5 71.5t23.5 92.5t7.5 119.5v266q0 92 -27 155t-77 100.5t-121.5 53t-161.5 15.5h-271v131h285q256 0 385 -111q131 -109 131 -362v-215q0 -72 -14.5 -134.5t-34 -111.5t-43 -83t-41.5 -48h260v-131h-928zM283 590q0 35 24.5 59.5 t59.5 24.5t59.5 -24.5t24.5 -59.5t-24.5 -59.5t-59.5 -24.5t-59.5 24.5t-24.5 59.5z" />
<glyph unicode="&#xfb32;" horiz-adv-x="864" d="M149 696q0 35 24.5 59.5t59.5 24.5t59.5 -24.5t24.5 -59.5t-24.5 -59.5t-59.5 -24.5t-59.5 24.5t-24.5 59.5zM59 -20v147q84 29 157 84t133.5 127t109.5 159t86 179v190q0 121 -51 160q-51 41 -164 41h-191v131h248q143 0 222 -73.5t79 -239.5v-428q0 -86 14 -142 l66 -311h-143l-62 305q-4 16 -6 40t-2 52q-2 29 -3 54.5t-1 48.5q-148 -463 -492 -524z" />
<glyph unicode="&#xfb33;" horiz-adv-x="1134" d="M80 1067v131h907v-131h-166v-1065h-143v1065h-598zM276 752q0 35 24.5 59.5t59.5 24.5t59.5 -24.5t24.5 -59.5t-24.5 -59.5t-59.5 -24.5t-59.5 24.5t-24.5 59.5z" />
<glyph unicode="&#xfb34;" horiz-adv-x="1292" d="M145 1067v131h498q125 0 218 -22.5t154.5 -75.5t92.5 -140.5t31 -216.5v-743h-144v733q0 100 -20.5 165t-63.5 102.5t-111.5 52t-164.5 14.5h-490zM150 2v662h143v-662h-143zM555 514q0 35 24.5 59.5t59.5 24.5t59.5 -24.5t24.5 -59.5t-24.5 -59.5t-59.5 -24.5 t-59.5 24.5t-24.5 59.5z" />
<glyph unicode="&#xfb35;" horiz-adv-x="450" d="M154 2v1196h143v-1196h-143zM-115 621q0 35 24.5 59.5t59.5 24.5t59.5 -24.5t24.5 -59.5t-24.5 -59.5t-59.5 -24.5t-59.5 24.5t-24.5 59.5z" />
<glyph unicode="&#xfb36;" horiz-adv-x="782" d="M135 1067v131h533v-108q-86 -39 -151.5 -100.5t-104.5 -142.5t-46.5 -182.5t23.5 -218.5l119 -444h-143l-117 444q-27 100 -21 195.5t36 176.5t75 144.5t98 104.5h-301zM25 887q0 35 24.5 59.5t59.5 24.5t59.5 -24.5t24.5 -59.5t-24.5 -59.5t-59.5 -24.5t-59.5 24.5 t-24.5 59.5z" />
<glyph unicode="&#xfb38;" horiz-adv-x="1341" d="M115 1200h161l48 -786q18 -281 206 -281h318q190 0 209 281l28 387q4 70 -21.5 124t-70.5 89t-103.5 50t-119.5 12t-118.5 -27.5t-98.5 -69.5l-35 12l27 135q102 78 223 86q129 12 231 -32q109 -43 177 -142q35 -47 50 -106.5t11 -126.5l-29 -387q-31 -416 -364 -416 h-307q-338 0 -367 416zM629 576q0 35 24.5 59.5t59.5 24.5t59.5 -24.5t24.5 -59.5t-24.5 -59.5t-59.5 -24.5t-59.5 24.5t-24.5 59.5z" />
<glyph unicode="&#xfb39;" horiz-adv-x="450" d="M154 565v633h143v-633h-143zM-90 873q0 35 24.5 59.5t59.5 24.5t59.5 -24.5t24.5 -59.5t-24.5 -59.5t-59.5 -24.5t-59.5 24.5t-24.5 59.5z" />
<glyph unicode="&#xfb3a;" horiz-adv-x="1073" d="M59 1067v131h365q125 0 218 -22.5t154.5 -75.5t92.5 -140.5t31 -216.5v-1210h-144v1200q0 100 -20.5 165t-64.5 102.5t-112.5 52t-164.5 14.5h-355zM295 658q0 35 24.5 59.5t59.5 24.5t59.5 -24.5t24.5 -59.5t-24.5 -59.5t-59.5 -24.5t-59.5 24.5t-24.5 59.5z" />
<glyph unicode="&#xfb3b;" horiz-adv-x="1064" d="M111 2v131h307q96 0 164.5 15.5t112.5 54.5t64.5 102.5t20.5 161.5v266q0 100 -20.5 165t-64.5 102.5t-112.5 52t-164.5 14.5h-307v131h317q125 0 218 -22.5t154.5 -75.5t91.5 -140.5t32 -216.5v-284q0 -129 -31 -216t-92.5 -140.5t-154.5 -77t-218 -23.5h-317zM309 613 q0 35 24.5 59.5t59.5 24.5t59.5 -24.5t24.5 -59.5t-24.5 -59.5t-59.5 -24.5t-59.5 24.5t-24.5 59.5z" />
<glyph unicode="&#xfb3c;" horiz-adv-x="1093" d="M66 1067v565h143v-434h434q80 0 141.5 -27.5t102.5 -74.5t60.5 -110.5t17.5 -135.5l-17 -361q-6 -129 -42 -221t-92 -151.5t-131 -87t-157 -27.5h-295v131h275q123 0 198.5 78t86.5 227l24 406q12 223 -233 223h-516zM346 604q0 35 24.5 59.5t59.5 24.5t59.5 -24.5 t24.5 -59.5t-24.5 -59.5t-59.5 -24.5t-59.5 24.5t-24.5 59.5z" />
<glyph unicode="&#xfb3e;" horiz-adv-x="1355" d="M96 1067v131h602q141 0 239.5 -31.5t162 -92t92.5 -148.5t31 -203l4 -350q0 -74 -18.5 -140.5t-55.5 -118t-92 -82t-127 -30.5h-293v131h272q82 0 127 58.5t43 173.5l-4 348q-2 98 -26.5 166.5t-68.5 109.5t-108.5 59.5t-148.5 18.5h-313l-121 -1065h-148l136 1065h-185z M639 582q0 35 24.5 59.5t59.5 24.5t59.5 -24.5t24.5 -59.5t-24.5 -59.5t-59.5 -24.5t-59.5 24.5t-24.5 59.5z" />
<glyph unicode="&#xfb40;" horiz-adv-x="817" d="M63 2v131h457v717q0 217 -258 217h-125v131h101q117 0 198.5 -20.5t131.5 -69.5t73 -130t23 -204v-772h-601zM156 590q0 35 24.5 59.5t59.5 24.5t59.5 -24.5t24.5 -59.5t-24.5 -59.5t-59.5 -24.5t-59.5 24.5t-24.5 59.5z" />
<glyph unicode="&#xfb41;" horiz-adv-x="1345" d="M111 1200h792q61 0 121.5 -24.5t107 -71.5t73 -115.5t20.5 -157.5l-31 -413q-31 -416 -365 -416h-297q-338 0 -366 416zM279 1067l40 -653q18 -281 207 -281h308q190 0 208 281l27 415q8 115 -46 176.5t-165 61.5h-579zM610 590q0 35 24.5 59.5t59.5 24.5t59.5 -24.5 t24.5 -59.5t-24.5 -59.5t-59.5 -24.5t-59.5 24.5t-24.5 59.5z" />
<glyph unicode="&#xfb43;" horiz-adv-x="1204" d="M90 1067v131h465q125 0 218 -22.5t154.5 -75.5t92.5 -140.5t31 -216.5v-1210h-144v1200q0 100 -20.5 165t-64.5 102.5t-112.5 52t-164.5 14.5h-64q-43 -2 -81 -24.5t-67.5 -56.5t-47 -76t-17.5 -83v-65q0 -74 25 -105q25 -29 96 -28h141v-131h-186q-96 0 -158 55 q-61 55 -61 154v102q0 33 5 65.5t21.5 65.5t48 64.5t85.5 62.5h-195zM512 811q0 35 24.5 59.5t59.5 24.5t59.5 -24.5t24.5 -59.5t-24.5 -59.5t-59.5 -24.5t-59.5 24.5t-24.5 59.5z" />
<glyph unicode="&#xfb44;" horiz-adv-x="1265" d="M78 1067v131h540q123 0 217.5 -22.5t158 -75.5t95 -140.5t31.5 -216.5v-284q-2 -129 -32.5 -216t-91 -140.5t-153.5 -77t-218 -23.5h-494v131h483q96 0 165 15.5t113 54.5t64.5 102.5t20.5 161.5v266q0 100 -23.5 166t-71.5 102.5t-120 51t-170 14.5h-80q-43 0 -83 -21.5 t-70.5 -55.5t-49 -77t-18.5 -86v-65q0 -74 24 -105q25 -29 97 -28h147v-131h-186q-96 0 -158 55q-61 55 -61 154v102q0 33 5 65.5t21.5 65.5t48 64.5t84.5 62.5h-235zM686 570q0 35 24.5 59.5t59.5 24.5t59.5 -24.5t24.5 -59.5t-24.5 -59.5t-59.5 -24.5t-59.5 24.5 t-24.5 59.5z" />
<glyph unicode="&#xfb46;" horiz-adv-x="1140" d="M78 1198h151q72 -168 165 -338t208 -317l57 47q59 47 102.5 143t61.5 225l35 240h143l-34 -231q-25 -166 -82.5 -273.5t-143.5 -179.5l-69 -57q41 -53 78.5 -100.5t72.5 -92.5q35 -43 78 -90t92 -96l-32 -76h-857v131h678q-102 98 -205.5 224t-196.5 266.5t-172 288 t-130 286.5zM182 379q0 35 24.5 59.5t59.5 24.5t59.5 -24.5t24.5 -59.5t-24.5 -59.5t-59.5 -24.5t-59.5 24.5t-24.5 59.5z" />
<glyph unicode="&#xfb47;" horiz-adv-x="1308" d="M98 1067v133h760q80 0 143.5 -27.5t108.5 -75.5t66.5 -111.5t15.5 -135.5l-39 -432q-37 -416 -367 -416h-184v131h191q98 0 147 63.5t59 217.5l31 430q12 223 -233 223h-699zM127 -342v1059h143v-1059h-143zM541 584q0 35 24.5 59.5t59.5 24.5t59.5 -24.5t24.5 -59.5 t-24.5 -59.5t-59.5 -24.5t-59.5 24.5t-24.5 59.5z" />
<glyph unicode="&#xfb48;" horiz-adv-x="1028" d="M63 1067v131h316q125 0 219 -22.5t155.5 -75.5t92.5 -140.5t31 -216.5v-743h-144v733q0 100 -20.5 165t-64.5 102.5t-113.5 52t-165.5 14.5h-306zM287 682q0 35 24.5 59.5t59.5 24.5t59.5 -24.5t24.5 -59.5t-24.5 -59.5t-59.5 -24.5t-59.5 24.5t-24.5 59.5z" />
<glyph unicode="&#xfb49;" horiz-adv-x="1579" d="M104 1200h162l47 -786q16 -281 207 -281h486q190 0 208 281l48 786h161l-57 -782q-31 -416 -365 -416h-475q-336 0 -366 416zM694 395v803h144v-803h-144zM946 578q0 35 24.5 59.5t59.5 24.5t59.5 -24.5t24.5 -59.5t-24.5 -59.5t-59.5 -24.5t-59.5 24.5t-24.5 59.5z" />
<glyph unicode="&#xfb4a;" horiz-adv-x="1406" d="M49 2v131h148q29 0 46 12.5t17 42.5v557q0 74 15.5 128.5t37 92.5t44 62.5t34.5 38.5h-268v131h633q125 0 218 -22.5t155.5 -75.5t93 -140.5t30.5 -216.5v-743h-143v733q0 98 -20.5 163t-64.5 102.5t-112.5 53t-164.5 15.5h-222q-12 -16 -32.5 -38.5t-41 -59.5t-35 -92.5 t-14.5 -137.5v-557q0 -72 -36 -127q-37 -53 -105 -53h-213zM666 629q0 35 24.5 59.5t59.5 24.5t59.5 -24.5t24.5 -59.5t-24.5 -59.5t-59.5 -24.5t-59.5 24.5t-24.5 59.5z" />
<glyph unicode="&#xfb4b;" horiz-adv-x="450" d="M154 2v1196h143v-1196h-143zM133 1401q0 35 25.5 60.5t60.5 25.5q37 0 61.5 -24.5t24.5 -61.5t-24.5 -61.5t-61.5 -24.5t-61.5 24.5t-24.5 61.5z" />
<glyph unicode="&#xfb4c;" horiz-adv-x="1124" d="M98 2v131h525q37 29 61.5 60.5t40.5 71.5t23.5 92.5t7.5 119.5v266q0 92 -27 155t-77 100.5t-121.5 53t-161.5 15.5h-271v131h285q256 0 385 -111q131 -109 131 -362v-215q0 -72 -14.5 -134.5t-34 -111.5t-43 -83t-41.5 -48h260v-131h-928zM289 1384v111h430v-111h-430z " />
<glyph unicode="&#xfb4d;" horiz-adv-x="1064" d="M111 2v131h307q96 0 164.5 15.5t112.5 54.5t64.5 102.5t20.5 161.5v266q0 100 -20.5 165t-64.5 102.5t-112.5 52t-164.5 14.5h-307v131h317q125 0 218 -22.5t154.5 -75.5t91.5 -140.5t32 -216.5v-284q0 -129 -31 -216t-92.5 -140.5t-154.5 -77t-218 -23.5h-317zM313 1384 v111h430v-111h-430z" />
<glyph unicode="&#xfb4e;" horiz-adv-x="1265" d="M78 1067v131h540q123 0 217.5 -22.5t158 -75.5t95 -140.5t31.5 -216.5v-284q-2 -129 -32.5 -216t-91 -140.5t-153.5 -77t-218 -23.5h-494v131h483q96 0 165 15.5t113 54.5t64.5 102.5t20.5 161.5v266q0 100 -23.5 166t-71.5 102.5t-120 51t-170 14.5h-80q-43 0 -83 -21.5 t-70.5 -55.5t-49 -77t-18.5 -86v-65q0 -74 24 -105q25 -29 97 -28h147v-131h-186q-96 0 -158 55q-61 55 -61 154v102q0 33 5 65.5t21.5 65.5t48 64.5t84.5 62.5h-235zM375 1384v111h430v-111h-430z" />
<glyph unicode="&#xfb4f;" horiz-adv-x="1218" d="M66 1198v434h159v-434l502 -690q43 31 80 65.5t62.5 79.5t40 101.5t14.5 134.5v309h143v-317q0 -92 -23.5 -165t-60.5 -129.5t-83 -98.5t-93 -72l301 -414h-178l-621 832z" />
</font>
</defs>
</svg>
