<?xml version="1.0" standalone="no"?>
<!DOCTYPE svg PUBLIC "-//W3C//DTD SVG 1.1//EN" "http://www.w3.org/Graphics/SVG/1.1/DTD/svg11.dtd" >
<svg xmlns="http://www.w3.org/2000/svg">
<metadata>
This is a custom SVG webfont generated by Font Squirrel.
Copyright   : Copyright c 2010 by ELi Fried All rights reserved
Foundry     : ELi Fried
</metadata>
<defs>
<font id="EFTPaalulLightRegular" horiz-adv-x="0" >
<font-face units-per-em="2048" ascent="1638" descent="-410" />
<missing-glyph horiz-adv-x="512" />
<glyph unicode=" "  horiz-adv-x="512" />
<glyph unicode="&#x09;" horiz-adv-x="512" />
<glyph unicode="&#xa0;" horiz-adv-x="512" />
<glyph unicode="!" horiz-adv-x="419" d="M86 0v156h145v-156h-145zM86 696v721h143v-721q0 -53 -10 -111.5t-29 -125.5h-67q-37 124 -37 237z" />
<glyph unicode="&#x22;" horiz-adv-x="901" d="M82 891l166 532h151l-198 -532h-119zM410 891l165 532h152l-199 -532h-118z" />
<glyph unicode="#" horiz-adv-x="1200" d="M74 428v135h219l33 303h-195v133h219l53 394h123l-59 -394h246l55 394h121l-55 -394h180v-133h-205l-33 -303h182v-135h-204l-60 -428h-119l56 428h-258l-54 -428h-122l57 428h-180zM412 563h245l31 303h-244z" />
<glyph unicode="$" horiz-adv-x="917" d="M72 403h121q2 -25 9 -60.5t25.5 -69t51 -60.5t86.5 -35v422q-68 16 -119 35.5t-87 48.5t-53.5 70t-17.5 102q0 55 16.5 112.5t50 104.5t86 79t124.5 36v108h106v-108q113 -10 185.5 -90t74.5 -203h-113q-2 25 -13 53.5t-30.5 55t-45 46t-58.5 23.5v-383 q131 -23 213 -91.5t82 -201.5q0 -66 -19.5 -125t-57.5 -104t-93 -72.5t-125 -32.5v-114h-106v114q-78 4 -131.5 30t-92.5 75q-33 43 -50 100t-19 135zM199 889q0 -59 43 -110.5t123 -61.5v354q-41 -2 -72 -18.5t-52.5 -42t-31.5 -57t-10 -64.5zM471 176q27 8 58.5 20.5 t57 35t43 57.5t17.5 90q0 84 -49 128t-127 66v-397z" />
<glyph unicode="%" horiz-adv-x="1370" d="M86 930q0 121 59 215q70 100 191 100t186 -102q61 -90 62 -213q0 -133 -58 -221q-66 -104 -190 -105q-125 0 -193 105q-57 88 -57 221zM203 928q0 -256 133 -256q135 0 135 256q0 248 -135 248q-133 0 -133 -248zM252 12l641 1233h125l-635 -1233h-131zM688 328 q0 129 68 221q68 94 180 94q119 0 190 -102q59 -90 60 -213q0 -127 -60 -222q-70 -106 -190 -106q-123 0 -188 106q-60 91 -60 222zM801 324q0 -250 135 -250q137 0 137 250q0 248 -137 247q-135 1 -135 -247z" />
<glyph unicode="&#x26;" horiz-adv-x="1628" d="M102 1135q106 31 227.5 54t239 25.5t224 -23.5t188.5 -95.5t130 -189.5t48 -306l-2 -188h-141v256q0 137 -49 223t-138.5 131t-211 50t-269.5 -19v-1053h-143v864l67 170q-76 -12 -105.5 -24.5t-45.5 -22.5zM580 655v133h143v-237q0 -98 26.5 -179t72.5 -139.5t109.5 -91 t139.5 -32.5q166 0 258 109.5t92 332.5v629h144v-525q0 -135 -14.5 -258t-64.5 -216t-149.5 -148.5t-269.5 -55.5q-154 0 -249 48.5t-148.5 136.5t-71.5 213.5t-18 279.5z" />
<glyph unicode="'" horiz-adv-x="569" d="M88 891l166 532h152l-199 -532h-119z" />
<glyph unicode="(" horiz-adv-x="628" d="M137 623q0 332 209 698h137q-199 -319 -198 -686q0 -358 198 -688h-137q-209 338 -209 676z" />
<glyph unicode=")" horiz-adv-x="628" d="M137 -53q199 319 199 686q0 358 -199 688h137q209 -338 209 -676q0 -334 -209 -698h-137z" />
<glyph unicode="*" horiz-adv-x="823" d="M88 1028q-4 86 51 170l215 -119l-55 250q31 12 84 12q45 0 76 -12l-37 -262l201 135q51 -76 55 -168l-238 -39l183 -164q-41 -78 -127 -108l-115 225l-84 -233q-80 20 -143 98l178 195z" />
<glyph unicode="+" horiz-adv-x="774" d="M86 575v123h219v232h107v-232h217v-123h-217v-233h-107v233h-219z" />
<glyph unicode="," horiz-adv-x="569" d="M106 -160l166 533h152l-199 -533h-119z" />
<glyph unicode="-" horiz-adv-x="778" d="M86 537v122h547v-122h-547z" />
<glyph unicode="." horiz-adv-x="417" d="M106 0v156h146v-156h-146z" />
<glyph unicode="/" horiz-adv-x="964" d="M86 18l535 1237h157l-532 -1237h-160z" />
<glyph unicode="0" horiz-adv-x="1056" d="M102 625q0 190 28 312t82 192.5t134 98t184 27.5q111 0 191 -27.5t132 -98t76.5 -193.5t24.5 -311q0 -209 -32.5 -334t-89 -191.5t-134 -86t-168.5 -19.5q-102 0 -181 17.5t-134 82t-84 189.5t-29 342zM246 625q0 -154 10 -254.5t41 -158.5t86 -80.5t147 -22.5 q72 0 125.5 19t88 75.5t51 158t16.5 263.5q0 160 -15.5 259t-48 153.5t-87 72.5t-130.5 18q-74 0 -127 -17t-88.5 -71.5t-52 -153.5t-16.5 -261z" />
<glyph unicode="1" horiz-adv-x="692" d="M102 1006q35 12 80 36.5t91 56t87 67.5t66 73h164v-1237h-144v1075q-66 -72 -141.5 -117t-152.5 -67z" />
<glyph unicode="2" horiz-adv-x="962" d="M102 0l2 139l521 486q41 39 67.5 94t33.5 114.5t-3 118t-40 104.5t-81 74.5t-125 28.5q-68 0 -116 -20.5t-78.5 -50t-44 -65.5t-13.5 -67v-100h-108v86q0 156 96 249t297 93q102 0 174 -41t114 -108.5t55 -152.5t-1 -171t-55 -167t-107 -140l-424 -381h586v-123h-750z " />
<glyph unicode="3" horiz-adv-x="952" d="M102 274v115h121v-96q0 -61 19.5 -99t51.5 -59.5t70.5 -29t77.5 -7.5q102 0 162 48.5t76 116t-7.5 141t-84.5 124.5l-219 181v45l290 266l3 84h-541v123h667v-256l-258 -213l127 -96q72 -49 112 -120t49 -148t-10.5 -151.5t-67.5 -134t-123.5 -96.5t-178.5 -37 q-152 0 -244 71.5t-92 227.5z" />
<glyph unicode="4" horiz-adv-x="1064" d="M102 272v170l502 797h174v-842h185v-125h-185v-270h-143v270h-533zM231 397h404v682z" />
<glyph unicode="5" horiz-adv-x="911" d="M102 657l66 570h571v-123h-467l-30 -324h221q82 0 145.5 -29.5t108.5 -81t68.5 -120t23.5 -143.5q0 -172 -90 -283q-98 -123 -264 -123h-338v123h389q51 0 81.5 22.5t48 61.5t24 87t6.5 101q0 49 -6.5 96.5t-20.5 84t-39 59t-63 22.5h-435z" />
<glyph unicode="6" horiz-adv-x="978" d="M102 408v337q0 119 19.5 210.5t64.5 155t121 98t187 38.5q66 4 156.5 -17.5t168.5 -55.5l-26 -115q-70 25 -165.5 39t-181.5 0.5t-145 -62.5t-59 -151v-213q109 76 221 89t204.5 -27t151 -126t58.5 -205q0 -86 -25 -160.5t-75 -130t-128 -88t-184 -32.5 q-92 0 -160.5 30.5t-113 86t-67 132.5t-22.5 167zM246 393q0 -59 7 -110.5t30.5 -91t68.5 -62.5t123 -23q57 0 107.5 15.5t87.5 50.5t57.5 93.5t20.5 142.5q0 82 -51.5 144t-127 87t-164 2t-159.5 -111v-137z" />
<glyph unicode="7" horiz-adv-x="921" d="M102 1104v123h717v-125l-332 -1104h-141l340 1106h-584z" />
<glyph unicode="8" horiz-adv-x="1013" d="M102 324q0 61 16.5 106t48.5 83t77 74t102 79q-92 31 -152.5 91t-60.5 165q0 70 24.5 129t74 102t122 67.5t166.5 22.5q80 -2 145.5 -17.5t112.5 -50t74 -90t27 -137.5q0 -43 -19.5 -88t-51.5 -86t-75 -71.5t-90 -43.5q51 -25 100.5 -51t86 -62t59 -82t22.5 -110 q0 -76 -28.5 -142.5t-81.5 -116.5t-127 -78.5t-166 -30.5q-90 -2 -165 21.5t-128 68.5t-83 107.5t-30 140.5zM238 354q0 -70 9 -118t36.5 -78.5t79 -45t137.5 -14.5q61 0 112.5 12.5t88 41t57 79t20.5 127.5q0 49 -29.5 92.5t-76.5 78t-103.5 57t-107.5 28.5 q-37 -23 -76 -51t-71.5 -62t-54 -71t-21.5 -76zM266 918q0 -66 62.5 -121.5t175.5 -79.5q37 10 79 25.5t77.5 39t60 58t24.5 84.5q0 70 -16 111.5t-48 64t-78 30t-105 7.5q-49 0 -91 -11.5t-73 -37t-49.5 -67.5t-18.5 -103z" />
<glyph unicode="9" horiz-adv-x="968" d="M102 831q0 86 25 161t75 130.5t128 88t184 32.5q92 0 160.5 -30.5t112.5 -86t67 -132t23 -167.5v-297q0 -119 -19.5 -216t-64.5 -168.5t-121 -112.5t-187 -45q-33 -2 -75.5 -1t-88 9t-88.5 23.5t-73 41.5l-23 5l49 110q82 -51 178.5 -66.5t179.5 8t138 90t55 177.5v178 q-109 -78 -221.5 -90t-204.5 28t-150.5 124.5t-58.5 205.5zM231 827q0 -82 51.5 -144t127 -87t164 -2.5t159.5 111.5v137q0 57 -7 109.5t-30.5 92t-69.5 62t-122 22.5q-59 0 -108.5 -15t-86.5 -51t-57.5 -93.5t-20.5 -141.5z" />
<glyph unicode=":" horiz-adv-x="446" d="M106 0v156h146v-156h-146zM106 696v156h146v-156h-146z" />
<glyph unicode=";" horiz-adv-x="446" d="M-20 -160l124 414h152l-158 -414h-118zM106 696v156h146v-156h-146z" />
<glyph unicode="&#x3c;" horiz-adv-x="823" d="M109 604l403 613h166l-406 -611l406 -626h-166z" />
<glyph unicode="=" horiz-adv-x="774" d="M86 358v123h543v-123h-543zM86 766v121h543v-121h-543z" />
<glyph unicode="&#x3e;" horiz-adv-x="823" d="M109 -20l405 626l-405 611h165l404 -613l-404 -624h-165z" />
<glyph unicode="?" horiz-adv-x="880" d="M4 1018v92q0 78 29.5 141.5t82 108.5t121 70.5t148.5 29.5q100 4 181 -31.5t126 -99t47 -146.5t-55 -171l-147 -240q-25 -39 -35 -81t-10 -83v-149h-140v168q0 96 60 204l129 183q51 74 55 136t-25.5 105t-82 64.5t-113.5 15.5q-117 -12 -172.5 -64t-55.5 -134v-119h-143 zM356 0v156h146v-156h-146z" />
<glyph unicode="@" horiz-adv-x="1529" d="M29 432q0 131 82 281q102 193 307 317q205 129 418 129q285 0 448 -166q166 -164 166 -448q0 -104 -70 -242q-72 -139 -151 -190q-63 -39 -168 -39q-145 0 -180 139q-104 -141 -242 -141q-213 0 -213 266q0 109 68 231q63 117 159 185q76 57 142 57q82 0 116 -18 q45 -20 78 -88l23 83h149l-141 -538q-2 -10 -2 -19.5t-2 -17.5q0 -66 88 -66q94 0 172 111q111 160 110 299q0 233 -145 385q-143 150 -383 150q-186 0 -350 -109t-246 -274q-68 -141 -67 -336q0 -184 90 -324q94 -147 260 -211q98 -37 188 -37q156 0 246 19q127 25 225 94 l31 -47q-186 -137 -485 -137q-250 0 -471 184q-250 209 -250 518zM584 311q0 -168 96 -168q80 0 147 82q55 72 80 158q45 160 45 211q0 53 -20 92q-27 51 -72 51q-86 0 -180 -123q-96 -127 -96 -303z" />
<glyph unicode="A" horiz-adv-x="1394" d="M37 0v49h184l463 1290h37l463 -1290h186v-49h-637v49h213l-129 357h-411l-127 -357h245v-49h-487zM424 455h375l-189 518z" />
<glyph unicode="B" horiz-adv-x="1261" d="M51 0v49h182v1223h-182v49h625q164 0 291 -72q150 -82 149 -239q0 -225 -285 -293q133 -31 232 -121q100 -100 100 -236q0 -186 -149 -280q-123 -80 -322 -80h-641zM457 49h219q141 0 200.5 72t59.5 215v47q0 305 -260 305h-219v-639zM457 737h219q121 0 174 68 q45 57 45 188v33q0 246 -219 246h-219v-535z" />
<glyph unicode="C" horiz-adv-x="1292" d="M72 662q0 272 192 477q193 205 465 204q195 0 332 -100l76 72q20 18 34 18q25 0 25 -39v-315q0 -33 -18 -33q-14 0 -21 17l-4 10q-127 317 -424 317q-379 0 -379 -524v-217q0 -532 369 -533q285 0 457 369q12 27 28 27q20 0 21 -29v-375q0 -23 -23 -22q-12 0 -24 12 l-107 106q-145 -141 -352 -141q-264 0 -459 219q-188 214 -188 480z" />
<glyph unicode="D" horiz-adv-x="1396" d="M57 0v49h187v1223h-187v49h633q293 0 479 -174q190 -182 191 -471q0 -303 -182 -492q-182 -184 -488 -184h-633zM467 49h219q422 0 422 578v98q0 240 -90 379q-106 168 -332 168h-219v-1223z" />
<glyph unicode="E" horiz-adv-x="1210" d="M59 1272v49h953q63 0 63 -55v-295q0 -35 -24 -35q-25 0 -27 37q-6 111 -57 192q-63 106 -191 107h-311v-551h158q78 0 110 51q8 12 18.5 42t20.5 77q10 35 25 35q23 0 22 -33v-393q0 -35 -22 -35q-14 0 -37 72q-8 23 -14.5 45t-14.5 45q-31 45 -108 45h-158v-623h330 q133 0 196 88q47 70 84 234q10 47 33 47q25 0 25 -56v-290q0 -72 -70 -72h-1000v49h179v1223h-183z" />
<glyph unicode="F" horiz-adv-x="1155" d="M70 1272v49h952q61 0 61 -55v-295q0 -35 -24 -35q-25 0 -27 37q-6 111 -57 192q-63 106 -191 107h-311v-551h158q78 0 110 51q8 12 18.5 42t20.5 77q10 35 25 35q23 0 22 -33v-393q0 -35 -22 -35q-14 0 -37 72q-8 23 -14 45t-15 45q-31 45 -108 45h-158v-623h182v-49 h-581v49h176v1223h-180z" />
<glyph unicode="G" horiz-adv-x="1411" d="M68 653q0 276 190 484q190 207 465 206q205 0 336 -106l84 78q20 18 37 18q27 0 26 -30v-367q0 -27 -22 -27q-20 0 -29 25q-123 356 -432 356q-207 0 -301 -162q-78 -133 -78 -352v-237q0 -223 76 -355q94 -168 301 -168q266 0 266 254v174h-227v50h645v-50h-182v-57 q0 -213 -152 -324q-131 -100 -354 -100q-266 0 -461 213q-188 207 -188 477z" />
<glyph unicode="H" horiz-adv-x="1445" d="M59 0v49h183v1223h-183v49h588v-49h-182v-545h541v545h-183v49h586v-49h-180v-1223h180v-49h-586v49h183v627h-541v-627h182v-49h-588z" />
<glyph unicode="I" horiz-adv-x="749" d="M82 0v49h180v1223h-180v49h586v-49h-183v-1223h183v-49h-586z" />
<glyph unicode="J" horiz-adv-x="780" d="M16 -16q0 111 105 110q43 0 70.5 -26.5t27.5 -69.5q0 -94 -88 -107q43 -37 113 -36q84 0 112 53q23 41 23 133v1231h-195v49h576v-49h-158v-1157q0 -313 -344 -314q-80 0 -158 47q-84 56 -84 136z" />
<glyph unicode="K" horiz-adv-x="1417" d="M63 0v49h168v1223h-168v49h560v-49h-168v-1223h168v-49h-560zM449 723l595 549h-167v49h434v-49h-185l-485 -447l590 -776h172v-49h-615v49h175z" />
<glyph unicode="L" horiz-adv-x="1263" d="M53 0v49h183v1223h-183v49h606v-49h-200v-1223h424q131 0 194 88q47 70 84 234q10 47 33 47q27 0 27 -56v-290q0 -72 -72 -72h-1096z" />
<glyph unicode="M" horiz-adv-x="1681" d="M63 0v49h168v1223h-168v49h406l381 -979l369 979h405v-49h-168v-1223h168v-49h-559v49h168v1157l-455 -1206h-41l-454 1198v-1149h170v-49h-390z" />
<glyph unicode="N" horiz-adv-x="1386" d="M47 0v49h182v1223h-182v49h430l641 -963v914h-182v49h416v-49h-183v-1288h-86l-802 1210v-1145h182v-49h-416z" />
<glyph unicode="O" horiz-adv-x="1458" d="M76 655q0 274 194 482q195 207 467 206q272 0 467 -206q197 -207 197 -482q0 -274 -197 -483q-195 -209 -467 -209q-268 0 -469 213q-192 205 -192 479zM352 557q0 -541 385 -541q387 0 387 541v195q0 252 -67 374q-92 164 -320 164q-223 0 -315 -166q-70 -125 -70 -372 v-195z" />
<glyph unicode="P" horiz-adv-x="1142" d="M51 0v49h182v1223h-182v49h594q186 0 309 -86q139 -96 140 -274q0 -172 -131 -273q-119 -88 -297 -88h-209v-551h180v-49h-586zM457 649h209q221 0 221 277v69q0 276 -242 277h-188v-623z" />
<glyph unicode="Q" horiz-adv-x="1435" d="M76 653q0 274 194 482q193 209 467 208q272 0 467 -208q197 -207 197 -482q0 -238 -150 -430q-150 -197 -372 -248v-34q0 -344 327 -344q29 0 29 -23q0 -20 -29 -20q-293 0 -418 61q-164 80 -186 317l-4 43q-225 53 -375 248q-147 197 -147 430zM352 555q0 -543 385 -543 q387 0 387 543v195q0 250 -67 376q-90 164 -320 164q-223 0 -315 -168q-70 -125 -70 -372v-195z" />
<glyph unicode="R" horiz-adv-x="1325" d="M57 0v49h183v1223h-183v49h605q176 0 301 -76q150 -88 149 -254q0 -244 -307 -311q197 -53 258 -166q41 -78 47 -291q4 -102 12 -127q14 -43 76 -43q51 0 90 27q16 4 19 4q14 0 14 -14q0 -33 -98 -64q-78 -23 -142 -22q-104 0 -153 55t-60 160q-2 29 -5 80t-9 122 q-29 264 -225 265h-166v-617h182v-49h-588zM463 715h199q231 0 231 241v70q0 246 -231 246h-199v-557z" />
<glyph unicode="S" horiz-adv-x="1142" d="M109 8v348q0 35 24 35q23 0 33 -31q39 -152 160 -247q121 -96 274 -97q131 0 234 78q104 86 104 217q0 137 -117 191q-43 18 -89 34.5t-95 30.5q-154 45 -209 62q-289 88 -289 327q0 180 137 287q125 100 310 100q152 0 303 -77l55 65q14 20 31 21q23 0 22 -29v-346 q0 -29 -24 -29q-27 0 -29 27q-20 147 -114.5 231t-243.5 84q-119 0 -203 -53q-98 -66 -98 -176q0 -129 127 -176q27 -10 119 -36t257 -71q285 -76 285 -358q0 -199 -141 -328t-344 -129q-188 0 -346 127l-70 -92q-18 -25 -35 -25q-28 0 -28 35z" />
<glyph unicode="T" horiz-adv-x="1306" d="M55 932l33 348q4 41 51 41h1041q47 0 51 -41l33 -348h-64q-20 129 -74 219q-74 121 -184 121h-172v-1223h182v-49h-585v49h180v1223h-172q-111 0 -185 -121q-53 -90 -73 -219h-62z" />
<glyph unicode="U" horiz-adv-x="1345" d="M37 1272v49h586v-49h-181v-940q0 -150 81 -233t229 -83q147 0 239 84t92 232v940h-182v49h416v-49h-180v-940q0 -188 -127 -285q-115 -84 -308 -84q-205 0 -329 82q-154 94 -154 287v940h-182z" />
<glyph unicode="V" horiz-adv-x="1333" d="M14 1272v49h588v-49h-186l358 -967l338 967h-178v49h395v-49h-153l-453 -1292h-49l-475 1292h-185z" />
<glyph unicode="W" horiz-adv-x="1896" d="M47 1272v49h1346v-49h-131l-172 -449l200 -534l377 983h-176v49h383v-49h-148l-493 -1292h-41l-229 587l-224 -587h-41l-491 1292h-160zM426 1272l373 -979l135 352l-236 627h-272zM918 1272l143 -373l143 373h-286z" />
<glyph unicode="X" horiz-adv-x="1445" d="M45 0v49h188l398 584l-395 639h-187v49h625v-49h-185l279 -451l303 451h-197v49h461v-49h-192l-340 -504l442 -719h166v-49h-584v49h164l-327 531l-361 -531h203v-49h-461z" />
<glyph unicode="Y" horiz-adv-x="1396" d="M57 1272v49h609v-49h-187l336 -520l311 520h-196v49h448v-49h-174l-344 -576v-647h201v-49h-627v49h203v598l-406 625h-174z" />
<glyph unicode="Z" horiz-adv-x="1073" d="M63 0v61l721 1211h-391q-262 0 -272 -305h-47v354h940v-57l-729 -1215h387q162 0 235 101q61 86 70 258h51v-408h-965z" />
<glyph unicode="[" horiz-adv-x="677" d="M154 -240v1674h370v-121h-231l-4 -1432h235v-121h-370z" />
<glyph unicode="\" horiz-adv-x="931" d="M86 1503h166l493 -1542h-147z" />
<glyph unicode="]" horiz-adv-x="677" d="M154 -119h235l-4 1432h-231v121h370v-1674h-370v121z" />
<glyph unicode="^" horiz-adv-x="919" d="M29 502l331 686h125l332 -686h-127l-268 553l-268 -553h-125z" />
<glyph unicode="_" horiz-adv-x="827" d="M0 -127h827v-131h-827v131z" />
<glyph unicode="a" horiz-adv-x="933" d="M86 154q0 150 168 223q127 55 295 57v219q0 102 -131 103q-125 0 -125 -35l6 -6q4 -4 12 -10q29 -29 29 -62q0 -76 -88 -76q-86 0 -86 80q0 84 117 125q74 27 184 27q283 0 283 -183v-464q0 -111 49 -111q55 0 90 68q8 20 22 20q16 0 17 -18q0 -63 -76 -103 q-66 -35 -129 -35q-133 0 -162 97q-90 -96 -237 -97q-238 1 -238 181zM270 203q0 -162 125 -162q37 0 94 33q59 35 60 65v258q-66 -4 -113 -14t-76 -25q-90 -46 -90 -155z" />
<glyph unicode="b" horiz-adv-x="1093" d="M57 0v49h162v1223h-162v49h361v-612q86 96 221 96q158 0 281 -127q125 -125 124 -285q0 -156 -120 -289q-121 -129 -279 -129q-133 0 -227 107v-82h-361zM418 170q86 -145 221 -145q168 0 168 325v88q0 137 -23 209q-41 109 -153 109q-127 0 -213 -135v-451z" />
<glyph unicode="c" horiz-adv-x="864" d="M59 383q0 176 134 297q131 119 313 119q96 0 180 -39q109 -47 109 -129q0 -90 -103 -90q-100 0 -100 86q0 33 18.5 62.5t18.5 31.5q0 12 -58 20q-23 4 -41 6.5t-28 2.5q-129 0 -174 -105q-29 -74 -29 -219v-84q0 -164 25 -221q43 -100 178 -101q98 0 177 51.5t109 143.5 q8 25 29 25q25 0 25 -25q0 -6 -2 -10l-2 -8q-18 -76 -101 -144q-96 -80 -241 -80q-178 0 -303 117q-134 121 -134 293z" />
<glyph unicode="d" horiz-adv-x="1093" d="M66 391q0 160 124 285q125 129 281 129q139 0 219 -88v555h-160v49h361v-1272h160v-49h-361v84q-96 -111 -225 -111q-152 0 -277 131q-122 131 -122 287zM303 344q0 -135 23 -207q37 -115 147 -114q121 0 217 145v448q-86 139 -211 140q-113 0 -153 -109 q-23 -68 -23 -207v-96z" />
<glyph unicode="e" horiz-adv-x="915" d="M57 379q0 164 121 291q123 129 285 129q180 0 289 -129q86 -104 86 -198q0 -29 -43 -30h-498v-188q0 -233 178 -234q223 0 324 218q12 25 28 24q20 0 21 -22q0 -16 -6 -31q-94 -236 -371 -236q-174 0 -293 119q-121 121 -121 287zM297 492h303q20 0 21 79q0 178 -156 179 q-168 0 -168 -191v-67z" />
<glyph unicode="f" horiz-adv-x="720" d="M41 0v49h158v680h-156v49h156v74q0 221 43 313q80 170 254 170q72 0 129 -32q72 -41 71 -105q0 -78 -75 -78q-82 0 -82 74q0 47 47 70q0 23 -86 22q-100 0 -101 -137v-371h170v-49h-170v-680h158v-49h-516z" />
<glyph unicode="g" horiz-adv-x="899" d="M63 -295q0 141 160 207q-156 39 -155 188q0 131 165 185q-158 84 -157 237q0 111 90 191q98 86 258 86q143 0 215 -49q80 80 160 79q88 0 88 -69q0 -66 -72 -66q-78 0 -78 64q0 10 2 14q-14 -8 -29.5 -21.5t-31.5 -29.5q94 -82 94 -199q0 -100 -76 -176 q-98 -102 -272 -102q-78 0 -121 14q-164 -41 -164 -123q0 -74 125 -74h340q264 0 264 -245q0 -166 -131 -254q-117 -80 -286 -80q-388 0 -388 223zM182 -258q0 -211 277 -211q115 0 203 45q111 55 110 160q0 78 -60.5 123t-142.5 45h-268q-47 0 -84 -56q-35 -59 -35 -106z M285 487q0 -86 22 -135q35 -59 117 -59t117 59q23 49 22 135v66q0 90 -22 139q-31 57 -117 58q-86 0 -117 -58q-23 -49 -22 -139v-66z" />
<glyph unicode="h" horiz-adv-x="1136" d="M53 0v49h150v1223h-150v49h348v-655q98 139 304 139q252 0 251 -187v-569h148v-49h-494v49h146v547q0 141 -117 141q-84 0 -160 -67q-78 -66 -78 -146v-475h148v-49h-496z" />
<glyph unicode="i" horiz-adv-x="620" d="M68 0v49h157v680h-157v49h356v-729h160v-49h-516zM205 1126q0 47 34.5 79t84.5 32q49 0 83.5 -31.5t34.5 -79.5q0 -47 -35.5 -77.5t-82.5 -30.5t-83 30.5t-36 77.5z" />
<glyph unicode="j" horiz-adv-x="577" d="M-43 -383q0 43 28.5 71.5t71.5 28.5q41 0 69 -26.5t28 -67.5q0 -59 -45 -86q16 -4 32 -4q55 0 87 37t32 94v1063h-170v49h371v-833q0 -184 -66 -305q-84 -154 -252 -154q-72 0 -123 33q-63 37 -63 100zM229 1126q0 47 35 79t84 32t84 -31.5t35 -79.5q0 -47 -35 -78.5 t-84 -31.5t-84 31.5t-35 78.5z" />
<glyph unicode="k" horiz-adv-x="1138" d="M55 0v49h170v1223h-170v49h369v-858h47l293 266h-166v49h414v-49h-172l-238 -219l371 -461h151v-49h-528v49h139l-278 365h-33v-365h149v-49h-518z" />
<glyph unicode="l" horiz-adv-x="602" d="M66 0v49h147v1223h-147v49h346v-1272h147v-49h-493z" />
<glyph unicode="m" horiz-adv-x="1607" d="M59 0v49h138v674h-138v49h338v-125q100 141 308 141q178 0 206 -145q98 145 310 145q211 0 211 -180v-559h137v-49h-471v49h133v539q0 135 -98 135q-80 0 -150 -70q-70 -68 -70 -145v-459h138v-49h-473v49h137v539q0 53 -10 84q-20 51 -91 51q-66 0 -141 -68 q-76 -63 -76 -131v-475h135v-49h-473z" />
<glyph unicode="n" horiz-adv-x="1120" d="M68 0v49h147v674h-147v47h346v-123q98 139 288 139q231 0 232 -186v-551h147v-49h-495v49h147v539q0 135 -108 135q-72 0 -142 -68t-69 -139v-467h147v-49h-493z" />
<glyph unicode="o" horiz-adv-x="942" d="M51 385q0 164 131 289t297 125q170 0 295 -125q129 -127 129 -289q0 -164 -129 -289q-129 -123 -295 -123t-297 123q-131 125 -131 289zM289 344q0 -156 22 -219q39 -104 168 -105q129 0 166 107q20 49 21 217v84q0 152 -23 215q-39 106 -164 107q-127 0 -166 -107 q-25 -61 -24 -215v-84z" />
<glyph unicode="p" horiz-adv-x="1054" d="M45 -477h137v1198h-137v51h338v-84q94 111 225 111q160 0 281 -129q123 -127 123 -287q0 -166 -123 -291q-121 -127 -285 -127q-139 0 -221 94v-536h137v-49h-475v49zM383 186q0 -66 78 -118q70 -49 139 -50q117 0 154 111q20 55 20 213v88q0 133 -22 205 q-37 115 -146 115q-76 0 -145 -56q-78 -59 -78 -131v-377z" />
<glyph unicode="q" horiz-adv-x="1073" d="M70 383q0 156 123 283t280 127q141 0 229 -107v84h336v-49h-137v-1198h137v-49h-473v49h137v538q-90 -96 -225 -96q-160 0 -284 129q-123 129 -123 289zM307 289q0 -129 25 -187q39 -86 149 -86q45 0 85 15.5t71 42t48 63.5t17 80v328q0 76 -73 141q-70 63 -154 64 q-168 0 -168 -248v-213z" />
<glyph unicode="r" horiz-adv-x="843" d="M37 0v49h147v674h-147v49h348v-92q90 109 238 108q84 0 135 -32q66 -41 65 -115q0 -49 -32.5 -77.5t-81.5 -28.5t-83 26.5t-34 73.5q0 63 51 90q6 2 6 6q0 8 -49 8q-68 0 -141 -55q-74 -53 -74 -119v-516h147v-49h-495z" />
<glyph unicode="s" horiz-adv-x="751" d="M88 8v207q0 25 23 25q18 0 24 -25q55 -195 266 -195q80 0 138 33q74 39 73 113q0 86 -125 129q-16 2 -196 43q-188 41 -189 207q0 59 22.5 106t61.5 80t91.5 50.5t113.5 17.5q96 0 160 -51l41 38l6 5q8 8 16 8q14 0 15 -23v-207q0 -20 -17 -20q-20 0 -22 18 q-14 82 -69.5 132.5t-141.5 50.5q-63 0 -115 -31q-61 -35 -61 -92q0 -61 123 -99q45 -10 89 -19t89 -20q199 -57 198 -245q0 -129 -81.5 -200t-212.5 -71q-156 0 -238 76l-39 -51q-8 -14 -20 -14q-23 -1 -23 24z" />
<glyph unicode="t" horiz-adv-x="712" d="M39 727v49h143v217l201 92v-309h205v-49h-205v-518q0 -176 127 -176q111 0 133 133q4 29 29 29q20 0 20 -25q0 -16 -2 -20q-35 -176 -252 -177q-119 0 -187.5 61.5t-68.5 178.5v514h-143z" />
<glyph unicode="u" horiz-adv-x="1138" d="M47 723v47h348v-588q0 -68 17 -96q23 -35 90 -35q78 0 153 64q80 63 80 137v471h-147v47h348v-721h147v-49h-348v123q-109 -145 -317 -146q-223 0 -223 218v528h-148z" />
<glyph unicode="v" horiz-adv-x="1034" d="M43 723v47h498v-47h-144l211 -471l205 471h-145v47h331v-47h-129l-319 -731h-29l-338 731h-141z" />
<glyph unicode="w" horiz-adv-x="1368" d="M47 723v47h479v-47h-135l178 -447l174 494h29l215 -496l152 449h-172v47h372v-47h-147l-256 -746h-29l-215 494l-178 -494h-31l-295 746h-141z" />
<glyph unicode="x" horiz-adv-x="1060" d="M53 723v47h465v-47h-129l182 -240l195 240h-125v47h334v-47h-139l-232 -283l299 -391h131v-49h-495v49h149l-199 262l-215 -262h146v-49h-357v49h146l248 305l-281 369h-123z" />
<glyph unicode="y" horiz-adv-x="1067" d="M53 721v49h514v-49h-155l229 -496l207 496h-152v49h351v-49h-142l-432 -1036q-82 -199 -246 -199q-117 0 -116 92q0 80 84 80q61 0 90 -55q12 -23 24 -23q66 0 115 121l121 293l-348 727h-144z" />
<glyph unicode="z" horiz-adv-x="847" d="M100 0v53l463 670h-196q-162 0 -185 -201h-43v248h633v-57l-455 -664h230q188 0 205 221h43v-270h-695z" />
<glyph unicode="{" horiz-adv-x="858" d="M133 668q63 53 96 111.5t33 123.5v473q0 84 30 144.5t82 99.5t123.5 57.5t155.5 18.5v-123q-76 -4 -124 -20.5t-75.5 -47t-37.5 -78t-10 -112.5v-412q0 -125 -115 -235q115 -111 115 -232v-420q0 -131 58 -184t189 -53v-123q-86 0 -157.5 15.5t-124 50t-81 92 t-28.5 141.5v481q0 115 -129 232z" />
<glyph unicode="|" horiz-adv-x="481" d="M145 -371v2079h150v-2079h-150z" />
<glyph unicode="}" horiz-adv-x="858" d="M133 -221q131 0 189.5 53t58.5 184v420q0 121 115 232q-115 111 -115 235v412q0 66 -10.5 113t-38 77.5t-75.5 47t-124 20.5v123q84 0 155.5 -18.5t124 -57.5t82 -99.5t29.5 -144.5v-473q0 -66 33 -124t96 -111q-129 -117 -129 -232v-481q0 -84 -28.5 -141.5t-81 -92 t-124 -50t-157.5 -15.5v123z" />
<glyph unicode="~" horiz-adv-x="1003" d="M70 391v23q0 111 65.5 185.5t177.5 74.5q72 0 119 -25l246 -164q47 -29 72 -28q82 0 81 131h66q0 -113 -70 -201q-78 -96 -184 -96q-70 0 -131 43l-213 147q-39 27 -80 27q-82 0 -82 -117h-67z" />
<glyph unicode="&#xa1;" d="M-369 -256q0 35 25 59.5t61 24.5q37 0 61.5 -23.5t24.5 -60.5t-24.5 -61.5t-61.5 -24.5t-61.5 24.5t-24.5 61.5zM-221 -494q0 35 26.5 61.5t61.5 26.5q37 0 61.5 -25.5t24.5 -62.5t-24.5 -61.5t-61.5 -24.5t-62.5 24.5t-25.5 61.5zM-70 -256q0 35 25 59.5t61 24.5 q37 0 61.5 -24.5t24.5 -59.5q0 -37 -24.5 -61.5t-61.5 -24.5q-35 0 -60.5 25.5t-25.5 60.5zM195 -256q0 37 25.5 60.5t62.5 23.5q35 0 60.5 -24.5t25.5 -59.5q0 -37 -25 -61.5t-61 -24.5q-37 0 -62.5 24.5t-25.5 61.5zM195 -506q0 35 25.5 60.5t60.5 25.5q37 0 61.5 -24.5 t24.5 -61.5t-25 -61.5t-61 -24.5q-37 0 -61.5 24.5t-24.5 61.5z" />
<glyph unicode="&#x5b1;" d="M-369 -256q0 35 25 59.5t61 24.5q37 0 61.5 -23.5t24.5 -60.5t-24.5 -61.5t-61.5 -24.5t-61.5 24.5t-24.5 61.5zM-221 -494q0 35 26.5 61.5t61.5 26.5q37 0 61.5 -25.5t24.5 -62.5t-24.5 -61.5t-61.5 -24.5t-62.5 24.5t-25.5 61.5zM-70 -256q0 35 25 59.5t61 24.5 q37 0 61.5 -24.5t24.5 -59.5q0 -37 -24.5 -61.5t-61.5 -24.5q-35 0 -60.5 25.5t-25.5 60.5zM195 -256q0 37 25.5 60.5t62.5 23.5q35 0 60.5 -24.5t25.5 -59.5q0 -37 -25 -61.5t-61 -24.5q-37 0 -62.5 24.5t-25.5 61.5zM195 -506q0 35 25.5 60.5t60.5 25.5q37 0 61.5 -24.5 t24.5 -61.5t-25 -61.5t-61 -24.5q-37 0 -61.5 24.5t-24.5 61.5z" />
<glyph unicode="&#xa2;" horiz-adv-x="1024" d="M109 440q0 225 131 363q133 139 350 139q6 0 24.5 -3t49.5 -7l90 254h71l-96 -277q154 -53 154 -172q0 -37 -23.5 -64.5t-60.5 -27.5q-78 0 -123 107l-207 -596q70 -25 117 -25q102 0 180 59q57 47 125 146l27 -17q-154 -338 -396 -337q-41 0 -110 18l-101 -283h-69 l104 308q-237 120 -237 415zM266 532q0 -217 140 -331l235 661q-47 18 -98 19q-137 0 -211 -111q-66 -97 -66 -238z" />
<glyph unicode="&#xa3;" horiz-adv-x="1024" d="M25 109q0 78 57 120q51 37 133 37q16 0 38.5 -3t51.5 -7l6 35q0 39 -4 86t-12 104q-6 47 -12.5 95.5t-14.5 95.5h-221v92h219q-8 33 -11 67.5t-3 69.5q0 207 94 338q109 145 305 145q100 0 176 -45q90 -53 91 -145q0 -45 -28 -77t-73 -32q-70 0 -78 64l-10 117 q-20 63 -108 63q-102 0 -154 -92q-41 -78 -41 -186q0 -49 6 -121t17 -166h256v-92h-250q2 -20 2 -44v-53q0 -102 -49 -348q166 -72 307 -71q88 0 151 39q10 6 42 29.5t83 64.5l13 -10q0 -25 -25 -76q-98 -217 -324 -217q-117 0 -290 125q-109 -127 -203 -127q-59 0 -98 34 t-39 91zM78 115q0 -74 82 -74q47 0 89 35t42 82q0 16 -51 24q-23 4 -39.5 7.5t-26.5 3.5q-96 0 -96 -78z" />
<glyph unicode="&#xa5;" horiz-adv-x="817" d="M143.197 870.393q0 36.5977 9.89941 63.5967q9.90039 26.999 29.0996 49.7979q19.1992 22.7998 46.1982 44.3984q26.998 21.5996 61.1973 47.3984q-55.1982 18.5986 -91.4961 54.5977q-36.2988 35.998 -36.2988 98.9961q0 41.998 14.6992 77.3965t44.3984 61.1973 q29.6982 25.7988 73.1973 40.499q43.498 14.6992 99.8955 13.499q47.998 -1.2002 87.2969 -10.499q39.2979 -9.2998 67.4971 -29.999q28.1982 -20.6992 44.3984 -53.998q16.1992 -33.2988 16.1992 -82.4961q0 -25.7998 -11.7002 -52.7988 q-11.6992 -26.998 -30.8984 -51.5977q-19.1992 -24.5986 -44.998 -42.8984q-25.7988 -18.2988 -53.998 -26.0986q30.5986 -14.999 60.2979 -30.5986q29.6982 -15.5996 51.5977 -37.1982q21.8994 -21.5996 35.3984 -49.1982q13.5 -27.5986 13.5 -65.9971 q0 -45.5986 -17.0996 -85.4971t-48.8984 -69.8965q-31.7988 -29.999 -76.1963 -47.0986q-44.3984 -17.0986 -99.5967 -18.2988q-53.9971 -1.2002 -98.9951 12.8994q-44.999 14.0996 -76.7969 41.0977q-31.7988 26.999 -49.7979 64.498q-18 37.498 -18 84.2969z M224.794 888.392q0 -41.999 5.40039 -70.7979q5.39941 -28.7988 21.8984 -47.0977q16.5 -18.2988 47.3984 -26.999q30.8984 -8.69922 82.4971 -8.69922q36.5977 0 67.4971 7.49902q30.8984 7.5 52.7979 24.5996q21.8984 17.0996 34.1982 47.3975 q12.2998 30.2988 12.2998 76.4971q0 29.3994 -17.6992 55.498t-45.8984 46.7979t-62.0977 34.1992q-33.8984 13.499 -64.4971 17.0986q-22.1992 -13.7988 -45.5986 -30.5986q-23.3984 -16.7988 -42.8975 -37.1982q-19.5 -20.3994 -32.3994 -42.5986t-12.8994 -45.5977z M241.594 1226.78q0 -39.5977 37.498 -72.8965q37.499 -33.2988 105.296 -47.6982q22.1992 6 47.3984 15.2988q25.1982 9.2998 46.498 23.3994q21.2988 14.0996 35.998 34.7988t14.6992 50.6973q0 41.999 -9.59961 66.8975q-9.59961 24.8994 -28.7988 38.3984 q-19.1992 13.5 -46.7979 18q-27.5986 4.49902 -62.9971 4.49902q-29.3994 0 -54.5977 -6.89941q-25.1992 -6.89941 -43.7988 -22.1992q-18.5986 -15.2988 -29.6982 -40.498t-11.0996 -61.7979z" />
<glyph unicode="&#xb4;" horiz-adv-x="817" d="M143.197 870.393q0 36.5977 9.89941 63.5967q9.90039 26.999 29.0996 49.7979q19.1992 22.7998 46.1982 44.3984q26.998 21.5996 61.1973 47.3984q-55.1982 18.5986 -91.4961 54.5977q-36.2988 35.998 -36.2988 98.9961q0 41.998 14.6992 77.3965t44.3984 61.1973 q29.6982 25.7988 73.1973 40.499q43.498 14.6992 99.8955 13.499q47.998 -1.2002 87.2969 -10.499q39.2979 -9.2998 67.4971 -29.999q28.1982 -20.6992 44.3984 -53.998q16.1992 -33.2988 16.1992 -82.4961q0 -25.7998 -11.7002 -52.7988 q-11.6992 -26.998 -30.8984 -51.5977q-19.1992 -24.5986 -44.998 -42.8984q-25.7988 -18.2988 -53.998 -26.0986q30.5986 -14.999 60.2979 -30.5986q29.6982 -15.5996 51.5977 -37.1982q21.8994 -21.5996 35.3984 -49.1982q13.5 -27.5986 13.5 -65.9971 q0 -45.5986 -17.0996 -85.4971t-48.8984 -69.8965q-31.7988 -29.999 -76.1963 -47.0986q-44.3984 -17.0986 -99.5967 -18.2988q-53.9971 -1.2002 -98.9951 12.8994q-44.999 14.0996 -76.7969 41.0977q-31.7988 26.999 -49.7979 64.498q-18 37.498 -18 84.2969z M224.794 888.392q0 -41.999 5.40039 -70.7979q5.39941 -28.7988 21.8984 -47.0977q16.5 -18.2988 47.3984 -26.999q30.8984 -8.69922 82.4971 -8.69922q36.5977 0 67.4971 7.49902q30.8984 7.5 52.7979 24.5996q21.8984 17.0996 34.1982 47.3975 q12.2998 30.2988 12.2998 76.4971q0 29.3994 -17.6992 55.498t-45.8984 46.7979t-62.0977 34.1992q-33.8984 13.499 -64.4971 17.0986q-22.1992 -13.7988 -45.5986 -30.5986q-23.3984 -16.7988 -42.8975 -37.1982q-19.5 -20.3994 -32.3994 -42.5986t-12.8994 -45.5977z M241.594 1226.78q0 -39.5977 37.498 -72.8965q37.499 -33.2988 105.296 -47.6982q22.1992 6 47.3984 15.2988q25.1982 9.2998 46.498 23.3994q21.2988 14.0996 35.998 34.7988t14.6992 50.6973q0 41.999 -9.59961 66.8975q-9.59961 24.8994 -28.7988 38.3984 q-19.1992 13.5 -46.7979 18q-27.5986 4.49902 -62.9971 4.49902q-29.3994 0 -54.5977 -6.89941q-25.1992 -6.89941 -43.7988 -22.1992q-18.5986 -15.2988 -29.6982 -40.498t-11.0996 -61.7979z" />
<glyph unicode="&#xa8;" horiz-adv-x="843" d="M143.197 1050.98q0 113.996 16.7998 187.192q16.7988 73.1973 49.1982 115.496q32.3984 42.2979 80.3965 58.7969q47.998 16.5 110.396 16.5q66.5967 0 114.595 -16.5q47.998 -16.499 79.1973 -58.7969q31.1982 -42.2988 45.8984 -116.096 q14.6992 -73.7969 14.6992 -186.593q0 -125.395 -19.499 -200.392q-19.5 -74.9971 -53.3984 -114.896t-80.3965 -51.5977t-101.096 -11.6992q-61.1982 0 -108.596 10.499q-47.3984 10.5 -80.3965 49.1982q-32.999 38.6982 -50.3984 113.695t-17.3994 205.191z M229.594 1050.98q0 -92.3955 6 -152.693t24.5986 -95.0957q18.5996 -34.7988 51.5986 -48.2988q32.998 -13.499 88.1963 -13.499q43.1982 0 75.2969 11.3994t52.7979 45.2979q20.6992 33.8994 30.5986 94.7969t9.89941 158.093q0 95.9961 -9.2998 155.395 q-9.2998 59.3975 -28.7988 92.0957q-19.499 32.6992 -52.1973 43.498q-32.6992 10.7998 -78.2969 10.7998q-44.3984 0 -76.1973 -10.1992q-31.7988 -10.2002 -53.0977 -42.8984q-21.2988 -32.6992 -31.1992 -92.0967q-9.89941 -59.3975 -9.89941 -156.594z" />
<glyph unicode="&#xac;" horiz-adv-x="843" d="M143.197 1050.98q0 113.996 16.7998 187.192q16.7988 73.1973 49.1982 115.496q32.3984 42.2979 80.3965 58.7969q47.998 16.5 110.396 16.5q66.5967 0 114.595 -16.5q47.998 -16.499 79.1973 -58.7969q31.1982 -42.2988 45.8984 -116.096 q14.6992 -73.7969 14.6992 -186.593q0 -125.395 -19.499 -200.392q-19.5 -74.9971 -53.3984 -114.896t-80.3965 -51.5977t-101.096 -11.6992q-61.1982 0 -108.596 10.499q-47.3984 10.5 -80.3965 49.1982q-32.999 38.6982 -50.3984 113.695t-17.3994 205.191z M229.594 1050.98q0 -92.3955 6 -152.693t24.5986 -95.0957q18.5996 -34.7988 51.5986 -48.2988q32.998 -13.499 88.1963 -13.499q43.1982 0 75.2969 11.3994t52.7979 45.2979q20.6992 33.8994 30.5986 94.7969t9.89941 158.093q0 95.9961 -9.2998 155.395 q-9.2998 59.3975 -28.7988 92.0957q-19.499 32.6992 -52.1973 43.498q-32.6992 10.7998 -78.2969 10.7998q-44.3984 0 -76.1973 -10.1992q-31.7988 -10.2002 -53.0977 -42.8984q-21.2988 -32.6992 -31.1992 -92.0967q-9.89941 -59.3975 -9.89941 -156.594z" />
<glyph unicode="&#xa9;" horiz-adv-x="1556" d="M78 676q0 297 203 504q203 205 501 204q295 0 496 -206q201 -207 201 -502t-201 -502q-201 -203 -496 -203q-299 0 -501 203q-203 203 -203 502zM190 676q0 -248 170 -436q172 -182 422 -183q246 0 418 189q166 180 166 430q0 252 -164 434q-170 188 -420 188 q-254 0 -422 -184q-170 -188 -170 -438zM389 694q0 176 135 291q125 104 310 105q61 0 145 -19q109 -23 108 -61v-144h-34q-8 88 -64 133q-72 49 -162 50q-143 0 -217 -105q-63 -88 -63 -242q0 -373 293 -372q170 0 247 176h33l-33 -144q-10 -35 -118 -55q-90 -18 -150 -18 q-197 0 -305 96q-125 112 -125 309z" />
<glyph unicode="&#xaa;" horiz-adv-x="1048" d="M72 90q0 35 116 186l148 185q-262 348 -262 368q0 23 20 23q8 0 33 -25q150 -147 399 -362q-59 -51 -143 -129t-201 -189q-80 -80 -88 -79q-22 -1 -22 22zM502 90q0 35 116 186l148 185q-262 348 -262 368q0 23 20 23q8 0 33 -25q150 -147 399 -362q-59 -51 -143 -129 t-201 -189q-80 -80 -88 -79q-22 -1 -22 22z" />
<glyph unicode="&#xbb;" horiz-adv-x="1048" d="M72 90q0 35 116 186l148 185q-262 348 -262 368q0 23 20 23q8 0 33 -25q150 -147 399 -362q-59 -51 -143 -129t-201 -189q-80 -80 -88 -79q-22 -1 -22 22zM502 90q0 35 116 186l148 185q-262 348 -262 368q0 23 20 23q8 0 33 -25q150 -147 399 -362q-59 -51 -143 -129 t-201 -189q-80 -80 -88 -79q-22 -1 -22 22z" />
<glyph unicode="&#xab;" horiz-adv-x="1048" d="M68 465q209 180 399 362q27 25 33 25q20 0 20 -23q0 -20 -262 -368l148 -185q117 -152 116 -186q0 -23 -22 -22q-8 0 -54 45q-86 86 -180 173t-198 179zM498 465q209 180 399 362q27 25 33 25q20 0 20 -23q0 -20 -262 -368l148 -185q117 -152 116 -186q0 -23 -22 -22 q-8 0 -53 45q-86 86 -180.5 173t-198.5 179z" />
<glyph unicode="&#xad;" horiz-adv-x="778" d="M86 537v122h547v-122h-547z" />
<glyph unicode="&#xae;" horiz-adv-x="786" d="M143.197 676l1.2002 83.3965l312.587 291.588q24.5996 23.3994 40.499 56.3984q15.8994 32.998 20.0986 68.6973q4.2002 35.6982 -1.7998 70.7969t-23.999 62.6973t-48.5977 44.6982t-74.9971 17.0996q-40.7988 0 -69.5977 -12.2998t-47.0977 -29.999 q-18.2998 -17.6992 -26.3994 -39.2979q-8.09961 -21.5996 -8.09961 -40.1992v-59.9971h-64.7969v51.5977q0 93.5967 57.5977 149.395t178.192 55.7979q61.1982 0 104.396 -24.5996q43.1992 -24.5986 68.3975 -65.0977q25.1992 -40.498 32.999 -91.4961t-0.599609 -102.596 q-8.40039 -51.5977 -32.999 -100.195q-24.5986 -48.5986 -64.1973 -83.9971l-254.39 -228.591h351.586v-73.7969h-449.982z" />
<glyph unicode="&#xaf;" horiz-adv-x="765" d="M143.197 840.394v68.9971h72.5977v-57.5977q0 -36.5986 11.6992 -59.3975q11.6992 -22.7998 30.8984 -35.6992t42.2988 -17.3984q23.0986 -4.5 46.498 -4.5q61.1973 0 97.1953 29.0986q35.999 29.0986 45.5986 69.5967q9.59961 40.499 -4.5 84.5967 q-14.0996 44.0986 -50.6982 74.6973l-131.395 108.596v26.999l173.993 159.593l1.7998 50.3984h-324.587v73.7969h400.185v-153.594l-154.794 -127.795l76.1963 -57.5977q43.1982 -29.3984 67.1973 -71.9971q23.999 -42.5977 29.3994 -88.7959 q5.39941 -46.1982 -6.2998 -90.8965t-40.498 -80.3965q-28.7988 -35.6992 -74.0977 -57.8984q-45.2979 -22.1982 -107.096 -22.1982q-91.1963 0 -146.394 42.8975q-55.1982 42.8984 -55.1982 136.495z" />
<glyph unicode="&#xbf;" d="M-86 -254q0 35 24.5 59.5t61.5 24.5t61.5 -23.5t24.5 -60.5t-24.5 -61.5t-61.5 -24.5t-61.5 24.5t-24.5 61.5zM-86 -506q0 35 25.5 60.5t60.5 25.5q37 0 61.5 -24.5t24.5 -61.5t-24.5 -61.5t-61.5 -24.5t-61.5 24.5t-24.5 61.5z" />
<glyph unicode="&#x5b0;" d="M-86 -254q0 35 24.5 59.5t61.5 24.5t61.5 -23.5t24.5 -60.5t-24.5 -61.5t-61.5 -24.5t-61.5 24.5t-24.5 61.5zM-86 -506q0 35 25.5 60.5t60.5 25.5q37 0 61.5 -24.5t24.5 -61.5t-24.5 -61.5t-61.5 -24.5t-61.5 24.5t-24.5 61.5z" />
<glyph unicode="&#xd7;" horiz-adv-x="1130" d="M154 111l299 299l-299 301l110 110l299 -299l301 299l111 -110l-299 -301l297 -297l-113 -111l-297 297l-299 -301z" />
<glyph unicode="&#x2122;" horiz-adv-x="1130" d="M154 111l299 299l-299 301l110 110l299 -299l301 299l111 -110l-299 -301l297 -297l-113 -111l-297 297l-299 -301z" />
<glyph unicode="&#x131;" horiz-adv-x="1085" d="M100 1180h150l319 -621q63 31 97 69t49.5 85t17.5 102t2 121v244h144v-219q0 -86 -5.5 -157t-32 -130.5t-81.5 -109.5t-156 -97v-870h-143v874z" />
<glyph unicode="&#x5e5;" horiz-adv-x="1085" d="M100 1180h150l319 -621q63 31 97 69t49.5 85t17.5 102t2 121v244h144v-219q0 -86 -5.5 -157t-32 -130.5t-81.5 -109.5t-156 -97v-870h-143v874z" />
<glyph unicode="&#x152;" horiz-adv-x="774" d="M55 850l86 305h551l-86 -305h-551z" />
<glyph unicode="&#x5be;" horiz-adv-x="774" d="M55 850l86 305h551l-86 -305h-551z" />
<glyph unicode="&#x153;" d="M-266 1384v111h532v-111h-532z" />
<glyph unicode="&#x5bf;" d="M-266 1384v111h532v-111h-532z" />
<glyph unicode="&#x192;" d="M-86 -256q0 35 24.5 59.5t61.5 24.5t61.5 -23.5t24.5 -60.5t-24.5 -61.5t-61.5 -24.5t-61.5 24.5t-24.5 61.5z" />
<glyph unicode="&#x5b4;" d="M-86 -256q0 35 24.5 59.5t61.5 24.5t61.5 -23.5t24.5 -60.5t-24.5 -61.5t-61.5 -24.5t-61.5 24.5t-24.5 61.5z" />
<glyph unicode="&#x2c6;" horiz-adv-x="1144" d="M139 1180h158q27 -88 56.5 -171t69.5 -166t92 -167t126 -174q43 61 75 115.5t52 126t30.5 174t12.5 262.5h147q0 -260 -57 -442.5t-188 -309.5l231 -301v-127h-801v123h652q-104 102 -195.5 207.5t-172.5 229.5t-151.5 274.5t-136.5 345.5z" />
<glyph unicode="&#x5e6;" horiz-adv-x="1144" d="M139 1180h158q27 -88 56.5 -171t69.5 -166t92 -167t126 -174q43 61 75 115.5t52 126t30.5 174t12.5 262.5h147q0 -260 -57 -442.5t-188 -309.5l231 -301v-127h-801v123h652q-104 102 -195.5 207.5t-172.5 229.5t-151.5 274.5t-136.5 345.5z" />
<glyph unicode="&#x2d8;" horiz-adv-x="1542" d="M156 655v525h143v-629q0 -98 33 -179t94 -139.5t148.5 -91t195.5 -32.5q223 0 348 109.5t125 332.5v629h143v-525q0 -135 -30.5 -258t-100 -216t-181 -148.5t-273.5 -55.5q-170 0 -292 48.5t-201 136.5t-115.5 213.5t-36.5 279.5zM557 426q23 14 47.5 40t46 64.5t34.5 90 t13 116.5v443h144v-445q0 -92 -25.5 -159.5t-63.5 -114.5t-81 -74t-76 -37z" />
<glyph unicode="&#x5e9;" horiz-adv-x="1542" d="M156 655v525h143v-629q0 -98 33 -179t94 -139.5t148.5 -91t195.5 -32.5q223 0 348 109.5t125 332.5v629h143v-525q0 -135 -30.5 -258t-100 -216t-181 -148.5t-273.5 -55.5q-170 0 -292 48.5t-201 136.5t-115.5 213.5t-36.5 279.5zM557 426q23 14 47.5 40t46 64.5t34.5 90 t13 116.5v443h144v-445q0 -92 -25.5 -159.5t-63.5 -114.5t-81 -74t-76 -37z" />
<glyph unicode="&#x2d9;" horiz-adv-x="1333" d="M33 23l35 112q35 -12 72.5 -18t68.5 0t51.5 29.5t20.5 70.5v701l75 145q-76 -2 -124 -16.5t-99 -18.5l-16 113q61 14 129.5 26.5t138.5 20.5t135.5 13t118.5 5q162 0 270.5 -38t174 -114.5t93 -194.5t27.5 -279l-2 -580h-143v629q0 111 -18.5 193.5t-62.5 138t-120 84 t-190 28.5q-20 0 -56.5 -1t-73 -3t-69.5 -4t-45 -2v-778q0 -86 -29.5 -152.5t-82 -104.5t-124 -41t-155.5 36z" />
<glyph unicode="&#x5ea;" horiz-adv-x="1333" d="M33 23l35 112q35 -12 72.5 -18t68.5 0t51.5 29.5t20.5 70.5v701l75 145q-76 -2 -124 -16.5t-99 -18.5l-16 113q61 14 129.5 26.5t138.5 20.5t135.5 13t118.5 5q162 0 270.5 -38t174 -114.5t93 -194.5t27.5 -279l-2 -580h-143v629q0 111 -18.5 193.5t-62.5 138t-120 84 t-190 28.5q-20 0 -56.5 -1t-73 -3t-69.5 -4t-45 -2v-778q0 -86 -29.5 -152.5t-82 -104.5t-124 -41t-155.5 36z" />
<glyph unicode="&#x2db;" horiz-adv-x="45" d="M-258 1604l137 137l31 -31l-82 -82h217v-1628h-45v1583h-176l86 -86l-31 -31z" />
<glyph unicode="&#x200f;" horiz-adv-x="45" d="M-258 1604l137 137l31 -31l-82 -82h217v-1628h-45v1583h-176l86 -86l-31 -31z" />
<glyph unicode="&#x2dc;" horiz-adv-x="1257" d="M143 1051v129h594q147 0 239.5 -68t130.5 -172t23.5 -230t-79.5 -245l-279 -504l-119 70l301 551q45 82 51.5 164.5t-21.5 150.5t-86 111t-140 43h-615zM178 -287v1016h144v-1016h-144z" />
<glyph unicode="&#x5e7;" horiz-adv-x="1257" d="M143 1051v129h594q147 0 239.5 -68t130.5 -172t23.5 -230t-79.5 -245l-279 -504l-119 70l301 551q45 82 51.5 164.5t-21.5 150.5t-86 111t-140 43h-615zM178 -287v1016h144v-1016h-144z" />
<glyph unicode="&#x2dd;" horiz-adv-x="45" d="M0 0v1628h217l-82 82l31 31l137 -137l-137 -138l-31 31l86 86h-176v-1583h-45z" />
<glyph unicode="&#x200e;" horiz-adv-x="45" d="M0 0v1628h217l-82 82l31 31l137 -137l-137 -138l-31 31l86 86h-176v-1583h-45z" />
<glyph unicode="&#x590;" horiz-adv-x="1536" d="M281 584v84h972v-84h-972zM502 -127q0 37 10 63.5t28.5 49t45 44t61.5 48.5q-53 18 -90 54t-37 99q0 84 59.5 139.5t172.5 53.5q96 -2 155.5 -40t59.5 -136q0 -25 -11.5 -52.5t-31 -52t-45 -43t-54.5 -26.5q63 -29 112.5 -68t49.5 -115q0 -92 -66.5 -155.5t-175.5 -65.5 q-111 -2 -177 54.5t-66 148.5zM539 1487v74h430v-74l-199 -664h-86l205 664h-350zM584 -109q0 -41 5 -70.5t21.5 -48t47 -26.5t81.5 -8q74 0 121 31.5t47 124.5q0 29 -18.5 55t-46 46.5t-61 34t-64.5 17.5q-23 -14 -45.5 -31.5t-43 -37t-32.5 -42t-12 -45.5zM600 229 q0 -41 38 -72.5t105 -47.5q20 6 46 15t47.5 23.5t36 35t14.5 50.5q0 41 -10.5 67t-29 39t-46 17t-62.5 4q-59 0 -99 -27.5t-40 -103.5z" />
<glyph unicode="&#x591;" d="M-168 -471q0 131 131 164v125h74v-125q133 -35 133 -164v-131h-76v11q0 7 2 24v43q0 147 -86 147q-104 0 -104 -135v-47q2 -14 2 -25v-18h-76v131z" />
<glyph unicode="&#x592;" d="M-186 1444q0 33 20.5 53.5t52.5 20.5q33 0 54.5 -20.5t21.5 -53.5q0 -31 -21.5 -52.5t-54.5 -21.5t-53 20.5t-20 53.5zM-76 1632q0 31 22.5 53.5t53.5 22.5q33 0 54.5 -21.5t21.5 -54.5t-21.5 -54.5t-54.5 -21.5t-54.5 21.5t-21.5 54.5zM37 1444q0 33 21.5 53.5 t54.5 20.5t53 -20.5t20 -53.5q0 -31 -20.5 -52.5t-52.5 -21.5q-31 0 -53.5 21.5t-22.5 52.5z" />
<glyph unicode="&#x593;" d="M-119 1456l156 76l-156 72l156 75l-156 72l156 76h84l-158 -76l158 -72l-158 -75l158 -72l-158 -76l158 -74h-84z" />
<glyph unicode="&#x594;" d="M-76 1452q0 33 21.5 53.5t54.5 20.5t54.5 -20.5t21.5 -53.5q0 -31 -21.5 -52.5t-54.5 -21.5t-54.5 20.5t-21.5 53.5zM-76 1677q0 31 22.5 53.5t53.5 22.5q33 0 54.5 -21.5t21.5 -54.5t-21.5 -53t-54.5 -20t-54.5 20t-21.5 53z" />
<glyph unicode="&#x595;" d="M-113 1378v375h76v-375h-76zM37 1452q0 33 21.5 53.5t54.5 20.5q31 0 52 -21.5t21 -52.5t-20.5 -52.5t-52.5 -21.5q-31 0 -53.5 21.5t-22.5 52.5zM37 1677q0 31 22.5 53.5t53.5 22.5t52 -22.5t21 -53.5q0 -33 -20.5 -53t-52.5 -20q-31 0 -53.5 21t-22.5 52z" />
<glyph unicode="&#x596;" d="M-41 -219q0 6 1 15t3 20h76q-2 -10 -3 -24.5t-1 -37.5q0 -98 63 -149q55 -49 156 -49v-78q-295 0 -295 303z" />
<glyph unicode="&#x597;" d="M-121 1534l123 156l119 -156l-119 -154z" />
<glyph unicode="&#x598;" d="M-258 1530q0 53 38 92t91 39q66 0 109 -53q18 -27 36.5 -51.5t40.5 -53.5q27 -49 70 -49q33 0 53.5 21.5t20.5 54.5q0 47 -54 69l21 56q90 -43 90 -125q0 -55 -39 -93t-92 -38q-66 0 -109 53q-16 27 -33.5 50.5t-33.5 49.5q-39 51 -80 52q-33 0 -53.5 -20.5t-20.5 -53.5 q0 -53 53 -72l-20 -55q-88 39 -88 127z" />
<glyph unicode="&#x599;" d="M-104 1702l90 78q35 -41 61.5 -84t35.5 -95.5t-5.5 -116t-61.5 -143.5l-49 27q20 39 30.5 82t4.5 86t-30.5 85t-75.5 81z" />
<glyph unicode="&#x59a;" d="M-150 -305l199 194h123l-199 -194l199 -205h-121z" />
<glyph unicode="&#x59b;" d="M-66 -266q0 29 18.5 48t45.5 19q66 0 65 -67q0 -63 -65 -64q-27 0 -45.5 18.5t-18.5 45.5zM-66 -442q221 0 222 204l-6 56h75q2 -10 3 -27.5t1 -44.5q0 -133 -86 -207q-70 -59 -209 -59v78z" />
<glyph unicode="&#x59c;" d="M-96 1544q0 125 137 225l55 -51q-111 -80 -110 -172q0 -84 75 -166h-96q-61 76 -61 164z" />
<glyph unicode="&#x59d;" d="M-96 1544q0 125 137 225l55 -51q-111 -80 -110 -172q0 -84 75 -166h-96q-61 76 -61 164z" />
<glyph unicode="&#x59e;" d="M-197 1544q0 125 138 225l55 -51q-111 -84 -111 -172q0 -82 78 -166h-98q-62 76 -62 164zM27 1544q0 123 139 225l53 -51q-111 -80 -110 -172q0 -84 75 -166h-94q-63 76 -63 164z" />
<glyph unicode="&#x59f;" d="M-496 1655q0 80 53.5 134t133.5 54q82 0 135 -54t53 -134q0 -61 -37 -111l123 -123l-41 -41l-123 123q-45 -39 -110 -39q-82 0 -134.5 52.5t-52.5 138.5zM-432 1655q0 -53 36 -88t87 -35q53 0 89 35t36 88q0 51 -36 86t-89 35q-51 0 -87 -35t-36 -86zM35 1421l123 123 q-39 39 -39 111q0 80 54 134t136 54q37 0 71 -15.5t59.5 -41t41 -60t15.5 -71.5q0 -82 -53.5 -136.5t-133.5 -54.5q-72 0 -110 39l-123 -123zM184 1655q0 -53 36 -88t89 -35q51 0 85 35t34 88q0 47 -36 84t-83 37q-53 0 -89 -34t-36 -87z" />
<glyph unicode="&#x5a0;" d="M-55 1421l123 123q-37 43 -37 111q0 80 54 134t134 54q39 0 73 -15.5t59.5 -41t40 -60t14.5 -71.5q0 -82 -53.5 -136.5t-133.5 -54.5q-72 0 -110 39l-123 -123zM96 1655q0 -53 35 -88t88 -35t86 35t33 88q0 47 -36 84t-83 37q-53 0 -88 -34t-35 -87z" />
<glyph unicode="&#x5a1;" d="M-39 1380v357h74v-172q0 -10 39 -11q76 0 76 111v37q-2 16 -3 23v12h76v-82q0 -70 -35 -111q-37 -55 -98 -55q-29 0 -55 10v-119h-74z" />
<glyph unicode="&#x5a3;" d="M-184 -463h153v281h76v-357h-229v76z" />
<glyph unicode="&#x5a4;" d="M-193 -352l173 170h108l-174 -170l174 -178h-106z" />
<glyph unicode="&#x5a5;" d="M-248 -442q217 0 217 202l-4 58h78q6 -90 6 -101q0 -236 -297 -235v76z" />
<glyph unicode="&#x5a6;" d="M-221 -520q111 80 110 170q0 80 -75 168h96q63 -82 63 -164q0 -121 -139 -225zM6 -520q111 82 111 170q0 72 -78 168h98q61 -78 62 -164q0 -119 -138 -225z" />
<glyph unicode="&#x5a7;" d="M-125 -264l64 53l186 33v-74l-139 -24l139 -220l-64 -53l-186 -33v76l137 23z" />
<glyph unicode="&#x5a8;" d="M-97 1731.5q5 11.5 15 20.5t20.5 14.5t16.5 -1.5q37 -39 62.5 -84t33.5 -97t-4 -111.5t-49 -126.5q-4 -8 -16.5 -8.5t-23.5 6t-18.5 14.5t-2.5 18q20 45 35.5 85t16.5 79t-17.5 81t-67.5 93q-6 6 -1 17.5z" />
<glyph unicode="&#x5a9;" d="M-408 1655q0 80 53.5 134t133.5 54t133 -54t53 -134q0 -57 -35 -111l123 -123l-43 -41l-121 123q-45 -39 -110 -39q-82 0 -134.5 52.5t-52.5 138.5zM-344 1655q0 -53 35 -88t88 -35t88 35t35 88q0 51 -35 86t-88 35t-88 -35t-35 -86z" />
<glyph unicode="&#x5aa;" d="M-168 -182h76q0 -10 -2 -38t-2 -44q0 -141 88 -142q106 0 106 134q0 16 -2 44.5t-2 45.5h76v-129q0 -131 -133 -166v-123h-74v123q-59 16 -95 61t-36 105v129z" />
<glyph unicode="&#x5ab;" d="M-139 1561l174 168h106l-174 -168l174 -179h-106z" />
<glyph unicode="&#x5ac;" d="M-195 1382v74h156v281h74v-355h-230z" />
<glyph unicode="&#x5ad;" d="M-41 -217q0 6 1 15t3 20h76q-2 -10 -3 -24.5t-1 -37.5q0 -98 63 -149q55 -49 156 -49v-78q-295 0 -295 303z" />
<glyph unicode="&#x5ae;" d="M-258 1530q0 53 38 92t91 39q66 0 109 -53q18 -27 36.5 -51.5t40.5 -53.5q27 -49 70 -49q33 0 53.5 21.5t20.5 54.5q0 47 -54 69l21 56q90 -43 90 -125q0 -55 -39 -93t-92 -38q-66 0 -109 53q-16 27 -33.5 50.5t-33.5 49.5q-39 51 -80 52q-33 0 -53.5 -20.5t-20.5 -53.5 q0 -53 53 -72l-20 -55q-88 39 -88 127z" />
<glyph unicode="&#x5af;" d="M-213 1614q0 92 60.5 153.5t152.5 61.5t153.5 -61.5t61.5 -153.5q0 -47 -16.5 -86t-46 -67.5t-68.5 -45t-84 -16.5q-88 0 -152 63q-61 62 -61 152zM-156 1614q0 -66 45 -115t111 -49t112 49t46 115t-46 115t-112 49t-111 -49t-45 -115z" />
<glyph unicode="&#x5b2;" d="M-354 -190h387v-109h-387v109zM141 -256q0 37 26 60.5t62 23.5q35 0 60.5 -24.5t25.5 -59.5q0 -37 -24.5 -61.5t-61.5 -24.5t-62.5 24.5t-25.5 61.5zM143 -506q0 35 26 60.5t60 25.5q37 0 61.5 -24.5t24.5 -61.5t-24.5 -61.5t-61.5 -24.5t-61.5 24.5t-24.5 61.5z" />
<glyph unicode="&#x5b3;" d="M-354 -190h387v-109h-158l-6 -92q0 -23 27 -62q29 -41 28 -61q0 -37 -24.5 -61.5t-61.5 -24.5q-35 0 -59.5 24.5t-24.5 61.5q0 25 27 63q29 41 29 60l-7 92h-157v109zM141 -256q0 37 26 60.5t62 23.5q35 0 60.5 -24.5t25.5 -59.5q0 -37 -24.5 -61.5t-61.5 -24.5 t-62.5 24.5t-25.5 61.5zM143 -506q0 35 26 60.5t60 25.5q37 0 61.5 -24.5t24.5 -61.5t-24.5 -61.5t-61.5 -24.5t-61.5 24.5t-24.5 61.5z" />
<glyph unicode="&#x221a;" d="M-354 -190h387v-109h-158l-6 -92q0 -23 27 -62q29 -41 28 -61q0 -37 -24.5 -61.5t-61.5 -24.5q-35 0 -59.5 24.5t-24.5 61.5q0 25 27 63q29 41 29 60l-7 92h-157v109zM141 -256q0 37 26 60.5t62 23.5q35 0 60.5 -24.5t25.5 -59.5q0 -37 -24.5 -61.5t-61.5 -24.5 t-62.5 24.5t-25.5 61.5zM143 -506q0 35 26 60.5t60 25.5q37 0 61.5 -24.5t24.5 -61.5t-24.5 -61.5t-61.5 -24.5t-61.5 24.5t-24.5 61.5z" />
<glyph unicode="&#x5b5;" d="M-225 -256q0 35 24.5 59.5t61.5 24.5t61.5 -23.5t24.5 -60.5t-24.5 -61.5t-61.5 -24.5t-61.5 24.5t-24.5 61.5zM53 -256q0 35 24.5 59.5t61.5 24.5t61.5 -24.5t24.5 -59.5q0 -37 -24.5 -61.5t-61.5 -24.5q-35 0 -60.5 25.5t-25.5 60.5z" />
<glyph unicode="&#x2248;" d="M-225 -256q0 35 24.5 59.5t61.5 24.5t61.5 -23.5t24.5 -60.5t-24.5 -61.5t-61.5 -24.5t-61.5 24.5t-24.5 61.5zM53 -256q0 35 24.5 59.5t61.5 24.5t61.5 -24.5t24.5 -59.5q0 -37 -24.5 -61.5t-61.5 -24.5q-35 0 -60.5 25.5t-25.5 60.5z" />
<glyph unicode="&#x5b6;" d="M-236 -256q0 35 25 59.5t61 24.5q37 0 62 -23.5t25 -60.5t-25 -61.5t-62 -24.5t-61.5 24.5t-24.5 61.5zM-88 -494q0 35 26.5 61.5t61.5 26.5q37 0 61.5 -25.5t24.5 -62.5t-24.5 -61.5t-61.5 -24.5t-62.5 24.5t-25.5 61.5zM63 -256q0 35 25 59.5t62 24.5t61.5 -24.5 t24.5 -59.5q0 -37 -25 -61.5t-61 -24.5q-35 0 -61 25.5t-26 60.5z" />
<glyph unicode="&#x2206;" d="M-236 -256q0 35 25 59.5t61 24.5q37 0 62 -23.5t25 -60.5t-25 -61.5t-62 -24.5t-61.5 24.5t-24.5 61.5zM-88 -494q0 35 26.5 61.5t61.5 26.5q37 0 61.5 -25.5t24.5 -62.5t-24.5 -61.5t-61.5 -24.5t-62.5 24.5t-25.5 61.5zM63 -256q0 35 25 59.5t62 24.5t61.5 -24.5 t24.5 -59.5q0 -37 -25 -61.5t-61 -24.5q-35 0 -61 25.5t-26 60.5z" />
<glyph unicode="&#x5b7;" d="M-193 -190h388v-109h-388v109z" />
<glyph unicode="&#x5b8;" d="M-193 -190h388v-109h-158l-6 -92q0 -23 26 -62q29 -41 29 -61q0 -37 -24.5 -61.5t-61.5 -24.5q-35 0 -59.5 24.5t-24.5 61.5q0 25 27 63q29 41 28 60l-6 92h-158v109z" />
<glyph unicode="&#x5b9;" d="M-86 1411q0 35 25.5 60.5t60.5 25.5q37 0 61.5 -24.5t24.5 -61.5t-24.5 -61.5t-61.5 -24.5t-61.5 24.5t-24.5 61.5z" />
<glyph unicode="&#x2026;" d="M-86 1411q0 35 25.5 60.5t60.5 25.5q37 0 61.5 -24.5t24.5 -61.5t-24.5 -61.5t-61.5 -24.5t-61.5 24.5t-24.5 61.5z" />
<glyph unicode="&#x5bb;" d="M-86 -256q0 35 24.5 59.5t61.5 24.5t61.5 -24.5t24.5 -59.5q0 -37 -24.5 -61.5t-61.5 -24.5q-35 0 -60.5 25.5t-25.5 60.5zM66 -393q0 35 24.5 59.5t61.5 24.5t61.5 -23.5t24.5 -60.5t-25 -61.5t-61 -24.5q-37 0 -61.5 24.5t-24.5 61.5zM217 -537q0 35 26.5 61.5 t61.5 26.5q37 0 61.5 -25.5t24.5 -62.5t-24.5 -61.5t-61.5 -24.5t-62.5 24.5t-25.5 61.5z" />
<glyph unicode="&#x5bc;" d="M-84 590q0 35 24.5 59.5t59.5 24.5t59.5 -24.5t24.5 -59.5t-24.5 -59.5t-59.5 -24.5t-59.5 24.5t-24.5 59.5z" />
<glyph unicode="&#x5bd;" d="M-37 -182h74v-357h-74v357z" />
<glyph unicode="&#x5c0;" horiz-adv-x="497" d="M195 2v1184h110v-1184h-110z" />
<glyph unicode="&#x5c1;" d="M358 1411q0 35 26 60.5t60 25.5q37 0 61.5 -24.5t24.5 -61.5t-24.5 -61.5t-61.5 -24.5t-61.5 24.5t-24.5 61.5z" />
<glyph unicode="&#x5c2;" d="M-172 1411q0 35 25.5 60.5t60.5 25.5q37 0 61.5 -24.5t24.5 -61.5t-24.5 -61.5t-61.5 -24.5t-61.5 24.5t-24.5 61.5z" />
<glyph unicode="&#x5c3;" horiz-adv-x="446" d="M106 0v156h146v-156h-146zM106 696v156h146v-156h-146z" />
<glyph unicode="&#x5c4;" d="M-86 1411q0 35 25.5 60.5t60.5 25.5q37 0 61.5 -24.5t24.5 -61.5t-24.5 -61.5t-61.5 -24.5t-61.5 24.5t-24.5 61.5z" />
<glyph unicode="&#x5c7;" d="M-193 -184h388v-109h-158l-6 -266q0 -23 26 -62q29 -41 29 -61q0 -37 -24.5 -61.5t-61.5 -24.5q-35 0 -59.5 24.5t-24.5 61.5q0 25 27 64q29 41 28 59l-6 266h-158v109z" />
<glyph unicode="&#x5d0;" horiz-adv-x="1163" d="M84 1180h149l478 -688q33 43 67.5 107.5t59 150.5t30.5 193.5t-16 236.5h145q16 -139 10 -252t-35.5 -205t-81.5 -168t-126 -141l305 -414h-168l-506 700q-106 -152 -126.5 -326.5t12.5 -373.5h-144q-18 129 -19 233.5t21.5 197.5t72.5 178t134 175z" />
<glyph unicode="&#x2021;" horiz-adv-x="1163" d="M84 1180h149l478 -688q33 43 67.5 107.5t59 150.5t30.5 193.5t-16 236.5h145q16 -139 10 -252t-35.5 -205t-81.5 -168t-126 -141l305 -414h-168l-506 700q-106 -152 -126.5 -326.5t12.5 -373.5h-144q-18 129 -19 233.5t21.5 197.5t72.5 178t134 175z" />
<glyph unicode="&#x5d1;" horiz-adv-x="1058" d="M82 1116q158 68 304 73t259 -48.5t180.5 -164t67.5 -278.5v-202q0 -49 -6 -107.5t-16.5 -112t-23.5 -94.5t-28 -59h148v-123h-867v123h582q20 23 33.5 41t20.5 37.5t10.5 43t3.5 58.5v430q0 129 -61.5 204t-156 104.5t-207 17.5t-212.5 -60z" />
<glyph unicode="&#x5d2;" horiz-adv-x="888" d="M76 -6l26 125q78 -6 156 23.5t139.5 87t102.5 139.5t45 178v244q0 102 -37 168.5t-97.5 94t-137 16.5t-156.5 -62l-25 102q117 80 223.5 88t187.5 -39t129 -144t48 -229v-421l39 -367h-146l-4 356q-25 -66 -65.5 -137.5t-101 -126.5t-141.5 -84.5t-185 -11.5z" />
<glyph unicode="&#x201a;" horiz-adv-x="888" d="M76 -6l26 125q78 -6 156 23.5t139.5 87t102.5 139.5t45 178v244q0 102 -37 168.5t-97.5 94t-137 16.5t-156.5 -62l-25 102q117 80 223.5 88t187.5 -39t129 -144t48 -229v-421l39 -367h-146l-4 356q-25 -66 -65.5 -137.5t-101 -126.5t-141.5 -84.5t-185 -11.5z" />
<glyph unicode="&#x5d3;" horiz-adv-x="1097" d="M90 1049v131h877v-131h-72q-29 -20 -45 -43t-23.5 -47.5t-8.5 -49t-1 -49.5v-860h-143v764q0 45 3 79t15.5 66.5t37 65.5t67.5 74h-707z" />
<glyph unicode="&#x201e;" horiz-adv-x="1097" d="M90 1049v131h877v-131h-72q-29 -20 -45 -43t-23.5 -47.5t-8.5 -49t-1 -49.5v-860h-143v764q0 45 3 79t15.5 66.5t37 65.5t67.5 74h-707z" />
<glyph unicode="&#x5d4;" horiz-adv-x="1245" d="M121 1122q98 35 207.5 55.5t218 17.5t206 -31.5t173 -93t120 -169t44.5 -258.5l-3 -643h-143v629q0 104 -20.5 184t-70.5 134t-135 82t-212 28q-106 0 -202.5 -18.5t-162.5 -55.5zM162 0v641l112 96h31v-737h-143z" />
<glyph unicode="&#x2030;" horiz-adv-x="1245" d="M121 1122q98 35 207.5 55.5t218 17.5t206 -31.5t173 -93t120 -169t44.5 -258.5l-3 -643h-143v629q0 104 -20.5 184t-70.5 134t-135 82t-212 28q-106 0 -202.5 -18.5t-162.5 -55.5zM162 0v641l112 96h31v-737h-143z" />
<glyph unicode="&#x5d5;" horiz-adv-x="501" d="M154 0v1180h143v-1180h-143z" />
<glyph unicode="&#x5d6;" horiz-adv-x="749" d="M88 1051v129h547v-129h-207q-12 -84 -21.5 -205t25.5 -268l117 -578h-148l-100 524q-12 63 -17 122t-5 120t6 130t18 155h-215z" />
<glyph unicode="&#x5d7;" horiz-adv-x="1329" d="M102 1135q106 31 230.5 54t246 25.5t233.5 -23.5t198 -95.5t137 -189.5t51 -306l-2 -600h-141v668q0 137 -54.5 226t-149.5 135t-224 51t-279 -27v-1053h-143v864l67 170q-76 -12 -105.5 -24.5t-45.5 -22.5z" />
<glyph unicode="&#x5d8;" horiz-adv-x="1318" d="M145 522v658h144v-752q0 -70 24.5 -130t70.5 -104t112.5 -70t152.5 -26q80 0 148.5 23.5t119 67.5t79 106.5t28.5 142.5v393q0 86 -41 138.5t-104.5 70t-140 0t-146.5 -72.5l-41 114q125 92 236.5 100.5t196.5 -38.5t134 -136t49 -192v-274q0 -121 -32.5 -226.5 t-98 -182.5t-164 -121t-229.5 -44q-139 0 -234.5 42t-153.5 116t-84 175t-26 222z" />
<glyph unicode="&#x5d9;" horiz-adv-x="499" d="M152 506v674h145l-2 -674h-143z" />
<glyph unicode="&#x5da;" horiz-adv-x="1056" d="M129 1133q170 70 311.5 71.5t243.5 -62t159.5 -191.5t57.5 -314l-2 -1038h-143v1132q0 137 -57.5 217t-144.5 111t-188.5 14.5t-189.5 -72.5z" />
<glyph unicode="&#x5db;" horiz-adv-x="1140" d="M123 1069q156 106 314.5 127t284.5 -37.5t206 -190.5t80 -327l2 -61q6 -184 -70 -322.5t-202 -211.5t-284.5 -68.5t-318.5 104.5l41 113q123 -74 245 -86.5t219 31.5t158.5 142.5t65.5 247.5v158q-4 139 -69.5 230.5t-167 128t-224 14t-239.5 -110.5z" />
<glyph unicode="&#x5dc;" horiz-adv-x="1046" d="M78 1051v481l143 2v-354h369q137 0 222 -63.5t117 -166t10.5 -230.5t-97.5 -255l-299 -504l-111 74l328 567q45 80 52 161t-19.5 144.5t-84 103.5t-139.5 40h-491z" />
<glyph unicode="&#x5dd;" horiz-adv-x="1304" d="M96 1149q236 49 453 49q160 0 273.5 -26.5t186 -91t106.5 -173t34 -270.5l-2 -637h-948v893l69 156q-33 0 -51 -1t-34 -5l-30 -6q-15 -3 -40 -9zM342 121h662l2 557q2 137 -36 221t-120 125t-208 44t-300 -17v-930z" />
<glyph unicode="&#x5de;" horiz-adv-x="1345" d="M139 1106l62 90q53 -23 101 -78t63 -168q45 106 125.5 167t174 79t189.5 -4.5t174 -80.5t127 -152.5t49 -219.5v-295q0 -131 -53 -233t-139 -159.5t-196.5 -63.5t-227.5 55l20 100q74 -31 154 -31.5t146.5 33t109.5 105.5t43 188v330q0 104 -50 173t-125 100.5t-162 27.5 t-162 -43t-125 -112.5t-50 -180.5v-733h-143v827q0 33 -5.5 73t-16.5 79t-31.5 73t-51.5 54z" />
<glyph unicode="&#x5df;" horiz-adv-x="493" d="M201 -401v1581l143 -2v-1579h-143z" />
<glyph unicode="&#x5e0;" horiz-adv-x="831" d="M117 0v123h415v737q0 72 -35.5 117t-90 63.5t-119 10t-121.5 -40.5l-33 129q119 45 219.5 43t172 -49.5t111.5 -137.5t40 -219v-776h-559z" />
<glyph unicode="&#xf8ff;" horiz-adv-x="831" d="M117 0v123h415v737q0 72 -35.5 117t-90 63.5t-119 10t-121.5 -40.5l-33 129q119 45 219.5 43t172 -49.5t111.5 -137.5t40 -219v-776h-559z" />
<glyph unicode="&#x5e1;" horiz-adv-x="1271" d="M123 608q0 154 38 270.5t106.5 194.5t161.5 117t204 39t204 -38t160.5 -116t105.5 -194.5t38 -272.5q0 -145 -38 -262t-105.5 -200t-161 -127t-203.5 -44q-121 0 -216 44t-161 127t-99.5 200t-33.5 262zM266 602q0 -102 17.5 -192.5t59.5 -159t112.5 -108.5t177.5 -40 q109 0 179.5 45.5t111.5 118t57 161.5t16 175q0 98 -14 187.5t-55 157t-113 108.5t-184 41q-115 0 -185.5 -39t-110.5 -105.5t-54.5 -157t-14.5 -192.5z" />
<glyph unicode="&#x5e2;" horiz-adv-x="1161" d="M109 -14l266 137l-248 1057h141l199 -826q8 -31 8 -83t-4 -107l125 76q43 27 88 62.5t84 87.5t64.5 121t29.5 159l21 510h145l-24 -457q-10 -186 -80 -313t-185.5 -219.5t-267.5 -164t-326 -147.5z" />
<glyph unicode="&#x5e3;" horiz-adv-x="1261" d="M92 788q0 100 42 178t110.5 130.5t158 79t187.5 26.5q141 0 239.5 -41t160 -114.5t89 -178t27.5 -231.5v-1036h-143l2 1087q0 74 -19.5 141.5t-64.5 119.5t-118 83t-179 31q-96 0 -161 -21.5t-106 -58.5t-59 -86t-22 -104q-2 -35 9 -81t46 -86t98.5 -67t163.5 -20l6 -111 q-117 -27 -205 -2t-146 79t-87 129.5t-29 153.5z" />
<glyph unicode="&#x5e4;" horiz-adv-x="1253" d="M127 801q-4 141 67.5 239.5t183 146.5t243 42t244 -75t188 -205t75.5 -345q0 -125 -39.5 -236.5t-116.5 -196.5t-188.5 -134t-255.5 -49q-49 0 -104 10t-106.5 28.5t-95.5 45t-75 59.5l58 102q131 -94 269 -107t252 40t186.5 164.5t72.5 269.5q0 156 -53 262.5 t-132 164.5t-172 70.5t-172 -16t-132.5 -98.5t-53.5 -176q0 -53 16.5 -99t54.5 -76t98.5 -36t148.5 22l30 -81q-72 -55 -155.5 -66.5t-157.5 22t-124 111.5t-54 197z" />
<glyph unicode="&#x5e8;" horiz-adv-x="1077" d="M68 1116q37 18 84 32.5t98 26t102 17.5t94 6q123 0 214.5 -32.5t151.5 -91t89 -140.5t29 -180l-4 -754h-142v766q0 137 -83 221t-244 84q-33 0 -78 -5t-93 -14.5t-96.5 -23.5t-87.5 -33z" />
<glyph unicode="&#x5f0;" horiz-adv-x="942" d="M154 0v1180h143v-1180h-143zM594 0v1180h143v-1180h-143z" />
<glyph unicode="&#x5f1;" horiz-adv-x="899" d="M551 0v1180h143v-1180h-143zM152 506v674h145l-2 -674h-143z" />
<glyph unicode="&#x5f2;" horiz-adv-x="897" d="M152 506v674h145l-2 -674h-143zM549 506v674h145l-2 -674h-143z" />
<glyph unicode="&#x5f3;" horiz-adv-x="569" d="M88 891l166 532h152l-199 -532h-119z" />
<glyph unicode="&#x25ca;" horiz-adv-x="569" d="M88 891l166 532h152l-199 -532h-119z" />
<glyph unicode="&#x5f4;" horiz-adv-x="901" d="M82 891l166 532h151l-198 -532h-119zM410 891l165 532h152l-199 -532h-118z" />
<glyph unicode="&#x2000;" horiz-adv-x="1024" />
<glyph unicode="&#x2001;" horiz-adv-x="2048" />
<glyph unicode="&#x2002;" horiz-adv-x="1024" />
<glyph unicode="&#x2003;" horiz-adv-x="2048" />
<glyph unicode="&#x2004;" horiz-adv-x="681" />
<glyph unicode="&#x2005;" horiz-adv-x="512" />
<glyph unicode="&#x2006;" horiz-adv-x="339" />
<glyph unicode="&#x2007;" horiz-adv-x="1056" />
<glyph unicode="&#x2008;" horiz-adv-x="417" />
<glyph unicode="&#x2009;" horiz-adv-x="204" />
<glyph unicode="&#x200a;" horiz-adv-x="20" />
<glyph unicode="&#x200b;" />
<glyph unicode="&#x200c;" horiz-adv-x="45" d="M0 0v1628h45v-1628h-45z" />
<glyph unicode="&#x200d;" horiz-adv-x="45" d="M-115 1495l109 109l-109 106l31 31l107 -109l106 109l31 -31l-107 -106l107 -109l-31 -29l-84 84v-1550h-45v1550l-84 -84z" />
<glyph unicode="&#x2010;" horiz-adv-x="778" d="M86 537v122h547v-122h-547z" />
<glyph unicode="&#x2011;" horiz-adv-x="778" d="M86 537v122h547v-122h-547z" />
<glyph unicode="&#x2012;" horiz-adv-x="1056" d="M86 537v122h825v-122h-825z" />
<glyph unicode="&#x2013;" horiz-adv-x="929" d="M25 614l69 168h809l-69 -168h-809z" />
<glyph unicode="&#x2014;" horiz-adv-x="1859" d="M25 614l69 168h1731l-70 -168h-1730z" />
<glyph unicode="&#x2015;" horiz-adv-x="4096" d="M86 537v122h3865v-122h-3865z" />
<glyph unicode="&#x2016;" horiz-adv-x="962" d="M626 -371v2079h150v-2079h-150zM145 -371v2079h150v-2079h-150z" />
<glyph unicode="&#x2018;" horiz-adv-x="569" d="M106 -160l166 533h152l-199 -533h-119z" />
<glyph unicode="&#x2019;" horiz-adv-x="417" d="M106 0v156h146v-156h-146z" />
<glyph unicode="&#x201c;" horiz-adv-x="856" d="M113 -203l166 533h151l-199 -533h-118zM440 -203l166 533h152l-199 -533h-119z" />
<glyph unicode="&#x201d;" horiz-adv-x="901" d="M82 891l166 532h151l-198 -532h-119zM410 891l165 532h152l-199 -532h-118z" />
<glyph unicode="&#x2022;" horiz-adv-x="1062" d="M115 643q0 172 118 291q121 121 293 121q170 0 291 -121t121 -291q0 -172 -121 -293t-291 -121q-172 0 -293 121q-118 119 -118 293z" />
<glyph unicode="&#x2024;" horiz-adv-x="417" d="M106 0v156h146v-156h-146z" />
<glyph unicode="&#x2025;" horiz-adv-x="835" d="M524 0v156h146v-156h-146zM106 0v156h146v-156h-146z" />
<glyph unicode="&#x202a;" />
<glyph unicode="&#x202f;" horiz-adv-x="368" />
<glyph unicode="&#x2032;" horiz-adv-x="569" d="M88 891l166 532h152l-199 -532h-119z" />
<glyph unicode="&#x2033;" horiz-adv-x="1138" d="M657 891l166 532h152l-199 -532h-119zM88 891l166 532h152l-199 -532h-119z" />
<glyph unicode="&#x2034;" horiz-adv-x="1708" d="M1227 891l166 532h152l-199 -532h-119zM657 891l166 532h152l-199 -532h-119zM88 891l166 532h152l-199 -532h-119z" />
<glyph unicode="&#x2039;" horiz-adv-x="851" d="M162 582q45 39 109.5 95t150.5 132l147 139q125 117 133 117q25 0 25 -29q0 -35 -328 -461q47 -59 93.5 -116.5t93.5 -116.5q143 -186 143 -229q0 -29 -27 -29q-10 0 -153 143q-23 23 -118 111t-269 244z" />
<glyph unicode="&#x203a;" horiz-adv-x="851" d="M123 1036q0 29 29 29q10 0 153 -143q35 -33 131 -121t256 -232q-45 -39 -109.5 -95t-150.5 -132q-45 -45 -111.5 -107.5t-158.5 -148.5l-10 -2q-27 0 -27 29q0 35 328 460q-47 57 -92.5 114.5t-90.5 117.5q-147 186 -147 231z" />
<glyph unicode="&#x203c;" horiz-adv-x="839" d="M506 0v156h145v-156h-145zM506 696v721h143v-721q0 -53 -10 -111.5t-29 -125.5h-67q-37 124 -37 237zM86 0v156h145v-156h-145zM86 696v721h143v-721q0 -53 -10 -111.5t-29 -125.5h-67q-37 124 -37 237z" />
<glyph unicode="&#x203e;" horiz-adv-x="512" d="M-214.803 301.394v68.9971h72.5977v-57.5977q0 -36.5986 11.6992 -59.3975q11.6992 -22.7998 30.8984 -35.6992t42.2988 -17.3984q23.0986 -4.5 46.498 -4.5q61.1973 0 97.1953 29.0986q35.999 29.0986 45.5986 69.5967q9.59961 40.499 -4.5 84.5967 q-14.0996 44.0986 -50.6982 74.6973l-131.395 108.596v26.999l173.993 159.593l1.7998 50.3984h-324.587v73.7969h400.185v-153.594l-154.794 -127.795l76.1963 -57.5977q43.1982 -29.3984 67.1973 -71.9971q23.999 -42.5977 29.3994 -88.7959 q5.39941 -46.1982 -6.2998 -90.8965t-40.498 -80.3965q-28.7988 -35.6992 -74.0977 -57.8984q-45.2979 -22.1982 -107.096 -22.1982q-91.1963 0 -146.394 42.8975q-55.1982 42.8984 -55.1982 136.495z" />
<glyph unicode="&#x2047;" horiz-adv-x="1761" d="M885 1018v92q0 78 29.5 141.5t82 108.5t121 70.5t148.5 29.5q100 4 181 -31.5t126 -99t47 -146.5t-55 -171l-147 -240q-25 -39 -35 -81t-10 -83v-149h-140v168q0 96 60 204l129 183q51 74 55 136t-25.5 105t-82 64.5t-113.5 15.5q-117 -12 -172.5 -64t-55.5 -134v-119 h-143zM1237 0v156h146v-156h-146zM4 1018v92q0 78 29.5 141.5t82 108.5t121 70.5t148.5 29.5q100 4 181 -31.5t126 -99t47 -146.5t-55 -171l-147 -240q-25 -39 -35 -81t-10 -83v-149h-140v168q0 96 60 204l129 183q51 74 55 136t-25.5 105t-82 64.5t-113.5 15.5 q-117 -12 -172.5 -64t-55.5 -134v-119h-143zM356 0v156h146v-156h-146z" />
<glyph unicode="&#x2048;" horiz-adv-x="1300" d="M967 0v156h145v-156h-145zM967 696v721h143v-721q0 -53 -10 -111.5t-29 -125.5h-67q-37 124 -37 237zM4 1018v92q0 78 29.5 141.5t82 108.5t121 70.5t148.5 29.5q100 4 181 -31.5t126 -99t47 -146.5t-55 -171l-147 -240q-25 -39 -35 -81t-10 -83v-149h-140v168 q0 96 60 204l129 183q51 74 55 136t-25.5 105t-82 64.5t-113.5 15.5q-117 -12 -172.5 -64t-55.5 -134v-119h-143zM356 0v156h146v-156h-146z" />
<glyph unicode="&#x2049;" horiz-adv-x="1300" d="M424 1018v92q0 78 29.5 141.5t82 108.5t121 70.5t148.5 29.5q100 4 181 -31.5t126 -99t47 -146.5t-55 -171l-147 -240q-25 -39 -35 -81t-10 -83v-149h-140v168q0 96 60 204l129 183q51 74 55 136t-25.5 105t-82 64.5t-113.5 15.5q-117 -12 -172.5 -64t-55.5 -134v-119 h-143zM776 0v156h146v-156h-146zM86 0v156h145v-156h-145zM86 696v721h143v-721q0 -53 -10 -111.5t-29 -125.5h-67q-37 124 -37 237z" />
<glyph unicode="&#x2057;" horiz-adv-x="2277" d="M1796 891l166 532h152l-199 -532h-119zM1227 891l166 532h152l-199 -532h-119zM657 891l166 532h152l-199 -532h-119zM88 891l166 532h152l-199 -532h-119z" />
<glyph unicode="&#x205f;" horiz-adv-x="460" />
<glyph unicode="&#x2060;" />
<glyph unicode="&#xe000;" horiz-adv-x="770" d="M0 770h770v-770h-770v770z" />
<glyph unicode="&#xfb00;" horiz-adv-x="1441" d="M762 0v49h158v680h-156v49h156v74q0 221 43 313q80 170 254 170q72 0 129 -32q72 -41 71 -105q0 -78 -75 -78q-82 0 -82 74q0 47 47 70q0 23 -86 22q-100 0 -101 -137v-371h170v-49h-170v-680h158v-49h-516zM41 0v49h158v680h-156v49h156v74q0 221 43 313q80 170 254 170 q72 0 129 -32q72 -41 71 -105q0 -78 -75 -78q-82 0 -82 74q0 47 47 70q0 23 -86 22q-100 0 -101 -137v-371h170v-49h-170v-680h158v-49h-516z" />
<glyph unicode="&#xfb01;" horiz-adv-x="1341" d="M789 0v49h157v680h-157v49h356v-729h160v-49h-516zM926 1126q0 47 34.5 79t84.5 32q49 0 83.5 -31.5t34.5 -79.5q0 -47 -35.5 -77.5t-82.5 -30.5t-83 30.5t-36 77.5zM41 0v49h158v680h-156v49h156v74q0 221 43 313q80 170 254 170q72 0 129 -32q72 -41 71 -105 q0 -78 -75 -78q-82 0 -82 74q0 47 47 70q0 23 -86 22q-100 0 -101 -137v-371h170v-49h-170v-680h158v-49h-516z" />
<glyph unicode="&#xfb02;" horiz-adv-x="1323" d="M787 0v49h147v1223h-147v49h346v-1272h147v-49h-493zM41 0v49h158v680h-156v49h156v74q0 221 43 313q80 170 254 170q72 0 129 -32q72 -41 71 -105q0 -78 -75 -78q-82 0 -82 74q0 47 47 70q0 23 -86 22q-100 0 -101 -137v-371h170v-49h-170v-680h158v-49h-516z" />
<glyph unicode="&#xfb03;" horiz-adv-x="2062" d="M1510 0v49h157v680h-157v49h356v-729h160v-49h-516zM1647 1126q0 47 34.5 79t84.5 32q49 0 83.5 -31.5t34.5 -79.5q0 -47 -35.5 -77.5t-82.5 -30.5t-83 30.5t-36 77.5zM762 0v49h158v680h-156v49h156v74q0 221 43 313q80 170 254 170q72 0 129 -32q72 -41 71 -105 q0 -78 -75 -78q-82 0 -82 74q0 47 47 70q0 23 -86 22q-100 0 -101 -137v-371h170v-49h-170v-680h158v-49h-516zM41 0v49h158v680h-156v49h156v74q0 221 43 313q80 170 254 170q72 0 129 -32q72 -41 71 -105q0 -78 -75 -78q-82 0 -82 74q0 47 47 70q0 23 -86 22 q-100 0 -101 -137v-371h170v-49h-170v-680h158v-49h-516z" />
<glyph unicode="&#xfb04;" horiz-adv-x="2043" d="M1508 0v49h147v1223h-147v49h346v-1272h147v-49h-493zM762 0v49h158v680h-156v49h156v74q0 221 43 313q80 170 254 170q72 0 129 -32q72 -41 71 -105q0 -78 -75 -78q-82 0 -82 74q0 47 47 70q0 23 -86 22q-100 0 -101 -137v-371h170v-49h-170v-680h158v-49h-516zM41 0v49 h158v680h-156v49h156v74q0 221 43 313q80 170 254 170q72 0 129 -32q72 -41 71 -105q0 -78 -75 -78q-82 0 -82 74q0 47 47 70q0 23 -86 22q-100 0 -101 -137v-371h170v-49h-170v-680h158v-49h-516z" />
<glyph unicode="&#xfb06;" horiz-adv-x="1464" d="M791 727v49h143v217l201 92v-309h205v-49h-205v-518q0 -176 127 -176q111 0 133 133q4 29 29 29q20 0 20 -25q0 -16 -2 -20q-35 -176 -252 -177q-119 0 -187.5 61.5t-68.5 178.5v514h-143zM88 8v207q0 25 23 25q18 0 24 -25q55 -195 266 -195q80 0 138 33q74 39 73 113 q0 86 -125 129q-16 2 -196 43q-188 41 -189 207q0 59 22.5 106t61.5 80t91.5 50.5t113.5 17.5q96 0 160 -51l41 38l6 5q8 8 16 8q14 0 15 -23v-207q0 -20 -17 -20q-20 0 -22 18q-14 82 -69.5 132.5t-141.5 50.5q-63 0 -115 -31q-61 -35 -61 -92q0 -61 123 -99q45 -10 89 -19 t89 -20q199 -57 198 -245q0 -129 -81.5 -200t-212.5 -71q-156 0 -238 76l-39 -51q-8 -14 -20 -14q-23 -1 -23 24z" />
<glyph unicode="&#xfb1d;" horiz-adv-x="526" d="M166 506v674h145l-2 -674h-143zM152 -256q0 35 24.5 59.5t61.5 24.5t61.5 -23.5t24.5 -60.5t-24.5 -61.5t-61.5 -24.5t-61.5 24.5t-24.5 61.5z" />
<glyph unicode="&#xfb1e;" horiz-adv-x="1865" d="M78 1051v194l143 2v-67h1188q137 0 222 -63.5t117 -166t10.5 -230.5t-97.5 -255l-299 -504l-111 74l328 567q45 80 52 161t-19.5 144.5t-84 103.5t-138.5 40h-1311z" />
<glyph unicode="&#xfb1f;" horiz-adv-x="897" d="M152 506v674h145l-2 -674h-143zM549 506v674h145l-2 -674h-143z" />
<glyph unicode="&#xfb20;" horiz-adv-x="1161" d="M109 -14l266 137l-248 1057h141l199 -826q8 -31 8 -83t-4 -107l125 76q43 27 88 62.5t84 87.5t64.5 121t29.5 159l21 510h145l-24 -457q-10 -186 -80 -313t-185.5 -219.5t-267.5 -164t-326 -147.5z" />
<glyph unicode="&#xfb21;" horiz-adv-x="1058" d="M82 1116q158 68 304 73t259 -48.5t180.5 -164t67.5 -278.5v-202q0 -49 -6 -107.5t-16.5 -112t-23.5 -94.5t-28 -59h148v-123h-867v123h582q20 23 33.5 41t20.5 37.5t10.5 43t3.5 58.5v430q0 129 -61.5 204t-156 104.5t-207 17.5t-212.5 -60z" />
<glyph unicode="&#xfb22;" horiz-adv-x="1097" d="M90 1049v131h877v-131h-72q-29 -20 -45 -43t-23.5 -47.5t-8.5 -49t-1 -49.5v-860h-143v764q0 45 3 79t15.5 66.5t37 65.5t67.5 74h-707z" />
<glyph unicode="&#xfb23;" horiz-adv-x="1245" d="M121 1122q98 35 207.5 55.5t218 17.5t206 -31.5t173 -93t120 -169t44.5 -258.5l-3 -643h-143v629q0 104 -20.5 184t-70.5 134t-135 82t-212 28q-106 0 -202.5 -18.5t-162.5 -55.5zM162 0v641l112 96h31v-737h-143z" />
<glyph unicode="&#xfb24;" horiz-adv-x="1140" d="M123 1069q156 106 314.5 127t284.5 -37.5t206 -190.5t80 -327l2 -61q6 -184 -70 -322.5t-202 -211.5t-284.5 -68.5t-318.5 104.5l41 113q123 -74 245 -86.5t219 31.5t158.5 142.5t65.5 247.5v158q-4 139 -69.5 230.5t-167 128t-224 14t-239.5 -110.5z" />
<glyph unicode="&#xfb25;" horiz-adv-x="1046" d="M78 1051v481l143 2v-354h369q137 0 222 -63.5t117 -166t10.5 -230.5t-97.5 -255l-299 -504l-111 74l328 567q45 80 52 161t-19.5 144.5t-84 103.5t-139.5 40h-491z" />
<glyph unicode="&#xfb26;" horiz-adv-x="1304" d="M96 1149q236 49 453 49q160 0 273.5 -26.5t186 -91t106.5 -173t34 -270.5l-2 -637h-948v893l69 156q-33 0 -51 -1t-34 -5l-30 -6q-15 -3 -40 -9zM342 121h662l2 557q2 137 -36 221t-120 125t-208 44t-300 -17v-930z" />
<glyph unicode="&#xfb27;" horiz-adv-x="1077" d="M68 1116q37 18 84 32.5t98 26t102 17.5t94 6q123 0 214.5 -32.5t151.5 -91t89 -140.5t29 -180l-4 -754h-142v766q0 137 -83 221t-244 84q-33 0 -78 -5t-93 -14.5t-96.5 -23.5t-87.5 -33z" />
<glyph unicode="&#xfb28;" horiz-adv-x="1333" d="M33 23l35 112q35 -12 72.5 -18t68.5 0t51.5 29.5t20.5 70.5v701l75 145q-76 -2 -124 -16.5t-99 -18.5l-16 113q61 14 129.5 26.5t138.5 20.5t135.5 13t118.5 5q162 0 270.5 -38t174 -114.5t93 -194.5t27.5 -279l-2 -580h-143v629q0 111 -18.5 193.5t-62.5 138t-120 84 t-190 28.5q-20 0 -56.5 -1t-73 -3t-69.5 -4t-45 -2v-778q0 -86 -29.5 -152.5t-82 -104.5t-124 -41t-155.5 36z" />
<glyph unicode="&#xfb29;" horiz-adv-x="1183" d="M29 584v172h448v448h170v-448h449v-172h-1067z" />
<glyph unicode="&#xfb2a;" horiz-adv-x="1679" d="M156 655v525h143v-629q0 -98 33 -179t94 -139.5t148.5 -91t195.5 -32.5q223 0 348 109.5t125 332.5v629h143v-525q0 -135 -30.5 -258t-100 -216t-181 -148.5t-273.5 -55.5q-170 0 -292 48.5t-201 136.5t-115.5 213.5t-36.5 279.5zM557 426q23 14 47.5 40t46 64.5t34.5 90 t13 116.5v443h144v-445q0 -92 -25.5 -159.5t-63.5 -114.5t-81 -74t-76 -37zM1226 1405q0 35 26 60.5t60 25.5q37 0 61.5 -24.5t24.5 -61.5t-24.5 -61.5t-61.5 -24.5t-61.5 24.5t-24.5 61.5z" />
<glyph unicode="&#xfb2b;" horiz-adv-x="1542" d="M156 655v525h143v-629q0 -98 33 -179t94 -139.5t148.5 -91t195.5 -32.5q223 0 348 109.5t125 332.5v629h143v-525q0 -135 -30.5 -258t-100 -216t-181 -148.5t-273.5 -55.5q-170 0 -292 48.5t-201 136.5t-115.5 213.5t-36.5 279.5zM557 426q23 14 47.5 40t46 64.5t34.5 90 t13 116.5v443h144v-445q0 -92 -25.5 -159.5t-63.5 -114.5t-81 -74t-76 -37zM139 1411q0 35 25.5 60.5t60.5 25.5q37 0 61.5 -24.5t24.5 -61.5t-24.5 -61.5t-61.5 -24.5t-61.5 24.5t-24.5 61.5z" />
<glyph unicode="&#xfb2c;" horiz-adv-x="1679" d="M156 655v525h143v-629q0 -98 33 -179t94 -139.5t148.5 -91t195.5 -32.5q223 0 348 109.5t125 332.5v629h143v-525q0 -135 -30.5 -258t-100 -216t-181 -148.5t-273.5 -55.5q-170 0 -292 48.5t-201 136.5t-115.5 213.5t-36.5 279.5zM557 426q23 14 47.5 40t46 64.5t34.5 90 t13 116.5v443h144v-445q0 -92 -25.5 -159.5t-63.5 -114.5t-81 -74t-76 -37zM1226 1405q0 35 26 60.5t60 25.5q37 0 61.5 -24.5t24.5 -61.5t-24.5 -61.5t-61.5 -24.5t-61.5 24.5t-24.5 61.5zM950 578q0 35 24.5 59.5t59.5 24.5t59.5 -24.5t24.5 -59.5t-24.5 -59.5 t-59.5 -24.5t-59.5 24.5t-24.5 59.5z" />
<glyph unicode="&#xfb2d;" horiz-adv-x="1542" d="M156 655v525h143v-629q0 -98 33 -179t94 -139.5t148.5 -91t195.5 -32.5q223 0 348 109.5t125 332.5v629h143v-525q0 -135 -30.5 -258t-100 -216t-181 -148.5t-273.5 -55.5q-170 0 -292 48.5t-201 136.5t-115.5 213.5t-36.5 279.5zM557 426q23 14 47.5 40t46 64.5t34.5 90 t13 116.5v443h144v-445q0 -92 -25.5 -159.5t-63.5 -114.5t-81 -74t-76 -37zM139 1411q0 35 25.5 60.5t60.5 25.5q37 0 61.5 -24.5t24.5 -61.5t-24.5 -61.5t-61.5 -24.5t-61.5 24.5t-24.5 61.5zM950 578q0 35 24.5 59.5t59.5 24.5t59.5 -24.5t24.5 -59.5t-24.5 -59.5 t-59.5 -24.5t-59.5 24.5t-24.5 59.5z" />
<glyph unicode="&#xfb2e;" horiz-adv-x="1163" d="M84 1180h149l478 -688q33 43 67.5 107.5t59 150.5t30.5 193.5t-16 236.5h145q16 -139 10 -252t-35.5 -205t-81.5 -168t-126 -141l305 -414h-168l-506 700q-106 -152 -126.5 -326.5t12.5 -373.5h-144q-18 129 -19 233.5t21.5 197.5t72.5 178t134 175zM331 -190h388v-109 h-388v109z" />
<glyph unicode="&#xfb2f;" horiz-adv-x="1163" d="M84 1180h149l478 -688q33 43 67.5 107.5t59 150.5t30.5 193.5t-16 236.5h145q16 -139 10 -252t-35.5 -205t-81.5 -168t-126 -141l305 -414h-168l-506 700q-106 -152 -126.5 -326.5t12.5 -373.5h-144q-18 129 -19 233.5t21.5 197.5t72.5 178t134 175zM378 -190h388v-109 h-158l-6 -92q0 -23 26 -62q29 -41 29 -61q0 -37 -24.5 -61.5t-61.5 -24.5q-35 0 -59.5 24.5t-24.5 61.5q0 25 27 63q29 41 28 60l-6 92h-158v109z" />
<glyph unicode="&#xfb30;" horiz-adv-x="1163" d="M84 1180h149l478 -688q33 43 67.5 107.5t59 150.5t30.5 193.5t-16 236.5h145q16 -139 10 -252t-35.5 -205t-81.5 -168t-126 -141l305 -414h-168l-506 700q-106 -152 -126.5 -326.5t12.5 -373.5h-144q-18 129 -19 233.5t21.5 197.5t72.5 178t134 175zM405 189 q0 35 24.5 59.5t59.5 24.5t59.5 -24.5t24.5 -59.5t-24.5 -59.5t-59.5 -24.5t-59.5 24.5t-24.5 59.5z" />
<glyph unicode="&#xfb31;" horiz-adv-x="1058" d="M82 1116q158 68 304 73t259 -48.5t180.5 -164t67.5 -278.5v-202q0 -49 -6 -107.5t-16.5 -112t-23.5 -94.5t-28 -59h148v-123h-867v123h582q20 23 33.5 41t20.5 37.5t10.5 43t3.5 58.5v430q0 129 -61.5 204t-156 104.5t-207 17.5t-212.5 -60zM309 576q0 35 24.5 59.5 t59.5 24.5t59.5 -24.5t24.5 -59.5t-24.5 -59.5t-59.5 -24.5t-59.5 24.5t-24.5 59.5z" />
<glyph unicode="&#xfb32;" horiz-adv-x="888" d="M164 619q0 35 24.5 59.5t59.5 24.5t59.5 -24.5t24.5 -59.5t-24.5 -59.5t-59.5 -24.5t-59.5 24.5t-24.5 59.5zM76 -6l26 125q78 -6 156 23.5t139.5 87t102.5 139.5t45 178v244q0 102 -37 168.5t-97.5 94t-137 16.5t-156.5 -62l-25 102q117 80 223.5 88t187.5 -39t129 -144 t48 -229v-421l39 -367h-146l-4 356q-25 -66 -65.5 -137.5t-101 -126.5t-141.5 -84.5t-185 -11.5z" />
<glyph unicode="&#xfb33;" horiz-adv-x="1097" d="M90 1049v131h877v-131h-72q-29 -20 -45 -43t-23.5 -47.5t-8.5 -49t-1 -49.5v-860h-143v764q0 45 3 79t15.5 66.5t37 65.5t67.5 74h-707zM291 733q0 35 24.5 59.5t59.5 24.5t59.5 -24.5t24.5 -59.5t-24.5 -59.5t-59.5 -24.5t-59.5 24.5t-24.5 59.5z" />
<glyph unicode="&#xfb34;" horiz-adv-x="1245" d="M121 1122q98 35 207.5 55.5t218 17.5t206 -31.5t173 -93t120 -169t44.5 -258.5l-3 -643h-143v629q0 104 -20.5 184t-70.5 134t-135 82t-212 28q-106 0 -202.5 -18.5t-162.5 -55.5zM162 0v641l112 96h31v-737h-143zM532 531q0 35 24.5 59.5t59.5 24.5t59.5 -24.5 t24.5 -59.5t-24.5 -59.5t-59.5 -24.5t-59.5 24.5t-24.5 59.5z" />
<glyph unicode="&#xfb35;" horiz-adv-x="501" d="M154 0v1180h143v-1180h-143zM-121 617q0 35 24.5 59.5t59.5 24.5t59.5 -24.5t24.5 -59.5t-24.5 -59.5t-59.5 -24.5t-59.5 24.5t-24.5 59.5z" />
<glyph unicode="&#xfb36;" horiz-adv-x="749" d="M88 1051v129h547v-129h-207q-12 -84 -21.5 -205t25.5 -268l117 -578h-148l-100 524q-12 63 -17 122t-5 120t6 130t18 155h-215zM-6 832q0 35 24.5 59.5t59.5 24.5t59.5 -24.5t24.5 -59.5t-24.5 -59.5t-59.5 -24.5t-59.5 24.5t-24.5 59.5z" />
<glyph unicode="&#xfb38;" horiz-adv-x="1318" d="M145 522v658h144v-752q0 -70 24.5 -130t70.5 -104t112.5 -70t152.5 -26q80 0 148.5 23.5t119 67.5t79 106.5t28.5 142.5v393q0 86 -41 138.5t-104.5 70t-140 0t-146.5 -72.5l-41 114q125 92 236.5 100.5t196.5 -38.5t134 -136t49 -192v-274q0 -121 -32.5 -226.5 t-98 -182.5t-164 -121t-229.5 -44q-139 0 -234.5 42t-153.5 116t-84 175t-26 222zM584 592q0 35 24.5 59.5t59.5 24.5t59.5 -24.5t24.5 -59.5t-24.5 -59.5t-59.5 -24.5t-59.5 24.5t-24.5 59.5z" />
<glyph unicode="&#xfb39;" horiz-adv-x="522" d="M164 506v674h145l-2 -674h-143zM-102 838q0 35 24.5 59.5t59.5 24.5t59.5 -24.5t24.5 -59.5t-24.5 -59.5t-59.5 -24.5t-59.5 24.5t-24.5 59.5z" />
<glyph unicode="&#xfb3a;" horiz-adv-x="1056" d="M129 1133q170 70 311.5 71.5t243.5 -62t159.5 -191.5t57.5 -314l-2 -1038h-143v1132q0 137 -57.5 217t-144.5 111t-188.5 14.5t-189.5 -72.5zM348 705q0 35 24.5 59.5t59.5 24.5t59.5 -24.5t24.5 -59.5t-24.5 -59.5t-59.5 -24.5t-59.5 24.5t-24.5 59.5z" />
<glyph unicode="&#xfb3b;" horiz-adv-x="1140" d="M123 1069q156 106 314.5 127t284.5 -37.5t206 -190.5t80 -327l2 -61q6 -184 -70 -322.5t-202 -211.5t-284.5 -68.5t-318.5 104.5l41 113q123 -74 245 -86.5t219 31.5t158.5 142.5t65.5 247.5v158q-4 139 -69.5 230.5t-167 128t-224 14t-239.5 -110.5zM381 596 q0 35 24.5 59.5t59.5 24.5t59.5 -24.5t24.5 -59.5t-24.5 -59.5t-59.5 -24.5t-59.5 24.5t-24.5 59.5z" />
<glyph unicode="&#xfb3c;" horiz-adv-x="1046" d="M78 1051v481l143 2v-354h369q137 0 222 -63.5t117 -166t10.5 -230.5t-97.5 -255l-299 -504l-111 74l328 567q45 80 52 161t-19.5 144.5t-84 103.5t-139.5 40h-491zM334 680q0 35 24.5 59.5t59.5 24.5t59.5 -24.5t24.5 -59.5t-24.5 -59.5t-59.5 -24.5t-59.5 24.5 t-24.5 59.5z" />
<glyph unicode="&#xfb3e;" horiz-adv-x="1345" d="M139 1106l62 90q53 -23 101 -78t63 -168q45 106 125.5 167t174 79t189.5 -4.5t174 -80.5t127 -152.5t49 -219.5v-295q0 -131 -53 -233t-139 -159.5t-196.5 -63.5t-227.5 55l20 100q74 -31 154 -31.5t146.5 33t109.5 105.5t43 188v330q0 104 -50 173t-125 100.5t-162 27.5 t-162 -43t-125 -112.5t-50 -180.5v-733h-143v827q0 33 -5.5 73t-16.5 79t-31.5 73t-51.5 54zM643 580q0 35 24.5 59.5t59.5 24.5t59.5 -24.5t24.5 -59.5t-24.5 -59.5t-59.5 -24.5t-59.5 24.5t-24.5 59.5z" />
<glyph unicode="&#xfb40;" horiz-adv-x="831" d="M117 0v123h415v737q0 72 -35.5 117t-90 63.5t-119 10t-121.5 -40.5l-33 129q119 45 219.5 43t172 -49.5t111.5 -137.5t40 -219v-776h-559zM172 570q0 35 24.5 59.5t59.5 24.5t59.5 -24.5t24.5 -59.5t-24.5 -59.5t-59.5 -24.5t-59.5 24.5t-24.5 59.5z" />
<glyph unicode="&#xfb41;" horiz-adv-x="1271" d="M123 608q0 154 38 270.5t106.5 194.5t161.5 117t204 39t204 -38t160.5 -116t105.5 -194.5t38 -272.5q0 -145 -38 -262t-105.5 -200t-161 -127t-203.5 -44q-121 0 -216 44t-161 127t-99.5 200t-33.5 262zM266 602q0 -102 17.5 -192.5t59.5 -159t112.5 -108.5t177.5 -40 q109 0 179.5 45.5t111.5 118t57 161.5t16 175q0 98 -14 187.5t-55 157t-113 108.5t-184 41q-115 0 -185.5 -39t-110.5 -105.5t-54.5 -157t-14.5 -192.5zM547 584q0 35 24.5 59.5t59.5 24.5t59.5 -24.5t24.5 -59.5t-24.5 -59.5t-59.5 -24.5t-59.5 24.5t-24.5 59.5z" />
<glyph unicode="&#xfb43;" horiz-adv-x="1261" d="M92 788q0 100 42 178t110.5 130.5t158 79t187.5 26.5q141 0 239.5 -41t160 -114.5t89 -178t27.5 -231.5v-1036h-143l2 1087q0 74 -19.5 141.5t-64.5 119.5t-118 83t-179 31q-96 0 -161 -21.5t-106 -58.5t-59 -86t-22 -104q-2 -35 9 -81t46 -86t98.5 -67t163.5 -20l6 -111 q-117 -27 -205 -2t-146 79t-87 129.5t-29 153.5zM668 524q0 35 24.5 59.5t59.5 24.5t59.5 -24.5t24.5 -59.5t-24.5 -59.5t-59.5 -24.5t-59.5 24.5t-24.5 59.5z" />
<glyph unicode="&#xfb44;" horiz-adv-x="1253" d="M127 801q-4 141 67.5 239.5t183 146.5t243 42t244 -75t188 -205t75.5 -345q0 -125 -39.5 -236.5t-116.5 -196.5t-188.5 -134t-255.5 -49q-49 0 -104 10t-106.5 28.5t-95.5 45t-75 59.5l58 102q131 -94 269 -107t252 40t186.5 164.5t72.5 269.5q0 156 -53 262.5 t-132 164.5t-172 70.5t-172 -16t-132.5 -98.5t-53.5 -176q0 -53 16.5 -99t54.5 -76t98.5 -36t148.5 22l30 -81q-72 -55 -155.5 -66.5t-157.5 22t-124 111.5t-54 197zM700 645q0 35 24.5 59.5t59.5 24.5t59.5 -24.5t24.5 -59.5t-24.5 -59.5t-59.5 -24.5t-59.5 24.5 t-24.5 59.5z" />
<glyph unicode="&#xfb46;" horiz-adv-x="1144" d="M139 1180h158q27 -88 56.5 -171t69.5 -166t92 -167t126 -174q43 61 75 115.5t52 126t30.5 174t12.5 262.5h147q0 -260 -57 -442.5t-188 -309.5l231 -301v-127h-801v123h652q-104 102 -195.5 207.5t-172.5 229.5t-151.5 274.5t-136.5 345.5zM213 352q0 35 24.5 59.5 t59.5 24.5t59.5 -24.5t24.5 -59.5t-24.5 -59.5t-59.5 -24.5t-59.5 24.5t-24.5 59.5z" />
<glyph unicode="&#xfb47;" horiz-adv-x="1257" d="M143 1051v129h594q147 0 239.5 -68t130.5 -172t23.5 -230t-79.5 -245l-279 -504l-119 70l301 551q45 82 51.5 164.5t-21.5 150.5t-86 111t-140 43h-615zM178 -287v1016h144v-1016h-144zM520 584q0 35 24.5 59.5t59.5 24.5t59.5 -24.5t24.5 -59.5t-24.5 -59.5t-59.5 -24.5 t-59.5 24.5t-24.5 59.5z" />
<glyph unicode="&#xfb48;" horiz-adv-x="1077" d="M68 1116q37 18 84 32.5t98 26t102 17.5t94 6q123 0 214.5 -32.5t151.5 -91t89 -140.5t29 -180l-4 -754h-142v766q0 137 -83 221t-244 84q-33 0 -78 -5t-93 -14.5t-96.5 -23.5t-87.5 -33zM317 594q0 35 24.5 59.5t59.5 24.5t59.5 -24.5t24.5 -59.5t-24.5 -59.5 t-59.5 -24.5t-59.5 24.5t-24.5 59.5z" />
<glyph unicode="&#xfb49;" horiz-adv-x="1542" d="M156 655v525h143v-629q0 -98 33 -179t94 -139.5t148.5 -91t195.5 -32.5q223 0 348 109.5t125 332.5v629h143v-525q0 -135 -30.5 -258t-100 -216t-181 -148.5t-273.5 -55.5q-170 0 -292 48.5t-201 136.5t-115.5 213.5t-36.5 279.5zM557 426q23 14 47.5 40t46 64.5t34.5 90 t13 116.5v443h144v-445q0 -92 -25.5 -159.5t-63.5 -114.5t-81 -74t-76 -37zM950 578q0 35 24.5 59.5t59.5 24.5t59.5 -24.5t24.5 -59.5t-24.5 -59.5t-59.5 -24.5t-59.5 24.5t-24.5 59.5z" />
<glyph unicode="&#xfb4a;" horiz-adv-x="1333" d="M33 23l35 112q35 -12 72.5 -18t68.5 0t51.5 29.5t20.5 70.5v701l75 145q-76 -2 -124 -16.5t-99 -18.5l-16 113q61 14 129.5 26.5t138.5 20.5t135.5 13t118.5 5q162 0 270.5 -38t174 -114.5t93 -194.5t27.5 -279l-2 -580h-143v629q0 111 -18.5 193.5t-62.5 138t-120 84 t-190 28.5q-20 0 -56.5 -1t-73 -3t-69.5 -4t-45 -2v-778q0 -86 -29.5 -152.5t-82 -104.5t-124 -41t-155.5 36zM655 672q0 35 24.5 59.5t59.5 24.5t59.5 -24.5t24.5 -59.5t-24.5 -59.5t-59.5 -24.5t-59.5 24.5t-24.5 59.5z" />
<glyph unicode="&#xfb4b;" horiz-adv-x="501" d="M154 0v1180h143v-1180h-143zM137 1409q0 35 25.5 60.5t60.5 25.5q37 0 61.5 -24.5t24.5 -61.5t-24.5 -61.5t-61.5 -24.5t-61.5 24.5t-24.5 61.5z" />
<glyph unicode="&#xfb4c;" horiz-adv-x="1058" d="M82 1116q158 68 304 73t259 -48.5t180.5 -164t67.5 -278.5v-202q0 -49 -6 -107.5t-16.5 -112t-23.5 -94.5t-28 -59h148v-123h-867v123h582q20 23 33.5 41t20.5 37.5t10.5 43t3.5 58.5v430q0 129 -61.5 204t-156 104.5t-207 17.5t-212.5 -60zM274 1384v111h431v-111h-431z " />
<glyph unicode="&#xfb4d;" horiz-adv-x="1140" d="M123 1069q156 106 314.5 127t284.5 -37.5t206 -190.5t80 -327l2 -61q6 -184 -70 -322.5t-202 -211.5t-284.5 -68.5t-318.5 104.5l41 113q123 -74 245 -86.5t219 31.5t158.5 142.5t65.5 247.5v158q-4 139 -69.5 230.5t-167 128t-224 14t-239.5 -110.5zM317 1384v111h431 v-111h-431z" />
<glyph unicode="&#xfb4e;" horiz-adv-x="1253" d="M127 801q-4 141 67.5 239.5t183 146.5t243 42t244 -75t188 -205t75.5 -345q0 -125 -39.5 -236.5t-116.5 -196.5t-188.5 -134t-255.5 -49q-49 0 -104 10t-106.5 28.5t-95.5 45t-75 59.5l58 102q131 -94 269 -107t252 40t186.5 164.5t72.5 269.5q0 156 -53 262.5 t-132 164.5t-172 70.5t-172 -16t-132.5 -98.5t-53.5 -176q0 -53 16.5 -99t54.5 -76t98.5 -36t148.5 22l30 -81q-72 -55 -155.5 -66.5t-157.5 22t-124 111.5t-54 197zM379 1384v111h430v-111h-430z" />
<glyph unicode="&#xfb4f;" horiz-adv-x="1155" d="M78 1180v352l147 2v-354l477 -688q33 43 68 107.5t59.5 150.5t30.5 193.5t-16 236.5h145q16 -139 10 -252t-35.5 -205t-82 -168t-125.5 -141l305 -414h-168l-506 700z" />
</font>
</defs>
</svg>
